<svg enable-background="new 0 0 100 100" viewBox="0 0 100 100" xmlns="http://www.w3.org/2000/svg"><g fill="#5f6062"><path d="m53.9 76.4c-3.5-5.9-3.3-10.8-2.5-13.9 1.1-4.1 3.9-7.4 7.4-9v-2.5s2.6-2 3.4-8.2c1.6.5 3.3-2.4 3.4-3.9s-.2-5.5-2.2-5.1c.4-3 .7-5.8.5-7.2-.5-5.3-5.7-10.9-13.8-10.9-8 0-13.2 5.6-13.8 10.9-.1 1.4.2 4.2.6 7.2-2-.4-2.3 3.6-2.2 5.1s1.8 4.4 3.4 3.9c.8 6.2 3.4 8.2 3.4 8.2l-.1 6.6s-1.6 1-8.5 3.9-11.9 4.9-14 8.1c-1.9 2.9-1.3 13.1-1.3 13.1h41.4c-2.1-2-3.8-4.1-5.1-6.3z"/><path d="m71.4 87.4c-33.1-18.7-9.2-41.9 0-26.3 9.1-15.6 33.1 7.7 0 26.3z"/></g></svg>