<svg enable-background="new 0 0 100 100" viewBox="0 0 100 100" xmlns="http://www.w3.org/2000/svg"><g fill="#5f6062"><path d="m49.8 79.9c-2.6 0-4.8-2.2-4.8-4.8s2.2-4.8 4.8-4.8 4.8 2.2 4.8 4.8-2.2 4.8-4.8 4.8z"/><path d="m49.7 67.3c-2.2 0-4-1.8-4-4v-3.8c0-1.9.7-4.6 4.1-7 1.6-1.1 3.2-1.7 3.4-1.8l.2-.1c4.8-1.6 7.9-6 7.9-11 0-6.4-5.2-11.6-11.6-11.6s-11.6 5.2-11.6 11.6c0 2.2-1.8 4-4 4s-4-1.8-4-4c0-5.2 2-10.1 5.7-13.8s8.6-5.7 13.8-5.7 10.1 2 13.8 5.7 5.7 8.6 5.7 13.8c0 4.2-1.3 8.2-3.8 11.6-2.4 3.3-5.7 5.7-9.5 7-.9.4-1.9 1-2.2 1.4v3.6c.1 2.3-1.7 4.1-3.9 4.1z"/></g></svg>