<svg viewBox="-535 -20282.857 42.952 32.686" xmlns="http://www.w3.org/2000/svg"><path d="m-501.009-20265.029c-.042-.751-.988-1.973-1.939-3.02l-3.231-8.838a4.73 4.73 0 0 0 -4.429-3.11h-14.807a4.73 4.73 0 0 0 -4.429 3.11l-3.153 8.674c-.978 1.058-1.965 2.29-2 3.174v9.531a1.175 1.175 0 0 0 0 .138v2.682a2.509 2.509 0 0 0 2.5 2.518h.736a2.509 2.509 0 0 0 2.5-2.518v-1.71h22.535v1.714a2.509 2.509 0 0 0 2.5 2.518h.736a2.51 2.51 0 0 0 2.5-2.518v-2.824zm-28.5-5.924 1.871-5.115a2.36 2.36 0 0 1 2.217-1.555h14.806a2.36 2.36 0 0 1 2.217 1.555l1.871 5.115a.638.638 0 0 1 -.075.579.629.629 0 0 1 -.514.272h-21.795a.628.628 0 0 1 -.536-.275.638.638 0 0 1 -.063-.6zm1.245 9.568a2.43 2.43 0 0 1 -2.375-2.391 2.425 2.425 0 0 1 2.375-2.4 2.425 2.425 0 0 1 2.375 2.4 2.425 2.425 0 0 1 -2.375 2.364zm17.928-2.391a2.431 2.431 0 0 1 2.38-2.4 2.431 2.431 0 0 1 2.375 2.4 2.43 2.43 0 0 1 -2.375 2.391 2.431 2.431 0 0 1 -2.385-2.417z" fill="#1778d3"/><path d="m-500.954-20282.857a8.905 8.905 0 1 0 8.905 8.905 8.905 8.905 0 0 0 -8.905-8.905zm4.545 6.033-5.7 6.753a.277.277 0 0 1 -.385.017l-2.969-2.983a.624.624 0 0 1 .884-.881l2.011 2.019a.277.277 0 0 0 .385-.017l4.822-5.714a.623.623 0 1 1 .953.8z" fill="#00844d"/></svg>