<svg height="40" viewBox="0 0 66 40" width="66" xmlns="http://www.w3.org/2000/svg"><g fill="none" fill-rule="evenodd"><g fill="#00529a"><path d="m65.6 2c-1.9-3.3-11.5-1.5-24.5 4.5l-.2.1.2.1c.7.5 1.3 1 1.8 1.6l.1.1h.1c9.7-4.1 16.9-5.2 18.3-2.7 1.7 2.9-5 10.3-16.3 17.9l-.1.1.3.3.1-.1c14-9.3 22.3-18.3 20.2-21.9z"/><path d="m20.2 36.1c-7.3 2.6-12.3 2.9-13.4.9-1-1.7 1-5.2 5.6-9.5l.2-.2-1.3-.5c-.1 0-1.1-.5-1.1-.5h-.1l-.1.1c-5.7 5.3-8.2 9.4-6.9 11.6 1.5 2.6 7.8 2.1 17.3-1.5l.2-.1-.3-.4z"/></g><path d="m23.6 1.2c-12.5 0-22.7 6.3-22.7 14.1s10.2 14.1 22.7 14.1 22.7-6.3 22.7-14.1-10.2-14.1-22.7-14.1zm-3.9 19.6h5.4c.1.2 1.8 6.5 1.9 6.8-1.1.1-2.3.2-3.4.2-1.9 0-3.8-.2-5.7-.6.1-.2 1.7-6.2 1.8-6.4zm.5-2c.1-.3 1.9-6.9 2.1-7.8.2.9 2.1 7.5 2.2 7.8zm2.2-16.1c-.1.4-4.1 14.9-4.3 15.8-.2-.8-4-13.7-4.1-14 2.5-1 5.4-1.6 8.4-1.8zm2 0c3 .1 5.9.7 8.5 1.7-.1.3-3.6 13.2-3.9 14.1-.2-.9-4.5-15.4-4.6-15.8zm6.8 16.1c.1-.3 1.9-6.9 2.1-7.8.2.9 2.1 7.5 2.2 7.8zm-1 3.7c0-.1.4-1.5.5-1.7h5.4c.1.2.8 3 .9 3.2-1.6 1.1-3.4 2-5.5 2.7-.2-.3-1.3-4.1-1.3-4.2zm10.3-2.2c-.2-.6-3.9-13.4-4.1-14.1 3.6 2.4 5.7 5.6 5.7 9.1 0 1.8-.6 3.4-1.6 5zm-24.8 6.4c-3-1-5.5-2.4-7.4-4.3 0-.1.4-1.4.4-1.5h5.4c0 .1 1.5 5.4 1.6 5.8zm-6.5-7.9c.1-.3 1.9-6.9 2.1-7.8.2.9 2.1 7.5 2.1 7.8zm1.2-12.3c-.2.7-3.6 13.2-3.8 13.8-1-1.6-1.5-3.2-1.5-5 0-3.3 1.9-6.4 5.3-8.8z" fill="#ed1c2e"/></g></svg>