<svg enable-background="new 0 0 100 100" viewBox="0 0 100 100" xmlns="http://www.w3.org/2000/svg"><path d="m58 48h-.1l-3.8-1.1v-20.1c1.9.5 3.6 1.4 5.1 2.5 2.2 1.8 3.4 4 3.4 6.4 0 2.3 1.8 4.1 4.1 4.1s4.1-1.8 4.1-4.1c0-2.5-.6-4.9-1.8-7.2-1.1-2.1-2.6-4-4.6-5.6-2.9-2.3-6.4-3.9-10.2-4.6v-2.1c0-2.3-1.8-4.1-4.1-4.1s-4.1 1.8-4.1 4.1v2.1c-3.8.7-7.4 2.2-10.2 4.6-2 1.6-3.5 3.5-4.6 5.6-1.2 2.3-1.8 4.7-1.8 7.2 0 7.2 5 13.6 12.7 16.3h.1l3.8 1.1v20.2c-1.9-.5-3.6-1.4-5.1-2.5-2.2-1.8-3.4-4-3.4-6.4 0-2.3-1.8-4.1-4.1-4.1s-4.1 1.8-4.1 4.1c0 2.5.6 4.9 1.8 7.2 1.1 2.1 2.6 4 4.6 5.6 2.9 2.3 6.4 3.9 10.2 4.6v2.1c0 2.3 1.8 4.1 4.1 4.1s4.1-1.8 4.1-4.1v-2.1c3.8-.7 7.4-2.2 10.2-4.6 2-1.6 3.5-3.5 4.6-5.6 1.2-2.3 1.8-4.7 1.8-7.2 0-7.2-5-13.6-12.7-16.4zm-13.4-3.7c-4.3-1.6-7.1-4.9-7.1-8.5 0-2.4 1.2-4.7 3.4-6.4 1.4-1.2 3.2-2 5.1-2.5v17.8zm14.6 26.5c-1.4 1.2-3.2 2-5.1 2.5v-17.8l1.3.4c4.3 1.6 7.1 4.9 7.1 8.5 0 2.3-1.2 4.6-3.3 6.4z" fill="#5f6062"/></svg>