<svg height="65.57" viewBox="0 0 70.317 65.57" width="70.317" xmlns="http://www.w3.org/2000/svg"><g fill="#5f6062"><path d="m63.543 33.441c-2.593 1.436-5.544 2.302-8.682 2.428 1.095.848 1.82 2.169 1.82 3.614 0 2.462-2.112 4.574-4.574 4.574-2.467 0-4.579-2.112-4.579-4.574 0-1.706 1.01-3.24 2.449-4.025-4.979-1.058-9.265-4.009-12.069-8.061h-26.142c-.843 0-1.428-.839-1.137-1.63l3.597-9.776c.658-1.787 2.36-2.975 4.265-2.975h16.207c.265-1.587.72-3.109 1.342-4.544h-17.549c-3.809 0-7.214 2.375-8.529 5.95l-6.103 16.587c-1.879 1.973-3.781 4.376-3.852 6.083h-.007v18.264c0 .091.006.18.017.267v5.13c0 2.661 2.157 4.817 4.817 4.817h1.413c2.661 0 4.817-2.157 4.817-4.817v-3.277h43.367v3.277c0 2.661 2.157 4.817 4.817 4.817h1.413c2.661 0 4.817-2.157 4.817-4.817v-5.397-18.264h-.008c-.052-.946-.859-2.279-1.927-3.651zm-50.518 10.617c-2.465 0-4.574-2.112-4.574-4.574 0-2.467 2.11-4.577 4.574-4.577 2.467 0 4.574 2.11 4.574 4.577 0 2.462-2.107 4.574-4.574 4.574z"/><path d="m54.062 0c-8.977 0-16.254 7.277-16.254 16.254s7.277 16.254 16.254 16.254 16.254-7.277 16.254-16.254-7.276-16.254-16.254-16.254zm9.988 11.595-11.652 11.742c-.281.283-.664.443-1.063.443h-.01c-.403-.003-.787-.168-1.067-.457l-5.668-5.87c-.574-.595-.558-1.543.037-2.117s1.543-.558 2.117.037l4.606 4.77 10.575-10.657c.583-.587 1.53-.591 2.117-.008.587.582.591 1.53.008 2.117z"/></g></svg>