<svg enable-background="new 0 0 100 100" viewBox="0 0 100 100" xmlns="http://www.w3.org/2000/svg"><g fill="#5f6062"><path d="m73.4 60.7c-2 0-3.7 1.6-3.7 3.7v6h-40.4v-6c0-2-1.6-3.7-3.7-3.7-2 0-3.7 1.6-3.7 3.7v11.6c0 .9.7 1.6 1.6 1.6h51.8c.9 0 1.6-.7 1.6-1.6v-11.6c.1-2-1.5-3.7-3.5-3.7z"/><path d="m48.4 63.3c.6.6 1.7.6 2.3 0l13.4-13.4c1.4-1.4 1.4-3.7 0-5.2-1.4-1.4-3.7-1.4-5.2 0l-5.7 5.7v-24.2c0-2-1.6-3.7-3.7-3.7-2 0-3.7 1.6-3.7 3.7v24.2l-5.7-5.7c-1.4-1.4-3.7-1.4-5.2 0-1.4 1.4-1.4 3.7 0 5.2z"/></g></svg>