<svg height="34" viewBox="0 0 66 34" width="66" xmlns="http://www.w3.org/2000/svg"><g fill="none" fill-rule="evenodd"><g fill="#00529a"><path d="m19.6 26.1h1.6l-1.6 7.6h-1.6z"/><path d="m21.9 28.9c.1-.3.1-.6.1-.8h1.4l-.1.5c.4-.4 1-.7 1.6-.7 1.1 0 1.8.7 1.8 1.8 0 .4-.1.9-.2 1.2l-.5 2.8h-1.5l.5-2.6c.1-.4.2-.8.2-1.2 0-.5-.3-.8-.8-.8-1 0-1.4.9-1.6 1.8l-.6 2.8h-1.5z"/><path d="m31.6 29.3c-.4-.1-.8-.3-1.2-.3s-1 .1-1 .6c0 .7 1.9 1 1.9 2.3 0 1.5-1.3 1.9-2.5 1.9-.6 0-1.2-.1-1.7-.3l.3-1.2c.4.2.8.4 1.4.4.5 0 1-.2 1-.6 0-.9-1.9-1-1.9-2.4 0-1.3 1.3-1.8 2.4-1.8.5 0 1.1.1 1.6.2z"/><path d="m37.3 32.9c-.1.3-.1.6-.1.8h-1.4l.1-.5c-.4.4-1 .7-1.6.7-1.1 0-1.8-.7-1.8-1.8 0-.4.1-.9.2-1.2l.6-2.7h1.5l-.5 2.6c-.1.4-.2.8-.2 1.2 0 .5.3.8.8.8 1 0 1.4-.9 1.6-1.8l.6-2.8h1.5z"/><path d="m39.5 28.8c0-.2.1-.5.1-.8h1.4l-.2 1.1c.3-.6 1-1.2 1.7-1.2.2 0 .4 0 .6.1l-.3 1.4c-.2-.1-.4-.1-.6-.1-1 0-1.5.9-1.7 1.8l-.5 2.6h-1.5z"/><path d="m46.2 32.8c-.5.6-1 1-1.8 1-1 0-1.7-.6-1.7-1.6 0-1.9 2.1-2 3.4-2h.5v-.5c0-.6-.6-.7-1.1-.7-.6 0-1.3.2-1.8.4l.2-1.2c.6-.2 1.3-.3 1.9-.3 1.1 0 2.2.4 2.2 1.7 0 .8-.6 3-.7 4h-1.3zm-1.5 0c1.1 0 1.4-.8 1.7-1.7h-.5c-.7 0-1.9.1-1.9 1.1 0 .4.4.6.7.6z"/><path d="m49.5 28.9c.1-.3.1-.6.1-.8h1.4v.5c.4-.4 1-.7 1.6-.7 1.1 0 1.8.7 1.8 1.8 0 .4-.1.9-.2 1.2l-.6 2.7h-1.5l.5-2.6c.1-.4.2-.8.2-1.2 0-.5-.3-.8-.8-.8-1 0-1.4.9-1.6 1.8l-.6 2.8h-1.5z"/><path d="m59.6 29.4c-.3-.2-.7-.3-1.1-.3-1.2 0-1.8 1.1-1.8 2.1 0 .7.2 1.5 1.2 1.5.4 0 .8-.1 1.2-.3l-.1 1.2c-.4.2-.9.3-1.4.3-1.4 0-2.4-1-2.4-2.4 0-2 1.3-3.5 3.3-3.5.5 0 1.1.1 1.5.2z"/><path d="m61.4 31.3c0 1 .6 1.4 1.6 1.4.6 0 1.2-.2 1.7-.4l-.2 1.2c-.6.2-1.2.3-1.8.3-1.6 0-2.7-.8-2.7-2.5s1.4-3.4 3.2-3.4c1.4 0 2.3.7 2.3 2.1 0 .4-.1.8-.1 1.3zm2.7-1v-.4c0-.6-.3-.9-.9-.9-.9 0-1.3.5-1.6 1.3z"/></g><g fill="#00529a"><path d="m50.6 1.4c-1.5-2.5-8.9-1.2-19 3.5l-.2.1.1.1c.5.4 1 .8 1.4 1.2l.1.1h.1c7.5-3.2 13-4 14.1-2.1 1.3 2.3-3.9 7.9-12.6 13.8l-.1.1.3.3.1-.1c10.9-7.2 17.3-14.1 15.7-17z"/><path d="m15.5 27.9c-5.6 2-9.6 2.2-10.4.7-.8-1.4.8-4 4.4-7.4l.1-.1-1-.4-.8-.4h-.1-.1c-4.4 4.1-6.3 7.3-5.3 9 1.2 2 6.1 1.6 13.4-1.1l.1-.1z"/></g><path d="m18.1.8c-9.7 0-17.6 4.9-17.6 10.9s7.9 10.9 17.6 10.9 17.6-4.9 17.6-10.9c-.1-6-8-10.9-17.6-10.9zm-3.1 15.2h4.2c0 .2 1.4 5 1.5 5.3-.9.1-1.8.2-2.6.2-1.5 0-3-.2-4.4-.5 0-.2 1.3-4.8 1.3-5zm.4-1.5c.1-.3 1.5-5.4 1.7-6.1.2.7 1.6 5.8 1.7 6.1zm1.7-12.5c-.1.3-3.2 11.5-3.4 12.2-.2-.7-3.1-10.6-3.1-10.8 2-.8 4.2-1.3 6.5-1.4zm1.6 0c2.3.1 4.6.5 6.6 1.3-.1.2-2.8 10.2-3 10.9-.2-.7-3.5-11.9-3.6-12.2zm5.2 12.5c.1-.3 1.5-5.4 1.6-6.1.2.7 1.6 5.8 1.7 6.1zm-.7 2.8c0-.1.3-1.1.3-1.3h4.2c0 .2.6 2.3.7 2.5-1.2.9-2.7 1.6-4.3 2.1 0-.2-.9-3.2-.9-3.3zm8-1.6c-.1-.5-3-10.3-3.2-10.9 2.8 1.8 4.4 4.4 4.4 7 0 1.3-.4 2.6-1.2 3.9zm-19.3 4.9c-2.3-.7-4.3-1.9-5.7-3.3 0-.1.3-1.1.3-1.2h4.2c0 .1 1.1 4.1 1.2 4.5zm-4.9-6.1c.1-.3 1.5-5.4 1.7-6.1.2.7 1.6 5.8 1.7 6.1zm.8-9.6c-.2.6-2.8 10.2-2.9 10.7-.8-1.2-1.2-2.5-1.2-3.8 0-2.6 1.5-5 4.1-6.9z" fill="#ed1c2e"/></g></svg>