<svg enable-background="new 0 0 100 100" viewBox="0 0 100 100" xmlns="http://www.w3.org/2000/svg"><path d="m80.4 20.5h-52.4c-2.4 0-4.4 2-4.4 4.4v.4h-4.1c-2.6 0-4.7 2.1-4.7 4.7v43.4c0 3.6 2.9 6.6 6.6 6.6h16.9 42.2c2.4 0 4.4-2 4.4-4.4v-50.7c-.1-2.5-2.1-4.4-4.5-4.4zm-57.1 51.1c0 1.1-.9 2.1-2.1 2.1-1.1 0-2.1-.9-2.1-2.1v-39.1c0-1.1.9-2.1 2.1-2.1 1.1 0 2.1.9 2.1 2.1zm9.5-34.4c0-1.1.9-2.1 2.1-2.1h15.1c1.1 0 2.1.9 2.1 2.1v12.9c0 1.1-.9 2.1-2.1 2.1h-15.1c-1.1 0-2.1-.9-2.1-2.1zm39.6 26.9h-37.6c-1.2 0-2.1-.9-2.1-2.1 0-1.1.9-2.1 2.1-2.1h37.6c1.2 0 2.1.9 2.1 2.1s-.9 2.1-2.1 2.1zm0-12.4h-12.2c-1.1 0-2.1-.9-2.1-2.1 0-1.1.9-2.1 2.1-2.1h12.2c1.1 0 2.1.9 2.1 2.1s-.9 2.1-2.1 2.1zm0-12.4h-12.2c-1.1 0-2.1-.9-2.1-2.1 0-1.1.9-2.1 2.1-2.1h12.2c1.1 0 2.1.9 2.1 2.1s-.9 2.1-2.1 2.1z" fill="#5f6062"/></svg>