<svg enable-background="new 0 0 100 100" viewBox="0 0 100 100" xmlns="http://www.w3.org/2000/svg"><g fill="#5f6062"><path d="m28.1 57.1c-4.1 0-7.4 3.3-7.4 7.4s3.3 7.5 7.4 7.5 7.4-3.3 7.4-7.4-3.3-7.5-7.4-7.5zm0 10.4c-1.6 0-2.9-1.3-2.9-2.9s1.3-2.9 2.9-2.9 2.9 1.3 2.9 2.9-1.3 2.9-2.9 2.9z"/><path d="m86.9 57.1v-12.6l-1.9-4.6c-1.2-2.9-4-4.8-7.2-4.8h-27.6c-2.1 0-4.2.7-5.8 1.9l-8.7 7.5h-13c-3.8 0-6.8 3-6.8 6.8v5.8h-.5c-1.6 0-2.9 1.3-2.9 2.9v2.7c0 1.6 1.3 2.9 2.9 2.9h2.9c0-.4-.1-.7-.1-1.1 0-5.4 4.4-9.9 9.9-9.9s9.9 4.4 9.9 9.9c0 .4 0 .7-.1 1.1h27c0-.4-.1-.7-.1-1.1 0-5.4 4.4-9.9 9.9-9.9 5.4 0 9.9 4.4 9.9 9.9 0 .4 0 .7-.1 1.1h.4c1.6 0 2.9-1.3 2.9-2.9v-4.6c.1-.5-.4-1-.9-1zm-24.8-12.6h-20.8l5.1-4.8c1.1-.8 2.4-1.3 3.8-1.3h12v6.1zm3 0v-6.1h12.7c1.8 0 3.4 1.1 4 2.7l1.4 3.4z"/><path d="m74.7 57.1c-4.1 0-7.4 3.3-7.4 7.4s3.3 7.4 7.4 7.4 7.4-3.3 7.4-7.4-3.3-7.4-7.4-7.4zm0 10.4c-1.6 0-2.9-1.3-2.9-2.9s1.3-2.9 2.9-2.9 2.9 1.3 2.9 2.9c.1 1.6-1.2 2.9-2.9 2.9z"/></g></svg>