<svg enable-background="new 0 0 100 100" viewBox="0 0 100 100" xmlns="http://www.w3.org/2000/svg"><g fill="#5f6062"><path d="m26.6 57.4c-4 0-7.3 3.3-7.3 7.3s3.3 7.3 7.3 7.3 7.3-3.3 7.3-7.3-3.3-7.3-7.3-7.3zm0 10.2c-1.6 0-2.9-1.3-2.9-2.9s1.3-2.9 2.9-2.9 2.9 1.3 2.9 2.9-1.3 2.9-2.9 2.9z"/><path d="m68.6 49.8 12.4-19.5v8.4c-.6.3-1.1 1-1.1 1.7s.4 1.4 1.1 1.7v1.7c0 .4.3.7.7.8 0 0 .1.1.1.1.5.2.8.6.8 1.1 0 .4-.1.7-.3 1s-.6.5-.9.5c-.4 0-.7-.1-1-.3s-.5-.6-.5-.9c-.1-.5-.5-.8-1-.8-.5.1-.8.5-.8 1 .1.8.5 1.6 1.1 2.1s1.3.7 2 .7h.3c.8-.1 1.6-.5 2.1-1.1.5-.7.8-1.5.7-2.3-.1-1-.7-1.9-1.6-2.4v-1.1c.6-.3 1.1-1 1.1-1.7s-.4-1.4-1.1-1.7v-11.3l.5-.8c.3-.4.5-.9.5-1.4 0-1.3-1-2.3-2.3-2.3-.7 0-1.3.3-1.7.8l-26.1 22.1v-13.3c0-.5-.4-.9-.9-.9h-3c-.5 0-.9.4-.9.9v17.2h-1.5v-5.7-4.9c0-1-.8-1.8-1.8-1.8h-1.8v-1.9c0-.5-.4-.9-.9-.9h-3.1c-.5 0-.9.4-.9.9v1.9h-6.4c-.6 0-1.1.3-1.5.8l-3.7 5.5c-.2.2-.4.4-.7.4h-6.3c-2.4 0-4.4 1.5-4.4 3.9v4.6.4 3.6h-2c-1 0-1.8.8-1.8 1.8v4.3c0 1 .8 1.8 1.8 1.8h2 .3.8c.1-5.2 4.4-9.4 9.7-9.4 5.2 0 9.5 4.2 9.7 9.4h26.4c.1-5.2 4.4-9.4 9.7-9.4 5.2 0 9.5 4.2 9.7 9.4h1.6 1.2c1.5 0 2.6-1.2 2.6-2.6v-3.3-8.8zm-24.4-4.8h-14.2l2.8-4.2c.2-.3.6-.5 1-.5h9.2c.6 0 1.2.5 1.2 1.2z"/><path d="m72.3 57.4c-4 0-7.3 3.3-7.3 7.3s3.3 7.3 7.3 7.3 7.3-3.3 7.3-7.3-3.3-7.3-7.3-7.3zm0 10.2c-1.6 0-2.9-1.3-2.9-2.9s1.3-2.9 2.9-2.9 2.9 1.3 2.9 2.9-1.3 2.9-2.9 2.9z"/></g></svg>