<svg enable-background="new 0 0 100 100" viewBox="0 0 100 100" xmlns="http://www.w3.org/2000/svg"><g fill="#5f6062"><path d="m71.8 49c-.8 0-1.5.1-2.2.2-.8-3.6-4-6.4-7.9-6.4-.2 0-.4 0-.6 0-1.1-6.8-6.9-12-14-12-6.3 0-11.7 4.1-13.5 9.9-.5-.1-1-.1-1.5-.1-7.8 0-14.2 6.3-14.2 14.2 0 7.7 6.1 13.9 13.7 14.1h3.4l-.3-.3c-1.2-1.2-1.5-3-.9-4.5s2-2.4 3.5-2.5v-7.6c0-2.3 1.9-4.1 4.1-4.1h8.6c2.3 0 4.1 1.9 4.1 4.1v7.6c1.6.1 2.9 1.1 3.5 2.5.6 1.5.3 3.3-.9 4.5l-.2.4h15.5c5.5-.1 9.9-4.5 9.9-10-.1-5.5-4.5-10-10.1-10z"/><path d="m53.8 65h-3v-10.8c0-.5-.4-.8-.8-.8h-8.4c-.5 0-.8.4-.8.8v10.8h-3c-.7 0-1.1.9-.6 1.4l8 8c.3.3.9.3 1.2 0l8-8c.5-.5.2-1.4-.6-1.4z"/></g></svg>