<svg enable-background="new 0 0 100 100" viewBox="0 0 100 100" xmlns="http://www.w3.org/2000/svg"><g fill="#5f6062"><path d="m83.1 46.5v-3.7c0-1.6-1.3-2.9-2.9-2.9h-25l-16.3-7.2 1-3c.4-1.1 1.4-1.8 2.5-1.8h6.2v-1.8h-7c-2.8 0-5.3 1.8-6.2 4.4l-4.4 12.9c-1.4-.4-2.8-.6-4.3-.6-8.1 0-14.6 6.5-14.6 14.6s6.6 14.6 14.6 14.6 14.6-6.5 14.6-14.6c0-5.2-2.7-9.7-6.7-12.3l2.8-8.1 1.9 7.7 12.7 14h6.9c.6 7.5 6.9 13.3 14.5 13.3 8 0 14.6-6.5 14.6-14.6 0-4.4-1.9-8.3-4.9-10.9zm-46.6 10.9c0 5.4-4.4 9.7-9.7 9.7s-9.8-4.3-9.8-9.7 4.4-9.7 9.7-9.7c.9 0 1.9.1 2.7.4l-1.6 4.6c-.4-.1-.8-.1-1.2-.1-2.7 0-4.9 2.2-4.9 4.9s2.2 4.9 4.9 4.9 4.9-2.2 4.9-4.9c0-.8-.2-1.5-.5-2.1l1.8-5.4c2.3 1.7 3.7 4.4 3.7 7.4zm22.6-3.3c-.6-.1-1.1-.1-1.7-.2-.4-2.5-2.5-4.5-5.1-4.5-1.3 0-2.4.5-3.3 1.2-.6-.4-1.1-.8-1.6-1.1l-1.9-1.9h17c-1.6 1.8-2.8 4.1-3.4 6.5zm14.3 13c-4.9 0-9-3.7-9.6-8.4h5c.6 2.1 2.5 3.6 4.7 3.6s4.1-1.5 4.7-3.6h3.1v-3.3h-3.4c-.8-1.7-2.5-2.8-4.4-2.8-2 0-3.6 1.2-4.4 2.8h-5.1c.9-4.4 4.9-7.7 9.5-7.7 5.4 0 9.7 4.4 9.7 9.7s-4.4 9.7-9.8 9.7z"/><path d="m31.5 34.1v-2.1c0-1.6-1.3-2.8-2.8-2.8h-3.7v7.8h3.7c1.5-.1 2.8-1.4 2.8-2.9z"/></g></svg>