<svg height="58" viewBox="0 0 66 58" width="66" xmlns="http://www.w3.org/2000/svg"><path d="m65.6 29.2c-.1-1.4-1.9-3.7-3.7-5.7l-6.1-16.7c-1.3-3.5-4.7-5.9-8.4-5.9h-28.3c-3.8 0-7.1 2.3-8.4 5.9l-6 16.4c-1.9 2-3.7 4.3-3.8 6v18.1.3 5.1c0 2.6 2.1 4.8 4.8 4.8h1.3c2.6 0 4.8-2.1 4.8-4.8v-3.2h42.9v3.2c0 2.6 2.1 4.8 4.8 4.8h1.4c2.6 0 4.8-2.1 4.8-4.8v-5.3-18.2zm-54.3-11.2 3.6-9.7c.7-1.8 2.3-2.9 4.2-2.9h28.2c1.9 0 3.6 1.2 4.2 2.9l3.6 9.7c.3.8-.3 1.6-1.1 1.6h-41.5c-.9 0-1.5-.8-1.2-1.6zm2.4 18.1c-2.4 0-4.5-2.1-4.5-4.5s2.1-4.5 4.5-4.5 4.5 2.1 4.5 4.5-2.1 4.5-4.5 4.5zm34.1-4.6c0-2.4 2.1-4.5 4.5-4.5s4.5 2.1 4.5 4.5-2.1 4.5-4.5 4.5c-2.4.1-4.5-2-4.5-4.5z" fill="#5f6062" fill-rule="evenodd"/></svg>