<svg enable-background="new 0 0 100 100" viewBox="0 0 100 100" xmlns="http://www.w3.org/2000/svg"><path d="m72.9 60.7c.1-.1.1-.3.2-.4 0-.1 0-.1.1-.2 0-.1.1-.2.1-.3s.1-.2.1-.3 0-.1.1-.2.1-.3.2-.4c.4-1.1.7-2.2 1-3.3l6.9-1.4c.5-.1.8-.5.8-1v-5.9c0-.5-.3-.9-.8-1l-6.9-1.4c-.2-1.1-.6-2.2-1-3.3-.1-.1-.1-.3-.2-.4 0-.1 0-.1-.1-.2 0-.1-.1-.2-.1-.3s-.1-.2-.1-.3 0-.1-.1-.2c-.1-.2-.1-.3-.2-.5-.5-1-1-2-1.7-3l3.9-5.9c.3-.4.2-.9-.1-1.3l-4.2-4.2c-.3-.3-.9-.4-1.3-.1l-5.9 3.9c-1-.6-2-1.2-3-1.7-.1-.1-.3-.1-.4-.2-.1 0-.1 0-.2-.1-.1 0-.2-.1-.3-.1s-.2-.1-.3-.1-.1 0-.2-.1-.3-.1-.4-.2c-1.1-.4-2.2-.7-3.3-1l-1.5-6.8c-.1-.5-.5-.8-1-.8h-5.9c-.5 0-.9.3-1 .8l-1.4 6.9c-1.1.2-2.2.6-3.3 1-.1.1-.3.1-.4.2-.1 0-.1 0-.2.1-.1 0-.2.1-.3.1s-.2.1-.3.1-.1 0-.2.1-.3.1-.4.2c-1 .5-2 1-3 1.7l-5.9-3.9c-.4-.3-.9-.2-1.3.1l-4.2 4.2c-.3.3-.4.9-.1 1.3l3.9 5.9c-.6 1-1.2 2-1.7 3-.1.1-.1.3-.2.4 0 .1 0 .1-.1.2 0 .1-.1.2-.1.3s-.1.2-.1.3 0 .1-.1.2-.1.3-.2.4c-.4 1.1-.7 2.2-1 3.3l-6.9 1.4c-.5.1-.8.5-.8 1v5.9c0 .5.3.9.8 1l6.9 1.4c.2 1.1.6 2.2 1 3.3.1.1.1.3.2.4 0 .1 0 .1.1.2 0 .1.1.2.1.3s.1.2.1.3 0 .1.1.2.1.3.2.4c.5 1 1 2 1.7 3l-4 6c-.3.4-.2.9.1 1.3l4.2 4.2c.3.3.9.4 1.3.1l5.9-3.9c1 .6 2 1.2 3 1.7.1.1.3.1.4.2.1 0 .1 0 .2.1.1 0 .2.1.3.1s.2.1.3.1.1 0 .2.1.3.1.4.2c1.1.4 2.2.7 3.3 1l1.4 6.9c.1.5.5.8 1 .8h6c.5 0 .9-.3 1-.8l1.4-6.9c1.1-.2 2.2-.6 3.3-1 .1-.1.3-.1.4-.2.1 0 .1 0 .2-.1.1 0 .2-.1.3-.1s.2-.1.3-.1.1 0 .2-.1.3-.1.4-.2c1-.5 2-1 3-1.7l5.9 3.9c.4.3.9.2 1.3-.1l4.2-4.2c.3-.3.4-.9.1-1.3l-3.9-5.9c.8-1 1.3-2 1.8-3.1zm-10.2-10.5c0 6.9-5.6 12.6-12.6 12.6s-12.6-5.6-12.6-12.6 5.6-12.6 12.6-12.6 12.6 5.7 12.6 12.6z" fill="#5f6062"/></svg>