<svg enable-background="new 0 0 100 100" viewBox="0 0 100 100" xmlns="http://www.w3.org/2000/svg"><path d="m61.7 18c-11.3 0-20.5 9.2-20.5 20.5 0 3.4.8 6.6 2.3 9.4l-25.3 25.3c-.3.3-.4.6-.4 1v6.3c0 1 .8 1.9 1.9 1.9h6.3c.4 0 .7-.1 1-.4l2.1-2.1c.3-.3.4-.6.4-1v-3.9c0-.8.6-1.4 1.4-1.4h3c.8 0 1.4-.6 1.4-1.4v-3c0-.8.6-1.4 1.4-1.4h3.8c.4 0 .7-.1 1-.4l10.7-10.7c2.8 1.5 6 2.3 9.4 2.3 11.3 0 20.5-9.2 20.5-20.5.1-11.3-9.1-20.5-20.4-20.5zm5.7 21.5c-3.7 0-6.7-3-6.7-6.7s3-6.7 6.7-6.7 6.7 3 6.7 6.7-3 6.7-6.7 6.7z" fill="#5f6062"/></svg>