<svg enable-background="new 0 0 100 100" viewBox="0 0 100 100" xmlns="http://www.w3.org/2000/svg"><g fill="#5f6062"><path d="m33 26.5h-2.7c-.6 0-1-.5-1-1v-11.3c0-.6.5-1 1-1h2.7c.6 0 1 .5 1 1v11.2c.1.6-.4 1.1-1 1.1z"/><path d="m73.2 47.9c-.1 0-.2 0-.3 0v20.5c0 1.6-1.3 2.8-2.8 2.8h-40.3c-1.6 0-2.8-1.3-2.8-2.8v-26.3c0-1.6 1.3-2.8 2.8-2.8h26.3c-2.6-3.5-4.1-7.8-4.1-12.4 0-3.2.7-6.2 2-8.8h-17.6v6.2c0 2.6-2.1 4.7-4.7 4.7s-4.7-2.3-4.7-4.9v-6.2h-4.5c-2.6 0-4.7 2.1-4.7 4.7v54.9c0 2.6 2.1 4.7 4.7 4.7h54.9c2.6 0 4.7-2.1 4.7-4.7v-31.6c-2.7 1.3-5.7 2-8.9 2z"/><circle cx="36.9" cy="49.1" r="2.8"/><circle cx="49.9" cy="49.1" r="2.8"/><circle cx="62.9" cy="49.1" r="2.8"/><circle cx="36.9" cy="61.3" r="2.8"/><circle cx="49.9" cy="61.3" r="2.8"/><circle cx="62.9" cy="61.3" r="2.8"/><path d="m73.2 8.9c-9.9 0-17.8 8-17.8 17.8s8 17.8 17.8 17.8c9.9 0 17.8-8 17.8-17.8s-8-17.8-17.8-17.8zm11 12.8-12.8 12.9c-.3.3-.7.5-1.2.5-.4 0-.9-.2-1.2-.5l-6.2-6.4c-.6-.7-.6-1.7 0-2.3.7-.6 1.7-.6 2.3 0l5.1 5.2 11.6-11.7c.6-.6 1.7-.6 2.3 0s.7 1.6.1 2.3z"/></g></svg>