<svg height="66" viewBox="0 0 74 66" width="74" xmlns="http://www.w3.org/2000/svg"><path d="m73.4 35.2c-.5.5-1.2.8-1.8.8s-1.1-.2-1.6-.6l-2.9-2.5v29.7c0 1.5-1.2 2.7-2.7 2.7h-54.9c-1.5 0-2.7-1.2-2.7-2.7v-29.6l-2.8 2.5c-1 .9-2.6.8-3.4-.2-.9-1-.8-2.6.2-3.4l34.6-30.5c.9-.8 2.3-.8 3.2 0l15.3 13.4v-8.4c0-.7.6-1.3 1.3-1.3h6.2c.7 0 1.3.6 1.3 1.3v16.2l10.4 9.2c1.1.9 1.2 2.4.3 3.4zm-16.1 13.4v-15.3c0-.4-.3-.7-.7-.7h-15.6c-.4 0-.7.3-.7.7v15.3c0 .4.3.7.7.7h15.6c.4 0 .7-.4.7-.7zm-27.8-16h-12c-.4 0-.7.3-.7.7v26.8c0 .4.3.7.7.7h12c.4 0 .7-.3.7-.7v-26.8c0-.4-.3-.7-.7-.7z" fill="#5f6062" fill-rule="evenodd"/></svg>