<svg enable-background="new 0 0 100 100" viewBox="0 0 100 100" xmlns="http://www.w3.org/2000/svg"><g fill="#5f6062"><path d="m66.5 74.5h-35.2c-1.1 0-1.9-.9-1.9-1.9v-44.8c0-1.1.9-1.9 1.9-1.9h35.2c2.1 0 3.7-1.7 3.7-3.7 0-2.1-1.7-3.7-3.7-3.7h-41.2c-1.8 0-3.2 1.5-3.2 3.2v57c0 1.8 1.5 3.2 3.2 3.2h41.3c2.1 0 3.7-1.7 3.7-3.7s-1.7-3.7-3.8-3.7z"/><path d="m81.2 48.5-14.2-14.1c-1.5-1.5-3.8-1.5-5.3 0s-1.5 3.8 0 5.3l6.8 6.8h-28.6c-2.1 0-3.7 1.7-3.7 3.7 0 2.1 1.7 3.7 3.7 3.7h28.6l-6.8 6.8c-1.5 1.5-1.5 3.8 0 5.3s3.8 1.5 5.3 0l14.1-14.1c1-.9 1-2.4.1-3.4z"/></g></svg>