<svg enable-background="new 0 0 100 100" viewBox="0 0 100 100" xmlns="http://www.w3.org/2000/svg"><g fill="#5f6062"><path d="m32.2 36.9h-4.1c-1.9 0-3.5 1.6-3.5 3.5s1.6 3.5 3.5 3.5h14.4c.9 0 1.7-.8 1.7-1.7v-14.1c0-1.9-1.6-3.5-3.5-3.5s-3.5 1.6-3.5 3.5v3.8l-12-12c-.7-.7-1.5-1-2.5-1-.9 0-1.8.4-2.5 1-.7.7-1 1.5-1 2.5 0 .9.4 1.8 1 2.5z"/><path d="m57.5 43.9h14.1c1.9 0 3.5-1.6 3.5-3.5s-1.6-3.5-3.5-3.5h-3.8l12-12c.7-.7 1-1.5 1-2.5 0-.9-.4-1.8-1-2.5-.7-.7-1.5-1-2.5-1-.9 0-1.8.4-2.5 1l-12 12v-4.1c0-1.9-1.6-3.5-3.5-3.5s-3.5 1.6-3.5 3.5v14.4c0 1 .7 1.7 1.7 1.7z"/><path d="m22.7 80.5c.9 0 1.8-.4 2.5-1l12-12v3.8c0 1.9 1.6 3.5 3.5 3.5s3.5-1.6 3.5-3.5v-14.1c0-.9-.8-1.7-1.7-1.7h-14.4c-1.9 0-3.5 1.6-3.5 3.5s1.6 3.5 3.5 3.5h4.1l-12 12c-.7.7-1 1.5-1 2.5 0 .9.4 1.8 1 2.5.7.7 1.6 1 2.5 1z"/><path d="m59.3 75.1c1.9 0 3.5-1.6 3.5-3.5v-4.1l12 12c.7.7 1.5 1 2.5 1 .9 0 1.8-.4 2.5-1 .7-.7 1-1.5 1-2.5 0-.9-.4-1.8-1-2.5l-12-12h3.8c1.9 0 3.5-1.6 3.5-3.5s-1.6-3.5-3.5-3.5h-14.1c-.9 0-1.7.8-1.7 1.7v14.4c0 1.9 1.6 3.5 3.5 3.5z"/></g></svg>