<svg enable-background="new 0 0 100 100" viewBox="0 0 100 100" xmlns="http://www.w3.org/2000/svg"><g fill="#5f6062"><circle cx="56.7" cy="63.7" r="2.2"/><circle cx="43.3" cy="48.5" r="2.2"/><path d="m71.3 34.2h-2.7v-12.8c0-1.9-1.5-3.4-3.4-3.4h-30.5c-1.9 0-3.4 1.5-3.4 3.4v12.8h-2.7c-2.6 0-4.7 2.1-4.7 4.7v38.4c0 2.6 2.1 4.7 4.7 4.7h42.7c2.6 0 4.7-2.1 4.7-4.7v-38.4c.1-2.6-2.1-4.7-4.7-4.7zm-32.7 11.6c1.5-2.6 4.8-3.5 7.3-2 2.6 1.5 3.5 4.8 2 7.3-1.5 2.6-4.8 3.5-7.3 2-2.5-1.4-3.5-4.7-2-7.3zm2.9 23.6c-1-.6-1.3-2-.7-3l14.6-23.1c.6-1 2-1.3 3-.7s1.3 2 .7 3l-14.6 23.2c-.6 1-1.9 1.3-3 .6zm19.9-3c-1.5 2.6-4.8 3.5-7.3 2-2.6-1.5-3.5-4.8-2-7.3 1.5-2.6 4.8-3.5 7.3-2 2.5 1.4 3.5 4.7 2 7.3z"/></g></svg>