<svg height="52" viewBox="0 0 66 52" width="66" xmlns="http://www.w3.org/2000/svg"><g fill="#5f6062" fill-rule="evenodd"><path d="m62.1 44.4h-58.2c-.6 0-1-.5-1-1v-2.7c0-.6.5-1 1-1h58.2c.6 0 1 .5 1 1v2.7c0 .5-.4 1-1 1z"/><path d="m64.5 51.5h-63c-.6 0-1-.5-1-1v-2.7c0-.6.5-1 1-1h63c.6 0 1 .5 1 1v2.7c0 .6-.4 1-1 1z"/><path d="m6.4 21c.8.3 1.2 1 1.2 1.8v9c0 .8-.5 1.5-1.2 1.7h-.1c-.7.3-1.2 1-1.2 1.7 0 1 .8 1.9 1.9 1.9h7.7c1 0 1.9-.8 1.9-1.9 0-.8-.5-1.5-1.2-1.7h-.1c-.7-.3-1.2-1-1.2-1.7v-9c0-.8.5-1.5 1.2-1.7h.1c.7-.3 1.2-1 1.2-1.7 0-1-.8-1.9-1.9-1.9h-7.7c-1 0-1.9.8-1.9 1.9.2.6.6 1.3 1.3 1.6z"/><path d="m28.4 21c.8.3 1.2 1 1.2 1.8v9c0 .8-.5 1.5-1.2 1.7h-.1c-.7.3-1.2 1-1.2 1.7 0 1 .8 1.9 1.9 1.9h7.7c1 0 1.9-.8 1.9-1.9 0-.8-.5-1.5-1.2-1.7h-.1c-.7-.3-1.2-1-1.2-1.7v-9c0-.8.5-1.5 1.2-1.7h.1c.7-.3 1.2-1 1.2-1.7 0-1-.8-1.9-1.9-1.9h-7.7c-1 0-1.9.8-1.9 1.9.1.6.6 1.3 1.3 1.6z"/><path d="m60.7 19.2c0-1-.8-1.9-1.9-1.9h-7.7c-1 0-1.9.8-1.9 1.9 0 .8.5 1.5 1.2 1.7h.1c.7.3 1.2 1 1.2 1.7v9c0 .8-.5 1.5-1.2 1.7h-.1c-.7.3-1.2 1-1.2 1.7 0 1 .8 1.9 1.9 1.9h7.7c1 0 1.9-.8 1.9-1.9 0-.8-.5-1.5-1.2-1.7h-.1c-.7-.3-1.2-1-1.2-1.7v-9c0-.8.5-1.5 1.2-1.7h.1c.8-.2 1.2-.9 1.2-1.7z"/><path d="m64.9 10.9-31.6-10.4c-.2-.1-.5-.1-.8 0l-31.2 10.4c-.1 0-.2.1-.2.1-.2.1-.3.3-.4.5-.1.1-.1.3-.1.4v1.1c0 1.1.9 1.9 1.9 1.9h61c1.1 0 1.9-.9 1.9-1.9v-1-.2c.1-.3-.1-.7-.5-.9z"/></g></svg>