<svg enable-background="new 0 0 100 100" viewBox="0 0 100 100" xmlns="http://www.w3.org/2000/svg"><g fill="#5f6062"><path d="m50.1 78.3c-.5 0-1-.1-1.5-.2-1.6-.3-3.1-1.1-4.8-2.3-2.8-2.1-5.2-2.1-7.9 0-4.4 3.2-7.9 3.2-12.3 0-.8-.6-1.6-1-2.3-1.3-.9-.3-1.5-1.2-1.5-2.2 0-1.6 1.6-2.7 3.1-2.2 1.1.4 2.2 1 3.3 1.8 2.7 2 4.2 2.3 7.2 0 .8-.6 1.6-1.1 2.4-1.4.8-.4 1.6-.6 2.4-.8.5-.1.9-.1 1.4-.1.6 0 1.2 0 1.8.1.4.1.8.2 1.2.3.8.2 1.6.6 2.4 1 .5.3 1 .6 1.5 1 .7.5 1.4 1 2.2 1.3.4.2.9.3 1.3.3h.1c.5 0 .9-.1 1.3-.3.8-.3 1.5-.8 2.2-1.3.5-.4 1-.7 1.5-1 .8-.4 1.5-.8 2.4-1l1.2-.3c.6-.1 1.2-.1 1.8-.1.5 0 .9.1 1.4.1.8.2 1.7.4 2.4.8.9.4 1.7.9 2.4 1.4 3.1 2.3 4.6 2 7.2 0 1-.8 2-1.3 2.9-1.7 1.5-.6 3.2.5 3.2 2.1 0 .9-.6 1.8-1.4 2.1-.7.3-1.3.7-2.1 1.3-4.4 3.2-7.9 3.2-12.3 0-2.8-2.1-5.2-2.1-7.9 0-1.6 1.2-3.2 2-4.8 2.3-.4.3-.9.3-1.4.3"/><path d="m48.6 23.8-18.2 3.7c-1.7.3-3 1.6-3.5 3.3l-2.3 9 24-8.6zm21.7 3.7-18.9-3.7v7.5l24.7 8.6-2.3-9c-.5-1.7-1.8-3-3.5-3.4zm12.3 19.4-28.5-10.4c-4.3-1.9-8.1 0-8.1 0l-28.5 10.4s-4.7 1.3-1.5 5c2.4 2.7 11.4 11.9 15.9 16.5.4-.2.9-.6 1.4-.9.8-.6 1.6-1.1 2.4-1.4.8-.4 1.6-.6 2.4-.8.5-.1.9-.1 1.4-.1.6 0 1.2 0 1.8.1l1.2.3c.8.2 1.6.6 2.4 1 .5.3 1 .6 1.5 1 .7.5 1.4 1 2.2 1.3.4.2.9.3 1.3.3h.1c.5 0 .9-.1 1.3-.3.8-.3 1.5-.8 2.2-1.3.5-.4 1-.7 1.5-1 .8-.4 1.5-.8 2.4-1l1.2-.3c.6-.1 1.2-.1 1.8-.1.5 0 .9.1 1.4.1.8.2 1.7.4 2.4.8.9.4 1.7.9 2.4 1.4.5.4 1 .7 1.5 1 4.5-4.6 13.4-13.9 15.8-16.6 3.4-3.6-1.3-5-1.3-5z"/></g></svg>