<svg enable-background="new 0 0 100 100" viewBox="0 0 100 100" xmlns="http://www.w3.org/2000/svg"><path d="m85.8 39.9c-.6-.6-4.4-.2-4.4-.2s0 .1-.1.2c-.1.3-.4.7-1.1.8-.9.3-13.9.5-14.2-.4-.1-.2-.2-.3-.3-.4-.6-.5-1.9-.3-1.9-.3s-.1.1-.3.3c-.4.4-1 1.1-1.6 1.3s-.8-.6-.7-1.3c0-.2.1-.4.1-.5.2-.5-1.4-2.1-2.6-3-.5-.4-1-.6-1.4-.5-1 .3-6.4-1.7-6.4-1.7h-18.5-14.4s-.1.7-.2 1.4v.2c-.1.3-.1.5-.2.6 0 .1-.1.1-.2.1 0 0-.1-.1-.2-.1-.5-.3-1.5-1.2-1.7-.7-.1.2 0 .4.1.7.3.8 1 1.8 1 2.5v1 2.2 3.5 2.2 2.4c0 .4.3.8.6 1.1.7.5 1.5 1 1.4 2.1v.1c-.1 1.3 1.4 2.6 2.5 3.5.3.3.6.5.8.7.3.3.8.9 1.3 1.5.7.8 1.4 1.5 1.8 1.5.7-.1 1.9-.6 2.7.3.7.8 3.7 1.5 5.2 1.7h.9c.9-.1 3.1-.4 4.4 0 .5.2.8.4 1 .8.1.5.4.9.7 1.3.7 1 1.5 1.7 1.5 1.7s.6-.9.9-1.6c0-.1.1-.1.1-.1.2-.2.5-.2.9 0 .6.3 1.3 1.1 1.7 2.6.1.3.2.6.4.9.5.9 1.3 1.7 2 2.2.9.6 1.7 1 1.7 1s0-.4 0-1 0-1.5.1-2.2c0-.2 0-.4 0-.6.1-1.3 3.9-2.4 4.6-2.5s5.2 1.9 5.2 1.3.7-1.1 1.6-1.6c.2-.1.3-.2.5-.3.4-.2.8 0 1.2.3.8.6 1.5 1.7 1.6 1.3.1-.7 2.3-.3 2.5.5.1.5.3 1.1.4 1.8.1.4.1.9.1 1.2 0 .2.1.6.4 1 .6 1 1.8 2.2 2 2 .2-.1.3-1 .4-2 .1-.7 0-1.5-.1-2.2-.1-.4-.2-.8-.4-1-.4-.4-.7-1.4-.9-2.5-.1-.8-.1-1.5 0-2.2.1-.5.2-.9.4-1.1.4-.3 1.6-1.3 3-2.4.8-.7 1.7-1.5 2.4-2.2 1-1 1.6-1.8 1.1-1.9-.7-.3-.8-.8-.8-1.6.1-.6.2-1.2.3-2.1v-.1c.3-1.9 1.6.4 2.2-2.2.1-.5.4-1 .8-1.3 1.5-1.3 4.5-1.3 4-1.7-.2-.1-.3-.3-.4-.5-.2-.7 0-1.7.7-2.2.4-.3 1.1-.7 1.8-1.3 1.2-1 2.3-1.9 2-2.3z" fill="#5f6062"/></svg>