<svg enable-background="new 0 0 100 100" viewBox="0 0 100 100" xmlns="http://www.w3.org/2000/svg"><g fill="#5f6062"><path d="m56.4 17.9h-18.5v-3.8c0-.5-.4-1-1-1h-10.1c-.5 0-1 .4-1 1v3.8h-4.2c-.9 0-1.7.5-2.1 1.3l-4.1 8.1h47.3l-4.1-8.1c-.4-.8-1.3-1.3-2.2-1.3z"/><path d="m15.3 80.1c0 1.3 1.1 2.4 2.4 2.4h15.7v-13.9c0-.5.4-1 1-1h9.2c.5 0 1 .4 1 1v13.9h18.1v-51.7h-47.4zm33.1-41.2c0-.5.4-.8.8-.8h8.1c.5 0 .8.4.8.8v6.6c0 .5-.4.8-.8.8h-8.1c-.5 0-.8-.4-.8-.8zm0 14.8c0-.5.4-.8.8-.8h8.1c.5 0 .8.4.8.8v6.6c0 .5-.4.8-.8.8h-8.1c-.5 0-.8-.4-.8-.8zm0 14.8c0-.5.4-.8.8-.8h8.1c.5 0 .8.4.8.8v6.6c0 .5-.4.8-.8.8h-8.1c-.5 0-.8-.4-.8-.8zm-14.3-29.6c0-.5.4-.8.8-.8h8.1c.5 0 .8.4.8.8v6.6c0 .5-.4.8-.8.8h-8c-.5 0-.8-.4-.8-.8v-6.6zm0 14.8c0-.5.4-.8.8-.8h8.1c.5 0 .8.4.8.8v6.6c0 .5-.4.8-.8.8h-8c-.5 0-.8-.4-.8-.8v-6.6zm-14.3-14.8c0-.5.4-.8.8-.8h8.1c.5 0 .8.4.8.8v6.6c0 .5-.4.8-.8.8h-8.1c-.5 0-.8-.4-.8-.8zm0 14.8c0-.5.4-.8.8-.8h8.1c.5 0 .8.4.8.8v6.6c0 .5-.4.8-.8.8h-8.1c-.5 0-.8-.4-.8-.8zm0 14.8c0-.5.4-.8.8-.8h8.1c.5 0 .8.4.8.8v6.6c0 .5-.4.8-.8.8h-8.1c-.5 0-.8-.4-.8-.8z"/><path d="m82.2 41c-.4-.9-1.3-1.4-2.3-1.4h-13.6v6.3h18.3z"/><path d="m66.3 82.5h15.8c1.4 0 2.6-1.1 2.6-2.6v-31.7h-18.4zm4.3-28.9c0-.5.4-.8.8-.8h8.2c.5 0 .8.4.8.8v6.7c0 .5-.4.8-.8.8h-8.2c-.5 0-.8-.4-.8-.8zm0 14.9c0-.5.4-.8.8-.8h8.2c.5 0 .8.4.8.8v6.7c0 .5-.4.8-.8.8h-8.2c-.5 0-.8-.4-.8-.8z"/></g></svg>