<svg enable-background="new 0 0 100 100" viewBox="0 0 100 100" xmlns="http://www.w3.org/2000/svg"><g fill="#5f6062"><path d="m71.1 54.9c-9 0-16.3 7.3-16.3 16.3s7.3 16.3 16.3 16.3 16.3-7.3 16.3-16.3c.1-9-7.2-16.3-16.3-16.3zm7 23.5c-.6.6-1.5.6-2 0l-6.3-6.3v-12.1c0-.8.6-1.4 1.4-1.4s1.4.6 1.4 1.4v10.4c0 .4.1.7.4 1l5 5c.6.6.6 1.5.1 2z"/><path d="m51.5 71.2c0-6.1 2.8-11.6 7.2-15.2-1.3-1.7-1.9-3.7-2.2-5.7.6-.7 1.2-1.4 1.7-2.2 3.5 1.1 7.8 1.5 11.4-1.2-5-5.1-1-11.3-4.6-22.4-3.1-9.5-15.7-9-17.3-5.7-6.7-2.4-11.7.8-13.6 10.9-2.1 11.6 2 12.8-3 17.8 3.8 2.2 7.4 1.7 10.4.4.6.8 1.2 1.6 1.9 2.3-.6 4-2.7 8-8.1 9.7-4.1 1.3-8.9 2.6-11.7 5.4-2.2 2.3-.7 17.2-.7 17.2h16.9 15.5c-2.5-3-3.8-7-3.8-11.3z"/></g></svg>