<svg enable-background="new 0 0 100 100" viewBox="0 0 100 100" xmlns="http://www.w3.org/2000/svg"><g fill="#5f6062"><path d="m78.1 48.7-4.1-11v1.7c0 5.4-4.4 9.7-9.7 9.7-3.3 0-6.3-1.7-8-4.3h-27.1c-.8 0-1.4-.8-1.1-1.6l3.5-9.6c.6-1.7 2.3-2.9 4.2-2.9h11.6l.3-2.2c.1-.7.2-1.5.4-2.2h-12.3c-3.7 0-7.1 2.3-8.3 5.8l-6 16.2c-1.8 1.9-3.7 4.3-3.8 5.9v17.9.3 5c0 2.6 2.1 4.7 4.7 4.7h1.4c2.6 0 4.7-2.1 4.7-4.7v-3.2h42.5v3.2c0 2.6 2.1 4.7 4.7 4.7h1.3c2.6 0 4.7-2.1 4.7-4.7v-5.3-17.8c0-1.4-1.8-3.7-3.6-5.6zm-47.6 12.4c-2.4 0-4.5-2.1-4.5-4.5s2.1-4.5 4.5-4.5 4.5 2.1 4.5 4.5c-.1 2.5-2.1 4.5-4.5 4.5zm38.2 0c-2.4 0-4.5-2.1-4.5-4.5s2.1-4.5 4.5-4.5 4.5 2.1 4.5 4.5c0 2.5-2.1 4.5-4.5 4.5z"/><path d="m67 31.3v8.1c0 1.4-1.2 2.6-2.6 2.6s-2.6-1.2-2.6-2.6c0-1-.8-1.9-1.9-1.9s-1.9.8-1.9 1.9c0 3.5 2.9 6.4 6.4 6.4s6.4-2.9 6.4-6.4v-8.1c0-1-.8-1.9-1.9-1.9s-1.9.8-1.9 1.9z"/><path d="m62.5 30.1c1.6-1.7 3.9-2.7 6.4-2.7s4.8 1 6.4 2.7c1.6-1.7 3.9-2.7 6.4-2.7 1.9 0 3.7.6 5.1 1.6-1.1-8.2-7.7-14.6-16-15.5v-1.3c0-1-.8-1.9-1.9-1.9s-1.9.9-1.9 1.9v1.3c-8.3.9-14.9 7.3-16 15.5 1.4-1 3.2-1.6 5.1-1.6 2.5 0 4.8 1 6.4 2.7z"/></g></svg>