<svg enable-background="new 0 0 100 100" viewBox="0 0 100 100" xmlns="http://www.w3.org/2000/svg"><g fill="#5f6062"><path d="m86.9 48.9-6.4-5.7c-1.2 2-2.7 3.7-4.6 5.1l-1.7 1.1c-2.4 1.3-5.2 2.1-8.1 2.1-3.3 0-6.3-1-8.9-2.6l-.6-.4c-4.3-3-7.2-8-7.2-13.7v-.1-.1c0-.3 0-.5 0-.8 0-4.6 1.9-9.3 5.3-13.3l-3-2.6c-.9-.8-2.3-.8-3.3 0l-35 31c-1 .9-1.1 2.5-.2 3.5s2.5 1.1 3.5.2l2.9-2.5v30.1c0 1.5 1.2 2.7 2.7 2.7h55.7c1.5 0 2.7-1.2 2.7-2.7v-30.2l2.9 2.6c.5.4 1.1.6 1.6.6.7 0 1.4-.3 1.9-.8.9-1.1.8-2.6-.2-3.5zm-43.6 28.1c0 .7-.6 1.3-1.3 1.3h-11c-.7 0-1.3-.6-1.3-1.3v-25.9c0-.7.6-1.3 1.3-1.3h10.9c.7 0 1.3.6 1.3 1.3v25.9z"/><path d="m56.8 44.5c.3-.4.6-.7.9-1.1 5.5-5.9 6.5-15.4 6.5-15.4 5.4 4.1 5.4 11.9 5.4 11.3s4.6-8.6 4.4-6.8c-.2 1.6-1.6 5.1 1.4 11.9 2.6-2.5 4.3-6 4.3-9.9 0-.8-.1-1.7-.2-2.5-.3-1.7-1-3.7-2.3-5.8-5.2-9-3.3-11.4-3.1-13.3.2-1.8-4.4 4.2-4.4 4.8s0-5.2-5.4-9.3c0 0-1 7.5-6.5 13.4-3.3 3.5-5.2 7.7-5.2 12v.7c0 4 1.6 7.5 4.2 10z"/></g></svg>