<svg enable-background="new 0 0 100 100" height="100" viewBox="0 0 100 100" width="100" xmlns="http://www.w3.org/2000/svg"><path d="m70.9 83.1h-40c-1.9 0-3.5-1.6-3.5-3.5v-36.7c0-1.9 1.6-3.5 3.5-3.5h40c1.9 0 3.5 1.6 3.5 3.5v36.7c.1 2-1.5 3.5-3.5 3.5zm-14.1-29.3c-1.2-2.1-3.4-3.5-6-3.5-2.5 0-4.7 1.4-5.8 3.5-.5.9-.8 2-.8 3.2 0 2.8 1.6 5.2 4 6.2v7.8c0 1 .8 1.8 1.8 1.8h2c1 0 1.8-.8 1.8-1.8v-7.8c2.3-1.1 4-3.4 4-6.1-.1-1.2-.4-2.3-1-3.3zm4.9-18.8c0-5.9-4.8-10.7-10.7-10.7h-.3c-5.9 0-10.7 4.8-10.7 10.7h-5.6c0-4.3 1.7-8.4 4.8-11.5s7.2-4.8 11.5-4.8h.3c4.4 0 8.5 1.7 11.5 4.8 3.1 3.1 4.8 7.2 4.8 11.5z" fill="#010101"/></svg>