<svg enable-background="new 0 0 100 100" viewBox="0 0 100 100" xmlns="http://www.w3.org/2000/svg"><g fill="#5f6062"><path d="m27.1 40c0-.2-1-3.6-1.1-4.1-.1.5-1 3.9-1.1 4.1z"/><path d="m22.8 38.2c0 .9.3 1.8.8 2.6.1-.3 1.8-6.8 1.9-7.2-1.7 1.2-2.7 2.8-2.7 4.6z"/><path d="m30.5 40h2.2c0-.2-1-3.6-1.1-4.1-.1.5-1 4-1.1 4.1z"/><path d="m38.3 40c0-.2-1-3.6-1.1-4.1-.1.5-1 3.9-1.1 4.1z"/><path d="m31.6 31.6c-1.5.1-3 .4-4.3.9 0 .1 1.9 6.8 2.1 7.3.2-.4 2.2-8 2.2-8.2z"/><path d="m79.8 23.5h-59.6c-2.4 0-4.4 2-4.4 4.4v44.5c0 2.4 2 4.4 4.4 4.4h59.7c2.4 0 4.4-2 4.4-4.4v-44.5c-.1-2.4-2-4.4-4.5-4.4zm-36.5 19.1-.2-.1.1-.1c5.7-4 9.1-7.8 8.3-9.3-.7-1.3-4.3-.7-9.2 1.4 1 1.1 1.6 2.4 1.6 3.7 0 4.1-5.2 7.4-11.6 7.4-2.1 0-4-.4-5.7-1-2.3 2.2-3.3 4-2.8 5 .6 1 3.1.9 6.9-.5h.1l.1.2h-.1c-4.8 1.8-8 2.1-8.8.8-.6-1.2.6-3.3 3.4-6-2.8-1.3-4.6-3.5-4.6-5.9 0-4.1 5.2-7.4 11.6-7.4 3.6 0 6.8 1.1 8.9 2.7 6.6-3.1 11.5-4 12.4-2.3 1 1.9-3.3 6.6-10.4 11.4zm31.2 23.8h-18.4c-1.1 0-2.1-.9-2.1-2.1 0-1.1.9-2.1 2.1-2.1h18.3c1.1 0 2.1.9 2.1 2.1s-.9 2.1-2 2.1zm0-9.6h-18.4c-1.1 0-2.1-.9-2.1-2.1 0-1.1.9-2.1 2.1-2.1h18.3c1.1 0 2.1.9 2.1 2.1s-.9 2.1-2 2.1z"/><path d="m38.8 33.4c.1.4 2 7 2.1 7.4.5-.8.8-1.7.8-2.6 0-1.8-1.1-3.5-2.9-4.8z"/><path d="m35.8 41.1c0 .1-.2.8-.2.9 0 0 .6 2.1.6 2.2 1.1-.3 2-.8 2.8-1.4 0-.1-.4-1.6-.4-1.7-.1 0-2.7 0-2.8 0z"/><path d="m24.7 41.1c0 .1-.2.7-.2.8.9 1 2.2 1.7 3.8 2.2-.1-.2-.8-3-.8-3.1-.2.1-2.7.1-2.8.1z"/><path d="m30.3 41.1c0 .1-.9 3.2-.9 3.4.9.2 1.9.3 2.9.3.6 0 1.2 0 1.7-.1 0-.2-.9-3.5-1-3.6-.1 0-2.6 0-2.7 0z"/><path d="m32.7 31.6c.1.2 2.2 7.8 2.3 8.2.1-.5 1.9-7.2 2-7.3-1.3-.5-2.8-.8-4.3-.9z"/></g></svg>