<svg enable-background="new 0 0 100 100" viewBox="0 0 100 100" xmlns="http://www.w3.org/2000/svg"><path d="m73 17.7h-46c-2.7 0-4.8 2.2-4.8 4.8v55.7c0 2.7 2.2 4.8 4.8 4.8h46c2.7 0 4.8-2.2 4.8-4.8v-55.7c0-2.6-2.1-4.8-4.8-4.8zm-15.1 44.1c0 1.1-.9 1.9-1.9 1.9h-19.4c-1.1 0-1.9-.9-1.9-1.9 0-1.1.9-1.9 1.9-1.9h19.4c1.1 0 1.9.9 1.9 1.9zm10.6-11.2c0 1.1-.9 1.9-1.9 1.9h-30c-1.1 0-1.9-.9-1.9-1.9 0-1.1.9-1.9 1.9-1.9h30c1 0 1.9.8 1.9 1.9zm-5.8-11.2c0 1.1-.9 1.9-1.9 1.9h-24.2c-1.1 0-1.9-.9-1.9-1.9 0-1.1.9-1.9 1.9-1.9h24.3c1 0 1.8.9 1.8 1.9z" fill="#5f6062"/></svg>