<svg enable-background="new 0 0 100 100" viewBox="0 0 100 100" xmlns="http://www.w3.org/2000/svg"><g fill="#5f6062"><path d="m87.5 47-10.7-9.4v-16.7c0-.8-.6-1.4-1.4-1.4h-6.4c-.8 0-1.4.6-1.4 1.4v8.6l-15.6-13.8c-.9-.8-2.4-.8-3.3 0l-35.5 31.3c-1 .9-1.1 2.5-.2 3.5s2.5 1.1 3.5.2l2.9-2.6v27.9c0 1.5 1.2 2.7 2.7 2.7h34.7l2.2-4.7-4.3-14.5 11.4-8.1-5.3-11.3 9.2 11.3-11 8.6 4.6 13.5-1.9 5.1h16.8c1.5 0 2.7-1.2 2.7-2.7v-27.8l3 2.6c.5.4 1.1.6 1.7.6.7 0 1.4-.3 1.9-.8.8-1 .7-2.6-.3-3.5zm-45.5 27.1h-11c-.8 0-1.4-.6-1.4-1.4v-23.5c0-.8.6-1.4 1.4-1.4h11c.8 0 1.4.6 1.4 1.4v23.6c0 .7-.6 1.3-1.4 1.3z"/><path d="m61.8 81.1h-42.8c-1.3 0-2.4 1.1-2.4 2.4s1.1 2.4 2.4 2.4h40.6z"/><path d="m81.4 81.1h-15.2l-1.8 4.8h17c1.3 0 2.4-1.1 2.4-2.4s-1.1-2.4-2.4-2.4z"/></g></svg>