<svg enable-background="new 0 0 100 100" viewBox="0 0 100 100" xmlns="http://www.w3.org/2000/svg"><path d="m81.6 36.6-8.5-8.6c-.9-.9-2.3-.9-3.1 0l-9.2 9.2-9.2-9.2c-.9-.9-2.3-.9-3.1 0l-9.2 9.2-9.2-9.2c-.9-.9-2.3-.9-3.1 0l-8.6 8.6c-.4.4-.6 1-.6 1.6v33.3c0 1.2 1 2.2 2.2 2.2h19.3.1 21.4.1 19.3c1.2 0 2.2-1 2.2-2.2v-33.3c-.1-.6-.3-1.2-.8-1.6zm-57.9 6.5c0-.4.3-.7.7-.7h2.7c.4 0 .7.3.7.7v2.7c0 .4-.3.7-.7.7h-2.7c-.4 0-.7-.3-.7-.7zm0 8.4v-2.7c0-.4.3-.7.7-.7h2.7c.4 0 .7.3.7.7v2.7c0 .4-.3.7-.7.7h-2.7c-.4 0-.7-.3-.7-.7zm8.2 17.8c0 .4-.3.7-.7.7h-5.3c-.4 0-.7-.3-.7-.7v-10.5c0-.4.3-.7.7-.7h5.3c.4 0 .7.3.7.7zm1.5-17.8c0 .4-.3.7-.7.7h-2.7c-.4 0-.7-.3-.7-.7v-2.7c0-.4.3-.7.7-.7h2.7c.4 0 .7.3.7.7zm0-5.6c0 .4-.3.7-.7.7h-2.7c-.4 0-.7-.3-.7-.7v-2.7c0-.4.3-.7.7-.7h2.7c.4 0 .7.3.7.7zm11.7-2.8c0-.4.3-.7.7-.7h2.7c.4 0 .7.3.7.7v2.7c0 .4-.3.7-.7.7h-2.7c-.4 0-.7-.3-.7-.7zm0 8.4v-2.7c0-.4.3-.7.7-.7h2.7c.4 0 .7.3.7.7v2.7c0 .4-.3.7-.7.7h-2.7c-.3 0-.7-.3-.7-.7zm8.3 17.8c0 .4-.3.7-.7.7h-5.3c-.4 0-.7-.3-.7-.7v-10.5c0-.4.3-.7.7-.7h5.3c.4 0 .7.3.7.7zm1.5-17.8c0 .4-.3.7-.7.7h-2.7c-.4 0-.7-.3-.7-.7v-2.7c0-.4.3-.7.7-.7h2.7c.4 0 .7.3.7.7zm0-5.6c0 .4-.3.7-.7.7h-2.7c-.4 0-.7-.3-.7-.7v-2.7c0-.4.3-.7.7-.7h2.7c.4 0 .7.3.7.7zm11.7-2.8c0-.4.3-.7.7-.7h2.7c.4 0 .7.3.7.7v2.7c0 .4-.3.7-.7.7h-2.7c-.4 0-.7-.3-.7-.7zm0 8.4v-2.7c0-.4.3-.7.7-.7h2.7c.4 0 .7.3.7.7v2.7c0 .4-.3.7-.7.7h-2.7c-.4 0-.7-.3-.7-.7zm8.3 17.8c0 .4-.3.7-.7.7h-5.3c-.4 0-.7-.3-.7-.7v-10.5c0-.4.3-.7.7-.7h5.3c.4 0 .7.3.7.7zm1.5-17.8c0 .4-.3.7-.7.7h-2.7c-.4 0-.7-.3-.7-.7v-2.7c0-.4.3-.7.7-.7h2.7c.4 0 .7.3.7.7zm0-5.6c0 .4-.3.7-.7.7h-2.7c-.4 0-.7-.3-.7-.7v-2.7c0-.4.3-.7.7-.7h2.7c.4 0 .7.3.7.7z" fill="#5f6062"/></svg>