<svg enable-background="new 0 0 100 100" viewBox="0 0 100 100" xmlns="http://www.w3.org/2000/svg"><g fill="#5f6062"><path d="m73.2 47.9c-2.2 0-4 1.8-4 4v19.1c0 1.9-1.5 3.4-3.4 3.4h-36.7c-1.9 0-3.4-1.5-3.4-3.4v-36.8c0-1.9 1.5-3.4 3.4-3.4h19.1c2.2 0 4-1.8 4-4s-1.8-4-4-4h-27.1c-1.9 0-3.4 1.5-3.4 3.4v52.6c0 1.9 1.5 3.4 3.4 3.4h52.6c1.9 0 3.4-1.5 3.4-3.4v-27c.1-2.1-1.7-3.9-3.9-3.9z"/><path d="m83.7 14.4h-21.7c-2.3 0-4.2 1.9-4.2 4.2s1.9 4.2 4.2 4.2h9.3l-19.7 19.7c-1.6 1.6-1.6 4.3 0 5.9s4.3 1.6 5.9 0l19.6-19.6v9.3c0 2.3 1.9 4.2 4.2 4.2s4.2-1.9 4.2-4.2v-21.8c.1-1-.8-1.9-1.8-1.9z"/></g></svg>