<svg enable-background="new 0 0 100 100" viewBox="0 0 100 100" xmlns="http://www.w3.org/2000/svg"><g fill="#5f6062"><path d="m66.3 55.2c-8.8 0-15.9 7.1-15.9 15.9s7.1 15.9 15.9 15.9 15.9-7.1 15.9-15.9-7.1-15.9-15.9-15.9zm-.1 21c0 .6-.5 1.1-1.1 1.1h-6.3c-.6 0-1.1-.5-1.1-1.1v-.2c0-.3.1-.5.2-.7l2.8-3.6c.6-.7 1-1.1 1.6-1.7h-3.2c-.6 0-1.1-.5-1.1-1.1v-.2c0-.6.5-1.1 1.1-1.1h5.8c.6 0 1.1.5 1.1 1.1v.3c0 .3-.1.5-.2.7l-2.7 3.3c-.5.6-1 1.3-1.6 1.8h3.6c.6 0 1.1.5 1.1 1.1zm8.5-5.7c0 .5-.4.9-.9.9h-5c-.5 0-.9-.4-.9-.9v-.2c0-.2.1-.4.2-.6l2.3-2.8c.4-.5.8-.9 1.2-1.4h-2.5c-.5 0-.9-.4-.9-.9v-.1c0-.5.4-.9.9-.9h4.6c.5 0 .9.4.9.9v.3c0 .2-.1.4-.2.5l-2.2 2.7c-.4.5-.8 1-1.3 1.4h2.9c.5 0 .9.4.9.9z"/><circle cx="61.7" cy="25.8" r="2.1"/><path d="m66.3 51.9c1.4 0 2.8.2 4.1.4v-29.5c0-2.6-2.1-4.7-4.7-4.7h-31c-2.6 0-4.7 2.1-4.7 4.7v54.6c0 2.6 2.1 4.7 4.7 4.7h15.9c-2.2-3.1-3.5-6.9-3.5-11 0-10.6 8.6-19.2 19.2-19.2zm-32.1-28.4c0-.8.6-1.4 1.4-1.4h29.1c.8 0 1.4.6 1.4 1.4v4.8c0 .8-.6 1.4-1.4 1.4h-29.1c-.8 0-1.4-.6-1.4-1.4zm0 16.2v-4.8c0-.8.6-1.4 1.4-1.4h29.1c.8 0 1.4.6 1.4 1.4v4.8c0 .8-.6 1.4-1.4 1.4h-29.1c-.8 0-1.4-.6-1.4-1.4z"/><circle cx="61.7" cy="37.1" r="2.1"/></g></svg>