<svg enable-background="new 0 0 100 100" viewBox="0 0 100 100" xmlns="http://www.w3.org/2000/svg"><g fill="#5f6062"><path d="m42.9 63.4-6.2 1.9c-.4.2-.8-.2-.7-.6l2.4-6.1c-.8.5-1.8 1-2.9 1.3-4.2 1.3-9 2.6-11.9 5.5-2.3 2.3-.8 17.5-.8 17.5h17.2 7.8z"/><path d="m41.8 47.7c.6.8 1.2 1.6 1.9 2.4-.3 1.7-.8 3.4-1.7 5l8.3 13.7 8.3-13.8c-.9-1.5-1.4-3.3-1.7-5 .6-.7 1.2-1.4 1.8-2.2 3.6 1.2 7.9 1.5 11.6-1.2-5.1-5.1-1-11.4-4.7-22.8-3.1-9.6-15.9-9.2-17.5-5.8-6.8-2.4-11.9.8-13.8 11-2.2 11.7 2 13-3 18.1 3.8 2.4 7.4 1.9 10.5.6z"/><path d="m77 65.5c-2.8-2.8-7.5-4.1-11.6-5.4-.1 0-.1 0-.2-.1-1.2-.4-2.2-.9-3.1-1.4l2.5 6.2c.2.4-.3.8-.7.6l-6.2-1.9-4.9 19.5h7.8 17.2c-.1-.1 1.4-15.2-.8-17.5z"/></g></svg>