<svg enable-background="new 0 0 100 100" viewBox="0 0 100 100" xmlns="http://www.w3.org/2000/svg"><g fill="#5f6062"><path d="m75.5 28.3h-6.4c-.1 2.4-2 4.3-4.5 4.3-2.4 0-4.4-1.9-4.5-4.3h-20.8c-.1 2.4-2 4.3-4.5 4.3-2.4 0-4.4-1.9-4.5-4.3h-6.5c-2.5 0-4.5 2-4.5 4.5v47.2c0 2.5 2 4.5 4.5 4.5h51.6c2.5 0 4.5-2 4.5-4.5v-47.3c.1-2.4-1.9-4.4-4.4-4.4zm-30.7 42.1c-.9 0-1.8-.4-2.4-1l-9.4-9.7c-1.3-1.3-1.2-3.5.1-4.7.6-.6 1.5-.9 2.3-.9.9 0 1.8.4 2.4 1l7 7.2 16.8-16.9c.6-.6 1.5-1 2.4-1s1.7.3 2.4 1c.6.6 1 1.5 1 2.4s-.3 1.7-1 2.4l-19.2 19.2c-.6.6-1.5 1-2.4 1z"/><path d="m64.7 30.4c-1.2 0-2.2-1-2.2-2.2 0-7-5.7-12.7-12.7-12.7s-12.7 5.7-12.7 12.7c0 1.2-1 2.2-2.2 2.2s-2.2-1-2.2-2.2c0-9.4 7.7-17.1 17.1-17.1s17.1 7.7 17.1 17.1c0 1.2-1 2.2-2.2 2.2z"/></g></svg>