<svg enable-background="new 0 0 100 100" viewBox="0 0 100 100" xmlns="http://www.w3.org/2000/svg"><g fill="#5f6062"><path d="m77.9 41.7c-.5.5-1 1-1.7 1.4-2.3 1.6-5.2 2.5-8.5 2.5-2.3 0-4.7-.4-7.3-1.2-.8 1.1-1.9 2.7-2.7 4.6-.7 1.4-2.1 2.3-3.7 2.3-1.7 0-3.5-.9-4.4-2.4-.8-1.1-.9-2.5-.4-3.7.7-1.6 1.6-3.2 2.6-4.7l-.4-4.1c-.7-6.7 1.6-11.1 4.6-14.1l-4.6-4c-.9-.8-2.3-.8-3.2 0l-34.6 30.5c-1 .9-1.1 2.4-.2 3.4s2.4 1.1 3.4.2l2.8-2.5v29.7c0 1.5 1.2 2.7 2.7 2.7h54.9c1.5 0 2.7-1.2 2.7-2.7v-29.7l2.9 2.5c.5.4 1 .6 1.6.6.7 0 1.4-.3 1.8-.8.9-1 .8-2.6-.2-3.4zm-34.9 34.8c0 .7-.6 1.3-1.3 1.3h-10.8c-.7 0-1.3-.6-1.3-1.3v-25.6c0-.7.6-1.3 1.3-1.3h10.8c.7 0 1.3.6 1.3 1.3z"/><path d="m61.3 22.1c-7.5 4.4-7.1 11.4-6.9 14.1 9.7-11.5 24.3-10.9 24.3-10.9s-20.7 7-26.7 21.2c-.5 1.1 2.3 2.6 2.9 1.2 1.9-3.9 4.4-6.9 4.4-6.9 3.8 1.4 10.4 3.1 15.1-.2 6.2-4.4 5.6-14 14.5-18.7 2.1-1.1-17.4-5.7-27.6.2z"/></g></svg>