<svg enable-background="new 0 0 100 100" viewBox="0 0 100 100" xmlns="http://www.w3.org/2000/svg"><g fill="#5f6062"><path d="m51.8 71.1c0-2.8.6-5.4 1.6-7.8h-16.6c-1.1 0-1.9-.9-1.9-1.9 0-1.1.9-1.9 1.9-1.9h18.9c3.5-4.7 9.1-7.8 15.5-7.8 2.3 0 4.5.4 6.5 1.1v-30.3c0-2.6-2.1-4.8-4.8-4.8h-45.6c-2.6 0-4.8 2.1-4.8 4.8v55.1c0 2.6 2.1 4.8 4.8 4.8h28.2c-2.4-3.2-3.7-7.1-3.7-11.3zm-15-33.8h24c1.1 0 1.9.9 1.9 1.9 0 1.1-.9 1.9-1.9 1.9h-24c-1.1 0-1.9-.9-1.9-1.9s.8-1.9 1.9-1.9zm0 11.1h29.7c1.1 0 1.9.9 1.9 1.9 0 1.1-.9 1.9-1.9 1.9h-29.7c-1.1 0-1.9-.9-1.9-1.9 0-1.1.8-1.9 1.9-1.9z"/><path d="m71.1 55.1c-8.8 0-15.9 7.1-15.9 15.9s7.1 15.9 15.9 15.9c8.8.1 15.9-7 15.9-15.8 0-8.9-7.1-16-15.9-16zm8.5 15.8c0 .8-.6 1.4-1.4 1.4h-5.8v5.8c0 .8-.6 1.4-1.4 1.4s-1.4-.6-1.4-1.4v-5.8h-5.8c-.8 0-1.4-.6-1.4-1.4s.6-1.4 1.4-1.4h5.8v-5.8c0-.8.6-1.4 1.4-1.4s1.4.6 1.4 1.4v5.8h5.8c.8 0 1.4.6 1.4 1.4z"/></g></svg>