<svg enable-background="new 0 0 100 100" viewBox="0 0 100 100" xmlns="http://www.w3.org/2000/svg"><g fill="#5f6062"><path d="m42 17.6h-20.3c-2.4 0-4.3 1.9-4.3 4.3v20.3c0 2.4 1.9 4.3 4.3 4.3h20.3c2.4 0 4.3-1.9 4.3-4.3v-20.3c0-2.4-1.9-4.3-4.3-4.3z"/><path d="m77.8 17.6h-20.3c-2.4 0-4.3 1.9-4.3 4.3v20.3c0 2.4 1.9 4.3 4.3 4.3h20.3c2.4 0 4.3-1.9 4.3-4.3v-20.3c0-2.4-1.9-4.3-4.3-4.3z"/><path d="m42 53.4h-20.3c-2.4 0-4.3 1.9-4.3 4.3v20.3c0 2.4 1.9 4.3 4.3 4.3h20.3c2.4 0 4.3-1.9 4.3-4.3v-20.3c0-2.4-1.9-4.3-4.3-4.3z"/><path d="m77.8 53.4h-20.3c-2.4 0-4.3 1.9-4.3 4.3v20.3c0 2.4 1.9 4.3 4.3 4.3h20.3c2.4 0 4.3-1.9 4.3-4.3v-20.3c0-2.4-1.9-4.3-4.3-4.3z"/></g></svg>