<svg enable-background="new 0 0 100 100" viewBox="0 0 100 100" xmlns="http://www.w3.org/2000/svg"><path d="m72.9 17.7h-45.8c-2.6 0-4.8 2.1-4.8 4.8v55.4c0 2.6 2.1 4.8 4.8 4.8h45.8c2.6 0 4.8-2.1 4.8-4.8v-55.4c0-2.6-2.1-4.8-4.8-4.8zm-8.3 43.9c0 1.1-.9 1.9-1.9 1.9h-17.5c-1.1 0-1.9-.9-1.9-1.9 0-1.1.9-1.9 1.9-1.9h17.5c1 0 1.9.9 1.9 1.9zm0-11.2c0 1.1-.9 1.9-1.9 1.9h-17.5c-1.1 0-1.9-.9-1.9-1.9 0-1.1.9-1.9 1.9-1.9h17.5c1 0 1.9.9 1.9 1.9zm0-11c0 1.1-.9 1.9-1.9 1.9h-17.5c-1.1 0-1.9-.9-1.9-1.9 0-1.1.9-1.9 1.9-1.9h17.5c1-.1 1.9.8 1.9 1.9zm-25.1-.1c0 1.3-1.1 2.4-2.4 2.4s-2.4-1.1-2.4-2.4 1.1-2.4 2.4-2.4 2.4 1.1 2.4 2.4zm0 11.2c0 1.3-1.1 2.4-2.4 2.4s-2.4-1.1-2.4-2.4 1.1-2.4 2.4-2.4 2.4 1.1 2.4 2.4zm0 11.3c0 1.3-1.1 2.4-2.4 2.4s-2.4-1.1-2.4-2.4 1.1-2.4 2.4-2.4 2.4 1.1 2.4 2.4z" fill="#5f6062"/></svg>