<svg enable-background="new 0 0 100 100" viewBox="0 0 100 100" xmlns="http://www.w3.org/2000/svg"><g fill="#5f6062"><path d="m74.7 18.5h-41.3c-2.1 0-3.7 1.7-3.7 3.7 0 2.1 1.7 3.7 3.7 3.7h35.2c1.1 0 1.9.9 1.9 1.9v44.8c0 1.1-.9 1.9-1.9 1.9h-35.1c-2.1 0-3.7 1.7-3.7 3.7 0 2.1 1.7 3.7 3.7 3.7h41.3c1.8 0 3.2-1.5 3.2-3.2v-57c0-1.7-1.4-3.2-3.3-3.2z"/><path d="m43.8 60.7c-1.5 1.5-1.5 3.8 0 5.3s3.8 1.5 5.3 0l14.1-14.1c.9-.9.9-2.4 0-3.3l-14.2-14.2c-1.5-1.5-3.8-1.5-5.3 0s-1.5 3.8 0 5.3l6.8 6.8h-28.7c-2.1 0-3.7 1.7-3.7 3.7 0 2.1 1.7 3.7 3.7 3.7h28.6z"/></g></svg>