<svg enable-background="new 0 0 100 100" viewBox="0 0 100 100" xmlns="http://www.w3.org/2000/svg"><g fill="#5f6062"><path d="m33.9 31h32.1c1.1 0 1.9-.9 1.9-1.9v-.1c0-1.1-.9-1.9-1.9-1.9h-32.1c-1.1 0-1.9.9-1.9 1.9v.1c0 1.1.9 1.9 1.9 1.9z"/><path d="m68.4 35.4h-36.9c-1.1 0-1.9.9-1.9 1.9v.1c0 1.1.9 1.9 1.9 1.9h36.9c1.1 0 1.9-.9 1.9-1.9v-.1c0-1-.8-1.9-1.9-1.9z"/><path d="m82 45.5-6.4-23.7c-.6-2.1-2.4-3.5-4.6-3.5h-42c-2.1 0-4 1.4-4.6 3.5l-6.4 23.7c-.2.6-.2 1.2-.2 1.7v3.3 25.5 3.8c0 1.6 1.3 2.9 2.9 2.9h3.8 51.2 3.8c1.6 0 2.9-1.3 2.9-2.9v-3.8-25.5-3.3c-.2-.6-.3-1.2-.4-1.7zm-17.3 14.5c0 1.7-1.4 3.1-3.1 3.1h-23c-1.7 0-3.1-1.4-3.1-3.1s1.4-3.1 3.1-3.1h23c1.7 0 3.1 1.4 3.1 3.1zm10.9-16.1h-13.1l-1.3 1.4c-.4.4-.9.6-1.4.6h-19.4c-.5 0-1-.2-1.4-.6l-1.3-1.4h-13.3c-.4 0-.7 0-1.1.1l5.2-19.3c.3-1 1.2-1.8 2.3-1.8h39c.7 0 1.3.5 1.5 1.1l5.4 19.9c-.4 0-.8 0-1.1 0z"/></g></svg>