<svg enable-background="new 0 0 100 100" viewBox="0 0 100 100" xmlns="http://www.w3.org/2000/svg"><g fill="#5f6062"><path d="m51.2 70.7c0-6.1 2.8-11.6 7.2-15.3v-4.5s2.5-2 3.3-8.1c1.6.5 3.3-2.4 3.3-3.9.1-1.4-.2-5.4-2.1-5 .4-3 .7-5.7.5-7.1-.5-5.2-5.6-10.7-13.6-10.7-7.9 0-13 5.5-13.6 10.7-.1 1.4.2 4.1.5 7.1-1.9-.4-2.2 3.6-2.2 5 .1 1.5 1.8 4.3 3.3 3.9.8 6.1 3.3 8.1 3.3 8.1l-.1 6.5s-1.6 1-8.4 3.8-11.8 4.8-13.8 8c-1.8 2.8-1.3 12.9-1.3 12.9h37c-2-3.2-3.3-7.1-3.3-11.4z"/><path d="m71 54.2c-9.1 0-16.5 7.4-16.5 16.5s7.4 16.5 16.5 16.5 16.5-7.4 16.5-16.5-7.4-16.5-16.5-16.5zm0 4.1c5.8 0 10.8 4.1 12.1 9.5-3.4-2.4-7.6-3.9-12.1-3.9s-8.7 1.4-12.1 3.9c1.4-5.5 6.3-9.5 12.1-9.5zm-3 24.5c-4.6-1.1-8.2-4.8-9.2-9.4.6-.1 1.2-.2 1.8-.2 4.2 0 7.6 3.4 7.6 7.6.1.7 0 1.3-.2 2zm3-8.7c-1.9 0-3.4-1.5-3.4-3.4s1.5-3.4 3.4-3.4 3.4 1.5 3.4 3.4-1.5 3.4-3.4 3.4zm3 8.7c-.2-.6-.3-1.3-.3-2 0-4.2 3.4-7.6 7.6-7.6.6 0 1.2.1 1.8.2-1 4.6-4.5 8.2-9.1 9.4z"/></g></svg>