<svg enable-background="new 0 0 100 100" viewBox="0 0 100 100" xmlns="http://www.w3.org/2000/svg"><g fill="#5f6062"><path d="m28.1 57.4c-4 0-7.3 3.3-7.3 7.3s3.3 7.3 7.3 7.3 7.3-3.3 7.3-7.3-3.3-7.3-7.3-7.3zm0 10.2c-1.6 0-2.9-1.3-2.9-2.9s1.3-2.9 2.9-2.9 2.9 1.3 2.9 2.9-1.3 2.9-2.9 2.9z"/><path d="m85.9 56.7v-9c0-1.6-1.3-2.9-2.9-2.9h-25.7v-7.9c-.1-.9-.9-1.6-1.9-1.6h-9.7c-2.4 0-4.7.9-6.4 2.5l-7.8 7.1h-9.8c-3.7 0-6.7 3-6.7 6.7v5.2c-1.3 0-2.3 1-2.3 2.3v3.3c0 1.3 1 2.3 2.3 2.3h3.4c.1-5.3 4.4-9.5 9.7-9.5s9.6 4.3 9.7 9.5h24.3c.1-5.3 4.4-9.5 9.7-9.5s9.6 4.3 9.7 9.5h2.9c1.6 0 2.9-1.3 2.9-2.9v-3.8c-.1-.7-.7-1.3-1.4-1.3zm-49.4-11.9 5.1-4.6c1.1-1 2.6-1.6 4.2-1.6h8.5l.1 6.2z"/><path d="m71.7 57.4c-4 0-7.3 3.3-7.3 7.3s3.3 7.3 7.3 7.3 7.3-3.3 7.3-7.3-3.2-7.3-7.3-7.3zm0 10.2c-1.6 0-2.9-1.3-2.9-2.9s1.3-2.9 2.9-2.9 2.9 1.3 2.9 2.9-1.3 2.9-2.9 2.9z"/></g></svg>