<svg enable-background="new 0 0 100 100" viewBox="0 0 100 100" xmlns="http://www.w3.org/2000/svg"><g fill="#5f6062"><circle cx="61.8" cy="25.8" r="2.1"/><path d="m66.3 51.9c1.4 0 2.8.2 4.1.4v-29.5c0-2.6-2.1-4.7-4.7-4.7h-31c-2.6 0-4.7 2.1-4.7 4.7v54.6c0 2.6 2.1 4.7 4.7 4.7h16c-2.2-3.1-3.5-6.9-3.5-11-.1-10.6 8.5-19.2 19.1-19.2zm-32.1-28.4c0-.8.6-1.4 1.4-1.4h29.1c.8 0 1.4.6 1.4 1.4v4.8c0 .8-.6 1.4-1.4 1.4h-29.1c-.8 0-1.4-.6-1.4-1.4zm0 16.2v-4.8c0-.8.6-1.4 1.4-1.4h29.1c.8 0 1.4.6 1.4 1.4v4.8c0 .8-.6 1.4-1.4 1.4h-29.1c-.8 0-1.4-.6-1.4-1.4z"/><circle cx="61.8" cy="37.1" r="2.1"/><path d="m73 68.2c-.1 0-.2 0-.3 0-1.1.1-2.5.9-4 2.1-.3.2-.6.5-.8.7.2.2.5.5.8.7 1.6 1.3 2.9 2 4 2.1h.3c1.3 0 2.4-1.3 2.4-2.8.1-1.5-1-2.8-2.4-2.8z"/><path d="m60 68.2c-.1 0-.2 0-.3 0-1.3 0-2.4 1.3-2.4 2.8 0 1.6 1.1 2.8 2.4 2.8h.3c1.1-.1 2.5-.9 4-2.1.3-.2.6-.5.8-.7-.2-.2-.5-.4-.8-.7-1.5-1.2-2.9-1.9-4-2.1z"/><path d="m66.3 55.2c-8.8 0-15.9 7.1-15.9 15.9s7.1 15.9 15.9 15.9 15.9-7.1 15.9-15.9-7.1-15.9-15.9-15.9zm7.3 21.4c-.2 0-.4 0-.6 0-2.4-.3-5.1-2.5-6.7-3.9-1.5 1.4-4.2 3.6-6.7 3.9-.2 0-.4 0-.6 0-2.6 0-4.7-2.5-4.7-5.6s2.1-5.6 4.7-5.6h.6c2.4.3 5.1 2.4 6.7 3.9 1.5-1.4 4.2-3.5 6.7-3.9h.6c2.6 0 4.7 2.5 4.7 5.6s-2.1 5.6-4.7 5.6z"/></g></svg>