<svg enable-background="new 0 0 100 100" viewBox="0 0 100 100" xmlns="http://www.w3.org/2000/svg"><g fill="#5f6062"><path d="m78.8 48.3-1.5-4c-2 .9-4.2 1.3-6.7 1.3-2.4 0-5-.4-7.8-1.2h-.1c-.9 1.2-2 2.9-2.9 4.9-.7 1.5-2.3 2.5-4 2.5-1.8 0-3.8-1-4.8-2.6-.8-1.2-1-2.7-.4-4 .1-.3.2-.5.4-.8h-21.8c-.8 0-1.4-.8-1.1-1.6l3.6-9.7c.7-1.8 2.3-3 4.2-3h17.1c.1-.8.3-1.6.6-2.5.2-.7.5-1.4.8-2h-18.6c-3.8 0-7.2 2.4-8.5 5.9l-6 16.5c-1.9 2-3.8 4.3-3.8 6v18.1.3 5.1c0 2.6 2.1 4.8 4.8 4.8h1.4c2.6 0 4.8-2.1 4.8-4.8v-3.3h43v3.3c0 2.6 2.1 4.8 4.8 4.8h1.4c2.6 0 4.8-2.1 4.8-4.8v-5.4-18.1c-.1-1.4-1.9-3.7-3.7-5.7zm-48.4 12.6c-2.4 0-4.5-2.1-4.5-4.5s2.1-4.5 4.5-4.5 4.5 2.1 4.5 4.5c.1 2.4-2 4.5-4.5 4.5zm38.8 0c-2.4 0-4.5-2.1-4.5-4.5s2.1-4.5 4.5-4.5 4.5 2.1 4.5 4.5-2.1 4.5-4.5 4.5z"/><path d="m63.6 20.3c-8.1 4.7-7.6 12.3-7.4 15.2 10.5-12.3 26.2-11.7 26.2-11.7s-22.2 7.6-28.8 22.8c-.5 1.2 2.4 2.8 3.1 1.3 2-4.2 4.8-7.4 4.8-7.4 4.1 1.5 11.2 3.3 16.3-.2 6.7-4.7 6-15.1 15.6-20.1 2.2-1.3-18.8-6.2-29.8.1z"/></g></svg>