<svg enable-background="new 0 0 100 100" viewBox="0 0 100 100" xmlns="http://www.w3.org/2000/svg"><g fill="#5f6062"><path d="m27.6 57.2c-4.1 0-7.4 3.3-7.4 7.4s3.3 7.4 7.4 7.4 7.4-3.3 7.4-7.4-3.3-7.4-7.4-7.4zm0 10.3c-1.6 0-2.9-1.3-2.9-2.9s1.3-2.9 2.9-2.9 2.9 1.3 2.9 2.9-1.3 2.9-2.9 2.9z"/><path d="m86.7 57.2v-6.7c0-1.6-1.3-2.9-2.9-2.9h-9.1l-2.3-4.6c-1.2-2.9-4-4.8-7.2-4.8h-19.6c-2.1 0-4.1.7-5.8 1.9l-8.6 7.5h-9c-3.7 0-6.8 3-6.8 6.8v2.9h-.1c-1.6 0-2.9 1.3-2.9 2.9v2.7c0 1.6 1.3 2.9 2.9 2.9h2.5c0-.4-.1-.7-.1-1.1 0-5.4 4.4-9.8 9.8-9.8s9.8 4.4 9.8 9.8c0 .4 0 .7-.1 1.1h27.5c0-.4-.1-.7-.1-1.1 0-5.4 4.4-9.8 9.8-9.8s9.8 4.4 9.8 9.8c0 .4 0 .7-.1 1.1h.4c1.6 0 2.9-1.3 2.9-2.9v-4.6c.3-.7-.2-1.1-.7-1.1zm-32.4-9.6h-17.5l5-4.8c1.1-.8 2.4-1.3 3.8-1.3h8.7zm3 0v-6h8c1.8 0 3.5 1.1 4.2 2.7l1.6 3.3z"/><path d="m74.6 57.2c-4.1 0-7.4 3.3-7.4 7.4s3.3 7.4 7.4 7.4 7.4-3.3 7.4-7.4-3.3-7.4-7.4-7.4zm0 10.3c-1.6 0-2.9-1.3-2.9-2.9s1.3-2.9 2.9-2.9 2.9 1.3 2.9 2.9-1.3 2.9-2.9 2.9z"/></g></svg>