<svg enable-background="new 0 0 100 100" viewBox="0 0 100 100" xmlns="http://www.w3.org/2000/svg"><g fill="#5f6062"><path d="m41.4 51.1c-2.4.6-4.9-.9-5.5-3.3l-6.9-27.3c-.6-2.4.9-4.9 3.3-5.5s4.9.9 5.5 3.3l6.9 27.3c.6 2.5-.9 4.9-3.3 5.5z"/><circle cx="67.3" cy="83.9" r="3.5"/><circle cx="38.1" cy="83.9" r="3.5"/><path d="m29.6 38.8c1-.2 2 .3 2.2 1.3l3.8 14.8c.2.8 1 1.4 1.8 1.4h1.9c.7-1.5 2.2-2.5 4-2.5h23c2.4 0 4.4 2 4.4 4.4s-2 4.4-4.4 4.4h-11.4v8.7l14.2 3.8c1.1.3 1.8 1.4 1.5 2.5s-1.4 1.8-2.5 1.5l-15.4-4.1-14.9 4.1c-.2.1-.4.1-.6.1-.9 0-1.7-.6-2-1.5-.3-1.1.3-2.3 1.5-2.6l13.8-3.8v-8.7h-7.2c-1.8 0-3.4-1.1-4.1-2.7h-4.6c-.9 0-1.6-.6-1.8-1.4l-4.5-17.5c-.2-.9.4-1.9 1.3-2.2z"/></g></svg>