<svg enable-background="new 0 0 100 100" viewBox="0 0 100 100" xmlns="http://www.w3.org/2000/svg"><g fill="#5f6062"><path d="m33.5 44.3h-13.3c-.7 0-1.2.2-1.7.7s-.7 1-.7 1.7v23.9c0 .7.2 1.2.7 1.7s1.1.7 1.7.7h13.3c.7 0 1.2-.2 1.7-.7s.7-1 .7-1.7v-23.9c0-.7-.2-1.2-.7-1.7-.4-.5-1-.7-1.7-.7z"/><path d="m78.5 39.9c-.4-.1-.7-.1-1.1-.1-.3 0-.7 0-1 0-.1 0-.1 0-.2 0h-15l5-13.3c.8-2 0-4.3-1.9-5.5-2.1-1.4-5-.7-6.3 1.4l-11 17.3-7.3 4.2c-.9.5-1.4 1.5-1.4 2.5v23.8c0 1.4 1 2.6 2.3 2.8l14.4 2.8c.3.1.6.1.9.1h14.7.1c2.7.2 5.2-1.5 5.8-4.2.4-1.7 0-3.4-1-4.7 1.5-.7 2.6-2 3-3.7s0-3.4-1-4.7c1.5-.7 2.6-2 3-3.7s0-3.4-1-4.7c1.5-.7 2.6-2 3-3.7.8-2.9-1-5.9-4-6.6z"/></g></svg>