<svg enable-background="new 0 0 100 100" viewBox="0 0 100 100" xmlns="http://www.w3.org/2000/svg"><g fill="#5f6062"><path d="m51.3 71c0-6.1 2.8-11.5 7.1-15.1-1.2-1.7-1.9-3.7-2.2-5.7.6-.7 1.2-1.4 1.7-2.1 3.5 1.1 7.7 1.5 11.3-1.2-5-5-1-11.2-4.6-22.3-3.1-9.4-15.6-9-17.2-5.7-6.6-2.4-11.6.8-13.5 10.8-2.1 11.5 2 12.7-3 17.7 3.8 2.2 7.3 1.7 10.3.4.6.8 1.2 1.6 1.9 2.3-.6 4-2.7 8-8 9.7-4.1 1.3-8.8 2.6-11.7 5.4-2.2 2.2-.7 17.1-.7 17.1h16.8 15.5c-2.4-3.1-3.7-7.1-3.7-11.3z"/><path d="m70.8 54.8c-8.9 0-16.2 7.3-16.2 16.2s7.3 16.2 16.2 16.2c9 0 16.2-7.3 16.2-16.2s-7.2-16.2-16.2-16.2zm0 4c5.7 0 10.6 4 11.9 9.3-3.3-2.4-7.4-3.8-11.9-3.8s-8.5 1.4-11.9 3.8c1.4-5.3 6.2-9.3 11.9-9.3zm-2.9 24c-4.5-1.1-8-4.7-9-9.2.6-.1 1.2-.2 1.8-.2 4.1 0 7.5 3.4 7.5 7.5 0 .6-.1 1.3-.3 1.9zm2.9-8.5c-1.9 0-3.4-1.5-3.4-3.4s1.5-3.4 3.4-3.4 3.4 1.5 3.4 3.4-1.5 3.4-3.4 3.4zm2.9 8.5c-.2-.6-.3-1.3-.3-2 0-4.1 3.4-7.5 7.5-7.5.6 0 1.2.1 1.8.2-1 4.6-4.5 8.2-9 9.3z"/></g></svg>