<svg enable-background="new 0 0 100 100" viewBox="0 0 100 100" xmlns="http://www.w3.org/2000/svg"><path d="m78.6 50.1c0-.1 0-.2 0-.3 0-.2 0-.4 0-.7s0-.7 0-1c0-.1 0-.3 0-.4-.2-3.1-.9-6.1-2.1-9-1.4-3.4-3.5-6.5-6.1-9.1s-5.7-4.7-9.1-6.1c-3.5-1.5-7.3-2.2-11.1-2.2-3.9 0-7.6.8-11.1 2.2-3.4 1.4-6.5 3.5-9.1 6.1s-4.7 5.7-6.1 9.1c-1.5 3.5-2.2 7.2-2.2 11h-7.8c-1.2 0-1.8 1.4-.9 2.3l11.3 11.3c.5.5 1.4.5 1.9 0l11.1-11.3c.8-.8.2-2.3-.9-2.3h-7.8c0-4.3 1.3-8.4 3.7-11.9.1 0 .1-.1.2-.1l1.5-1.7c3.8-4.3 9-6.9 14.7-7.3s11.3 1.5 15.6 5.2c4.3 3.8 6.9 9 7.3 14.7v.8.3c0 5.8-2.2 11.2-6.3 15.3s-9.4 6.3-15.2 6.3h-2.2c-.2 0-.4 0-.5.1-4.2-.5-8.1-2.3-11.3-5.1l-1.6-1.4c-.7-.6-1.6-1-2.6-.9-1.9.1-3.4 1.8-3.3 3.7.1.8.4 1.6 1 2.2.1.1.1.2.2.3l1.7 1.5c2.9 2.5 6.2 4.4 9.8 5.6 3.5 1.2 7.2 1.6 10.9 1.4 3.7-.3 7.3-1.2 10.6-2.8 3.4-1.7 6.5-4 9-6.9s4.4-6.2 5.6-9.8c.8-3.1 1.2-6.1 1.2-9.1z" fill="#5f6062"/></svg>