<svg enable-background="new 0 0 100 100" viewBox="0 0 100 100" xmlns="http://www.w3.org/2000/svg"><g fill="#5f6062"><circle cx="21.8" cy="70.4" r="4.3"/><path d="m78.2 66.1h-42c-2.4 0-4.3 1.9-4.3 4.3s1.9 4.3 4.3 4.3h42.1c2.4 0 4.3-1.9 4.3-4.3-.1-2.4-2-4.3-4.4-4.3z"/><circle cx="21.8" cy="51.1" r="4.3"/><path d="m78.2 46.8h-42c-2.4 0-4.3 1.9-4.3 4.3s1.9 4.3 4.3 4.3h42.1c2.4 0 4.3-1.9 4.3-4.3-.1-2.4-2-4.3-4.4-4.3z"/><path d="m21.8 26.6c-2.4 0-4.3 1.9-4.3 4.3s1.9 4.3 4.3 4.3 4.3-1.9 4.3-4.3-1.9-4.3-4.3-4.3z"/><path d="m78.2 26.6h-42c-2.4 0-4.3 1.9-4.3 4.3s1.9 4.3 4.3 4.3h42.1c2.4 0 4.3-1.9 4.3-4.3-.1-2.4-2-4.3-4.4-4.3z"/></g></svg>