<svg enable-background="new 0 0 100 100" viewBox="0 0 100 100" xmlns="http://www.w3.org/2000/svg"><g fill="#5f6062"><path d="m49.1 71.1c0-6 2.7-11.3 7-14.9v-4.4s2.5-1.9 3.2-7.9c1.5.5 3.2-2.3 3.3-3.8.1-1.4-.2-5.3-2.1-4.9.4-2.9.7-5.5.5-6.9-.5-5-5.5-10.3-13.2-10.3s-12.7 5.4-13.2 10.5c-.1 1.4.2 4 .5 6.9-1.8-.4-2.1 3.4-2.1 4.8.1 1.5 1.7 4.2 3.3 3.8.8 5.9 3.2 7.9 3.2 7.9l-.1 6.3s-1.6 1-8.2 3.7-11.5 4.7-13.4 7.8c-1.8 2.8-1.2 12.6-1.2 12.6h36.1c-2.2-3.2-3.6-7.1-3.6-11.2z"/><path d="m68.4 55.2c-8.8 0-15.9 7.1-15.9 15.9s7.2 15.9 15.9 15.9 15.9-7.1 15.9-15.9-7.1-15.9-15.9-15.9zm8.6 15.7c0 .8-.6 1.4-1.4 1.4h-5.7v5.7c0 .8-.6 1.4-1.4 1.4s-1.4-.6-1.4-1.4v-5.7h-5.7c-.8 0-1.4-.6-1.4-1.4s.6-1.4 1.4-1.4h5.7v-5.7c0-.8.6-1.4 1.4-1.4s1.4.6 1.4 1.4v5.7h5.7c.7.1 1.4.7 1.4 1.4z"/></g></svg>