<svg enable-background="new 0 0 100 100" viewBox="0 0 100 100" xmlns="http://www.w3.org/2000/svg"><g fill="#5f6062"><path d="m21.6 80.1c-.9 0-1.7-.8-1.7-1.7v-16.7c0-1.9 1.5-3.4 3.4-3.4s3.4 1.5 3.4 3.4v6.6l12.9-12.9c.6-.6 1.5-1 2.4-1s1.8.4 2.4 1 1 1.5 1 2.4-.4 1.8-1 2.4l-12.7 13h6.6c1.9 0 3.4 1.5 3.4 3.4s-1.5 3.4-3.4 3.4z"/><path d="m57.8 45.6c-.9 0-1.8-.4-2.4-1-1.3-1.3-1.3-3.5 0-4.9l12.9-12.9h-6.6c-1.9 0-3.4-1.5-3.4-3.4s1.5-3.4 3.4-3.4h16.7c.9 0 1.7.8 1.7 1.7v14.7c0 1.9-1.5 3.4-3.4 3.4s-3.4-1.5-3.4-3.4v-4.6l-13.1 12.8c-.6.7-1.5 1-2.4 1z"/><path d="m42.2 45.6c-.9 0-1.8-.4-2.4-1l-13-12.9v4.6c0 1.9-1.5 3.4-3.4 3.4s-3.4-1.5-3.4-3.4v-14.7c0-.9.8-1.7 1.7-1.7h16.7c1.9 0 3.4 1.5 3.4 3.4s-1.5 3.4-3.4 3.4h-6.6l12.9 12.9c.6.6 1 1.5 1 2.4s-.4 1.8-1 2.4c-.8.9-1.6 1.2-2.5 1.2z"/><path d="m61.7 80.1c-1.9 0-3.4-1.5-3.4-3.4s1.5-3.4 3.4-3.4h6.6l-12.9-13c-.6-.6-1-1.5-1-2.4s.4-1.8 1-2.4 1.5-1 2.4-1 1.8.4 2.4 1l12.9 12.9v-6.6c0-1.9 1.5-3.4 3.4-3.4s3.4 1.5 3.4 3.4v16.7c0 .9-.8 1.7-1.7 1.7h-16.5z"/></g></svg>