<svg enable-background="new 0 0 100 100" viewBox="0 0 100 100" xmlns="http://www.w3.org/2000/svg"><path d="m49.3 73.6-5.8 5.8c-3.1 3.1-7.2 4.6-11.3 4.6s-8.1-1.5-11.3-4.6c-3-3-4.7-7-4.7-11.2s1.7-8.2 4.7-11.2l12.6-12.5c7.8-7.8 16.8-8.9 22.9-2.8 1.6 1.6 1.6 4.3 0 5.9s-4.3 1.6-5.9 0c-3.6-3.5-8.5.2-11.1 2.9l-12.6 12.5c-1.4 1.4-2.2 3.3-2.2 5.3s.8 3.9 2.2 5.3c3 2.9 7.8 2.9 10.7 0l5.8-5.8c1.6-1.6 4.3-1.6 5.9 0 1.7 1.6 1.7 4.2.1 5.8zm29.8-29.6-13.4 13.4c-4.2 4.1-8.5 6.2-12.7 6.2-3.4 0-6.6-1.4-9.4-4.2-1.6-1.6-1.6-4.3 0-5.9s4.3-1.6 5.9 0c1.2 1.2 4.1 4.1 10.2-2l13.4-13.3c1.4-1.4 2.2-3.3 2.2-5.3s-.8-3.9-2.2-5.3c-2.7-2.7-6.8-4-9.9-.8l-7.1 7.1c-1.6 1.6-4.3 1.6-5.9 0s-1.6-4.3 0-5.9l7.1-7.1c6.1-6 15.2-5.7 21.7.8 3 3 4.7 7 4.7 11.2.1 4.1-1.6 8.1-4.6 11.1z" fill="#5f6062"/></svg>