<svg enable-background="new 0 0 100 100" viewBox="0 0 100 100" xmlns="http://www.w3.org/2000/svg"><g fill="#5f6062"><path d="m29.5 17.7-11.8 11.8 7.7 7.7-2.3 2.3c-.7.7-.7 1.8 0 2.5l3.6 3.6c.3.3.6.4 1 .4h6.6l6.4 6.4c.7.7 1.8.7 2.5 0l9.2-9.2c.7-.7.7-1.8 0-2.5l-6.4-6.4v-6.6c0-.4-.2-.7-.4-1l-3.6-3.6c-.7-.7-1.8-.7-2.5 0l-2.3 2.3zm14.2 21.9c.3-.3.7-.3 1 0l2.4 2.4c.3.3.3.7 0 1l-4.1 4.1c-.3.3-.7.3-1 0l-2.4-2.4c-.3-.3-.3-.7 0-1zm-5.2-12.2c.3-.3.7-.3 1 0l.8.8c.3.3.3.7 0 1l-11.1 11.1c-.3.3-.7.3-1 0l-.8-.8c-.3-.3-.3-.7 0-1z"/><path d="m66.9 63.9h10.6v16.7h-10.6z" transform="matrix(-.7071 -.7071 .7071 -.7071 72.2334 174.3867)"/><path d="m57.6 44.3-13.3 13.3c-.7.7-.7 1.8 0 2.5l13.3 13.3c.7.7 1.8.7 2.5 0l13.3-13.3c.7-.7.7-1.8 0-2.5l-13.3-13.3c-.7-.7-1.8-.7-2.5 0zm.6 6.9c.4-.4 1-.4 1.4 0l7 7c.4.4.4 1 0 1.4l-7 7c-.4.4-1 .4-1.4 0l-7-7c-.4-.4-.4-1 0-1.4z"/><path d="m54.6 59.6 3.5 3.5c.4.4 1 .4 1.4 0l3.5-3.5c.4-.4.4-1 0-1.4l-3.5-3.5c-.4-.4-1-.4-1.4 0l-3.5 3.5c-.4.3-.4 1 0 1.4z"/></g></svg>