<svg enable-background="new 0 0 100 100" viewBox="0 0 100 100" xmlns="http://www.w3.org/2000/svg"><g fill="#5f6062"><path d="m77.1 63.9h-23.2c0-.1 0-.2 0-.2l-.9-11c0-.7-.5-1.2-1.1-1.4l-.4-9.6c1-.6 1.7-1.6 1.7-2.9 0-1.8-1.5-3.3-3.3-3.3s-3.3 1.5-3.3 3.3c0 1.2.7 2.3 1.7 2.9l-.4 9.6c-.4.1-.9.7-.9 1.4l-.9 11v.2h-23.2c-2.6 0-4.7 2.1-4.7 4.7v8.7c0 2.6 2.1 4.7 4.7 4.7h54.3c2.6 0 4.7-2.1 4.7-4.7v-8.7c-.1-2.6-2.2-4.7-4.8-4.7zm-17.8 12.5c-1.8 0-3.3-1.5-3.3-3.3s1.5-3.3 3.3-3.3 3.3 1.5 3.3 3.3-1.5 3.3-3.3 3.3zm14.1 0c-1.8 0-3.3-1.5-3.3-3.3s1.5-3.3 3.3-3.3 3.3 1.5 3.3 3.3-1.5 3.3-3.3 3.3z"/><path d="m25.3 58.6c.9 1 2.5 1.1 3.4.1.9-.9.9-2.3.1-3.2-1.8-2.1-3.2-4.5-4.3-7-1.3-3.1-1.9-6.4-1.9-9.8s.6-6.7 1.9-9.8c1-2.6 2.5-4.9 4.3-7 .8-.9.8-2.3-.1-3.2-1-1-2.6-.9-3.4.1-2.1 2.5-3.8 5.3-5 8.3-1.5 3.7-2.3 7.6-2.3 11.6s.8 7.9 2.3 11.6c1.1 3 2.8 5.8 5 8.3z"/><path d="m42.1 45.3c.8-.8.9-2 .3-2.9-.7-1.1-1-2.4-1-3.7s.4-2.6 1-3.7c.6-.9.4-2.1-.3-2.9-1.1-1.1-2.9-.9-3.7.4-1.1 1.8-1.7 4-1.7 6.2s.6 4.3 1.7 6.2c.9 1.2 2.7 1.4 3.7.4z"/><path d="m31.9 51.8c.9 1.1 2.5 1.2 3.5.2.8-.8.9-2.2.2-3.1-2.3-3-3.5-6.6-3.5-10.3 0-3.6 1.2-7.3 3.5-10.3.7-.9.6-2.3-.2-3.1-1-1-2.6-.9-3.5.2-2.9 3.7-4.5 8.3-4.5 13.1s1.5 9.6 4.5 13.3z"/><path d="m75.4 28.9c1.3 3.1 1.9 6.4 1.9 9.8s-.6 6.7-1.9 9.8c-1 2.6-2.5 4.9-4.3 7-.8.9-.8 2.3.1 3.2 1 1 2.6.9 3.4-.1 2.1-2.5 3.8-5.3 5-8.3 1.5-3.7 2.3-7.6 2.3-11.6s-.8-7.9-2.3-11.6c-1.2-3-2.9-5.8-5-8.3-.9-1-2.5-1.1-3.4-.1-.9.9-.9 2.3-.1 3.2 1.9 2 3.3 4.4 4.3 7z"/><path d="m58.5 38.7c0 1.3-.4 2.6-1 3.7-.6.9-.4 2.1.3 2.9 1.1 1.1 2.9.9 3.7-.4 1.1-1.8 1.7-4 1.7-6.2s-.6-4.3-1.7-6.2c-.8-1.3-2.6-1.5-3.7-.4-.8.8-.9 2-.3 2.9.7 1.1 1 2.3 1 3.7z"/><path d="m64.6 52c1 1 2.6.9 3.5-.2 2.9-3.7 4.5-8.3 4.5-13.1s-1.6-9.4-4.5-13.1c-.9-1.1-2.5-1.2-3.5-.2-.8.8-.9 2.2-.2 3.1 2.3 3 3.5 6.6 3.5 10.3 0 3.6-1.2 7.3-3.5 10.3-.7.8-.6 2.1.2 2.9z"/></g></svg>