<svg enable-background="new 0 0 100 100" viewBox="0 0 100 100" xmlns="http://www.w3.org/2000/svg"><g fill="#5f6062"><path d="m68.7 61.5c-.2-.2-.5-.2-.6-.2-.2 0-.4 0-.6.2l-3.8 3.8c-1.3 1.3-2.9 1.9-4.7 1.9s-3.4-.7-4.7-1.9l-3.8-3.8c-.2-.2-.4-.2-.6-.2s-.4 0-.6.2l-3.6 3.6c-1.3 1.3-2.9 1.9-4.7 1.9s-3.4-.7-4.7-1.9l-3.6-3.6c-.2-.2-.4-.2-.6-.2s-.4 0-.6.2l-.1.1c-1.3 1.3-2.9 2-4.7 2-.3 0-.6 0-.9-.1v15.5c0 1.8 1.4 3.2 3.2 3.2h42.2c1.8 0 3.2-1.4 3.2-3.2v-15.6c-.3 0-.6.1-.9.1-1.9 0-3.5-.7-4.8-2z"/><path d="m68.8 40.6h-37.6c-4.6 0-8.3 3.7-8.3 8.3v8c0 3.3 4 5 6.4 2.7l.1-.1c1.5-1.5 3.8-1.5 5.3 0l3.6 3.6c1.5 1.5 3.8 1.5 5.3 0l3.6-3.6c1.5-1.5 3.8-1.5 5.3 0l3.8 3.8c1.5 1.5 3.8 1.5 5.3 0l3.8-3.8c1.5-1.5 3.8-1.5 5.3 0 2.4 2.4 6.4.7 6.4-2.7v-7.9c0-4.6-3.7-8.3-8.3-8.3z"/><path d="m39.3 28.2c0-.6-.5-1-1-1h-2.8c-.6 0-1 .5-1 1v9.3h4.8z"/><path d="m36.7 25.2c1.3.1 2.3-1 2.3-2.4 0-.5-.2-1-.4-1.4-.7-1.3-1.1-2.6-1.4-3.4 0-.1-.2-.2-.3-.2s-.2.1-.3.2c-.2.8-.6 2-1.4 3.3-.3.4-.5.9-.5 1.4 0 1.3.9 2.4 2 2.5z"/><path d="m52.5 28.2c0-.6-.5-1-1-1h-2.8c-.6 0-1 .5-1 1v9.3h4.8z"/><path d="m49.9 25.2c1.3.1 2.3-1 2.3-2.4 0-.5-.2-1-.4-1.4-.8-1.4-1.2-2.6-1.4-3.4 0-.1-.2-.2-.3-.2s-.2.1-.3.2c-.2.8-.6 2-1.4 3.3-.3.4-.5.9-.5 1.4-.1 1.3.9 2.4 2 2.5z"/><path d="m65.4 28.2c0-.6-.5-1-1-1h-2.8c-.6 0-1 .5-1 1v9.3h4.8z"/><path d="m62.8 25.2c1.3.1 2.3-1 2.3-2.4 0-.5-.2-1-.4-1.4-.7-1.3-1.1-2.6-1.4-3.4 0-.1-.2-.2-.3-.2s-.2.1-.3.2c-.2.8-.6 2-1.4 3.3-.3.4-.5.9-.5 1.4-.1 1.3.8 2.4 2 2.5z"/></g></svg>