<svg enable-background="new 0 0 100 100" viewBox="0 0 100 100" xmlns="http://www.w3.org/2000/svg"><g fill="#5f6062"><path d="m33 26.5h-2.7c-.6 0-1-.5-1-1v-11.2c0-.6.5-1 1-1h2.7c.6 0 1 .5 1 1v11.2c.1.6-.4 1-1 1z"/><path d="m69.4 26.5h-2.7c-.6 0-1-.5-1-1v-11.2c0-.6.5-1 1-1h2.7c.6 0 1 .5 1 1v11.2c0 .6-.4 1-1 1z"/><path d="m77.3 18h-4.5v6.1c0 2.6-2.1 4.7-4.7 4.7s-4.7-2.1-4.7-4.7v-6.1h-27v6.1c0 2.6-2.1 4.7-4.7 4.7s-4.7-2-4.7-4.6v-6.2h-4.5c-2.6 0-4.7 2.1-4.7 4.7v54.8c0 2.6 2.1 4.7 4.7 4.7h54.8c2.6 0 4.7-2.1 4.7-4.7v-54.8c0-2.6-2.1-4.7-4.7-4.7zm-4.5 50.4c0 1.6-1.3 2.8-2.8 2.8h-40.2c-1.6 0-2.8-1.3-2.8-2.8v-26.3c0-1.6 1.3-2.8 2.8-2.8h40.2c1.6 0 2.8 1.3 2.8 2.8z"/><circle cx="36.9" cy="49.2" r="2.8"/><circle cx="49.9" cy="49.2" r="2.8"/><circle cx="62.9" cy="49.2" r="2.8"/><circle cx="36.9" cy="61.3" r="2.8"/><circle cx="49.9" cy="61.3" r="2.8"/><circle cx="62.9" cy="61.3" r="2.8"/></g></svg>