<svg enable-background="new 0 0 100 100" viewBox="0 0 100 100" xmlns="http://www.w3.org/2000/svg"><g fill="#5f6062"><path d="m71.4 87.3c-32.5-18.4-9-41.2 0-25.8 9-15.4 32.6 7.5 0 25.8z"/><path d="m54.2 76.5c-3.4-5.8-3.2-10.6-2.4-13.6.1-.4.2-.8.4-1.3v-5.6s2.2-1.7 2.8-6.9c1.4.4 2.8-2 2.9-3.3.1-1.2-.2-4.6-1.8-4.3.3-2.6.6-4.9.5-6.1-.4-4.5-4.8-9.2-11.6-9.2s-11.2 4.7-11.6 9.2c-.1 1.2.1 3.5.5 6.1-1.7-.3-1.9 3.1-1.9 4.3.1 1.3 1.5 3.7 2.9 3.3.7 5.2 2.9 6.9 2.9 6.9l-.1 5.6s-1.4.8-7.2 3.3c-5.8 2.4-10.1 4.1-11.8 6.8-1.6 2.4-1.1 11.1-1.1 11.1h42c-2.3-2-4.1-4.1-5.4-6.3z"/><path d="m59.9 35c.1 1.1 0 2.7-.2 4.7 1.7 2.1 1.6 5.6 1.6 6.3-.1 1.2-.6 2.6-1.4 3.8-.5.8-1.2 1.4-1.9 1.9-.4 1.6-.8 2.8-1.3 3.8 2-1.6 4.5-2.5 7.1-2.5 2.1 0 4.1.6 5.9 1.7.6.4 1.2.9 1.8 1.4.6-.5 1.2-1 1.9-1.4-.4-.1-.7-.2-1.1-.3-.1 0-.1 0-.2-.1-4.7-1.5-6.4-5-7-8.4.5-.6 1-1.2 1.5-1.9 3.1 1 6.7 1.3 9.8-1-4.3-4.4-.9-9.7-4-19.4-2.7-8.2-13.5-7.8-14.9-4.9-4.4-1.6-8-.3-10.2 4.2 3 .5 5.7 1.7 7.8 3.6 2.8 2.3 4.4 5.4 4.8 8.5z"/></g></svg>