<svg enable-background="new 0 0 100 100" viewBox="0 0 100 100" xmlns="http://www.w3.org/2000/svg"><path d="m81.6 48.3c-.7.5-1.4 1-1.7 1.2-.7.5-.9 1.5-.7 2.1.1.2.2.4.3.5.5.3-2.3.4-3.8 1.6-.4.3-.7.7-.8 1.3-.5 2.5-1.8.3-2.1 2.1v.1c-.1.8-.2 1.5-.3 2-.1.8 0 1.2.7 1.5.4.2-.1.9-1.1 1.9-.7.7-1.5 1.4-2.3 2.1-1.3 1.1-2.5 2-2.9 2.3-.2.2-.4.6-.4 1.1-.1.6-.1 1.4 0 2.1.1 1.1.4 2.1.8 2.4.2.2.3.5.4.9.1.6.1 1.4.1 2.1-.1.9-.2 1.8-.4 1.9-.2.2-1.4-.9-2-1.9-.2-.4-.4-.7-.3-.9 0-.3 0-.7-.1-1.1-.1-.6-.3-1.2-.4-1.7-.2-.8-2.3-1.1-2.4-.4-.1.4-.8-.6-1.5-1.2-.4-.3-.8-.5-1.2-.3-.2.1-.3.2-.5.3-.8.5-1.5 1-1.5 1.6 0 .7-4.4-1.3-5-1.2-.7.1-4.3 1.2-4.4 2.4v.6c0 .7-.1 1.5-.1 2.1v.9s-.8-.3-1.7-.9c-.7-.5-1.4-1.2-1.9-2.1-.1-.3-.3-.5-.3-.8-.4-1.5-1.1-2.2-1.7-2.5-.4-.2-.7-.2-.9 0 0 0-.1.1-.1.1-.3.7-.9 1.5-.9 1.5s-.5-1-1.1-1.9c-.3-.4-.5-.8-.6-1.3-.1-.4-.5-.6-.9-.8-1.3-.4-3.4-.1-4.3 0h-.8c-1.5-.2-4.4-.9-5-1.6-.8-.9-2-.4-2.6-.3-.4.1-1.1-.7-1.7-1.4-.5-.5-.9-1.1-1.2-1.4-.2-.2-.4-.4-.7-.7-1-.9-2.5-2.1-2.4-3.4 0 0 0 0 0-.1.1-1-.7-1.5-1.3-2-.3-.3-.6-.6-.6-1v-10.8c0-.6-.8-1.6-1.1-2.3-.1-.3 0-.6 0-.7.2-.5 1.2.3 1.7.7.1.1.2.1.2.1.1 0 .1 0 .1-.1.1-.1.1-.4.2-.6 0-.1 0-.1 0-.2.1-.6.2-1.3.2-1.3h31.9s2.5 1 4.4 1.4c2.8 8.8 10.5 16.1 10.5 16.1.2.2.4.3.5.4l.3.1.3-.1c.2-.1.4-.2.5-.4 0 0 5-4.3 8.4-11.1 1.6 0 2.8-.1 3-.2.6-.1.9-.6 1-.8.1-.1.1-.2.1-.2s3.7-.3 4.2.2c.1.3-1 1.2-2.1 2zm-14.7 5.5c-.2.2-.3.3-.5.4l-.3.1-.3-.1c-.2-.1-.3-.2-.5-.4 0 0-9.1-10-10-18.7-.1-.5-.1-.9-.1-1.4 0-6.2 4.8-11.1 10.8-11.1s10.8 5 10.8 11.1c0 .5 0 .9-.1 1.4-.8 8.7-9.8 18.7-9.8 18.7zm-.8-27.3c-3.8 0-6.9 3.2-6.9 7.2s3.1 7.2 6.9 7.2 6.9-3.2 6.9-7.2-3.1-7.2-6.9-7.2z" fill="#5f6062"/></svg>