<svg enable-background="new 0 0 100 100" viewBox="0 0 100 100" xmlns="http://www.w3.org/2000/svg"><g fill="#5f6062"><path d="m82.1 37.2v-4.4c0-2.6-2.1-4.8-4.8-4.8h-12.7v-3.4c0-3.9-3.2-7.1-7.1-7.1h-15c-3.9 0-7.1 3.2-7.1 7.1v3.4h-12.9c-2.6 0-4.8 2.1-4.8 4.8v4.4zm-42.1-12.5c0-1.3 1.1-2.4 2.4-2.4h15c1.3 0 2.4 1.1 2.4 2.4v3.4h-19.8z"/><path d="m17.7 40.5v36.8c0 2.6 2.1 4.8 4.8 4.8h54.8c2.6 0 4.8-2.1 4.8-4.8v-36.8zm44.1 20.5c-2.1 2.1-5 2.8-7.7 2.1l-10.2 10.3c-1.6 1.6-4.2 1.6-5.7 0-1.6-1.6-1.6-4.2 0-5.7l10.2-10.2c-.7-2.7 0-5.6 2.1-7.7 2.4-2.4 6-3 8.9-1.6l-5.4 5.4c-.4.4-.4 1 0 1.4l2.7 2.7c.4.4 1 .4 1.4 0l5.4-5.4c1.3 2.7.8 6.3-1.7 8.7z"/></g></svg>