<svg enable-background="new 0 0 100 100" viewBox="0 0 100 100" xmlns="http://www.w3.org/2000/svg"><g fill="#5f6062"><path d="m85.8 45.9c-.1-1.3-1.7-3.4-3.4-5.2l-5.6-15.2c-1.2-3.2-4.2-5.3-7.7-5.3h-25.5c-3.4 0-6.5 2.1-7.7 5.3l-.6 1.7h4.4l.1-.3c.6-1.6 2.1-2.7 3.8-2.7h25.6c1.7 0 3.2 1.1 3.8 2.7l3.2 8.8c.3.7-.3 1.5-1 1.5h-6.5l2.7 7.5c.7-.4 1.4-.7 2.3-.7 2.2 0 4.1 1.9 4.1 4.1 0 1.7-1.1 3.2-2.6 3.8.3.4.5.8.7 1.1 0 0 1 1.7 1 3.2v13.9c.8.9 1.9 1.4 3.2 1.4h1.3c2.4 0 4.3-1.9 4.3-4.3v-4.9z"/><path d="m73.8 56.2c-.1-1.3-1.7-3.4-3.4-5.2l-5.6-15.2c-1.2-3.2-4.2-5.3-7.7-5.3h-25.5c-3.4 0-6.5 2.1-7.7 5.3l-5.5 14.9c-1.7 1.8-3.4 3.9-3.5 5.5v16.4.2 4.6c0 2.4 1.9 4.3 4.3 4.3h1.3c2.4 0 4.3-1.9 4.3-4.3v-2.9h39v2.9c0 2.4 1.9 4.3 4.3 4.3h1.3c2.4 0 4.3-1.9 4.3-4.3v-4.9-16.3zm-49.3-10.2 3.2-8.8c.6-1.6 2.1-2.7 3.8-2.7h25.6c1.7 0 3.2 1.1 3.8 2.7l3.2 8.8c.3.7-.3 1.5-1 1.5h-37.6c-.7 0-1.2-.8-1-1.5zm2.2 16.4c-2.2 0-4.1-1.9-4.1-4.1s1.9-4.1 4.1-4.1 4.1 1.9 4.1 4.1-1.9 4.1-4.1 4.1zm31-4.1c0-2.2 1.9-4.1 4.1-4.1s4.1 1.9 4.1 4.1-1.9 4.1-4.1 4.1-4.1-1.9-4.1-4.1z"/></g></svg>