<svg enable-background="new 0 0 100 100" viewBox="0 0 100 100" xmlns="http://www.w3.org/2000/svg"><g fill="#5f6062"><circle cx="61.8" cy="25.8" r="2.1"/><path d="m66.3 51.9c1.4 0 2.8.2 4.1.4v-29.5c0-2.6-2.1-4.7-4.7-4.7h-31c-2.6 0-4.7 2.1-4.7 4.7v54.6c0 2.6 2.1 4.7 4.7 4.7h16c-2.2-3.1-3.5-6.9-3.5-11-.1-10.6 8.5-19.2 19.1-19.2zm-32.1-28.4c0-.8.6-1.4 1.4-1.4h29.1c.8 0 1.4.6 1.4 1.4v4.8c0 .8-.6 1.4-1.4 1.4h-29.1c-.8 0-1.4-.6-1.4-1.4zm0 16.2v-4.8c0-.8.6-1.4 1.4-1.4h29.1c.8 0 1.4.6 1.4 1.4v4.8c0 .8-.6 1.4-1.4 1.4h-29.1c-.8 0-1.4-.6-1.4-1.4z"/><circle cx="61.8" cy="37.1" r="2.1"/><path d="m66.3 55.2c-8.8 0-15.9 7.1-15.9 15.9s7.1 15.9 15.9 15.9 15.9-7.1 15.9-15.9-7.1-15.9-15.9-15.9zm8.5 15.7c0 .8-.6 1.4-1.4 1.4h-5.7v5.7c0 .8-.6 1.4-1.4 1.4s-1.4-.6-1.4-1.4v-5.7h-5.7c-.8 0-1.4-.6-1.4-1.4s.6-1.4 1.4-1.4h5.7v-5.7c0-.8.6-1.4 1.4-1.4s1.4.6 1.4 1.4v5.7h5.7c.8.1 1.4.7 1.4 1.4z"/></g></svg>