<svg enable-background="new 0 0 100 100" viewBox="0 0 100 100" xmlns="http://www.w3.org/2000/svg"><g fill="#5f6062"><circle cx="50" cy="49.9" r="22.1"/><path d="m80.3 48h-3c-1.1 0-1.9.9-1.9 1.9s.9 1.9 1.9 1.9h3c1.1 0 1.9-.9 1.9-1.9s-.8-1.9-1.9-1.9z"/><path d="m22.7 48h-3c-1.1 0-1.9.9-1.9 1.9s.9 1.9 1.9 1.9h3c1.1 0 1.9-.9 1.9-1.9s-.8-1.9-1.9-1.9z"/><path d="m50 24.6c1.1 0 1.9-.9 1.9-1.9v-3c0-1.1-.9-1.9-1.9-1.9-1.1 0-1.9.9-1.9 1.9v3c0 1 .8 1.9 1.9 1.9z"/><path d="m50 75.3c-1.1 0-1.9.9-1.9 1.9v3c0 1.1.9 1.9 1.9 1.9 1.1 0 1.9-.9 1.9-1.9v-3c0-1.1-.8-1.9-1.9-1.9z"/><path d="m70.6 67.9c-.7-.7-2-.7-2.7 0s-.7 2 0 2.7l2.1 2.1c.7.7 2 .7 2.7 0s.7-2 0-2.7z"/><path d="m29.4 32c.7.7 2 .7 2.7 0s.7-2 0-2.7l-2.1-2.1c-.7-.7-2-.7-2.7 0s-.7 2 0 2.7z"/><path d="m72.8 27.1c-.7-.7-2-.7-2.7 0l-2.1 2.1c-.7.7-.7 2 0 2.7s2 .7 2.7 0l2.1-2.1c.7-.7.7-1.9 0-2.7z"/><path d="m29.4 67.9-2.2 2.1c-.7.7-.7 2 0 2.7s2 .7 2.7 0l2.1-2.1c.7-.7.7-2 0-2.7-.7-.8-1.9-.8-2.6 0z"/></g></svg>