<svg enable-background="new 0 0 54.98 62.17" viewBox="0 0 54.98 62.17" xmlns="http://www.w3.org/2000/svg"><path d="m36.28 5.23a61.54 61.54 0 0 0 18.64 6.91 76.33 76.33 0 0 1 -1.05 16.12 40.11 40.11 0 0 1 -5 13.81c-4.19 7.12-10.47 13.19-21.35 20.1-10.89-6.9-17.17-13-21.36-20.1a47 47 0 0 1 -5-13.82 74.89 74.89 0 0 1 -1-16.11 61.83 61.83 0 0 0 18.54-6.9c3.56-1.89 6.49-3.77 8.79-5.24a89.64 89.64 0 0 0 8.79 5.23zm-11.93 38.1c.42.42.83.21 1.26 0l17.79-20.72a1.93 1.93 0 0 0 -2.92-2.51l-15.07 17.59c-.21.41-.83.41-1.26 0l-6.28-6.28a1.78 1.78 0 0 0 -2.51-.21 1.39 1.39 0 0 0 -.21.21 2 2 0 0 0 0 2.72z" fill="#5f6062"/></svg>