<svg viewBox="2792 -20746.002 43.197 39.83" xmlns="http://www.w3.org/2000/svg"><path d="m2825.991-20721.03c-.042-.751-.988-1.973-1.939-3.02l-3.231-8.838a4.73 4.73 0 0 0 -4.429-3.11h-14.807a4.73 4.73 0 0 0 -4.429 3.11l-3.153 8.674c-.978 1.058-1.965 2.29-2 3.174v9.531a1.175 1.175 0 0 0 0 .138v2.682a2.509 2.509 0 0 0 2.5 2.518h.736a2.509 2.509 0 0 0 2.5-2.518v-1.71h22.535v1.714a2.509 2.509 0 0 0 2.5 2.518h.736a2.51 2.51 0 0 0 2.5-2.518v-2.824zm-28.5-5.924 1.871-5.115a2.36 2.36 0 0 1 2.217-1.555h14.806a2.36 2.36 0 0 1 2.217 1.555l1.871 5.115a.638.638 0 0 1 -.075.579.629.629 0 0 1 -.514.272h-21.795a.628.628 0 0 1 -.536-.275.638.638 0 0 1 -.063-.6zm1.245 9.568a2.43 2.43 0 0 1 -2.375-2.391 2.425 2.425 0 0 1 2.375-2.4 2.425 2.425 0 0 1 2.375 2.4 2.425 2.425 0 0 1 -2.375 2.364zm17.928-2.391a2.431 2.431 0 0 1 2.38-2.4 2.431 2.431 0 0 1 2.375 2.4 2.43 2.43 0 0 1 -2.375 2.391 2.431 2.431 0 0 1 -2.385-2.417z"/><path d="m2835.043-20727.017-11.136-18.469a1.068 1.068 0 0 0 -1.831 0l-11.137 18.469a1.068 1.068 0 0 0 .916 1.62h22.273a1.068 1.068 0 0 0 .916-1.62zm-10.956-2.215a1.086 1.086 0 0 1 -2.172 0v-.027a1.086 1.086 0 0 1 2.172 0zm-1.092-2.477a.916.916 0 0 1 -.916-.861l-.391-6.3a.916.916 0 0 1 .916-.97h.755a.916.916 0 0 1 .916.97l-.391 6.3a.916.916 0 0 1 -.9.861z"/></svg>