<svg enable-background="new 0 0 100 100" viewBox="0 0 100 100" xmlns="http://www.w3.org/2000/svg"><g fill="#5f6062"><path d="m81.4 52.4h-10.9c1.7.7 2.9 2.3 2.9 4.2 0 2.4-2.1 4.5-4.5 4.5s-4.5-2.1-4.5-4.5c0-1.9 1.2-3.5 2.9-4.2h-4.9c-2.9 0-5.3-2.4-5.3-5.3v-2.4h-27.8c-.8 0-1.4-.8-1.1-1.6l3.5-9.6c.6-1.8 2.3-2.9 4.2-2.9h21.2v-4.1c0-.1 0-.2 0-.3h-21.2c-3.7 0-7.1 2.3-8.4 5.8l-6 16.3c-1.8 1.9-3.7 4.3-3.8 6v18 .3 5c0 2.6 2.1 4.7 4.7 4.7h1.4c2.6 0 4.7-2.1 4.7-4.7v-3.2h42.6v3.2c0 2.6 2.1 4.7 4.7 4.7h1.4c2.6 0 4.7-2.1 4.7-4.7v-5.3-18c.2-.5-.1-1.2-.5-1.9zm-50.9 8.7c-2.4 0-4.5-2.1-4.5-4.5s2.1-4.5 4.5-4.5 4.5 2.1 4.5 4.5c0 2.5-2 4.5-4.5 4.5z"/><path d="m85 49.1h-22.6c-1.1 0-2-.9-2-2v-20.6c0-1.1.9-2 2-2h22.6c1.1 0 2 .9 2 2v20.7c-.1 1-.9 1.9-2 1.9zm-8-16.4c-.7-1.2-1.9-2-3.4-2-1.4 0-2.6.8-3.3 2-.3.5-.5 1.1-.5 1.8 0 1.6.9 2.9 2.2 3.5v4.4c0 .5.4 1 1 1h1.2c.5 0 1-.4 1-1v-4.4c1.3-.6 2.2-1.9 2.2-3.5.1-.7-.1-1.3-.4-1.8zm2.8-10.6c0-3.3-2.7-6-6-6h-.2c-3.3 0-6 2.7-6 6h-3.2c0-2.4 1-4.7 2.7-6.5 1.7-1.7 4-2.7 6.5-2.7h.2c2.5 0 4.8.9 6.5 2.7 1.7 1.7 2.7 4 2.7 6.5z"/></g></svg>