<svg enable-background="new 0 0 100 100" viewBox="0 0 100 100" xmlns="http://www.w3.org/2000/svg"><g fill="#5f6062"><path d="m71.3 16.7c-8.9 0-16.2 7.2-16.2 16.2 0 8.9 7.2 16.2 16.2 16.2 8.9 0 16.2-7.2 16.2-16.2-.1-8.9-7.3-16.2-16.2-16.2zm0 2.6c1 0 1.8.8 1.8 1.8s-.8 1.8-1.8 1.8-1.8-.8-1.8-1.8c-.1-1 .7-1.8 1.8-1.8zm-11.2 17.3c-1 0-1.8-.8-1.8-1.8s.8-1.8 1.8-1.8 1.8.8 1.8 1.8-.8 1.8-1.8 1.8zm2.5-8.8c-1 0-1.8-.8-1.8-1.8s.8-1.8 1.8-1.8 1.8.8 1.8 1.8c.1 1-.8 1.8-1.8 1.8zm19.9 8.8c-1 0-1.8-.8-1.8-1.8s.8-1.8 1.8-1.8 1.8.8 1.8 1.8-.8 1.8-1.8 1.8zm-2.6-9.8-5.5 5c.1.2.1.5.1.7 0 1.6-1.3 2.9-2.9 2.9s-2.9-1.3-2.9-2.9 1.3-2.9 2.9-2.9c.3 0 .6 0 .9.1l5.5-5c.6-.5 1.5-.5 2 .1s.5 1.5-.1 2z"/><path d="m80.8 49.9c-2.6 1.4-5.5 2.3-8.6 2.4 1.1.8 1.8 2.2 1.8 3.6 0 2.5-2.1 4.6-4.6 4.6s-4.6-2.1-4.6-4.6c0-1.7 1-3.2 2.4-4-5-1.1-9.2-4-12-8h-26c-.8 0-1.4-.8-1.1-1.6l3.6-9.7c.7-1.8 2.4-3 4.2-3h16.1c.3-1.6.7-3.1 1.3-4.5h-17.4c-3.8 0-7.2 2.4-8.5 5.9l-6.1 16.5c-1.9 2-3.8 4.4-3.8 6.1v18.2.3 5.1c0 2.6 2.1 4.8 4.8 4.8h1.4c2.6 0 4.8-2.1 4.8-4.8v-3.3h43.2v3.3c0 2.6 2.1 4.8 4.8 4.8h1.4c2.6 0 4.8-2.1 4.8-4.8v-5.4-18.2c-.1-1-.9-2.3-1.9-3.7zm-50.3 10.6c-2.5 0-4.6-2.1-4.6-4.6s2.1-4.6 4.6-4.6 4.6 2.1 4.6 4.6c-.1 2.5-2.2 4.6-4.6 4.6z"/></g></svg>