<svg enable-background="new 0 0 100 100" viewBox="0 0 100 100" xmlns="http://www.w3.org/2000/svg"><g fill="#5f6062"><path d="m80.8 69.2c-2.1-3.2-6.6-5.2-13.5-8.1-2.7-1.1-4.6-2-5.9-2.6l-5.6 23.7h26.2c0 .1.6-10.1-1.2-13z"/><path d="m38.2 42.6c.8 6.2 3.4 8.1 3.4 8.1v3.6c2.9 1.1 6.4 2.2 8.5 2.2 2.2 0 5.8-1.1 8.7-2.3v-3.5s2.6-2 3.4-8.1c1.6.5 3.3-2.4 3.4-3.9s-.2-5.5-2.2-5.1c.4-3 .7-5.8.5-7.2-.5-5.3-5.7-10.8-13.7-10.8s-13.2 5.6-13.7 10.8c-.1 1.4.2 4.2.6 7.2-2-.4-2.3 3.6-2.2 5.1 0 1.5 1.7 4.4 3.3 3.9z"/><path d="m38.9 58.6c-1.3.6-3.2 1.4-5.9 2.5-6.8 2.9-11.8 4.9-13.9 8.1-1.9 2.9-1.3 13.1-1.3 13.1h26.7z"/><path d="m53.7 59.3-1.2 2.2c-.2.4-.7.7-1.2.7h-2.6c-.5 0-.9-.3-1.2-.7l-1.2-2.2c-.5-.9.2-2 1.2-2h4.9c1.2.1 1.8 1.2 1.3 2z"/><path d="m53.3 82.3h-6.3l1.3-18.2c0-.5.5-.9 1-.9h1.7c.5 0 .9.4 1 .9z"/></g></svg>