<svg enable-background="new 0 0 100 100" viewBox="0 0 100 100" xmlns="http://www.w3.org/2000/svg"><g opacity=".6"><path d="m82 53.1h-10c1 .8 1.6 2.1 1.6 3.4 0 2.4-2.1 4.5-4.5 4.5s-4.5-2.1-4.5-4.5c0-1.3.6-2.6 1.6-3.4h-2.9c-3.1 0-5.7-2.5-5.7-5.7v-2.8h-28.2c-.8 0-1.4-.8-1.1-1.6l3.5-9.6c.6-1.8 2.3-2.9 4.2-2.9h21.7v-2.2c0-.8.2-1.6.5-2.3h-22.2c-3.8 0-7.1 2.3-8.4 5.9l-6 16.4c-1.9 1.9-3.7 4.3-3.8 6v18 .3 5.1c0 2.6 2.1 4.8 4.8 4.8h1.4c2.6 0 4.8-2.1 4.8-4.8v-3.2h42.8v3.2c0 2.6 2.1 4.8 4.8 4.8h1.4c2.6 0 4.8-2.1 4.8-4.8v-5.3-18c-.3-.5-.4-.9-.6-1.3zm-51.4 7.9c-2.4 0-4.5-2.1-4.5-4.5s2.1-4.5 4.5-4.5 4.5 2.1 4.5 4.5c0 2.5-2.1 4.5-4.5 4.5z"/><circle cx="78.5" cy="41.9" r="1.5"/><circle cx="69.6" cy="31.7" r="1.5"/><path d="m84.7 25.8h-1.4v-6.4c0-.9-.8-1.7-1.7-1.7h-15.2c-.9 0-1.7.8-1.7 1.7v6.4h-1.4c-1.3 0-2.4 1.1-2.4 2.4v19.2c0 1.3 1.1 2.4 2.4 2.4h21.4c1.3 0 2.4-1.1 2.4-2.4v-19.2c0-1.3-1.1-2.4-2.4-2.4zm-18.2 4.2c1-1.7 3.1-2.3 4.9-1.3 1.7 1 2.3 3.1 1.3 4.9-1 1.7-3.1 2.3-4.9 1.3-1.7-1-2.3-3.2-1.3-4.9zm1.9 15.6c-.7-.4-.9-1.3-.4-2l9.7-15.3c.4-.7 1.3-.9 2-.4.7.4.9 1.3.4 2l-9.7 15.3c-.4.7-1.3.9-2 .4zm13.2-2c-1 1.7-3.1 2.3-4.9 1.3-1.7-1-2.3-3.1-1.3-4.9 1-1.7 3.1-2.3 4.9-1.3 1.6 1 2.2 3.2 1.3 4.9z"/></g></svg>