<svg enable-background="new 0 0 100 100" viewBox="0 0 100 100" xmlns="http://www.w3.org/2000/svg"><g fill="#5f6062"><path d="m85.5 48.6-6.5-5.7v1.9c0 2.8-2.2 5-5 5h-21.8c-2.8 0-5-2.2-5-5v-20c0-2.4 1.7-4.4 3.9-4.9 0-.5.1-1 .2-1.5l-.5-.4c-.9-.8-2.3-.8-3.2 0l-34.7 30.6c-1 .9-1.1 2.4-.2 3.5.9 1 2.4 1.1 3.5.2l2.8-2.5v29.8c0 1.5 1.2 2.7 2.7 2.7h55.1c1.5 0 2.7-1.2 2.7-2.7v-29.8l2.9 2.6c.5.4 1 .6 1.6.6.7 0 1.4-.3 1.8-.8.9-1.1.8-2.7-.3-3.6zm-43.1 27.8c0 .7-.6 1.3-1.3 1.3h-10.8c-.7 0-1.3-.6-1.3-1.3v-25.6c0-.7.6-1.3 1.3-1.3h10.8c.7 0 1.3.6 1.3 1.3z"/><path d="m74 46.7h-21.8c-1.1 0-1.9-.9-1.9-1.9v-20c0-1.1.9-1.9 1.9-1.9h21.8c1.1 0 1.9.9 1.9 1.9v20c.1 1.1-.8 1.9-1.9 1.9zm-7.7-16c-.6-1.1-1.9-1.9-3.3-1.9s-2.6.8-3.2 1.9c-.3.5-.5 1.1-.5 1.7 0 1.5.9 2.8 2.2 3.4v4.3c0 .5.4 1 1 1h1.1c.5 0 1-.4 1-1v-4.3c1.3-.6 2.2-1.9 2.2-3.4 0-.5-.2-1.1-.5-1.7zm2.7-10.2c0-3.2-2.6-5.8-5.8-5.8h-.2c-3.2 0-5.8 2.6-5.8 5.8h-3.1c0-2.4.9-4.6 2.6-6.3s3.9-2.6 6.3-2.6h.1c2.4 0 4.6.9 6.3 2.6s2.6 3.9 2.6 6.3z"/></g></svg>