<svg enable-background="new 0 0 100 100" viewBox="0 0 100 100" xmlns="http://www.w3.org/2000/svg"><g fill="#5f6062"><path d="m77.4 28.4h-9.1v-5.9c0-2.6-2.1-4.8-4.8-4.8h-27.1c-2.6 0-4.8 2.1-4.8 4.8v5.9h-9.1c-2.6 0-4.8 2.1-4.8 4.8v22.1c0 2.6 2.1 4.8 4.8 4.8h9.1v17.4c0 2.6 2.1 4.8 4.8 4.8h27.1c2.6 0 4.8-2.1 4.8-4.8v-17.4h9.1c2.6 0 4.8-2.1 4.8-4.8v-22.1c0-2.6-2.1-4.8-4.8-4.8zm-52 12.6c-1.8 0-3.3-1.5-3.3-3.3s1.5-3.3 3.3-3.3 3.3 1.5 3.3 3.3-1.5 3.3-3.3 3.3zm11-18.5h27.1v5.9h-27.1zm27.2 55h-27.2v-17.4h27.1z"/><path d="m57.8 62.8h-15.6c-1.3 0-2.4 1.1-2.4 2.4s1.1 2.4 2.4 2.4h15.6c1.3 0 2.4-1.1 2.4-2.4-.1-1.3-1.1-2.4-2.4-2.4z"/><path d="m57.8 70.3h-15.6c-1.3 0-2.4 1.1-2.4 2.4s1.1 2.4 2.4 2.4h15.6c1.3 0 2.4-1.1 2.4-2.4-.1-1.3-1.1-2.4-2.4-2.4z"/></g></svg>