<svg viewBox="2750 -20746.002 42.197 39.18" xmlns="http://www.w3.org/2000/svg"><path d="m2781.74-20719.938a1.051 1.051 0 0 1 -.792.362 1.046 1.046 0 0 1 -.7-.266l-1.246-1.109v12.967a1.156 1.156 0 0 1 -1.151 1.161h-23.728a1.156 1.156 0 0 1 -1.151-1.161v-12.936l-1.22 1.087a1.05 1.05 0 0 1 -.766.265 1.052 1.052 0 0 1 -.727-.361 1.072 1.072 0 0 1 -.262-.773 1.069 1.069 0 0 1 .357-.733l14.95-13.3a1.048 1.048 0 0 1 1.4 0l6.6 5.872v-3.663a.578.578 0 0 1 .575-.581h2.686a.578.578 0 0 1 .575.581v7.082l4.508 4.012a1.072 1.072 0 0 1 .092 1.494zm-6.973 5.829v-6.663a.3.3 0 0 0 -.3-.3h-6.74a.3.3 0 0 0 -.3.3v6.663a.3.3 0 0 0 .3.3h6.74a.3.3 0 0 0 .299-.3zm-12-6.986h-5.191a.3.3 0 0 0 -.3.3v11.7a.3.3 0 0 0 .3.3h5.191a.3.3 0 0 0 .3-.3v-11.7a.3.3 0 0 0 -.3-.279z" fill="#1778d3"/><path d="m2792.043-20727.017-11.136-18.469a1.068 1.068 0 0 0 -1.831 0l-11.137 18.469a1.068 1.068 0 0 0 .916 1.62h22.273a1.068 1.068 0 0 0 .916-1.62zm-10.956-2.215a1.086 1.086 0 0 1 -2.172 0v-.027a1.086 1.086 0 0 1 2.172 0zm-1.092-2.477a.916.916 0 0 1 -.916-.861l-.391-6.3a.916.916 0 0 1 .916-.97h.755a.916.916 0 0 1 .916.97l-.391 6.3a.916.916 0 0 1 -.9.861z" fill="#d52b1e"/></svg>