<svg height="100" viewBox="0 0 93.437 100" width="93.437" xmlns="http://www.w3.org/2000/svg"><g fill="#767676"><path d="m46.725 50.212a4.46 4.46 0 0 0 -4.46 4.46v28.975a7.285 7.285 0 0 1 -14.569 0 4.527 4.527 0 1 0 -9.054 0 16.353 16.353 0 0 0 32.707 0v-28.886a4.46 4.46 0 0 0 -4.624-4.549z"/><path d="m51.275 7.069v-2.542a4.527 4.527 0 0 0 -9.054 0v2.527a47.172 47.172 0 0 0 -42.221 40.541 23.148 23.148 0 0 1 30.045 2.84 23.147 23.147 0 0 1 33.346 0 23.148 23.148 0 0 1 30.045-2.839 47.172 47.172 0 0 0 -42.161-40.527z"/></g></svg>