<svg enable-background="new 0 0 100 100" viewBox="0 0 100 100" xmlns="http://www.w3.org/2000/svg"><g fill="#5f6062"><path d="m51.2 70.6c0-6.1 2.8-11.6 7.2-15.3v-4.5s2.5-2 3.3-8.1c1.6.5 3.3-2.4 3.3-3.9.1-1.4-.2-5.4-2.1-5 .4-3 .7-5.7.5-7.1-.5-5.2-5.7-10.7-13.6-10.7s-13.1 5.5-13.6 10.7c-.1 1.4.2 4.1.5 7.1-1.9-.4-2.2 3.6-2.2 5 .1 1.5 1.8 4.3 3.4 3.9.8 6.1 3.3 8.1 3.3 8.1l-.1 6.5s-1.6 1-8.4 3.8-11.8 4.8-13.8 8c-1.7 2.8-1.1 12.9-1.1 12.9h37.1c-2.3-3.2-3.7-7.2-3.7-11.4z"/><path d="m71.1 54.1c-9.1 0-16.4 7.4-16.4 16.4-.1 9.1 7.3 16.5 16.4 16.5s16.4-7.4 16.4-16.4c0-9.1-7.4-16.5-16.4-16.5zm6.9 23.7c-.6.6-1.5.6-2 0l-6.3-6.3v-12.3c0-.8.6-1.4 1.4-1.4s1.4.6 1.4 1.4v10.5c0 .4.2.7.4 1l5.1 5.1c.6.6.6 1.5 0 2z"/></g></svg>