<svg enable-background="new 0 0 100 100" viewBox="0 0 100 100" xmlns="http://www.w3.org/2000/svg"><g fill="#5f6062"><path d="m71.9 36.5c2.9-4.3 1.8-6.9-3.3-7.9 1-5-1-7-6-6-1-5-3.6-6.1-7.9-3.3-2.8-4.3-5.7-4.3-8.5 0-4.3-2.9-6.9-1.8-7.9 3.3-5-1-7 1-6 6-5 1-6.1 3.6-3.3 7.9-4.3 2.8-4.3 5.7 0 8.5-2.9 4.3-1.8 6.9 3.3 7.9-.9 4.7.8 6.7 5.1 6.2v23.9c0 1.1 1.3 1.8 2.2 1 2.8-2.3 7.5-6.2 9.5-7.9.5-.4 1.3-.4 1.8 0 1.9 1.7 6.7 5.6 9.5 7.9.9.7 2.2.1 2.2-1v-23.9c0-.1 0-.1.1-.2 5 1 7-1 6-6 5-1 6.1-3.6 3.3-7.9 4.1-2.8 4.1-5.7-.1-8.5zm-21.4 22.6c-10.1 0-18.3-8.2-18.3-18.3s8.2-18.3 18.3-18.3 18.3 8.2 18.3 18.3-8.2 18.3-18.3 18.3z"/><path d="m50.5 25.7c-8.3 0-15.1 6.8-15.1 15.1s6.8 15.1 15.1 15.1 15.1-6.8 15.1-15.1c-.1-8.3-6.8-15.1-15.1-15.1zm7.6 11.9-8.3 8.8c-.3.3-.7.4-1 .4-.4 0-.8-.2-1-.4l-4.9-4.4c-.6-.6-.6-1.4 0-2s1.5-.6 2.1 0l3.7 3.4 7.2-7.8c.6-.6 1.5-.6 2.1 0 .7.5.7 1.4.1 2z"/></g></svg>