<?xml version="1.0" encoding="utf-8"?>
<!-- Generator: Adobe Illustrator 19.2.1, SVG Export Plug-In . SVG Version: 6.00 Build 0)  -->
<svg version="1.1" id="Layer_1" xmlns="http://www.w3.org/2000/svg" xmlns:xlink="http://www.w3.org/1999/xlink" x="0px" y="0px"
	 viewBox="0 0 420 277" style="enable-background:new 0 0 420 277;" xml:space="preserve">
<style type="text/css">
	.st0{display:none;fill:#CCCCCC;}
	.st1{fill:#333333;}
	.st2{font-family:'Helvetica';}
	.st3{font-size:18px;}
	.st4{opacity:0.6;fill:#767676;}
	.st5{fill:none;stroke:#FFFFFF;stroke-width:2;stroke-miterlimit:10;}
	.st6{fill:none;}
	.st7{fill:#767676;}
	.st8{font-family:'MyriadPro-Regular';}
	.st9{font-size:14px;}
</style>
<path class="st0" d="M359.3,110H203.9c-2,0-3.6-1.6-3.6-3.6V52.6c0-2,1.6-3.6,3.6-3.6h155.4c2,0,3.6,1.6,3.6,3.6v53.8
	C362.9,108.4,361.3,110,359.3,110z"/>
<g>
	<g>
		<g>
			<g>
				<g>
					<text transform="matrix(1 0 0 1 43.9998 8.899)" class="st1 st2 st3">Header</text>
				</g>
			</g>
		</g>
	</g>
</g>
<g>
	
		<image style="overflow:visible;opacity:0.3;" width="91" height="90" xlink:href="EE31876EDE705961.png"  transform="matrix(1 0 0 1 324 180)">
	</image>
	<g>
		<path class="st4" d="M398,255h-56c-1.1,0-2-0.9-2-2v-56c0-1.1,0.9-2,2-2h56c1.1,0,2,0.9,2,2v56C400,254.1,399.1,255,398,255z"/>
	</g>
</g>
<g>
	<line class="st5" x1="370" y1="233.7" x2="370" y2="216.3"/>
	<polyline class="st5" points="375.3,221.6 370,216.3 364.7,221.6 	"/>
</g>
<g>
	<rect x="45.5" y="34.5" class="st6" width="274" height="298.5"/>
	<text transform="matrix(1 0 0 1 45.5 44.4399)"><tspan x="0" y="0" class="st7 st8 st9">Lorem ipsum dolor sit amet, metus sagittis </tspan><tspan x="0" y="16.8" class="st7 st8 st9">donec vel risus sed libero, massa vivamus </tspan><tspan x="0" y="33.6" class="st7 st8 st9">tellus ante cras a sem, nec luctus placerat </tspan><tspan x="0" y="50.4" class="st7 st8 st9">aliquet in massa, id congue in nulla commodo. </tspan><tspan x="0" y="67.2" class="st7 st8 st9">Et massa suspendisse maecenas, erat curabitur </tspan><tspan x="0" y="84" class="st7 st8 st9">ante sit tellus, quisque natoque. Facilisis mattis </tspan><tspan x="0" y="100.8" class="st7 st8 st9">consectetuer non fames, nunc sodales quis </tspan><tspan x="0" y="117.6" class="st7 st8 st9">quam nec aenean sit, cras non, laboris imperdi</tspan><tspan x="269.3" y="117.6" class="st7 st8 st9">-</tspan><tspan x="0" y="134.4" class="st7 st8 st9">et volutpat faucibus. Dolor augue nihil ridicu</tspan><tspan x="259.1" y="134.4" class="st7 st8 st9">-</tspan><tspan x="0" y="151.2" class="st7 st8 st9">lus, ultrices netus ut, vitae suscipit fermentum </tspan><tspan x="0" y="168" class="st7 st8 st9">diam felis sociosqu, velit tellus eget et pede. </tspan><tspan x="0" y="184.8" class="st7 st8 st9">Porta eget a nunc ullamcorper laoreet. Consec</tspan><tspan x="268.8" y="184.8" class="st7 st8 st9">-</tspan><tspan x="0" y="201.6" class="st7 st8 st9">tetuer dui curabitur in.</tspan><tspan x="0" y="218.4" class="st7 st8 st9">Metus turpis pretium, vehicula ullamcorper </tspan><tspan x="0" y="235.2" class="st7 st8 st9">sed tempor, varius ligula blandit accumsan </tspan><tspan x="0" y="252" class="st7 st8 st9">venenatis. A nulla lobortis, laoreet vitae pede, </tspan><tspan x="0" y="268.8" class="st7 st8 st9">suspendisse luctus a dolor scelerisque prae</tspan><tspan x="250.2" y="268.8" class="st7 st8 st9">-</tspan><tspan x="0" y="285.6" class="st7 st8 st9">sent, quisque inceptos quis nam semper, sus</tspan><tspan x="259" y="285.6" class="st7 st8 st9">-</tspan></text>
</g>
</svg>
