<?xml version="1.0" encoding="UTF-8" standalone="no"?>
<svg width="420px" height="277px" viewBox="0 0 420 277" version="1.1" xmlns="http://www.w3.org/2000/svg" xmlns:xlink="http://www.w3.org/1999/xlink">
    <!-- Generator: Sketch 40.3 (33839) - http://www.bohemiancoding.com/sketch -->
    <title>Dropdown-one-value-do</title>
    <desc>Created with Sketch.</desc>
    <defs>
        <rect id="path-1" x="0" y="0" width="328" height="60" rx="4"></rect>
        <mask id="mask-2" maskContentUnits="userSpaceOnUse" maskUnits="objectBoundingBox" x="-2" y="-2" width="332" height="64">
            <rect x="-2" y="-2" width="332" height="64" fill="white"></rect>
            <use xlink:href="#path-1" fill="black"></use>
        </mask>
    </defs>
    <g id="Page-1" stroke="none" stroke-width="1" fill="none" fill-rule="evenodd">
        <g id="Dropdown-one-value-do">
            <g id="Group-2" transform="translate(46.000000, 109.000000)">
                <use id="Rectangle" stroke="#CCCCCC" mask="url(#mask-2)" stroke-width="4" xlink:href="#path-1"></use>
                <g id="Group" transform="translate(19.000000, 12.000000)" font-family="Helvetica" font-weight="normal">
                    <text id="Label-Text" fill="#666666" font-size="10">
                        <tspan x="0" y="10">Label Text</tspan>
                    </text>
                    <text id="Value-One" fill="#333333" font-size="18">
                        <tspan x="0" y="33">Value One </tspan>
                    </text>
                </g>
                <path d="M291.3,26.9 L299.6,35.2 C299.8,35.4 300.2,35.4 300.4,35.2 L308.7,26.9 C309.1,26.5 309.1,25.8 308.7,25.4 L308.6,25.3 C308.2,24.9 307.5,24.9 307.1,25.3 L300.4,32 C300.2,32.2 299.8,32.2 299.6,32 L292.9,25.3 C292.5,24.9 291.8,24.9 291.4,25.3 L291.3,25.4 C290.9,25.7 290.9,26.4 291.3,26.9" id="Shape" fill="#CCCCCC" opacity="0.3"></path>
            </g>
        </g>
    </g>
</svg>