<?xml version="1.0" encoding="utf-8"?>
<!-- Generator: Adobe Illustrator 19.2.1, SVG Export Plug-In . SVG Version: 6.00 Build 0)  -->
<svg version="1.1" id="Layer_1" xmlns="http://www.w3.org/2000/svg" xmlns:xlink="http://www.w3.org/1999/xlink" x="0px" y="0px"
	 viewBox="0 0 420 277" style="enable-background:new 0 0 420 277;" xml:space="preserve">
<style type="text/css">
	.st0{display:none;fill:#CCCCCC;}
	.st1{fill:none;stroke:#CCCCCC;stroke-width:1.3023;stroke-miterlimit:10;}
	.st2{fill:#333333;}
	.st3{font-family:'Helvetica';}
	.st4{font-size:18px;}
	.st5{clip-path:url(#SVGID_2_);}
	.st6{clip-path:url(#SVGID_4_);fill:#5F6062;}
	.st7{clip-path:url(#SVGID_6_);}
	.st8{clip-path:url(#SVGID_8_);fill:#5F6062;}
</style>
<path class="st0" d="M359.3,110H203.9c-2,0-3.6-1.6-3.6-3.6V52.6c0-2,1.6-3.6,3.6-3.6h155.4c2,0,3.6,1.6,3.6,3.6v53.8
	C362.9,108.4,361.3,110,359.3,110z"/>
<g>
	<path class="st1" d="M368.8,110H51.3c-2,0-3.6-1.6-3.6-3.6V52.6c0-2,1.6-3.6,3.6-3.6h317.4c2,0,3.6,1.6,3.6,3.6v53.8
		C372.3,108.4,370.7,110,368.8,110z"/>
	<text transform="matrix(1 0 0 1 73.9998 82.899)" class="st2 st3 st4">Header 1</text>
	<g>
		<g>
			<g id="icon-arrow-down-hover_x2F_on-state">
				<defs>
					<rect id="SVGID_1_" x="328.4" y="73.1" width="18" height="10.4"/>
				</defs>
				<clipPath id="SVGID_2_">
					<use xlink:href="#SVGID_1_"  style="overflow:visible;"/>
				</clipPath>
				<g class="st5">
					<g>
						<defs>
							<rect id="SVGID_3_" x="328.4" y="73.1" width="18" height="10.4"/>
						</defs>
						<clipPath id="SVGID_4_">
							<use xlink:href="#SVGID_3_"  style="overflow:visible;"/>
						</clipPath>
						<path class="st6" d="M328.7,75.1l8.3,8.3c0.2,0.2,0.6,0.2,0.8,0l8.3-8.3c0.4-0.4,0.4-1.1,0-1.5l-0.1-0.1
							c-0.4-0.4-1.1-0.4-1.5,0l-6.7,6.7c-0.2,0.2-0.6,0.2-0.8,0l-6.7-6.7c-0.4-0.4-1.1-0.4-1.5,0l-0.1,0.1
							C328.3,73.9,328.3,74.6,328.7,75.1"/>
					</g>
				</g>
			</g>
		</g>
		<g>
			<path class="st1" d="M368.8,171H51.3c-2,0-3.6-1.6-3.6-3.6v-53.8c0-2,1.6-3.6,3.6-3.6h317.4c2,0,3.6,1.6,3.6,3.6v53.8
				C372.3,169.4,370.7,171,368.8,171z"/>
			<text transform="matrix(1 0 0 1 73.9998 143.899)" class="st2 st3 st4">Header 2</text>
			<g>
				<g>
					<g id="icon-arrow-down-hover_x2F_on-state_1_">
						<defs>
							<rect id="SVGID_5_" x="332.2" y="130.3" width="10.4" height="18"/>
						</defs>
						<clipPath id="SVGID_6_">
							<use xlink:href="#SVGID_5_"  style="overflow:visible;"/>
						</clipPath>
						<g class="st7">
							<g>
								<defs>
									<rect id="SVGID_7_" x="332.2" y="130.3" width="10.4" height="18"/>
								</defs>
								<clipPath id="SVGID_8_">
									<use xlink:href="#SVGID_7_"  style="overflow:visible;"/>
								</clipPath>
								<path class="st8" d="M340.7,130.6l-8.3,8.3c-0.2,0.2-0.2,0.6,0,0.8l8.3,8.3c0.4,0.4,1.1,0.4,1.5,0l0.1-0.1
									c0.4-0.4,0.4-1.1,0-1.5l-6.7-6.7c-0.2-0.2-0.2-0.6,0-0.8l6.7-6.7c0.4-0.4,0.4-1.1,0-1.5l-0.1-0.1
									C341.8,130.2,341.1,130.2,340.7,130.6"/>
							</g>
						</g>
					</g>
				</g>
				<g>
					<path class="st1" d="M368.8,232H51.3c-2,0-3.6-1.6-3.6-3.6v-53.8c0-2,1.6-3.6,3.6-3.6h317.4c2,0,3.6,1.6,3.6,3.6v53.8
						C372.3,230.4,370.7,232,368.8,232z"/>
					<text transform="matrix(1 0 0 1 73.9998 204.899)" class="st2 st3 st4">Header 3</text>
				</g>
			</g>
		</g>
	</g>
</g>
</svg>
