<?xml version="1.0" encoding="utf-8"?>
<!-- Generator: Adobe Illustrator 19.2.1, SVG Export Plug-In . SVG Version: 6.00 Build 0)  -->
<svg version="1.1" id="Layer_1" xmlns="http://www.w3.org/2000/svg" xmlns:xlink="http://www.w3.org/1999/xlink" x="0px" y="0px"
	 viewBox="0 0 420 383" style="enable-background:new 0 0 420 383;" xml:space="preserve">
<style type="text/css">
	.st0{display:none;fill:#CCCCCC;}
	.st1{fill:none;stroke:#CCCCCC;stroke-width:1.3023;stroke-miterlimit:10;}
	.st2{fill:#333333;}
	.st3{font-family:'Helvetica';}
	.st4{font-size:18px;}
	.st5{clip-path:url(#SVGID_2_);}
	.st6{clip-path:url(#SVGID_4_);fill:#5F6062;}
	.st7{clip-path:url(#SVGID_6_);}
	.st8{clip-path:url(#SVGID_8_);fill:#5F6062;}
	.st9{clip-path:url(#SVGID_10_);}
	.st10{clip-path:url(#SVGID_12_);fill:#5F6062;}
	.st11{fill:none;}
	.st12{fill:#5D5D5D;}
	.st13{font-size:14px;}
</style>
<path class="st0" d="M359.3,110H203.9c-2,0-3.6-1.6-3.6-3.6V52.6c0-2,1.6-3.6,3.6-3.6h155.4c2,0,3.6,1.6,3.6,3.6v53.8
	C362.9,108.4,361.3,110,359.3,110z"/>
<g>
	<path class="st1" d="M368.8,210H51.3c-2,0-3.6-1.6-3.6-3.6V52.6c0-2,1.6-3.6,3.6-3.6h317.4c2,0,3.6,1.6,3.6,3.6v153.8
		C372.3,208.4,370.7,210,368.8,210z"/>
	<text transform="matrix(1 0 0 1 73.9998 82.899)" class="st2 st3 st4">Header 1</text>
	<g>
		<g>
			<g>
				<g>
					<defs>
						<rect id="SVGID_1_" x="328.4" y="73.1" width="18" height="10.4"/>
					</defs>
					<clipPath id="SVGID_2_">
						<use xlink:href="#SVGID_1_"  style="overflow:visible;"/>
					</clipPath>
					<g id="icon-arrow-down-hover_x2F_on-state" class="st5">
						<g>
							<g>
								<defs>
									<rect id="SVGID_3_" x="328.4" y="73.1" width="18" height="10.4"/>
								</defs>
								<clipPath id="SVGID_4_">
									<use xlink:href="#SVGID_3_"  style="overflow:visible;"/>
								</clipPath>
								<path class="st6" d="M328.7,75.1l8.3,8.3c0.2,0.2,0.6,0.2,0.8,0l8.3-8.3c0.4-0.4,0.4-1.1,0-1.5l-0.1-0.1
									c-0.4-0.4-1.1-0.4-1.5,0l-6.7,6.7c-0.2,0.2-0.6,0.2-0.8,0l-6.7-6.7c-0.4-0.4-1.1-0.4-1.5,0l-0.1,0.1
									C328.3,73.9,328.3,74.6,328.7,75.1"/>
							</g>
						</g>
					</g>
				</g>
				<g>
					<path class="st1" d="M368.8,271H51.3c-2,0-3.6-1.6-3.6-3.6v-53.8c0-2,1.6-3.6,3.6-3.6h317.4c2,0,3.6,1.6,3.6,3.6v53.8
						C372.3,269.4,370.7,271,368.8,271z"/>
					<text transform="matrix(1 0 0 1 73.9998 243.899)" class="st2 st3 st4">Header 2</text>
					<g>
						<g>
							<g>
								<g>
									<defs>
										<rect id="SVGID_5_" x="332.2" y="230.3" width="10.4" height="18"/>
									</defs>
									<clipPath id="SVGID_6_">
										<use xlink:href="#SVGID_5_"  style="overflow:visible;"/>
									</clipPath>
									<g id="icon-arrow-down-hover_x2F_on-state_1_" class="st7">
										<g>
											<g>
												<defs>
													<rect id="SVGID_7_" x="332.2" y="230.3" width="10.4" height="18"/>
												</defs>
												<clipPath id="SVGID_8_">
													<use xlink:href="#SVGID_7_"  style="overflow:visible;"/>
												</clipPath>
												<path class="st8" d="M334.2,248l8.3-8.3c0.2-0.2,0.2-0.6,0-0.8l-8.3-8.3c-0.4-0.4-1.1-0.4-1.5,0l-0.1,0.1
													c-0.4,0.4-0.4,1.1,0,1.5l6.7,6.7c0.2,0.2,0.2,0.6,0,0.8l-6.7,6.7c-0.4,0.4-0.4,1.1,0,1.5l0.1,0.1
													C333,248.4,333.7,248.4,334.2,248"/>
											</g>
										</g>
									</g>
								</g>
								<g>
									<path class="st1" d="M368.8,332H51.3c-2,0-3.6-1.6-3.6-3.6v-53.8c0-2,1.6-3.6,3.6-3.6h317.4c2,0,3.6,1.6,3.6,3.6v53.8
										C372.3,330.4,370.7,332,368.8,332z"/>
									<text transform="matrix(1 0 0 1 73.9998 304.899)" class="st2 st3 st4">Header 3</text>
									<g>
										<g>
											<g>
												<g>
													<defs>
														<rect id="SVGID_9_" x="332.2" y="291.3" width="10.4" height="18"/>
													</defs>
													<clipPath id="SVGID_10_">
														<use xlink:href="#SVGID_9_"  style="overflow:visible;"/>
													</clipPath>
													<g id="icon-arrow-down-hover_x2F_on-state_2_" class="st9">
														<g>
															<g>
																<defs>
																	<rect id="SVGID_11_" x="332.2" y="291.3" width="10.4" height="18"/>
																</defs>
																<clipPath id="SVGID_12_">
																	<use xlink:href="#SVGID_11_"  style="overflow:visible;"/>
																</clipPath>
																<path class="st10" d="M334.2,309l8.3-8.3c0.2-0.2,0.2-0.6,0-0.8l-8.3-8.3c-0.4-0.4-1.1-0.4-1.5,0l-0.1,0.1
																	c-0.4,0.4-0.4,1.1,0,1.5l6.7,6.7c0.2,0.2,0.2,0.6,0,0.8l-6.7,6.7c-0.4,0.4-0.4,1.1,0,1.5l0.1,0.1
																	C333,309.4,333.7,309.4,334.2,309"/>
															</g>
														</g>
													</g>
												</g>
											</g>
										</g>
									</g>
								</g>
							</g>
						</g>
					</g>
				</g>
			</g>
		</g>
	</g>
</g>
<rect x="75" y="105" class="st11" width="271" height="81"/>
<text transform="matrix(1 0 0 1 75 115.0659)"><tspan x="0" y="0" class="st12 st3 st13">Lorem ipsum dolor sit amet, consectetur </tspan><tspan x="0" y="16.8" class="st12 st3 st13">adipiscing elit. Aliquam a ex bibendum, </tspan><tspan x="0" y="33.6" class="st12 st3 st13">lobortis purus vitae, commodo lectus. Nam </tspan><tspan x="0" y="50.4" class="st12 st3 st13">dignissim est vitae dolor tempus, sed dapi</tspan><tspan x="259.9" y="50.4" class="st12 st3 st13">-</tspan><tspan x="0" y="67.2" class="st12 st3 st13">bus tortor consectetur.</tspan></text>
</svg>
