<?xml version="1.0" encoding="utf-8"?>
<!-- Generator: Adobe Illustrator 19.2.1, SVG Export Plug-In . SVG Version: 6.00 Build 0)  -->
<svg version="1.1" id="Layer_1" xmlns="http://www.w3.org/2000/svg" xmlns:xlink="http://www.w3.org/1999/xlink" x="0px" y="0px"
	 viewBox="0 0 420 315" style="enable-background:new 0 0 420 315;" xml:space="preserve">
<style type="text/css">
	.st0{opacity:0.2;fill:#CCCCCC;enable-background:new    ;}
	.st1{fill:#CCCCCC;}
	.st2{fill:#FFFFFF;}
	.st3{fill:#D8D9D8;}
	.st4{fill:#000333;}
	.st5{font-family:'Helvetica';}
	.st6{font-size:16px;}
	.st7{fill:#333333;}
	.st8{font-size:10px;}
	.st9{fill:none;stroke:#000333;stroke-linecap:round;stroke-linejoin:round;stroke-miterlimit:10;}
</style>
<rect id="Rectangle-4-Copy" x="153" y="32" class="st0" width="263" height="80"/>
<polygon id="Rectangle-4-Copy-3" class="st0" points="3,30.5 148,30.5 148,95.5 3,95.5 "/>
<g id="path-1_1_">
	<rect x="2.5" y="1.5" class="st1" width="146" height="31"/>
	<path class="st2" d="M148,2v30H3V2H148 M149,1h-1H3H2v1v30v1h1h145h1v-1V2V1L149,1z"/>
</g>
<polygon id="Rectangle-4-Copy-3_1_" class="st0" points="3,100 148,100 148,317 3,317 "/>
<rect id="Rectangle-4-Copy-2" x="153" y="122.5" class="st0" width="263" height="60"/>
<rect id="Rectangle-4-Copy-4" x="153" y="193" class="st0" width="263" height="102.5"/>
<g id="path-1_2_">
	<rect x="152.5" y="1.5" class="st1" width="264" height="31"/>
	<path class="st2" d="M416,2v30H153V2H416 M417,1h-1H153h-1v1v30v1h1h263h1v-1V2V1L417,1z"/>
</g>
<rect id="Rectangle-4-Copy-5" x="18" y="42" class="st3" width="115" height="20"/>
<rect id="Rectangle-4-Copy-5_5_" x="163.3" y="41.8" class="st3" width="242.6" height="10.5"/>
<rect id="Rectangle-4-Copy-5_6_" x="163.3" y="56.4" class="st3" width="242.6" height="10.5"/>
<rect id="Rectangle-4-Copy-5_7_" x="163.3" y="71" class="st3" width="242.6" height="10.5"/>
<rect id="Rectangle-4-Copy-5_8_" x="163.3" y="85.5" class="st3" width="242.6" height="10.5"/>
<rect id="Rectangle-4-Copy-5_12_" x="163.3" y="133.1" class="st3" width="242.6" height="10.5"/>
<rect id="Rectangle-4-Copy-5_11_" x="163.3" y="147.7" class="st3" width="242.6" height="10.5"/>
<rect id="Rectangle-4-Copy-5_10_" x="163.3" y="162.3" class="st3" width="242.6" height="10.5"/>
<rect id="Rectangle-4-Copy-5_14_" x="163.3" y="203.1" class="st3" width="242.6" height="10.5"/>
<rect id="Rectangle-4-Copy-5_13_" x="163.3" y="217.5" class="st3" width="242.6" height="10.5"/>
<rect id="Rectangle-4-Copy-5_9_" x="163.3" y="232" class="st3" width="242.6" height="10.5"/>
<rect id="Rectangle-4-Copy-5_17_" x="163.3" y="246.4" class="st3" width="242.6" height="10.5"/>
<rect id="Rectangle-4-Copy-5_16_" x="163.3" y="260.8" class="st3" width="242.6" height="10.5"/>
<rect id="Rectangle-4-Copy-5_15_" x="163.3" y="275.2" class="st3" width="242.6" height="10.5"/>
<rect id="Rectangle-4-Copy-6" x="18" y="65" class="st3" width="115" height="20"/>
<text transform="matrix(1 0 0 1 17 22)" class="st4 st5 st6">Filter By</text>
<text transform="matrix(1 0 0 1 162.7069 22)" class="st4 st5 st6">## results for ####</text>
<text transform="matrix(1 0 0 1 48 56)" class="st7 st5 st8">Category (##)</text>
<text transform="matrix(1 0 0 1 48 79)" class="st7 st5 st8">Category (##)</text>
<rect x="23.3" y="46.9" class="st2" width="10.1" height="10.1"/>
<rect x="23.3" y="69.9" class="st2" width="10.1" height="10.1"/>
<rect id="Rectangle-4-Copy-5_1_" x="18" y="126.5" class="st3" width="115" height="20"/>
<rect id="Rectangle-4-Copy-6_1_" x="18" y="149.5" class="st3" width="115" height="20"/>
<text transform="matrix(1 0 0 1 48 140.5204)" class="st7 st5 st8">Category (##)</text>
<text transform="matrix(1 0 0 1 18 118.7192)" class="st7 st5 st8">Title</text>
<text transform="matrix(1 0 0 1 48 163.5204)" class="st7 st5 st8">Category (##)</text>
<rect x="23.3" y="131.5" class="st2" width="10.1" height="10.1"/>
<rect x="23.3" y="154.5" class="st2" width="10.1" height="10.1"/>
<rect id="Rectangle-4-Copy-5_2_" x="18" y="172.5" class="st3" width="115" height="20"/>
<rect id="Rectangle-4-Copy-6_2_" x="18" y="195.5" class="st3" width="115" height="20"/>
<text transform="matrix(1 0 0 1 48 186.5204)" class="st7 st5 st8">Category (##)</text>
<text transform="matrix(1 0 0 1 48 209.5204)" class="st7 st5 st8">Category (##)</text>
<rect x="23.3" y="177.5" class="st2" width="10.1" height="10.1"/>
<rect x="23.3" y="200.5" class="st2" width="10.1" height="10.1"/>
<rect id="Rectangle-4-Copy-5_4_" x="18" y="218.5" class="st3" width="115" height="20"/>
<rect id="Rectangle-4-Copy-6_4_" x="18" y="241.5" class="st3" width="115" height="20"/>
<text transform="matrix(1 0 0 1 48 232.4998)" class="st7 st5 st8">Category (##)</text>
<text transform="matrix(1 0 0 1 48 255.4998)" class="st7 st5 st8">Category (##)</text>
<rect x="23.3" y="223.4" class="st2" width="10.1" height="10.1"/>
<rect x="23.3" y="246.4" class="st2" width="10.1" height="10.1"/>
<rect id="Rectangle-4-Copy-5_3_" x="18" y="264.5" class="st3" width="115" height="20"/>
<rect id="Rectangle-4-Copy-6_3_" x="18" y="287.5" class="st3" width="115" height="20"/>
<text transform="matrix(1 0 0 1 48 278.4998)" class="st7 st5 st8">Category (##)</text>
<text transform="matrix(1 0 0 1 48 301.4998)" class="st7 st5 st8">Category (##)</text>
<rect x="23.3" y="269.4" class="st2" width="10.1" height="10.1"/>
<rect x="23.3" y="292.4" class="st2" width="10.1" height="10.1"/>
<polyline class="st9" points="24.8,52 27.3,54.4 31.9,48.6 "/>
<polyline class="st9" points="24.8,75.5 27.2,77.9 31.9,72.1 "/>
</svg>
