<?xml version="1.0" encoding="utf-8"?>
<!-- Generator: Adobe Illustrator 19.2.1, SVG Export Plug-In . SVG Version: 6.00 Build 0)  -->
<svg version="1.1" id="Layer_1" xmlns="http://www.w3.org/2000/svg" xmlns:xlink="http://www.w3.org/1999/xlink" x="0px" y="0px"
	 viewBox="0 0 420 190" style="enable-background:new 0 0 420 190;" xml:space="preserve">
<style type="text/css">
	.st0{clip-path:url(#SVGID_8_);}
	.st1{clip-path:url(#SVGID_10_);fill:#D8D9D8;}
	.st2{clip-path:url(#SVGID_14_);}
	.st3{fill:#D8D9D8;}
	.st4{fill:#434343;}
	.st5{font-family:'Helvetica';}
	.st6{font-size:16px;}
	.st7{fill:#979797;}
	.st8{fill:none;stroke:#333333;stroke-width:2;stroke-miterlimit:10;}
</style>
<g>
	<g>
		<g>
			<defs>
				<rect id="SVGID_1_" x="10" width="420" height="315"/>
			</defs>
			<clipPath id="SVGID_2_">
				<use xlink:href="#SVGID_1_"  style="overflow:visible;"/>
			</clipPath>
		</g>
	</g>
</g>
<g>
	<g>
		<defs>
			<rect id="SVGID_3_" x="10" width="420" height="315"/>
		</defs>
		<clipPath id="SVGID_4_">
			<use xlink:href="#SVGID_3_"  style="overflow:visible;"/>
		</clipPath>
	</g>
</g>
<g>
	<g>
		<defs>
			<rect id="SVGID_5_" x="10" width="420" height="315"/>
		</defs>
		<clipPath id="SVGID_6_">
			<use xlink:href="#SVGID_5_"  style="overflow:visible;"/>
		</clipPath>
	</g>
</g>
<g>
	<defs>
		<rect id="SVGID_7_" x="113" y="70" width="270" height="21"/>
	</defs>
	<clipPath id="SVGID_8_">
		<use xlink:href="#SVGID_7_"  style="overflow:visible;"/>
	</clipPath>
	<g class="st0">
		<defs>
			<rect id="SVGID_9_" x="10" width="420" height="315"/>
		</defs>
		<clipPath id="SVGID_10_">
			<use xlink:href="#SVGID_9_"  style="overflow:visible;"/>
		</clipPath>
		<rect x="108" y="65" class="st1" width="280" height="31"/>
	</g>
</g>
<g>
	<g>
		<g>
			<defs>
				<rect id="SVGID_11_" x="10" width="420" height="315"/>
			</defs>
			<clipPath id="SVGID_12_">
				<use xlink:href="#SVGID_11_"  style="overflow:visible;"/>
			</clipPath>
		</g>
	</g>
</g>
<g>
	<defs>
		<rect id="SVGID_13_" x="113" y="104.5" width="270" height="21"/>
	</defs>
	<clipPath id="SVGID_14_">
		<use xlink:href="#SVGID_13_"  style="overflow:visible;"/>
	</clipPath>
	<g class="st2">
		<rect x="108" y="99.5" class="st3" width="280" height="31"/>
	</g>
</g>
<g>
	<text transform="matrix(1 0 0 1 113.0001 56.75)" class="st4 st5 st6">Label</text>
</g>
<g>
	<path class="st7" d="M100.5,107v16h-16v-16H100.5 M102.5,105h-20v20h20V105L102.5,105z"/>
</g>
<g>
	<path class="st7" d="M100.5,72.2v16h-16v-16H100.5 M102.5,70.2h-20v20h20V70.2L102.5,70.2z"/>
</g>
<polyline class="st8" points="86.2,80.5 89.9,85.1 99.1,73.6 "/>
</svg>
