<?xml version="1.0" encoding="utf-8"?>
<!-- Generator: Adobe Illustrator 19.2.1, SVG Export Plug-In . SVG Version: 6.00 Build 0)  -->
<svg version="1.1" id="Layer_1" xmlns="http://www.w3.org/2000/svg" xmlns:xlink="http://www.w3.org/1999/xlink" x="0px" y="0px"
	 viewBox="0 0 420 290" style="enable-background:new 0 0 420 290;" xml:space="preserve">
<style type="text/css">
	.st0{fill:#CCCCCC;}
	.st1{fill:#333333;}
	.st2{font-family:'Helvetica';}
	.st3{font-size:18px;}
	.st4{clip-path:url(#SVGID_2_);}
	.st5{clip-path:url(#SVGID_4_);fill:#5F6062;}
</style>
<g>
	<g>
		<path class="st0" d="M368.7,43c2,0,3.6,1.6,3.6,3.6v47.8c0,2-1.6,3.6-3.5,3.6H51.3c-2,0-3.6-1.6-3.6-3.6V46.6c0-2,1.6-3.6,3.6-3.6
			H368.7 M368.7,41H51.3c-3.1,0-5.6,2.5-5.6,5.6v47.8c0,3.1,2.5,5.6,5.6,5.6h317.5c3,0,5.5-2.5,5.5-5.6V46.6
			C374.3,43.5,371.8,41,368.7,41L368.7,41z"/>
	</g>
	<text transform="matrix(1 0 0 1 73.9998 76.899)" class="st1 st2 st3">Menu</text>
	<g>
		<g>
			<g>
				<defs>
					<rect id="SVGID_1_" x="328.4" y="67.1" width="18" height="10.4"/>
				</defs>
				<clipPath id="SVGID_2_">
					<use xlink:href="#SVGID_1_"  style="overflow:visible;"/>
				</clipPath>
				<g id="icon-arrow-down-hover_x2F_on-state" class="st4">
					<g>
						<g>
							<defs>
								<rect id="SVGID_3_" x="328.4" y="67.1" width="18" height="10.4"/>
							</defs>
							<clipPath id="SVGID_4_">
								<use xlink:href="#SVGID_3_"  style="overflow:visible;"/>
							</clipPath>
							<path class="st5" d="M328.7,69.1l8.3,8.3c0.2,0.2,0.6,0.2,0.8,0l8.3-8.3c0.4-0.4,0.4-1.1,0-1.5l-0.1-0.1
								c-0.4-0.4-1.1-0.4-1.5,0l-6.7,6.7c-0.2,0.2-0.6,0.2-0.8,0l-6.7-6.7c-0.4-0.4-1.1-0.4-1.5,0l-0.1,0.1
								C328.3,67.9,328.3,68.6,328.7,69.1"/>
						</g>
					</g>
				</g>
			</g>
			<g>
				<text transform="matrix(1 0 0 1 73.9998 159.899)" class="st1 st2 st3">Item 1</text>
				<g>
					<g>
						<g>
							<g>
								<g>
									<path class="st0" d="M368.7,115c2,0,3.6,1.6,3.6,3.6v122.8c0,2-1.6,3.6-3.5,3.6H51.3c-2,0-3.6-1.6-3.6-3.6V118.6
										c0-2,1.6-3.6,3.6-3.6H368.7 M368.7,113H51.3c-3.1,0-5.6,2.5-5.6,5.6v122.8c0,3.1,2.5,5.6,5.6,5.6h317.5
										c3,0,5.5-2.5,5.5-5.6V118.6C374.3,115.5,371.8,113,368.7,113L368.7,113z"/>
								</g>
								<text transform="matrix(1 0 0 1 73.9998 213.899)" class="st1 st2 st3">Item 2</text>
							</g>
						</g>
					</g>
				</g>
			</g>
		</g>
	</g>
</g>
</svg>
