<?xml version="1.0" encoding="utf-8"?>
<!-- Generator: Adobe Illustrator 19.2.1, SVG Export Plug-In . SVG Version: 6.00 Build 0)  -->
<svg version="1.1" id="Layer_1" xmlns="http://www.w3.org/2000/svg" xmlns:xlink="http://www.w3.org/1999/xlink" x="0px" y="0px"
	 viewBox="0 0 420 220" style="enable-background:new 0 0 420 220;" xml:space="preserve">
<style type="text/css">
	.st0{fill:#CCCCCC;}
	.st1{fill:#333333;}
	.st2{font-family:'Helvetica';}
	.st3{font-size:18px;}
	.st4{clip-path:url(#SVGID_2_);}
	.st5{clip-path:url(#SVGID_4_);fill:#5F6062;}
	.st6{clip-path:url(#SVGID_6_);}
	.st7{clip-path:url(#SVGID_8_);fill:#5F6062;}
</style>
<g>
	<g>
		<path class="st0" d="M324.6,52c1.1,0,2,0.9,2,2v49.4c0,2-1.6,3.6-3.5,3.6H54c-1.1,0-2-0.9-2-2V54c0-1.1,0.9-2,2-2H324.6 M324.6,50
			H54c-2.2,0-4,1.8-4,4v51c0,2.2,1.8,4,4,4h269.1c3,0,5.5-2.5,5.5-5.6V54C328.6,51.8,326.8,50,324.6,50L324.6,50z"/>
	</g>
	<text transform="matrix(1 0 0 1 78.2998 85.899)" class="st1 st2 st3">Menu</text>
	<g>
		<g>
			<g>
				<g>
					<g>
						<defs>
							<path id="SVGID_1_" d="M300.7,78.1v6.4c0,1.1-0.9,2-2,2h-14c-1.1,0-2-0.9-2-2v-6.4c0-1.1,0.9-2,2-2h14
								C299.8,76.1,300.7,77,300.7,78.1z"/>
						</defs>
						<clipPath id="SVGID_2_">
							<use xlink:href="#SVGID_1_"  style="overflow:visible;"/>
						</clipPath>
						<g class="st4">
							<g>
								<g id="icon-arrow-down-hover_x2F_on-state">
									<g>
										<g>
											<defs>
												<rect id="SVGID_3_" x="282.7" y="76.1" width="18" height="10.4"/>
											</defs>
											<clipPath id="SVGID_4_">
												<use xlink:href="#SVGID_3_"  style="overflow:visible;"/>
											</clipPath>
											<path class="st5" d="M283,78.1l8.3,8.3c0.2,0.2,0.6,0.2,0.8,0l8.3-8.3c0.4-0.4,0.4-1.1,0-1.5l-0.1-0.1
												c-0.4-0.4-1.1-0.4-1.5,0l-6.7,6.7c-0.2,0.2-0.6,0.2-0.8,0l-6.7-6.7c-0.4-0.4-1.1-0.4-1.5,0l-0.1,0.1
												C282.6,76.9,282.6,77.6,283,78.1"/>
										</g>
									</g>
								</g>
							</g>
						</g>
					</g>
				</g>
				<g>
					<g>
						<g>
							<g>
								<defs>
									<rect id="SVGID_5_" x="352" y="70.5" width="18" height="18"/>
								</defs>
								<clipPath id="SVGID_6_">
									<use xlink:href="#SVGID_5_"  style="overflow:visible;"/>
								</clipPath>
								<g id="icon-contextual-help-hover_x2F_on-state" class="st6">
									<g>
										<g>
											<defs>
												<rect id="SVGID_7_" x="352" y="70.5" width="18" height="18"/>
											</defs>
											<clipPath id="SVGID_8_">
												<use xlink:href="#SVGID_7_"  style="overflow:visible;"/>
											</clipPath>
											<path class="st7" d="M361,70.5c-5,0-9,4-9,9s4,9,9,9s9-4,9-9S366,70.5,361,70.5 M361,83.5c-0.4,0-0.7-0.3-0.7-0.7
												c0-0.4,0.3-0.7,0.7-0.7c0.4,0,0.7,0.3,0.7,0.7C361.7,83.1,361.4,83.5,361,83.5 M363.3,79.3c-0.3,0.5-0.8,0.8-1.4,1
												c-0.1,0.1-0.3,0.1-0.3,0.2V81c0,0.3-0.3,0.6-0.6,0.6c-0.3,0-0.6-0.3-0.6-0.6v-0.5c0-0.3,0.1-0.7,0.6-1
												c0.2-0.2,0.5-0.2,0.5-0.3l0,0c0.7-0.2,1.1-0.9,1.1-1.6c0-0.9-0.7-1.7-1.7-1.7c-0.9,0-1.7,0.7-1.7,1.7
												c0,0.3-0.3,0.6-0.6,0.6c-0.3,0-0.6-0.3-0.6-0.6c0-0.8,0.3-1.5,0.8-2s1.2-0.8,2-0.8s1.5,0.3,2,0.8s0.8,1.2,0.8,2
												C363.8,78.3,363.7,78.8,363.3,79.3"/>
										</g>
									</g>
								</g>
							</g>
						</g>
					</g>
				</g>
			</g>
		</g>
	</g>
</g>
<path class="st0" d="M368.6,123h-3.3l-5.3-5.3l-5.3,5.3H54c-1.1,0-2,0.9-2,2v51c0,1.1,0.9,2,2,2h313.1c1.9,0,3.5-1.6,3.5-3.6V125
	C370.6,123.9,369.7,123,368.6,123z"/>
</svg>
