<?xml version="1.0" encoding="utf-8"?>
<!-- Generator: Adobe Illustrator 19.2.1, SVG Export Plug-In . SVG Version: 6.00 Build 0)  -->
<svg version="1.1" id="Layer_1" xmlns="http://www.w3.org/2000/svg" xmlns:xlink="http://www.w3.org/1999/xlink" x="0px" y="0px"
	 viewBox="0 0 420 225" style="enable-background:new 0 0 420 225;" xml:space="preserve">
<style type="text/css">
	.st0{fill:#CCCCCC;}
	.st1{fill:#333333;}
	.st2{fill:none;stroke:#CCCCCC;stroke-width:1.3023;stroke-miterlimit:10;}
</style>
<g>
	<path class="st0" d="M287.7,104.1H132.3c-2,0-3.6-1.6-3.6-3.6V46.8c0-2,1.6-3.6,3.6-3.6h155.4c2,0,3.6,1.6,3.6,3.6v53.8
		C291.3,102.6,289.7,104.1,287.7,104.1z"/>
	<g>
		<path class="st1" d="M170.2,66.5h5.9c1.2,0,2.1,0.3,2.8,1s1.1,1.6,1.1,2.8c0,1-0.3,1.9-1,2.7c-0.6,0.8-1.6,1.1-2.9,1.1H172v5.5
			h-1.8V66.5z M177.1,68.3c-0.4-0.2-0.9-0.3-1.6-0.3H172v4.5h3.5c0.8,0,1.4-0.2,1.9-0.5s0.7-0.9,0.7-1.8
			C178.2,69.3,177.8,68.7,177.1,68.3z"/>
		<path class="st1" d="M182.4,66.5h5.9c1,0,1.8,0.1,2.4,0.4c1.2,0.6,1.8,1.6,1.8,3.1c0,0.8-0.2,1.4-0.5,1.9s-0.8,0.9-1.4,1.2
			c0.5,0.2,0.9,0.5,1.2,0.8s0.4,0.9,0.4,1.6l0.1,1.8c0,0.5,0.1,0.9,0.1,1.1c0.1,0.4,0.3,0.7,0.6,0.8v0.3h-2.2
			c-0.1-0.1-0.1-0.3-0.1-0.4c0-0.2-0.1-0.5-0.1-1l-0.1-2.2c0-0.9-0.3-1.4-0.9-1.7c-0.3-0.2-0.8-0.2-1.5-0.2h-3.9v5.6h-1.8V66.5z
			 M188.2,72.5c0.8,0,1.4-0.2,1.9-0.5s0.7-0.9,0.7-1.8s-0.3-1.6-1-1.9c-0.4-0.2-0.8-0.3-1.4-0.3h-4.2v4.5
			C184.2,72.5,188.2,72.5,188.2,72.5z"/>
		<path class="st1" d="M195.8,66.5h1.8v13.1h-1.8V66.5z"/>
		<path class="st1" d="M200.4,66.5h2.5l3.8,11.1l3.7-11.1h2.5v13.1h-1.7v-7.7c0-0.3,0-0.7,0-1.3c0-0.6,0-1.3,0-2l-3.7,11h-1.8
			l-3.8-11V69c0,0.3,0,0.8,0,1.5s0,1.1,0,1.4v7.7h-1.7V66.5H200.4z"/>
		<path class="st1" d="M219.5,66.5h2l4.7,13.1h-1.9l-1.4-3.9h-5.1l-1.4,3.9h-1.8L219.5,66.5z M222.4,74.3l-2-5.8l-2.1,5.8H222.4z"/>
		<path class="st1" d="M228,66.5h5.9c1,0,1.8,0.1,2.4,0.4c1.2,0.6,1.8,1.6,1.8,3.1c0,0.8-0.2,1.4-0.5,1.9s-0.8,0.9-1.4,1.2
			c0.5,0.2,0.9,0.5,1.2,0.8s0.4,0.9,0.4,1.6l0.1,1.8c0,0.5,0.1,0.9,0.1,1.1c0.1,0.4,0.3,0.7,0.6,0.8v0.3h-2.2
			c-0.1-0.1-0.1-0.3-0.1-0.4c0-0.2-0.1-0.5-0.1-1l-0.1-2.2c0-0.9-0.3-1.4-0.9-1.7c-0.3-0.2-0.8-0.2-1.5-0.2h-3.9v5.6H228V66.5z
			 M233.8,72.5c0.8,0,1.4-0.2,1.9-0.5s0.7-0.9,0.7-1.8s-0.3-1.6-1-1.9c-0.4-0.2-0.8-0.3-1.4-0.3h-4.2v4.5
			C229.8,72.5,233.8,72.5,233.8,72.5z"/>
		<path class="st1" d="M239.6,66.5h2.1l3.8,6.3l3.8-6.3h2.1l-5,7.8v5.3h-1.8v-5.3L239.6,66.5z"/>
	</g>
	<path class="st2" d="M287.7,181.8H132.3c-2,0-3.6-1.6-3.6-3.6v-53.8c0-2,1.6-3.6,3.6-3.6h155.4c2,0,3.6,1.6,3.6,3.6v53.8
		C291.3,180.2,289.7,181.8,287.7,181.8z"/>
	<g>
		<path class="st1" d="M155,153.1c0,0.7,0.2,1.3,0.5,1.8c0.6,0.9,1.6,1.3,3,1.3c0.6,0,1.2-0.1,1.7-0.3c1-0.4,1.5-1,1.5-2
			c0-0.7-0.2-1.2-0.6-1.5c-0.4-0.3-1.1-0.6-2.1-0.8l-1.7-0.4c-1.1-0.3-1.9-0.5-2.4-0.9c-0.8-0.5-1.2-1.4-1.2-2.4
			c0-1.2,0.4-2.1,1.2-2.9s1.9-1.1,3.4-1.1c1.3,0,2.5,0.3,3.4,1s1.4,1.7,1.4,3.2h-1.7c-0.1-0.7-0.3-1.2-0.5-1.6c-0.5-0.7-1.4-1-2.6-1
			c-1,0-1.7,0.2-2.2,0.7s-0.7,0.9-0.7,1.5s0.3,1.1,0.8,1.4c0.3,0.2,1.1,0.4,2.3,0.7l1.8,0.4c0.9,0.2,1.5,0.5,2,0.8
			c0.8,0.6,1.2,1.5,1.2,2.7c0,1.4-0.5,2.5-1.5,3.1s-2.2,0.9-3.6,0.9c-1.6,0-2.8-0.4-3.7-1.2s-1.3-1.9-1.3-3.4H155z"/>
		<path class="st1" d="M166.2,144.2h9.5v1.6h-7.8v4h7.2v1.5h-7.2v4.4h7.9v1.6h-9.6L166.2,144.2L166.2,144.2z"/>
		<path class="st1" d="M187.4,145.2c0.9,0.9,1.4,1.9,1.5,3h-1.7c-0.2-0.8-0.6-1.5-1.1-2c-0.6-0.5-1.4-0.7-2.4-0.7
			c-1.3,0-2.3,0.5-3.1,1.4s-1.2,2.3-1.2,4.2c0,1.5,0.4,2.8,1.1,3.7c0.7,1,1.8,1.4,3.1,1.4s2.3-0.5,2.9-1.5c0.4-0.5,0.6-1.2,0.8-2.1
			h1.7c-0.2,1.4-0.7,2.5-1.5,3.5c-1,1.1-2.4,1.7-4.2,1.7c-1.5,0-2.8-0.5-3.8-1.4c-1.3-1.2-2-3.1-2-5.6c0-1.9,0.5-3.5,1.5-4.7
			c1.1-1.3,2.6-2,4.5-2C185.2,143.9,186.5,144.3,187.4,145.2z"/>
		<path class="st1" d="M202.1,146.1c0.9,1.2,1.3,2.6,1.3,4.4c0,2-0.5,3.6-1.5,4.9c-1.2,1.5-2.8,2.3-5,2.3c-2,0-3.6-0.7-4.7-2
			c-1-1.3-1.5-2.9-1.5-4.9c0-1.8,0.4-3.3,1.3-4.5c1.1-1.6,2.8-2.4,5-2.4C199.3,143.9,201,144.6,202.1,146.1z M200.5,154.4
			c0.7-1.1,1-2.4,1-3.9s-0.4-2.8-1.2-3.7s-1.9-1.4-3.3-1.4c-1.4,0-2.5,0.5-3.3,1.4s-1.3,2.3-1.3,4.1c0,1.4,0.4,2.7,1.1,3.7
			s1.9,1.5,3.6,1.5C198.7,156.1,199.9,155.5,200.5,154.4z"/>
		<path class="st1" d="M205.5,144.2h2.1l6.5,10.6v-10.6h1.7v13.1h-2l-6.6-10.6v10.6h-1.7V144.2z"/>
		<path class="st1" d="M218.8,144.2h5.2c1.8,0,3.2,0.6,4.1,1.9c0.9,1.2,1.3,2.6,1.3,4.4c0,1.4-0.3,2.6-0.8,3.8c-0.9,2-2.5,3-4.7,3
			h-5.2L218.8,144.2L218.8,144.2z M223.6,155.8c0.6,0,1.1-0.1,1.4-0.2c0.7-0.2,1.2-0.7,1.7-1.3c0.3-0.5,0.6-1.2,0.7-2
			c0.1-0.5,0.1-0.9,0.1-1.4c0-1.6-0.3-2.9-0.9-3.8c-0.6-0.9-1.6-1.3-3-1.3h-3.1v10H223.6z"/>
		<path class="st1" d="M235.7,144.2h2l4.7,13.1h-1.9l-1.4-3.9H234l-1.4,3.9h-1.8L235.7,144.2z M238.6,151.9l-2-5.8l-2.1,5.8H238.6z"
			/>
		<path class="st1" d="M244.2,144.2h5.9c1,0,1.8,0.1,2.4,0.4c1.2,0.6,1.8,1.6,1.8,3.1c0,0.8-0.2,1.4-0.5,1.9s-0.8,0.9-1.4,1.2
			c0.5,0.2,0.9,0.5,1.2,0.8s0.4,0.9,0.4,1.6l0.1,1.8c0,0.5,0.1,0.9,0.1,1.1c0.1,0.4,0.3,0.7,0.6,0.8v0.3h-2.2
			c-0.1-0.1-0.1-0.3-0.1-0.4c0-0.2-0.1-0.5-0.1-1l-0.1-2.2c0-0.9-0.3-1.4-0.9-1.7c-0.3-0.2-0.8-0.2-1.5-0.2H246v5.6h-1.8V144.2z
			 M250,150.2c0.8,0,1.4-0.2,1.9-0.5s0.7-0.9,0.7-1.8c0-0.9-0.3-1.6-1-1.9c-0.4-0.2-0.8-0.3-1.4-0.3H246v4.5H250z"/>
		<path class="st1" d="M255.9,144.2h2.1l3.8,6.3l3.8-6.3h2.1l-5,7.8v5.3h-1.8V152L255.9,144.2z"/>
	</g>
</g>
</svg>
