<?xml version="1.0" encoding="utf-8"?>
<!-- Generator: Adobe Illustrator 19.2.1, SVG Export Plug-In . SVG Version: 6.00 Build 0)  -->
<svg version="1.1" id="Layer_1" xmlns="http://www.w3.org/2000/svg" xmlns:xlink="http://www.w3.org/1999/xlink" x="0px" y="0px"
	 viewBox="0 0 420 155" style="enable-background:new 0 0 420 155;" xml:space="preserve">
<style type="text/css">
	.st0{fill:#CCCCCC;}
	.st1{fill:#333333;}
	.st2{fill:none;stroke:#CCCCCC;stroke-width:1.3023;stroke-miterlimit:10;}
</style>
<g>
	<path class="st0" d="M378.7,108H223.2c-2,0-3.6-1.6-3.6-3.6V50.6c0-2,1.6-3.6,3.6-3.6h155.4c2,0,3.6,1.6,3.6,3.6v53.8
		C382.2,106.4,380.6,108,378.7,108z"/>
	<g>
		<path class="st1" d="M261.2,70.4h5.9c1.2,0,2.1,0.3,2.8,1c0.7,0.7,1.1,1.6,1.1,2.8c0,1-0.3,1.9-1,2.7c-0.6,0.8-1.6,1.1-2.9,1.1
			H263v5.5h-1.8V70.4z M268.1,72.2c-0.4-0.2-0.9-0.3-1.6-0.3H263v4.5h3.5c0.8,0,1.4-0.2,1.9-0.5s0.7-0.9,0.7-1.8
			C269.1,73.2,268.8,72.5,268.1,72.2z"/>
		<path class="st1" d="M273.4,70.4h5.9c1,0,1.8,0.1,2.4,0.4c1.2,0.6,1.8,1.6,1.8,3.1c0,0.8-0.2,1.4-0.5,1.9s-0.8,0.9-1.4,1.2
			c0.5,0.2,0.9,0.5,1.2,0.8c0.3,0.3,0.4,0.9,0.4,1.6l0.1,1.8c0,0.5,0.1,0.9,0.1,1.1c0.1,0.4,0.3,0.7,0.6,0.8v0.3h-2.2
			c-0.1-0.1-0.1-0.3-0.1-0.4c0-0.2-0.1-0.5-0.1-1l-0.1-2.2c0-0.9-0.3-1.4-0.9-1.7c-0.3-0.2-0.8-0.2-1.5-0.2h-3.9v5.6h-1.8V70.4z
			 M279.1,76.4c0.8,0,1.4-0.2,1.9-0.5s0.7-0.9,0.7-1.8c0-0.9-0.3-1.6-1-1.9c-0.4-0.2-0.8-0.3-1.4-0.3h-4.2v4.5H279.1z"/>
		<path class="st1" d="M286.7,70.4h1.8v13.1h-1.8V70.4z"/>
		<path class="st1" d="M291.4,70.4h2.5l3.8,11.1l3.7-11.1h2.5v13.1h-1.7v-7.7c0-0.3,0-0.7,0-1.3s0-1.3,0-2l-3.7,11h-1.8l-3.8-11v0.4
			c0,0.3,0,0.8,0,1.5s0,1.1,0,1.4v7.7h-1.7V70.4H291.4z"/>
		<path class="st1" d="M310.4,70.4h2l4.7,13.1h-1.9l-1.4-3.9h-5.1l-1.4,3.9h-1.8L310.4,70.4z M313.4,78.1l-2-5.8l-2.1,5.8H313.4z"/>
		<path class="st1" d="M319,70.4h5.9c1,0,1.8,0.1,2.4,0.4c1.2,0.6,1.8,1.6,1.8,3.1c0,0.8-0.2,1.4-0.5,1.9s-0.8,0.9-1.4,1.2
			c0.5,0.2,0.9,0.5,1.2,0.8c0.3,0.3,0.4,0.9,0.4,1.6l0.1,1.8c0,0.5,0.1,0.9,0.1,1.1c0.1,0.4,0.3,0.7,0.6,0.8v0.3h-2.2
			c-0.1-0.1-0.1-0.3-0.1-0.4c0-0.2-0.1-0.5-0.1-1l-0.1-2.2c0-0.9-0.3-1.4-0.9-1.7c-0.3-0.2-0.8-0.2-1.5-0.2h-3.9v5.6H319V70.4z
			 M324.7,76.4c0.8,0,1.4-0.2,1.9-0.5s0.7-0.9,0.7-1.8c0-0.9-0.3-1.6-1-1.9c-0.4-0.2-0.8-0.3-1.4-0.3h-4.2v4.5H324.7z"/>
		<path class="st1" d="M330.6,70.4h2.1l3.8,6.3l3.8-6.3h2.1l-5,7.8v5.3h-1.8v-5.3L330.6,70.4z"/>
	</g>
	<path class="st2" d="M196.8,108H41.3c-2,0-3.6-1.6-3.6-3.6V50.6c0-2,1.6-3.6,3.6-3.6h155.4c2,0,3.6,1.6,3.6,3.6v53.8
		C200.3,106.4,198.7,108,196.8,108z"/>
	<g>
		<path class="st1" d="M64.1,79.2c0,0.7,0.2,1.3,0.5,1.8c0.6,0.9,1.6,1.3,3,1.3c0.6,0,1.2-0.1,1.7-0.3c1-0.4,1.5-1,1.5-2
			c0-0.7-0.2-1.2-0.6-1.5s-1.1-0.6-2.1-0.8l-1.7-0.4c-1.1-0.3-1.9-0.5-2.4-0.9c-0.8-0.5-1.2-1.4-1.2-2.4c0-1.2,0.4-2.1,1.2-2.9
			c0.8-0.8,1.9-1.1,3.4-1.1c1.3,0,2.5,0.3,3.4,1s1.4,1.7,1.4,3.2h-1.7c-0.1-0.7-0.3-1.2-0.5-1.6c-0.5-0.7-1.4-1-2.6-1
			c-1,0-1.7,0.2-2.2,0.7s-0.7,0.9-0.7,1.5s0.3,1.1,0.8,1.4c0.3,0.2,1.1,0.4,2.3,0.7l1.8,0.4c0.9,0.2,1.5,0.5,2,0.8
			c0.8,0.6,1.2,1.5,1.2,2.7c0,1.4-0.5,2.5-1.5,3.1s-2.2,0.9-3.6,0.9c-1.6,0-2.8-0.4-3.7-1.2c-0.9-0.8-1.3-1.9-1.3-3.4H64.1z"/>
		<path class="st1" d="M75.2,70.4h9.5V72H77v4h7.2v1.5H77v4.4h7.9v1.6h-9.6V70.4H75.2z"/>
		<path class="st1" d="M96.5,71.3c0.9,0.9,1.4,1.9,1.5,3h-1.7c-0.2-0.8-0.6-1.5-1.1-2c-0.6-0.5-1.4-0.7-2.4-0.7
			c-1.3,0-2.3,0.5-3.1,1.4c-0.8,0.9-1.2,2.3-1.2,4.2c0,1.5,0.4,2.8,1.1,3.7c0.7,1,1.8,1.4,3.1,1.4c1.3,0,2.3-0.5,2.9-1.5
			c0.4-0.5,0.6-1.2,0.8-2.1h1.7c-0.2,1.4-0.7,2.5-1.5,3.5c-1,1.1-2.4,1.7-4.2,1.7c-1.5,0-2.8-0.5-3.8-1.4c-1.3-1.2-2-3.1-2-5.6
			c0-1.9,0.5-3.5,1.5-4.7c1.1-1.3,2.6-2,4.5-2C94.3,70,95.6,70.5,96.5,71.3z"/>
		<path class="st1" d="M111.2,72.2c0.9,1.2,1.3,2.6,1.3,4.4c0,2-0.5,3.6-1.5,4.9c-1.2,1.5-2.8,2.3-5,2.3c-2,0-3.6-0.7-4.7-2
			c-1-1.3-1.5-2.9-1.5-4.9c0-1.8,0.4-3.3,1.3-4.5c1.1-1.6,2.8-2.4,5-2.4S110,70.8,111.2,72.2z M109.6,80.6c0.7-1.1,1-2.4,1-3.9
			s-0.4-2.8-1.2-3.7s-1.9-1.4-3.3-1.4s-2.5,0.5-3.3,1.4s-1.3,2.3-1.3,4.1c0,1.4,0.4,2.7,1.1,3.7s1.9,1.5,3.6,1.5
			C107.8,82.3,108.9,81.7,109.6,80.6z"/>
		<path class="st1" d="M114.6,70.4h2.1l6.5,10.6V70.4h1.7v13.1h-2l-6.6-10.6v10.6h-1.7V70.4z"/>
		<path class="st1" d="M127.8,70.4h5.2c1.8,0,3.2,0.6,4.1,1.9c0.9,1.2,1.3,2.6,1.3,4.4c0,1.4-0.3,2.6-0.8,3.8c-0.9,2-2.5,3-4.7,3
			h-5.2L127.8,70.4L127.8,70.4z M132.7,81.9c0.6,0,1.1-0.1,1.4-0.2c0.7-0.2,1.2-0.7,1.7-1.3c0.3-0.5,0.6-1.2,0.7-2
			c0.1-0.5,0.1-0.9,0.1-1.4c0-1.6-0.3-2.9-0.9-3.8c-0.6-0.9-1.6-1.3-3-1.3h-3.1v10H132.7z"/>
		<path class="st1" d="M144.7,70.4h2l4.7,13.1h-1.9l-1.4-3.9H143l-1.4,3.9h-1.8L144.7,70.4z M147.7,78.1l-2-5.8l-2.1,5.8H147.7z"/>
		<path class="st1" d="M153.3,70.4h5.9c1,0,1.8,0.1,2.4,0.4c1.2,0.6,1.8,1.6,1.8,3.1c0,0.8-0.2,1.4-0.5,1.9s-0.8,0.9-1.4,1.2
			c0.5,0.2,0.9,0.5,1.2,0.8s0.4,0.9,0.4,1.6l0.1,1.8c0,0.5,0.1,0.9,0.1,1.1c0.1,0.4,0.3,0.7,0.6,0.8v0.3h-2.2
			c-0.1-0.1-0.1-0.3-0.1-0.4c0-0.2-0.1-0.5-0.1-1l-0.1-2.2c0-0.9-0.3-1.4-0.9-1.7c-0.3-0.2-0.8-0.2-1.5-0.2h-4v5.6h-1.8V70.4H153.3z
			 M159,76.4c0.8,0,1.4-0.2,1.9-0.5s0.7-0.9,0.7-1.8c0-0.9-0.3-1.6-1-1.9c-0.4-0.2-0.8-0.3-1.4-0.3H155v4.5H159z"/>
		<path class="st1" d="M164.9,70.4h2.1l3.8,6.3l3.8-6.3h2.1l-5,7.8v5.3h-1.8v-5.3L164.9,70.4z"/>
	</g>
</g>
</svg>
