<?xml version="1.0" encoding="utf-8"?>
<!-- Generator: Adobe Illustrator 19.2.1, SVG Export Plug-In . SVG Version: 6.00 Build 0)  -->
<svg version="1.1" id="Layer_1" xmlns="http://www.w3.org/2000/svg" xmlns:xlink="http://www.w3.org/1999/xlink" x="0px" y="0px"
	 viewBox="0 0 420 290" style="enable-background:new 0 0 420 290;" xml:space="preserve">
<style type="text/css">
	.st0{fill:#CCCCCC;}
	.st1{clip-path:url(#SVGID_2_);}
	.st2{clip-path:url(#SVGID_4_);fill:#FFFFFF;}
</style>
<g>
	<g>
		<path class="st0" d="M419.9,41L419.9,41h-77.4c-3.1,0-5.6,2.5-5.6,5.6v177.8c0,3.1,2.5,5.6,5.6,5.6H420"/>
	</g>
</g>
<g id="icon-arrow-left-white">
	<g>
		<defs>
			<rect id="SVGID_1_" x="379.8" y="59" width="10.4" height="18"/>
		</defs>
		<clipPath id="SVGID_2_">
			<use xlink:href="#SVGID_1_"  style="overflow:visible;"/>
		</clipPath>
		<g class="st1">
			<defs>
				<rect id="SVGID_3_" x="379.8" y="59" width="10.4" height="18"/>
			</defs>
			<clipPath id="SVGID_4_">
				<use xlink:href="#SVGID_3_"  style="overflow:visible;"/>
			</clipPath>
			<path class="st2" d="M388.3,76.7l-8.3-8.3c-0.2-0.2-0.2-0.6,0-0.8l8.3-8.3c0.4-0.4,1.1-0.4,1.5,0l0.1,0.1c0.4,0.4,0.4,1.1,0,1.5
				l-6.7,6.7c-0.2,0.2-0.2,0.6,0,0.8l6.7,6.7c0.4,0.4,0.4,1.1,0,1.5l-0.1,0.1C389.4,77.1,388.7,77.1,388.3,76.7"/>
		</g>
	</g>
</g>
</svg>
