<?xml version="1.0" encoding="utf-8"?>
<!-- Generator: Adobe Illustrator 19.2.1, SVG Export Plug-In . SVG Version: 6.00 Build 0)  -->
<svg version="1.1" id="Layer_1" xmlns="http://www.w3.org/2000/svg" xmlns:xlink="http://www.w3.org/1999/xlink" x="0px" y="0px"
	 viewBox="0 0 420 290" style="enable-background:new 0 0 420 290;" xml:space="preserve">
<style type="text/css">
	.st0{fill:#CCCCCC;}
	.st1{clip-path:url(#SVGID_2_);}
	.st2{clip-path:url(#SVGID_4_);fill:#FFFFFF;}
	.st3{fill:#767676;}
	.st4{font-family:'Helvetica';}
	.st5{font-size:18px;}
</style>
<g>
	<g>
		<path class="st0" d="M419.9,40L419.9,40H46.6c-3.1,0-5.6,2.5-5.6,5.6v178.8c0,3.1,2.5,5.6,5.6,5.6H420"/>
	</g>
</g>
<g>
	<g>
		<g>
			<g>
				<defs>
					<rect id="SVGID_1_" x="372" y="59" width="18" height="18"/>
				</defs>
				<clipPath id="SVGID_2_">
					<use xlink:href="#SVGID_1_"  style="overflow:visible;"/>
				</clipPath>
				<g id="icon-close-white" class="st1">
					<g>
						<g>
							<defs>
								<rect id="SVGID_3_" x="372" y="59" width="18" height="18"/>
							</defs>
							<clipPath id="SVGID_4_">
								<use xlink:href="#SVGID_3_"  style="overflow:visible;"/>
							</clipPath>
							<path class="st2" d="M389.6,59.4L389.6,59.4c-0.5-0.5-1.3-0.5-1.9,0l-6.7,6.7l-6.7-6.7c-0.5-0.5-1.3-0.5-1.9,0
								c-0.5,0.5-0.5,1.4,0,1.9l6.7,6.7l-6.7,6.7c-0.5,0.5-0.5,1.4,0,1.9s1.4,0.5,1.9,0l6.7-6.7l6.7,6.7c0.5,0.5,1.4,0.5,1.9,0
								s0.5-1.4,0-1.9l-6.7-6.7l6.7-6.7C390.1,60.7,390.1,59.9,389.6,59.4"/>
						</g>
					</g>
				</g>
			</g>
		</g>
		<text transform="matrix(1 0 0 1 101 93)" class="st3 st4 st5">Item 1</text>
		<text transform="matrix(1 0 0 1 101 125)" class="st3 st4 st5">Item 2</text>
		<text transform="matrix(1 0 0 1 101 157)" class="st3 st4 st5">Item 3</text>
		<text transform="matrix(1 0 0 1 101 189)" class="st3 st4 st5">Item 4</text>
	</g>
</g>
</svg>
