<?xml version="1.0" encoding="utf-8"?>
<!-- Generator: Adobe Illustrator 19.2.1, SVG Export Plug-In . SVG Version: 6.00 Build 0)  -->
<svg version="1.1" id="Layer_1" xmlns="http://www.w3.org/2000/svg" xmlns:xlink="http://www.w3.org/1999/xlink" x="0px" y="0px"
	 viewBox="0 0 370.7 315" style="enable-background:new 0 0 370.7 315;" xml:space="preserve">
<style type="text/css">
	.st0{fill:#CCCCCC;}
	.st1{fill:#FFFFFF;}
	.st2{font-family:'Helvetica';}
	.st3{font-size:15.4705px;}
</style>
<g>
	<path class="st0" d="M113.7,49v46H45.6c-3,0-5.5-2.5-5.5-5.5v-35c0-3,2.5-5.5,5.5-5.5H113.7 M114.7,48H45.6c-3.6,0-6.5,2.9-6.5,6.5
		v35c0,3.6,2.9,6.5,6.5,6.5h69.1V48L114.7,48z"/>
</g>
<g>
	<path class="st0" d="M324.2,49c3,0,5.5,2.5,5.5,5.5v35c0,3-2.5,5.5-5.5,5.5h-62.8V49H324.2 M324.2,48h-63.8v48h63.8
		c3.6,0,6.5-2.9,6.5-6.5v-35C330.7,51,327.8,48,324.2,48L324.2,48z"/>
</g>
<g>
	<path class="st0" d="M259.3,49v46h-72.5V49H259.3 M260.3,48h-74.5v48h74.5V48L260.3,48z"/>
</g>
<g>
	<rect x="114.7" y="48" class="st0" width="71.1" height="48"/>
</g>
<text transform="matrix(1 0 0 1 126.4068 77.8692)" class="st1 st2 st3">Default</text>
<rect x="39.6" y="115.9" class="st0" width="291.1" height="25.9"/>
<rect x="185.1" y="149.8" class="st0" width="145.5" height="25.9"/>
<g>
	<path class="st0" d="M174.1,151.8v123.9H41.6V151.8H174.1 M176.1,149.8H39.6v127.9h136.5V149.8L176.1,149.8z"/>
</g>
<rect x="185.1" y="183.8" class="st0" width="145.5" height="25.9"/>
<rect x="185.1" y="217.8" class="st0" width="145.5" height="25.9"/>
<rect x="185.1" y="251.8" class="st0" width="145.5" height="25.9"/>
</svg>
