<?xml version="1.0" encoding="utf-8"?>
<!-- Generator: Adobe Illustrator 19.2.1, SVG Export Plug-In . SVG Version: 6.00 Build 0)  -->
<svg version="1.1" id="Layer_1" xmlns="http://www.w3.org/2000/svg" xmlns:xlink="http://www.w3.org/1999/xlink" x="0px" y="0px"
	 viewBox="0 0 420 150" style="enable-background:new 0 0 420 150;" xml:space="preserve">
<style type="text/css">
	.st0{fill:#EBEBEB;}
	.st1{fill:#767676;}
	.st2{fill:#CBCBCB;}
	.st3{fill:#FFFFFF;}
	.st4{fill:none;stroke:#767676;stroke-miterlimit:10;}
	.st5{fill:#5D5D5D;}
	.st6{font-family:'Helvetica';}
	.st7{font-size:16px;}
	.st8{clip-path:url(#SVGID_2_);}
	.st9{clip-path:url(#SVGID_4_);}
	.st10{opacity:0.42;clip-path:url(#SVGID_6_);}
	.st11{clip-path:url(#SVGID_8_);}
	.st12{clip-path:url(#SVGID_4_);fill:#FFFFFF;}
</style>
<g>
	<g>
		<rect x="51" y="40.5" class="st0" width="159" height="49"/>
		<path class="st1" d="M209.5,41v48h-158V41H209.5 M210.5,40h-160v50h160V40L210.5,40z"/>
	</g>
	<g>
		<rect x="210" y="40.5" class="st2" width="159" height="49"/>
		<path class="st2" d="M368.5,41v48h-158V41H368.5 M369.5,40h-160v50h160V40L369.5,40z"/>
	</g>
	<g>
		<rect x="51.5" y="88.1" class="st3" width="158" height="2.8"/>
	</g>
	<g>
		<polyline class="st4" points="369.5,90 209.5,90 209.5,40 		"/>
	</g>
	<g>
		<text transform="matrix(1 0 0 1 108.8722 71.143)" class="st5 st6 st7">TAB 1</text>
	</g>
	<text transform="matrix(1 0 0 1 268.8722 71.143)" class="st1 st6 st7">TAB 2</text>
</g>
<g>
	<g>
		<defs>
			<rect id="SVGID_1_" x="155.9" y="55" width="58" height="58"/>
		</defs>
		<clipPath id="SVGID_2_">
			<use xlink:href="#SVGID_1_"  style="overflow:visible;"/>
		</clipPath>
		<g class="st8">
			<defs>
				<rect id="SVGID_3_" x="155.9" y="55" width="58" height="58"/>
			</defs>
			<clipPath id="SVGID_4_">
				<use xlink:href="#SVGID_3_"  style="overflow:visible;"/>
			</clipPath>
			<g class="st9">
				<defs>
					<rect id="SVGID_5_" x="155.9" y="55" width="58" height="58"/>
				</defs>
				<clipPath id="SVGID_6_">
					<use xlink:href="#SVGID_5_"  style="overflow:visible;"/>
				</clipPath>
				<g class="st10">
					<g>
						<defs>
							<rect id="SVGID_7_" x="172.8" y="66.3" width="24.7" height="36.2"/>
						</defs>
						<clipPath id="SVGID_8_">
							<use xlink:href="#SVGID_7_"  style="overflow:visible;"/>
						</clipPath>
						<g class="st11">
							<defs>
								<rect id="SVGID_9_" x="172.8" y="66.3" width="24.7" height="36.2"/>
							</defs>
							<clipPath id="SVGID_10_">
								<use xlink:href="#SVGID_9_"  style="overflow:visible;"/>
							</clipPath>
							<g transform="matrix(1 0 0 1 0 0)" style="clip-path:url(#SVGID_10_);">
								
									<image style="overflow:visible;" width="320" height="468" xlink:href="4BE491DB2BB3EFAD.png"  transform="matrix(7.733333e-02 0 0 7.733334e-02 172.8289 66.2546)">
								</image>
							</g>
						</g>
					</g>
				</g>
			</g>
			<polygon class="st12" points="174.9,95.8 174.9,68.3 194.8,88.3 183.2,88.3 182.5,88.5 			"/>
			<polygon class="st12" points="190.5,97 184.3,99.6 176.3,80.6 182.6,77.9 			"/>
			
				<rect x="182.3" y="83.3" transform="matrix(0.9222 -0.3868 0.3868 0.9222 -20.556 78.1805)" class="st9" width="3.4" height="13.7"/>
			<polygon class="st9" points="176.6,72.5 176.6,91.7 181.7,86.8 182.5,86.5 190.7,86.5 			"/>
		</g>
	</g>
</g>
</svg>
