<?xml version="1.0" encoding="utf-8"?>
<!-- Generator: Adobe Illustrator 19.2.1, SVG Export Plug-In . SVG Version: 6.00 Build 0)  -->
<svg version="1.1" id="Layer_1" xmlns="http://www.w3.org/2000/svg" xmlns:xlink="http://www.w3.org/1999/xlink" x="0px" y="0px"
	 viewBox="0 0 420 150" style="enable-background:new 0 0 420 150;" xml:space="preserve">
<style type="text/css">
	.st0{fill:#FFFFFF;}
	.st1{fill:#767676;}
	.st2{fill:#CBCBCB;}
	.st3{fill:none;stroke:#767676;stroke-miterlimit:10;}
	.st4{font-family:'Helvetica';}
	.st5{font-size:16px;}
	.st6{clip-path:url(#SVGID_2_);}
	.st7{clip-path:url(#SVGID_4_);}
	.st8{clip-path:url(#SVGID_6_);}
	.st9{opacity:0.42;}
	.st10{clip-path:url(#SVGID_8_);}
	.st11{clip-path:url(#SVGID_10_);}
	.st12{clip-path:url(#SVGID_15_);}
	.st13{clip-path:url(#SVGID_16_);}
	.st14{clip-path:url(#SVGID_17_);}
	.st15{clip-path:url(#SVGID_18_);fill:#FFFFFF;}
	.st16{clip-path:url(#SVGID_18_);}
</style>
<g>
	<g>
		<rect x="51" y="40.5" class="st0" width="159" height="49"/>
		<path class="st1" d="M209.5,41v48h-158V41L209.5,41 M210.5,40h-160v50h160V40L210.5,40z"/>
	</g>
	<g>
		<rect x="210" y="40.5" class="st2" width="159" height="49"/>
		<path class="st2" d="M368.5,41v48h-158V41L368.5,41 M369.5,40h-160v50h160V40L369.5,40z"/>
	</g>
	<g>
		<rect x="51.5" y="88" class="st0" width="158" height="2.8"/>
	</g>
	<g>
		<polyline class="st3" points="369.5,90 209.5,90 209.5,40 		"/>
	</g>
	<text transform="matrix(1 0 0 1 108.8722 71.1097)" class="st2 st4 st5">TAB 1</text>
	<text transform="matrix(1 0 0 1 268.8722 71.1097)" class="st1 st4 st5">TAB 2</text>
</g>
<g>
	<g>
		<g>
			<defs>
				<rect id="SVGID_1_" x="112.2" y="54.8" width="58" height="58"/>
			</defs>
			<clipPath id="SVGID_2_">
				<use xlink:href="#SVGID_1_"  style="overflow:visible;"/>
			</clipPath>
			<g class="st6">
				<g>
					<defs>
						<rect id="SVGID_3_" x="112.2" y="54.8" width="58" height="58"/>
					</defs>
					<clipPath id="SVGID_4_">
						<use xlink:href="#SVGID_3_"  style="overflow:visible;"/>
					</clipPath>
					<g class="st7">
						<g>
							<defs>
								<rect id="SVGID_5_" x="112.2" y="54.8" width="58" height="58"/>
							</defs>
							<clipPath id="SVGID_6_">
								<use xlink:href="#SVGID_5_"  style="overflow:visible;"/>
							</clipPath>
							<g class="st8">
								<g>
									<g class="st9">
										<defs>
											<rect id="SVGID_7_" x="129.2" y="66.1" class="st9" width="24.7" height="36.2"/>
										</defs>
										<clipPath id="SVGID_8_">
											<use xlink:href="#SVGID_7_"  style="overflow:visible;"/>
										</clipPath>
										<g class="st10">
											<g>
												<defs>
													<rect id="SVGID_9_" x="129.2" y="66.1" width="24.7" height="36.2"/>
												</defs>
												<clipPath id="SVGID_10_">
													<use xlink:href="#SVGID_9_"  style="overflow:visible;"/>
												</clipPath>
												<g transform="matrix(1 0 0 1 0 0)" class="st11">
													
														<image style="overflow:visible;enable-background:new    ;" width="323" height="478" xlink:href="E56E2F111E9FFE5C.png"  transform="matrix(7.599863e-02 0 0 7.599863e-02 129.3006 66.0273)">
													</image>
												</g>
											</g>
										</g>
									</g>
								</g>
								<g>
									<defs>
										<rect id="SVGID_11_" x="112.2" y="54.8" width="58" height="58"/>
									</defs>
									<defs>
										<rect id="SVGID_12_" x="112.2" y="54.8" width="58" height="58"/>
									</defs>
									<defs>
										
											<rect id="SVGID_13_" x="109.7" y="55" transform="matrix(0.9222 -0.3868 0.3868 0.9222 -21.6764 60.1974)" width="58" height="58"/>
									</defs>
									<defs>
										<rect id="SVGID_14_" x="112.2" y="54.8" width="58" height="58"/>
									</defs>
									<clipPath id="SVGID_15_">
										<use xlink:href="#SVGID_11_"  style="overflow:visible;"/>
									</clipPath>
									<clipPath id="SVGID_16_" class="st12">
										<use xlink:href="#SVGID_12_"  style="overflow:visible;"/>
									</clipPath>
									<clipPath id="SVGID_17_" class="st13">
										<use xlink:href="#SVGID_13_"  style="overflow:visible;"/>
									</clipPath>
									<clipPath id="SVGID_18_" class="st14">
										<use xlink:href="#SVGID_14_"  style="overflow:visible;"/>
									</clipPath>
									<polygon class="st15" points="131.3,95.7 131.3,68.2 151.2,88.1 139.6,88.1 138.8,88.4 									"/>
									<polygon class="st15" points="146.9,96.8 140.7,99.5 132.7,80.4 139,77.8 									"/>
									
										<rect x="138.6" y="83.1" transform="matrix(0.9222 -0.3868 0.3868 0.9222 -23.8842 61.265)" class="st16" width="3.4" height="13.7"/>
									<polygon class="st16" points="133,72.3 133,91.5 138.1,86.6 138.8,86.4 147,86.4 									"/>
								</g>
							</g>
						</g>
					</g>
				</g>
			</g>
		</g>
	</g>
</g>
</svg>
