<?xml version="1.0" encoding="utf-8"?>
<!-- Generator: Adobe Illustrator 19.2.1, SVG Export Plug-In . SVG Version: 6.00 Build 0)  -->
<svg version="1.1" id="Layer_1" xmlns="http://www.w3.org/2000/svg" xmlns:xlink="http://www.w3.org/1999/xlink" x="0px" y="0px"
	 viewBox="0 0 6447.6 1541.6" enable-background="new 0 0 6447.6 1541.6" xml:space="preserve">
<g>
	<path fill="#FFFFFF" d="M4756.6,322.1c107.6,0,170.4,66,170.4,179.6c0,113.9-62.5,179.9-170.4,179.9h-118.3V322.1H4756.6z
		 M4672.4,650.7h82.2c88.4,0,137.8-53.3,137.8-148.7c0-95.7-49.3-149-137.8-149h-82.2V650.7z"/>
	<path fill="#FFFFFF" d="M4974.4,338c0-12.5,10.2-22.4,22.4-22.4s22.2,10,22.2,22.4c0,12-10,22.2-22.2,22.2S4974.4,350,4974.4,338z
		 M4980.4,413.3h32.9v268.3h-32.9V413.3z"/>
	<path fill="#FFFFFF" d="M5074.8,706.2h34.4c6.5,23.9,35.6,39.9,75.7,39.9c49.8,0,83-25.7,83-67v-54.6h-0.7
		c-14.9,34.6-49.3,58.3-92.2,58.3c-67.5,0-113.4-54.8-113.4-136c0-82,45.8-136.5,114.1-136.5c42.8,0,77.5,23.4,93.2,58.6h0.5v-55.6
		h31.4v263.3c0,61.5-46.1,98.4-117.9,98.4C5123.7,775,5081.6,747.4,5074.8,706.2z M5267.9,546.8c0-63.5-35.4-107.1-87.2-107.1
		c-51.3,0-85.5,42.9-85.5,107.1c0,64,34.1,106.4,85.5,106.4C5232.5,653.2,5267.9,609.8,5267.9,546.8z"/>
	<path fill="#FFFFFF" d="M5356.6,338c0-12.5,10.2-22.4,22.4-22.4s22.2,10,22.2,22.4c0,12-10,22.2-22.2,22.2S5356.6,350,5356.6,338z
		 M5362.6,413.3h32.9v268.3h-32.9V413.3z"/>
	<path fill="#FFFFFF" d="M5504.7,349v64.3h53.1v27.7h-53.1v173.4c0,27.9,11,39.9,35.9,39.9c3.5,0,16.4-0.7,18.4-1v28.2
		c-3.5,1-17.9,1.7-24.9,1.7c-44.3,0-62.3-19.2-62.3-67.5V440.9h-38.4v-27.7h38.4V349H5504.7z"/>
	<path fill="#FFFFFF" d="M5591.6,606.8c0-45.8,34.4-72.5,98.7-77l82.5-5.5v-22.9c0-39.1-24.7-61.8-68-61.8
		c-37.4,0-63.5,19.2-69.5,51.1h-31.6c2.7-47.1,45.1-80.5,101.4-80.5c61.5,0,100.6,34.4,100.6,88.4v182.9h-31.4v-51.3h-0.7
		c-14.4,32.6-50.8,54.3-91.9,54.3C5628,684.6,5591.6,653.2,5591.6,606.8z M5772.8,580.7V551l-78.5,5.5c-45.1,3-69,20.4-69,50.6
		c0,28.9,25.4,48.6,62.8,48.6C5736.1,655.7,5772.8,623,5772.8,580.7z"/>
	<path fill="#FFFFFF" d="M5866,306.4h32.9v375.2H5866V306.4z"/>
	<path fill="#FFFFFF" d="M4655,1094.2c3.7,43.1,44.3,72.5,100.7,72.5c53.8,0,92.4-29.4,92.4-69.8c0-33.6-23.2-53.6-76.5-67
		l-44.6-11.5c-66.5-16.9-96.2-45.1-96.2-92.4c0-58,52.3-99.4,123.1-99.4c70,0,121.3,41.4,123.3,98.4h-34.1
		c-3.2-40.6-39.1-67.5-90.2-67.5c-49.8,0-86.7,27.7-86.7,67.3c0,30.9,22.4,49.1,75.2,62.5l38.9,10c72.2,18.2,102.7,45.8,102.7,95.9
		c0,63-50.8,104.4-130.3,104.4c-75.3,0-128.1-41.6-131.8-103.4H4655z"/>
	<path fill="#FFFFFF" d="M5151.3,1115.9c-8,45.8-52.1,79-110.4,79c-74.2,0-121.6-52.1-121.6-136.5c0-83.2,47.3-137.8,119.6-137.8
		c70.5,0,115.9,51.1,115.9,130.8v14.4h-201.3v1.7c0,60.8,34.9,98.2,88.2,98.2c40.4,0,69-20.4,77-49.8H5151.3z M4953.5,1038.9h166.9
		c-0.5-53.3-33.4-89.2-82-89.2C4990.4,949.7,4956.5,985.6,4953.5,1038.9z"/>
	<path fill="#FFFFFF" d="M5200.7,923.6h30.9v47.6h1c9.2-31.9,34.6-50.6,68-50.6c8.7,0,16.7,1.5,20.9,2.7V956c-4.5-2-14-3.7-25.4-3.7
		c-38.1,0-62.5,29.9-62.5,73.3v166.4h-32.9V923.6z"/>
	<path fill="#FFFFFF" d="M5468.3,1191.9h-34.9l-100.1-268.3h34.6l82.5,233.2h0.7l82.7-233.2h34.4L5468.3,1191.9z"/>
	<path fill="#FFFFFF" d="M5598.6,848.3c0-12.5,10.2-22.4,22.4-22.4s22.2,10,22.2,22.4c0,12-10,22.2-22.2,22.2
		S5598.6,860.3,5598.6,848.3z M5604.6,923.6h32.9v268.3h-32.9V923.6z"/>
	<path fill="#FFFFFF" d="M5884.1,1008c-6.5-32.9-34.6-58.1-77.5-58.1c-52.6,0-87.2,42.4-87.2,107.6c0,66.5,34.9,107.6,87.4,107.6
		c41.1,0,69.8-20.9,77.5-56.1h32.6c-7.7,50.6-50.8,85.7-110.1,85.7c-73,0-121.1-52.6-121.1-137.3c0-83,47.8-137,120.6-137
		c62.8,0,103.9,40.1,110.4,87.5H5884.1z"/>
	<path fill="#FFFFFF" d="M6178.4,1115.9c-8,45.8-52.1,79-110.4,79c-74.2,0-121.6-52.1-121.6-136.5c0-83.2,47.3-137.8,119.6-137.8
		c70.5,0,115.9,51.1,115.9,130.8v14.4h-201.3v1.7c0,60.8,34.9,98.2,88.2,98.2c40.4,0,69-20.4,77-49.8H6178.4z M5980.6,1038.9h166.9
		c-0.5-53.3-33.4-89.2-82-89.2C6017.5,949.7,5983.6,985.6,5980.6,1038.9z"/>
	<path fill="#FFFFFF" d="M6318.7,920.6c54.3,0,93.7,32.4,96.4,78.5h-31.6c-3.2-30.4-27.9-50.6-65.8-50.6
		c-35.9,0-62.8,18.4-62.8,45.6c0,21.9,15.9,34.6,50.1,43.1l41.1,10c53.8,13.5,74.2,32.9,74.2,71c0,45.3-43.1,76.7-103.4,76.7
		c-57.6,0-98.9-32.9-102.7-78.5h33.4c4,30.7,30.6,50.8,71.2,50.8c40.1,0,68-18.4,68-46.8c0-22.7-13.7-35.1-50.1-44.1l-45.3-11.5
		c-46.3-11.7-69.3-33.6-69.3-69C6222.3,951.5,6263.4,920.6,6318.7,920.6z"/>
</g>
<path fill="none" stroke="#FFFFFF" stroke-width="45" stroke-miterlimit="10" d="M3139.5,761.4c-145.3,145.4-173.4,377.6-55.6,555.7
	l368.3-243V631.6"/>
<g>
	<path fill="none" stroke="#FFFFFF" stroke-width="45" stroke-miterlimit="10" d="M3885.3,1130.7c208.1,55.6,431.1-48,519.2-251.7
		l-397.5-171.9l-372.5,246.3"/>
</g>
<path fill="none" stroke="#FFFFFF" stroke-width="45" stroke-miterlimit="10" d="M3859.7,295.7C3792.6,137,3635.2,25.5,3452.1,25.3
	v442.3L3858,642.8"/>
<path fill="none" stroke="#FFFFFF" stroke-width="45" stroke-miterlimit="10" d="M3139.7,779.3c-79.9-80.1-129.3-190.6-129.2-312.6
	c0.3-244.1,197.5-441.7,441.6-441.4v883.8C3330.1,909,3219.6,859.4,3139.7,779.3"/>
<path fill="none" stroke="#FFFFFF" stroke-width="45" stroke-miterlimit="10" d="M3821.1,829.8c134.6,203.6,78.6,477.7-125,612.3
	c-203.6,134.6-477.7,78.6-612.3-125L3821.1,829.8z"/>
<path fill="none" stroke="#FFFFFF" stroke-width="45" stroke-miterlimit="10" d="M3593.2,528.4c96.9-224,357.1-327.3,581.1-230.4
	s327.1,357,230.2,581L3593.2,528.4z"/>
<g>
	<g>
		<path fill="#FFFFFF" d="M2156.1,170.7c-61.9-107.1-377.3-49.5-803.7,146.8l-7.2,3.3l6.3,4.9c21.5,16.5,41.1,33.9,58.3,51.7
			l2.3,2.4l3-1.3c318-134.1,553.2-169.3,599.1-89.8c55.4,95.9-164.3,336.9-534.3,585.8l-4.7,3.1l10.7,11.5l3.4-2.2
			C1951.6,586,2225.8,291.5,2156.1,170.7z"/>
		<path fill="#FFFFFF" d="M667.9,1292.2c-239.5,83.5-405,94.4-442.6,29.3c-33.2-57.4,34.2-171.4,184.7-312.9l5.6-5.2l-41.9-15.9
			c-1.9-0.8-35.9-15.4-35.9-15.4l-2.9-1.2l-2.4,2.1C144.4,1146,64,1281.4,106.1,1354.3c49.4,85.6,256.6,68,568.4-48.3l5.8-2.2
			l-9-12.9L667.9,1292.2z"/>
	</g>
	<path fill="#FFFFFF" d="M777.2,145.9c-411,0-745.3,207.6-745.3,462.8c0,255.2,334.3,462.8,745.3,462.8s745.4-207.6,745.4-462.8
		C1522.6,353.5,1188.2,145.9,777.2,145.9z M648.8,790.3c6.9,0,171.2,0,178,0c1.8,6.7,59.6,213.9,62.6,224.5
		c-37.1,4.7-74.8,7.5-112.2,7.5c-63.4,0-126-7-186.4-20.3C593.5,992.4,647,797,648.8,790.3z M666.8,724.6
		c3-10.9,62.3-227.7,70.2-256.7c8.1,28.9,68.5,245.7,71.6,256.7C797.4,724.6,677.8,724.6,666.8,724.6z M738.2,196.2
		c-3.4,12.5-134.7,488.9-142.4,516.9c-8.1-27.8-131-449.6-133.4-457.8C545.7,220.8,640.8,200.5,738.2,196.2z M804.8,195.9
		c97.9,3,193.7,22.1,277.9,55.6c-2.3,8.2-119.1,432.6-126.9,461.2C947.4,684.1,808.5,208.4,804.8,195.9z M1026.9,724.6
		c3-10.9,61.9-227.6,69.8-256.6c8.1,29,68.5,245.7,71.6,256.6C1157.2,724.6,1038,724.6,1026.9,724.6z M994.3,844.6
		c0.6-2.3,13.1-48.2,14.8-54.4c6.9,0,170.6,0,177.5,0c1.8,6.4,27.2,97.7,29,104c-52.1,37.1-112.9,66.8-180.9,88.5
		C1032,973.5,995,847.1,994.3,844.6z M1333.3,773.7c-5.8-19.8-128-438.2-135.1-462.3c118.2,77.8,186.2,185.3,186.2,297.3
		C1384.5,666.1,1366.8,721.4,1333.3,773.7z M518.1,982.2c-98-31.6-181.8-80.2-242.9-141.2c1.3-4.9,12.3-44.8,13.9-50.7
		c6.9,0,169.5,0,176.4,0C467.3,796.8,514.2,968.2,518.1,982.2z M307,724.6c3-10.9,62.2-227.3,70.2-256.5
		c8,29.2,67.3,245.6,70.3,256.5C436.4,724.6,318.1,724.6,307,724.6z M344.6,319.4c-6.7,24.4-119,431.9-124.6,452.3
		c-32.7-51.7-49.9-106.4-49.9-163C170.1,499.4,232.2,397.2,344.6,319.4z"/>
</g>
<rect x="2555" y="7.4" fill="#FFFFFF" width="27" height="1509"/>
<path fill="#FFFFFF" d="M3424.6,1091.8l27.5-17.8l3.9-1044.8c-9,0-18.6-0.4-27.5-0.9L3424.6,1091.8z"/>
<g>
	<path fill="#FFFFFF" d="M4006.9,707.1l-931.8,610.2c5,7.5,9.6,15.2,14.1,22.9l947.2-620.4L4006.9,707.1z"/>
	<path fill="#FFFFFF" d="M4407.5,879.8c3.6-8.2,7.5-16.4,11.5-24.3l-966.9-417.1v29.3L4407.5,879.8z"/>
</g>
</svg>
