<svg xmlns="http://www.w3.org/2000/svg" width="96in" height="30in" viewBox="0 0 6912 2160"><title>Artboard 1</title><path d="M5062.66,561c107.64,0,170.43,66,170.43,179.64,0,113.86-62.53,179.88-170.43,179.88H4944.32V561Zm-84.2,328.63h82.22c88.44,0,137.77-53.32,137.77-148.74,0-95.67-49.33-149-137.77-149h-82.22Z"/><path d="M5280.46,577a22.3,22.3,0,1,1,22.43,22.17C5290.68,599.15,5280.46,588.94,5280.46,577Zm6,75.25h32.89V920.55h-32.89Z"/><path d="M5380.88,945.22h34.38c6.48,23.92,35.63,39.86,75.74,39.86,49.83,0,83-25.66,83-67V863.49h-.75c-14.95,34.63-49.33,58.3-92.18,58.3-67.52,0-113.36-54.81-113.36-136,0-82,45.84-136.53,114.11-136.53,42.85,0,77.48,23.42,93.18,58.55h.5V652.22h31.39V915.57c0,61.54-46.09,98.41-117.85,98.41C5429.72,1014,5387.61,986.33,5380.88,945.22ZM5574,785.76c0-63.53-35.38-107.14-87.19-107.14-51.33,0-85.46,42.86-85.46,107.14,0,64,34.13,106.39,85.46,106.39C5538.59,892.15,5574,848.8,5574,785.76Z"/><path d="M5662.69,577a22.3,22.3,0,1,1,22.43,22.17C5672.91,599.15,5662.69,588.94,5662.69,577Zm6,75.25h32.89V920.55h-32.89Z"/><path d="M5810.7,587.94v64.28h53.07v27.65H5810.7v173.4c0,27.91,11,39.86,35.88,39.86,3.49,0,16.44-.74,18.44-1V920.3c-3.49,1-17.94,1.75-24.92,1.75-44.35,0-62.29-19.19-62.29-67.52V679.87h-38.36V652.22h38.36V587.94Z"/><path d="M5897.68,845.8c0-45.84,34.38-72.5,98.66-77l82.46-5.48V740.42c0-39.12-24.66-61.79-68-61.79-37.38,0-63.53,19.19-69.52,51.08h-31.64c2.74-47.09,45.09-80.47,101.41-80.47,61.54,0,100.65,34.38,100.65,88.45V920.55H6080.3V869.22h-.75c-14.45,32.64-50.82,54.32-91.93,54.32C5934.06,923.54,5897.68,892.15,5897.68,845.8Zm181.12-26.16V790l-78.48,5.49c-45.09,3-69,20.43-69,50.57,0,28.91,25.41,48.58,62.78,48.58C6042.19,894.64,6078.8,862,6078.8,819.65Z"/><path d="M6172,545.33h32.89V920.55H6172Z"/><path d="M4961,1333.2c3.74,43.1,44.35,72.5,100.66,72.5,53.81,0,92.43-29.4,92.43-69.76,0-33.64-23.18-53.56-76.49-67L5033,1257.46c-66.52-16.94-96.17-45.1-96.17-92.44,0-58,52.32-99.41,123.09-99.41,70,0,121.33,41.36,123.32,98.41h-34.13c-3.24-40.6-39.11-67.52-90.19-67.52-49.83,0-86.71,27.65-86.71,67.27,0,30.9,22.43,49.08,75.24,62.54l38.87,10c72.25,18.19,102.65,45.85,102.65,95.92,0,63-50.83,104.39-130.31,104.39-75.25,0-128.06-41.6-131.8-103.4Z"/><path d="M5457.34,1354.88c-8,45.84-52.06,79-110.37,79-74.24,0-121.58-52.08-121.58-136.53,0-83.22,47.34-137.78,119.58-137.78,70.51,0,115.86,51.08,115.86,130.8v14.45H5259.53v1.75c0,60.79,34.88,98.16,88.19,98.16,40.37,0,69-20.43,77-49.82Zm-197.81-77h166.92c-.5-53.32-33.39-89.2-82-89.2C5296.4,1188.69,5262.52,1224.57,5259.53,1277.89Z"/><path d="M5506.71,1162.54h30.89v47.59h1c9.23-31.89,34.63-50.58,68-50.58a80.21,80.21,0,0,1,20.93,2.74v32.64c-4.49-2-14-3.74-25.42-3.74-38.11,0-62.53,29.9-62.53,73.25v166.43h-32.89Z"/><path d="M5774.32,1430.87h-34.88l-100.15-268.33h34.63l82.46,233.2h.75l82.72-233.2h34.38Z"/><path d="M5904.65,1087.29a22.3,22.3,0,1,1,22.43,22.17C5914.87,1109.47,5904.65,1099.26,5904.65,1087.29Zm6,75.25h32.89v268.33h-32.89Z"/><path d="M6190.18,1247c-6.48-32.89-34.63-58.05-77.5-58.05-52.56,0-87.19,42.36-87.19,107.63,0,66.52,34.88,107.63,87.44,107.63,41.12,0,69.77-20.93,77.5-56.06h32.63c-7.72,50.58-50.82,85.71-110.12,85.71-73,0-121.08-52.57-121.08-137.28,0-83,47.84-137,120.58-137,62.78,0,103.9,40.11,110.38,87.45Z"/><path d="M6484.46,1354.88c-8,45.84-52.06,79-110.37,79-74.24,0-121.58-52.08-121.58-136.53,0-83.22,47.34-137.78,119.58-137.78,70.51,0,115.86,51.08,115.86,130.8v14.45H6286.64v1.75c0,60.79,34.88,98.16,88.19,98.16,40.37,0,69-20.43,77-49.82Zm-197.81-77h166.92c-.5-53.32-33.39-89.2-82-89.2C6323.52,1188.69,6289.64,1224.57,6286.64,1277.89Z"/><path d="M6624.75,1159.55c54.32,0,93.69,32.39,96.42,78.48h-31.64c-3.23-30.39-27.9-50.57-65.78-50.57-35.87,0-62.78,18.43-62.78,45.59,0,21.92,15.95,34.63,50.08,43.1l41.12,10c53.81,13.45,74.24,32.89,74.24,71,0,45.35-43.1,76.74-103.39,76.74-57.56,0-98.91-32.89-102.65-78.49h33.39c4,30.65,30.64,50.83,71.25,50.83,40.12,0,68-18.44,68-46.84,0-22.67-13.7-35.13-50.08-44.1l-45.34-11.46c-46.34-11.71-69.27-33.64-69.27-69C6528.33,1190.44,6569.45,1159.55,6624.75,1159.55Z"/><path d="M3445.51,1000.33c-145.27,145.41-173.4,377.57-55.65,555.72l368.32-243V870.53" fill="none" stroke="#000" stroke-miterlimit="10" stroke-width="45"/><path d="M4191.3,1369.7c208.13,55.65,431.14-48,519.22-251.68L4313,946.08,3940.48,1192.4" fill="none" stroke="#000" stroke-miterlimit="10" stroke-width="45"/><path d="M4165.76,534.65C4098.62,376,3941.22,264.5,3758.18,264.29V706.62L4164.1,881.77" fill="none" stroke="#000" stroke-miterlimit="10" stroke-width="45"/><path d="M3445.77,1018.31a440.42,440.42,0,0,1-129.16-312.62c.28-244.06,197.51-441.68,441.56-441.4V1148.1a440.78,440.78,0,0,1-312.41-129.78" fill="none" stroke="#000" stroke-miterlimit="10" stroke-width="45"/><path d="M4127.18,1068.73c134.57,203.6,78.61,477.75-125,612.32s-477.75,78.61-612.32-125Z" fill="none" stroke="#000" stroke-miterlimit="10" stroke-width="45"/><path d="M3899.24,767.39c96.88-224,357.11-327.28,581.11-230.39s327.05,357,230.17,581Z" fill="none" stroke="#000" stroke-miterlimit="10" stroke-width="45"/><path d="M2462.12,409.67c-61.86-107.14-377.31-49.53-803.74,146.78l-7.24,3.32,6.3,4.86a530.09,530.09,0,0,1,58.35,51.72l2.28,2.37,3-1.28c318-134.07,553.15-169.32,599.06-89.82,55.37,95.95-164.34,336.87-534.27,585.83l-4.67,3.15,10.71,11.48,3.37-2.19C2257.67,825,2531.89,530.48,2462.12,409.67Z"/><path d="M973.9,1531.17c-239.54,83.47-405,94.42-442.6,29.29C498.15,1503,565.46,1389,716,1247.6l5.58-5.24-41.88-15.94c-1.94-.79-35.88-15.42-35.88-15.42l-2.86-1.24-2.41,2.07C450.45,1385,370.05,1520.41,412.12,1593.29c49.42,85.56,256.58,68,568.4-48.29l5.82-2.18-9-12.86Z"/><path d="M1083.29,384.89c-411,0-745.32,207.6-745.32,462.78s334.34,462.8,745.32,462.8,745.35-207.62,745.35-462.8S1494.27,384.89,1083.29,384.89ZM954.85,1029.24h178c1.85,6.65,59.63,213.91,62.61,224.54a886.05,886.05,0,0,1-112.21,7.48A869.7,869.7,0,0,1,896.9,1241C899.54,1231.39,953,1036,954.85,1029.24Zm18-65.62c3-10.89,62.31-227.71,70.22-256.66,8.07,28.91,68.51,245.72,71.58,256.66Zm71.47-528.41c-3.45,12.51-134.72,488.92-142.44,516.95-8.1-27.78-131-449.65-133.43-457.84C851.78,459.77,946.86,439.45,1044.28,435.21Zm66.57-.32c97.87,3,193.69,22.12,277.93,55.64-2.26,8.23-119.06,432.57-126.93,461.2C1253.48,923.09,1114.5,447.38,1110.85,434.89ZM1333,963.62c3-10.87,61.87-227.56,69.79-256.62,8.07,29,68.49,245.69,71.56,256.62Zm-32.63,120c.64-2.34,13.12-48.23,14.78-54.35h177.48c1.79,6.37,27.23,97.67,29,104-52.09,37.09-112.93,66.79-180.87,88.54C1338,1212.51,1301.08,1086.06,1300.37,1083.59Zm339-70.94c-5.79-19.79-128-438.19-135.08-462.3,118.25,77.78,186.21,185.34,186.21,297.31C1690.5,905,1672.9,960.41,1639.37,1012.66ZM824.11,1221.21c-98-31.63-181.83-80.17-242.88-141.24,1.34-4.86,12.29-44.84,13.89-50.74H771.53C773.34,1035.8,820.27,1207.12,824.11,1221.21Zm-211-257.6c3-10.89,62.2-227.33,70.17-256.5,8,29.17,67.32,245.61,70.3,256.5Zm37.54-405.28c-6.73,24.43-119,431.93-124.63,452.32-32.7-51.72-49.87-106.41-49.87-163C476.12,738.36,538.26,636.21,650.62,558.33Z"/><rect x="2861" y="246.33" width="27" height="1509"/><path d="M3730.65,1330.81l27.52-17.77,3.94-1044.8c-9,0-18.63-.39-27.52-.94Z"/><path d="M4313,946.08,3381.18,1556.3c5,7.54,9.61,15.2,14.07,22.92l947.21-620.39Z"/><path d="M4713.57,1118.76c3.55-8.22,7.49-16.44,11.47-24.33L3758.18,677.35v29.27Z"/></svg>