<?xml version="1.0" standalone="no"?>
<!DOCTYPE svg PUBLIC "-//W3C//DTD SVG 20010904//EN"
 "http://www.w3.org/TR/2001/REC-SVG-20010904/DTD/svg10.dtd">
<svg version="1.0" xmlns="http://www.w3.org/2000/svg"
 width="113.000000pt" height="113.000000pt" viewBox="0 0 113.000000 113.000000"
 preserveAspectRatio="xMidYMid meet">
<metadata>
Created by potrace 1.11, written by Peter Selinger 2001-2013
</metadata>
<g transform="translate(0.000000,113.000000) scale(0.100000,-0.100000)"
fill="#000000" stroke="none">
<path d="M270 1106 c-79 -29 -93 -38 -138 -83 -57 -57 -81 -105 -95 -187 -13
-80 3 -156 47 -226 28 -44 32 -56 21 -67 -35 -35 -69 -128 -72 -195 -9 -281
296 -443 529 -282 47 33 104 116 119 174 l12 45 64 -3 c292 -16 460 337 261
550 -76 81 -146 109 -269 105 l-85 -3 -30 43 c-32 47 -92 95 -151 120 -49 21
-168 25 -213 9z m295 -409 c105 -45 191 -86 191 -92 0 -8 -377 -265 -388 -265
-3 0 -2 432 1 438 2 4 0 4 196 -81z"/>
</g>
</svg>
