<?xml version="1.0" encoding="UTF-8"?>
<svg width="100px" height="33px" viewBox="0 0 100 33" version="1.1" xmlns="http://www.w3.org/2000/svg" xmlns:xlink="http://www.w3.org/1999/xlink" xmlns:sketch="http://www.bohemiancoding.com/sketch/ns">
    <!-- Generator: Sketch 3.4.2 (15855) - http://www.bohemiancoding.com/sketch -->
    <title>core-visa-logo</title>
    <desc>Created with Sketch.</desc>
    <defs></defs>
    <g id="Page-1" stroke="none" stroke-width="1" fill="none" fill-rule="evenodd" sketch:type="MSPage">
        <g id="core-visa-logo" sketch:type="MSLayerGroup">
            <g id="Page-1" sketch:type="MSShapeGroup">
                <g id="core-visa-logo">
                    <g id="Group">
                        <g id="Shape" transform="translate(34.848485, 0.000000)" fill="#0767B0">
                            <path d="M8.48484848,31.8 L0.454545455,31.8 L5.45454545,1.2 L13.6363636,1.2 L8.48484848,31.8 L8.48484848,31.8 Z"></path>
                            <path d="M56.969697,31.8 L64.3939394,31.8 L57.8787879,1.2 L51.5151515,1.2 C48.4848485,1.2 47.7272727,3.45 47.7272727,3.45 L35.7575758,31.8 L44.0909091,31.8 L45.7575758,27.3 L56.0606061,27.3 L56.969697,31.8 L56.969697,31.8 L56.969697,31.8 Z M48.1818182,21 L52.4242424,9.6 L54.8484848,21 L48.1818182,21 L48.1818182,21 L48.1818182,21 Z"></path>
                            <path d="M36.3636364,8.55 L37.5757576,1.95 C37.5757576,1.95 34.0909091,0.6 30.3030303,0.6 C26.3636364,0.6 16.8181818,2.4 16.8181818,10.8 C16.8181818,18.75 27.8787879,18.75 27.8787879,22.95 C27.8787879,27.15 17.8787879,26.4 14.5454545,23.7 L13.3333333,30.6 C13.3333333,30.6 16.969697,32.4 22.4242424,32.4 C27.8787879,32.4 36.2121212,29.55 36.2121212,21.9 C36.2121212,13.95 25,13.2 25,9.75 C25.1515152,6.15 33.030303,6.6 36.3636364,8.55 L36.3636364,8.55 L36.3636364,8.55 Z"></path>
                        </g>
                        <path d="M28.6363636,1.2 L20.9090909,22.2 L20,17.7 L20,17.7 L20,17.7 C20,17.7 18.1818182,12.15 12.5757576,7.65 C11.3636364,6.75 10.1515152,6 9.09090909,5.25 L16.0606061,31.8 L24.3939394,31.8 L37.2727273,1.2 L28.6363636,1.2 L28.6363636,1.2 L28.6363636,1.2 Z" id="Shape" fill="#0767B0"></path>
                        <path d="M20.1515152,17.7 L17.4242424,3.9 C17.4242424,3.9 17.1212121,1.2 13.6363636,1.2 L0.909090909,1.2 L0.757575758,1.65 C0.757575758,1.65 6.81818182,2.85 12.7272727,7.65 C18.1818182,12.15 20.1515152,17.7 20.1515152,17.7 L20.1515152,17.7 L20.1515152,17.7 Z" id="Shape" fill="#F9A533"></path>
                    </g>
                </g>
            </g>
        </g>
    </g>
</svg>