<?xml version="1.0" encoding="UTF-8"?>
<svg width="66px" height="52px" viewBox="0 0 66 52" version="1.1" xmlns="http://www.w3.org/2000/svg" xmlns:xlink="http://www.w3.org/1999/xlink" xmlns:sketch="http://www.bohemiancoding.com/sketch/ns">
    <!-- Generator: Sketch 3.4.2 (15855) - http://www.bohemiancoding.com/sketch -->
    <title>core-discover</title>
    <desc>Created with Sketch.</desc>
    <defs></defs>
    <g id="Page-1" stroke="none" stroke-width="1" fill="none" fill-rule="evenodd" sketch:type="MSPage">
        <g id="core-discover" sketch:type="MSLayerGroup">
            <g id="Group" sketch:type="MSShapeGroup">
                <path d="M61.3,2.5 C62.6,2.5 63.7,3.6 63.7,4.9 L63.7,47.2 C63.7,48.5 62.6,49.6 61.3,49.6 L4.7,49.6 C3.4,49.6 2.3,48.5 2.3,47.2 L2.3,4.9 C2.3,3.6 3.4,2.5 4.7,2.5 L61.3,2.5" id="Shape" fill="#FFFFFF"></path>
                <g>
                    <g transform="translate(7.000000, 17.000000)">
                        <path d="M2.9,0.5 L0.5,0.5 L0.5,8.7 L2.8,8.7 C4,8.7 4.9,8.4 5.7,7.8 C6.6,7 7.2,5.9 7.2,4.6 C7.3,2.2 5.5,0.5 2.9,0.5 L2.9,0.5 Z M4.8,6.7 C4.3,7.2 3.6,7.4 2.6,7.4 L2.2,7.4 L2.2,2 L2.6,2 C3.6,2 4.3,2.2 4.8,2.7 C5.4,3.2 5.7,4 5.7,4.7 C5.7,5.4 5.3,6.2 4.8,6.7 L4.8,6.7 Z" id="Shape" fill="#221F1F"></path>
                        <rect id="Rectangle-path" fill="#221F1F" x="8.1" y="0.5" width="1.6" height="8.2"></rect>
                        <path d="M13.6,3.7 C12.6,3.3 12.4,3.1 12.4,2.7 C12.4,2.2 12.9,1.8 13.6,1.8 C14.1,1.8 14.5,2 14.9,2.5 L15.7,1.4 C15,0.8 14.2,0.5 13.3,0.5 C11.8,0.5 10.7,1.5 10.7,2.9 C10.7,4 11.2,4.6 12.7,5.2 C13.3,5.4 13.6,5.6 13.8,5.7 C14.1,5.9 14.3,6.2 14.3,6.6 C14.3,7.3 13.8,7.8 13.1,7.8 C12.3,7.8 11.7,7.4 11.4,6.7 L10.4,7.7 C11.1,8.8 12,9.3 13.2,9.3 C14.9,9.3 16,8.2 16,6.6 C15.9,4.9 15.4,4.4 13.6,3.7 L13.6,3.7 Z" id="Shape" fill="#221F1F"></path>
                        <path d="M16.4,4.6 C16.4,7 18.3,8.9 20.7,8.9 C21.4,8.9 22,8.8 22.7,8.4 L22.7,6.5 C22.1,7.1 21.5,7.4 20.8,7.4 C19.2,7.4 18,6.2 18,4.6 C18,3 19.2,1.8 20.7,1.8 C21.5,1.8 22,2.1 22.7,2.7 L22.7,0.8 C22,0.4 21.4,0.3 20.7,0.3 C18.4,0.3 16.4,2.3 16.4,4.6 L16.4,4.6 Z" id="Shape" fill="#221F1F"></path>
                        <path d="M35.5,6.1 L33.3,0.5 L31.6,0.5 L35,9 L35.9,9 L39.5,0.5 L37.7,0.5 L35.5,6.1 Z" id="Shape" fill="#221F1F"></path>
                        <path d="M40.2,8.7 L44.7,8.7 L44.7,7.4 L41.8,7.4 L41.8,5.1 L44.6,5.1 L44.6,3.7 L41.8,3.7 L41.8,1.9 L44.7,1.9 L44.7,0.5 L40.2,0.5 L40.2,8.7 Z" id="Shape" fill="#221F1F"></path>
                        <path d="M51.1,3 C51.1,1.5 50,0.6 48.2,0.6 L45.8,0.6 L45.8,8.8 L47.4,8.8 L47.4,5.5 L47.6,5.5 L49.8,8.8 L51.8,8.8 L49.2,5.3 C50.4,5 51.1,4.2 51.1,3 L51.1,3 Z M47.9,4.3 L47.4,4.3 L47.4,1.8 L47.9,1.8 C48.9,1.8 49.4,2.2 49.4,3 C49.4,3.9 48.9,4.3 47.9,4.3 L47.9,4.3 Z" id="Shape" fill="#221F1F"></path>
                        <circle id="Oval" fill="#F38020" cx="27.7" cy="4.7" r="4.4"></circle>
                        <g transform="translate(51.000000, 0.000000)" id="Shape" fill="#221F1F">
                            <path d="M1.1,0.8 C1.1,0.7 1,0.6 0.8,0.6 L0.6,0.6 L0.6,1.3 L0.8,1.3 L0.8,1 L1,1.3 L1.2,1.3 L0.9,1 C1,1 1.1,0.9 1.1,0.8 L1.1,0.8 Z M0.8,0.9 L0.8,0.9 L0.8,0.7 L0.8,0.7 C0.9,0.7 0.9,0.7 0.9,0.8 C0.9,0.9 0.9,0.9 0.8,0.9 L0.8,0.9 Z"></path>
                            <path d="M0.9,0.3 C0.5,0.3 0.3,0.6 0.3,0.9 C0.3,1.2 0.6,1.5 0.9,1.5 C1.2,1.5 1.5,1.2 1.5,0.9 C1.5,0.6 1.2,0.3 0.9,0.3 L0.9,0.3 Z M0.9,1.5 C0.6,1.5 0.4,1.3 0.4,1 C0.4,0.7 0.6,0.5 0.9,0.5 C1.2,0.5 1.4,0.7 1.4,1 C1.4,1.3 1.1,1.5 0.9,1.5 L0.9,1.5 Z"></path>
                        </g>
                    </g>
                    <path d="M61.3,49.5 C62.6,49.5 63.7,48.4 63.7,47.1 L63.7,34.8 C59.3,37.5 46.1,44.8 25.1,49.5 L61.3,49.5 L61.3,49.5 Z" id="Shape" fill="#F38020"></path>
                    <path d="M61.3,2.5 C62.6,2.5 63.7,3.6 63.7,4.9 L63.7,47.2 C63.7,48.5 62.6,49.6 61.3,49.6 L4.7,49.6 C3.4,49.6 2.3,48.5 2.3,47.2 L2.3,4.9 C2.3,3.6 3.4,2.5 4.7,2.5 L61.3,2.5 L61.3,2.5 Z M61.3,0.7 L4.7,0.7 C2.4,0.7 0.5,2.6 0.5,4.9 L0.5,47.2 C0.5,49.5 2.4,51.4 4.7,51.4 L61.4,51.4 C63.7,51.4 65.6,49.5 65.6,47.2 L65.6,4.9 C65.5,2.6 63.7,0.7 61.3,0.7 L61.3,0.7 L61.3,0.7 Z" id="Shape" fill="#5F6062"></path>
                </g>
            </g>
        </g>
    </g>
</svg>