<?xml version="1.0" encoding="UTF-8"?>
<svg width="100px" height="61px" viewBox="0 0 100 61" version="1.1" xmlns="http://www.w3.org/2000/svg" xmlns:xlink="http://www.w3.org/1999/xlink" xmlns:sketch="http://www.bohemiancoding.com/sketch/ns">
    <!-- Generator: Sketch 3.4.2 (15855) - http://www.bohemiancoding.com/sketch -->
    <title>core-mastercard-logo</title>
    <desc>Created with Sketch.</desc>
    <defs></defs>
    <g id="Page-1" stroke="none" stroke-width="1" fill="none" fill-rule="evenodd" sketch:type="MSPage">
        <g id="core-mastercard-logo" sketch:type="MSLayerGroup">
            <g id="Group" sketch:type="MSShapeGroup">
                <g>
                    <g>
                        <ellipse id="Oval" fill="#EC2127" cx="30.1515152" cy="30.5" rx="29.5454545" ry="29.7375"></ellipse>
                        <path d="M69.8484848,0.7625 C62.2727273,0.7625 55.3030303,3.66 50,8.3875 C48.9393939,9.3025 47.8787879,10.37 46.969697,11.59 L53.030303,11.59 C53.7878788,12.6575 54.5454545,13.5725 55.3030303,14.7925 L44.8484848,14.7925 C44.2424242,15.86 43.6363636,16.775 43.1818182,17.995 L56.969697,17.995 C57.4242424,19.0625 57.8787879,20.13 58.1818182,21.1975 L41.8181818,21.1975 C41.5151515,22.265 41.2121212,23.3325 40.9090909,24.4 L59.0909091,24.4 C59.5454545,26.3825 59.6969697,28.5175 59.6969697,30.6525 C59.6969697,34.0075 59.0909091,37.0575 58.1818182,40.1075 L41.8181818,40.1075 C42.1212121,41.175 42.5757576,42.2425 43.030303,43.31 L56.8181818,43.31 C56.3636364,44.3775 55.7575758,45.445 55.1515152,46.5125 L44.6969697,46.5125 C45.4545455,47.58 46.0606061,48.6475 46.969697,49.715 L53.030303,49.715 C52.1212121,50.7825 51.0606061,51.85 50,52.9175 C55.3030303,57.645 62.1212121,60.5425 69.8484848,60.5425 C86.0606061,60.5425 99.3939394,47.275 99.3939394,30.805 C99.2424242,14.03 86.0606061,0.7625 69.8484848,0.7625 L69.8484848,0.7625 Z" id="Shape" fill="#FAA61B"></path>
                    </g>
                    <path d="M95.3030303,46.97 C95.3030303,46.5125 95.7575758,46.055 96.2121212,46.055 C96.6666667,46.055 97.1212121,46.5125 97.1212121,46.97 C97.1212121,47.4275 96.6666667,47.885 96.2121212,47.885 C95.7575758,47.885 95.3030303,47.58 95.3030303,46.97 L95.3030303,46.97 Z M96.3636364,47.7325 C96.8181818,47.7325 97.1212121,47.4275 97.1212121,46.97 C97.1212121,46.5125 96.8181818,46.2075 96.3636364,46.2075 C95.9090909,46.2075 95.6060606,46.5125 95.6060606,46.97 C95.6060606,47.4275 95.9090909,47.7325 96.3636364,47.7325 L96.3636364,47.7325 Z M96.2121212,47.4275 L96.0606061,47.4275 L96.0606061,46.5125 L96.3636364,46.5125 L96.5151515,46.5125 L96.6666667,46.665 C96.6666667,46.8175 96.6666667,46.8175 96.5151515,46.8175 L96.6666667,47.1225 L96.5151515,47.1225 L96.3636364,46.8175 L96.2121212,46.8175 L96.2121212,47.4275 L96.2121212,47.4275 Z M96.2121212,46.97 L96.2121212,46.97 L96.3636364,46.97 C96.3636364,46.97 96.3636364,46.97 96.3636364,46.8175 C96.3636364,46.8175 96.3636364,46.8175 96.3636364,46.665 L96.2121212,46.665 L96.0606061,46.665 L96.0606061,46.97 L96.2121212,46.97 Z" id="Shape" fill="#000000"></path>
                </g>
                <g transform="translate(1.515152, 21.350000)" id="Shape">
                    <g transform="translate(0.000000, 1.525000)" fill="#000000">
                        <path d="M21.8181818,10.8275 L21.0606061,10.8275 C19.2424242,10.8275 18.3333333,11.4375 18.3333333,12.6575 C18.3333333,13.42 18.7878788,13.8775 19.5454545,13.8775 C20.7575758,13.8775 21.8181818,12.6575 21.8181818,10.8275 L21.8181818,10.8275 Z M24.0909091,16.3175 L21.3636364,16.3175 L21.3636364,15.0975 C20.6060606,16.165 19.5454545,16.6225 18.030303,16.6225 C16.3636364,16.6225 15.1515152,15.25 15.1515152,13.2675 C15.1515152,10.2175 17.2727273,8.54 20.7575758,8.54 C21.0606061,8.54 21.5151515,8.54 22.1212121,8.6925 C22.2727273,8.235 22.2727273,8.0825 22.2727273,7.93 C22.2727273,7.1675 21.6666667,6.8625 20.1515152,6.8625 C18.6363636,6.8625 17.2727273,7.1675 16.8181818,7.4725 C16.8181818,7.32 17.2727273,4.7275 17.2727273,4.7275 C18.9393939,4.27 19.8484848,4.1175 21.0606061,4.1175 C23.7878788,4.1175 25.3030303,5.3375 25.3030303,7.7775 C25.3030303,8.3875 25.1515152,9.15 25,10.2175 C24.8484848,11.59 24.2424242,15.4025 24.0909091,16.3175 L24.0909091,16.3175 Z"></path>
                        <path d="M13.9393939,16.3175 L10.7575758,16.3175 L12.5757576,4.7275 L8.48484848,16.3175 L6.21212121,16.3175 L6.06060606,4.7275 L4.09090909,16.3175 L1.06060606,16.3175 L3.63636364,1.22 L8.18181818,1.22 L8.48484848,9.6075 L11.2121212,1.22 L16.3636364,1.22 L13.9393939,16.3175 Z"></path>
                        <path d="M72.2727273,10.8275 L71.5151515,10.8275 C69.6969697,10.8275 68.7878788,11.4375 68.7878788,12.6575 C68.7878788,13.42 69.2424242,13.8775 70,13.8775 C71.2121212,13.8775 72.1212121,12.6575 72.2727273,10.8275 L72.2727273,10.8275 Z M74.5454545,16.3175 L71.8181818,16.3175 L71.8181818,15.0975 C71.0606061,16.165 70,16.6225 68.4848485,16.6225 C66.8181818,16.6225 65.6060606,15.25 65.6060606,13.2675 C65.6060606,10.2175 67.7272727,8.54 71.2121212,8.54 C71.5151515,8.54 71.969697,8.54 72.5757576,8.6925 C72.7272727,8.235 72.7272727,8.0825 72.7272727,7.93 C72.7272727,7.1675 72.1212121,6.8625 70.6060606,6.8625 C69.0909091,6.8625 67.7272727,7.1675 67.2727273,7.4725 C67.2727273,7.32 67.7272727,4.7275 67.7272727,4.7275 C69.3939394,4.27 70.3030303,4.1175 71.5151515,4.1175 C74.2424242,4.1175 75.7575758,5.3375 75.7575758,7.7775 C75.7575758,8.3875 75.6060606,9.15 75.4545455,10.2175 C75.3030303,11.59 74.6969697,15.4025 74.5454545,16.3175 L74.5454545,16.3175 Z"></path>
                        <path d="M38.3333333,16.0125 C37.4242424,16.3175 36.8181818,16.47 36.0606061,16.47 C34.3939394,16.47 33.4848485,15.555 33.4848485,13.725 C33.4848485,13.115 33.7878788,11.7425 33.9393939,10.5225 C34.0909091,9.3025 35.3030303,2.135 35.3030303,2.135 L38.4848485,2.135 L38.1818182,3.965 L40.1515152,3.965 L39.6969697,6.8625 L37.7272727,6.8625 C37.4242424,9.15 36.8181818,12.0475 36.8181818,12.505 C36.8181818,13.115 37.1212121,13.42 37.8787879,13.42 C38.1818182,13.42 38.4848485,13.42 38.7878788,13.2675 L38.3333333,16.0125 L38.3333333,16.0125 Z"></path>
                        <path d="M48.1818182,16.0125 C47.1212121,16.3175 46.0606061,16.47 44.8484848,16.47 C41.2121212,16.47 39.3939394,14.64 39.3939394,10.98 C39.3939394,6.8625 41.8181818,3.66 45,3.66 C47.5757576,3.66 49.2424242,5.3375 49.2424242,8.0825 C49.2424242,8.9975 49.0909091,9.9125 48.7878788,11.1325 L42.4242424,11.1325 C42.4242424,12.9625 43.4848485,13.725 45.3030303,13.725 C46.5151515,13.725 47.4242424,13.42 48.6363636,12.9625 L48.1818182,16.0125 L48.1818182,16.0125 Z M46.3636364,8.6925 C46.3636364,8.3875 46.6666667,6.5575 44.8484848,6.5575 C43.7878788,6.5575 43.1818182,7.32 42.8787879,8.6925 L46.3636364,8.6925 L46.3636364,8.6925 Z"></path>
                        <path d="M26.0606061,7.93 C26.0606061,9.455 26.8181818,10.5225 28.4848485,11.285 C29.8484848,11.895 30,12.0475 30,12.6575 C30,13.42 29.3939394,13.725 28.1818182,13.725 C27.2727273,13.725 26.3636364,13.5725 25.3030303,13.2675 C25.3030303,13.2675 24.8484848,16.0125 24.8484848,16.165 C25.6060606,16.3175 26.2121212,16.47 28.1818182,16.47 C31.5151515,16.47 33.1818182,15.25 33.1818182,12.3525 C33.1818182,10.675 32.5757576,9.6075 30.9090909,8.9975 C29.5454545,8.3875 29.3939394,8.235 29.3939394,7.625 C29.3939394,7.015 30,6.5575 30.9090909,6.5575 C31.5151515,6.5575 32.4242424,6.5575 33.1818182,6.71 L33.6363636,3.8125 C32.8787879,3.66 31.5151515,3.5075 30.7575758,3.5075 C27.2727273,3.8125 26.0606061,5.6425 26.0606061,7.93 L26.0606061,7.93 Z"></path>
                        <path d="M63.6363636,4.1175 C64.5454545,4.1175 65.3030303,4.4225 66.5151515,4.88 L66.969697,1.6775 C66.5151515,1.525 64.8484848,0.4575 63.4848485,0.4575 C61.3636364,0.4575 59.5454545,1.525 58.3333333,3.355 C56.5151515,2.745 55.7575758,3.965 54.8484848,5.185 L54.0909091,5.3375 C54.0909091,4.88 54.2424242,4.575 54.2424242,4.1175 L51.3636364,4.1175 C50.9090909,7.93 50.3030303,11.7425 49.6969697,15.555 L49.5454545,16.3175 L52.7272727,16.3175 C53.3333333,12.81 53.4848485,10.5225 53.7878788,8.9975 L55,8.3875 C55.1515152,7.7775 55.7575758,7.4725 56.8181818,7.4725 C56.6666667,8.235 56.5151515,9.15 56.5151515,9.9125 C56.5151515,13.8775 58.6363636,16.47 62.1212121,16.47 C63.030303,16.47 63.7878788,16.3175 65,16.0125 L65.6060606,12.505 C64.5454545,12.9625 63.6363636,13.2675 62.8787879,13.2675 C61.0606061,13.2675 59.8484848,11.895 59.8484848,9.6075 C59.5454545,6.405 61.3636364,4.1175 63.6363636,4.1175 L63.6363636,4.1175 Z"></path>
                        <path d="M90.7575758,1.22 L90,5.6425 C89.0909091,4.4225 88.1818182,3.66 86.969697,3.66 C85.3030303,3.66 83.9393939,4.88 82.8787879,6.71 C81.5151515,6.405 80.1515152,5.9475 80.1515152,5.9475 L80.1515152,5.9475 C80.3030303,4.88 80.3030303,4.27 80.3030303,4.1175 L77.4242424,4.1175 C76.969697,7.93 76.3636364,11.7425 75.7575758,15.555 L75.6060606,16.3175 L78.7878788,16.3175 C79.2424242,13.42 79.5454545,11.1325 79.8484848,9.3025 C80.9090909,8.235 81.5151515,7.4725 82.5757576,7.4725 C82.1212121,8.6925 81.8181818,10.065 81.8181818,11.4375 C81.8181818,14.4875 83.3333333,16.47 85.7575758,16.47 C86.969697,16.47 87.8787879,16.0125 88.6363636,15.0975 L88.4848485,16.165 L91.5151515,16.165 L93.9393939,1.0675 L90.7575758,1.0675 L90.7575758,1.22 Z M86.8181818,13.42 C85.7575758,13.42 85.1515152,12.6575 85.1515152,10.98 C85.1515152,8.54 86.2121212,6.8625 87.5757576,6.8625 C88.6363636,6.8625 89.2424242,7.7775 89.2424242,9.3025 C89.3939394,11.7425 88.3333333,13.42 86.8181818,13.42 L86.8181818,13.42 Z"></path>
                    </g>
                    <g transform="translate(1.515152, 0.000000)" fill="#FFFFFF">
                        <path d="M13.3333333,16.9275 L10.1515152,16.9275 L11.969697,5.3375 L7.87878788,16.9275 L5.75757576,16.9275 L5.45454545,5.3375 L3.48484848,16.9275 L0.454545455,16.9275 L3.03030303,1.83 L7.57575758,1.83 L7.72727273,11.1325 L10.7575758,1.83 L15.7575758,1.83 L13.3333333,16.9275 Z"></path>
                        <path d="M21.2121212,11.4375 L20.4545455,11.4375 C18.6363636,11.4375 17.7272727,12.0475 17.7272727,13.2675 C17.7272727,14.03 18.1818182,14.4875 18.9393939,14.4875 C20.1515152,14.4875 21.2121212,13.2675 21.2121212,11.4375 L21.2121212,11.4375 Z M23.4848485,16.9275 L20.7575758,16.9275 L20.7575758,15.7075 C20,16.775 18.9393939,17.2325 17.4242424,17.2325 C15.7575758,17.2325 14.5454545,15.86 14.5454545,13.8775 C14.5454545,10.8275 16.6666667,9.15 20.1515152,9.15 C20.4545455,9.15 20.9090909,9.15 21.5151515,9.3025 C21.6666667,8.845 21.6666667,8.6925 21.6666667,8.54 C21.6666667,7.7775 21.0606061,7.4725 19.5454545,7.4725 C18.030303,7.4725 16.6666667,7.7775 16.2121212,8.0825 C16.2121212,7.93 16.6666667,5.3375 16.6666667,5.3375 C18.3333333,4.88 19.2424242,4.7275 20.4545455,4.7275 C23.1818182,4.7275 24.6969697,5.9475 24.6969697,8.3875 C24.6969697,8.9975 24.5454545,9.76 24.3939394,10.8275 C24.2424242,12.2 23.6363636,16.0125 23.4848485,16.9275 L23.4848485,16.9275 Z"></path>
                        <path d="M66.5151515,2.2875 L66.0606061,5.49 C64.8484848,4.88 64.0909091,4.7275 63.1818182,4.7275 C60.7575758,4.7275 59.0909091,7.015 59.0909091,10.37 C59.0909091,12.6575 60.1515152,14.03 62.1212121,14.03 C62.8787879,14.03 63.7878788,13.725 64.8484848,13.2675 L64.2424242,16.6225 C63.030303,16.9275 62.2727273,17.08 61.3636364,17.08 C57.8787879,17.08 55.7575758,14.64 55.7575758,10.5225 C55.7575758,5.185 58.7878788,1.3725 63.030303,1.3725 C64.3939394,1.525 66.0606061,2.135 66.5151515,2.2875 L66.5151515,2.2875 Z"></path>
                        <path d="M71.6666667,11.4375 L70.9090909,11.4375 C69.0909091,11.4375 68.1818182,12.0475 68.1818182,13.2675 C68.1818182,14.03 68.6363636,14.4875 69.3939394,14.4875 C70.6060606,14.4875 71.5151515,13.2675 71.6666667,11.4375 L71.6666667,11.4375 Z M73.9393939,16.9275 L71.2121212,16.9275 L71.2121212,15.7075 C70.4545455,16.775 69.3939394,17.2325 67.8787879,17.2325 C66.2121212,17.2325 65,15.86 65,13.8775 C65,10.8275 67.1212121,9.15 70.6060606,9.15 C70.9090909,9.15 71.3636364,9.15 71.969697,9.3025 C72.1212121,8.845 72.1212121,8.6925 72.1212121,8.54 C72.1212121,7.7775 71.5151515,7.4725 70,7.4725 C68.4848485,7.4725 67.1212121,7.7775 66.6666667,8.0825 C66.6666667,7.93 67.1212121,5.3375 67.1212121,5.3375 C68.7878788,4.88 69.6969697,4.7275 70.9090909,4.7275 C73.6363636,4.7275 75.1515152,5.9475 75.1515152,8.3875 C75.1515152,8.9975 75,9.76 74.8484848,10.8275 C74.6969697,12.2 74.0909091,16.0125 73.9393939,16.9275 L73.9393939,16.9275 Z"></path>
                        <path d="M37.7272727,16.775 C36.8181818,17.08 36.2121212,17.2325 35.4545455,17.2325 C33.7878788,17.2325 32.8787879,16.3175 32.8787879,14.4875 C32.8787879,13.8775 33.1818182,12.505 33.3333333,11.285 C33.4848485,10.065 34.6969697,2.8975 34.6969697,2.8975 L37.8787879,2.8975 L37.5757576,4.7275 L39.2424242,4.7275 L38.7878788,7.625 L37.1212121,7.625 C36.8181818,9.9125 36.2121212,12.81 36.2121212,13.2675 C36.2121212,13.8775 36.5151515,14.1825 37.2727273,14.1825 C37.5757576,14.1825 37.8787879,14.1825 38.1818182,14.03 L37.7272727,16.775 L37.7272727,16.775 Z"></path>
                        <path d="M47.5757576,16.6225 C46.5151515,16.9275 45.4545455,17.08 44.2424242,17.08 C40.6060606,17.08 38.7878788,15.25 38.7878788,11.59 C38.7878788,7.4725 41.2121212,4.27 44.3939394,4.27 C46.969697,4.27 48.6363636,5.9475 48.6363636,8.6925 C48.6363636,9.6075 48.4848485,10.5225 48.1818182,11.7425 L41.8181818,11.7425 C41.6666667,13.5725 42.7272727,14.335 44.5454545,14.335 C45.7575758,14.335 46.6666667,14.03 47.8787879,13.5725 L47.5757576,16.6225 L47.5757576,16.6225 Z M45.7575758,9.3025 C45.7575758,8.9975 46.0606061,7.1675 44.2424242,7.1675 C43.1818182,7.1675 42.5757576,7.93 42.2727273,9.3025 L45.7575758,9.3025 L45.7575758,9.3025 Z"></path>
                        <path d="M25.4545455,8.54 C25.4545455,10.065 26.2121212,11.1325 27.8787879,11.895 C29.2424242,12.505 29.3939394,12.6575 29.3939394,13.2675 C29.3939394,14.03 28.7878788,14.335 27.5757576,14.335 C26.6666667,14.335 25.7575758,14.1825 24.6969697,13.8775 C24.6969697,13.8775 24.2424242,16.6225 24.2424242,16.775 C25,16.9275 25.6060606,17.08 27.5757576,17.08 C30.9090909,17.08 32.5757576,15.86 32.5757576,12.9625 C32.5757576,11.285 31.969697,10.2175 30.3030303,9.6075 C28.9393939,8.9975 28.7878788,8.845 28.7878788,8.235 C28.7878788,7.625 29.3939394,7.1675 30.3030303,7.1675 C30.9090909,7.1675 31.8181818,7.1675 32.5757576,7.32 L33.030303,4.4225 C32.2727273,4.27 30.9090909,4.1175 30.1515152,4.1175 C26.6666667,4.4225 25.4545455,6.2525 25.4545455,8.54 L25.4545455,8.54 Z"></path>
                        <path d="M90.9090909,16.9275 L87.8787879,16.9275 L88.030303,15.86 C87.1212121,16.775 86.2121212,17.2325 85.1515152,17.2325 C82.8787879,17.2325 81.2121212,15.25 81.2121212,12.2 C81.2121212,8.0825 83.6363636,4.7275 86.3636364,4.7275 C87.5757576,4.7275 88.4848485,5.185 89.3939394,6.405 L90.1515152,1.9825 L93.3333333,1.9825 L90.9090909,16.9275 L90.9090909,16.9275 Z M86.2121212,14.03 C87.7272727,14.03 88.7878788,12.3525 88.7878788,9.9125 C88.7878788,8.3875 88.1818182,7.4725 87.1212121,7.4725 C85.6060606,7.4725 84.6969697,9.15 84.6969697,11.59 C84.5454545,13.2675 85.1515152,14.03 86.2121212,14.03 L86.2121212,14.03 Z"></path>
                        <path d="M76.8181818,4.7275 C76.3636364,8.54 75.7575758,12.3525 75.1515152,16.165 L75,16.9275 L78.1818182,16.9275 C79.3939394,9.455 79.5454545,7.93 81.3636364,8.235 C81.6666667,6.71 82.1212121,5.3375 82.5757576,4.7275 C81.2121212,4.4225 80.4545455,5.185 79.5454545,6.71 C79.6969697,6.1 79.6969697,5.49 79.6969697,4.88 L76.8181818,4.88 L76.8181818,4.7275 Z"></path>
                        <path d="M50.4545455,4.7275 C50,8.54 49.3939394,12.3525 48.7878788,16.165 L48.6363636,16.9275 L51.8181818,16.9275 C53.030303,9.455 53.1818182,7.93 55,8.235 C55.3030303,6.71 55.7575758,5.3375 56.2121212,4.7275 C54.8484848,4.4225 54.0909091,5.185 53.1818182,6.71 C53.3333333,6.1 53.3333333,5.49 53.3333333,4.88 L50.4545455,4.88 L50.4545455,4.7275 Z"></path>
                        <path d="M92.2727273,16.0125 C92.2727273,15.555 92.7272727,15.0975 93.1818182,15.0975 C93.6363636,15.0975 94.0909091,15.555 94.0909091,16.0125 C94.0909091,16.47 93.6363636,16.9275 93.1818182,16.9275 C92.7272727,16.9275 92.2727273,16.47 92.2727273,16.0125 L92.2727273,16.0125 Z M93.3333333,16.6225 C93.7878788,16.6225 94.0909091,16.3175 94.0909091,15.86 C94.0909091,15.4025 93.7878788,15.0975 93.3333333,15.0975 C92.8787879,15.0975 92.5757576,15.4025 92.5757576,15.86 C92.5757576,16.3175 92.8787879,16.6225 93.3333333,16.6225 L93.3333333,16.6225 Z M93.1818182,16.3175 L93.030303,16.3175 L93.030303,15.4025 L93.3333333,15.4025 L93.4848485,15.4025 L93.6363636,15.555 C93.6363636,15.7075 93.6363636,15.7075 93.4848485,15.7075 L93.6363636,16.0125 L93.4848485,16.0125 L93.3333333,15.7075 L93.1818182,15.7075 L93.1818182,16.3175 L93.1818182,16.3175 Z M93.1818182,15.86 L93.1818182,15.86 L93.4848485,15.86 C93.4848485,15.86 93.4848485,15.86 93.4848485,15.7075 C93.4848485,15.7075 93.4848485,15.7075 93.4848485,15.555 L93.3333333,15.555 L93.1818182,15.555 L93.1818182,15.86 L93.1818182,15.86 Z"></path>
                    </g>
                </g>
            </g>
        </g>
    </g>
</svg>