<?xml version="1.0" encoding="UTF-8"?>
<svg width="66px" height="12px" viewBox="0 0 66 12" version="1.1" xmlns="http://www.w3.org/2000/svg" xmlns:xlink="http://www.w3.org/1999/xlink" xmlns:sketch="http://www.bohemiancoding.com/sketch/ns">
    <!-- Generator: Sketch 3.4.2 (15855) - http://www.bohemiancoding.com/sketch -->
    <title>core-discover-logo</title>
    <desc>Created with Sketch.</desc>
    <defs></defs>
    <g id="Page-1" stroke="none" stroke-width="1" fill="none" fill-rule="evenodd" sketch:type="MSPage">
        <g id="core-discover-logo" sketch:type="MSLayerGroup">
            <g id="Group" sketch:type="MSShapeGroup">
                <path d="M3.4,0.8 L0.5,0.8 L0.5,11.1 L3.4,11.1 C5,11.1 6.1,10.7 7.1,9.9 C8.3,8.9 9,7.5 9,5.9 C8.9,2.9 6.7,0.8 3.4,0.8 L3.4,0.8 Z M5.8,8.6 C5.2,9.2 4.3,9.4 3.1,9.4 L2.6,9.4 L2.6,2.6 L3,2.6 C4.3,2.6 5.1,2.8 5.7,3.4 C6.4,4 6.8,5 6.8,6 C6.9,6.9 6.5,7.9 5.8,8.6 L5.8,8.6 Z" id="Shape" fill="#221F1F"></path>
                <rect id="Rectangle-path" fill="#221F1F" x="9.9" y="0.8" width="2" height="10.3"></rect>
                <path d="M16.8,4.8 C15.6,4.4 15.2,4.1 15.2,3.5 C15.2,2.9 15.8,2.4 16.7,2.4 C17.3,2.4 17.8,2.6 18.3,3.2 L19.4,1.8 C18.5,1 17.5,0.7 16.4,0.7 C14.6,0.7 13.2,2 13.2,3.6 C13.2,5 13.8,5.7 15.7,6.4 C16.5,6.7 16.9,6.9 17.1,7 C17.5,7.3 17.7,7.6 17.7,8.1 C17.7,8.9 17,9.6 16.1,9.6 C15.1,9.6 14.4,9.1 13.9,8.2 L12.6,9.4 C13.5,10.8 14.6,11.4 16.2,11.4 C18.3,11.4 19.8,10 19.8,8 C19.7,6.3 19.1,5.6 16.8,4.8 L16.8,4.8 Z" id="Shape" fill="#221F1F"></path>
                <path d="M20.4,6 C20.4,9 22.8,11.4 25.8,11.4 C26.7,11.4 27.4,11.2 28.3,10.8 L28.3,8.4 C27.5,9.2 26.8,9.5 25.9,9.5 C23.9,9.5 22.4,8 22.4,5.9 C22.4,3.9 23.9,2.4 25.8,2.4 C26.8,2.4 27.5,2.7 28.3,3.6 L28.3,1.2 C27.4,0.8 26.7,0.6 25.8,0.6 C22.8,0.6 20.4,3 20.4,6 L20.4,6 Z" id="Shape" fill="#221F1F"></path>
                <path d="M44.3,7.7 L41.5,0.8 L39.3,0.8 L43.7,11.4 L44.8,11.4 L49.2,0.8 L47,0.8 L44.3,7.7 Z" id="Shape" fill="#221F1F"></path>
                <path d="M50.1,11.1 L55.8,11.1 L55.8,9.4 L52.1,9.4 L52.1,6.6 L55.7,6.6 L55.7,4.8 L52.1,4.8 L52.1,2.6 L55.8,2.6 L55.8,0.8 L50.1,0.8 L50.1,11.1 Z" id="Shape" fill="#221F1F"></path>
                <path d="M63.8,3.9 C63.8,2 62.5,0.9 60.2,0.9 L57.2,0.9 L57.2,11.2 L59.2,11.2 L59.2,7 L59.5,7 L62.3,11.1 L64.8,11.1 L61.6,6.8 C62.9,6.5 63.8,5.4 63.8,3.9 L63.8,3.9 Z M59.7,5.6 L59.1,5.6 L59.1,2.5 L59.7,2.5 C61,2.5 61.6,3 61.6,4 C61.7,5 61,5.6 59.7,5.6 L59.7,5.6 Z" id="Shape" fill="#221F1F"></path>
                <circle id="Oval" fill="#F38020" cx="34.5" cy="6" r="5.5"></circle>
                <g transform="translate(63.000000, 0.000000)" id="Shape" fill="#221F1F">
                    <path d="M2,1.2 C2,1 1.9,0.9 1.7,0.9 L1.4,0.9 L1.4,1.8 L1.6,1.8 L1.6,1.4 L1.9,1.8 L2.2,1.8 L1.9,1.4 C2,1.4 2,1.3 2,1.2 L2,1.2 Z M1.7,1.3 L1.7,1.3 L1.7,1.1 L1.7,1.1 C1.8,1.1 1.9,1.1 1.9,1.2 C1.8,1.3 1.8,1.3 1.7,1.3 L1.7,1.3 Z"></path>
                    <path d="M1.7,0.6 C1.3,0.6 0.9,1 0.9,1.4 C0.9,1.8 1.3,2.2 1.7,2.2 C2.1,2.2 2.5,1.8 2.5,1.4 C2.5,0.9 2.2,0.6 1.7,0.6 L1.7,0.6 Z M1.7,2 C1.4,2 1.1,1.7 1.1,1.4 C1.1,1 1.4,0.8 1.7,0.8 C2,0.8 2.3,1.1 2.3,1.4 C2.4,1.7 2.1,2 1.7,2 L1.7,2 Z"></path>
                </g>
            </g>
        </g>
    </g>
</svg>