<?xml version="1.0" encoding="UTF-8"?>
<svg width="100px" height="78px" viewBox="0 0 100 78" version="1.1" xmlns="http://www.w3.org/2000/svg" xmlns:xlink="http://www.w3.org/1999/xlink" xmlns:sketch="http://www.bohemiancoding.com/sketch/ns">
    <!-- Generator: Sketch 3.4.2 (15855) - http://www.bohemiancoding.com/sketch -->
    <title>core-visa</title>
    <desc>Created with Sketch.</desc>
    <defs></defs>
    <g id="Page-1" stroke="none" stroke-width="1" fill="none" fill-rule="evenodd" sketch:type="MSPage">
        <g id="core-visa" sketch:type="MSLayerGroup">
            <g id="Page-1" sketch:type="MSShapeGroup">
                <g id="core-visa">
                    <g id="Group">
                        <g id="Shape">
                            <path d="M92.8787879,0.06346154 L7.12121212,0.06346154 C3.63636364,0.06346154 0.757575758,2.95 0.757575758,6.44423077 L0.757575758,70.7076923 C0.757575758,74.2019231 3.63636364,77.0884615 7.12121212,77.0884615 L93.030303,77.0884615 C96.5151515,77.0884615 99.3939394,74.2019231 99.3939394,70.7076923 L99.3939394,6.44423077 C99.2424242,2.95 96.5151515,0.06346154 92.8787879,0.06346154 L92.8787879,0.06346154 L92.8787879,0.06346154 Z" fill="#FFFFFF"></path>
                            <path d="M92.8787879,2.79807692 C94.8484848,2.79807692 96.5151515,4.46923077 96.5151515,6.44423077 L96.5151515,70.7076923 C96.5151515,72.6826923 94.8484848,74.3538462 92.8787879,74.3538462 L7.12121212,74.3538462 C5.15151515,74.3538462 3.48484848,72.6826923 3.48484848,70.7076923 L3.48484848,6.44423077 C3.48484848,4.46923077 5.15151515,2.79807692 7.12121212,2.79807692 L92.8787879,2.79807692 L92.8787879,2.79807692 L92.8787879,2.79807692 Z M92.8787879,0.06346154 L7.12121212,0.06346154 C3.63636364,0.06346154 0.757575758,2.95 0.757575758,6.44423077 L0.757575758,70.7076923 C0.757575758,74.2019231 3.63636364,77.0884615 7.12121212,77.0884615 L93.030303,77.0884615 C96.5151515,77.0884615 99.3939394,74.2019231 99.3939394,70.7076923 L99.3939394,6.44423077 C99.2424242,2.95 96.5151515,0.06346154 92.8787879,0.06346154 L92.8787879,0.06346154 L92.8787879,0.06346154 L92.8787879,0.06346154 Z" fill="#5F6062"></path>
                        </g>
                        <g id="Shape" transform="translate(7.060606, 24.826923)">
                            <g id="Group" transform="translate(29.303030, 0.000000)" fill="#0767B0">
                                <path d="M6.81818182,26.8903846 L0,26.8903846 L4.24242424,0.759615385 L11.0606061,0.759615385 L6.81818182,26.8903846 L6.81818182,26.8903846 Z" id="Shape"></path>
                                <path d="M47.7272727,26.8903846 L53.9393939,26.8903846 L48.4848485,0.759615385 L43.030303,0.759615385 C40.4545455,0.759615385 39.8484848,2.73461538 39.8484848,2.73461538 L29.6969697,26.8903846 L36.8181818,26.8903846 L38.1818182,22.9403846 L46.969697,22.9403846 L47.7272727,26.8903846 L47.7272727,26.8903846 L47.7272727,26.8903846 Z M40.3030303,17.6230769 L43.9393939,7.9 L45.9090909,17.6230769 L40.3030303,17.6230769 L40.3030303,17.6230769 L40.3030303,17.6230769 Z" id="Shape"></path>
                                <path d="M30.3030303,6.98846154 L31.2121212,1.36730769 C31.2121212,1.36730769 28.1818182,0.151923077 25.1515152,0.151923077 C21.8181818,0.151923077 13.7878788,1.67115385 13.7878788,8.81153846 C13.7878788,15.4961538 23.1818182,15.6480769 23.1818182,19.1423077 C23.1818182,22.6365385 14.6969697,22.0288462 11.969697,19.75 L11.0606061,25.8269231 C11.0606061,25.8269231 14.0909091,27.3461538 18.7878788,27.3461538 C23.4848485,27.3461538 30.4545455,24.9153846 30.4545455,18.3826923 C30.4545455,11.5461538 20.9090909,10.9384615 20.9090909,8.05192308 C20.9090909,5.01346154 27.4242424,5.46923077 30.3030303,6.98846154 L30.3030303,6.98846154 L30.3030303,6.98846154 Z" id="Shape"></path>
                            </g>
                            <path d="M23.6969697,0.759615385 L17.1818182,18.6865385 L16.4242424,14.7365385 L16.4242424,14.7365385 L16.4242424,14.7365385 C16.4242424,14.7365385 14.9090909,10.0269231 10.2121212,6.07692308 C9.1515152,5.31730769 8.24242424,4.55769231 7.18181818,3.95 L13.0909091,26.5865385 L20.2121212,26.5865385 L30.969697,0.455769231 L23.6969697,0.455769231 L23.6969697,0.759615385 L23.6969697,0.759615385 Z" fill="#0767B0"></path>
                            <path d="M16.4242424,14.8884615 L14.1515152,3.03846154 C14.1515152,3.03846154 13.8484848,0.607692308 10.969697,0.607692308 L0.21212121,0.607692308 L0.06060606,1.06346154 C0.06060606,1.06346154 5.21212121,2.12692308 10.2121212,6.07692308 C14.9090909,10.0269231 16.4242424,14.8884615 16.4242424,14.8884615 L16.4242424,14.8884615 L16.4242424,14.8884615 Z" fill="#F9A533"></path>
                        </g>
                    </g>
                </g>
            </g>
        </g>
    </g>
</svg>