<?xml version="1.0" encoding="UTF-8"?>
<svg width="100px" height="77px" viewBox="0 0 100 77" version="1.1" xmlns="http://www.w3.org/2000/svg" xmlns:xlink="http://www.w3.org/1999/xlink" xmlns:sketch="http://www.bohemiancoding.com/sketch/ns">
    <!-- Generator: Sketch 3.4.2 (15855) - http://www.bohemiancoding.com/sketch -->
    <title>core-mastercard</title>
    <desc>Created with Sketch.</desc>
    <defs></defs>
    <g id="Page-1" stroke="none" stroke-width="1" fill="none" fill-rule="evenodd" sketch:type="MSPage">
        <g id="core-mastercard" sketch:type="MSLayerGroup">
            <g id="Page-1" sketch:type="MSShapeGroup">
                <g id="core-mastercard">
                    <g id="Group">
                        <g id="Shape">
                            <path d="M93.1818182,0.06346154 L7.27272727,0.06346154 C3.78787879,0.06346154 0.909090909,2.95 0.909090909,6.44423077 L0.909090909,70.7076923 C0.909090909,74.2019231 3.78787879,77.0884615 7.27272727,77.0884615 L93.1818182,77.0884615 C96.6666667,77.0884615 99.5454545,74.2019231 99.5454545,70.7076923 L99.5454545,6.44423077 C99.5454545,2.95 96.6666667,0.06346154 93.1818182,0.06346154 L93.1818182,0.06346154 L93.1818182,0.06346154 Z" fill="#FFFFFF"></path>
                            <path d="M93.1818182,2.79807692 C95.1515152,2.79807692 96.8181818,4.46923077 96.8181818,6.44423077 L96.8181818,70.7076923 C96.8181818,72.6826923 95.1515152,74.3538462 93.1818182,74.3538462 L7.27272727,74.3538462 C5.3030303,74.3538462 3.63636364,72.6826923 3.63636364,70.7076923 L3.63636364,6.44423077 C3.63636364,4.46923077 5.3030303,2.79807692 7.27272727,2.79807692 L93.1818182,2.79807692 L93.1818182,2.79807692 L93.1818182,2.79807692 Z M93.1818182,0.06346154 L7.27272727,0.06346154 C3.78787879,0.06346154 0.909090909,2.95 0.909090909,6.44423077 L0.909090909,70.7076923 C0.909090909,74.2019231 3.78787879,77.0884615 7.27272727,77.0884615 L93.1818182,77.0884615 C96.6666667,77.0884615 99.5454545,74.2019231 99.5454545,70.7076923 L99.5454545,6.44423077 C99.5454545,2.95 96.6666667,0.06346154 93.1818182,0.06346154 L93.1818182,0.06346154 L93.1818182,0.06346154 L93.1818182,0.06346154 Z" fill="#5F6062"></path>
                        </g>
                        <g transform="translate(10.606061, 15.192308)">
                            <g>
                                <g>
                                    <ellipse id="Oval" fill="#EC2127" cx="23.7878788" cy="23.6115385" rx="23.3333333" ry="23.3961538"></ellipse>
                                    <path d="M55,0.21538462 C48.9393939,0.21538462 43.4848485,2.49423077 39.3939394,6.29230769 C38.4848485,7.05192308 37.7272727,7.81153846 36.969697,8.72307692 L41.6666667,8.72307692 C42.2727273,9.4826923 42.8787879,10.3942308 43.4848485,11.1538462 L35.1515152,11.1538462 C34.6969697,11.9134615 34.2424242,12.825 33.7878788,13.5846154 L44.6969697,13.5846154 C45,14.3442308 45.4545455,15.2557692 45.7575758,16.0153846 L32.8787879,16.0153846 C32.5757576,16.775 32.4242424,17.6865385 32.2727273,18.4461538 L46.5151515,18.4461538 C46.8181818,19.9653846 46.969697,21.6365385 46.969697,23.4596154 C46.969697,26.0423077 46.5151515,28.4730769 45.7575758,30.9038462 L32.8787879,30.9038462 C33.1818182,31.8153846 33.4848485,32.575 33.9393939,33.3346154 L44.8484848,33.3346154 C44.3939394,34.2461538 43.9393939,35.0057692 43.4848485,35.7653846 L35.3030303,35.7653846 C35.9090909,36.6769231 36.3636364,37.4365385 37.1212121,38.1961538 L41.8181818,38.1961538 C41.0606061,39.1076923 40.3030303,39.8673077 39.3939394,40.6269231 C43.4848485,44.425 48.9393939,46.7038462 55,46.7038462 C67.8787879,46.7038462 78.3333333,36.2211538 78.3333333,23.3076923 C78.3333333,10.6980769 67.8787879,0.21538462 55,0.21538462 L55,0.21538462 L55,0.21538462 Z" id="Shape" fill="#FAA61B"></path>
                                </g>
                                <path d="M75.1515152,36.6769231 C75.1515152,36.2211538 75.4545455,35.9173077 75.9090909,35.9173077 C76.3636364,35.9173077 76.6666667,36.2211538 76.6666667,36.6769231 C76.6666667,37.1326923 76.3636364,37.4365385 75.9090909,37.4365385 C75.6060606,37.4365385 75.1515152,37.1326923 75.1515152,36.6769231 L75.1515152,36.6769231 L75.1515152,36.6769231 Z M75.9090909,37.2846154 C76.2121212,37.2846154 76.5151515,36.9807692 76.5151515,36.6769231 C76.5151515,36.3730769 76.2121212,36.0692308 75.9090909,36.0692308 C75.6060606,36.0692308 75.3030303,36.3730769 75.3030303,36.6769231 C75.4545455,36.9807692 75.6060606,37.2846154 75.9090909,37.2846154 L75.9090909,37.2846154 L75.9090909,37.2846154 Z M75.9090909,36.9807692 L75.7575758,36.9807692 L75.7575758,36.3730769 L76.0606061,36.3730769 L76.2121212,36.3730769 L76.3636364,36.525 C76.3636364,36.525 76.3636364,36.6769231 76.2121212,36.6769231 L76.3636364,36.9807692 L76.2121212,36.9807692 L76.0606061,36.6769231 L75.9090909,36.6769231 L75.9090909,36.9807692 L75.9090909,36.9807692 L75.9090909,36.9807692 Z M75.9090909,36.6769231 L75.9090909,36.6769231 L76.0606061,36.6769231 C76.0606061,36.6769231 76.0606061,36.6769231 76.0606061,36.525 L76.0606061,36.525 C76.0606061,36.525 76.0606061,36.525 75.9090909,36.525 L75.7575758,36.525 L75.7575758,36.6769231 L75.9090909,36.6769231 L75.9090909,36.6769231 Z" id="Shape" fill="#000000"></path>
                            </g>
                            <g id="Shape" transform="translate(1.515152, 17.230769)">
                                <g id="Group" fill="#000000">
                                    <path d="M16.8181818,8.96346154 L16.2121212,8.96346154 C14.8484848,8.96346154 14.0909091,9.41923077 14.0909091,10.4826923 C14.0909091,11.0903846 14.3939394,11.3942308 15,11.3942308 C16.0606061,11.3942308 16.8181818,10.3307692 16.8181818,8.96346154 L16.8181818,8.96346154 L16.8181818,8.96346154 Z M18.6363636,13.2173077 L16.5151515,13.2173077 L16.5151515,12.1538462 C15.9090909,12.9134615 15,13.3692308 13.9393939,13.3692308 C12.5757576,13.3692308 11.6666667,12.3057692 11.6666667,10.7865385 C11.6666667,8.50769231 13.3333333,7.14038462 16.0606061,7.14038462 L17.1212121,7.14038462 C17.2727273,6.83653846 17.2727273,6.68461538 17.2727273,6.53269231 C17.2727273,5.925 16.8181818,5.62115385 15.6060606,5.62115385 C14.3939394,5.62115385 13.3333333,5.925 12.8787879,6.07692308 C12.8787879,5.925 13.1818182,3.95 13.1818182,3.95 C14.3939394,3.64615385 15.3030303,3.49423077 16.2121212,3.49423077 C18.3333333,3.49423077 19.5454545,4.40576923 19.5454545,6.38076923 C19.5454545,6.83653846 19.3939394,7.44423077 19.3939394,8.35576923 C19.0909091,9.57115385 18.6363636,12.4576923 18.6363636,13.2173077 L18.6363636,13.2173077 L18.6363636,13.2173077 Z" id="Shape"></path>
                                    <path d="M10.6060606,13.2173077 L8.03030303,13.2173077 L9.54545455,4.10192308 L6.21212121,13.2173077 L4.54545455,13.2173077 L4.24242424,4.25384615 L2.72727273,13.2173077 L0.454545455,13.2173077 L2.42424242,1.36730769 L6.06060606,1.36730769 L6.21212121,8.05192308 L8.48484848,1.36730769 L12.5757576,1.36730769 L10.6060606,13.2173077 L10.6060606,13.2173077 Z" id="Shape"></path>
                                    <path d="M56.6666667,8.96346154 L56.0606061,8.96346154 C54.6969697,8.96346154 53.9393939,9.41923077 53.9393939,10.4826923 C53.9393939,11.0903846 54.2424242,11.3942308 54.8484848,11.3942308 C55.9090909,11.3942308 56.5151515,10.3307692 56.6666667,8.96346154 L56.6666667,8.96346154 L56.6666667,8.96346154 Z M58.4848485,13.2173077 L56.3636364,13.2173077 L56.3636364,12.1538462 C55.7575758,12.9134615 54.8484848,13.3692308 53.7878788,13.3692308 C52.4242424,13.3692308 51.5151515,12.3057692 51.5151515,10.7865385 C51.5151515,8.50769231 53.1818182,7.14038462 55.9090909,7.14038462 L56.969697,7.14038462 C57.1212121,6.83653846 57.1212121,6.68461538 57.1212121,6.53269231 C57.1212121,5.925 56.6666667,5.62115385 55.4545455,5.62115385 C54.2424242,5.62115385 53.1818182,5.925 52.7272727,6.07692308 C52.7272727,5.925 53.030303,3.95 53.030303,3.95 C54.2424242,3.64615385 55.1515152,3.49423077 56.0606061,3.49423077 C58.1818182,3.49423077 59.3939394,4.40576923 59.3939394,6.38076923 C59.3939394,6.83653846 59.2424242,7.44423077 59.2424242,8.35576923 C58.9393939,9.57115385 58.4848485,12.4576923 58.4848485,13.2173077 L58.4848485,13.2173077 L58.4848485,13.2173077 Z" id="Shape"></path>
                                    <path d="M29.8484848,13.0653846 C29.0909091,13.2173077 28.6363636,13.3692308 28.030303,13.3692308 C26.6666667,13.3692308 26.0606061,12.6096154 26.0606061,11.2423077 C26.0606061,10.7865385 26.2121212,9.72307692 26.3636364,8.65961538 C26.5151515,7.74807692 27.4242424,2.12692308 27.4242424,2.12692308 L30,2.12692308 L29.6969697,3.64615385 L31.2121212,3.64615385 L30.9090909,5.925 L29.3939394,5.925 C29.0909091,7.74807692 28.6363636,10.0269231 28.6363636,10.3307692 C28.6363636,10.7865385 28.9393939,11.0903846 29.5454545,11.0903846 C29.8484848,11.0903846 30,11.0903846 30.1515152,10.9384615 L29.8484848,13.0653846 L29.8484848,13.0653846 L29.8484848,13.0653846 Z" id="Shape"></path>
                                    <path d="M37.5757576,13.0653846 C36.6666667,13.3692308 35.9090909,13.5211538 35,13.5211538 C32.1212121,13.5211538 30.7575758,12.0019231 30.7575758,9.26730769 C30.7575758,5.925 32.5757576,3.49423077 35.1515152,3.49423077 C37.2727273,3.49423077 38.4848485,4.86153846 38.4848485,6.98846154 C38.4848485,7.74807692 38.3333333,8.35576923 38.1818182,9.41923077 L33.1818182,9.41923077 C33.030303,10.7865385 33.9393939,11.3942308 35.3030303,11.3942308 C36.2121212,11.3942308 36.969697,11.2423077 37.8787879,10.7865385 L37.5757576,13.0653846 L37.5757576,13.0653846 L37.5757576,13.0653846 Z M36.2121212,7.29230769 C36.2121212,7.14038462 36.5151515,5.62115385 35,5.62115385 C34.2424242,5.62115385 33.6363636,6.22884615 33.3333333,7.29230769 L36.2121212,7.29230769 L36.2121212,7.29230769 L36.2121212,7.29230769 Z" id="Shape"></path>
                                    <path d="M20.1515152,6.68461538 C20.1515152,7.9 20.7575758,8.81153846 22.1212121,9.41923077 C23.1818182,9.875 23.3333333,10.0269231 23.3333333,10.4826923 C23.3333333,11.0903846 22.8787879,11.3942308 21.8181818,11.3942308 C21.0606061,11.3942308 20.3030303,11.2423077 19.5454545,10.9384615 C19.5454545,10.9384615 19.2424242,13.0653846 19.2424242,13.2173077 C19.8484848,13.3692308 20.3030303,13.5211538 21.8181818,13.5211538 C24.5454545,13.5211538 25.7575758,12.4576923 25.7575758,10.3307692 C25.7575758,8.96346154 25.3030303,8.20384615 23.9393939,7.59615385 C22.8787879,7.14038462 22.7272727,6.98846154 22.7272727,6.53269231 C22.7272727,6.07692308 23.1818182,5.77307692 23.9393939,5.77307692 C24.3939394,5.77307692 25.1515152,5.77307692 25.7575758,5.925 L26.0606061,3.64615385 C25.4545455,3.49423077 24.3939394,3.49423077 23.7878788,3.49423077 C21.0606061,3.34230769 20.1515152,4.86153846 20.1515152,6.68461538 L20.1515152,6.68461538 L20.1515152,6.68461538 Z" id="Shape"></path>
                                    <path d="M49.8484848,3.64615385 C50.6060606,3.64615385 51.2121212,3.79807692 52.1212121,4.25384615 L52.5757576,1.67115385 C52.2727273,1.51923077 50.9090909,0.607692308 49.8484848,0.607692308 C48.1818182,0.607692308 46.6666667,1.51923077 45.7575758,2.88653846 C44.2424242,2.43076923 43.6363636,3.34230769 42.8787879,4.40576923 L42.1212121,4.55769231 C42.1212121,4.25384615 42.2727273,3.95 42.2727273,3.64615385 L40,3.64615385 C39.6969697,6.68461538 39.0909091,9.72307692 38.6363636,12.6096154 L38.4848485,13.2173077 L41.0606061,13.2173077 C41.5151515,10.4826923 41.6666667,8.65961538 41.8181818,7.44423077 L42.7272727,6.98846154 C42.8787879,6.53269231 43.3333333,6.22884615 44.2424242,6.22884615 C44.0909091,6.83653846 44.0909091,7.44423077 44.0909091,8.20384615 C44.0909091,11.3942308 45.7575758,13.3692308 48.4848485,13.3692308 C49.2424242,13.3692308 49.8484848,13.2173077 50.7575758,13.0653846 L51.2121212,10.3307692 C50.3030303,10.7865385 49.6969697,10.9384615 49.0909091,10.9384615 C47.5757576,10.9384615 46.6666667,9.875 46.6666667,8.05192308 C46.6666667,5.46923077 48.030303,3.64615385 49.8484848,3.64615385 L49.8484848,3.64615385 L49.8484848,3.64615385 Z" id="Shape"></path>
                                    <path d="M71.3636364,1.36730769 L70.7575758,4.86153846 C70,3.95 69.3939394,3.34230769 68.3333333,3.34230769 C67.1212121,3.34230769 65.9090909,4.25384615 65.1515152,5.77307692 C64.0909091,5.62115385 63.030303,5.16538462 63.030303,5.16538462 L63.030303,5.16538462 C63.1818182,4.40576923 63.1818182,3.95 63.1818182,3.64615385 L60.9090909,3.64615385 C60.6060606,6.68461538 60,9.72307692 59.5454545,12.6096154 L59.3939394,13.2173077 L61.969697,13.2173077 C62.2727273,10.9384615 62.5757576,9.11538462 62.7272727,7.74807692 C63.6363636,6.98846154 64.0909091,6.22884615 64.8484848,6.38076923 C64.3939394,7.29230769 64.2424242,8.35576923 64.2424242,9.57115385 C64.2424242,12.0019231 65.4545455,13.5211538 67.2727273,13.5211538 C68.1818182,13.5211538 68.9393939,13.2173077 69.5454545,12.4576923 L69.3939394,13.3692308 L71.8181818,13.3692308 L73.7878788,1.51923077 L71.3636364,1.51923077 L71.3636364,1.36730769 L71.3636364,1.36730769 Z M68.1818182,11.0903846 C67.2727273,11.0903846 66.8181818,10.4826923 66.8181818,9.26730769 C66.8181818,7.44423077 67.5757576,6.07692308 68.7878788,6.07692308 C69.6969697,6.07692308 70.1515152,6.68461538 70.1515152,7.9 C70.1515152,9.72307692 69.2424242,11.0903846 68.1818182,11.0903846 L68.1818182,11.0903846 L68.1818182,11.0903846 Z" id="Shape"></path>
                                </g>
                                <g id="Group" transform="translate(1.000000, 0.000000)" fill="#FFFFFF">
                                    <path d="M10.3636364,12.6096154 L7.78787879,12.6096154 L9.1515152,3.49423077 L5.96969697,12.6096154 L4.3030303,12.6096154 L4,3.49423077 L2.48484848,12.6096154 L0.21212121,12.6096154 L2.18181818,0.759615385 L5.81818182,0.759615385 L5.81818182,8.05192308 L8.39393939,0.759615385 L12.1818182,0.759615385 L10.3636364,12.6096154 L10.3636364,12.6096154 Z" id="Shape"></path>
                                    <path d="M16.5757576,8.20384615 L15.969697,8.20384615 C14.6060606,8.20384615 13.8484848,8.65961538 13.8484848,9.72307692 C13.8484848,10.3307692 14.1515152,10.6346154 14.7575758,10.6346154 C15.6666667,10.6346154 16.4242424,9.72307692 16.5757576,8.20384615 L16.5757576,8.20384615 L16.5757576,8.20384615 Z M18.3939394,12.6096154 L16.2727273,12.6096154 L16.2727273,11.5461538 C15.6666667,12.3057692 14.7575758,12.7615385 13.6969697,12.7615385 C12.3333333,12.7615385 11.4242424,11.6980769 11.4242424,10.1788462 C11.4242424,7.9 13.0909091,6.53269231 15.8181818,6.53269231 L16.8787879,6.53269231 C17.030303,6.22884615 17.030303,6.07692308 17.030303,5.925 C17.030303,5.31730769 16.5757576,5.01346154 15.3636364,5.01346154 C14.1515152,5.01346154 13.0909091,5.31730769 12.6363636,5.46923077 C12.6363636,5.31730769 12.9393939,3.34230769 12.9393939,3.34230769 C14.1515152,3.03846154 15.0606061,2.88653846 15.969697,2.88653846 C18.0909091,2.88653846 19.3030303,3.79807692 19.3030303,5.77307692 C19.3030303,6.22884615 19.1515152,6.83653846 19.1515152,7.74807692 C18.8484848,8.81153846 18.3939394,11.85 18.3939394,12.6096154 L18.3939394,12.6096154 L18.3939394,12.6096154 Z" id="Shape"></path>
                                    <path d="M52.3333333,1.06346154 L51.8787879,3.64615385 C50.969697,3.19038462 50.3636364,3.03846154 49.6060606,3.03846154 C47.7878788,3.03846154 46.4242424,4.86153846 46.4242424,7.44423077 C46.4242424,9.26730769 47.3333333,10.3307692 48.8484848,10.3307692 C49.4545455,10.3307692 50.2121212,10.1788462 50.969697,9.72307692 L50.5151515,12.3057692 C49.6060606,12.6096154 49,12.6096154 48.2424242,12.6096154 C45.5151515,12.6096154 43.8484848,10.6346154 43.8484848,7.44423077 C43.8484848,3.19038462 46.1212121,0.303846154 49.6060606,0.303846154 C50.6666667,0.455769231 51.8787879,0.911538462 52.3333333,1.06346154 L52.3333333,1.06346154 L52.3333333,1.06346154 Z" id="Shape"></path>
                                    <path d="M56.4242424,8.20384615 L55.8181818,8.20384615 C54.4545455,8.20384615 53.6969697,8.65961538 53.6969697,9.72307692 C53.6969697,10.3307692 54,10.6346154 54.6060606,10.6346154 C55.5151515,10.6346154 56.2727273,9.72307692 56.4242424,8.20384615 L56.4242424,8.20384615 L56.4242424,8.20384615 Z M58.2424242,12.6096154 L56.1212121,12.6096154 L56.1212121,11.5461538 C55.5151515,12.3057692 54.6060606,12.7615385 53.5454545,12.7615385 C52.1818182,12.7615385 51.2727273,11.6980769 51.2727273,10.1788462 C51.2727273,7.9 52.9393939,6.53269231 55.6666667,6.53269231 L56.7272727,6.53269231 C56.8787879,6.22884615 56.8787879,6.07692308 56.8787879,5.925 C56.8787879,5.31730769 56.4242424,5.01346154 55.2121212,5.01346154 C54,5.01346154 52.9393939,5.31730769 52.4848485,5.46923077 C52.4848485,5.31730769 52.7878788,3.34230769 52.7878788,3.34230769 C54,3.03846154 54.9090909,2.88653846 55.8181818,2.88653846 C57.9393939,2.88653846 59.1515152,3.79807692 59.1515152,5.77307692 C59.1515152,6.22884615 59,6.83653846 59,7.74807692 C58.6969697,8.81153846 58.2424242,11.85 58.2424242,12.6096154 L58.2424242,12.6096154 L58.2424242,12.6096154 Z" id="Shape"></path>
                                    <path d="M29.6060606,12.4576923 C28.8484848,12.6096154 28.3939394,12.7615385 27.7878788,12.7615385 C26.4242424,12.7615385 25.8181818,12.0019231 25.8181818,10.6346154 C25.8181818,10.1788462 25.969697,9.11538462 26.1212121,8.05192308 C26.2727273,7.14038462 27.1818182,1.51923077 27.1818182,1.51923077 L29.7575758,1.51923077 L29.4545455,3.03846154 L30.8181818,3.03846154 L30.5151515,5.31730769 L29.1515152,5.31730769 C28.8484848,7.14038462 28.3939394,9.41923077 28.3939394,9.72307692 C28.3939394,10.1788462 28.6969697,10.4826923 29.3030303,10.4826923 C29.6060606,10.4826923 29.7575758,10.4826923 29.9090909,10.3307692 L29.6060606,12.4576923 L29.6060606,12.4576923 L29.6060606,12.4576923 Z" id="Shape"></path>
                                    <path d="M37.3333333,12.3057692 C36.4242424,12.6096154 35.6666667,12.7615385 34.7575758,12.7615385 C31.8787879,12.7615385 30.5151515,11.2423077 30.5151515,8.50769231 C30.5151515,5.16538462 32.3333333,2.73461538 34.9090909,2.73461538 C37.030303,2.73461538 38.2424242,4.10192308 38.2424242,6.22884615 C38.2424242,6.98846154 38.0909091,7.59615385 37.9393939,8.65961538 L32.9393939,8.65961538 C32.7878788,10.0269231 33.6969697,10.6346154 35.0606061,10.6346154 C35.969697,10.6346154 36.7272727,10.4826923 37.6363636,10.0269231 L37.3333333,12.3057692 L37.3333333,12.3057692 L37.3333333,12.3057692 Z M35.8181818,6.68461538 C35.8181818,6.53269231 36.1212121,5.01346154 34.6060606,5.01346154 C33.8484848,5.01346154 33.2424242,5.62115385 32.9393939,6.68461538 L35.8181818,6.68461538 L35.8181818,6.68461538 L35.8181818,6.68461538 Z" id="Shape"></path>
                                    <path d="M19.9090909,5.925 C19.9090909,7.14038462 20.5151515,8.05192308 21.8787879,8.65961538 C22.9393939,9.11538462 23.0909091,9.26730769 23.0909091,9.72307692 C23.0909091,10.3307692 22.6363636,10.6346154 21.5757576,10.6346154 C20.8181818,10.6346154 20.0606061,10.4826923 19.3030303,10.1788462 C19.3030303,10.1788462 19,12.3057692 19,12.4576923 C19.6060606,12.6096154 20.0606061,12.7615385 21.5757576,12.7615385 C24.3030303,12.7615385 25.5151515,11.6980769 25.5151515,9.57115385 C25.5151515,8.20384615 25.0606061,7.44423077 23.6969697,6.83653846 C22.6363636,6.38076923 22.4848485,6.22884615 22.4848485,5.77307692 C22.4848485,5.31730769 22.9393939,5.01346154 23.6969697,5.01346154 C24.1515152,5.01346154 24.9090909,5.01346154 25.5151515,5.16538462 L25.8181818,2.88653846 C25.2121212,2.73461538 24.1515152,2.73461538 23.5454545,2.73461538 C20.8181818,2.73461538 19.9090909,4.25384615 19.9090909,5.925 L19.9090909,5.925 L19.9090909,5.925 Z" id="Shape"></path>
                                    <path d="M71.5757576,12.6096154 L69.1515152,12.6096154 L69.3030303,11.6980769 C68.5454545,12.4576923 67.9393939,12.7615385 67.030303,12.7615385 C65.2121212,12.7615385 64,11.2423077 64,8.81153846 C64,5.62115385 65.8181818,2.88653846 68.0909091,2.88653846 C69,2.88653846 69.7575758,3.34230769 70.5151515,4.25384615 L71.1212121,0.759615385 L73.5454545,0.759615385 L71.5757576,12.6096154 L71.5757576,12.6096154 L71.5757576,12.6096154 Z M67.7878788,10.3307692 C69,10.3307692 69.7575758,8.96346154 69.7575758,7.14038462 C69.7575758,5.925 69.3030303,5.31730769 68.3939394,5.31730769 C67.1818182,5.31730769 66.4242424,6.68461538 66.4242424,8.50769231 C66.5757576,9.72307692 67.030303,10.3307692 67.7878788,10.3307692 L67.7878788,10.3307692 L67.7878788,10.3307692 Z" id="Shape"></path>
                                    <path d="M60.5151515,2.88653846 C60.2121212,5.925 59.6060606,8.96346154 59.1515152,11.85 L59,12.4576923 L61.5757576,12.4576923 C62.4848485,6.53269231 62.6363636,5.46923077 64.1515152,5.62115385 C64.3030303,4.40576923 64.7575758,3.34230769 65.0606061,2.88653846 C64,2.73461538 63.3939394,3.19038462 62.6363636,4.40576923 C62.6363636,3.95 62.7878788,3.49423077 62.7878788,2.88653846 L60.5151515,2.88653846 L60.5151515,2.88653846 L60.5151515,2.88653846 Z" id="Shape"></path>
                                    <path d="M39.6060606,2.88653846 C39.3030303,5.925 38.6969697,8.96346154 38.2424242,11.85 L38.0909091,12.4576923 L40.6666667,12.4576923 C41.5757576,6.53269231 41.7272727,5.46923077 43.2424242,5.62115385 C43.3939394,4.40576923 43.8484848,3.34230769 44.1515152,2.88653846 C43.0909091,2.73461538 42.4848485,3.19038462 41.7272727,4.40576923 C41.7272727,3.95 41.8787879,3.49423077 41.8787879,2.88653846 L39.6060606,2.88653846 L39.6060606,2.88653846 L39.6060606,2.88653846 Z" id="Shape"></path>
                                    <path d="M72.6363636,11.85 C72.6363636,11.3942308 72.9393939,11.0903846 73.3939394,11.0903846 C73.8484848,11.0903846 74.1515152,11.3942308 74.1515152,11.85 C74.1515152,12.3057692 73.8484848,12.6096154 73.3939394,12.6096154 C73.0909091,12.6096154 72.6363636,12.1538462 72.6363636,11.85 L72.6363636,11.85 L72.6363636,11.85 Z M73.3939394,12.3057692 C73.6969697,12.3057692 74,12.0019231 74,11.6980769 C74,11.3942308 73.6969697,11.0903846 73.3939394,11.0903846 C73.0909091,11.0903846 72.7878788,11.3942308 72.7878788,11.6980769 C72.9393939,12.1538462 73.0909091,12.3057692 73.3939394,12.3057692 L73.3939394,12.3057692 L73.3939394,12.3057692 Z M73.3939394,12.1538462 L73.2424242,12.1538462 L73.2424242,11.5461538 L73.5454545,11.5461538 L73.6969697,11.5461538 L73.8484848,11.6980769 C73.8484848,11.6980769 73.8484848,11.85 73.6969697,11.85 L73.8484848,12.1538462 L73.6969697,12.1538462 L73.5454545,11.85 L73.3939394,11.85 L73.3939394,12.1538462 L73.3939394,12.1538462 L73.3939394,12.1538462 Z M73.3939394,11.6980769 L73.3939394,11.6980769 L73.5454545,11.6980769 C73.5454545,11.6980769 73.5454545,11.6980769 73.5454545,11.5461538 L73.5454545,11.5461538 C73.5454545,11.5461538 73.5454545,11.5461538 73.3939394,11.5461538 L73.2424242,11.5461538 L73.2424242,11.6980769 L73.3939394,11.6980769 L73.3939394,11.6980769 Z" id="Shape"></path>
                                </g>
                            </g>
                        </g>
                    </g>
                </g>
            </g>
        </g>
    </g>
</svg>