<?xml version="1.0" encoding="UTF-8"?>
<svg width="100px" height="77px" viewBox="0 0 100 77" version="1.1" xmlns="http://www.w3.org/2000/svg" xmlns:xlink="http://www.w3.org/1999/xlink" xmlns:sketch="http://www.bohemiancoding.com/sketch/ns">
    <!-- Generator: Sketch 3.4.2 (15855) - http://www.bohemiancoding.com/sketch -->
    <title>core-amex-logo</title>
    <desc>Created with Sketch.</desc>
    <defs></defs>
    <g id="Page-1" stroke="none" stroke-width="1" fill="none" fill-rule="evenodd" sketch:type="MSPage">
        <g id="core-amex-logo" sketch:type="MSLayerGroup">
            <g id="Page-1" sketch:type="MSShapeGroup">
                <g id="core-amex-logo">
                    <g id="Group">
                        <path d="M92.8787879,2.75 C94.8484848,2.75 96.5151515,4.4 96.5151515,6.35 L96.5151515,69.8 C96.5151515,71.75 94.8484848,73.4 92.8787879,73.4 L7.12121212,73.4 C5.15151515,73.4 3.48484848,71.75 3.48484848,69.8 L3.48484848,6.35 C3.48484848,4.4 5.15151515,2.75 7.12121212,2.75 L92.8787879,2.75" id="Shape" fill="#FFFFFF"></path>
                        <g id="Shape">
                            <path d="M92.8787879,2.75 C94.8484848,2.75 96.5151515,4.4 96.5151515,6.35 L96.5151515,69.8 C96.5151515,71.75 94.8484848,73.4 92.8787879,73.4 L7.12121212,73.4 C5.15151515,73.4 3.48484848,71.75 3.48484848,69.8 L3.48484848,6.35 C3.48484848,4.4 5.15151515,2.75 7.12121212,2.75 L92.8787879,2.75 L92.8787879,2.75 L92.8787879,2.75 Z M92.8787879,0.05 L7.12121212,0.05 C3.63636364,0.05 0.757575758,2.9 0.757575758,6.35 L0.757575758,69.8 C0.757575758,73.25 3.63636364,76.1 7.12121212,76.1 L93.030303,76.1 C96.5151515,76.1 99.3939394,73.25 99.3939394,69.8 L99.3939394,6.35 C99.2424242,2.9 96.5151515,0.05 92.8787879,0.05 L92.8787879,0.05 L92.8787879,0.05 L92.8787879,0.05 Z" fill="#5F6062"></path>
                            <path d="M91.5151515,46.85 L84.5454545,46.85 L79.8484848,41.6 L75.1515152,46.85 L58.1818182,46.85 L58.1818182,28.7 L75.6060606,28.7 L80,33.65 L84.5454545,28.7 L91.6666667,28.7 L83.4848485,37.55 L91.5151515,46.85 L91.5151515,46.85 L91.5151515,46.85 Z M85.1515152,45.65 L88.7878788,45.65 L81.8181818,37.55 L88.7878788,29.9 L85.1515152,29.9 L80,35.45 L75,29.9 L59.3939394,29.9 L59.3939394,45.65 L74.5454545,45.65 L79.8484848,39.65 L85.1515152,45.65 L85.1515152,45.65 L85.1515152,45.65 Z M53.9393939,46.85 L48.4848485,46.85 L48.4848485,36.8 L43.7878788,46.85 L39.0909091,46.85 L34.5454545,36.65 L34.5454545,46.85 L25,46.85 L23.3333333,43.1 L15.7575758,43.1 L14.0909091,46.85 L8.33333333,46.85 L16.3636364,28.7 L22.7272727,28.7 L29.0909091,40.4 L29.0909091,28.7 L36.6666667,28.7 L41.3636364,39.2 L46.0606061,28.7 L53.7878788,28.7 L53.7878788,46.85 L53.9393939,46.85 L53.9393939,46.85 Z M49.6969697,45.65 L52.5757576,45.65 L52.5757576,29.9 L46.969697,29.9 L41.3636364,42.2 L35.7575758,29.9 L30.3030303,29.9 L30.3030303,45.35 L21.969697,29.9 L17.2727273,29.9 L10.3030303,45.65 L13.3333333,45.65 L15,41.9 L24.2424242,41.9 L25.9090909,45.65 L33.3333333,45.65 L33.3333333,30.65 L40,45.65 L43.030303,45.65 L49.8484848,31.1 L49.8484848,45.65 L49.6969697,45.65 L49.6969697,45.65 Z M72.8787879,43.4 L62.2727273,43.4 L62.2727273,38.75 L71.5151515,38.75 L71.5151515,36.8 L62.2727273,36.8 L62.2727273,32.3 L73.4848485,32.3 L78.1818182,37.55 L72.8787879,43.4 L72.8787879,43.4 L72.8787879,43.4 Z M63.6363636,42.05 L72.4242424,42.05 L76.5151515,37.55 L73.030303,33.65 L63.7878788,33.65 L63.7878788,35.6 L73.030303,35.6 L73.030303,40.1 L63.6363636,40.1 L63.6363636,42.05 L63.6363636,42.05 L63.6363636,42.05 Z M23.1818182,39.5 L16.0606061,39.5 L19.5454545,31.4 L23.1818182,39.5 L23.1818182,39.5 L23.1818182,39.5 Z M18.030303,38.15 L21.2121212,38.15 L19.5454545,34.4 L18.030303,38.15 L18.030303,38.15 L18.030303,38.15 Z" fill="#1A95D0"></path>
                        </g>
                    </g>
                </g>
            </g>
        </g>
    </g>
</svg>