
<svg  xmlns="http://www.w3.org/2000/svg" x="0px" y="0px"
	 width="64.299px" height="64.299px" viewBox="0 0 64.299 64.299">

	<path fill="#5F6062" d="M44.834,40.6c-0.143-0.143-0.224-0.338-0.224-0.541v-5.63c0-0.423-0.343-0.765-0.765-0.765h0
		c-0.423,0-0.765,0.343-0.765,0.765v6.581h0l3.378,3.378c0.299,0.299,0.783,0.299,1.082,0l0,0c0.299-0.299,0.299-0.783,0-1.082
		L44.834,40.6z"/>
	<path fill="#5F6062" d="M32.149,0C14.394,0,0,14.394,0,32.149c0,17.756,14.394,32.149,32.149,32.149s32.149-14.394,32.149-32.149
		C64.299,14.394,49.905,0,32.149,0z M15.296,46.636c0,0-0.297-5.404,0.687-6.93c1.092-1.705,3.762-2.766,7.397-4.277
		c3.631-1.513,4.494-2.037,4.494-2.037l0.035-3.491c0,0-1.361-1.048-1.785-4.321c-0.853,0.249-1.741-1.271-1.795-2.069
		c-0.044-0.77,0.121-2.9,1.159-2.686c-0.211-1.61-0.364-3.053-0.294-3.817c0.275-2.807,3.031-5.755,7.266-5.755
		c4.238,0,6.998,2.948,7.266,5.755c0.077,0.763-0.08,2.207-0.287,3.817c1.035-0.214,1.198,1.917,1.15,2.686
		c-0.045,0.799-0.939,2.319-1.792,2.069c-0.422,3.274-1.779,4.321-1.779,4.321l0.02,2.411c-2.351,1.951-3.852,4.894-3.852,8.181
		c0,2.287,0.726,4.407,1.96,6.143H15.296z M43.814,49.296c-4.862,0-8.802-3.941-8.802-8.802c0-4.862,3.941-8.802,8.802-8.802
		c4.862,0,8.802,3.941,8.802,8.802C52.616,45.355,48.675,49.296,43.814,49.296z"/>

</svg>
