
<svg  xmlns="http://www.w3.org/2000/svg" x="0px" y="0px"
	 width="64.299px" height="64.299px" viewBox="0 0 64.299 64.299" >
<path fill="#5F6062" d="M32.149,0C14.394,0,0,14.394,0,32.149c0,17.756,14.394,32.149,32.149,32.149s32.149-14.394,32.149-32.149
	C64.299,14.394,49.905,0,32.149,0z M47.046,47.903h-9.063H27.164H18.1c0,0-0.796-8,0.4-9.212c1.517-1.533,4.085-2.217,6.281-2.91
	c2.878-0.911,3.988-3.066,4.32-5.208c-0.346-0.396-0.68-0.818-1.003-1.258c-1.635,0.657-3.521,0.947-5.577-0.241
	c2.679-2.707,0.466-3.361,1.608-9.55c0.993-5.389,3.691-7.098,7.267-5.821c0.87-1.787,7.612-2.037,9.258,3.049
	c1.933,5.983-0.217,9.304,2.462,12.013c-1.946,1.425-4.217,1.246-6.112,0.634c-0.297,0.403-0.607,0.789-0.925,1.154
	c0.33,2.149,1.435,4.315,4.325,5.228c0.039,0.012,0.078,0.024,0.116,0.037c-0.004,0.003-0.008,0.005-0.012,0.008
	c2.163,0.678,4.653,1.365,6.138,2.865C47.842,39.903,47.046,47.903,47.046,47.903z"/>
</svg>
