
<svg xmlns="http://www.w3.org/2000/svg" x="0px" y="0px"
	 width="64.299px" height="64.299px" viewBox="0 0 64.299 64.299">

	<path fill="#5F6062" d="M45.175,46.135c0,0.373,0.051,0.735,0.145,1.078c2.464-0.606,4.395-2.58,4.939-5.068
		c-0.313-0.077-0.639-0.118-0.976-0.118C47.018,42.028,45.175,43.871,45.175,46.135z"/>
	<path fill="#5F6062" d="M38.163,42.028c-0.336,0-0.663,0.042-0.976,0.118c0.543,2.488,2.475,4.462,4.939,5.068
		c0.094-0.344,0.145-0.705,0.145-1.078C42.271,43.871,40.428,42.028,38.163,42.028z"/>
	<circle fill="#5F6062" cx="43.723" cy="40.717" r="1.84"/>
	<path fill="#5F6062" d="M32.149,0C14.394,0,0,14.394,0,32.149s14.394,32.149,32.149,32.149s32.149-14.394,32.149-32.149
		S49.905,0,32.149,0z M26.607,46.99h-9.223c0,0-0.81-8.14,0.407-9.374c1.544-1.56,4.157-2.256,6.391-2.961
		c2.929-0.927,4.058-3.12,4.396-5.3c-0.352-0.403-0.692-0.833-1.021-1.28c-1.664,0.669-3.583,0.964-5.675-0.245
		c2.726-2.755,0.474-3.42,1.636-9.718c1.01-5.484,3.756-7.223,7.395-5.923c0.885-1.819,7.746-2.073,9.42,3.103
		c1.967,6.089-0.221,9.468,2.506,12.224c-1.98,1.45-4.291,1.268-6.22,0.645c-0.302,0.41-0.618,0.802-0.941,1.174
		c0.167,1.088,0.53,2.181,1.214,3.118c-2.378,1.969-3.896,4.943-3.896,8.265c0,2.34,0.754,4.508,2.031,6.273H26.607z M43.723,49.6
		c-4.906,0-8.883-3.977-8.883-8.883s3.977-8.883,8.883-8.883c4.906,0,8.883,3.977,8.883,8.883S48.629,49.6,43.723,49.6z"/>
	<path fill="#5F6062" d="M43.723,34.028c-3.147,0-5.794,2.185-6.503,5.118c1.833-1.315,4.079-2.091,6.503-2.091
		c2.424,0,4.669,0.775,6.503,2.091C49.517,36.213,46.871,34.028,43.723,34.028z"/>

</svg>
