
<svg xmlns="http://www.w3.org/2000/svg" x="0px" y="0px"
	 width="64.299px" height="64.299px" viewBox="0 0 64.299 64.299" enable-background="new 0 0 64.299 64.299" xml:space="preserve">
<path fill="#5F6062" d="M32.149,0C14.394,0,0,14.394,0,32.149c0,17.756,14.394,32.149,32.149,32.149s32.149-14.394,32.149-32.149
	C64.299,14.394,49.905,0,32.149,0z M15.296,47.278c0,0-0.297-5.406,0.687-6.933c1.093-1.706,3.764-2.767,7.399-4.278
	c3.633-1.514,4.495-2.038,4.495-2.038l0.035-3.492c0,0-1.361-1.048-1.786-4.323c-0.853,0.249-1.741-1.271-1.796-2.07
	c-0.045-0.77,0.121-2.901,1.16-2.687c-0.211-1.61-0.364-3.054-0.294-3.818c0.275-2.808,3.032-5.757,7.269-5.757
	c4.24,0,7,2.949,7.268,5.757c0.077,0.764-0.08,2.208-0.288,3.818c1.035-0.214,1.198,1.917,1.15,2.687
	c-0.045,0.799-0.939,2.32-1.792,2.07c-0.422,3.275-1.78,4.323-1.78,4.323l0.011,1.342c-1.845,0.83-3.314,2.551-3.888,4.736
	c-0.429,1.632-0.551,4.229,1.303,7.33c0.69,1.154,1.592,2.267,2.699,3.334H15.296z M43.679,49.771
	c-17.497-9.876-4.84-22.156,0-13.885C48.523,27.615,61.18,39.895,43.679,49.771z"/>
</svg>
