
<svg xmlns="http://www.w3.org/2000/svg" x="0px" y="0px"
	 width="64.299px" height="64.299px" viewBox="0 0 64.299 64.299">
<path fill="#5F6062" d="M32.149,0C14.394,0,0,14.394,0,32.149c0,17.756,14.394,32.149,32.149,32.149s32.149-14.394,32.149-32.149
	C64.299,14.394,49.905,0,32.149,0z M29.136,43.429c0,1.012-0.824,1.836-1.836,1.836c-1.012,0-1.836-0.824-1.836-1.836v-1.998
	l-6.255,6.255c-0.347,0.347-0.808,0.538-1.298,0.538c-0.49,0-0.951-0.191-1.298-0.538c-0.347-0.347-0.538-0.808-0.538-1.298
	c0-0.49,0.191-0.951,0.538-1.298l6.255-6.255h-2.135c-1.012,0-1.836-0.824-1.836-1.836c0-1.012,0.824-1.836,1.836-1.836h7.508
	c0.493,0,0.895,0.401,0.895,0.895L29.136,43.429z M28.241,29.136h-7.508c-1.012,0-1.836-0.824-1.836-1.836
	c0-1.012,0.824-1.836,1.836-1.836h2.135l-6.255-6.255c-0.347-0.347-0.538-0.808-0.538-1.298c0-0.49,0.191-0.951,0.538-1.298
	c0.347-0.347,0.808-0.538,1.298-0.538c0.49,0,0.951,0.191,1.298,0.538l6.255,6.255V20.87c0-1.012,0.824-1.836,1.836-1.836
	c1.012,0,1.836,0.824,1.836,1.836l0,7.371C29.136,28.734,28.734,29.136,28.241,29.136z M47.686,47.686
	c-0.347,0.347-0.808,0.538-1.298,0.538c-0.49,0-0.951-0.191-1.298-0.538l-6.255-6.255v2.135c0,1.012-0.824,1.836-1.836,1.836
	c-1.012,0-1.836-0.824-1.836-1.836v-7.508c0-0.493,0.401-0.895,0.895-0.895l7.371,0c1.012,0,1.836,0.824,1.836,1.836
	s-0.824,1.836-1.836,1.836h-1.998l6.255,6.255c0.347,0.347,0.538,0.808,0.538,1.298C48.224,46.879,48.033,47.34,47.686,47.686z
	 M47.686,19.209l-6.255,6.255h1.998c1.012,0,1.836,0.824,1.836,1.836c0,1.012-0.824,1.836-1.836,1.836l-7.371,0
	c-0.493,0-0.895-0.401-0.895-0.895v-7.508c0-1.012,0.824-1.836,1.836-1.836c1.012,0,1.836,0.824,1.836,1.836v2.135l6.255-6.255
	c0.347-0.347,0.808-0.538,1.298-0.538c0.49,0,0.951,0.191,1.298,0.538c0.347,0.347,0.538,0.808,0.538,1.298
	C48.224,18.401,48.033,18.862,47.686,19.209z"/>
</svg>
