<?xml version="1.0" encoding="utf-8"?>
<!-- Generator: Adobe Illustrator 19.2.1, SVG Export Plug-In . SVG Version: 6.00 Build 0)  -->
<svg version="1.1" id="icons" xmlns="http://www.w3.org/2000/svg" xmlns:xlink="http://www.w3.org/1999/xlink" x="0px" y="0px"
	 viewBox="0 0 64.4 64.4" style="enable-background:new 0 0 64.4 64.4;" xml:space="preserve">
<path class="st0" d="M32.2,0C14.4,0,0,14.4,0,32.2s14.4,32.2,32.2,32.2S64.4,50,64.4,32.2c0,0,0,0,0,0C64.4,14.4,50,0,32.2,0z
	 M35.4,44.7c0,1.7-1.3,3-3,3c-1.7,0-3-1.3-3-3v-15c0-1.7,1.3-3,3-3c1.7,0,3,1.3,3,3V44.7z M32.4,21.7c-1.7,0-3-1.3-3-3s1.3-3,3-3
	c1.7,0,3,1.3,3,3S34,21.7,32.4,21.7z"/>
</svg>
