<?xml version="1.0" encoding="utf-8"?>
<!-- Generator: Adobe Illustrator 19.2.1, SVG Export Plug-In . SVG Version: 6.00 Build 0)  -->
<svg version="1.1" id="icons" xmlns="http://www.w3.org/2000/svg" xmlns:xlink="http://www.w3.org/1999/xlink" x="0px" y="0px"
	 viewBox="0 0 64.4 64.4" style="enable-background:new 0 0 64.4 64.4;" xml:space="preserve">

<path class="st0" d="M32.1-0.1C14.3-0.1-0.1,14.3-0.1,32S14.3,64.2,32,64.2s32.2-14.4,32.2-32.1c0,0,0,0,0,0
	C64.2,14.3,49.8-0.1,32.1-0.1z M50.3,22.3c-8.3,4.4-7.7,13.4-13.5,17.4c-4.4,3-10.5,1.5-14.1,0.2c-1.6,2-3,4.1-4.2,6.4
	c-0.6,1.2-3.1-0.1-2.7-1.2C21.6,32,40.9,25.4,40.9,25.4s-13.6-0.5-22.7,10.2c-0.2-2.5-0.7-9,6.4-13.1C34.1,17,52.3,21.2,50.3,22.3z"
	/>
</svg>
