
<svg xmlns="http://www.w3.org/2000/svg" x="0px" y="0px"
	 width="64.299px" height="64.299px" viewBox="0 0 64.299 64.299">
<path fill="#5F6062" d="M32.149,0C14.394,0,0,14.394,0,32.149c0,17.756,14.394,32.149,32.149,32.149s32.149-14.394,32.149-32.149
	C64.299,14.394,49.905,0,32.149,0z M23.79,24.86c0.822-0.822,2.156-0.822,2.979,0l3.307,3.307V14.215
	c0-1.163,0.943-2.106,2.106-2.106c1.163,0,2.106,0.943,2.106,2.106v13.952l3.307-3.307c0.823-0.822,2.156-0.822,2.979,0
	c0.823,0.822,0.823,2.156,0,2.979l-7.73,7.73c-0.366,0.366-0.958,0.366-1.324,0l-7.73-7.73C22.967,27.016,22.967,25.682,23.79,24.86
	z M48.01,42.9c0,0.517-0.419,0.936-0.936,0.936H17.225c-0.517,0-0.936-0.419-0.936-0.936v-6.71c0-1.163,0.943-2.106,2.106-2.106
	c1.163,0,2.106,0.943,2.106,2.106v3.434h23.296V36.19c0-1.163,0.943-2.106,2.106-2.106c1.163,0,2.106,0.943,2.106,2.106V42.9z"/>
</svg>
