
<svg xmlns="http://www.w3.org/2000/svg" x="0px" y="0px"
	 width="64.299px" height="64.299px" viewBox="0 0 64.299 64.299">

	<path fill="#5F6062" d="M29.886,22.302l-3.027,2.873h12.424v-3.628h-7.134C31.339,21.547,30.535,21.815,29.886,22.302z"/>
	<circle fill="#5F6062" cx="46.824" cy="37.144" r="1.755"/>
	<circle fill="#5F6062" cx="18.983" cy="37.144" r="1.755"/>
	<path fill="#5F6062" d="M48.641,21.547h-7.579v3.628H51.88l-0.823-2.008C50.653,22.183,49.705,21.547,48.641,21.547z"/>
	<path fill="#5F6062" d="M32.149,0C14.394,0,0,14.394,0,32.149c0,17.756,14.394,32.149,32.149,32.149s32.149-14.394,32.149-32.149
		C64.299,14.394,49.905,0,32.149,0z M18.983,41.584c-2.452,0-4.44-1.988-4.44-4.439c0-2.452,1.988-4.439,4.44-4.439
		s4.439,1.988,4.439,4.439C23.423,39.596,21.435,41.584,18.983,41.584z M46.824,41.584c-2.452,0-4.439-1.988-4.439-4.439
		c0-2.452,1.988-4.439,4.439-4.439c2.452,0,4.44,1.988,4.44,4.439C51.263,39.596,49.276,41.584,46.824,41.584z M54.654,36.053
		c0,0.961-0.779,1.74-1.74,1.74h-0.236c0.024-0.213,0.036-0.43,0.036-0.649c0-3.248-2.642-5.89-5.89-5.89
		c-3.247,0-5.89,2.642-5.89,5.89c0,0.219,0.012,0.436,0.036,0.649H24.837c0.024-0.213,0.036-0.43,0.036-0.649
		c0-3.248-2.642-5.89-5.89-5.89s-5.889,2.642-5.889,5.89c0,0.219,0.012,0.436,0.036,0.649h-1.745c-0.961,0-1.74-0.779-1.74-1.74
		v-1.608c0-0.961,0.779-1.74,1.74-1.74h0.298v-3.469c0-2.242,1.818-4.06,4.06-4.06h7.734l5.191-4.497
		c1.004-0.754,2.226-1.161,3.481-1.161h16.492c1.883,0,3.579,1.138,4.293,2.88l1.139,2.778v7.53c0.32,0,0.58,0.26,0.58,0.58V36.053z
		"/>

</svg>
