
<svg xmlns="http://www.w3.org/2000/svg" x="0px" y="0px"
	 width="64.299px" height="64.299px" viewBox="0 0 64.299 64.299">
<path fill="#5F6062" d="M32.149,0C14.394,0,0,14.394,0,32.149c0,17.756,14.394,32.149,32.149,32.149s32.149-14.394,32.149-32.149
	C64.299,14.394,49.905,0,32.149,0z M14.492,22.276c0-0.086,0.021-0.167,0.058-0.238c0.034-0.11,0.105-0.211,0.219-0.28
	c0.038-0.023,0.08-0.04,0.123-0.054l17.026-5.628c0.131-0.057,0.281-0.057,0.412,0l17.172,5.644c0.24,0.103,0.335,0.324,0.312,0.532
	c-0.003,0.028-0.006,0.055-0.006,0.083v0.522c0,0.575-0.466,1.042-1.042,1.042H15.533c-0.575,0-1.042-0.466-1.042-1.042V22.276z
	 M17.723,27.212L17.693,27.2c-0.391-0.153-0.649-0.531-0.649-0.951c0-0.564,0.458-1.022,1.022-1.022h4.199
	c0.564,0,1.022,0.458,1.022,1.022c0,0.42-0.257,0.798-0.649,0.951l-0.031,0.012c-0.391,0.153-0.649,0.531-0.649,0.951v4.909
	c0,0.42,0.258,0.798,0.649,0.951l0.031,0.012c0.391,0.153,0.649,0.531,0.649,0.951c0,0.564-0.458,1.022-1.022,1.022h-4.199
	c-0.564,0-1.022-0.458-1.022-1.022c0-0.42,0.257-0.798,0.649-0.951l0.031-0.012c0.391-0.153,0.649-0.531,0.649-0.951v-4.909
	C18.372,27.743,18.115,27.365,17.723,27.212z M47.894,37.337c0.366,0,0.663,0.297,0.663,0.663v1.278
	c0,0.366-0.297,0.663-0.663,0.663H16.405c-0.366,0-0.663-0.297-0.663-0.663V38c0-0.366,0.297-0.663,0.663-0.663H47.894z
	 M29.681,27.212l-0.03-0.012c-0.391-0.153-0.649-0.531-0.649-0.951c0-0.564,0.458-1.022,1.022-1.022h4.199
	c0.564,0,1.022,0.458,1.022,1.022c0,0.42-0.257,0.798-0.649,0.951l-0.031,0.012c-0.391,0.153-0.649,0.531-0.649,0.951v4.909
	c0,0.42,0.257,0.798,0.649,0.951l0.031,0.012c0.391,0.153,0.649,0.531,0.649,0.951c0,0.564-0.458,1.022-1.022,1.022h-4.199
	c-0.564,0-1.022-0.458-1.022-1.022c0-0.42,0.257-0.798,0.649-0.951l0.03-0.012c0.391-0.153,0.649-0.531,0.649-0.951v-4.909
	C30.33,27.743,30.072,27.365,29.681,27.212z M41.691,27.212L41.66,27.2c-0.391-0.153-0.649-0.531-0.649-0.951
	c0-0.564,0.458-1.022,1.022-1.022h4.199c0.564,0,1.022,0.458,1.022,1.022c0,0.42-0.257,0.798-0.649,0.951l-0.031,0.012
	c-0.391,0.153-0.649,0.531-0.649,0.951v4.909c0,0.42,0.257,0.798,0.649,0.951l0.031,0.012c0.391,0.153,0.649,0.531,0.649,0.951
	c0,0.564-0.458,1.022-1.022,1.022h-4.199c-0.564,0-1.022-0.458-1.022-1.022c0-0.42,0.257-0.798,0.649-0.951l0.031-0.012
	c0.391-0.153,0.649-0.531,0.649-0.951v-4.909C42.34,27.743,42.082,27.365,41.691,27.212z M49.859,43.185
	c0,0.366-0.297,0.663-0.663,0.663H15.103c-0.366,0-0.663-0.297-0.663-0.663v-1.278c0-0.366,0.297-0.663,0.663-0.663h34.093
	c0.366,0,0.663,0.297,0.663,0.663V43.185z"/>
</svg>
