<?xml version="1.0" encoding="utf-8"?>
<!-- Generator: Adobe Illustrator 19.2.1, SVG Export Plug-In . SVG Version: 6.00 Build 0)  -->
<svg version="1.1" id="icons" xmlns="http://www.w3.org/2000/svg" xmlns:xlink="http://www.w3.org/1999/xlink" x="0px" y="0px" width="64.3px" height="64.3px" viewBox="0 0 64.3 64.3" style="enable-background:new 0 0 64.3 64.3;" xml:space="preserve">
<g>
	<path class="st0" d="M45.9,27.6c-2.8,0-5.1,2-5.6,4.6h3c0.5-1,1.5-1.7,2.6-1.7c1.2,0,2.2,0.7,2.6,1.7h2v2h-1.9
		c-0.2,1.1-1.4,2-2.7,2s-2.4-0.9-2.8-2.1h-2.9c0.4,2.8,2.8,5,5.7,5c3.2,0,5.8-2.6,5.8-5.8C51.7,30.1,49.1,27.6,45.9,27.6z"/>
	<path class="st0" d="M21.9,28.9l-1.1,3.2c0.2,0.4,0.3,0.8,0.3,1.3c0,1.6-1.3,2.9-2.9,2.9c-1.6,0-2.9-1.3-2.9-2.9
		c0-1.6,1.3-2.9,2.9-2.9c0.2,0,0.5,0,0.7,0.1l0.9-2.7c-0.5-0.2-1.1-0.2-1.6-0.2c-3.2,0-5.8,2.6-5.8,5.8s2.6,5.8,5.8,5.8
		s5.8-2.6,5.8-5.8C23.9,31.6,23.1,29.9,21.9,28.9z"/>
	<path class="st0" d="M30.4,28.6c0.3,0.2,0.6,0.4,0.9,0.7c0.5-0.4,1.2-0.7,2-0.7c1.6,0,2.8,1.2,3.1,2.6c0.3,0.1,0.7,0.1,1,0.1
		c0.3-1.5,1-2.8,2-3.9H29.4L30.4,28.6z"/>
	<path class="st0" d="M32.1-0.1C14.3-0.1,0,14.2,0,31.9c-0.1,17.8,14.3,32.2,32.1,32.2s32.1-14.4,32.1-32.1
		C64.2,14.2,49.8-0.1,32.1-0.1z M17.1,16.4h2.2c0.9,0,1.7,0.8,1.7,1.7v1.3c0,0.9-0.8,1.7-1.7,1.7h-2.2V16.4z M45.9,42
		c-4.5,0-8.2-3.5-8.6-7.9h-4.1l-7.5-8.3l-1.2-4.6l-1.6,4.8c2.4,1.5,4,4.2,4,7.3c0,4.8-3.9,8.7-8.7,8.7S9.4,38,9.4,33.2
		s3.9-8.7,8.7-8.7c0.9,0,1.7,0.1,2.6,0.4l2.6-7.7c0.5-1.6,2-2.6,3.7-2.6h4.1v1.1h-3.7c-0.7,0-1.3,0.4-1.5,1.1l-0.6,1.8l9.7,4.3h14.8
		c1,0,1.7,0.8,1.7,1.7v2.2c1.8,1.6,2.9,3.9,2.9,6.5C54.6,38.1,50.7,42,45.9,42z"/>
</g>
</svg>
