
<svg  xmlns="http://www.w3.org/2000/svg" x="0px" y="0px"
	 width="64.299px" height="64.299px" viewBox="0 0 64.299 64.299">
<path fill="#5F6062" d="M32.149,0C14.394,0,0,14.394,0,32.149c0,17.756,14.394,32.149,32.149,32.149s32.149-14.394,32.149-32.149
	C64.299,14.394,49.905,0,32.149,0z M49.186,26.293L32.711,42.767c-0.421,0.422-1.105,0.422-1.527,0L14.711,26.293
	c-0.843-0.843-0.843-2.21,0-3.053l0.175-0.175c0.843-0.843,2.21-0.843,3.053,0L31.185,36.31c0.422,0.422,1.105,0.422,1.527,0
	l13.246-13.246c0.843-0.843,2.21-0.843,3.053,0l0.175,0.175C50.029,24.083,50.029,25.45,49.186,26.293z"/>
</svg>
