
<svg xmlns="http://www.w3.org/2000/svg" x="0px" y="0px"
	 width="64.299px" height="64.299px" viewBox="0 0 64.299 64.299">

	<path fill="#5F6062" d="M38.604,20.762v2.214c0,0.274,0.223,0.496,0.498,0.496h0.597c0.275,0,0.498-0.222,0.498-0.496v-2.214
		c0.663-0.302,1.123-0.969,1.123-1.742c0-0.334-0.088-0.649-0.239-0.923c-0.33-0.597-0.971-1-1.708-0.99
		c-0.709,0.01-1.327,0.409-1.652,0.99c-0.149,0.268-0.235,0.575-0.239,0.901C37.472,19.782,37.936,20.458,38.604,20.762z"/>
	<path fill="#5F6062" d="M27.94,27.829h-5.612c-0.383,0-0.693,0.31-0.693,0.693v13.327c0,0.383,0.31,0.693,0.693,0.693h5.612
		c0.383,0,0.693-0.31,0.693-0.693V28.522C28.633,28.139,28.323,27.829,27.94,27.829z"/>
	<path fill="#5F6062" d="M32.149,0C14.394,0,0,14.394,0,32.149c0,17.756,14.394,32.149,32.149,32.149s32.149-14.394,32.149-32.149
		C64.299,14.394,49.905,0,32.149,0z M34.734,12.767c0-1.232,0.481-2.391,1.355-3.262c0.874-0.871,2.036-1.352,3.272-1.352h0.078
		c1.236,0,2.398,0.478,3.272,1.349c0.874,0.871,1.356,2.03,1.356,3.262v0.013v0.002h-1.596v-0.013c0-1.666-1.359-3.024-3.033-3.024
		h-0.077c-1.672,0-3.033,1.355-3.033,3.024v0.013h-1.592V12.767z M45.077,14.001c0.55,0,0.995,0.445,0.995,0.992v10.411
		c0,0.548-0.446,0.992-0.995,0.992h-11.35c-0.55,0-0.995-0.444-0.995-0.992V14.993c0-0.547,0.445-0.992,0.995-0.992H45.077z
		 M51.172,29.2c-0.252,0.286-0.603,0.432-0.957,0.432c-0.3,0-0.6-0.105-0.842-0.318l-1.505-1.326v15.505
		c0,0.768-0.623,1.391-1.391,1.391H17.843c-0.768,0-1.391-0.623-1.391-1.391V28.013l-1.475,1.3
		c-0.528,0.465-1.334,0.415-1.799-0.113c-0.466-0.528-0.415-1.334,0.113-1.799l18.041-15.903c0.482-0.425,1.204-0.425,1.686,0
		l0.225,0.199c-0.044,0.253-0.096,0.505-0.108,0.766c-1.15,0.269-2.01,1.302-2.01,2.532v10.411c0,1.433,1.167,2.599,2.602,2.599
		h11.35c1.435,0,2.602-1.166,2.602-2.599v-0.983l3.38,2.98C51.587,27.866,51.638,28.672,51.172,29.2z"/>

</svg>
