
<svg  xmlns="http://www.w3.org/2000/svg"  x="0px" y="0px"
	 width="64.299px" height="64.299px" viewBox="0 0 64.299 64.299">

	<path fill="#5F6062" d="M25.455,32.78h16.379c0.579,0,1.048-0.469,1.048-1.048c0-0.579-0.469-1.048-1.048-1.048H25.455
		c-0.579,0-1.048,0.469-1.048,1.048C24.407,32.311,24.876,32.78,25.455,32.78z"/>
	<path fill="#5F6062" d="M32.149,0C14.394,0,0,14.394,0,32.149c0,17.756,14.394,32.149,32.149,32.149s32.149-14.394,32.149-32.149
		C64.299,14.394,49.905,0,32.149,0z M20.235,49.406c-1.447,0-2.62-1.173-2.62-2.62V16.421c0-1.447,1.173-2.62,2.62-2.62h25.106
		c1.447,0,2.62,1.173,2.62,2.62V33.17c-1.124-0.405-2.334-0.626-3.595-0.626c-3.48,0-6.574,1.679-8.516,4.27H25.455
		c-0.579,0-1.048,0.469-1.048,1.048s0.469,1.048,1.048,1.048h9.17c-0.576,1.308-0.897,2.753-0.897,4.272
		c0,2.323,0.749,4.473,2.017,6.225H20.235z M44.366,51.985c-4.862,0-8.804-3.941-8.804-8.804c0-4.862,3.941-8.804,8.804-8.804
		c4.862,0,8.804,3.941,8.804,8.804C53.17,48.044,49.229,51.985,44.366,51.985z"/>
	<path fill="#5F6062" d="M25.455,26.702h13.236c0.579,0,1.048-0.469,1.048-1.048s-0.469-1.048-1.048-1.048H25.455
		c-0.579,0-1.048,0.469-1.048,1.048S24.876,26.702,25.455,26.702z"/>
	<path fill="#5F6062" d="M45.162,43.064v-5.948c0-0.423-0.343-0.765-0.765-0.765c-0.423,0-0.765,0.343-0.765,0.765v6.582h0
		l3.379,3.379c0.299,0.299,0.783,0.299,1.082,0c0.299-0.299,0.299-0.784,0-1.082L45.162,43.064z"/>

</svg>
