
<svg  xmlns="http://www.w3.org/2000/svg" x="0px" y="0px"
	 width="64.299px" height="64.299px" viewBox="0 0 64.299 64.299">

	<path fill="#5F6062" d="M28.168,27.847h-6.101c-0.245,0-0.444,0.199-0.444,0.444v13.806c0,0.245,0.199,0.444,0.444,0.444h6.101
		c0.245,0,0.444-0.199,0.444-0.444V28.291C28.612,28.046,28.413,27.847,28.168,27.847z"/>
	<path fill="#5F6062" d="M42.274,27.847h-7.953c-0.245,0-0.444,0.199-0.444,0.444v7.79c0,0.245,0.199,0.444,0.444,0.444h7.953
		c0.245,0,0.444-0.199,0.444-0.444v-7.79C42.718,28.046,42.519,27.847,42.274,27.847z"/>
	<path fill="#5F6062" d="M32.149,0C14.394,0,0,14.394,0,32.149c0,17.756,14.394,32.149,32.149,32.149s32.149-14.394,32.149-32.149
		C64.299,14.394,49.905,0,32.149,0z M51.121,29.216c-0.252,0.285-0.603,0.431-0.955,0.431c-0.299,0-0.599-0.105-0.841-0.318
		l-1.503-1.325v15.484c0,0.767-0.622,1.389-1.389,1.389H17.836c-0.767,0-1.389-0.622-1.389-1.389V28.031l-1.473,1.298
		c-0.527,0.465-1.332,0.414-1.797-0.113c-0.465-0.527-0.414-1.332,0.113-1.797l18.017-15.882c0.481-0.424,1.202-0.424,1.684,0
		l7.953,7.011v-4.374c0-0.383,0.311-0.694,0.694-0.694h3.24c0.383,0,0.694,0.311,0.694,0.694v8.455l5.435,4.791
		C51.535,27.884,51.586,28.689,51.121,29.216z"/>

</svg>
