
<svg xmlns="http://www.w3.org/2000/svg" x="0px" y="0px"
	 width="64.299px" height="64.299px" viewBox="0 0 64.299 64.299">
<path fill="#5F6062" d="M32.149,0C14.394,0,0,14.394,0,32.149c0,17.756,14.394,32.149,32.149,32.149s32.149-14.394,32.149-32.149
	C64.299,14.394,49.905,0,32.149,0z M48.56,21.781L27.98,46.165c-0.358,0.424-1.001,0.45-1.392,0.057L15.864,35.447
	c-0.877-0.881-0.874-2.307,0.008-3.184c0.881-0.877,2.307-0.874,3.184,0.008l7.259,7.294c0.391,0.393,1.035,0.367,1.392-0.057
	l17.412-20.63c0.802-0.95,2.222-1.07,3.173-0.268S49.362,20.831,48.56,21.781z"/>
</svg>
