
<svg xmlns="http://www.w3.org/2000/svg" x="0px" y="0px"
	 width="64.299px" height="64.299px" viewBox="0 0 64.299 64.299">

	<path fill="#5F6062" d="M20.048,31.516c-1.13,0-2.098,0.968-2.098,2.099c0,1.13,0.968,2.098,2.098,2.098
		c1.132,0,2.098-0.969,2.098-2.098C22.146,32.484,21.18,31.516,20.048,31.516z"/>
	<path fill="#5F6062" d="M19.471,28.071h19.242c0.387,0,0.655-0.385,0.522-0.748l-1.65-4.485c-0.302-0.82-1.083-1.365-1.956-1.365
		H22.555c-0.874,0-1.655,0.545-1.956,1.365l-1.65,4.484C18.815,27.686,19.084,28.071,19.471,28.071z"/>
	<path fill="#5F6062" d="M37.976,31.516c-1.132,0-2.1,0.968-2.1,2.099c0,1.13,0.969,2.098,2.1,2.098c1.13,0,2.098-0.969,2.098-2.098
		C40.074,32.484,39.105,31.516,37.976,31.516z"/>
	<path fill="#5F6062" d="M32.149,0C14.394,0,0,14.394,0,32.149c0,17.756,14.394,32.149,32.149,32.149s32.149-14.394,32.149-32.149
		C64.299,14.394,49.905,0,32.149,0z M44.11,40.897L44.11,40.897v2.476c0,1.22-0.989,2.21-2.21,2.21h-0.648
		c-1.22,0-2.21-0.989-2.21-2.21V41.87H19.149v1.503c0,1.22-0.989,2.21-2.21,2.21h-0.648c-1.22,0-2.21-0.989-2.21-2.21V41.02
		c-0.005-0.04-0.008-0.081-0.008-0.123v-8.378h0.003c0.033-0.783,0.905-1.886,1.767-2.791l2.8-7.609
		c0.603-1.64,2.165-2.729,3.913-2.729h13.073c1.747,0,3.309,1.09,3.913,2.729l2.852,7.752c0.842,0.919,1.677,1.988,1.714,2.648
		h0.004V40.897z M50.226,35.668L50.226,35.668v2.476c0,1.22-0.989,2.21-2.21,2.21h-0.648c-0.649,0-1.232-0.28-1.636-0.725
		c0-2.956,0-6.656,0-7.11c0-0.769-0.517-1.621-0.517-1.621c-0.103-0.182-0.222-0.37-0.358-0.566
		c0.769-0.316,1.333-1.084,1.333-1.945c0-1.132-0.969-2.099-2.098-2.099c-0.422,0-0.821,0.135-1.156,0.362l-1.401-3.807h3.294
		c0.387,0,0.655-0.385,0.522-0.748L43.7,17.61c-0.302-0.82-1.083-1.365-1.956-1.365H28.671c-0.874,0-1.655,0.545-1.956,1.365
		l-0.058,0.159h-2.221l0.323-0.879c0.603-1.64,2.165-2.729,3.913-2.729h13.073c1.747,0,3.309,1.09,3.913,2.729l2.852,7.752
		c0.842,0.919,1.677,1.988,1.714,2.648h0.004V35.668z"/>

</svg>
