
<svg xmlns="http://www.w3.org/2000/svg" x="0px" y="0px" width="64.299px" height="64.299px" viewBox="0 0 64.299 64.299" >

	<path fill="#5F6062" d="M27.918,28.628h-5.6c-0.384,0-0.694,0.311-0.694,0.694v11.964c0,0.382,0.31,0.692,0.692,0.692h5.605
		c0.382,0,0.692-0.31,0.692-0.692V29.322C28.612,28.939,28.301,28.628,27.918,28.628z"/>
	<path fill="#5F6062" d="M32.149,0C14.394,0,0,14.394,0,32.149c0,17.756,14.394,32.149,32.149,32.149s32.149-14.394,32.149-32.149
		C64.299,14.394,49.905,0,32.149,0z M36.842,48H16.215c-0.68,0-1.231-0.551-1.231-1.231c0-0.68,0.551-1.231,1.231-1.231h21.755
		L36.842,48z M47.898,48h-8.645l0.937-2.462h7.707c0.68,0,1.231,0.551,1.231,1.231C49.129,47.449,48.578,48,47.898,48z
		 M51.121,29.997c-0.252,0.285-0.603,0.431-0.955,0.431c-0.299,0-0.599-0.105-0.841-0.318l-1.503-1.325v14.142
		c0,0.767-0.622,1.389-1.389,1.389H37.88l0.986-2.591l-2.354-6.858l5.587-4.392l-4.597-5.724l2.671,5.724l-5.766,4.09l2.161,7.356
		l-1.098,2.395H17.836c-0.767,0-1.389-0.622-1.389-1.389V28.812l-1.473,1.298c-0.527,0.465-1.332,0.414-1.797-0.113
		c-0.465-0.527-0.414-1.332,0.113-1.797l18.017-15.882c0.481-0.424,1.202-0.424,1.684,0l7.953,7.011v-4.374
		c0-0.383,0.311-0.694,0.694-0.694h3.24c0.383,0,0.694,0.311,0.694,0.694v8.455l5.435,4.791
		C51.535,28.665,51.586,29.469,51.121,29.997z"/>

</svg>
