
<svg xmlns="http://www.w3.org/2000/svg"  x="0px" y="0px"
	 width="64.299px" height="64.299px" viewBox="0 0 64.299 64.299">

	<path fill="#5F6062" d="M44.248,18.679c-0.789,0.011-1.479,0.456-1.84,1.103c-0.166,0.298-0.262,0.641-0.266,1.004
		c-0.011,0.873,0.506,1.627,1.251,1.965v2.467c0,0.305,0.249,0.553,0.554,0.553h0.665c0.306,0,0.554-0.248,0.554-0.553v-2.467
		c0.739-0.336,1.251-1.079,1.251-1.941c0-0.372-0.098-0.722-0.266-1.028C45.783,19.117,45.069,18.668,44.248,18.679z"/>
	<path fill="#5F6062" d="M20.047,30.718c-1.36,0-2.524,1.164-2.524,2.526c0,1.359,1.164,2.524,2.524,2.524
		c1.361,0,2.524-1.166,2.524-2.524C22.572,31.883,21.409,30.718,20.047,30.718z"/>
	<path fill="#5F6062" d="M32.149,0C14.394,0,0,14.394,0,32.149c0,17.756,14.394,32.149,32.149,32.149s32.149-14.394,32.149-32.149
		C64.299,14.394,49.905,0,32.149,0z M39.08,13.844c0-1.373,0.536-2.664,1.51-3.634c0.973-0.971,2.268-1.506,3.645-1.506h0.086
		c1.377,0,2.672,0.533,3.645,1.503c0.974,0.971,1.51,2.261,1.51,3.634v0.015v0.002h-1.778v-0.015c0-1.857-1.514-3.369-3.379-3.369
		h-0.086c-1.862,0-3.379,1.51-3.379,3.369v0.015H39.08V13.844z M48.993,42.003L48.993,42.003v2.978c0,1.468-1.19,2.658-2.658,2.658
		h-0.78c-1.468,0-2.658-1.19-2.658-2.658v-1.808H18.966v1.808c0,1.468-1.19,2.658-2.658,2.658h-0.78
		c-1.468,0-2.658-1.19-2.658-2.658V42.15c-0.006-0.048-0.01-0.098-0.01-0.148V31.924h0.004c0.039-0.942,1.089-2.268,2.126-3.357
		l3.368-9.153c0.726-1.973,2.605-3.283,4.707-3.283h11.933c-0.004,0.064-0.007,0.129-0.007,0.194v2.313H23.063
		c-1.051,0-1.991,0.655-2.354,1.642l-1.985,5.395c-0.161,0.436,0.162,0.9,0.628,0.9h15.636v1.349c0,1.636,1.332,2.966,2.969,2.966
		h2.764c-0.942,0.372-1.636,1.304-1.636,2.354c0,1.359,1.166,2.524,2.527,2.524c1.359,0,2.524-1.166,2.524-2.524
		c0-1.05-0.694-1.983-1.635-2.354h6.099c0.226,0.389,0.371,0.745,0.387,1.034h0.004V42.003z M51.712,27.923
		c0,0.61-0.497,1.106-1.109,1.106H37.958c-0.612,0-1.108-0.495-1.108-1.106V16.325c0-0.61,0.496-1.106,1.108-1.106h12.645
		c0.612,0,1.109,0.496,1.109,1.106V27.923z"/>

</svg>
