
<svg xmlns="http://www.w3.org/2000/svg" x="0px" y="0px"
	 width="64.299px" height="64.299px" viewBox="0 0 64.299 64.299" >

	<path fill="#5F6062" d="M32.724,20.726h-1.172c-0.817,0-1.464,0.688-1.415,1.503l0.586,9.762c0.045,0.749,0.665,1.333,1.415,1.333
		c0.75,0,1.37-0.584,1.415-1.333l0.586-9.762C34.188,21.414,33.54,20.726,32.724,20.726z"/>
	<path fill="#5F6062" d="M32.149,0C14.394,0,0,14.394,0,32.149s14.394,32.149,32.149,32.149s32.149-14.394,32.149-32.149
		S49.905,0,32.149,0z M49.4,43.099H14.899c-1.288,0-2.083-1.407-1.418-2.51l17.251-28.612c0.644-1.068,2.192-1.068,2.835,0
		l17.251,28.612C51.483,41.692,50.688,43.099,49.4,43.099z"/>
	<path fill="#5F6062" d="M32.149,35.438c-0.928,0-1.681,0.753-1.681,1.681v0.04c0,0.928,0.753,1.681,1.681,1.681
		s1.681-0.753,1.681-1.681v-0.04C33.83,36.19,33.078,35.438,32.149,35.438z"/>

</svg>
