
<svg xmlns="http://www.w3.org/2000/svg" x="0px" y="0px"
	 width="64.299px" height="64.299px" viewBox="0 0 64.299 64.299">
<path fill="#5F6062" d="M32.149,0C14.394,0,0,14.394,0,32.149c0,17.756,14.394,32.149,32.149,32.149s32.149-14.394,32.149-32.149
	C64.299,14.394,49.905,0,32.149,0z M26.651,46.958h-9.213c0,0-0.81-8.132,0.407-9.364c1.542-1.559,4.153-2.254,6.385-2.958
	c0.595-0.188,1.114-0.429,1.569-0.712l-1.292,3.256c-0.089,0.224,0.145,0.439,0.361,0.333l3.329-1.043l2.619,10.489H26.651z
	 M27.691,32.013c0.502-0.829,0.787-1.752,0.929-2.673c-0.351-0.403-0.692-0.832-1.02-1.278c-1.663,0.668-3.579,0.963-5.67-0.245
	c2.723-2.752,0.474-3.416,1.634-9.708c1.009-5.478,3.752-7.215,7.387-5.917c0.884-1.817,7.738-2.071,9.411,3.1
	c1.965,6.082-0.221,9.458,2.503,12.211c-1.978,1.449-4.286,1.267-6.213,0.644c-0.302,0.409-0.617,0.802-0.94,1.173
	c0.141,0.916,0.421,1.835,0.914,2.662l-4.477,7.383L27.691,32.013z M46.862,46.958h-9.213h-4.163l2.617-10.48l3.299,1.033
	c0.216,0.106,0.449-0.109,0.361-0.333l-1.315-3.313c0.476,0.307,1.027,0.568,1.663,0.769c0.039,0.012,0.079,0.025,0.118,0.037
	c-0.004,0.003-0.008,0.006-0.012,0.008c2.199,0.689,4.73,1.388,6.24,2.913C47.671,38.826,46.862,46.958,46.862,46.958z"/>
</svg>
