
<svg xmlns="http://www.w3.org/2000/svg" x="0px" y="0px"
	 width="64.299px" height="64.299px" viewBox="0 0 64.299 64.299">
<path fill="#5F6062" d="M32.149,0C14.394,0,0,14.394,0,32.149c0,17.756,14.394,32.149,32.149,32.149s32.149-14.394,32.149-32.149
	C64.299,14.394,49.905,0,32.149,0z M33.001,13.901l12.089,2.387c1.094,0.216,1.967,1.041,2.244,2.121l1.481,5.767l-15.814-5.479
	V13.901z M17.346,18.396c0.276-1.073,1.14-1.895,2.225-2.117l11.642-2.377v4.795l-15.352,5.479L17.346,18.396z M50.535,46.393
	c-0.418,0.163-0.852,0.436-1.366,0.817c-2.797,2.077-5.077,2.077-7.875,0c-1.777-1.321-3.294-1.321-5.073,0
	c-1.05,0.78-2.056,1.264-3.052,1.456c-0.318,0.066-0.634,0.099-0.95,0.101h-0.008c-0.316-0.001-0.632-0.035-0.95-0.101
	c-0.996-0.192-2.002-0.677-3.052-1.456c-1.779-1.321-3.296-1.321-5.073,0c-2.798,2.077-5.079,2.077-7.875,0
	c-0.511-0.38-1.009-0.651-1.474-0.815c-0.587-0.206-0.975-0.765-0.975-1.387c0-1.02,1.014-1.739,1.972-1.388
	c0.698,0.255,1.406,0.641,2.101,1.157c1.707,1.268,2.663,1.458,4.628,0c0.483-0.358,0.997-0.676,1.544-0.927
	c0.497-0.228,1.02-0.4,1.558-0.499c0.298-0.054,0.601-0.077,0.904-0.087c0.389-0.013,0.771-0.017,1.157,0.042
	c0.26,0.04,0.517,0.098,0.769,0.173c0.533,0.159,1.041,0.391,1.522,0.669c0.329,0.19,0.646,0.401,0.95,0.629
	c0.434,0.322,0.889,0.638,1.394,0.838c0.271,0.107,0.571,0.172,0.863,0.181h0.081c0.292-0.009,0.591-0.074,0.862-0.181
	c0.505-0.2,0.96-0.516,1.394-0.838c0.304-0.228,0.622-0.439,0.951-0.629c0.481-0.278,0.989-0.51,1.522-0.669
	c0.252-0.075,0.509-0.134,0.769-0.173c0.386-0.059,0.768-0.054,1.157-0.042c0.303,0.01,0.606,0.033,0.904,0.087
	c0.538,0.098,1.061,0.27,1.558,0.499c0.547,0.251,1.061,0.569,1.544,0.927c1.965,1.458,2.921,1.268,4.628,0
	c0.651-0.484,1.269-0.853,1.881-1.108c0.966-0.402,2.029,0.314,2.029,1.36C51.456,45.629,51.094,46.175,50.535,46.393z
	 M53.927,31.854c-1.538,1.714-7.266,7.641-10.13,10.596c-0.293-0.157-0.608-0.362-0.954-0.618c-0.483-0.358-0.997-0.674-1.543-0.925
	c-0.496-0.228-1.019-0.399-1.557-0.497c-0.298-0.054-0.601-0.077-0.903-0.087c-0.389-0.013-0.77-0.017-1.156,0.042
	c-0.26,0.04-0.517,0.098-0.769,0.173c-0.532,0.158-1.04,0.39-1.52,0.668c-0.329,0.19-0.646,0.4-0.95,0.627
	c-0.433,0.321-0.888,0.636-1.393,0.836c-0.271,0.107-0.57,0.172-0.862,0.181h-0.081c-0.292-0.009-0.591-0.074-0.862-0.181
	c-0.505-0.2-0.959-0.514-1.393-0.836c-0.304-0.227-0.621-0.438-0.95-0.627c-0.48-0.277-0.988-0.509-1.52-0.668
	c-0.252-0.075-0.509-0.133-0.769-0.173c-0.386-0.059-0.767-0.054-1.156-0.042c-0.303,0.01-0.605,0.033-0.903,0.087
	c-0.538,0.098-1.06,0.27-1.556,0.497c-0.547,0.251-1.061,0.567-1.543,0.925c-0.333,0.246-0.636,0.445-0.919,0.599
	c-2.888-2.961-8.63-8.866-10.166-10.577c-2.074-2.312,0.951-3.167,0.951-3.167l18.235-6.678c0,0,2.419-1.199,5.185,0l18.235,6.678
	C52.977,28.686,56.001,29.542,53.927,31.854z"/>
</svg>
