<?xml version="1.0" encoding="utf-8"?>
<!-- Generator: Adobe Illustrator 19.2.1, SVG Export Plug-In . SVG Version: 6.00 Build 0)  -->
<svg version="1.1" id="Layer_1" xmlns="http://www.w3.org/2000/svg" xmlns:xlink="http://www.w3.org/1999/xlink" x="0px" y="0px" width="64.3px" height="64.3px"
	 viewBox="0 0 64.3 64.3" style="enable-background:new 0 0 64.3 64.3;">
<g id="Layer_2" class="st0">
</g>
<g id="icons">
	<path class="st1" d="M32.1-0.1C14.3-0.1,0,14.2,0,31.9s14.3,32.2,32.1,32.2s32.1-14.4,32.1-32.1S49.8-0.1,32.1-0.1z M42.2,49.2
		H20.1c-1,0-1.9-0.6-1.9-1.6V16.9c0-1,0.9-1.8,1.9-1.8h22.2c1.1,0,2,0.9,2,2s-0.9,2-2,2H23.4c-0.6,0-1.2,0.5-1.2,1.1v24.1
		c0,0.6,0.6,0.8,1.2,0.8h18.9c1.1,0,2,0.9,2,2C44.2,48.2,43.4,49.2,42.2,49.2z M50.2,33.2l-7.6,7.6c-0.8,0.8-2.1,0.8-2.8,0
		s-0.8-2.1,0-2.9l3.6-3.7H27.9c-1.1,0-2-0.9-2-2c0-1.1,0.9-2,2-2h15.4l-3.7-3.6c-0.8-0.8-0.8-2,0-2.8s2.1-0.8,2.8,0l7.6,7.6
		C50.7,31.9,50.7,32.7,50.2,33.2z"/>
</g>
</svg>
