
<svg xmlns="http://www.w3.org/2000/svg" x="0px" y="0px"
	 width="64.299px" height="64.299px" viewBox="0 0 64.299 64.299">

	<path fill="#5F6062" d="M44.862,41.187c-0.144-0.144-0.225-0.339-0.225-0.543v-5.651c0-0.424-0.344-0.768-0.768-0.768h0
		c-0.424,0-0.768,0.344-0.768,0.768v6.605h0l3.391,3.391c0.3,0.3,0.786,0.3,1.086,0l0,0c0.3-0.3,0.3-0.786,0-1.086L44.862,41.187z"
		/>
	<path fill="#5F6062" d="M32.149,0C14.394,0,0,14.394,0,32.149c0,17.756,14.394,32.149,32.149,32.149s32.149-14.394,32.149-32.149
		C64.299,14.394,49.905,0,32.149,0z M26.818,47.318h-9.171c0,0-0.806-8.095,0.405-9.321c1.535-1.552,4.134-2.244,6.355-2.945
		c2.912-0.922,4.035-3.103,4.371-5.27c-0.35-0.401-0.688-0.828-1.015-1.273c-1.655,0.665-3.562,0.959-5.644-0.244
		c2.711-2.739,0.472-3.401,1.627-9.663c1.005-5.453,3.734-7.182,7.353-5.89c0.88-1.809,7.702-2.062,9.368,3.085
		c1.956,6.054-0.22,9.414,2.491,12.155c-1.969,1.442-4.267,1.261-6.185,0.641c-0.3,0.407-0.614,0.798-0.936,1.168
		c0.166,1.082,0.527,2.168,1.207,3.101c-2.365,1.958-3.874,4.915-3.874,8.218c0,2.327,0.75,4.482,2.019,6.237H26.818z
		 M43.838,49.915c-4.879,0-8.835-3.955-8.835-8.835c0-4.879,3.955-8.835,8.835-8.835s8.835,3.955,8.835,8.835
		C52.673,45.96,48.717,49.915,43.838,49.915z"/>

</svg>
