
<svg  xmlns="http://www.w3.org/2000/svg"  x="0px" y="0px"
	 width="64.299px" height="64.299px" viewBox="0 0 64.299 64.299" >

	<circle fill="#5F6062" cx="36.353" cy="21.951" r="1"/>
	<path fill="#5F6062" d="M20.013,31.093c-1.353,0-2.512,1.159-2.512,2.513c0,1.352,1.159,2.512,2.512,2.512
		c1.355,0,2.512-1.16,2.512-2.512C22.525,32.252,21.368,31.093,20.013,31.093z"/>
	<circle fill="#5F6062" cx="42.511" cy="14.388" r="1"/>
	<circle fill="#5F6062" cx="37.761" cy="17.067" r="1"/>
	<path fill="#5F6062" d="M32.149,0C14.394,0,0,14.394,0,32.149c0,17.756,14.394,32.149,32.149,32.149s32.149-14.394,32.149-32.149
		C64.299,14.394,49.905,0,32.149,0z M48.819,42.324L48.819,42.324v2.964c0,1.461-1.184,2.646-2.646,2.646h-0.776
		c-1.461,0-2.646-1.184-2.646-2.646v-1.799H18.936v1.799c0,1.461-1.184,2.646-2.646,2.646h-0.776c-1.461,0-2.646-1.184-2.646-2.646
		v-2.817c-0.006-0.048-0.01-0.097-0.01-0.147v-10.03h0.004c0.039-0.937,1.084-2.257,2.115-3.341l3.352-9.109
		c0.722-1.963,2.592-3.268,4.684-3.268h9.638c-0.342,0.788-0.591,1.624-0.737,2.496h-8.901c-1.046,0-1.981,0.652-2.342,1.634
		l-1.975,5.369c-0.16,0.434,0.162,0.895,0.625,0.895h14.356c1.54,2.225,3.894,3.846,6.628,4.427c-0.79,0.431-1.345,1.274-1.345,2.21
		c0,1.352,1.16,2.512,2.514,2.512c1.352,0,2.512-1.16,2.512-2.512c0-0.793-0.398-1.519-0.999-1.985
		c1.723-0.069,3.344-0.545,4.768-1.334c0.587,0.753,1.03,1.485,1.059,2.005h0.004V42.324z M42.512,29.838
		c-4.93,0-8.927-3.997-8.927-8.927c0-4.93,3.997-8.927,8.927-8.927c4.931,0,8.927,3.997,8.927,8.927
		C51.439,25.841,47.442,29.838,42.512,29.838z"/>
	<circle fill="#5F6062" cx="48.723" cy="21.951" r="1"/>
	<path fill="#5F6062" d="M46.218,16.378l-3.05,2.778c-0.156-0.05-0.322-0.077-0.494-0.077c-0.898,0-1.625,0.728-1.625,1.625
		c0,0.897,0.728,1.625,1.625,1.625s1.625-0.728,1.625-1.625c0-0.143-0.019-0.281-0.053-0.413l3.026-2.756
		c0.319-0.291,0.343-0.786,0.052-1.105C47.032,16.111,46.537,16.088,46.218,16.378z"/>

</svg>
