
<svg  xmlns="http://www.w3.org/2000/svg" x="0px" y="0px"
	 width="64.299px" height="64.299px" viewBox="0 0 64.299 64.299">
<path fill="#5F6062" d="M32.149,0C14.394,0,0,14.394,0,32.149c0,17.756,14.394,32.149,32.149,32.149s32.149-14.394,32.149-32.149
	C64.299,14.394,49.905,0,32.149,0z M18.207,45.492c-1.178,0-2.132-0.955-2.132-2.132c0-1.178,0.955-2.132,2.132-2.132
	c1.178,0,2.132,0.955,2.132,2.132C20.339,44.537,19.385,45.492,18.207,45.492z M18.207,36.962c-1.178,0-2.132-0.955-2.132-2.132
	s0.955-2.132,2.132-2.132c1.178,0,2.132,0.955,2.132,2.132S19.385,36.962,18.207,36.962z M20.339,25.826
	c0,1.178-0.955,2.132-2.132,2.132c-1.178,0-2.132-0.955-2.132-2.132v0c0-1.178,0.955-2.132,2.132-2.132
	C19.385,23.694,20.339,24.648,20.339,25.826L20.339,25.826z M18.207,19.429c-1.178,0-2.132-0.955-2.132-2.132
	c0-1.178,0.955-2.132,2.132-2.132c1.178,0,2.132,0.955,2.132,2.132C20.339,18.474,19.385,19.429,18.207,19.429z M46.092,45.492
	H25.315c-1.178,0-2.132-0.955-2.132-2.132c0-1.178,0.955-2.132,2.132-2.132h20.776c1.178,0,2.132,0.955,2.132,2.132
	C48.224,44.537,47.269,45.492,46.092,45.492z M46.092,36.962H25.315c-1.178,0-2.132-0.955-2.132-2.132s0.955-2.132,2.132-2.132
	h20.776c1.178,0,2.132,0.955,2.132,2.132S47.269,36.962,46.092,36.962z M48.224,25.826c0,1.178-0.955,2.132-2.132,2.132H25.315
	c-1.178,0-2.132-0.955-2.132-2.132v0c0-1.178,0.955-2.132,2.132-2.132h20.776C47.269,23.694,48.224,24.648,48.224,25.826
	L48.224,25.826z M46.092,19.429H25.315c-1.178,0-2.132-0.955-2.132-2.132c0-1.178,0.955-2.132,2.132-2.132h20.776
	c1.178,0,2.132,0.955,2.132,2.132C48.224,18.474,47.269,19.429,46.092,19.429z"/>
</svg>
