
<svg xmlns="http://www.w3.org/2000/svg" x="0px" y="0px"
	 width="64.299px" height="64.299px" viewBox="0 0 64.299 64.299" >

	<path fill="#5F6062" d="M32.823,36.306c-0.19,0.19-0.19,0.498,0,0.688l3.483,3.483c0.19,0.19,0.498,0.19,0.688,0l3.483-3.483
		c0.19-0.19,0.19-0.498,0-0.688l-3.483-3.483c-0.19-0.19-0.498-0.19-0.688,0L32.823,36.306z M34.653,36.195l1.542-1.542
		c0.251-0.251,0.658-0.251,0.909,0l1.542,1.542c0.251,0.251,0.251,0.658,0,0.909l-1.542,1.542c-0.251,0.251-0.658,0.251-0.909,0
		l-1.542-1.542C34.402,36.853,34.402,36.446,34.653,36.195z"/>
	<path fill="#5F6062" d="M29.109,27.069c0.139-0.139,0.365-0.139,0.504,0l1.217,1.217c0.139,0.139,0.139,0.365,0,0.504l-2.04,2.04
		c-0.139,0.139-0.365,0.139-0.504,0l-1.217-1.217c-0.139-0.139-0.139-0.365,0-0.504L29.109,27.069z"/>
	<path fill="#5F6062" d="M0,32.149c0,17.756,14.394,32.149,32.149,32.149s32.149-14.394,32.149-32.149S49.905,0,32.149,0
		S0,14.394,0,32.149z M38.496,44.372l5.876-5.876l3.739,3.739l-5.876,5.876L38.496,44.372z M29.422,36.02l6.598-6.598
		c0.348-0.348,0.911-0.348,1.259,0l6.598,6.598c0.348,0.348,0.348,0.911,0,1.259l-6.598,6.598c-0.348,0.348-0.911,0.348-1.259,0
		l-6.598-6.598C29.075,36.932,29.075,36.368,29.422,36.02z M20.041,25.884l-3.853-3.853l5.842-5.842l3.853,3.853l1.15-1.15
		c0.348-0.348,0.911-0.348,1.259,0l1.807,1.807c0.133,0.133,0.208,0.314,0.209,0.503l0.005,3.271l3.165,3.165
		c0.348,0.348,0.348,0.912,0,1.259l-4.583,4.583c-0.348,0.348-0.912,0.348-1.259,0l-3.165-3.165l-3.271-0.005
		c-0.189,0-0.369-0.075-0.502-0.209l-1.807-1.807c-0.348-0.348-0.348-0.911,0-1.259L20.041,25.884z"/>
	<path fill="#5F6062" d="M26.533,21.005c0.139-0.139,0.365-0.139,0.504,0l0.4,0.4c0.139,0.139,0.139,0.365,0,0.504l-5.528,5.528
		c-0.139,0.139-0.365,0.139-0.504,0l-0.4-0.4c-0.139-0.139-0.139-0.365,0-0.504L26.533,21.005z"/>

</svg>
