
<svg  xmlns="http://www.w3.org/2000/svg"  x="0px" y="0px"
	 width="64.299px" height="64.299px" viewBox="0 0 64.299 64.299" >
<path fill="#5F6062" d="M32.149,0C14.394,0,0,14.394,0,32.149c0,17.756,14.394,32.149,32.149,32.149s32.149-14.394,32.149-32.149
	C64.299,14.394,49.905,0,32.149,0z M32.189,46.273c-1.364,0-2.473-1.109-2.473-2.473c0-1.364,1.11-2.473,2.473-2.473
	c1.364,0,2.473,1.109,2.473,2.473C34.662,45.163,33.552,46.273,32.189,46.273z M40.274,31.564c-1.239,1.686-2.936,2.926-4.909,3.589
	c-0.452,0.182-0.98,0.524-1.156,0.742v1.854c0,1.138-0.922,2.06-2.06,2.06c-1.138,0-2.06-0.922-2.06-2.06v-1.933
	c-0.015-0.965,0.345-2.364,2.121-3.606c0.822-0.574,1.636-0.888,1.726-0.922l0.08-0.028c2.447-0.807,4.092-3.082,4.092-5.662
	c0-3.286-2.673-5.96-5.96-5.96c-3.286,0-5.96,2.673-5.96,5.96c0,1.138-0.922,2.06-2.06,2.06c-1.138,0-2.06-0.922-2.06-2.06
	c0-2.692,1.048-5.223,2.952-7.127c1.904-1.904,4.435-2.952,7.127-2.952c2.692,0,5.223,1.048,7.127,2.952
	c1.904,1.904,2.952,4.435,2.952,7.127C42.229,27.762,41.553,29.825,40.274,31.564z"/>
</svg>
