
<svg  xmlns="http://www.w3.org/2000/svg" x="0px" y="0px"
	 width="64.299px" height="64.299px" viewBox="0 0 64.299 64.299" >

	<path fill="#5F6062" d="M45.249,45.84c0,0.371,0.051,0.73,0.144,1.073c2.451-0.603,4.372-2.566,4.912-5.041
		c-0.311-0.076-0.636-0.117-0.97-0.117C47.082,41.754,45.249,43.587,45.249,45.84z"/>
	<circle fill="#5F6062" cx="43.804" cy="40.451" r="1.83"/>
	<path fill="#5F6062" d="M38.274,41.754c-0.334,0-0.659,0.041-0.97,0.117c0.54,2.474,2.461,4.438,4.912,5.041
		c0.093-0.342,0.144-0.701,0.144-1.073C42.359,43.587,40.527,41.754,38.274,41.754z"/>
	<path fill="#5F6062" d="M43.804,33.797c-3.131,0-5.763,2.173-6.468,5.09c1.824-1.308,4.057-2.079,6.468-2.079
		c2.411,0,4.644,0.771,6.468,2.079C49.567,35.97,46.935,33.797,43.804,33.797z"/>
	<path fill="#5F6062" d="M32.149,0C14.394,0,0,14.394,0,32.149c0,17.756,14.394,32.149,32.149,32.149s32.149-14.394,32.149-32.149
		C64.299,14.394,49.905,0,32.149,0z M15.296,46.592c0,0-0.297-5.402,0.687-6.928c1.092-1.705,3.761-2.765,7.394-4.275
		c3.63-1.513,4.492-2.037,4.492-2.037l0.035-3.49c0,0-1.36-1.047-1.785-4.32c-0.853,0.249-1.74-1.27-1.795-2.069
		c-0.044-0.769,0.121-2.899,1.159-2.685c-0.21-1.609-0.364-3.052-0.294-3.815c0.275-2.806,3.03-5.753,7.264-5.753
		c4.237,0,6.995,2.947,7.263,5.753c0.077,0.763-0.08,2.206-0.287,3.815c1.035-0.214,1.197,1.916,1.149,2.685
		c-0.045,0.798-0.939,2.318-1.791,2.069c-0.422,3.273-1.779,4.32-1.779,4.32l0.02,2.41c-2.351,1.95-3.85,4.892-3.85,8.178
		c0,2.286,0.726,4.406,1.959,6.141H15.296z M43.804,49.286c-4.88,0-8.835-3.956-8.835-8.835c0-4.88,3.955-8.835,8.835-8.835
		c4.88,0,8.835,3.956,8.835,8.835C52.639,45.33,48.684,49.286,43.804,49.286z"/>
</svg>
