
<svg xmlns="http://www.w3.org/2000/svg" x="0px" y="0px"
	 width="64.299px" height="64.299px" viewBox="0 0 64.299 64.299">

	<path fill="#5F6062" d="M32.595,20.187c-3.838,0-6.961,3.232-6.961,7.204c0,3.973,3.124,7.213,6.961,7.213
		c3.843,0,6.966-3.239,6.966-7.213C39.561,23.418,36.438,20.187,32.595,20.187z"/>
	<path fill="#5F6062" d="M32.149,0C14.394,0,0,14.394,0,32.149c0,17.756,14.394,32.149,32.149,32.149s32.149-14.394,32.149-32.149
		C64.299,14.394,49.905,0,32.149,0z M43.347,28.767c-0.906,8.756-9.89,18.857-9.89,18.857c-0.161,0.185-0.321,0.303-0.472,0.391
		h-0.01l-0.302,0.097l-0.301-0.097h-0.01c-0.152-0.088-0.302-0.206-0.465-0.391c0,0-9.116-10.092-10.04-18.836
		c-0.055-0.46-0.095-0.918-0.095-1.397c0-6.187,4.852-11.202,10.833-11.202c5.986,0,10.836,5.016,10.836,11.202
		C43.431,27.86,43.393,28.317,43.347,28.767z"/>

</svg>
