
<svg xmlns="http://www.w3.org/2000/svg" x="0px" y="0px"
	 width="64.299px" height="64.299px" viewBox="0 0 64.299 64.299">
<path fill="#5F6062" d="M32.149,0C14.394,0,0,14.394,0,32.149s14.394,32.149,32.149,32.149s32.149-14.394,32.149-32.149
	S49.905,0,32.149,0z M49.829,38.418l-0.175,0.175c-0.843,0.843-2.21,0.843-3.053,0L33.354,25.347c-0.421-0.421-1.105-0.421-1.527,0
	L18.582,38.593c-0.843,0.843-2.21,0.843-3.053,0l-0.175-0.175c-0.843-0.843-0.843-2.21,0-3.053L31.828,18.89
	c0.422-0.421,1.105-0.421,1.527,0l16.474,16.474C50.672,36.208,50.672,37.575,49.829,38.418z"/>
</svg>
