
<svg xmlns="http://www.w3.org/2000/svg" x="0px" y="0px"
	 width="64.299px" height="64.299px" viewBox="0 0 64.299 64.299">

	<path fill="#5F6062" d="M20.006,31.143c-1.352,0-2.51,1.158-2.51,2.511c0,1.351,1.158,2.51,2.51,2.51c1.353,0,2.51-1.159,2.51-2.51
		C22.516,32.301,21.359,31.143,20.006,31.143z"/>
	<path fill="#5F6062" d="M46.835,17.196l-5.802,5.847l-2.527-2.617c-0.315-0.326-0.835-0.335-1.161-0.02
		c-0.326,0.315-0.336,0.835-0.02,1.161l3.11,3.221c0.153,0.159,0.364,0.249,0.585,0.251l0.006,0c0.219,0,0.429-0.087,0.583-0.243
		l6.393-6.442c0.32-0.322,0.318-0.842-0.004-1.162C47.674,16.872,47.154,16.874,46.835,17.196z"/>
	<path fill="#5F6062" d="M32.149,0C14.394,0,0,14.394,0,32.149c0,17.756,14.394,32.149,32.149,32.149s32.149-14.394,32.149-32.149
		C64.299,14.394,49.905,0,32.149,0z M48.785,42.363L48.785,42.363v2.961c0,1.46-1.183,2.643-2.643,2.643h-0.775
		c-1.46,0-2.643-1.183-2.643-2.643v-1.798H18.93v1.798c0,1.46-1.183,2.643-2.643,2.643h-0.775c-1.46,0-2.643-1.183-2.643-2.643
		v-2.814c-0.006-0.048-0.01-0.097-0.01-0.147V32.342h0.004c0.039-0.937,1.083-2.255,2.113-3.337l3.348-9.101
		c0.722-1.961,2.59-3.264,4.679-3.264h9.628c-0.341,0.787-0.591,1.623-0.736,2.493h-8.892c-1.045,0-1.979,0.652-2.34,1.632
		l-1.973,5.363c-0.16,0.434,0.162,0.894,0.624,0.894h14.342c1.538,2.223,3.89,3.842,6.621,4.423
		c-0.789,0.431-1.343,1.273-1.343,2.208c0,1.351,1.159,2.51,2.512,2.51c1.351,0,2.51-1.159,2.51-2.51
		c0-0.793-0.398-1.517-0.998-1.983c1.722-0.069,3.341-0.544,4.764-1.332c0.586,0.753,1.029,1.484,1.058,2.003h0.004V42.363z
		 M42.521,29.828c-4.925,0-8.918-3.993-8.918-8.918c0-4.925,3.993-8.918,8.918-8.918c4.925,0,8.918,3.993,8.918,8.918
		C51.439,25.835,47.446,29.828,42.521,29.828z"/>

</svg>
