
<svg  xmlns="http://www.w3.org/2000/svg" x="0px" y="0px"
	 width="64.299px" height="64.299px" viewBox="0 0 64.299 64.299">
<path fill="#5F6062" d="M32.149,0C14.394,0,0,14.394,0,32.149s14.394,32.149,32.149,32.149s32.149-14.394,32.149-32.149
	S49.905,0,32.149,0z M34.421,48.111h-3.64c-1.068,0-1.972-0.877-1.972-1.972h7.585C36.393,47.261,35.516,48.111,34.421,48.111z
	 M37.056,44.994h-8.883c-0.548,0-0.986-0.438-0.986-0.986c0-0.548,0.438-0.986,0.986-0.986h8.883c0.548,0,0.986,0.438,0.986,0.986
	C38.042,44.556,37.604,44.994,37.056,44.994z M37.056,41.878h-8.883c-0.548,0-0.986-0.438-0.986-0.986
	c0-0.548,0.438-0.986,0.986-0.986h8.883c0.548,0,0.986,0.438,0.986,0.986C38.042,41.44,37.604,41.878,37.056,41.878z M38.124,37.776
	c0,0.548-0.438,0.986-0.986,0.986h-9.075c-0.548,0-0.986-0.438-0.986-0.986c-0.603-5.808-4.27-6.438-4.27-11.78
	c0-5.424,4.383-9.807,9.808-9.807c5.424,0,9.807,4.383,9.807,9.807C42.422,31.31,38.754,31.94,38.124,37.776z"/>
</svg>
