
<svg xmlns="http://www.w3.org/2000/svg" x="0px" y="0px"
	 width="64.299px" height="64.299px" viewBox="0 0 64.299 64.299" >

	<path fill="#5F6062" d="M35.69,36.019H25.212c-0.571,0-1.034,0.463-1.034,1.034c0,0.571,0.463,1.034,1.034,1.034H35.69
		c0.571,0,1.034-0.463,1.034-1.034C36.724,36.482,36.261,36.019,35.69,36.019z"/>
	<path fill="#5F6062" d="M25.212,26.038h13.064c0.571,0,1.034-0.463,1.034-1.034s-0.463-1.034-1.034-1.034H25.212
		c-0.571,0-1.034,0.463-1.034,1.034S24.641,26.038,25.212,26.038z"/>
	<path fill="#5F6062" d="M41.379,29.968H25.212c-0.571,0-1.034,0.463-1.034,1.034c0,0.571,0.463,1.034,1.034,1.034h16.167
		c0.571,0,1.034-0.463,1.034-1.034C42.413,30.432,41.95,29.968,41.379,29.968z"/>
	<path fill="#5F6062" d="M32.149,0C14.394,0,0,14.394,0,32.149c0,17.756,14.394,32.149,32.149,32.149s32.149-14.394,32.149-32.149
		C64.299,14.394,49.905,0,32.149,0z M47.426,45.862c0,1.428-1.158,2.586-2.586,2.586H20.06c-1.428,0-2.586-1.158-2.586-2.586V15.891
		c0-1.428,1.158-2.586,2.586-2.586h24.781c1.428,0,2.586,1.158,2.586,2.586V45.862z"/>

</svg>
