
<svg xmlns="http://www.w3.org/2000/svg" x="0px" y="0px"
	 width="64.299px" height="64.299px" viewBox="0 0 64.299 64.299" >
<path fill="#5F6062" d="M32.149,0C14.394,0,0,14.394,0,32.149s14.394,32.149,32.149,32.149s32.149-14.394,32.149-32.149
	S49.905,0,32.149,0z M48.625,46.332c0,0.517-0.419,0.936-0.936,0.936H17.808c-0.517,0-0.936-0.419-0.936-0.936V16.451
	c0-0.517,0.419-0.936,0.936-0.936h14.589c1.099,0,1.989,0.891,1.989,1.989c0,1.099-0.891,1.989-1.989,1.989H21.787
	c-0.517,0-0.936,0.419-0.936,0.936v21.924c0,0.517,0.419,0.936,0.936,0.936h21.924c0.517,0,0.936-0.419,0.936-0.936V31.742
	c0-1.099,0.891-1.989,1.989-1.989c1.099,0,1.989,0.891,1.989,1.989V46.332z M50.993,25.041c0,1.163-0.943,2.106-2.106,2.106
	s-2.106-0.943-2.106-2.106v-4.677l-9.865,9.865c-0.822,0.822-2.156,0.822-2.979,0c-0.822-0.822-0.822-2.156,0-2.979l9.865-9.865
	h-4.677c-1.163,0-2.106-0.943-2.106-2.106v0c0-1.163,0.943-2.106,2.106-2.106h10.932c0.517,0,0.936,0.419,0.936,0.936V25.041z"/>
</svg>
