
<svg  xmlns="http://www.w3.org/2000/svg" x="0px" y="0px"
	 width="64.299px" height="64.299px" viewBox="0 0 64.299 64.299">

	<path fill="#5F6062" d="M39.839,27.151c-0.474,0-0.92,0.185-1.254,0.522l-8.824,8.892l-3.657-3.788
		c-0.336-0.348-0.787-0.539-1.271-0.539c-0.46,0-0.896,0.176-1.227,0.496c-0.701,0.677-0.72,1.797-0.044,2.498l4.911,5.086
		c0.328,0.34,0.786,0.536,1.255,0.539l0.016,0c0.467,0,0.924-0.19,1.254-0.522l10.095-10.173c0.332-0.335,0.514-0.779,0.513-1.251
		c-0.002-0.472-0.187-0.915-0.522-1.247C40.75,27.333,40.308,27.151,39.839,27.151z"/>
	<path fill="#5F6062" d="M32.149,0C14.394,0,0,14.394,0,32.149c0,17.756,14.394,32.149,32.149,32.149s32.149-14.394,32.149-32.149
		C64.299,14.394,49.905,0,32.149,0z M32.355,9.645c4.97,0,9.013,4.043,9.013,9.013c0,0.648-0.525,1.174-1.174,1.174
		c-0.648,0-1.174-0.525-1.174-1.174c0-3.675-2.99-6.666-6.666-6.666s-6.666,2.99-6.666,6.666c0,0.648-0.525,1.174-1.174,1.174
		c-0.648,0-1.174-0.525-1.174-1.174C23.342,13.688,27.385,9.645,32.355,9.645z M48.257,45.877c0,1.296-1.051,2.347-2.347,2.347
		H18.752c-1.296,0-2.347-1.051-2.347-2.347v-24.81c0-1.296,1.051-2.347,2.347-2.347h3.418c0.033,1.266,1.072,2.286,2.346,2.286
		c1.274,0,2.313-1.02,2.346-2.286h10.987c0.033,1.266,1.072,2.286,2.346,2.286c1.274,0,2.313-1.02,2.346-2.286h3.369
		c1.296,0,2.347,1.051,2.347,2.347V45.877z"/>

</svg>
