
<svg xmlns="http://www.w3.org/2000/svg" x="0px" y="0px"
	 width="64.299px" height="64.299px" viewBox="0 0 64.299 64.299">
<path fill="#5F6062" d="M32.149,0C14.394,0,0,14.394,0,32.149c0,17.756,14.394,32.149,32.149,32.149s32.149-14.394,32.149-32.149
	C64.299,14.394,49.905,0,32.149,0z M27.11,32.878l13.246,13.246c0.843,0.843,0.843,2.21,0,3.053l-0.175,0.175
	c-0.843,0.843-2.21,0.843-3.053,0L20.653,32.878c-0.421-0.422-0.421-1.105,0-1.527l16.474-16.474c0.843-0.843,2.21-0.843,3.053,0
	l0.175,0.175c0.843,0.843,0.843,2.21,0,3.053L27.11,31.351C26.688,31.773,26.688,32.457,27.11,32.878z"/>
</svg>
