<?xml version="1.0" encoding="utf-8"?>
<!-- Generator: Adobe Illustrator 18.1.1, SVG Export Plug-In . SVG Version: 6.00 Build 0)  -->
<svg version="1.1" id="icons" xmlns="http://www.w3.org/2000/svg" xmlns:xlink="http://www.w3.org/1999/xlink" x="0px" y="0px"
	 width="64.299px" height="64.299px" viewBox="0 0 64.299 64.299" enable-background="new 0 0 64.299 64.299" xml:space="preserve">
<path fill="#5F6062" d="M32.149,0C14.394,0,0,14.394,0,32.149c0,17.756,14.394,32.149,32.149,32.149s32.149-14.394,32.149-32.149
	C64.299,14.394,49.905,0,32.149,0z M49.358,47.26H15.296c0,0-0.297-5.401,0.686-6.927c1.092-1.705,3.76-2.764,7.393-4.274
	c3.629-1.513,4.491-2.036,4.491-2.036l0.035-3.489c0,0-1.36-1.047-1.784-4.319c-0.853,0.249-1.74-1.27-1.794-2.068
	c-0.044-0.769,0.121-2.898,1.159-2.685c-0.21-1.609-0.364-3.052-0.294-3.814c0.275-2.806,3.029-5.752,7.262-5.752
	c4.236,0,6.994,2.946,7.262,5.752c0.077,0.763-0.08,2.206-0.287,3.814c1.034-0.214,1.197,1.916,1.149,2.685
	c-0.045,0.798-0.939,2.317-1.791,2.068c-0.422,3.272-1.778,4.319-1.778,4.319l0.029,3.489c0,0,0.865,0.524,4.491,2.036
	c3.633,1.51,6.055,2.57,7.15,4.274C49.649,41.859,49.358,47.26,49.358,47.26z"/>
</svg>
