
<svg  xmlns="http://www.w3.org/2000/svg" x="0px" y="0px"
	 width="64.299px" height="64.299px" viewBox="0 0 64.299 64.299" >
<path fill="#5F6062" d="M32.149,0C14.394,0,0,14.394,0,32.149c0,17.756,14.394,32.149,32.149,32.149s32.149-14.394,32.149-32.149
	C64.299,14.394,49.905,0,32.149,0z M30.426,46.089c0,1.179-0.956,2.135-2.135,2.135H18.209c-1.179,0-2.135-0.956-2.135-2.135V36.008
	c0-1.179,0.956-2.135,2.135-2.135h10.082c1.179,0,2.135,0.956,2.135,2.135V46.089z M30.426,28.291c0,1.179-0.956,2.135-2.135,2.135
	H18.209c-1.179,0-2.135-0.956-2.135-2.135V18.209c0-1.179,0.956-2.135,2.135-2.135h10.082c1.179,0,2.135,0.956,2.135,2.135V28.291z
	 M48.224,46.089c0,1.179-0.956,2.135-2.135,2.135H36.007c-1.179,0-2.135-0.956-2.135-2.135V36.008c0-1.179,0.956-2.135,2.135-2.135
	h10.082c1.179,0,2.135,0.956,2.135,2.135V46.089z M48.224,28.291c0,1.179-0.956,2.135-2.135,2.135H36.007
	c-1.179,0-2.135-0.956-2.135-2.135V18.209c0-1.179,0.956-2.135,2.135-2.135h10.082c1.179,0,2.135,0.956,2.135,2.135V28.291z"/>
</svg>
