
<svg xmlns="http://www.w3.org/2000/svg" x="0px" y="0px"
	 width="64.299px" height="64.299px" viewBox="0 0 64.299 64.299" >
<path fill="#5F6062" d="M32.149,0C14.394,0,0,14.394,0,32.149c0,17.756,14.394,32.149,32.149,32.149s32.149-14.394,32.149-32.149
	C64.299,14.394,49.905,0,32.149,0z M47.101,36.139c-0.631,1.925-1.631,3.68-2.973,5.218c-1.341,1.538-2.944,2.768-4.765,3.655
	c-1.758,0.857-3.642,1.359-5.601,1.493c-1.959,0.134-3.894-0.107-5.752-0.717c-1.925-0.631-3.68-1.631-5.218-2.973l-0.882-0.769
	c-0.05-0.043-0.089-0.094-0.123-0.146c-0.283-0.302-0.468-0.7-0.499-1.146c-0.07-1.027,0.706-1.917,1.733-1.987
	c0.539-0.037,1.039,0.161,1.404,0.504l0.828,0.722c1.719,1.499,3.798,2.428,6.01,2.711c0.088-0.04,0.185-0.063,0.288-0.063l1.17,0
	c3.039,0.001,5.897-1.182,8.046-3.331c2.246-2.245,3.437-5.263,3.326-8.455c-0.156-3.116-1.541-5.969-3.885-8.014
	c-2.291-1.997-5.222-2.983-8.254-2.776c-3.032,0.207-5.802,1.583-7.799,3.874l-0.769,0.882c-0.035,0.04-0.074,0.074-0.116,0.105
	c-1.24,1.841-1.91,4.005-1.923,6.272l4.126,0.001c0.625,0,0.938,0.756,0.496,1.199l-6.001,5.998c-0.274,0.274-0.719,0.274-0.993,0
	l-5.998-6.001c-0.442-0.442-0.129-1.198,0.497-1.198l4.129,0.001c0.009-2.019,0.407-3.978,1.189-5.825
	c0.762-1.801,1.853-3.418,3.241-4.805c1.389-1.388,3.006-2.478,4.807-3.239c1.866-0.789,3.846-1.188,5.887-1.188
	c2.041,0.001,4.021,0.401,5.887,1.191c1.801,0.762,3.418,1.853,4.805,3.241c1.388,1.389,2.478,3.006,3.239,4.807
	c0.719,1.701,1.111,3.497,1.175,5.347C47.918,32.571,47.675,34.389,47.101,36.139z"/>
</svg>
