
<svg xmlns="http://www.w3.org/2000/svg" x="0px" y="0px"
	 width="64.299px" height="64.299px" viewBox="0 0 64.299 64.299" >

	<path fill="#5F6062" d="M45.987,27.64c-2.77,0-5.09,1.959-5.649,4.564h3.029c0.459-0.988,1.461-1.675,2.621-1.675
		c1.159,0,2.161,0.687,2.62,1.675h2.014v1.984h-1.851c-0.338,1.22-1.458,2.119-2.784,2.119c-1.326,0-2.446-0.899-2.784-2.119h-2.942
		c0.378,2.823,2.801,5.008,5.726,5.008c3.186,0,5.778-2.592,5.778-5.778C51.765,30.232,49.173,27.64,45.987,27.64z"/>
	<path fill="#5F6062" d="M22.002,28.976l-1.089,3.186c0.184,0.38,0.288,0.806,0.288,1.256c0,1.593-1.296,2.889-2.889,2.889
		c-1.593,0-2.889-1.296-2.889-2.889c0-1.593,1.296-2.889,2.889-2.889c0.236,0,0.466,0.029,0.686,0.083l0.935-2.74
		c-0.514-0.151-1.058-0.232-1.621-0.232c-3.186,0-5.778,2.592-5.778,5.778c0,3.186,2.592,5.778,5.778,5.778s5.778-2.592,5.778-5.778
		C24.089,31.634,23.277,30.037,22.002,28.976z"/>
	<path fill="#5F6062" d="M30.593,28.741c0.266,0.215,0.573,0.442,0.921,0.67c0.535-0.445,1.222-0.712,1.972-0.712
		c1.555,0,2.841,1.15,3.055,2.646c0.321,0.056,0.653,0.103,0.996,0.141c0.335-1.473,1.046-2.804,2.026-3.885H29.455L30.593,28.741z"
		/>
	<path fill="#5F6062" d="M32.149,0C14.394,0,0,14.394,0,32.149c0,17.756,14.394,32.149,32.149,32.149s32.149-14.394,32.149-32.149
		C64.299,14.394,49.905,0,32.149,0z M17.253,16.624h2.19c0.931,0,1.686,0.755,1.686,1.686v1.268c0,0.931-0.755,1.686-1.686,1.686
		h-2.19V16.624z M45.987,42.085c-4.527,0-8.243-3.471-8.632-7.897h-4.066l-7.54-8.281l-1.131-4.58l-1.637,4.788
		c2.404,1.54,3.998,4.236,3.998,7.303c0,4.786-3.88,8.667-8.667,8.667c-4.786,0-8.667-3.88-8.667-8.667s3.88-8.667,8.667-8.667
		c0.889,0,1.747,0.134,2.555,0.383l2.619-7.675c0.535-1.567,2.007-2.62,3.663-2.62h4.136v1.074h-3.702
		c-0.667,0-1.26,0.424-1.476,1.056l-0.603,1.763l9.658,4.275h14.837c0.957,0,1.733,0.776,1.733,1.733v2.189
		c1.792,1.588,2.921,3.906,2.921,6.488C54.654,38.205,50.774,42.085,45.987,42.085z"/>

</svg>
