
<svg  xmlns="http://www.w3.org/2000/svg"  x="0px" y="0px"
	 width="64.299px" height="64.299px" viewBox="0 0 64.299 64.299" >

	<path fill="#5F6062" d="M21.337,29.311c-1.361,0-2.526,1.165-2.526,2.527c0,1.36,1.165,2.526,2.526,2.526
		c1.362,0,2.526-1.166,2.526-2.526C23.863,30.476,22.699,29.311,21.337,29.311z"/>
	<path fill="#5F6062" d="M20.642,25.165h23.16c0.465,0,0.789-0.463,0.628-0.9l-1.986-5.398c-0.363-0.987-1.303-1.643-2.355-1.643
		H24.355c-1.052,0-1.992,0.656-2.355,1.643l-1.986,5.397C19.854,24.701,20.177,25.165,20.642,25.165z"/>
	<path fill="#5F6062" d="M42.915,29.311c-1.362,0-2.528,1.165-2.528,2.527c0,1.36,1.166,2.526,2.528,2.526
		c1.36,0,2.526-1.166,2.526-2.526C45.44,30.476,44.274,29.311,42.915,29.311z"/>
	<path fill="#5F6062" d="M32.149,0C14.394,0,0,14.394,0,32.149c0,17.756,14.394,32.149,32.149,32.149s32.149-14.394,32.149-32.149
		C64.299,14.394,49.905,0,32.149,0z M50.298,40.602L50.298,40.602v2.98c0,1.469-1.191,2.66-2.66,2.66h-0.78
		c-1.469,0-2.66-1.191-2.66-2.66v-1.809H20.255v1.809c0,1.469-1.191,2.66-2.66,2.66h-0.78c-1.469,0-2.66-1.191-2.66-2.66v-2.832
		c-0.006-0.048-0.01-0.098-0.01-0.148V30.518h0.004c0.039-0.942,1.089-2.269,2.127-3.359l3.37-9.158
		c0.726-1.974,2.606-3.285,4.709-3.285h15.734c2.103,0,3.983,1.311,4.709,3.285l3.433,9.33c1.013,1.106,2.018,2.393,2.063,3.187
		h0.004V40.602z"/>

</svg>
