
<svg xmlns="http://www.w3.org/2000/svg" x="0px" y="0px"
	 width="64.299px" height="64.299px" viewBox="0 0 64.299 64.299">
<path fill="#5F6062" d="M32.149,0C14.394,0,0,14.394,0,32.149c0,17.756,14.394,32.149,32.149,32.149s32.149-14.394,32.149-32.149
	C64.299,14.394,49.905,0,32.149,0z M47.425,44.117c0.914,0.914,0.914,2.395,0,3.308c-0.914,0.914-2.395,0.914-3.308,0L32.149,35.458
	L20.182,47.425c-0.914,0.914-2.395,0.914-3.308,0c-0.914-0.914-0.914-2.395,0-3.308l11.968-11.968L16.873,20.182
	c-0.914-0.914-0.914-2.395,0-3.308c0.914-0.914,2.395-0.914,3.308,0l11.968,11.968l11.968-11.968c0.914-0.914,2.395-0.914,3.308,0
	c0.914,0.914,0.914,2.395,0,3.308L35.458,32.149L47.425,44.117z"/>
</svg>
