
<svg  xmlns="http://www.w3.org/2000/svg" x="0px" y="0px"
	 width="64.299px" height="64.299px" viewBox="0 0 64.299 64.299" >

	<path fill="#5F6062" d="M32.149,0C14.394,0,0,14.394,0,32.149c0,17.756,14.394,32.149,32.149,32.149s32.149-14.394,32.149-32.149
		C64.299,14.394,49.905,0,32.149,0z M20.649,49.165c-1.433,0-2.595-1.162-2.595-2.595V16.493c0-1.433,1.162-2.595,2.595-2.595
		h24.867c1.433,0,2.595,1.162,2.595,2.595v16.589c-1.113-0.401-2.312-0.62-3.561-0.62c-3.446,0-6.512,1.663-8.435,4.23H25.819
		c-0.573,0-1.038,0.465-1.038,1.038c0,0.573,0.465,1.038,1.038,1.038h9.083c-0.57,1.296-0.888,2.727-0.888,4.231
		c0,2.301,0.742,4.431,1.998,6.166H20.649z M44.55,51.699c-4.805,0-8.7-3.895-8.7-8.7s3.895-8.7,8.7-8.7c4.805,0,8.7,3.895,8.7,8.7
		S49.355,51.699,44.55,51.699z"/>
	<path fill="#5F6062" d="M48.453,42.162h-3.146v-3.146c0-0.418-0.339-0.756-0.756-0.756h0c-0.418,0-0.756,0.339-0.756,0.756v3.146
		h-3.146c-0.418,0-0.756,0.339-0.756,0.756v0c0,0.418,0.339,0.756,0.756,0.756h3.146v3.146c0,0.418,0.339,0.756,0.756,0.756h0
		c0.418,0,0.756-0.339,0.756-0.756v-3.146h3.146c0.418,0,0.756-0.339,0.756-0.756v0C49.209,42.501,48.87,42.162,48.453,42.162z"/>
	<path fill="#5F6062" d="M25.819,32.696h16.223c0.573,0,1.038-0.465,1.038-1.038c0-0.573-0.465-1.038-1.038-1.038H25.819
		c-0.573,0-1.038,0.465-1.038,1.038C24.781,32.232,25.245,32.696,25.819,32.696z"/>
	<path fill="#5F6062" d="M25.819,26.676h13.11c0.573,0,1.038-0.465,1.038-1.038c0-0.573-0.465-1.038-1.038-1.038h-13.11
		c-0.573,0-1.038,0.465-1.038,1.038C24.781,26.212,25.245,26.676,25.819,26.676z"/>

</svg>
