<?xml version="1.0" encoding="utf-8"?>
<!-- Generator: Adobe Illustrator 19.2.1, SVG Export Plug-In . SVG Version: 6.00 Build 0)  -->
<svg version="1.1" id="icons" xmlns="http://www.w3.org/2000/svg" xmlns:xlink="http://www.w3.org/1999/xlink" x="0px" y="0px"
	 viewBox="0 0 100 100" style="enable-background:new 0 0 100 100;" xml:space="preserve">
<style type="text/css">
	.st0{fill:#5D5D5D;}
</style>
<g>
	<path class="st0" d="M63.1,63.7c0,0.4,0.1,0.7,0.1,1.1c2.5-0.6,4.4-2.6,4.9-5c-0.3-0.1-0.6-0.1-1-0.1
		C64.9,59.6,63.1,61.4,63.1,63.7z"/>
	<circle class="st0" cx="61.6" cy="58.3" r="1.8"/>
	<path class="st0" d="M56.1,59.6c-0.3,0-0.7,0-1,0.1c0.5,2.5,2.5,4.4,4.9,5c0.1-0.3,0.1-0.7,0.1-1.1C60.2,61.4,58.4,59.6,56.1,59.6z
		"/>
	<path class="st0" d="M61.6,51.7c-3.1,0-5.8,2.2-6.5,5.1c1.8-1.3,4.1-2.1,6.5-2.1s4.6,0.8,6.5,2.1C67.4,53.8,64.8,51.7,61.6,51.7z"
		/>
	<path class="st0" d="M50,17.9c-17.8,0-32.1,14.4-32.1,32.1c0,17.8,14.4,32.1,32.1,32.1S82.1,67.7,82.1,50
		C82.1,32.2,67.7,17.9,50,17.9z M33.1,64.4c0,0-0.3-5.4,0.7-6.9c1.1-1.7,3.8-2.8,7.4-4.3c3.6-1.5,4.5-2,4.5-2v-3.5
		c0,0-1.4-1-1.8-4.3c-0.9,0.2-1.7-1.3-1.8-2.1c0-0.8,0.1-2.9,1.2-2.7c-0.2-1.6-0.4-3.1-0.3-3.8c0.3-2.8,3-5.8,7.3-5.8
		c4.2,0,7,2.9,7.3,5.8c0.1,0.8-0.1,2.2-0.3,3.8c1-0.2,1.2,1.9,1.1,2.7c0,0.8-0.9,2.3-1.8,2.1c-0.4,3.3-1.8,4.3-1.8,4.3v2.4
		c-2.4,2-3.9,4.9-3.9,8.2c0,2.3,0.7,4.4,2,6.1H33.1z M61.6,67.1c-4.9,0-8.8-4-8.8-8.8c0-4.9,4-8.8,8.8-8.8c4.9,0,8.8,4,8.8,8.8
		C70.5,63.2,66.5,67.1,61.6,67.1z"/>
</g>
</svg>
