
<svg  xmlns="http://www.w3.org/2000/svg" x="0px" y="0px"
	 width="64.628px" height="64.628px" viewBox="0 0 64.628 64.628">

	<path fill="#5F6062" d="M32.314,0C14.467,0,0,14.467,0,32.314C0,50.16,14.467,64.628,32.314,64.628S64.628,50.16,64.628,32.314
		C64.628,14.467,50.16,0,32.314,0z M32.314,62.689c-16.749,0-30.375-13.626-30.375-30.375S15.565,1.939,32.314,1.939
		s30.375,13.626,30.375,30.375S49.063,62.689,32.314,62.689z"/>
	<path fill="#5F6062" d="M18.812,30.687c-2.455,0-4.445,1.99-4.445,4.445c0,2.455,1.99,4.445,4.445,4.445
		c2.455,0,4.445-1.99,4.445-4.445C23.257,32.677,21.267,30.687,18.812,30.687z M18.812,36.89c-0.969,0-1.758-0.788-1.758-1.758
		c0-0.969,0.788-1.758,1.758-1.758c0.969,0,1.758,0.788,1.758,1.758C20.57,36.102,19.781,36.89,18.812,36.89z"/>
	<path fill="#5F6062" d="M54.353,30.687v-4.047c0-0.961-0.778-1.741-1.74-1.742l-5.461-0.008l-1.373-2.782
		c-0.715-1.744-2.413-2.883-4.299-2.883H29.672c-1.257,0-2.48,0.408-3.486,1.162l-5.198,4.503h-5.42
		c-2.245,0-4.065,1.82-4.065,4.065v1.732h-0.066c-0.962,0-1.742,0.78-1.742,1.742v1.611c0,0.962,0.78,1.742,1.742,1.742h1.515
		c-0.024-0.213-0.036-0.43-0.036-0.65c0-3.252,2.645-5.897,5.897-5.897s5.897,2.645,5.897,5.897c0,0.22-0.013,0.436-0.036,0.65
		h16.56c-0.024-0.213-0.036-0.43-0.036-0.65c0-3.252,2.645-5.897,5.897-5.897s5.897,2.645,5.897,5.897
		c0,0.22-0.013,0.436-0.036,0.65h0.237c0.962,0,1.742-0.78,1.742-1.742v-2.772C54.934,30.947,54.674,30.687,54.353,30.687z
		 M34.898,24.891H24.375l3.031-2.877c0.649-0.487,1.454-0.756,2.266-0.756h5.227V24.891z M36.679,24.891v-3.632h4.801
		c1.065,0,2.13,0.637,2.534,1.622l0.941,2.011H36.679z"/>
	<path fill="#5F6062" d="M47.094,30.687c-2.455,0-4.445,1.99-4.445,4.445c0,2.455,1.99,4.445,4.445,4.445
		c2.455,0,4.445-1.99,4.445-4.445C51.539,32.677,49.549,30.687,47.094,30.687z M47.094,36.89c-0.969,0-1.758-0.788-1.758-1.758
		c0-0.969,0.788-1.758,1.758-1.758c0.969,0,1.758,0.788,1.758,1.758C48.851,36.102,48.063,36.89,47.094,36.89z"/>

</svg>
