
<svg xmlns="http://www.w3.org/2000/svg" x="0px" y="0px"
	 width="64.628px" height="64.628px" viewBox="0 0 64.628 64.628" >

	<path fill="#5F6062" d="M32.314,0C14.467,0,0,14.467,0,32.314s14.467,32.314,32.314,32.314S64.628,50.16,64.628,32.314
		S50.16,0,32.314,0z M32.314,62.689c-16.749,0-30.375-13.626-30.375-30.375S15.565,1.939,32.314,1.939s30.375,13.626,30.375,30.375
		S49.063,62.689,32.314,62.689z"/>
	<path fill="#5F6062" d="M26.907,14.954c-0.847-0.847-2.221-0.847-3.069,0l-0.176,0.176c-0.847,0.847-0.847,2.221,0,3.069
		l13.313,13.313c0.424,0.424,0.424,1.111,0,1.534L23.661,46.36c-0.847,0.847-0.847,2.221,0,3.069l0.176,0.176
		c0.847,0.847,2.221,0.847,3.069,0l16.558-16.558c0.424-0.424,0.424-1.111,0-1.534L26.907,14.954z"/>

</svg>
