
<svg  xmlns="http://www.w3.org/2000/svg"  x="0px" y="0px"
	 width="64.628px" height="64.628px" viewBox="0 0 64.628 64.628" >

	<path fill-rule="evenodd" clip-rule="evenodd" fill="#5F6062" d="M32.314,0C14.467,0,0,14.467,0,32.314
		s14.467,32.314,32.314,32.314S64.628,50.16,64.628,32.314S50.16,0,32.314,0z M32.314,62.689c-16.749,0-30.375-13.626-30.375-30.375
		S15.565,1.939,32.314,1.939s30.375,13.626,30.375,30.375S49.063,62.689,32.314,62.689z"/>
	<path fill-rule="evenodd" clip-rule="evenodd" fill="#5F6062" d="M43.838,34.961c-4.919-8.406-17.783,4.075,0,14.111
		C61.624,39.036,48.761,26.555,43.838,34.961z"/>
	<path fill-rule="evenodd" clip-rule="evenodd" fill="#5F6062" d="M33.135,35.7c0.061-0.233,0.133-0.461,0.214-0.683
		c-0.011-0.006-0.016-0.009-0.016-0.009l-0.025-3.053c0,0,1.187-0.916,1.556-3.78c0.746,0.218,1.528-1.112,1.567-1.81
		c0.042-0.673-0.1-2.537-1.006-2.35c0.181-1.408,0.319-2.671,0.251-3.338c-0.234-2.455-2.648-5.034-6.355-5.034
		c-3.704,0-6.115,2.578-6.355,5.034c-0.061,0.668,0.073,1.93,0.257,3.338c-0.908-0.187-1.053,1.676-1.014,2.35
		c0.047,0.699,0.824,2.028,1.57,1.81c0.371,2.864,1.562,3.78,1.562,3.78l-0.031,3.053c0,0-0.754,0.458-3.931,1.782
		c-3.179,1.322-5.514,2.249-6.47,3.741c-0.861,1.335-0.601,6.062-0.601,6.062h22.949c-1.151-1.101-2.086-2.251-2.799-3.443
		C32.575,39.998,32.699,37.359,33.135,35.7z"/>
	<path fill-rule="evenodd" clip-rule="evenodd" fill="#5F6062" d="M37.524,20.496c0.061,0.615,0.01,1.452-0.111,2.545
		c0.954,1.151,0.895,3.038,0.871,3.433c-0.039,0.672-0.322,1.437-0.777,2.1c-0.296,0.432-0.639,0.776-1.012,1.023
		c-0.197,0.856-0.46,1.542-0.734,2.085c1.111-0.854,2.455-1.347,3.871-1.347c1.126,0,2.241,0.324,3.225,0.937
		c0.346,0.216,0.675,0.465,0.986,0.748c0.33-0.298,0.678-0.559,1.042-0.781c-0.195-0.061-0.389-0.121-0.58-0.18
		c0.003-0.002,0.007-0.005,0.011-0.007c-0.034-0.011-0.068-0.021-0.102-0.032c-2.546-0.804-3.518-2.712-3.809-4.604
		c0.28-0.322,0.553-0.662,0.814-1.016c1.669,0.539,3.669,0.697,5.383-0.558c-2.36-2.385-0.466-5.309-2.168-10.578
		c-1.449-4.479-7.387-4.259-8.152-2.685c-2.411-0.861-4.369-0.18-5.547,2.316c1.614,0.247,3.1,0.915,4.285,1.944
		C36.445,17.076,37.358,18.774,37.524,20.496z"/>

</svg>
