
<svg  xmlns="http://www.w3.org/2000/svg" x="0px" y="0px"
	 width="64.628px" height="64.628px" viewBox="0 0 64.628 64.628">

	<path fill="#5F6062" d="M32.314,0C14.467,0,0,14.467,0,32.314s14.467,32.314,32.314,32.314S64.628,50.16,64.628,32.314
		S50.16,0,32.314,0z M32.314,62.689c-16.749,0-30.375-13.626-30.375-30.375S15.565,1.939,32.314,1.939s30.375,13.626,30.375,30.375
		S49.063,62.689,32.314,62.689z"/>
	<path fill="#5F6062" d="M45.35,18.973L27.849,39.709c-0.359,0.426-1.006,0.452-1.4,0.057l-7.296-7.331
		c-0.882-0.886-2.314-0.889-3.2-0.008c-0.886,0.882-0.889,2.314-0.008,3.2l10.779,10.83c0.393,0.395,1.04,0.368,1.4-0.057
		l20.685-24.509c0.806-0.955,0.685-2.383-0.27-3.189C47.584,17.897,46.156,18.018,45.35,18.973z"/>

</svg>
