<?xml version="1.0" encoding="utf-8"?>
<!-- Generator: Adobe Illustrator 18.1.1, SVG Export Plug-In . SVG Version: 6.00 Build 0)  -->
<svg version="1.1" id="icons" xmlns="http://www.w3.org/2000/svg" xmlns:xlink="http://www.w3.org/1999/xlink" x="0px" y="0px"
	 width="64.53px" height="64.53px" viewBox="0 0 64.53 64.53" enable-background="new 0 0 64.53 64.53" xml:space="preserve">
<path fill="#5F6062" d="M57.255,64.53H7.275C3.264,64.53,0,61.266,0,57.255V7.275C0,3.264,3.264,0,7.275,0h49.979
	c4.012,0,7.275,3.264,7.275,7.275v49.979C64.53,61.266,61.266,64.53,57.255,64.53z M7.275,1.898c-2.965,0-5.378,2.413-5.378,5.378
	v49.979c0,2.965,2.413,5.378,5.378,5.378h49.979c2.965,0,5.378-2.413,5.378-5.378V7.275c0-2.965-2.413-5.378-5.378-5.378H7.275z"/>
</svg>
