
<svg xmlns="http://www.w3.org/2000/svg" x="0px" y="0px"
	 width="64.628px" height="64.628px" viewBox="0 0 64.628 64.628">

	<path fill="#5F6062" d="M32.314,0C14.467,0,0,14.467,0,32.314s14.467,32.314,32.314,32.314S64.628,50.16,64.628,32.314
		S50.16,0,32.314,0z M32.314,62.689c-16.749,0-30.375-13.626-30.375-30.375S15.565,1.939,32.314,1.939s30.375,13.626,30.375,30.375
		S49.063,62.689,32.314,62.689z"/>
	<circle fill="#5F6062" cx="18.3" cy="43.582" r="2.143"/>
	<path fill="#5F6062" d="M46.328,41.438H25.445c-1.184,0-2.143,0.96-2.143,2.143c0,1.184,0.96,2.143,2.143,2.143h20.883
		c1.184,0,2.143-0.96,2.143-2.143C48.471,42.398,47.511,41.438,46.328,41.438z"/>
	<circle fill="#5F6062" cx="18.3" cy="35.008" r="2.143"/>
	<path fill="#5F6062" d="M46.328,32.865H25.445c-1.184,0-2.143,0.96-2.143,2.143c0,1.184,0.96,2.143,2.143,2.143h20.883
		c1.184,0,2.143-0.96,2.143-2.143C48.471,33.824,47.511,32.865,46.328,32.865z"/>
	<path fill="#5F6062" d="M18.3,23.815c-1.184,0-2.143,0.96-2.143,2.143v0c0,1.184,0.96,2.143,2.143,2.143
		c1.184,0,2.143-0.96,2.143-2.143v0C20.444,24.775,19.484,23.815,18.3,23.815z"/>
	<path fill="#5F6062" d="M46.328,23.815H25.445c-1.184,0-2.143,0.96-2.143,2.143v0c0,1.184,0.96,2.143,2.143,2.143h20.883
		c1.184,0,2.143-0.96,2.143-2.143v0C48.471,24.775,47.511,23.815,46.328,23.815z"/>
	<circle fill="#5F6062" cx="18.3" cy="17.385" r="2.143"/>
	<path fill="#5F6062" d="M46.328,15.242H25.445c-1.184,0-2.143,0.96-2.143,2.143c0,1.184,0.96,2.143,2.143,2.143h20.883
		c1.184,0,2.143-0.96,2.143-2.143C48.471,16.201,47.511,15.242,46.328,15.242z"/>

</svg>
