<?xml version="1.0" encoding="utf-8"?>
<!-- Generator: Adobe Illustrator 19.2.1, SVG Export Plug-In . SVG Version: 6.00 Build 0)  -->
<svg version="1.1" id="icons" xmlns="http://www.w3.org/2000/svg" xmlns:xlink="http://www.w3.org/1999/xlink" x="0px" y="0px"
	 viewBox="0 0 64.6 64.6" style="enable-background:new 0 0 64.6 64.6;" xml:space="preserve">
<g>
	<path class="st0" d="M32.3,0C14.5,0,0,14.5,0,32.3s14.5,32.3,32.3,32.3s32.3-14.4,32.3-32.3S50.2,0,32.3,0z M32.3,62.7
		c-16.7,0-30.4-13.6-30.4-30.4S15.6,2,32.3,2s30.4,13.6,30.4,30.4S49.1,62.7,32.3,62.7z"/>
	<path class="st0" d="M47.5,28.9l-2.4-6.4v1c0,3.1-2.5,5.6-5.6,5.6c-1.9,0-3.6-1-4.7-2.5H19.1c-0.5,0-0.8-0.5-0.6-0.9l2-5.5
		c0.4-1,1.3-1.7,2.4-1.7h6.7l0.2-1.3c0.1-0.4,0.1-0.9,0.2-1.3h-7.2c-2.2,0-4.1,1.3-4.8,3.4l-3.5,9.4c-1.1,1.1-2.1,2.5-2.2,3.5l0,0
		v10.4c0,0.1,0,0.1,0,0.2v2.9c0,1.5,1.2,2.7,2.7,2.7h0.8c1.5,0,2.7-1.2,2.7-2.7v-1.9h24.8v1.9c0,1.5,1.2,2.7,2.7,2.7h0.8
		c1.5,0,2.7-1.2,2.7-2.7v-3.1l0,0V32.1l0,0C49.5,31.3,48.5,30,47.5,28.9z M19.8,36.1c-1.4,0-2.6-1.2-2.6-2.6c0-1.4,1.2-2.6,2.6-2.6
		c1.4,0,2.6,1.2,2.6,2.6S21.2,36.1,19.8,36.1z M42,36.1c-1.4,0-2.6-1.2-2.6-2.6c0-1.4,1.2-2.6,2.6-2.6c1.4,0,2.6,1.2,2.6,2.6
		S43.4,36.1,42,36.1z"/>
	<path class="st0" d="M43.2,23.5v-4.7c0-0.6-0.5-1.1-1.1-1.1S41,18.2,41,18.8v4.7c0,0.8-0.7,1.5-1.5,1.5S38,24.3,38,23.5
		c0-0.6-0.5-1.1-1.1-1.1s-1.1,0.5-1.1,1.1c0,2.1,1.7,3.7,3.7,3.7C41.5,27.2,43.2,25.5,43.2,23.5z"/>
	<path class="st0" d="M43.2,8.4V7.7c0-0.6-0.5-1.1-1.1-1.1S41,7.1,41,7.7v0.7c-4.8,0.5-8.6,4.2-9.3,9c0.8-0.6,1.9-0.9,3-0.9
		c1.5,0,2.8,0.6,3.7,1.6c0.9-1,2.2-1.6,3.7-1.6s2.8,0.6,3.7,1.6c0.9-1,2.2-1.6,3.7-1.6c1.1,0,2.1,0.3,3,0.9
		C51.8,12.7,48,8.9,43.2,8.4z"/>
</g>
</svg>
