<?xml version="1.0" encoding="utf-8"?>
<!-- Generator: Adobe Illustrator 19.2.1, SVG Export Plug-In . SVG Version: 6.00 Build 0)  -->
<svg version="1.1" id="Layer_1" xmlns="http://www.w3.org/2000/svg" xmlns:xlink="http://www.w3.org/1999/xlink" x="0px" y="0px"
	 viewBox="0 0 64.6 64.6" style="enable-background:new 0 0 64.6 64.6;" xml:space="preserve">

<path class="st0" d="M32.3,0C14.5,0,0,14.5,0,32.3s14.5,32.3,32.3,32.3s32.3-14.5,32.3-32.3S50.2,0,32.3,0z M32.3,62.7
	c-16.7,0-30.4-13.6-30.4-30.4S15.6,1.9,32.3,1.9s30.4,13.6,30.4,30.4S49.1,62.7,32.3,62.7z M22.1,21.3v-5.5c0-0.3,0.2-0.5,0.5-0.5
	H24c0.3,0,0.5,0.2,0.5,0.5v5.5c0,0.3-0.2,0.5-0.5,0.5h-1.3C22.3,21.8,22.1,21.6,22.1,21.3z M40.6,21.8h1.3c0.3,0,0.5-0.2,0.5-0.5
	v-5.5c0-0.2-0.2-0.5-0.5-0.5h-1.3c-0.2,0-0.5,0.2-0.5,0.5v5.5C40.1,21.6,40.3,21.8,40.6,21.8z M48.2,20v27c0,1.3-1,2.3-2.3,2.3h-27
	c-1.3,0-2.3-1-2.3-2.3V20c0-1.3,1-2.3,2.3-2.3h1.8v3.5c0,1.3,1.5,2.3,2.8,2.3c1.3,0,2.8-1,2.8-2.3v-3.5h12.4v3.5
	c0,1.3,1.5,2.3,2.8,2.3c1.3,0,2.8-1,2.8-2.3v-3.5h1.8C47.1,17.6,48.2,18.7,48.2,20z M45.8,28.5h-27v17.8c0,0.4,0.3,0.7,0.7,0.7h25.6
	c0.4,0,0.7-0.3,0.7-0.7V28.5z M30.3,36.2h4.1c0.1,0,0.3,0,0.4-0.1c0,0,0,0,0.1-0.1c0,0,0,0,0,0c0,0,0,0,0,0c0,0,0,0,0.1-0.1
	c0,0,0,0,0-0.1c0-0.1,0.1-0.2,0.1-0.3v-4.1c0-0.3-0.3-0.6-0.6-0.6h-4.1c-0.3,0-0.6,0.3-0.6,0.6v4.1C29.6,35.9,29.9,36.2,30.3,36.2z
	 M22.5,36.2h4.1c0.1,0,0.3,0,0.4-0.1c0,0,0,0,0.1-0.1c0,0,0,0,0,0c0,0,0,0,0,0c0,0,0,0,0.1-0.1c0,0,0,0,0-0.1c0-0.1,0.1-0.2,0.1-0.3
	v-4.1c0-0.3-0.3-0.6-0.6-0.6h-4.1c-0.3,0-0.6,0.3-0.6,0.6v4.1C21.8,35.9,22.1,36.2,22.5,36.2z M38.1,36.2h4.1c0.1,0,0.3,0,0.4-0.1
	c0,0,0,0,0.1-0.1c0,0,0,0,0,0c0,0,0,0,0,0c0,0,0,0,0.1-0.1c0,0,0,0,0-0.1c0-0.1,0.1-0.2,0.1-0.3v-4.1c0-0.3-0.3-0.6-0.6-0.6h-4.1
	c-0.3,0-0.6,0.3-0.6,0.6v4.1C37.5,35.9,37.8,36.2,38.1,36.2z M30.3,44h4.1c0.1,0,0.3,0,0.4-0.1c0,0,0,0,0.1-0.1c0,0,0,0,0,0
	c0,0,0,0,0,0c0,0,0,0,0.1-0.1c0,0,0,0,0-0.1c0-0.1,0.1-0.2,0.1-0.3v-4.1c0-0.3-0.3-0.6-0.6-0.6h-4.1c-0.3,0-0.6,0.3-0.6,0.6v4.1
	C29.6,43.7,29.9,44,30.3,44z M22.5,44h4.1c0.1,0,0.3,0,0.4-0.1c0,0,0,0,0.1-0.1c0,0,0,0,0,0c0,0,0,0,0,0c0,0,0,0,0.1-0.1
	c0,0,0,0,0-0.1c0-0.1,0.1-0.2,0.1-0.3v-4.1c0-0.3-0.3-0.6-0.6-0.6h-4.1c-0.3,0-0.6,0.3-0.6,0.6v4.1C21.8,43.7,22.1,44,22.5,44z"/>
</svg>
