
<svg xmlns="http://www.w3.org/2000/svg"  x="0px" y="0px" width="64.628px" height="64.628px" viewBox="0 0 64.628 64.628" >

	<path fill="#5F6062" d="M32.314,0C14.467,0,0,14.467,0,32.314C0,50.16,14.467,64.628,32.314,64.628S64.628,50.16,64.628,32.314
		C64.628,14.467,50.16,0,32.314,0z M32.314,62.689c-16.749,0-30.375-13.626-30.375-30.375S15.565,1.939,32.314,1.939
		s30.375,13.626,30.375,30.375S49.063,62.689,32.314,62.689z"/>
	<path fill="#5F6062" d="M30.998,33.578l-16.457-9.554v19.138c0,1.263,1.024,2.287,2.287,2.287h30.971
		c1.263,0,2.287-1.024,2.287-2.287V24.023L33.63,33.578C32.816,34.05,31.812,34.05,30.998,33.578z"/>
	<path fill="#5F6062" d="M47.799,17.781H16.828c-1.263,0-2.287,1.024-2.287,2.287v1.53l16.457,9.555
		c0.814,0.472,1.818,0.472,2.632,0l16.457-9.555v-1.53C50.087,18.805,49.063,17.781,47.799,17.781z"/>

</svg>
