<svg id="Layer_1" data-name="Layer 1" xmlns="http://www.w3.org/2000/svg" viewBox="0 0 64 64"><defs><style>.cls-1{fill:#ffc425;}.cls-2{fill:#fff;}</style></defs><title>Yellow-car</title><g id="Group_6967" data-name="Group 6967"><g id="Group_6171" data-name="Group 6171"><path id="Path_891" data-name="Path 891" class="cls-1" d="M32,3.42A28.58,28.58,0,1,1,3.42,32,28.57,28.57,0,0,1,32,3.42M32,0A32,32,0,1,0,64,32,32,32,0,0,0,32,0Z"/><circle id="Ellipse_218" data-name="Ellipse 218" class="cls-2" cx="32" cy="32" r="30"/><path id="Path_906" data-name="Path 906" class="cls-1" d="M50.18,32.05h0c-.06-.8-1.08-2.11-2.1-3.24l-3.51-9.46A5.07,5.07,0,0,0,39.81,16h-16a5,5,0,0,0-4.76,3.35l-3.4,9.3c-1.08,1.13-2.1,2.43-2.16,3.4h0V45.37a2.72,2.72,0,0,0,2.72,2.72H17a2.72,2.72,0,0,0,2.73-2.72V43.55H44.06v1.82a2.72,2.72,0,0,0,2.72,2.72h.68a2.72,2.72,0,0,0,2.72-2.72v-3h0ZM19.4,25.69l2-5.49a2.5,2.5,0,0,1,2.38-1.64h16a2.54,2.54,0,0,1,2.38,1.64l2,5.5a.66.66,0,0,1-.39.86.64.64,0,0,1-.24.05H20a.67.67,0,0,1-.67-.67A.74.74,0,0,1,19.4,25.69ZM20.76,36a2.55,2.55,0,0,1-.15-5.1h.15A2.55,2.55,0,0,1,20.9,36ZM40.09,33.4A2.55,2.55,0,1,1,42.64,36,2.61,2.61,0,0,1,40.09,33.4Z"/></g></g></svg>