<?xml version="1.0" encoding="utf-8"?>
<!-- Generator: Adobe Illustrator 19.2.1, SVG Export Plug-In . SVG Version: 6.00 Build 0)  -->
<svg version="1.1" id="Layer_1" xmlns="http://www.w3.org/2000/svg" xmlns:xlink="http://www.w3.org/1999/xlink" x="0px" y="0px"
	 viewBox="0 0 64.3 64.3" style="enable-background:new 0 0 64.3 64.3;" xml:space="preserve">
<g id="Layer_2" class="st0">
</g>
<g id="icons">
	<path class="st1" d="M14.4,32.2c0-1.1,0.9-2,2-2h15.4L28,26.6c-0.8-0.8-0.8-2,0-2.8s2.1-0.8,2.8,0l7.6,7.6c0.5,0.5,0.5,1.3,0,1.8
		l-7.6,7.6c-0.8,0.8-2.1,0.8-2.8,0c-0.8-0.8-0.8-2.1,0-2.9l3.6-3.7H16.4C15.2,34.2,14.4,33.2,14.4,32.2z M46.2,47.6
		c0,1-0.4,1.6-1.4,1.6H22.6c-1.1,0-2-0.9-2-2s0.9-2,2-2h18.9c0.6,0,0.7-0.3,0.7-0.8V20.2c0-0.6-0.1-1.1-0.7-1.1H22.6
		c-1.1,0-2-0.9-2-2s0.9-2,2-2h22.2c1,0,1.4,0.9,1.4,1.8V47.6z M32.2-0.1C14.4-0.1-0.1,14.4-0.1,32.2s14.5,32.3,32.3,32.3
		s32.3-14.4,32.3-32.3S50.1-0.1,32.2-0.1z M32.2,62.6C15.4,62.6,1.8,49,1.8,32.2S15.4,1.9,32.2,1.9s30.4,13.6,30.4,30.4
		S49,62.6,32.2,62.6z"/>
</g>
</svg>
