
<svg xmlns="http://www.w3.org/2000/svg" x="0px" y="0px"
	 width="64.628px" height="64.628px" viewBox="0 0 64.628 64.628">

	<path fill="#5F6062" d="M32.314,0C14.467,0,0,14.467,0,32.314s14.467,32.314,32.314,32.314S64.628,50.16,64.628,32.314
		S50.16,0,32.314,0z M32.314,62.689c-16.749,0-30.375-13.626-30.375-30.375S15.565,1.939,32.314,1.939s30.375,13.626,30.375,30.375
		S49.063,62.689,32.314,62.689z"/>
	<path fill="#5F6062" d="M29.177,38.639l-2.774,2.757c-1.395,1.395-3.686,1.395-5.097,0c-0.681-0.664-1.046-1.561-1.046-2.507
		s0.365-1.843,1.046-2.507l5.977-5.927c1.229-1.245,3.57-3.038,5.263-1.361c0.78,0.764,2.025,0.764,2.806-0.017
		c0.764-0.78,0.764-2.025-0.017-2.806c-2.889-2.872-7.156-2.341-10.875,1.345l-5.977,5.927c-1.428,1.428-2.225,3.32-2.225,5.329
		c0,2.009,0.797,3.902,2.225,5.33c1.478,1.461,3.404,2.192,5.346,2.192c1.943,0,3.885-0.731,5.363-2.192l2.774-2.757
		c0.78-0.78,0.78-2.026,0.017-2.789C31.219,37.876,29.957,37.859,29.177,38.639z"/>
	<path fill="#5F6062" d="M35.834,16.343l-3.375,3.358c-0.78,0.764-0.797,2.025-0.017,2.806c0.764,0.78,2.026,0.797,2.806,0.016
		l3.358-3.374c1.478-1.478,3.437-0.863,4.699,0.398c0.681,0.664,1.046,1.561,1.046,2.507c0,0.946-0.365,1.843-1.046,2.507
		l-6.375,6.326c-2.922,2.906-4.284,1.544-4.865,0.963c-0.78-0.764-2.025-0.764-2.806,0.017c-0.764,0.78-0.764,2.025,0.017,2.806
		c1.345,1.328,2.872,1.992,4.466,1.992c1.976,0,4.035-0.979,6.01-2.939l6.375-6.326c1.428-1.428,2.225-3.321,2.241-5.329
		c0-2.009-0.797-3.902-2.225-5.329C43.039,13.653,38.706,13.487,35.834,16.343z"/>

</svg>
