<?xml version="1.0" encoding="utf-8"?>
<!-- Generator: Adobe Illustrator 19.2.1, SVG Export Plug-In . SVG Version: 6.00 Build 0)  -->
<svg version="1.1" id="icons" xmlns="http://www.w3.org/2000/svg" xmlns:xlink="http://www.w3.org/1999/xlink" x="0px" y="0px"
	 viewBox="0 0 64.6 64.6" style="enable-background:new 0 0 64.6 64.6;" xml:space="preserve">
<g>
	<path class="st0" d="M32.3,0C14.5,0,0,14.5,0,32.3s14.5,32.3,32.3,32.3s32.3-14.4,32.3-32.3S50.2,0,32.3,0z M32.3,62.7
		c-16.7,0-30.4-13.6-30.4-30.4S15.6,2,32.3,2s30.4,13.6,30.4,30.3S49.1,62.7,32.3,62.7z"/>
	<path class="st0" d="M45.8,22.8v-8.5c0-0.4-0.3-0.7-0.7-0.7h-3.3c-0.4,0-0.7,0.3-0.7,0.7v4.4l-8-7c-0.5-0.4-1.2-0.4-1.7,0l-18.1,16
		c-0.5,0.5-0.6,1.3-0.1,1.8s1.3,0.6,1.8,0.1l1.5-1.3v15.5c0,0.8,0.6,1.4,1.4,1.4h28.7c0.8,0,1.4-0.6,1.4-1.4V28.2l1.5,1.3
		c0.2,0.2,0.5,0.3,0.8,0.3c0.4,0,0.7-0.1,1-0.4c0.5-0.5,0.4-1.3-0.1-1.8L45.8,22.8z M28.8,42.3c0,0.2-0.2,0.4-0.4,0.4h-6.1
		c-0.2,0-0.4-0.2-0.4-0.4V28.5c0-0.2,0.2-0.4,0.4-0.4h6c0.2,0,0.4,0.2,0.4,0.4L28.8,42.3L28.8,42.3z M43,36.3c0,0.2-0.2,0.4-0.4,0.4
		h-8c-0.2,0-0.4-0.2-0.4-0.4v-7.8c0-0.2,0.2-0.4,0.4-0.4h8c0.2,0,0.4,0.2,0.4,0.4V36.3z"/>
</g>
</svg>
