
<svg xmlns="http://www.w3.org/2000/svg" x="0px" y="0px"
	 width="64.628px" height="64.628px" viewBox="0 0 64.628 64.628">

	<path fill="#5F6062" d="M32.314,0C14.467,0,0,14.467,0,32.314C0,50.16,14.467,64.628,32.314,64.628S64.628,50.16,64.628,32.314
		C64.628,14.467,50.16,0,32.314,0z M32.314,62.689c-16.749,0-30.375-13.626-30.375-30.375S15.565,1.939,32.314,1.939
		s30.375,13.626,30.375,30.375S49.063,62.689,32.314,62.689z"/>
	<path fill="#5F6062" d="M33.318,36.801c0.577-2.195,2.053-3.925,3.908-4.76l-0.011-1.349c0,0,1.365-1.053,1.789-4.345
		c0.857,0.251,1.756-1.278,1.801-2.081c0.048-0.774-0.115-2.916-1.156-2.701c0.209-1.618,0.366-3.07,0.289-3.838
		c-0.269-2.823-3.044-5.787-7.306-5.787c-4.259,0-7.03,2.964-7.306,5.787c-0.071,0.768,0.084,2.219,0.295,3.838
		c-1.044-0.215-1.211,1.927-1.166,2.701c0.055,0.803,0.947,2.331,1.805,2.081c0.427,3.292,1.795,4.345,1.795,4.345l-0.036,3.51
		c0,0-0.867,0.527-4.518,2.049c-3.654,1.519-6.339,2.585-7.437,4.3c-0.989,1.535-0.691,6.968-0.691,6.968h21.966
		c-1.113-1.073-2.019-2.192-2.713-3.352C32.764,41.052,32.887,38.442,33.318,36.801z"/>
	<path fill="#5F6062" d="M43.903,36.07c-4.865-8.313-17.587,4.03,0,13.956C61.493,40.1,48.772,27.757,43.903,36.07z"/>

</svg>
