
<svg xmlns="http://www.w3.org/2000/svg"  x="0px" y="0px"
	 width="64.628px" height="64.628px" viewBox="0 0 64.628 64.628" >

	<path fill="#5F6062" d="M32.314,0C14.467,0,0,14.467,0,32.314C0,50.16,14.467,64.628,32.314,64.628S64.628,50.16,64.628,32.314
		C64.628,14.467,50.16,0,32.314,0z M32.314,62.689c-16.749,0-30.375-13.626-30.375-30.375S15.565,1.939,32.314,1.939
		s30.375,13.626,30.375,30.375S49.063,62.689,32.314,62.689z"/>
	<path fill="#5F6062" d="M34.537,39.014h-9.15c-0.578,0-1.046-0.468-1.046-1.046c0-0.577,0.468-1.046,1.046-1.046h10.372
		c1.938-2.585,5.025-4.261,8.497-4.261c1.259,0,2.466,0.221,3.587,0.625V16.575c0-1.444-1.17-2.614-2.614-2.614H20.179
		c-1.444,0-2.614,1.17-2.614,2.614v30.298c0,1.444,1.17,2.614,2.614,2.614h15.476c-1.265-1.747-2.012-3.893-2.012-6.211
		C33.642,41.761,33.962,40.319,34.537,39.014z M25.387,24.741h13.206c0.578,0,1.046,0.468,1.046,1.046
		c0,0.578-0.468,1.046-1.046,1.046H25.387c-0.578,0-1.046-0.468-1.046-1.046C24.342,25.21,24.81,24.741,25.387,24.741z
		 M25.387,30.806H41.73c0.577,0,1.046,0.468,1.046,1.046c0,0.578-0.468,1.046-1.046,1.046H25.387c-0.578,0-1.046-0.468-1.046-1.046
		C24.342,31.274,24.81,30.806,25.387,30.806z"/>
	<path fill="#5F6062" d="M44.256,34.512c-4.84,0-8.764,3.924-8.764,8.764c0,4.84,3.924,8.764,8.764,8.764
		c4.84,0,8.764-3.924,8.764-8.764C53.02,38.436,49.097,34.512,44.256,34.512z M48.95,43.195c0,0.421-0.341,0.762-0.762,0.762h-3.17
		v3.17c0,0.421-0.341,0.762-0.762,0.762h0c-0.421,0-0.762-0.341-0.762-0.762v-3.17h-3.17c-0.421,0-0.762-0.341-0.762-0.762v0
		c0-0.421,0.341-0.762,0.762-0.762h3.17v-3.17c0-0.421,0.341-0.762,0.762-0.762h0c0.421,0,0.762,0.341,0.762,0.762v3.17h3.17
		C48.609,42.433,48.95,42.774,48.95,43.195L48.95,43.195z"/>

</svg>
