
<svg  xmlns="http://www.w3.org/2000/svg"  x="0px" y="0px"
	 width="64.628px" height="64.628px" viewBox="0 0 64.628 64.628" >

	<path fill="#5F6062" d="M32.314,0C14.467,0,0,14.467,0,32.314s14.467,32.314,32.314,32.314S64.628,50.16,64.628,32.314
		S50.16,0,32.314,0z M32.314,62.689c-16.749,0-30.375-13.626-30.375-30.375S15.565,1.939,32.314,1.939s30.375,13.626,30.375,30.375
		S49.063,62.689,32.314,62.689z"/>
	<path fill="#5F6062" d="M37.245,43.242h-8.928c-0.551,0-0.991,0.441-0.991,0.991c0,0.551,0.441,0.991,0.991,0.991h8.928
		c0.551,0,0.991-0.441,0.991-0.991C38.237,43.683,37.796,43.242,37.245,43.242z"/>
	<path fill="#5F6062" d="M30.938,48.357h3.659c1.101,0,1.983-0.854,1.983-1.983h-7.624C28.956,47.476,29.864,48.357,30.938,48.357z"
		/>
	<path fill="#5F6062" d="M37.245,40.11h-8.928c-0.551,0-0.991,0.441-0.991,0.991c0,0.551,0.441,0.991,0.991,0.991h8.928
		c0.551,0,0.991-0.441,0.991-0.991C38.237,40.55,37.796,40.11,37.245,40.11z"/>
	<path fill="#5F6062" d="M32.781,16.271c-5.452,0-9.858,4.406-9.858,9.858c0,5.369,3.686,6.003,4.292,11.84
		c0,0.551,0.441,0.991,0.991,0.991h9.121c0.551,0,0.991-0.441,0.991-0.991c0.633-5.865,4.32-6.498,4.32-11.84
		C42.639,20.677,38.233,16.271,32.781,16.271z"/>

</svg>
