
	<svg xmlns="http://www.w3.org/2000/svg" x="0px" y="0px" width="64.628px" height="64.628px" viewBox="0 0 64.628 64.628" >

	<path fill="#5F6062" d="M32.314,0C14.467,0,0,14.467,0,32.314C0,50.16,14.467,64.628,32.314,64.628S64.628,50.16,64.628,32.314
		C64.628,14.467,50.16,0,32.314,0z M32.314,62.689c-16.749,0-30.375-13.626-30.375-30.375S15.565,1.939,32.314,1.939
		s30.375,13.626,30.375,30.375S49.063,62.689,32.314,62.689z"/>
	<path fill="#5F6062" d="M48.226,16.438H21.352c-1.242,0-2.249,1.007-2.249,2.249v0.225h-2.105c-1.343,0-2.432,1.089-2.432,2.432
		v22.238c0,1.863,1.51,3.374,3.374,3.374h8.664h0h21.623c1.242,0,2.249-1.007,2.249-2.249V18.687
		C50.475,17.445,49.468,16.438,48.226,16.438z M18.944,42.664c0,0.584-0.473,1.057-1.057,1.057s-1.057-0.473-1.057-1.057V22.613
		c0-0.584,0.473-1.057,1.057-1.057s1.057,0.473,1.057,1.057V42.664z M23.816,25.029c0-0.581,0.476-1.057,1.057-1.057H32.6
		c0.582,0,1.057,0.476,1.057,1.057v6.6c0,0.581-0.476,1.057-1.057,1.057h-7.727c-0.581,0-1.057-0.476-1.057-1.057V25.029z
		 M44.116,38.796H24.821c-0.594,0-1.075-0.473-1.075-1.057s0.481-1.057,1.075-1.057h19.296c0.594,0,1.075,0.473,1.075,1.057
		S44.71,38.796,44.116,38.796z M44.135,32.452h-6.27c-0.584,0-1.057-0.473-1.057-1.057s0.473-1.057,1.057-1.057h6.27
		c0.584,0,1.057,0.473,1.057,1.057S44.719,32.452,44.135,32.452z M44.135,26.109h-6.27c-0.584,0-1.057-0.473-1.057-1.057
		s0.473-1.057,1.057-1.057h6.27c0.584,0,1.057,0.473,1.057,1.057S44.719,26.109,44.135,26.109z"/>

	</svg>
