<?xml version="1.0" encoding="utf-8"?>
<!-- Generator: Adobe Illustrator 19.2.1, SVG Export Plug-In . SVG Version: 6.00 Build 0)  -->
<svg version="1.1" id="icons" xmlns="http://www.w3.org/2000/svg" xmlns:xlink="http://www.w3.org/1999/xlink" x="0px" y="0px"
	 viewBox="0 0 64.6 64.6" style="enable-background:new 0 0 64.6 64.6;" xml:space="preserve">
<g>
	<path class="st0" d="M32.3,0C14.5,0,0,14.5,0,32.3s14.5,32.3,32.3,32.3s32.3-14.4,32.3-32.3S50.2,0,32.3,0z M32.3,62.7
		c-16.7,0-30.4-13.6-30.4-30.4S15.6,2,32.3,2s30.4,13.6,30.4,30.3S49.1,62.7,32.3,62.7z"/>
	<path class="st0" d="M47,23.9c-0.3,0.3-0.5,0.5-0.9,0.7c-1.2,0.9-2.7,1.3-4.4,1.3c-1.2,0-2.5-0.2-3.8-0.6c-0.4,0.6-1,1.4-1.4,2.4
		c-0.3,0.7-1.1,1.2-1.9,1.2c-0.9,0-1.8-0.5-2.3-1.2c-0.4-0.6-0.5-1.3-0.2-1.9c0.4-0.9,0.8-1.7,1.4-2.4l-0.2-2.1
		c-0.3-3.5,0.8-5.9,2.4-7.4l-2.4-2.1c-0.5-0.4-1.2-0.4-1.7,0L13.4,27.6c-0.5,0.5-0.6,1.3-0.1,1.8s1.3,0.6,1.8,0.1l1.5-1.3v15.5
		c0,0.8,0.6,1.4,1.4,1.4h28.7c0.8,0,1.4-0.6,1.4-1.4V28.2l1.5,1.3c0.2,0.2,0.5,0.3,0.8,0.3c0.4,0,0.7-0.1,1-0.4
		c0.5-0.5,0.4-1.3-0.1-1.8L47,23.9z M28.8,42.1c0,0.4-0.3,0.7-0.7,0.7h-5.6c-0.4,0-0.7-0.3-0.7-0.7V28.7c0-0.4,0.3-0.7,0.7-0.7h5.6
		c0.4,0,0.7,0.3,0.7,0.7V42.1z"/>
	<path class="st0" d="M38.4,13.6c-3.9,2.3-3.7,6-3.6,7.4c5.1-6,12.7-5.7,12.7-5.7s-10.8,3.7-14,11.1c-0.2,0.6,1.2,1.3,1.5,0.7
		c1-2.1,2.3-3.6,2.3-3.6c2,0.7,5.5,1.6,7.9-0.1c3.3-2.3,2.9-7.3,7.6-9.8C53.9,12.9,43.7,10.5,38.4,13.6z"/>
</g>
</svg>
