
<svg xmlns="http://www.w3.org/2000/svg" x="0px" y="0px"
	 width="64.628px" height="64.628px" viewBox="0 0 64.628 64.628">

	<path fill="#5F6062" d="M32.314,0C14.467,0,0,14.467,0,32.314s14.467,32.314,32.314,32.314S64.628,50.16,64.628,32.314
		S50.16,0,32.314,0z M32.314,62.689c-16.749,0-30.375-13.626-30.375-30.375S15.565,1.939,32.314,1.939s30.375,13.626,30.375,30.375
		S49.063,62.689,32.314,62.689z"/>
	<path fill="#5F6062" d="M41.738,36.243c-3.645-1.52-4.514-2.047-4.514-2.047l-0.029-3.507c0,0,1.363-1.052,1.787-4.341
		c0.856,0.25,1.755-1.277,1.8-2.079c0.048-0.773-0.115-2.913-1.155-2.698c0.209-1.617,0.366-3.067,0.289-3.834
		c-0.269-2.82-3.041-5.781-7.299-5.781c-4.255,0-7.023,2.961-7.299,5.781c-0.071,0.767,0.083,2.217,0.295,3.834
		c-1.043-0.215-1.209,1.925-1.165,2.698c0.055,0.802,0.946,2.329,1.803,2.079c0.426,3.289,1.794,4.341,1.794,4.341l-0.036,3.507
		c0,0-0.866,0.526-4.514,2.047c-3.651,1.518-6.333,2.583-7.43,4.296c-0.988,1.534-0.69,6.962-0.69,6.962h34.236
		c0,0,0.292-5.428-0.687-6.962C47.824,38.826,45.389,37.761,41.738,36.243z"/>

</svg>
