
<svg xmlns="http://www.w3.org/2000/svg" x="0px" y="0px"
	 width="64.628px" height="64.628px" viewBox="0 0 64.628 64.628">

	<path fill="#5F6062" d="M32.314,0C14.467,0,0,14.467,0,32.314s14.467,32.314,32.314,32.314S64.628,50.16,64.628,32.314
		S50.16,0,32.314,0z M32.314,62.689c-16.749,0-30.375-13.626-30.375-30.375S15.565,1.939,32.314,1.939s30.375,13.626,30.375,30.375
		S49.063,62.689,32.314,62.689z"/>
	<path fill="#5F6062" d="M47.668,16.96c-0.918-0.918-2.407-0.918-3.325,0L32.314,28.989L20.285,16.96
		c-0.918-0.918-2.407-0.918-3.325,0c-0.918,0.918-0.918,2.407,0,3.325l12.029,12.029L16.96,44.343c-0.918,0.918-0.918,2.407,0,3.325
		c0.918,0.918,2.407,0.918,3.325,0l12.029-12.029l12.029,12.029c0.918,0.918,2.407,0.918,3.325,0c0.918-0.918,0.918-2.407,0-3.325
		L35.639,32.314l12.029-12.029C48.586,19.367,48.586,17.878,47.668,16.96z"/>

</svg>
