
<svg xmlns="http://www.w3.org/2000/svg"  x="0px" y="0px"
	 width="64.628px" height="64.628px" viewBox="0 0 64.628 64.628">

	<path fill="#5F6062" d="M0,32.314C0,50.16,14.467,64.628,32.314,64.628S64.628,50.16,64.628,32.314S50.16,0,32.314,0
		C14.467,0,0,14.467,0,32.314z M1.939,32.314c0-16.749,13.626-30.375,30.375-30.375s30.375,13.626,30.375,30.375
		S49.063,62.689,32.314,62.689S1.939,49.063,1.939,32.314z"/>
	<path fill="#5F6062" d="M16.271,22.143l3.873,3.873l-1.156,1.156c-0.349,0.349-0.349,0.916,0,1.266l1.816,1.816
		c0.134,0.134,0.316,0.209,0.505,0.21l3.287,0.005l3.181,3.181c0.349,0.349,0.916,0.349,1.266,0l4.607-4.607
		c0.349-0.349,0.349-0.916,0-1.266l-3.181-3.181l-0.005-3.287c0-0.189-0.076-0.371-0.21-0.505l-1.816-1.816
		c-0.349-0.349-0.916-0.349-1.266,0l-1.156,1.156l-3.873-3.873L16.271,22.143z M27.208,29.258l2.05-2.05
		c0.14-0.14,0.367-0.14,0.506,0l1.223,1.223c0.14,0.14,0.14,0.366,0,0.506l-2.05,2.05c-0.14,0.14-0.367,0.14-0.506,0l-1.223-1.223
		C27.068,29.625,27.068,29.398,27.208,29.258z M21.113,26.669l5.556-5.556c0.14-0.14,0.366-0.14,0.506,0l0.402,0.402
		c0.14,0.14,0.14,0.366,0,0.506l-5.556,5.556c-0.14,0.14-0.366,0.14-0.506,0l-0.402-0.402
		C20.973,27.035,20.973,26.809,21.113,26.669z"/>
	
		<rect x="39.348" y="40.867" transform="matrix(0.7071 -0.7071 0.7071 0.7071 -18.0285 43.5247)" fill="#5F6062" width="8.353" height="5.315"/>
	<path fill="#5F6062" d="M29.573,36.205c-0.349,0.349-0.349,0.916,0,1.266l6.632,6.632c0.349,0.349,0.916,0.349,1.266,0l6.632-6.632
		c0.35-0.349,0.35-0.916,0-1.266l-6.632-6.632c-0.349-0.349-0.916-0.349-1.266,0L29.573,36.205z M32.991,36.492l3.501-3.501
		c0.191-0.191,0.5-0.191,0.691,0l3.501,3.501c0.191,0.191,0.191,0.5,0,0.691l-3.501,3.501c-0.191,0.191-0.5,0.191-0.691,0
		l-3.501-3.501C32.8,36.992,32.8,36.683,32.991,36.492z"/>
	<path fill="#5F6062" d="M36.38,34.831c0.252-0.252,0.662-0.252,0.914,0l1.55,1.55c0.252,0.252,0.252,0.662,0,0.914l-1.55,1.55
		c-0.252,0.252-0.662,0.252-0.914,0l-1.55-1.55c-0.252-0.252-0.252-0.662,0-0.914L36.38,34.831z"/>

</svg>
