
<svg  xmlns="http://www.w3.org/2000/svg" x="0px" y="0px"
	 width="64.628px" height="64.628px" viewBox="0 0 64.628 64.628">

	<path fill="#5F6062" d="M32.314,0C14.467,0,0,14.467,0,32.314s14.467,32.314,32.314,32.314S64.628,50.16,64.628,32.314
		S50.16,0,32.314,0z M32.314,62.689c-16.749,0-30.375-13.626-30.375-30.375S15.565,1.939,32.314,1.939s30.375,13.626,30.375,30.375
		S49.063,62.689,32.314,62.689z"/>
	<path fill="#5F6062" d="M33.079,36.309c0.53-2.016,1.808-3.645,3.441-4.563c-0.363-0.723-0.582-1.5-0.701-2.276
		c0.324-0.373,0.64-0.766,0.943-1.177c1.933,0.625,4.249,0.807,6.234-0.647c-2.733-2.763-0.539-6.149-2.511-12.252
		c-1.679-5.188-8.555-4.933-9.442-3.11c-3.647-1.302-6.399,0.441-7.412,5.937c-1.164,6.312,1.093,6.979-1.64,9.74
		c2.098,1.212,4.02,0.916,5.689,0.246c0.329,0.448,0.671,0.879,1.023,1.283c-0.339,2.185-1.471,4.383-4.406,5.312
		c-2.239,0.707-4.858,1.404-6.406,2.968c-1.221,1.236-0.408,9.396-0.408,9.396h9.244h10.419c-1.123-1.085-2.038-2.215-2.739-3.387
		C32.518,40.619,32.642,37.973,33.079,36.309z"/>
	<path fill="#5F6062" d="M43.812,35.567c-4.933-8.43-17.833,4.086,0,14.151C61.649,39.654,48.749,27.138,43.812,35.567z"/>

</svg>
