
<svg xmlns="http://www.w3.org/2000/svg" x="0px" y="0px"
	 width="64.628px" height="64.628px" viewBox="0 0 64.628 64.628" >

	<path fill="#5F6062" d="M32.314,0C14.467,0,0,14.467,0,32.314s14.467,32.314,32.314,32.314S64.628,50.16,64.628,32.314
		S50.16,0,32.314,0z M32.314,62.689c-16.749,0-30.375-13.626-30.375-30.375S15.565,1.939,32.314,1.939s30.375,13.626,30.375,30.375
		S49.063,62.689,32.314,62.689z"/>
	<path fill="#5F6062" d="M24.562,20.594h16.051c0.525,0,0.95-0.425,0.95-0.95v-0.034c0-0.525-0.425-0.95-0.95-0.95H24.562
		c-0.524,0-0.95,0.425-0.95,0.95v0.034C23.612,20.169,24.037,20.594,24.562,20.594z"/>
	<path fill="#5F6062" d="M41.8,22.793H23.374c-0.525,0-0.95,0.425-0.95,0.95v0.034c0,0.525,0.425,0.95,0.95,0.95H41.8
		c0.525,0,0.95-0.425,0.95-0.95v-0.034C42.75,23.218,42.325,22.793,41.8,22.793z"/>
	<path fill="#5F6062" d="M45.372,15.941c-0.28-1.035-1.219-1.754-2.292-1.754H22.095c-1.072,0-2.012,0.719-2.292,1.754
		l-3.209,11.863c-0.077,0.283-0.115,0.575-0.115,0.868v1.652v12.757v1.9c0,0.787,0.638,1.425,1.425,1.425h1.9h25.57h1.9
		c0.787,0,1.425-0.638,1.425-1.425v-1.9V30.324v-1.652c0-0.293-0.039-0.585-0.115-0.868L45.372,15.941z M38.398,36.582H26.895
		c-0.849,0-1.537-0.688-1.537-1.537c0-0.849,0.688-1.537,1.537-1.537h11.503c0.849,0,1.537,0.688,1.537,1.537
		C39.936,35.894,39.247,36.582,38.398,36.582z M45.372,27h-6.548l-0.633,0.683c-0.18,0.194-0.432,0.304-0.697,0.304h-9.697
		c-0.264,0-0.517-0.11-0.697-0.304L26.469,27h-6.667c-0.187,0-0.37,0.016-0.549,0.046l2.604-9.625
		c0.14-0.518,0.61-0.877,1.146-0.877h19.495c0.343,0,0.644,0.23,0.733,0.561l2.689,9.941C45.742,27.016,45.559,27,45.372,27z"/>

</svg>
