<svg id="Layer_1" data-name="Layer 1" xmlns="http://www.w3.org/2000/svg" viewBox="0 0 64 64"><defs><style>.cls-1{fill:#fff;}.cls-2{fill:#00844d;}</style></defs><title>Green-check</title><g id="group-23"><ellipse id="ellipse-4" class="cls-1" cx="31.69" cy="31.69" rx="30.71" ry="30.7"/><g id="group-470"><path id="path" class="cls-2" d="M47.71,20.75a3.84,3.84,0,0,0-5.42,0L27.18,35.91l-4.77-4.77a3.83,3.83,0,0,0-5.42,0h0a3.83,3.83,0,0,0,0,5.42l8.7,8.7a2.14,2.14,0,0,0,3,0l19-19.1a3.83,3.83,0,0,0,0-5.42Z" transform="translate(0)"/><path id="path-2" class="cls-2" d="M32,0A32,32,0,0,0,0,32H0A32,32,0,1,0,32,0Zm0,62.09A30.08,30.08,0,1,1,62.1,32,30.13,30.13,0,0,1,32,62.09Z" transform="translate(0)"/></g></g></svg>