<?xml version="1.0" encoding="utf-8"?>
<!-- Generator: Adobe Illustrator 19.2.1, SVG Export Plug-In . SVG Version: 6.00 Build 0)  -->
<svg version="1.1" id="icons" xmlns="http://www.w3.org/2000/svg" xmlns:xlink="http://www.w3.org/1999/xlink" x="0px" y="0px"
	 viewBox="0 0 64.4 64.4" style="enable-background:new 0 0 64.4 64.4;" xml:space="preserve">

<path class="st0" d="M32.2-0.1C14.4-0.1-0.1,14.4-0.1,32.3c0,17.8,14.5,32.3,32.3,32.3c17.8,0,32.3-14.5,32.3-32.3
	C64.5,14.4,50.1-0.1,32.2-0.1C32.2-0.1,32.2-0.1,32.2-0.1z M32.2,62.6C15.4,62.6,1.8,49,1.9,32.2c0-16.8,13.6-30.4,30.4-30.3
	c16.8,0,30.3,13.6,30.3,30.3C62.6,49,49,62.6,32.2,62.6C32.2,62.6,32.2,62.6,32.2,62.6z M24.6,22.5c-7,4.1-6.6,10.7-6.4,13.1
	c9.1-10.7,22.7-10.2,22.7-10.2S21.6,32,15.9,45.1c-0.5,1,2.1,2.4,2.7,1.2c1.1-2.3,2.5-4.5,4.2-6.4c3.6,1.3,9.7,2.9,14.1-0.2
	c5.8-4.1,5.2-13,13.5-17.4C52.3,21.2,34.1,17,24.6,22.5z"/>
</svg>
