
<svg  xmlns="http://www.w3.org/2000/svg"  x="0px" y="0px"
	 width="64.628px" height="64.628px" viewBox="0 0 64.628 64.628">

	<path fill="#5F6062" d="M32.314,0C14.467,0,0,14.467,0,32.314C0,50.16,14.467,64.628,32.314,64.628S64.628,50.16,64.628,32.314
		C64.628,14.467,50.16,0,32.314,0z M32.314,62.689c-16.749,0-30.375-13.626-30.375-30.375S15.565,1.939,32.314,1.939
		s30.375,13.626,30.375,30.375S49.063,62.689,32.314,62.689z"/>
	<path fill="#5F6062" d="M44.568,13.902H19.592c-1.439,0-2.606,1.167-2.606,2.606v30.209c0,1.439,1.167,2.606,2.606,2.606h24.977
		c1.439,0,2.606-1.167,2.606-2.606V16.508C47.175,15.068,46.008,13.902,44.568,13.902z M24.784,24.65h13.167
		c0.576,0,1.042,0.467,1.042,1.042s-0.467,1.042-1.042,1.042H24.784c-0.576,0-1.042-0.467-1.042-1.042S24.209,24.65,24.784,24.65z
		 M35.346,38.88H24.784c-0.576,0-1.042-0.467-1.042-1.042c0-0.576,0.467-1.042,1.042-1.042h10.561c0.576,0,1.042,0.467,1.042,1.042
		C36.388,38.413,35.921,38.88,35.346,38.88z M41.079,32.782H24.784c-0.576,0-1.042-0.467-1.042-1.042s0.467-1.043,1.042-1.043
		h16.295c0.576,0,1.042,0.467,1.042,1.043S41.655,32.782,41.079,32.782z"/>

</svg>
