<svg xmlns="http://www.w3.org/2000/svg" x="0px" y="0px" width="64.628px" height="64.628px" viewBox="0 0 64.628 64.628">

	<path fill="#5F6062" d="M32.314,0C14.467,0,0,14.467,0,32.314s14.467,32.314,32.314,32.314S64.628,50.16,64.628,32.314
		S50.16,0,32.314,0z M32.314,62.689c-16.749,0-30.375-13.626-30.375-30.375S15.565,1.939,32.314,1.939s30.375,13.626,30.375,30.375
		S49.063,62.689,32.314,62.689z"/>
	<path fill="#5F6062" d="M19.173,25.613c-0.013,0.049-0.101,0.378-0.112,0.419c0.491,0.505,1.166,0.905,1.954,1.167
		c-0.031-0.117-0.409-1.531-0.423-1.585C20.536,25.613,19.228,25.613,19.173,25.613z"/>
	<path fill="#5F6062" d="M22.211,25.071c0.089,0,1.051,0,1.141,0c-0.024-0.091-0.51-1.881-0.576-2.12
		C22.712,23.19,22.235,24.981,22.211,25.071z"/>
	<path fill="#5F6062" d="M20.447,25.071c-0.024-0.09-0.501-1.877-0.566-2.118c-0.064,0.241-0.541,2.028-0.564,2.118
		C19.406,25.071,20.358,25.071,20.447,25.071z"/>
	<path fill="#5F6062" d="M22.786,20.707c-0.783,0.036-1.548,0.203-2.219,0.489c0.019,0.067,1.008,3.551,1.073,3.781
		C21.702,24.744,22.758,20.81,22.786,20.707z"/>
	<path fill="#5F6062" d="M26.246,25.071c-0.024-0.091-0.511-1.88-0.576-2.12c-0.063,0.24-0.538,2.03-0.561,2.12
		C25.197,25.071,26.156,25.071,26.246,25.071z"/>
	<path fill="#5F6062" d="M18.215,24.113c0,0.467,0.138,0.919,0.402,1.345c0.045-0.168,0.948-3.533,1.003-3.735
		C18.715,22.367,18.215,23.211,18.215,24.113z"/>
	<path fill="#5F6062" d="M22.066,25.613c-0.014,0.055-0.445,1.669-0.466,1.749c0.486,0.11,0.99,0.167,1.5,0.167
		c0.301,0,0.605-0.022,0.903-0.062c-0.024-0.088-0.489-1.8-0.504-1.854C23.444,25.613,22.122,25.613,22.066,25.613z"/>
	<path fill="#5F6062" d="M26.487,21.658c0.057,0.199,1.04,3.655,1.087,3.818c0.269-0.432,0.411-0.889,0.411-1.363
		C27.984,23.189,27.438,22.3,26.487,21.658z"/>
	<path fill="#5F6062" d="M47.799,16.489H16.828c-1.263,0-2.287,1.024-2.287,2.287v23.093c0,1.263,1.024,2.287,2.287,2.287h30.971
		c1.263,0,2.287-1.024,2.287-2.287V18.776C50.087,17.513,49.063,16.489,47.799,16.489z M28.828,26.41L28.8,26.429l-0.086-0.095
		l0.037-0.026c2.977-2.056,4.744-4.045,4.298-4.838c-0.367-0.653-2.24-0.367-4.774,0.723c0.518,0.565,0.82,1.22,0.82,1.92
		c0,2.107-2.69,3.822-5.996,3.822c-1.08,0-2.092-0.185-2.968-0.506c-1.201,1.161-1.738,2.098-1.472,2.57
		c0.303,0.538,1.633,0.448,3.56-0.242l0.028-0.01l0.072,0.106l-0.047,0.018c-2.509,0.959-4.175,1.105-4.572,0.399
		c-0.336-0.597,0.3-1.703,1.785-3.115c-1.444-0.698-2.382-1.8-2.382-3.042c0-2.107,2.69-3.822,5.996-3.822
		c1.871,0,3.544,0.55,4.645,1.408c3.421-1.614,5.951-2.087,6.447-1.204C34.753,21.494,32.547,23.926,28.828,26.41z M45.006,38.764
		h-9.509c-0.588,0-1.064-0.476-1.064-1.064c0-0.588,0.477-1.064,1.064-1.064h9.509c0.588,0,1.064,0.476,1.064,1.064
		C46.07,38.287,45.594,38.764,45.006,38.764z M45.006,33.798h-9.509c-0.588,0-1.064-0.476-1.064-1.064s0.477-1.064,1.064-1.064
		h9.509c0.588,0,1.064,0.476,1.064,1.064S45.594,33.798,45.006,33.798z"/>
	<path fill="#5F6062" d="M23.321,20.704c0.03,0.103,1.148,4.032,1.215,4.268c0.063-0.237,1.003-3.74,1.021-3.808
		C24.88,20.887,24.109,20.729,23.321,20.704z"/>
	<path fill="#5F6062" d="M24.965,25.613c-0.014,0.05-0.114,0.429-0.119,0.449c0.006,0.02,0.303,1.064,0.325,1.141
		c0.546-0.179,1.036-0.425,1.455-0.731c-0.014-0.053-0.219-0.806-0.233-0.859C26.337,25.613,25.021,25.613,24.965,25.613z"/>

</svg>
