<?xml version="1.0" encoding="utf-8"?>
<!-- Generator: Adobe Illustrator 19.2.1, SVG Export Plug-In . SVG Version: 6.00 Build 0)  -->
<svg version="1.1" id="icons" xmlns="http://www.w3.org/2000/svg" xmlns:xlink="http://www.w3.org/1999/xlink" x="0px" y="0px"
	 viewBox="0 0 64.6 64.6" style="enable-background:new 0 0 64.6 64.6;" xml:space="preserve">
<g>
	<path class="st0" d="M32.3,0C14.5,0,0,14.5,0,32.3s14.5,32.3,32.3,32.3s32.3-14.4,32.3-32.3S50.2,0,32.3,0z M32.3,62.7
		c-16.7,0-30.4-13.6-30.4-30.4S15.6,2,32.3,2s30.4,13.6,30.4,30.3S49.1,62.7,32.3,62.7z"/>
	<path class="st0" d="M49.7,43.9c-0.6,0.3-1.2,0.6-1.9,1.1c-1.7,1.3-2.7,1.5-4.7,0c-0.5-0.4-1-0.7-1.6-0.9c-0.5-0.2-1-0.4-1.6-0.5
		c-0.3-0.1-0.6-0.1-0.9-0.1c-0.4,0-0.8,0-1.2,0c-0.3,0-0.5,0.1-0.8,0.2c-0.5,0.2-1,0.4-1.5,0.7c-0.3,0.2-0.7,0.4-1,0.6
		c-0.4,0.3-0.9,0.6-1.4,0.8c-0.3,0.1-0.6,0.2-0.9,0.2h-0.1c-0.3,0-0.6-0.1-0.9-0.2c-0.5-0.2-1-0.5-1.4-0.8c-0.3-0.2-0.6-0.4-1-0.6
		c-0.5-0.3-1-0.5-1.5-0.7c-0.3-0.1-0.5-0.1-0.8-0.2c-0.4-0.1-0.8-0.1-1.2,0c-0.3,0-0.6,0-0.9,0.1c-0.5,0.1-1.1,0.3-1.6,0.5
		c-0.5,0.3-1.1,0.6-1.6,0.9c-2,1.5-2.9,1.3-4.7,0c-0.7-0.5-1.4-0.9-2.1-1.2c-1-0.4-2,0.4-2,1.4c0,0.6,0.4,1.2,1,1.4
		c0.5,0.2,1,0.4,1.5,0.8c2.8,2.1,5.1,2.1,7.9,0c1.8-1.3,3.3-1.3,5.1,0c1.1,0.8,2.1,1.3,3.1,1.5c0.3,0.1,0.6,0.1,1,0.1l0,0
		c0.3,0,0.6,0,1-0.1c1-0.2,2-0.7,3.1-1.5c1.8-1.3,3.3-1.3,5.1,0c2.8,2.1,5.1,2.1,7.9,0c0.5-0.4,1-0.7,1.4-0.8
		c0.6-0.2,0.9-0.8,0.9-1.4C51.7,44.2,50.7,43.5,49.7,43.9z"/>
	<path class="st0" d="M47.6,18.5c-0.3-1.1-1.2-1.9-2.3-2.1L33.1,14v4.8l16,5.5L47.6,18.5z"/>
	<path class="st0" d="M31.4,14l-11.7,2.4c-1.1,0.2-2,1-2.2,2.1L16,24.3l15.4-5.5V14z"/>
	<path class="st0" d="M53.3,28.9L35,22.2c-2.8-1.2-5.2,0-5.2,0l-18.3,6.7c0,0-3,0.9-1,3.2c1.5,1.7,7.3,7.7,10.2,10.6
		c0.3-0.2,0.6-0.4,0.9-0.6c0.5-0.4,1-0.7,1.6-0.9c0.5-0.2,1-0.4,1.6-0.5c0.3-0.1,0.6-0.1,0.9-0.1c0.4,0,0.8,0,1.2,0
		c0.3,0,0.5,0.1,0.8,0.2c0.5,0.2,1,0.4,1.5,0.7c0.3,0.2,0.6,0.4,1,0.6c0.4,0.3,0.9,0.6,1.4,0.8c0.3,0.1,0.6,0.2,0.9,0.2h0.1
		c0.3,0,0.6-0.1,0.9-0.2c0.5-0.2,1-0.5,1.4-0.8c0.3-0.2,0.6-0.4,1-0.6c0.5-0.3,1-0.5,1.5-0.7c0.3-0.1,0.5-0.1,0.8-0.2
		c0.4-0.1,0.8-0.1,1.2,0c0.3,0,0.6,0,0.9,0.1c0.5,0.1,1.1,0.3,1.6,0.5c0.5,0.3,1.1,0.6,1.6,0.9c0.3,0.3,0.7,0.5,1,0.6
		c2.9-3,8.6-8.9,10.2-10.7C56.3,29.7,53.3,28.9,53.3,28.9z"/>
</g>
</svg>
