
<svg xmlns="http://www.w3.org/2000/svg"  x="0px" y="0px"
	 width="64.628px" height="64.628px" viewBox="0 0 64.628 64.628">

	<path fill="#5F6062" d="M32.314,0C14.467,0,0,14.467,0,32.314s14.467,32.314,32.314,32.314S64.628,50.16,64.628,32.314
		S50.16,0,32.314,0z M32.314,62.689c-16.749,0-30.375-13.626-30.375-30.375S15.565,1.939,32.314,1.939s30.375,13.626,30.375,30.375
		S49.063,62.689,32.314,62.689z"/>
	<path fill="#5F6062" d="M40.562,18.199c0.847-0.847,0.847-2.221,0-3.069l-0.176-0.176c-0.847-0.847-2.221-0.847-3.069,0
		L20.759,31.512c-0.424,0.424-0.424,1.111,0,1.534l16.558,16.558c0.848,0.847,2.222,0.847,3.069,0l0.176-0.176
		c0.847-0.847,0.847-2.221,0-3.069L27.249,33.046c-0.424-0.424-0.424-1.111,0-1.534L40.562,18.199z"/>

</svg>
