<?xml version="1.0" encoding="utf-8"?>
<!-- Generator: Adobe Illustrator 19.1.0, SVG Export Plug-In . SVG Version: 6.00 Build 0)  -->
<svg version="1.1" id="icons" xmlns="http://www.w3.org/2000/svg" xmlns:xlink="http://www.w3.org/1999/xlink" x="0px" y="0px"
	 viewBox="0 0 100 100" enable-background="new 0 0 100 100" xml:space="preserve">
<g>
	<path fill="#5F6062" d="M33,26.5h-2.7c-0.6,0-1-0.5-1-1V14.3c0-0.6,0.5-1,1-1H33c0.6,0,1,0.5,1,1v11.2C34.1,26.1,33.6,26.5,33,26.5
		z"/>
	<path fill="#5F6062" d="M69.4,26.5h-2.7c-0.6,0-1-0.5-1-1V14.3c0-0.6,0.5-1,1-1h2.7c0.6,0,1,0.5,1,1v11.2
		C70.4,26.1,70,26.5,69.4,26.5z"/>
	<path fill="#5F6062" d="M77.3,18h-4.5v6.1c0,2.6-2.1,4.7-4.7,4.7s-4.7-2.1-4.7-4.7V18H36.4v6.1c0,2.6-2.1,4.7-4.7,4.7
		S27,26.8,27,24.2V18h-4.5c-2.6,0-4.7,2.1-4.7,4.7v54.8c0,2.6,2.1,4.7,4.7,4.7h54.8c2.6,0,4.7-2.1,4.7-4.7V22.7
		C82,20.1,79.9,18,77.3,18z M72.8,68.4c0,1.6-1.3,2.8-2.8,2.8H29.8c-1.6,0-2.8-1.3-2.8-2.8V42.1c0-1.6,1.3-2.8,2.8-2.8H70
		c1.6,0,2.8,1.3,2.8,2.8V68.4z"/>
	<circle fill="#5F6062" cx="36.9" cy="49.2" r="2.8"/>
	<circle fill="#5F6062" cx="49.9" cy="49.2" r="2.8"/>
	<circle fill="#5F6062" cx="62.9" cy="49.2" r="2.8"/>
	<circle fill="#5F6062" cx="36.9" cy="61.3" r="2.8"/>
	<circle fill="#5F6062" cx="49.9" cy="61.3" r="2.8"/>
	<circle fill="#5F6062" cx="62.9" cy="61.3" r="2.8"/>
</g>
</svg>
