<?xml version="1.0" encoding="utf-8"?>
<!-- Generator: Adobe Illustrator 19.1.0, SVG Export Plug-In . SVG Version: 6.00 Build 0)  -->
<svg version="1.1" xmlns="http://www.w3.org/2000/svg" xmlns:xlink="http://www.w3.org/1999/xlink" x="0px" y="0px"
	 viewBox="0 0 100 100" enable-background="new 0 0 100 100" xml:space="preserve">
<g id="grid" display="none">
	<g display="inline">
		
			<line opacity="0.35" fill-rule="evenodd" clip-rule="evenodd" fill="none" stroke="#666666" stroke-width="0.5" x1="87" y1="7.4" x2="87" y2="92.6"/>
		
			<line opacity="0.35" fill-rule="evenodd" clip-rule="evenodd" fill="none" stroke="#666666" stroke-width="0.5" x1="7.4" y1="87" x2="92.6" y2="87"/>
		
			<line opacity="0.35" fill-rule="evenodd" clip-rule="evenodd" fill="none" stroke="#666666" stroke-width="0.5" x1="92.6" y1="7.4" x2="7.4" y2="92.6"/>
		
			<line opacity="0.35" fill-rule="evenodd" clip-rule="evenodd" fill="none" stroke="#666666" stroke-width="0.5" x1="92.6" y1="50" x2="7.4" y2="50"/>
		
			<line opacity="0.35" fill-rule="evenodd" clip-rule="evenodd" fill="none" stroke="#666666" stroke-width="0.5" x1="50" y1="7.4" x2="50" y2="92.6"/>
		
			<line opacity="0.35" fill-rule="evenodd" clip-rule="evenodd" fill="none" stroke="#666666" stroke-width="0.5" x1="92.6" y1="34.2" x2="7.4" y2="34.2"/>
		
			<line opacity="0.35" fill-rule="evenodd" clip-rule="evenodd" fill="none" stroke="#666666" stroke-width="0.5" x1="92.6" y1="65.8" x2="7.4" y2="65.8"/>
		
			<line opacity="0.35" fill-rule="evenodd" clip-rule="evenodd" fill="none" stroke="#666666" stroke-width="0.5" x1="34.2" y1="7.4" x2="34.2" y2="92.6"/>
		
			<line opacity="0.35" fill-rule="evenodd" clip-rule="evenodd" fill="none" stroke="#666666" stroke-width="0.5" x1="65.8" y1="7.4" x2="65.8" y2="92.6"/>
		
			<line opacity="0.35" fill-rule="evenodd" clip-rule="evenodd" fill="none" stroke="#666666" stroke-width="0.5" x1="13" y1="7.4" x2="13" y2="92.6"/>
		
			<line opacity="0.35" fill-rule="evenodd" clip-rule="evenodd" fill="none" stroke="#666666" stroke-width="0.5" x1="7.4" y1="13" x2="92.6" y2="13"/>
		
			<line opacity="0.35" fill-rule="evenodd" clip-rule="evenodd" fill="none" stroke="#666666" stroke-width="0.5" x1="7.4" y1="7.4" x2="92.6" y2="92.6"/>
		
			<rect x="17.8" y="17.8" fill-rule="evenodd" clip-rule="evenodd" fill="none" stroke="#FF0000" stroke-width="0.5" width="64.5" height="64.5"/>
		
			<rect x="22.5" y="13" fill-rule="evenodd" clip-rule="evenodd" fill="none" stroke="#FF0000" stroke-width="0.5" width="55" height="74"/>
		
			<rect x="13" y="22.5" fill-rule="evenodd" clip-rule="evenodd" fill="none" stroke="#FF0000" stroke-width="0.5" width="74" height="55"/>
		
			<rect x="22.5" y="13" fill-rule="evenodd" clip-rule="evenodd" fill="none" stroke="#FF0000" stroke-width="0.5" width="55" height="74"/>
	</g>
</g>
<g id="icons">
	<g>
		<path fill="#5F6062" d="M64.9,24.5c0.6,2.4,0.9,5,0.9,7.6c0,18.6-15.1,33.7-33.7,33.7c-2.6,0-5.1-0.3-7.6-0.9
			c-1.7-0.4-2.8,1.6-1.6,2.9c5.8,6,13.9,9.8,22.9,9.8c17.5,0,31.7-14.2,31.7-31.7c0-9-3.8-17.2-9.8-22.9
			C66.5,21.7,64.5,22.9,64.9,24.5z"/>
	</g>
</g>
</svg>
