<?xml version="1.0" encoding="utf-8"?>
<!-- Generator: Adobe Illustrator 19.1.0, SVG Export Plug-In . SVG Version: 6.00 Build 0)  -->
<svg version="1.1" xmlns="http://www.w3.org/2000/svg" xmlns:xlink="http://www.w3.org/1999/xlink" x="0px" y="0px"
	 viewBox="0 0 100 100" enable-background="new 0 0 100 100" xml:space="preserve">
<g id="grid" display="none">
	<g display="inline">
		
			<line opacity="0.35" fill-rule="evenodd" clip-rule="evenodd" fill="none" stroke="#666666" stroke-width="0.5" x1="87" y1="7.4" x2="87" y2="92.6"/>
		
			<line opacity="0.35" fill-rule="evenodd" clip-rule="evenodd" fill="none" stroke="#666666" stroke-width="0.5" x1="7.4" y1="87" x2="92.6" y2="87"/>
		
			<line opacity="0.35" fill-rule="evenodd" clip-rule="evenodd" fill="none" stroke="#666666" stroke-width="0.5" x1="92.6" y1="7.4" x2="7.4" y2="92.6"/>
		
			<line opacity="0.35" fill-rule="evenodd" clip-rule="evenodd" fill="none" stroke="#666666" stroke-width="0.5" x1="92.6" y1="50" x2="7.4" y2="50"/>
		
			<line opacity="0.35" fill-rule="evenodd" clip-rule="evenodd" fill="none" stroke="#666666" stroke-width="0.5" x1="50" y1="7.4" x2="50" y2="92.6"/>
		
			<line opacity="0.35" fill-rule="evenodd" clip-rule="evenodd" fill="none" stroke="#666666" stroke-width="0.5" x1="92.6" y1="34.2" x2="7.4" y2="34.2"/>
		
			<line opacity="0.35" fill-rule="evenodd" clip-rule="evenodd" fill="none" stroke="#666666" stroke-width="0.5" x1="92.6" y1="65.8" x2="7.4" y2="65.8"/>
		
			<line opacity="0.35" fill-rule="evenodd" clip-rule="evenodd" fill="none" stroke="#666666" stroke-width="0.5" x1="34.2" y1="7.4" x2="34.2" y2="92.6"/>
		
			<line opacity="0.35" fill-rule="evenodd" clip-rule="evenodd" fill="none" stroke="#666666" stroke-width="0.5" x1="65.8" y1="7.4" x2="65.8" y2="92.6"/>
		
			<line opacity="0.35" fill-rule="evenodd" clip-rule="evenodd" fill="none" stroke="#666666" stroke-width="0.5" x1="13" y1="7.4" x2="13" y2="92.6"/>
		
			<line opacity="0.35" fill-rule="evenodd" clip-rule="evenodd" fill="none" stroke="#666666" stroke-width="0.5" x1="7.4" y1="13" x2="92.6" y2="13"/>
		
			<line opacity="0.35" fill-rule="evenodd" clip-rule="evenodd" fill="none" stroke="#666666" stroke-width="0.5" x1="7.4" y1="7.4" x2="92.6" y2="92.6"/>
		
			<rect x="17.8" y="17.8" fill-rule="evenodd" clip-rule="evenodd" fill="none" stroke="#FF0000" stroke-width="0.5" width="64.5" height="64.5"/>
		
			<rect x="22.5" y="13" fill-rule="evenodd" clip-rule="evenodd" fill="none" stroke="#FF0000" stroke-width="0.5" width="55" height="74"/>
		
			<rect x="13" y="22.5" fill-rule="evenodd" clip-rule="evenodd" fill="none" stroke="#FF0000" stroke-width="0.5" width="74" height="55"/>
		
			<rect x="22.5" y="13" fill-rule="evenodd" clip-rule="evenodd" fill="none" stroke="#FF0000" stroke-width="0.5" width="55" height="74"/>
	</g>
</g>
<g id="icons">
	<g>
		<circle fill="#5F6062" cx="50" cy="49.9" r="22.1"/>
		<path fill="#5F6062" d="M80.3,48h-3c-1.1,0-1.9,0.9-1.9,1.9s0.9,1.9,1.9,1.9h3c1.1,0,1.9-0.9,1.9-1.9S81.4,48,80.3,48z"/>
		<path fill="#5F6062" d="M22.7,48h-3c-1.1,0-1.9,0.9-1.9,1.9s0.9,1.9,1.9,1.9h3c1.1,0,1.9-0.9,1.9-1.9S23.8,48,22.7,48z"/>
		<path fill="#5F6062" d="M50,24.6c1.1,0,1.9-0.9,1.9-1.9v-3c0-1.1-0.9-1.9-1.9-1.9c-1.1,0-1.9,0.9-1.9,1.9v3
			C48.1,23.7,48.9,24.6,50,24.6z"/>
		<path fill="#5F6062" d="M50,75.3c-1.1,0-1.9,0.9-1.9,1.9v3c0,1.1,0.9,1.9,1.9,1.9c1.1,0,1.9-0.9,1.9-1.9v-3
			C51.9,76.1,51.1,75.3,50,75.3z"/>
		<path fill="#5F6062" d="M70.6,67.9c-0.7-0.7-2-0.7-2.7,0v0c-0.7,0.7-0.7,2,0,2.7l2.1,2.1c0.7,0.7,2,0.7,2.7,0h0
			c0.7-0.7,0.7-2,0-2.7L70.6,67.9z"/>
		<path fill="#5F6062" d="M29.4,32c0.7,0.7,2,0.7,2.7,0c0.7-0.7,0.7-2,0-2.7l-2.1-2.1c-0.7-0.7-2-0.7-2.7,0l0,0
			c-0.7,0.7-0.7,2,0,2.7L29.4,32z"/>
		<path fill="#5F6062" d="M72.8,27.1c-0.7-0.7-2-0.7-2.7,0l-2.1,2.1c-0.7,0.7-0.7,2,0,2.7v0c0.7,0.7,2,0.7,2.7,0l2.1-2.1
			C73.5,29.1,73.5,27.9,72.8,27.1L72.8,27.1z"/>
		<path fill="#5F6062" d="M29.4,67.9L27.2,70c-0.7,0.7-0.7,2,0,2.7h0c0.7,0.7,2,0.7,2.7,0l2.1-2.1c0.7-0.7,0.7-2,0-2.7
			C31.3,67.1,30.1,67.1,29.4,67.9z"/>
	</g>
</g>
</svg>
