<?xml version="1.0" encoding="utf-8"?>
<!-- Generator: Adobe Illustrator 19.1.0, SVG Export Plug-In . SVG Version: 6.00 Build 0)  -->
<svg version="1.1" id="icons" xmlns="http://www.w3.org/2000/svg" xmlns:xlink="http://www.w3.org/1999/xlink" x="0px" y="0px"
	 viewBox="0 0 100 100" enable-background="new 0 0 100 100" xml:space="preserve">
<g>
	<path fill="#5F6062" d="M53.9,76.4c-3.5-5.9-3.3-10.8-2.5-13.9c1.1-4.1,3.9-7.4,7.4-9l0-2.5c0,0,2.6-2,3.4-8.2
		c1.6,0.5,3.3-2.4,3.4-3.9c0.1-1.5-0.2-5.5-2.2-5.1c0.4-3,0.7-5.8,0.5-7.2c-0.5-5.3-5.7-10.9-13.8-10.9c-8,0-13.2,5.6-13.8,10.9
		c-0.1,1.4,0.2,4.2,0.6,7.2c-2-0.4-2.3,3.6-2.2,5.1c0.1,1.5,1.8,4.4,3.4,3.9c0.8,6.2,3.4,8.2,3.4,8.2l-0.1,6.6c0,0-1.6,1-8.5,3.9
		c-6.9,2.9-11.9,4.9-14,8.1c-1.9,2.9-1.3,13.1-1.3,13.1H59C56.9,80.7,55.2,78.6,53.9,76.4z"/>
	<path fill="#5F6062" d="M71.4,87.4c-33.1-18.7-9.2-41.9,0-26.3C80.5,45.5,104.5,68.8,71.4,87.4z"/>
</g>
</svg>
