<?xml version="1.0" encoding="utf-8"?>
<!-- Generator: Adobe Illustrator 19.1.0, SVG Export Plug-In . SVG Version: 6.00 Build 0)  -->
<svg version="1.1" id="icons" xmlns="http://www.w3.org/2000/svg" xmlns:xlink="http://www.w3.org/1999/xlink" x="0px" y="0px"
	 viewBox="0 0 100 100" enable-background="new 0 0 100 100" xml:space="preserve">
<g>
	<path fill="#5F6062" d="M73.4,60.7L73.4,60.7c-2,0-3.7,1.6-3.7,3.7v6H29.3v-6c0-2-1.6-3.7-3.7-3.7h0c-2,0-3.7,1.6-3.7,3.7V76
		c0,0.9,0.7,1.6,1.6,1.6h51.8c0.9,0,1.6-0.7,1.6-1.6V64.4C77,62.4,75.4,60.7,73.4,60.7z"/>
	<path fill="#5F6062" d="M48.4,63.3c0.6,0.6,1.7,0.6,2.3,0l13.4-13.4c1.4-1.4,1.4-3.7,0-5.2l0,0c-1.4-1.4-3.7-1.4-5.2,0l-5.7,5.7
		V26.2c0-2-1.6-3.7-3.7-3.7h0c-2,0-3.7,1.6-3.7,3.7v24.2l-5.7-5.7c-1.4-1.4-3.7-1.4-5.2,0l0,0c-1.4,1.4-1.4,3.7,0,5.2L48.4,63.3z"/>
</g>
</svg>
