<?xml version="1.0" encoding="utf-8"?>
<!-- Generator: Adobe Illustrator 19.1.0, SVG Export Plug-In . SVG Version: 6.00 Build 0)  -->
<svg version="1.1" id="icons" xmlns="http://www.w3.org/2000/svg" xmlns:xlink="http://www.w3.org/1999/xlink" x="0px" y="0px"
	 viewBox="0 0 100 100" enable-background="new 0 0 100 100" xml:space="preserve">
<g>
	<path fill="#5F6062" d="M26.6,57.4c-4,0-7.3,3.3-7.3,7.3s3.3,7.3,7.3,7.3s7.3-3.3,7.3-7.3S30.6,57.4,26.6,57.4z M26.6,67.6
		c-1.6,0-2.9-1.3-2.9-2.9c0-1.6,1.3-2.9,2.9-2.9c1.6,0,2.9,1.3,2.9,2.9C29.5,66.3,28.2,67.6,26.6,67.6z"/>
	<path fill="#5F6062" d="M68.6,49.8L81,30.3v8.4c-0.6,0.3-1.1,1-1.1,1.7c0,0.7,0.4,1.4,1.1,1.7v1.7c0,0.4,0.3,0.7,0.7,0.8
		c0,0,0.1,0.1,0.1,0.1c0.5,0.2,0.8,0.6,0.8,1.1c0,0.4-0.1,0.7-0.3,1c-0.2,0.3-0.6,0.5-0.9,0.5c-0.4,0-0.7-0.1-1-0.3
		c-0.3-0.2-0.5-0.6-0.5-0.9c-0.1-0.5-0.5-0.8-1-0.8c-0.5,0.1-0.8,0.5-0.8,1c0.1,0.8,0.5,1.6,1.1,2.1c0.6,0.5,1.3,0.7,2,0.7
		c0.1,0,0.2,0,0.3,0c0.8-0.1,1.6-0.5,2.1-1.1c0.5-0.7,0.8-1.5,0.7-2.3c-0.1-1-0.7-1.9-1.6-2.4v-1.1c0.6-0.3,1.1-1,1.1-1.7
		c0-0.7-0.4-1.4-1.1-1.7V27.5l0.5-0.8l0,0c0.3-0.4,0.5-0.9,0.5-1.4c0-1.3-1-2.3-2.3-2.3c-0.7,0-1.3,0.3-1.7,0.8L53.6,45.9V32.6
		c0-0.5-0.4-0.9-0.9-0.9h-3c-0.5,0-0.9,0.4-0.9,0.9v17.2h-1.5v-5.7v-4.9c0-1-0.8-1.8-1.8-1.8h-1.8v-1.9c0-0.5-0.4-0.9-0.9-0.9h-3.1
		c-0.5,0-0.9,0.4-0.9,0.9v1.9h-6.4c-0.6,0-1.1,0.3-1.5,0.8l-3.7,5.5c-0.2,0.2-0.4,0.4-0.7,0.4h-6.3c-2.4,0-4.4,1.5-4.4,3.9v4.6V53
		v3.6h-2c-1,0-1.8,0.8-1.8,1.8v4.3c0,1,0.8,1.8,1.8,1.8h2h0.3c0.2,0,0.5,0,0.8,0c0.1-5.2,4.4-9.4,9.7-9.4c5.2,0,9.5,4.2,9.7,9.4
		c8.3,0,17.9,0,26.4,0c0.1-5.2,4.4-9.4,9.7-9.4c5.2,0,9.5,4.2,9.7,9.4c0.7,0,1.2,0,1.6,0h1.2c1.5,0,2.6-1.2,2.6-2.6v-3.3v-8.8H68.6z
		 M44.2,45H30c0,0,0,0,0,0l2.8-4.2c0.2-0.3,0.6-0.5,1-0.5H43c0.6,0,1.2,0.5,1.2,1.2V45z"/>
	<path fill="#5F6062" d="M72.3,57.4c-4,0-7.3,3.3-7.3,7.3s3.3,7.3,7.3,7.3c4,0,7.3-3.3,7.3-7.3S76.3,57.4,72.3,57.4z M72.3,67.6
		c-1.6,0-2.9-1.3-2.9-2.9c0-1.6,1.3-2.9,2.9-2.9c1.6,0,2.9,1.3,2.9,2.9C75.2,66.3,73.9,67.6,72.3,67.6z"/>
</g>
</svg>
