<?xml version="1.0" encoding="utf-8"?>
<!-- Generator: Adobe Illustrator 19.1.0, SVG Export Plug-In . SVG Version: 6.00 Build 0)  -->
<svg version="1.1" id="icons" xmlns="http://www.w3.org/2000/svg" xmlns:xlink="http://www.w3.org/1999/xlink" x="0px" y="0px"
	 viewBox="0 0 100 100" enable-background="new 0 0 100 100" xml:space="preserve">
<path fill="#5F6062" d="M80.7,69.2c-2.1-3.2-6.6-5.2-13.5-8.1c-6.8-2.9-8.5-3.8-8.5-3.8l-0.1-6.6c0,0,2.6-2,3.4-8.1
	c1.6,0.5,3.3-2.4,3.4-3.9c0.1-1.4-0.2-5.5-2.2-5.1c0.4-3,0.7-5.8,0.5-7.2c-0.5-5.3-5.7-10.8-13.7-10.8c-8,0-13.2,5.6-13.7,10.8
	c-0.1,1.4,0.2,4.2,0.6,7.2c-2-0.4-2.3,3.6-2.2,5.1c0.1,1.5,1.8,4.4,3.4,3.9c0.8,6.2,3.4,8.1,3.4,8.1l-0.1,6.6c0,0-1.6,1-8.5,3.8
	C26.2,64,21.2,66,19.1,69.2c-1.9,2.9-1.3,13.1-1.3,13.1H82C82,82.3,82.6,72.1,80.7,69.2z"/>
</svg>
