<?xml version="1.0" encoding="utf-8"?>
<!-- Generator: Adobe Illustrator 19.1.0, SVG Export Plug-In . SVG Version: 6.00 Build 0)  -->
<svg version="1.1" id="icons" xmlns="http://www.w3.org/2000/svg" xmlns:xlink="http://www.w3.org/1999/xlink" x="0px" y="0px"
	 viewBox="0 0 100 100" enable-background="new 0 0 100 100" xml:space="preserve">
<g>
	<path fill="#5F6062" d="M51.2,70.7c0-6.1,2.8-11.6,7.2-15.3l0-4.5c0,0,2.5-2,3.3-8.1c1.6,0.5,3.3-2.4,3.3-3.9
		c0.1-1.4-0.2-5.4-2.1-5c0.4-3,0.7-5.7,0.5-7.1c-0.5-5.2-5.6-10.7-13.6-10.7c-7.9,0-13,5.5-13.6,10.7c-0.1,1.4,0.2,4.1,0.5,7.1
		c-1.9-0.4-2.2,3.6-2.2,5c0.1,1.5,1.8,4.3,3.3,3.9c0.8,6.1,3.3,8.1,3.3,8.1l-0.1,6.5c0,0-1.6,1-8.4,3.8c-6.8,2.8-11.8,4.8-13.8,8
		c-1.8,2.8-1.3,12.9-1.3,12.9h37C52.5,78.9,51.2,75,51.2,70.7z"/>
	<g>
		<path fill="#5F6062" d="M71,54.2c-9.1,0-16.5,7.4-16.5,16.5S61.9,87.2,71,87.2s16.5-7.4,16.5-16.5S80.1,54.2,71,54.2z M71,58.3
			c5.8,0,10.8,4.1,12.1,9.5c-3.4-2.4-7.6-3.9-12.1-3.9c-4.5,0-8.7,1.4-12.1,3.9C60.3,62.3,65.2,58.3,71,58.3z M68,82.8
			c-4.6-1.1-8.2-4.8-9.2-9.4c0.6-0.1,1.2-0.2,1.8-0.2c4.2,0,7.6,3.4,7.6,7.6C68.3,81.5,68.2,82.1,68,82.8z M71,74.1
			c-1.9,0-3.4-1.5-3.4-3.4s1.5-3.4,3.4-3.4c1.9,0,3.4,1.5,3.4,3.4S72.9,74.1,71,74.1z M74,82.8c-0.2-0.6-0.3-1.3-0.3-2
			c0-4.2,3.4-7.6,7.6-7.6c0.6,0,1.2,0.1,1.8,0.2C82.1,78,78.6,81.6,74,82.8z"/>
	</g>
</g>
</svg>
