<?xml version="1.0" encoding="utf-8"?>
<!-- Generator: Adobe Illustrator 19.1.0, SVG Export Plug-In . SVG Version: 6.00 Build 0)  -->
<svg version="1.1" id="icons" xmlns="http://www.w3.org/2000/svg" xmlns:xlink="http://www.w3.org/1999/xlink" x="0px" y="0px"
	 viewBox="0 0 100 100" enable-background="new 0 0 100 100" xml:space="preserve">
<path fill="#5F6062" d="M67.4,15.2H34.4c-2.2,0-4,1.8-4,4v59.7c0,2.2,1.8,4,4,4h32.9c2.2,0,4-1.8,4-4V19.2
	C71.4,17,69.6,15.2,67.4,15.2z M51,77.3c-2,0-3.7-1.6-3.7-3.7c0-2,1.6-3.7,3.7-3.7c2,0,3.7,1.6,3.7,3.7C54.7,75.7,53,77.3,51,77.3z
	 M64.5,64.1c0,0.8-0.7,1.5-1.5,1.5H38.8c-0.8,0-1.5-0.7-1.5-1.5V23.7c0-0.8,0.7-1.5,1.5-1.5H63c0.8,0,1.5,0.7,1.5,1.5V64.1z"/>
</svg>
