<?xml version="1.0" encoding="utf-8"?>
<!-- Generator: Adobe Illustrator 19.1.0, SVG Export Plug-In . SVG Version: 6.00 Build 0)  -->
<svg version="1.1" id="icons" xmlns="http://www.w3.org/2000/svg" xmlns:xlink="http://www.w3.org/1999/xlink" x="0px" y="0px"
	 viewBox="0 0 100 100" enable-background="new 0 0 100 100" xml:space="preserve">
<g>
	<path fill="#5F6062" d="M50.1,78.3c-0.5,0-1-0.1-1.5-0.2c-1.6-0.3-3.1-1.1-4.8-2.3c-2.8-2.1-5.2-2.1-7.9,0c-4.4,3.2-7.9,3.2-12.3,0
		c-0.8-0.6-1.6-1-2.3-1.3c-0.9-0.3-1.5-1.2-1.5-2.2l0,0c0-1.6,1.6-2.7,3.1-2.2c1.1,0.4,2.2,1,3.3,1.8c2.7,2,4.2,2.3,7.2,0
		c0.8-0.6,1.6-1.1,2.4-1.4c0.8-0.4,1.6-0.6,2.4-0.8c0.5-0.1,0.9-0.1,1.4-0.1c0.6,0,1.2,0,1.8,0.1c0.4,0.1,0.8,0.2,1.2,0.3
		c0.8,0.2,1.6,0.6,2.4,1c0.5,0.3,1,0.6,1.5,1c0.7,0.5,1.4,1,2.2,1.3c0.4,0.2,0.9,0.3,1.3,0.3h0.1c0.5,0,0.9-0.1,1.3-0.3
		c0.8-0.3,1.5-0.8,2.2-1.3c0.5-0.4,1-0.7,1.5-1c0.8-0.4,1.5-0.8,2.4-1c0.4-0.1,0.8-0.2,1.2-0.3c0.6-0.1,1.2-0.1,1.8-0.1
		c0.5,0,0.9,0.1,1.4,0.1c0.8,0.2,1.7,0.4,2.4,0.8c0.9,0.4,1.7,0.9,2.4,1.4c3.1,2.3,4.6,2,7.2,0c1-0.8,2-1.3,2.9-1.7
		c1.5-0.6,3.2,0.5,3.2,2.1l0,0c0,0.9-0.6,1.8-1.4,2.1c-0.7,0.3-1.3,0.7-2.1,1.3c-4.4,3.2-7.9,3.2-12.3,0c-2.8-2.1-5.2-2.1-7.9,0
		c-1.6,1.2-3.2,2-4.8,2.3C51.1,78.3,50.6,78.3,50.1,78.3"/>
	<path fill="#5F6062" d="M48.6,23.8l-18.2,3.7c-1.7,0.3-3,1.6-3.5,3.3l-2.3,9l24-8.6V23.8z M70.3,27.5l-18.9-3.7v7.5l24.7,8.6
		l-2.3-9C73.3,29.2,72,27.9,70.3,27.5z M82.6,46.9L54.1,36.5c-4.3-1.9-8.1,0-8.1,0L17.5,46.9c0,0-4.7,1.3-1.5,5
		c2.4,2.7,11.4,11.9,15.9,16.5c0.4-0.2,0.9-0.6,1.4-0.9c0.8-0.6,1.6-1.1,2.4-1.4c0.8-0.4,1.6-0.6,2.4-0.8c0.5-0.1,0.9-0.1,1.4-0.1
		c0.6,0,1.2,0,1.8,0.1c0.4,0.1,0.8,0.2,1.2,0.3c0.8,0.2,1.6,0.6,2.4,1c0.5,0.3,1,0.6,1.5,1c0.7,0.5,1.4,1,2.2,1.3
		c0.4,0.2,0.9,0.3,1.3,0.3h0.1c0.5,0,0.9-0.1,1.3-0.3c0.8-0.3,1.5-0.8,2.2-1.3c0.5-0.4,1-0.7,1.5-1c0.8-0.4,1.5-0.8,2.4-1
		c0.4-0.1,0.8-0.2,1.2-0.3c0.6-0.1,1.2-0.1,1.8-0.1c0.5,0,0.9,0.1,1.4,0.1c0.8,0.2,1.7,0.4,2.4,0.8c0.9,0.4,1.7,0.9,2.4,1.4
		c0.5,0.4,1,0.7,1.5,1c4.5-4.6,13.4-13.9,15.8-16.6C87.3,48.3,82.6,46.9,82.6,46.9z"/>
</g>
</svg>
