<?xml version="1.0" encoding="utf-8"?>
<!-- Generator: Adobe Illustrator 19.1.0, SVG Export Plug-In . SVG Version: 6.00 Build 0)  -->
<svg version="1.1" id="icons" xmlns="http://www.w3.org/2000/svg" xmlns:xlink="http://www.w3.org/1999/xlink" x="0px" y="0px"
	 viewBox="0 0 100 100" enable-background="new 0 0 100 100" xml:space="preserve">
<path fill="#5F6062" d="M72.9,17.7H27.1c-2.6,0-4.8,2.1-4.8,4.8v55.4c0,2.6,2.1,4.8,4.8,4.8h45.8c2.6,0,4.8-2.1,4.8-4.8V22.5
	C77.7,19.9,75.6,17.7,72.9,17.7z M64.6,61.6c0,1.1-0.9,1.9-1.9,1.9H45.2c-1.1,0-1.9-0.9-1.9-1.9l0,0c0-1.1,0.9-1.9,1.9-1.9h17.5
	C63.7,59.7,64.6,60.6,64.6,61.6L64.6,61.6z M64.6,50.4c0,1.1-0.9,1.9-1.9,1.9H45.2c-1.1,0-1.9-0.9-1.9-1.9l0,0
	c0-1.1,0.9-1.9,1.9-1.9h17.5C63.7,48.5,64.6,49.4,64.6,50.4L64.6,50.4z M64.6,39.4c0,1.1-0.9,1.9-1.9,1.9H45.2
	c-1.1,0-1.9-0.9-1.9-1.9l0,0c0-1.1,0.9-1.9,1.9-1.9h17.5C63.7,37.4,64.6,38.3,64.6,39.4L64.6,39.4z M39.5,39.3
	c0,1.3-1.1,2.4-2.4,2.4s-2.4-1.1-2.4-2.4s1.1-2.4,2.4-2.4S39.5,38,39.5,39.3z M39.5,50.5c0,1.3-1.1,2.4-2.4,2.4s-2.4-1.1-2.4-2.4
	s1.1-2.4,2.4-2.4S39.5,49.2,39.5,50.5z M39.5,61.8c0,1.3-1.1,2.4-2.4,2.4s-2.4-1.1-2.4-2.4s1.1-2.4,2.4-2.4S39.5,60.5,39.5,61.8z"/>
</svg>
