<?xml version="1.0" encoding="utf-8"?>
<!-- Generator: Adobe Illustrator 19.1.0, SVG Export Plug-In . SVG Version: 6.00 Build 0)  -->
<svg version="1.1" id="icons" xmlns="http://www.w3.org/2000/svg" xmlns:xlink="http://www.w3.org/1999/xlink" x="0px" y="0px"
	 viewBox="0 0 100 100" enable-background="new 0 0 100 100" xml:space="preserve">
<g>
	<path fill="#5F6062" d="M27.6,57.2c-4.1,0-7.4,3.3-7.4,7.4s3.3,7.4,7.4,7.4s7.4-3.3,7.4-7.4S31.7,57.2,27.6,57.2z M27.6,67.5
		c-1.6,0-2.9-1.3-2.9-2.9c0-1.6,1.3-2.9,2.9-2.9c1.6,0,2.9,1.3,2.9,2.9C30.5,66.2,29.2,67.5,27.6,67.5z"/>
	<g>
		<path fill="#5F6062" d="M86.7,57.2v-6.7c0-1.6-1.3-2.9-2.9-2.9l-9.1,0l-2.3-4.6c-1.2-2.9-4-4.8-7.2-4.8H45.6
			c-2.1,0-4.1,0.7-5.8,1.9l-8.6,7.5h-9c-3.7,0-6.8,3-6.8,6.8v2.9h-0.1c-1.6,0-2.9,1.3-2.9,2.9v2.7c0,1.6,1.3,2.9,2.9,2.9h2.5
			c0-0.4-0.1-0.7-0.1-1.1c0-5.4,4.4-9.8,9.8-9.8s9.8,4.4,9.8,9.8c0,0.4,0,0.7-0.1,1.1h27.5c0-0.4-0.1-0.7-0.1-1.1
			c0-5.4,4.4-9.8,9.8-9.8c5.4,0,9.8,4.4,9.8,9.8c0,0.4,0,0.7-0.1,1.1h0.4c1.6,0,2.9-1.3,2.9-2.9v-4.6C87.7,57.6,87.2,57.2,86.7,57.2
			z M54.3,47.6H36.8l5-4.8c1.1-0.8,2.4-1.3,3.8-1.3h8.7V47.6z M57.3,47.6v-6h8c1.8,0,3.5,1.1,4.2,2.7l1.6,3.3H57.3z"/>
	</g>
	<path fill="#5F6062" d="M74.6,57.2c-4.1,0-7.4,3.3-7.4,7.4s3.3,7.4,7.4,7.4c4.1,0,7.4-3.3,7.4-7.4S78.7,57.2,74.6,57.2z M74.6,67.5
		c-1.6,0-2.9-1.3-2.9-2.9c0-1.6,1.3-2.9,2.9-2.9c1.6,0,2.9,1.3,2.9,2.9C77.5,66.2,76.2,67.5,74.6,67.5z"/>
</g>
</svg>
