<?xml version="1.0" encoding="utf-8"?>
<!-- Generator: Adobe Illustrator 19.1.0, SVG Export Plug-In . SVG Version: 6.00 Build 0)  -->
<svg version="1.1" id="icons" xmlns="http://www.w3.org/2000/svg" xmlns:xlink="http://www.w3.org/1999/xlink" x="0px" y="0px"
	 viewBox="0 0 100 100" enable-background="new 0 0 100 100" xml:space="preserve">
<path fill="#5F6062" d="M80.8,71.9L52.3,24.7c-1.1-1.8-3.6-1.8-4.7,0L19.2,71.9c-1.1,1.8,0.2,4.1,2.3,4.1h56.9
	C80.6,76,81.9,73.7,80.8,71.9z M52.8,66.2c0,1.5-1.2,2.8-2.8,2.8c-1.5,0-2.8-1.2-2.8-2.8v-0.1c0-1.5,1.2-2.8,2.8-2.8
	C51.5,63.4,52.8,64.6,52.8,66.2L52.8,66.2z M50,59.9L50,59.9c-1.2,0-2.3-1-2.3-2.2l-1-16.1c-0.1-1.3,1-2.5,2.3-2.5h1.9
	c1.3,0,2.4,1.1,2.3,2.5l-1,16.1C52.2,58.9,51.2,59.9,50,59.9z"/>
</svg>
