<?xml version="1.0" encoding="utf-8"?>
<!-- Generator: Adobe Illustrator 19.2.1, SVG Export Plug-In . SVG Version: 6.00 Build 0)  -->
<svg version="1.1" id="icons" xmlns="http://www.w3.org/2000/svg" xmlns:xlink="http://www.w3.org/1999/xlink" x="0px" y="0px"
	 viewBox="0 0 100 100" enable-background="new 0 0 100 100" xml:space="preserve">
<path fill="#5D5D5D" d="M44.6,56.9c0,0-3.6,1-10.4,3.8c-6.8,2.8-11.8,4.8-13.9,8c-1.8,2.9-1.3,13-1.3,13h63.8c0,0,0.5-10.1-1.3-13
	c-2.1-3.2-6.6-5.2-13.4-8c-6.8-2.8-10.4-3.8-10.4-3.8s-2.9,2.2-6.9,2.2S44.6,56.9,44.6,56.9z M64.3,36.3c0.4-3,0.7-5.7,0.5-7.1
	c-0.5-5.3-5.7-10.8-13.6-10.8c-7.9,0-13.1,5.5-13.6,10.8c-0.1,1.4,0.2,4.1,0.6,7.1l1.2,8.9c0.8,6.1,8.4,11,11.6,11s11.4-4.9,12.2-11
	L64.3,36.3z"/>
</svg>
