<?xml version="1.0" encoding="utf-8"?>
<!-- Generator: Adobe Illustrator 19.1.0, SVG Export Plug-In . SVG Version: 6.00 Build 0)  -->
<svg version="1.1" id="icons" xmlns="http://www.w3.org/2000/svg" xmlns:xlink="http://www.w3.org/1999/xlink" x="0px" y="0px"
	 viewBox="0 0 100 100" enable-background="new 0 0 100 100" xml:space="preserve">
<g>
	<path fill="#5F6062" d="M51.2,70.6c0-6.1,2.8-11.6,7.2-15.3l0-4.5c0,0,2.5-2,3.3-8.1c1.6,0.5,3.3-2.4,3.3-3.9
		c0.1-1.4-0.2-5.4-2.1-5c0.4-3,0.7-5.7,0.5-7.1c-0.5-5.2-5.7-10.7-13.6-10.7c-7.9,0-13.1,5.5-13.6,10.7c-0.1,1.4,0.2,4.1,0.5,7.1
		c-1.9-0.4-2.2,3.6-2.2,5c0.1,1.5,1.8,4.3,3.4,3.9c0.8,6.1,3.3,8.1,3.3,8.1l-0.1,6.5c0,0-1.6,1-8.4,3.8c-6.8,2.8-11.8,4.8-13.8,8
		C17.2,71.9,17.8,82,17.8,82h37.1C52.6,78.8,51.2,74.8,51.2,70.6z"/>
	<path fill="#5F6062" d="M71.1,54.1c-9.1,0-16.4,7.4-16.4,16.4C54.6,79.6,62,87,71.1,87c9.1,0,16.4-7.4,16.4-16.4
		C87.5,61.5,80.1,54.1,71.1,54.1z M78,77.8L78,77.8c-0.6,0.6-1.5,0.6-2,0l-6.3-6.3h0V59.2c0-0.8,0.6-1.4,1.4-1.4h0
		c0.8,0,1.4,0.6,1.4,1.4v10.5c0,0.4,0.2,0.7,0.4,1l5.1,5.1C78.6,76.4,78.6,77.3,78,77.8z"/>
</g>
</svg>
