<?xml version="1.0" encoding="utf-8"?>
<!-- Generator: Adobe Illustrator 19.1.0, SVG Export Plug-In . SVG Version: 6.00 Build 0)  -->
<svg version="1.1" id="icons" xmlns="http://www.w3.org/2000/svg" xmlns:xlink="http://www.w3.org/1999/xlink" x="0px" y="0px"
	 viewBox="0 0 100 100" enable-background="new 0 0 100 100" xml:space="preserve">
<g>
	<path fill="#5F6062" d="M42,17.6H21.7c-2.4,0-4.3,1.9-4.3,4.3v20.3c0,2.4,1.9,4.3,4.3,4.3H42c2.4,0,4.3-1.9,4.3-4.3V21.9
		C46.3,19.5,44.4,17.6,42,17.6z"/>
	<path fill="#5F6062" d="M77.8,17.6H57.5c-2.4,0-4.3,1.9-4.3,4.3v20.3c0,2.4,1.9,4.3,4.3,4.3h20.3c2.4,0,4.3-1.9,4.3-4.3V21.9
		C82.1,19.5,80.2,17.6,77.8,17.6z"/>
	<path fill="#5F6062" d="M42,53.4H21.7c-2.4,0-4.3,1.9-4.3,4.3V78c0,2.4,1.9,4.3,4.3,4.3H42c2.4,0,4.3-1.9,4.3-4.3V57.7
		C46.3,55.3,44.4,53.4,42,53.4z"/>
	<path fill="#5F6062" d="M77.8,53.4H57.5c-2.4,0-4.3,1.9-4.3,4.3V78c0,2.4,1.9,4.3,4.3,4.3h20.3c2.4,0,4.3-1.9,4.3-4.3V57.7
		C82.1,55.3,80.2,53.4,77.8,53.4z"/>
</g>
</svg>
