<?xml version="1.0" encoding="utf-8"?>
<!-- Generator: Adobe Illustrator 19.1.0, SVG Export Plug-In . SVG Version: 6.00 Build 0)  -->
<svg version="1.1" id="icons" xmlns="http://www.w3.org/2000/svg" xmlns:xlink="http://www.w3.org/1999/xlink" x="0px" y="0px"
	 viewBox="0 0 100 100" enable-background="new 0 0 100 100" xml:space="preserve">
<g>
	<path fill="#5F6062" d="M81.2,49.9c-2.6,1.4-5.5,2.3-8.7,2.4c1.1,0.8,1.8,2.2,1.8,3.6c0,2.5-2.1,4.6-4.6,4.6
		c-2.5,0-4.6-2.1-4.6-4.6c0-1.7,1-3.2,2.4-4c-5-1.1-9.3-4-12.1-8.1H29.4c-0.8,0-1.4-0.8-1.1-1.6l3.6-9.8c0.7-1.8,2.4-3,4.3-3h16.2
		c0.3-1.6,0.7-3.1,1.3-4.5H36.1c-3.8,0-7.2,2.4-8.5,5.9l-6.1,16.6c-1.9,2-3.8,4.4-3.9,6.1h0v18.3c0,0.1,0,0.2,0,0.3v5.1
		c0,2.7,2.2,4.8,4.8,4.8h1.4c2.7,0,4.8-2.2,4.8-4.8v-3.3h43.4v3.3c0,2.7,2.2,4.8,4.8,4.8h1.4c2.7,0,4.8-2.2,4.8-4.8v-5.4v0V53.5h0
		C83.1,52.6,82.3,51.2,81.2,49.9z M30.7,60.5c-2.5,0-4.6-2.1-4.6-4.6c0-2.5,2.1-4.6,4.6-4.6c2.5,0,4.6,2.1,4.6,4.6
		C35.2,58.4,33.1,60.5,30.7,60.5z"/>
	<path fill="#5F6062" d="M71.7,16.4c-9,0-16.3,7.3-16.3,16.3s7.3,16.3,16.3,16.3c9,0,16.3-7.3,16.3-16.3S80.7,16.4,71.7,16.4z
		 M81.7,28L70,39.8c-0.3,0.3-0.7,0.4-1.1,0.4l0,0c-0.4,0-0.8-0.2-1.1-0.5l-5.7-5.9c-0.6-0.6-0.6-1.5,0-2.1c0.6-0.6,1.5-0.6,2.1,0
		l4.6,4.8l10.6-10.7c0.6-0.6,1.5-0.6,2.1,0C82.3,26.5,82.3,27.4,81.7,28z"/>
</g>
</svg>
