<?xml version="1.0" encoding="utf-8"?>
<!-- Generator: Adobe Illustrator 19.1.0, SVG Export Plug-In . SVG Version: 6.00 Build 0)  -->
<svg version="1.1" id="icons" xmlns="http://www.w3.org/2000/svg" xmlns:xlink="http://www.w3.org/1999/xlink" x="0px" y="0px"
	 viewBox="0 0 100 100" enable-background="new 0 0 100 100" xml:space="preserve">
<g>
	<path fill="#5F6062" d="M75.5,28.3h-6.4c-0.1,2.4-2,4.3-4.5,4.3c-2.4,0-4.4-1.9-4.5-4.3H39.3c-0.1,2.4-2,4.3-4.5,4.3
		c-2.4,0-4.4-1.9-4.5-4.3h-6.5c-2.5,0-4.5,2-4.5,4.5v47.2c0,2.5,2,4.5,4.5,4.5h51.6c2.5,0,4.5-2,4.5-4.5V32.7
		C80,30.3,78,28.3,75.5,28.3z M44.8,70.4c-0.9,0-1.8-0.4-2.4-1L33,59.7c-1.3-1.3-1.2-3.5,0.1-4.7c0.6-0.6,1.5-0.9,2.3-0.9
		c0.9,0,1.8,0.4,2.4,1l7,7.2l16.8-16.9c0.6-0.6,1.5-1,2.4-1c0.9,0,1.7,0.3,2.4,1c0.6,0.6,1,1.5,1,2.4c0,0.9-0.3,1.7-1,2.4L47.2,69.4
		C46.6,70,45.7,70.4,44.8,70.4L44.8,70.4z"/>
	<path fill="#5F6062" d="M64.7,30.4c-1.2,0-2.2-1-2.2-2.2c0-7-5.7-12.7-12.7-12.7s-12.7,5.7-12.7,12.7c0,1.2-1,2.2-2.2,2.2
		s-2.2-1-2.2-2.2c0-9.4,7.7-17.1,17.1-17.1c9.4,0,17.1,7.7,17.1,17.1C66.9,29.4,65.9,30.4,64.7,30.4z"/>
</g>
</svg>
