<?xml version="1.0" encoding="utf-8"?>
<!-- Generator: Adobe Illustrator 19.1.0, SVG Export Plug-In . SVG Version: 6.00 Build 0)  -->
<svg version="1.1" id="icons" xmlns="http://www.w3.org/2000/svg" xmlns:xlink="http://www.w3.org/1999/xlink" x="0px" y="0px"
	 viewBox="0 0 100 100" enable-background="new 0 0 100 100" xml:space="preserve">
<g>
	<path fill="#FFFFFF" d="M78.3,26.5c1.3,0,2.4,1.1,2.4,2.4v42.3c0,1.3-1.1,2.4-2.4,2.4H21.7c-1.3,0-2.4-1.1-2.4-2.4V28.9
		c0-1.3,1.1-2.4,2.4-2.4H78.3"/>
	<g>
		<g>
			<g>
				<path fill="#221F1F" d="M26.9,41.5h-2.4v8.2h2.3c1.2,0,2.1-0.3,2.9-0.9c0.9-0.8,1.5-1.9,1.5-3.2C31.3,43.2,29.5,41.5,26.9,41.5z
					 M28.8,47.7c-0.5,0.5-1.2,0.7-2.2,0.7h-0.4v-5.4h0.4c1,0,1.7,0.2,2.2,0.7c0.6,0.5,0.9,1.3,0.9,2C29.7,46.4,29.3,47.2,28.8,47.7z
					"/>
				<rect x="32.1" y="41.5" fill="#221F1F" width="1.6" height="8.2"/>
				<path fill="#221F1F" d="M37.6,44.7c-1-0.4-1.2-0.6-1.2-1c0-0.5,0.5-0.9,1.2-0.9c0.5,0,0.9,0.2,1.3,0.7l0.8-1.1
					c-0.7-0.6-1.5-0.9-2.4-0.9c-1.5,0-2.6,1-2.6,2.4c0,1.1,0.5,1.7,2,2.3c0.6,0.2,0.9,0.4,1.1,0.5c0.3,0.2,0.5,0.5,0.5,0.9
					c0,0.7-0.5,1.2-1.2,1.2c-0.8,0-1.4-0.4-1.7-1.1l-1,1c0.7,1.1,1.6,1.6,2.8,1.6c1.7,0,2.8-1.1,2.8-2.7
					C39.9,45.9,39.4,45.4,37.6,44.7z"/>
				<path fill="#221F1F" d="M40.4,45.6c0,2.4,1.9,4.3,4.3,4.3c0.7,0,1.3-0.1,2-0.5v-1.9c-0.6,0.6-1.2,0.9-1.9,0.9
					c-1.6,0-2.8-1.2-2.8-2.8c0-1.6,1.2-2.8,2.7-2.8c0.8,0,1.3,0.3,2,0.9v-1.9c-0.7-0.4-1.3-0.5-2-0.5C42.4,41.3,40.4,43.3,40.4,45.6
					z"/>
				<polygon fill="#221F1F" points="59.5,47.1 57.3,41.5 55.6,41.5 59,50 59.9,50 63.5,41.5 61.7,41.5 				"/>
				<polygon fill="#221F1F" points="64.2,49.7 68.7,49.7 68.7,48.4 65.8,48.4 65.8,46.1 68.6,46.1 68.6,44.7 65.8,44.7 65.8,42.9 
					68.7,42.9 68.7,41.5 64.2,41.5 				"/>
				<path fill="#221F1F" d="M75.1,44c0-1.5-1.1-2.4-2.9-2.4h-2.4v8.2h1.6v-3.3h0.2l2.2,3.3h2l-2.6-3.5C74.4,46,75.1,45.2,75.1,44z
					 M71.9,45.3h-0.5v-2.5h0.5c1,0,1.5,0.4,1.5,1.2C73.4,44.9,72.9,45.3,71.9,45.3z"/>
				<g>
					<g>
						<circle fill="#F38020" cx="51.7" cy="45.7" r="4.4"/>
					</g>
				</g>
				<g>
					<path fill="#221F1F" d="M76.1,41.8c0-0.1-0.1-0.2-0.3-0.2h-0.2v0.7h0.2v-0.3l0.2,0.3h0.2L75.9,42C76,42,76.1,41.9,76.1,41.8z
						 M75.8,41.9L75.8,41.9l0-0.2h0c0.1,0,0.1,0,0.1,0.1C75.9,41.9,75.9,41.9,75.8,41.9z"/>
					<path fill="#221F1F" d="M75.9,41.3c-0.4,0-0.6,0.3-0.6,0.6c0,0.3,0.3,0.6,0.6,0.6c0.3,0,0.6-0.3,0.6-0.6
						C76.5,41.6,76.2,41.3,75.9,41.3z M75.9,42.5c-0.3,0-0.5-0.2-0.5-0.5c0-0.3,0.2-0.5,0.5-0.5c0.3,0,0.5,0.2,0.5,0.5
						C76.4,42.3,76.1,42.5,75.9,42.5z"/>
				</g>
			</g>
		</g>
		<path fill="#F38020" d="M78.3,73.5c1.3,0,2.4-1.1,2.4-2.4V58.8c-4.4,2.7-17.6,10-38.6,14.7H78.3z"/>
		<path fill="#5F6062" d="M78.3,26.5c1.3,0,2.4,1.1,2.4,2.4v42.3c0,1.3-1.1,2.4-2.4,2.4H21.7c-1.3,0-2.4-1.1-2.4-2.4V28.9
			c0-1.3,1.1-2.4,2.4-2.4H78.3 M78.3,24.7H21.7c-2.3,0-4.2,1.9-4.2,4.2v42.3c0,2.3,1.9,4.2,4.2,4.2h56.7c2.3,0,4.2-1.9,4.2-4.2V28.9
			C82.5,26.6,80.7,24.7,78.3,24.7L78.3,24.7z"/>
	</g>
</g>
</svg>
