<?xml version="1.0" encoding="utf-8"?>
<!-- Generator: Adobe Illustrator 19.1.0, SVG Export Plug-In . SVG Version: 6.00 Build 0)  -->
<svg version="1.1" id="icons" xmlns="http://www.w3.org/2000/svg" xmlns:xlink="http://www.w3.org/1999/xlink" x="0px" y="0px"
	 viewBox="0 0 100 100" enable-background="new 0 0 100 100" xml:space="preserve">
<path fill="#5F6062" d="M21.6,46.2h47L58.5,36c-1.5-1.5-1.5-3.9,0-5.4l0,0c1.5-1.5,3.9-1.5,5.4,0l17.6,17.6c0.9,0.9,0.9,2.4,0,3.4
	L63.8,69.3c-1.5,1.5-3.9,1.5-5.4,0l0,0c-1.5-1.5-1.5-3.9,0-5.4l10.2-10.2h-47c-2.1,0-3.8-1.7-3.8-3.8v0
	C17.8,47.9,19.5,46.2,21.6,46.2z"/>
</svg>
