<?xml version="1.0" encoding="utf-8"?>
<!-- Generator: Adobe Illustrator 19.1.0, SVG Export Plug-In . SVG Version: 6.00 Build 0)  -->
<svg version="1.1" id="icons" xmlns="http://www.w3.org/2000/svg" xmlns:xlink="http://www.w3.org/1999/xlink" x="0px" y="0px"
	 viewBox="0 0 100 100" enable-background="new 0 0 100 100" xml:space="preserve">
<g>
	<path fill="#5F6062" d="M21.6,80.1c-0.9,0-1.7-0.8-1.7-1.7V61.7c0-1.9,1.5-3.4,3.4-3.4s3.4,1.5,3.4,3.4v6.6l12.9-12.9
		c0.6-0.6,1.5-1,2.4-1c0.9,0,1.8,0.4,2.4,1c0.6,0.6,1,1.5,1,2.4s-0.4,1.8-1,2.4L31.7,73.2l6.6,0c1.9,0,3.4,1.5,3.4,3.4
		s-1.5,3.4-3.4,3.4L21.6,80.1z"/>
	<path fill="#5F6062" d="M57.8,45.6c-0.9,0-1.8-0.4-2.4-1c-1.3-1.3-1.3-3.5,0-4.9l12.9-12.9h-6.6c-1.9,0-3.4-1.5-3.4-3.4
		s1.5-3.4,3.4-3.4l16.7,0c0.9,0,1.7,0.8,1.7,1.7v14.7c0,1.9-1.5,3.4-3.4,3.4s-3.4-1.5-3.4-3.4v-4.6L60.2,44.6
		C59.6,45.3,58.7,45.6,57.8,45.6z"/>
	<path fill="#5F6062" d="M42.2,45.6c-0.9,0-1.8-0.4-2.4-1L26.8,31.7v4.6c0,1.9-1.5,3.4-3.4,3.4s-3.4-1.5-3.4-3.4l0-14.7
		c0-0.9,0.8-1.7,1.7-1.7h16.7c1.9,0,3.4,1.5,3.4,3.4s-1.5,3.4-3.4,3.4h-6.6l12.9,12.9c0.6,0.6,1,1.5,1,2.4c0,0.9-0.4,1.8-1,2.4
		C43.9,45.3,43.1,45.6,42.2,45.6z"/>
	<path fill="#5F6062" d="M61.7,80.1c-1.9,0-3.4-1.5-3.4-3.4c0-1.9,1.5-3.4,3.4-3.4h6.6L55.4,60.3c-0.6-0.6-1-1.5-1-2.4
		s0.4-1.8,1-2.4s1.5-1,2.4-1s1.8,0.4,2.4,1l12.9,12.9l0-6.6c0-1.9,1.5-3.4,3.4-3.4s3.4,1.5,3.4,3.4l0,16.7c0,0.9-0.8,1.7-1.7,1.7
		H61.7z"/>
</g>
</svg>
