<?xml version="1.0" encoding="utf-8"?>
<!-- Generator: Adobe Illustrator 19.1.0, SVG Export Plug-In . SVG Version: 6.00 Build 0)  -->
<svg version="1.1" id="icons" xmlns="http://www.w3.org/2000/svg" xmlns:xlink="http://www.w3.org/1999/xlink" x="0px" y="0px"
	 viewBox="0 0 100 100" enable-background="new 0 0 100 100" xml:space="preserve">
<g>
	<g>
		<g>
			<path fill="#1A95D0" d="M78.3,24.7H21.7c-2.3,0-4.2,1.9-4.2,4.2v42.3c0,2.3,1.9,4.2,4.2,4.2h56.7c2.3,0,4.2-1.9,4.2-4.2V28.9
				C82.5,26.6,80.7,24.7,78.3,24.7z"/>
		</g>
	</g>
	<path fill="#FFFFFF" d="M77.4,55.9h-4.6l-3.1-3.5l-3.1,3.5H55.4V43.8h11.5l2.9,3.3l3-3.3h4.7l-5.4,5.9L77.4,55.9z M73.2,55.1h2.4
		L71,49.7l4.6-5.1h-2.4l-3.4,3.7l-3.3-3.7H56.2v10.5h10l3.5-4L73.2,55.1z M52.6,55.9H49v-6.7l-3.1,6.7h-3.1l-3-6.8v6.8h-6.3
		l-1.1-2.5h-5l-1.1,2.5h-3.8l5.3-12.1H32l4.2,7.8v-7.8h5l3.1,7l3.1-7h5.1V55.9z M49.8,55.1h1.9V44.6H48l-3.7,8.2l-3.7-8.2H37v10.3
		l-5.5-10.3h-3.1l-4.6,10.5h2l1.1-2.5H33l1.1,2.5H39v-10l4.4,10h2l4.5-9.7V55.1z M65.1,53.6h-7v-3.1h6.1v-1.3h-6.1v-3l7.4,0l3.1,3.5
		L65.1,53.6z M59,52.7h5.8l2.7-3l-2.3-2.6l-6.1,0v1.3h6.1v3H59V52.7z M32.2,51h-4.7l2.3-5.4L32.2,51z M28.9,50.1H31l-1.1-2.5
		L28.9,50.1z"/>
</g>
</svg>
