<?xml version="1.0" encoding="utf-8"?>
<!-- Generator: Adobe Illustrator 19.1.0, SVG Export Plug-In . SVG Version: 6.00 Build 0)  -->
<svg version="1.1" id="icons" xmlns="http://www.w3.org/2000/svg" xmlns:xlink="http://www.w3.org/1999/xlink" x="0px" y="0px"
	 viewBox="0 0 100 100" enable-background="new 0 0 100 100" xml:space="preserve">
<g>
	<path fill="#5F6062" d="M79.1,68.4H20.9c-0.6,0-1-0.5-1-1v-2.7c0-0.6,0.5-1,1-1h58.2c0.6,0,1,0.5,1,1v2.7
		C80.1,67.9,79.7,68.4,79.1,68.4z"/>
	<path fill="#5F6062" d="M81.5,75.5h-63c-0.6,0-1-0.5-1-1v-2.7c0-0.6,0.5-1,1-1h63c0.6,0,1,0.5,1,1v2.7
		C82.5,75.1,82.1,75.5,81.5,75.5z"/>
	<g>
		<path fill="#5F6062" d="M23.4,45L23.4,45c0.8,0.3,1.2,1,1.2,1.8v9c0,0.8-0.5,1.5-1.2,1.7l-0.1,0c-0.7,0.3-1.2,1-1.2,1.7v0
			c0,1,0.8,1.9,1.9,1.9h7.7c1,0,1.9-0.8,1.9-1.9v0c0-0.8-0.5-1.5-1.2-1.7l-0.1,0c-0.7-0.3-1.2-1-1.2-1.7v-9c0-0.8,0.5-1.5,1.2-1.7
			l0.1,0c0.7-0.3,1.2-1,1.2-1.7l0,0c0-1-0.8-1.9-1.9-1.9h-7.7c-1,0-1.9,0.8-1.9,1.9l0,0C22.3,44,22.7,44.7,23.4,45z"/>
		<path fill="#5F6062" d="M45.4,45L45.4,45c0.8,0.3,1.2,1,1.2,1.8v9c0,0.8-0.5,1.5-1.2,1.7l-0.1,0c-0.7,0.3-1.2,1-1.2,1.7v0
			c0,1,0.8,1.9,1.9,1.9h7.7c1,0,1.9-0.8,1.9-1.9v0c0-0.8-0.5-1.5-1.2-1.7l-0.1,0c-0.7-0.3-1.2-1-1.2-1.7v-9c0-0.8,0.5-1.5,1.2-1.7
			l0.1,0c0.7-0.3,1.2-1,1.2-1.7l0,0c0-1-0.8-1.9-1.9-1.9h-7.7c-1,0-1.9,0.8-1.9,1.9l0,0C44.2,44,44.7,44.7,45.4,45z"/>
		<path fill="#5F6062" d="M77.7,43.2L77.7,43.2c0-1-0.8-1.9-1.9-1.9h-7.7c-1,0-1.9,0.8-1.9,1.9l0,0c0,0.8,0.5,1.5,1.2,1.7l0.1,0
			c0.7,0.3,1.2,1,1.2,1.7v9c0,0.8-0.5,1.5-1.2,1.7l-0.1,0c-0.7,0.3-1.2,1-1.2,1.7v0c0,1,0.8,1.9,1.9,1.9h7.7c1,0,1.9-0.8,1.9-1.9v0
			c0-0.8-0.5-1.5-1.2-1.7l-0.1,0c-0.7-0.3-1.2-1-1.2-1.7v-9c0-0.8,0.5-1.5,1.2-1.7l0.1,0C77.3,44.7,77.7,44,77.7,43.2z"/>
	</g>
	<path fill="#5F6062" d="M81.9,34.9L50.3,24.5c-0.2-0.1-0.5-0.1-0.8,0L18.3,34.9c-0.1,0-0.2,0.1-0.2,0.1c-0.2,0.1-0.3,0.3-0.4,0.5
		c-0.1,0.1-0.1,0.3-0.1,0.4V37c0,1.1,0.9,1.9,1.9,1.9h61c1.1,0,1.9-0.9,1.9-1.9v-1c0-0.1,0-0.1,0-0.2C82.5,35.5,82.3,35.1,81.9,34.9
		z"/>
</g>
</svg>
