<?xml version="1.0" encoding="utf-8"?>
<!-- Generator: Adobe Illustrator 19.1.0, SVG Export Plug-In . SVG Version: 6.00 Build 0)  -->
<svg version="1.1" id="icons" xmlns="http://www.w3.org/2000/svg" xmlns:xlink="http://www.w3.org/1999/xlink" x="0px" y="0px"
	 viewBox="0 0 100 100" enable-background="new 0 0 100 100" xml:space="preserve">
<g>
	<path fill="#5F6062" d="M49.8,79.9c-2.6,0-4.8-2.2-4.8-4.8c0-2.6,2.2-4.8,4.8-4.8c2.6,0,4.8,2.2,4.8,4.8
		C54.6,77.7,52.4,79.9,49.8,79.9z"/>
	<path fill="#5F6062" d="M49.7,67.3c-2.2,0-4-1.8-4-4v-3.8c0-1.9,0.7-4.6,4.1-7c1.6-1.1,3.2-1.7,3.4-1.8l0.2-0.1
		c4.8-1.6,7.9-6,7.9-11c0-6.4-5.2-11.6-11.6-11.6s-11.6,5.2-11.6,11.6c0,2.2-1.8,4-4,4c-2.2,0-4-1.8-4-4c0-5.2,2-10.1,5.7-13.8
		c3.7-3.7,8.6-5.7,13.8-5.7s10.1,2,13.8,5.7c3.7,3.7,5.7,8.6,5.7,13.8c0,4.2-1.3,8.2-3.8,11.6c-2.4,3.3-5.7,5.7-9.5,7
		c-0.9,0.4-1.9,1-2.2,1.4v3.6C53.7,65.5,51.9,67.3,49.7,67.3z"/>
</g>
</svg>
