<?xml version="1.0" encoding="utf-8"?>
<!-- Generator: Adobe Illustrator 19.1.0, SVG Export Plug-In . SVG Version: 6.00 Build 0)  -->
<svg version="1.1" id="icons" xmlns="http://www.w3.org/2000/svg" xmlns:xlink="http://www.w3.org/1999/xlink" x="0px" y="0px"
	 viewBox="0 0 100 100" enable-background="new 0 0 100 100" xml:space="preserve">
<g>
	<path fill="#5F6062" d="M85.5,48.6L79,42.9v1.9c0,2.8-2.2,5-5,5H52.2c-2.8,0-5-2.2-5-5v-20c0-2.4,1.7-4.4,3.9-4.9
		c0-0.5,0.1-1,0.2-1.5L50.8,18c-0.9-0.8-2.3-0.8-3.2,0L12.9,48.6c-1,0.9-1.1,2.4-0.2,3.5c0.9,1,2.4,1.1,3.5,0.2l2.8-2.5v29.8
		c0,1.5,1.2,2.7,2.7,2.7h55.1c1.5,0,2.7-1.2,2.7-2.7V49.8l2.9,2.6c0.5,0.4,1,0.6,1.6,0.6c0.7,0,1.4-0.3,1.8-0.8
		C86.7,51.1,86.6,49.5,85.5,48.6z M42.4,76.4c0,0.7-0.6,1.3-1.3,1.3H30.3c-0.7,0-1.3-0.6-1.3-1.3V50.8c0-0.7,0.6-1.3,1.3-1.3h10.8
		c0.7,0,1.3,0.6,1.3,1.3V76.4z"/>
	<path id="path-1_2_" fill="#5F6062" d="M74,46.7H52.2c-1.1,0-1.9-0.9-1.9-1.9v-20c0-1.1,0.9-1.9,1.9-1.9H74c1.1,0,1.9,0.9,1.9,1.9
		v20C76,45.9,75.1,46.7,74,46.7z M66.3,30.7c-0.6-1.1-1.9-1.9-3.3-1.9c-1.4,0-2.6,0.8-3.2,1.9c-0.3,0.5-0.5,1.1-0.5,1.7
		c0,1.5,0.9,2.8,2.2,3.4v4.3c0,0.5,0.4,1,1,1h1.1c0.5,0,1-0.4,1-1v-4.3c1.3-0.6,2.2-1.9,2.2-3.4C66.8,31.9,66.6,31.3,66.3,30.7z
		 M69,20.5c0-3.2-2.6-5.8-5.8-5.8H63c-3.2,0-5.8,2.6-5.8,5.8v0h-3.1v0c0-2.4,0.9-4.6,2.6-6.3c1.7-1.7,3.9-2.6,6.3-2.6h0.1
		c2.4,0,4.6,0.9,6.3,2.6c1.7,1.7,2.6,3.9,2.6,6.3v0v0L69,20.5L69,20.5z"/>
</g>
</svg>
