<?xml version="1.0" encoding="utf-8"?>
<!-- Generator: Adobe Illustrator 19.1.0, SVG Export Plug-In . SVG Version: 6.00 Build 0)  -->
<svg version="1.1" id="icons" xmlns="http://www.w3.org/2000/svg" xmlns:xlink="http://www.w3.org/1999/xlink" x="0px" y="0px"
	 viewBox="0 0 100 100" enable-background="new 0 0 100 100" xml:space="preserve">
<g>
	<path fill="#221F1F" d="M20.4,44.8h-2.9v10.3h2.9c1.6,0,2.7-0.4,3.7-1.2c1.2-1,1.9-2.4,1.9-4C25.9,46.9,23.7,44.8,20.4,44.8z
		 M22.8,52.6c-0.6,0.6-1.5,0.8-2.7,0.8h-0.5v-6.8H20c1.3,0,2.1,0.2,2.7,0.8c0.7,0.6,1.1,1.6,1.1,2.6C23.9,50.9,23.5,51.9,22.8,52.6z
		"/>
	<rect x="26.9" y="44.8" fill="#221F1F" width="2" height="10.3"/>
	<path fill="#221F1F" d="M33.8,48.8c-1.2-0.4-1.6-0.7-1.6-1.3c0-0.6,0.6-1.1,1.5-1.1c0.6,0,1.1,0.2,1.6,0.8l1.1-1.4
		c-0.9-0.8-1.9-1.1-3-1.1c-1.8,0-3.2,1.3-3.2,2.9c0,1.4,0.6,2.1,2.5,2.8c0.8,0.3,1.2,0.5,1.4,0.6c0.4,0.3,0.6,0.6,0.6,1.1
		c0,0.8-0.7,1.5-1.6,1.5c-1,0-1.7-0.5-2.2-1.4l-1.3,1.2c0.9,1.4,2,2,3.6,2c2.1,0,3.6-1.4,3.6-3.4C36.7,50.3,36.1,49.6,33.8,48.8z"/>
	<path fill="#221F1F" d="M37.4,50c0,3,2.4,5.4,5.4,5.4c0.9,0,1.6-0.2,2.5-0.6v-2.4c-0.8,0.8-1.5,1.1-2.4,1.1c-2,0-3.5-1.5-3.5-3.6
		c0-2,1.5-3.5,3.4-3.5c1,0,1.7,0.3,2.5,1.2v-2.4c-0.9-0.4-1.6-0.6-2.5-0.6C39.8,44.6,37.4,47,37.4,50z"/>
	<polygon fill="#221F1F" points="61.3,51.7 58.5,44.8 56.3,44.8 60.7,55.4 61.8,55.4 66.2,44.8 64,44.8 	"/>
	<polygon fill="#221F1F" points="67.1,55.1 72.8,55.1 72.8,53.4 69.1,53.4 69.1,50.6 72.7,50.6 72.7,48.8 69.1,48.8 69.1,46.6 
		72.8,46.6 72.8,44.8 67.1,44.8 	"/>
	<path fill="#221F1F" d="M80.8,47.9c0-1.9-1.3-3-3.6-3h-3v10.3h2V51h0.3l2.8,4.1h2.5l-3.2-4.3C79.9,50.5,80.8,49.4,80.8,47.9z
		 M76.7,49.6h-0.6v-3.1h0.6c1.3,0,1.9,0.5,1.9,1.5C78.7,49,78,49.6,76.7,49.6z"/>
	<g>
		<g>
			<circle fill="#F38020" cx="51.5" cy="50" r="5.5"/>
		</g>
	</g>
	<g>
		<path fill="#221F1F" d="M82,45.2c0-0.2-0.1-0.3-0.3-0.3h-0.3v0.9h0.2v-0.4l0.3,0.4h0.3l-0.3-0.4C82,45.4,82,45.3,82,45.2z
			 M81.7,45.3L81.7,45.3l0-0.2h0c0.1,0,0.2,0,0.2,0.1C81.8,45.3,81.8,45.3,81.7,45.3z"/>
		<path fill="#221F1F" d="M81.7,44.6c-0.4,0-0.8,0.4-0.8,0.8c0,0.4,0.4,0.8,0.8,0.8c0.4,0,0.8-0.4,0.8-0.8
			C82.5,44.9,82.2,44.6,81.7,44.6z M81.7,46c-0.3,0-0.6-0.3-0.6-0.6c0-0.4,0.3-0.6,0.6-0.6c0.3,0,0.6,0.3,0.6,0.6
			C82.4,45.7,82.1,46,81.7,46z"/>
	</g>
</g>
</svg>
