<?xml version="1.0" encoding="utf-8"?>
<!-- Generator: Adobe Illustrator 19.1.0, SVG Export Plug-In . SVG Version: 6.00 Build 0)  -->
<svg version="1.1" id="icons" xmlns="http://www.w3.org/2000/svg" xmlns:xlink="http://www.w3.org/1999/xlink" x="0px" y="0px"
	 viewBox="0 0 100 100" enable-background="new 0 0 100 100" xml:space="preserve">
<g>
	<path fill="#5F6062" d="M32.2,36.9h-4.1c-1.9,0-3.5,1.6-3.5,3.5c0,1.9,1.6,3.5,3.5,3.5h14.4c0.9,0,1.7-0.8,1.7-1.7l0-14.1
		c0-1.9-1.6-3.5-3.5-3.5s-3.5,1.6-3.5,3.5v3.8l-12-12c-0.7-0.7-1.5-1-2.5-1c-0.9,0-1.8,0.4-2.5,1c-0.7,0.7-1,1.5-1,2.5
		c0,0.9,0.4,1.8,1,2.5L32.2,36.9z"/>
	<path fill="#5F6062" d="M57.5,43.9l14.1,0c1.9,0,3.5-1.6,3.5-3.5c0-1.9-1.6-3.5-3.5-3.5h-3.8l12-12c0.7-0.7,1-1.5,1-2.5
		c0-0.9-0.4-1.8-1-2.5c-0.7-0.7-1.5-1-2.5-1c-0.9,0-1.8,0.4-2.5,1l-12,12v-4.1c0-1.9-1.6-3.5-3.5-3.5c-1.9,0-3.5,1.6-3.5,3.5v14.4
		C55.8,43.2,56.5,43.9,57.5,43.9z"/>
	<path fill="#5F6062" d="M22.7,80.5c0.9,0,1.8-0.4,2.5-1l12-12v3.8c0,1.9,1.6,3.5,3.5,3.5s3.5-1.6,3.5-3.5l0-14.1
		c0-0.9-0.8-1.7-1.7-1.7H28.1c-1.9,0-3.5,1.6-3.5,3.5c0,1.9,1.6,3.5,3.5,3.5h4.1l-12,12c-0.7,0.7-1,1.5-1,2.5c0,0.9,0.4,1.8,1,2.5
		C20.9,80.2,21.8,80.5,22.7,80.5z"/>
	<path fill="#5F6062" d="M59.3,75.1c1.9,0,3.5-1.6,3.5-3.5v-4.1l12,12c0.7,0.7,1.5,1,2.5,1c0.9,0,1.8-0.4,2.5-1c0.7-0.7,1-1.5,1-2.5
		c0-0.9-0.4-1.8-1-2.5l-12-12h3.8c1.9,0,3.5-1.6,3.5-3.5s-1.6-3.5-3.5-3.5l-14.1,0c-0.9,0-1.7,0.8-1.7,1.7v14.4
		C55.8,73.5,57.4,75.1,59.3,75.1z"/>
</g>
</svg>
