<?xml version="1.0" encoding="utf-8"?>
<!-- Generator: Adobe Illustrator 19.1.0, SVG Export Plug-In . SVG Version: 6.00 Build 0)  -->
<svg version="1.1" id="icons" xmlns="http://www.w3.org/2000/svg" xmlns:xlink="http://www.w3.org/1999/xlink" x="0px" y="0px"
	 viewBox="0 0 100 100" enable-background="new 0 0 100 100" xml:space="preserve">
<g>
	<path fill="#5F6062" d="M50.1,17.8C32.4,17.8,18,32.2,18,50s14.4,32.2,32.2,32.2S82.3,67.8,82.3,50S67.9,17.8,50.1,17.8z
		 M72.8,59.6c-1.2,2.9-3,5.6-5.3,7.8c-2.3,2.3-4.9,4-7.8,5.3c-3,1.3-6.2,1.9-9.6,1.9c-3.3,0-6.5-0.6-9.6-1.9c-2.9-1.2-5.6-3-7.8-5.3
		c-2.3-2.3-4-4.9-5.3-7.8c-1.3-3-1.9-6.2-1.9-9.6c0-3.3,0.6-6.5,1.9-9.6c1.2-2.9,3-5.6,5.3-7.8c2.3-2.3,4.9-4,7.8-5.3
		c3-1.3,6.2-1.9,9.6-1.9c3.3,0,6.5,0.6,9.6,1.9c2.9,1.2,5.6,3,7.8,5.3c2.3,2.3,4,4.9,5.3,7.8c1.3,3,1.9,6.2,1.9,9.6
		C74.7,53.3,74,56.5,72.8,59.6z"/>
	<path fill="#5F6062" d="M41.6,31C41.6,31,41.6,31,41.6,31c-0.1,0-0.1,0.1-0.2,0.1l0,0c0,0,0,0,0,0c0,0,0,0,0,0l0,0c0,0,0,0,0,0
		c-0.8,0.4-1.4,1.2-1.5,2c-0.1,0.4,0,0.9,0.2,1.3c0.6,1.3,2.1,1.8,3.3,1.3c0,0,0.1,0,0.1-0.1c0.9-0.4,1.4-1.2,1.5-2
		c0.1-0.4,0-0.9-0.2-1.3C44.4,31.1,42.9,30.5,41.6,31z"/>
	<path fill="#5F6062" d="M33.3,42c-1.3-0.4-2.7,0.3-3.2,1.6c0,0,0,0.1,0,0.1c0,0,0,0,0,0c0,0,0,0,0,0c0,0,0,0,0,0c0,0,0,0,0,0
		c0,0,0,0,0,0c0,0,0,0,0,0c0,0,0,0,0,0c0,0,0,0,0,0l0,0c0,0,0,0,0,0c-0.1,0.2-0.1,0.3-0.1,0.5c-0.1,1.2,0.6,2.3,1.7,2.7
		c1.3,0.4,2.7-0.3,3.2-1.6c0,0,0-0.1,0-0.1c0.1-0.2,0.1-0.3,0.1-0.5C35.1,43.5,34.4,42.4,33.3,42z"/>
	<path fill="#5F6062" d="M49.9,34.4c0.1,0,0.1,0,0.2,0c1.3,0,2.4-1,2.5-2.2c0-0.1,0-0.2,0-0.3c0-1.4-1.1-2.5-2.5-2.5
		c-0.1,0-0.1,0-0.2,0l0,0l0,0l0,0c-1.3,0-2.4,1-2.5,2.2c0,0.1,0,0.2,0,0.3C47.4,33.2,48.5,34.4,49.9,34.4z"/>
	<path fill="#5F6062" d="M38.1,35.9c-1-0.9-2.6-0.9-3.6,0.1c0,0,0,0,0,0c0,0,0,0,0,0l0,0c0,0,0,0-0.1,0.1l0,0c0,0,0,0,0,0
		c0,0,0,0,0,0c0,0,0,0,0,0c0,0,0,0,0,0c0,0,0,0,0,0c0,0,0,0,0,0c-0.4,0.4-0.6,0.9-0.6,1.4c-0.1,0.8,0.2,1.6,0.8,2.2
		c1,0.9,2.6,0.9,3.6-0.2c0,0,0.1-0.1,0.1-0.1c0.4-0.4,0.6-0.9,0.6-1.4C39,37.3,38.7,36.5,38.1,35.9z"/>
	<path fill="#5F6062" d="M68.2,47.1c1-0.3,1.6-1.2,1.8-2.1c0-0.3,0-0.7-0.1-1c0,0,0-0.1,0-0.1l0,0c0,0,0,0,0,0c0,0,0,0,0,0
		c0,0,0,0,0,0c0,0,0,0,0-0.1c-0.4-1.3-1.8-2-3.2-1.6c-1,0.3-1.6,1.2-1.7,2.1c0,0.3,0,0.7,0.1,1.1c0,0,0,0.1,0,0.1
		C65.5,46.8,66.9,47.6,68.2,47.1z"/>
	<path fill="#5F6062" d="M66.2,38.4c0.1-0.7-0.1-1.4-0.6-2c0,0,0,0,0,0c0,0,0,0,0,0c0,0,0,0,0,0l0,0c0,0,0,0,0,0c0,0,0,0,0,0l0,0
		c0,0,0,0,0,0l0,0c0,0,0,0-0.1-0.1l0,0c0,0,0,0,0,0c0,0,0,0,0,0c-0.9-1-2.5-1.1-3.6-0.2c-0.5,0.4-0.8,1-0.8,1.6
		c-0.1,0.7,0.1,1.4,0.6,2c0,0,0.1,0.1,0.1,0.1c0.9,1,2.5,1.1,3.6,0.2C65.9,39.5,66.1,39,66.2,38.4z"/>
	<path fill="#5F6062" d="M58.6,31.2c0,0-0.1,0-0.1-0.1h0c0,0,0,0,0,0c0,0,0,0,0,0c-1.3-0.6-2.8,0-3.3,1.3c-0.1,0.2-0.2,0.5-0.2,0.7
		c-0.1,1.1,0.4,2.1,1.5,2.6c0,0,0.1,0,0.1,0.1c1.3,0.6,2.8,0,3.3-1.2c0.1-0.2,0.2-0.5,0.2-0.8C60.2,32.8,59.6,31.7,58.6,31.2z"/>
	<path fill="#5F6062" d="M53.1,54l-2.2-14.6c0-0.4-0.4-0.7-0.7-0.7l0,0c-0.4,0-0.7,0.3-0.7,0.7L47.2,54h0c-0.1,0.2-0.1,0.5-0.1,0.8
		c0,1.7,1.4,3,3,3s3-1.4,3-3C53.2,54.5,53.1,54.2,53.1,54L53.1,54z"/>
</g>
</svg>
