<?xml version="1.0" encoding="utf-8"?>
<!-- Generator: Adobe Illustrator 19.1.0, SVG Export Plug-In . SVG Version: 6.00 Build 0)  -->
<svg version="1.1" id="icons" xmlns="http://www.w3.org/2000/svg" xmlns:xlink="http://www.w3.org/1999/xlink" x="0px" y="0px"
	 viewBox="0 0 100 100" enable-background="new 0 0 100 100" xml:space="preserve">
<g>
	<g>
		<path fill="#5F6062" d="M81.4,52.4H70.5c1.7,0.7,2.9,2.3,2.9,4.2c0,2.4-2.1,4.5-4.5,4.5c-2.4,0-4.5-2.1-4.5-4.5
			c0-1.9,1.2-3.5,2.9-4.2h-4.9c-2.9,0-5.3-2.4-5.3-5.3v-2.4H29.3c-0.8,0-1.4-0.8-1.1-1.6l3.5-9.6c0.6-1.8,2.3-2.9,4.2-2.9h21.2v-4.1
			c0-0.1,0-0.2,0-0.3H35.9c-3.7,0-7.1,2.3-8.4,5.8l-6,16.3c-1.8,1.9-3.7,4.3-3.8,6h0v18c0,0.1,0,0.2,0,0.3v5c0,2.6,2.1,4.7,4.7,4.7
			h1.4c2.6,0,4.7-2.1,4.7-4.7v-3.2h42.6v3.2c0,2.6,2.1,4.7,4.7,4.7h1.4c2.6,0,4.7-2.1,4.7-4.7v-5.3v0v-18h0
			C82.1,53.8,81.8,53.1,81.4,52.4z M30.5,61.1c-2.4,0-4.5-2.1-4.5-4.5c0-2.4,2.1-4.5,4.5-4.5c2.4,0,4.5,2.1,4.5,4.5
			C35,59.1,33,61.1,30.5,61.1z"/>
	</g>
	<path id="path-1_1_" fill="#5F6062" d="M85,49.1H62.4c-1.1,0-2-0.9-2-2V26.5c0-1.1,0.9-2,2-2H85c1.1,0,2,0.9,2,2v20.7
		C86.9,48.2,86.1,49.1,85,49.1z M77,32.7c-0.7-1.2-1.9-2-3.4-2c-1.4,0-2.6,0.8-3.3,2c-0.3,0.5-0.5,1.1-0.5,1.8
		c0,1.6,0.9,2.9,2.2,3.5v4.4c0,0.5,0.4,1,1,1h1.2c0.5,0,1-0.4,1-1v-4.4c1.3-0.6,2.2-1.9,2.2-3.5C77.5,33.8,77.3,33.2,77,32.7z
		 M79.8,22.1c0-3.3-2.7-6-6-6h-0.2c-3.3,0-6,2.7-6,6v0h-3.2v0c0-2.4,1-4.7,2.7-6.5c1.7-1.7,4-2.7,6.5-2.7h0.2c2.5,0,4.8,0.9,6.5,2.7
		c1.7,1.7,2.7,4,2.7,6.5v0v0L79.8,22.1L79.8,22.1z"/>
</g>
</svg>
