<?xml version="1.0" encoding="utf-8"?>
<!-- Generator: Adobe Illustrator 19.1.0, SVG Export Plug-In . SVG Version: 6.00 Build 0)  -->
<svg version="1.1" xmlns="http://www.w3.org/2000/svg" xmlns:xlink="http://www.w3.org/1999/xlink" x="0px" y="0px"
	 viewBox="0 0 100 100" enable-background="new 0 0 100 100" xml:space="preserve">
<g id="grid" display="none">
</g>
<g id="icons">
	<g>
		<path fill="#5F6062" d="M66.3,55.2c-8.8,0-15.9,7.1-15.9,15.9c0,8.8,7.1,15.9,15.9,15.9c8.8,0,15.9-7.1,15.9-15.9
			C82.2,62.3,75.1,55.2,66.3,55.2z M66.2,76.2c0,0.6-0.5,1.1-1.1,1.1h-6.3c-0.6,0-1.1-0.5-1.1-1.1v-0.2c0-0.3,0.1-0.5,0.2-0.7
			l2.8-3.6c0.6-0.7,1-1.1,1.6-1.7v0h-3.2c-0.6,0-1.1-0.5-1.1-1.1v-0.2c0-0.6,0.5-1.1,1.1-1.1h5.8c0.6,0,1.1,0.5,1.1,1.1v0.3
			c0,0.3-0.1,0.5-0.2,0.7L63.1,73c-0.5,0.6-1,1.3-1.6,1.8v0h3.6c0.6,0,1.1,0.5,1.1,1.1V76.2z M74.7,70.5c0,0.5-0.4,0.9-0.9,0.9h-5
			c-0.5,0-0.9-0.4-0.9-0.9v-0.2c0-0.2,0.1-0.4,0.2-0.6l2.3-2.8c0.4-0.5,0.8-0.9,1.2-1.4v0h-2.5c-0.5,0-0.9-0.4-0.9-0.9v-0.1
			c0-0.5,0.4-0.9,0.9-0.9h4.6c0.5,0,0.9,0.4,0.9,0.9v0.3c0,0.2-0.1,0.4-0.2,0.5L72.2,68c-0.4,0.5-0.8,1-1.3,1.4v0h2.9
			c0.5,0,0.9,0.4,0.9,0.9V70.5z"/>
		<circle fill="#5F6062" cx="61.7" cy="25.8" r="2.1"/>
		<path fill="#5F6062" d="M66.3,51.9c1.4,0,2.8,0.2,4.1,0.4V22.8c0-2.6-2.1-4.7-4.7-4.7h-31c-2.6,0-4.7,2.1-4.7,4.7v54.6
			c0,2.6,2.1,4.7,4.7,4.7h15.9c-2.2-3.1-3.5-6.9-3.5-11C47.1,60.5,55.7,51.9,66.3,51.9z M34.2,23.5c0-0.8,0.6-1.4,1.4-1.4h29.1
			c0.8,0,1.4,0.6,1.4,1.4v4.8c0,0.8-0.6,1.4-1.4,1.4H35.6c-0.8,0-1.4-0.6-1.4-1.4V23.5z M34.2,39.7v-4.8c0-0.8,0.6-1.4,1.4-1.4h29.1
			c0.8,0,1.4,0.6,1.4,1.4v4.8c0,0.8-0.6,1.4-1.4,1.4H35.6C34.8,41.1,34.2,40.5,34.2,39.7z"/>
		<circle fill="#5F6062" cx="61.7" cy="37.1" r="2.1"/>
	</g>
</g>
</svg>
