<?xml version="1.0" encoding="utf-8"?>
<!-- Generator: Adobe Illustrator 19.1.0, SVG Export Plug-In . SVG Version: 6.00 Build 0)  -->
<svg version="1.1" id="icons" xmlns="http://www.w3.org/2000/svg" xmlns:xlink="http://www.w3.org/1999/xlink" x="0px" y="0px"
	 viewBox="0 0 100 100" enable-background="new 0 0 100 100" xml:space="preserve">
<g>
	<g>
		<path fill="#00529A" d="M36.6,59.1h1.6l-1.6,7.6H35L36.6,59.1z"/>
		<path fill="#00529A" d="M38.9,61.9c0.1-0.3,0.1-0.6,0.1-0.8h1.4l-0.1,0.5h0c0.4-0.4,1-0.7,1.6-0.7c1.1,0,1.8,0.7,1.8,1.8
			c0,0.4-0.1,0.9-0.2,1.2L43,66.7h-1.5l0.5-2.6c0.1-0.4,0.2-0.8,0.2-1.2c0-0.5-0.3-0.8-0.8-0.8c-1,0-1.4,0.9-1.6,1.8l-0.6,2.8h-1.5
			L38.9,61.9z"/>
		<path fill="#00529A" d="M48.6,62.3c-0.4-0.1-0.8-0.3-1.2-0.3c-0.4,0-1,0.1-1,0.6c0,0.7,1.9,1,1.9,2.3c0,1.5-1.3,1.9-2.5,1.9
			c-0.6,0-1.2-0.1-1.7-0.3l0.3-1.2c0.4,0.2,0.8,0.4,1.4,0.4c0.5,0,1-0.2,1-0.6c0-0.9-1.9-1-1.9-2.4c0-1.3,1.3-1.8,2.4-1.8
			c0.5,0,1.1,0.1,1.6,0.2L48.6,62.3z"/>
		<path fill="#00529A" d="M54.3,65.9c-0.1,0.3-0.1,0.6-0.1,0.8h-1.4l0.1-0.5h0c-0.4,0.4-1,0.7-1.6,0.7c-1.1,0-1.8-0.7-1.8-1.8
			c0-0.4,0.1-0.9,0.2-1.2l0.6-2.7h1.5l-0.5,2.6c-0.1,0.4-0.2,0.8-0.2,1.2c0,0.5,0.3,0.8,0.8,0.8c1,0,1.4-0.9,1.6-1.8l0.6-2.8h1.5
			L54.3,65.9z"/>
		<path fill="#00529A" d="M56.5,61.8c0-0.2,0.1-0.5,0.1-0.8H58l-0.2,1.1h0c0.3-0.6,1-1.2,1.7-1.2c0.2,0,0.4,0,0.6,0.1l-0.3,1.4
			c-0.2-0.1-0.4-0.1-0.6-0.1c-1,0-1.5,0.9-1.7,1.8L57,66.7h-1.5L56.5,61.8z"/>
		<path fill="#00529A" d="M63.2,65.8L63.2,65.8c-0.5,0.6-1,1-1.8,1c-1,0-1.7-0.6-1.7-1.6c0-1.9,2.1-2,3.4-2h0.5c0-0.2,0-0.3,0-0.5
			c0-0.6-0.6-0.7-1.1-0.7c-0.6,0-1.3,0.2-1.8,0.4l0.2-1.2c0.6-0.2,1.3-0.3,1.9-0.3c1.1,0,2.2,0.4,2.2,1.7c0,0.8-0.6,3-0.7,4H63
			L63.2,65.8z M61.7,65.8c1.1,0,1.4-0.8,1.7-1.7h-0.5c-0.7,0-1.9,0.1-1.9,1.1C61,65.6,61.4,65.8,61.7,65.8z"/>
		<path fill="#00529A" d="M66.5,61.9c0.1-0.3,0.1-0.6,0.1-0.8h1.4L68,61.6h0c0.4-0.4,1-0.7,1.6-0.7c1.1,0,1.8,0.7,1.8,1.8
			c0,0.4-0.1,0.9-0.2,1.2l-0.6,2.7h-1.5l0.5-2.6c0.1-0.4,0.2-0.8,0.2-1.2c0-0.5-0.3-0.8-0.8-0.8c-1,0-1.4,0.9-1.6,1.8l-0.6,2.8h-1.5
			L66.5,61.9z"/>
		<path fill="#00529A" d="M76.6,62.4c-0.3-0.2-0.7-0.3-1.1-0.3c-1.2,0-1.8,1.1-1.8,2.1c0,0.7,0.2,1.5,1.2,1.5c0.4,0,0.8-0.1,1.2-0.3
			L76,66.6c-0.4,0.2-0.9,0.3-1.4,0.3c-1.4,0-2.4-1-2.4-2.4c0-2,1.3-3.5,3.3-3.5c0.5,0,1.1,0.1,1.5,0.2L76.6,62.4z"/>
		<path fill="#00529A" d="M78.4,64.3c0,1,0.6,1.4,1.6,1.4c0.6,0,1.2-0.2,1.7-0.4l-0.2,1.2c-0.6,0.2-1.2,0.3-1.8,0.3
			c-1.6,0-2.7-0.8-2.7-2.5c0-1.7,1.4-3.4,3.2-3.4c1.4,0,2.3,0.7,2.3,2.1c0,0.4-0.1,0.8-0.1,1.3H78.4z M81.1,63.3c0-0.1,0-0.3,0-0.4
			c0-0.6-0.3-0.9-0.9-0.9c-0.9,0-1.3,0.5-1.6,1.3H81.1z"/>
	</g>
	<g>
		<g>
			<path fill="#00529A" d="M67.6,34.4c-1.5-2.5-8.9-1.2-19,3.5L48.4,38l0.1,0.1c0.5,0.4,1,0.8,1.4,1.2l0.1,0.1l0.1,0
				c7.5-3.2,13-4,14.1-2.1c1.3,2.3-3.9,7.9-12.6,13.8l-0.1,0.1l0.3,0.3l0.1-0.1C62.8,44.2,69.2,37.3,67.6,34.4z"/>
			<path fill="#00529A" d="M32.5,60.9c-5.6,2-9.6,2.2-10.4,0.7c-0.8-1.4,0.8-4,4.4-7.4l0.1-0.1l-1-0.4c0,0-0.8-0.4-0.8-0.4l-0.1,0
				l-0.1,0c-4.4,4.1-6.3,7.3-5.3,9c1.2,2,6.1,1.6,13.4-1.1l0.1-0.1L32.5,60.9L32.5,60.9z"/>
		</g>
		<path fill="#ED1C2E" d="M35.1,33.8c-9.7,0-17.6,4.9-17.6,10.9c0,6,7.9,10.9,17.6,10.9c9.7,0,17.6-4.9,17.6-10.9
			C52.6,38.7,44.7,33.8,35.1,33.8z M32,49c0.2,0,4,0,4.2,0c0,0.2,1.4,5,1.5,5.3c-0.9,0.1-1.8,0.2-2.6,0.2c-1.5,0-3-0.2-4.4-0.5
			C30.7,53.8,32,49.2,32,49z M32.4,47.5c0.1-0.3,1.5-5.4,1.7-6.1c0.2,0.7,1.6,5.8,1.7,6.1C35.5,47.5,32.7,47.5,32.4,47.5z M34.1,35
			c-0.1,0.3-3.2,11.5-3.4,12.2c-0.2-0.7-3.1-10.6-3.1-10.8C29.6,35.6,31.8,35.1,34.1,35z M35.7,35c2.3,0.1,4.6,0.5,6.6,1.3
			c-0.1,0.2-2.8,10.2-3,10.9C39.1,46.5,35.8,35.3,35.7,35z M40.9,47.5c0.1-0.3,1.5-5.4,1.6-6.1c0.2,0.7,1.6,5.8,1.7,6.1
			C44,47.5,41.2,47.5,40.9,47.5z M40.2,50.3c0-0.1,0.3-1.1,0.3-1.3c0.2,0,4,0,4.2,0c0,0.2,0.6,2.3,0.7,2.5c-1.2,0.9-2.7,1.6-4.3,2.1
			C41.1,53.4,40.2,50.4,40.2,50.3z M48.2,48.7c-0.1-0.5-3-10.3-3.2-10.9c2.8,1.8,4.4,4.4,4.4,7C49.4,46.1,49,47.4,48.2,48.7z
			 M28.9,53.6c-2.3-0.7-4.3-1.9-5.7-3.3c0-0.1,0.3-1.1,0.3-1.2c0.2,0,4,0,4.2,0C27.7,49.2,28.8,53.2,28.9,53.6z M24,47.5
			c0.1-0.3,1.5-5.4,1.7-6.1c0.2,0.7,1.6,5.8,1.7,6.1C27,47.5,24.2,47.5,24,47.5z M24.8,37.9c-0.2,0.6-2.8,10.2-2.9,10.7
			c-0.8-1.2-1.2-2.5-1.2-3.8C20.7,42.2,22.2,39.8,24.8,37.9z"/>
	</g>
</g>
</svg>
