<?xml version="1.0" encoding="utf-8"?>
<!-- Generator: Adobe Illustrator 19.1.0, SVG Export Plug-In . SVG Version: 6.00 Build 0)  -->
<svg version="1.1" id="icons" xmlns="http://www.w3.org/2000/svg" xmlns:xlink="http://www.w3.org/1999/xlink" x="0px" y="0px"
	 viewBox="0 0 100 100" enable-background="new 0 0 100 100" xml:space="preserve">
<g>
	<path fill="#5F6062" d="M71.4,87.3c-32.5-18.4-9-41.2,0-25.8C80.4,46.1,104,69,71.4,87.3z"/>
	<path fill="#5F6062" d="M54.2,76.5c-3.4-5.8-3.2-10.6-2.4-13.6c0.1-0.4,0.2-0.8,0.4-1.3c0,0,0,0,0,0l0-5.6c0,0,2.2-1.7,2.8-6.9
		c1.4,0.4,2.8-2,2.9-3.3c0.1-1.2-0.2-4.6-1.8-4.3c0.3-2.6,0.6-4.9,0.5-6.1c-0.4-4.5-4.8-9.2-11.6-9.2c-6.8,0-11.2,4.7-11.6,9.2
		c-0.1,1.2,0.1,3.5,0.5,6.1c-1.7-0.3-1.9,3.1-1.9,4.3c0.1,1.3,1.5,3.7,2.9,3.3c0.7,5.2,2.9,6.9,2.9,6.9l-0.1,5.6
		c0,0-1.4,0.8-7.2,3.3c-5.8,2.4-10.1,4.1-11.8,6.8c-1.6,2.4-1.1,11.1-1.1,11.1h42C57.3,80.8,55.5,78.7,54.2,76.5z"/>
	<path fill="#5F6062" d="M59.9,35c0.1,1.1,0,2.7-0.2,4.7c1.7,2.1,1.6,5.6,1.6,6.3c-0.1,1.2-0.6,2.6-1.4,3.8
		c-0.5,0.8-1.2,1.4-1.9,1.9c-0.4,1.6-0.8,2.8-1.3,3.8c2-1.6,4.5-2.5,7.1-2.5c2.1,0,4.1,0.6,5.9,1.7c0.6,0.4,1.2,0.9,1.8,1.4
		c0.6-0.5,1.2-1,1.9-1.4c-0.4-0.1-0.7-0.2-1.1-0.3c0,0,0,0,0,0c-0.1,0-0.1,0-0.2-0.1c-4.7-1.5-6.4-5-7-8.4c0.5-0.6,1-1.2,1.5-1.9
		c3.1,1,6.7,1.3,9.8-1c-4.3-4.4-0.9-9.7-4-19.4c-2.7-8.2-13.5-7.8-14.9-4.9c-4.4-1.6-8-0.3-10.2,4.2c3,0.5,5.7,1.7,7.8,3.6
		C57.9,28.8,59.5,31.9,59.9,35z"/>
</g>
</svg>
