<?xml version="1.0" encoding="utf-8"?>
<!-- Generator: Adobe Illustrator 19.1.0, SVG Export Plug-In . SVG Version: 6.00 Build 0)  -->
<svg version="1.1" id="icons" xmlns="http://www.w3.org/2000/svg" xmlns:xlink="http://www.w3.org/1999/xlink" x="0px" y="0px"
	 viewBox="0 0 100 100" enable-background="new 0 0 100 100" xml:space="preserve">
<g>
	<path fill="#5F6062" d="M78.1,48.7l-4.1-11v1.7c0,5.4-4.4,9.7-9.7,9.7c-3.3,0-6.3-1.7-8-4.3H29.2c-0.8,0-1.4-0.8-1.1-1.6l3.5-9.6
		c0.6-1.7,2.3-2.9,4.2-2.9h11.6l0.3-2.2c0.1-0.7,0.2-1.5,0.4-2.2H35.8c-3.7,0-7.1,2.3-8.3,5.8l-6,16.2c-1.8,1.9-3.7,4.3-3.8,5.9h0
		v17.9c0,0.1,0,0.2,0,0.3v5c0,2.6,2.1,4.7,4.7,4.7h1.4c2.6,0,4.7-2.1,4.7-4.7v-3.2H71v3.2c0,2.6,2.1,4.7,4.7,4.7H77
		c2.6,0,4.7-2.1,4.7-4.7v-5.3l0,0V54.3h0C81.7,52.9,79.9,50.6,78.1,48.7z M30.5,61.1c-2.4,0-4.5-2.1-4.5-4.5c0-2.4,2.1-4.5,4.5-4.5
		c2.4,0,4.5,2.1,4.5,4.5C34.9,59.1,32.9,61.1,30.5,61.1z M68.7,61.1c-2.4,0-4.5-2.1-4.5-4.5c0-2.4,2.1-4.5,4.5-4.5
		c2.4,0,4.5,2.1,4.5,4.5C73.2,59.1,71.1,61.1,68.7,61.1z"/>
	<path fill="#5F6062" d="M67,31.3v8.1c0,1.4-1.2,2.6-2.6,2.6s-2.6-1.2-2.6-2.6c0-1-0.8-1.9-1.9-1.9s-1.9,0.8-1.9,1.9
		c0,3.5,2.9,6.4,6.4,6.4s6.4-2.9,6.4-6.4v-8.1c0-1-0.8-1.9-1.9-1.9S67,30.2,67,31.3z"/>
	<path fill="#5F6062" d="M62.5,30.1c1.6-1.7,3.9-2.7,6.4-2.7c2.5,0,4.8,1,6.4,2.7c1.6-1.7,3.9-2.7,6.4-2.7c1.9,0,3.7,0.6,5.1,1.6
		c-1.1-8.2-7.7-14.6-16-15.5v-1.3c0-1-0.8-1.9-1.9-1.9S67,11.2,67,12.2v1.3c-8.3,0.9-14.9,7.3-16,15.5c1.4-1,3.2-1.6,5.1-1.6
		C58.6,27.4,60.9,28.4,62.5,30.1z"/>
</g>
</svg>
