<?xml version="1.0" encoding="utf-8"?>
<!-- Generator: Adobe Illustrator 19.1.0, SVG Export Plug-In . SVG Version: 6.00 Build 0)  -->
<svg version="1.1" id="icons" xmlns="http://www.w3.org/2000/svg" xmlns:xlink="http://www.w3.org/1999/xlink" x="0px" y="0px"
	 viewBox="0 0 100 100" enable-background="new 0 0 100 100" xml:space="preserve">
<path fill="#5F6062" d="M73,17.7H27c-2.7,0-4.8,2.2-4.8,4.8v55.7c0,2.7,2.2,4.8,4.8,4.8h46c2.7,0,4.8-2.2,4.8-4.8V22.5
	C77.8,19.9,75.7,17.7,73,17.7z M57.9,61.8c0,1.1-0.9,1.9-1.9,1.9H36.6c-1.1,0-1.9-0.9-1.9-1.9l0,0c0-1.1,0.9-1.9,1.9-1.9H56
	C57.1,59.9,57.9,60.8,57.9,61.8L57.9,61.8z M68.5,50.6c0,1.1-0.9,1.9-1.9,1.9h-30c-1.1,0-1.9-0.9-1.9-1.9l0,0c0-1.1,0.9-1.9,1.9-1.9
	h30C67.6,48.7,68.5,49.5,68.5,50.6L68.5,50.6z M62.7,39.4c0,1.1-0.9,1.9-1.9,1.9H36.6c-1.1,0-1.9-0.9-1.9-1.9l0,0
	c0-1.1,0.9-1.9,1.9-1.9h24.3C61.9,37.5,62.7,38.4,62.7,39.4L62.7,39.4z"/>
</svg>
