<?xml version="1.0" encoding="utf-8"?>
<!-- Generator: Adobe Illustrator 19.1.0, SVG Export Plug-In . SVG Version: 6.00 Build 0)  -->
<svg version="1.1" id="icons" xmlns="http://www.w3.org/2000/svg" xmlns:xlink="http://www.w3.org/1999/xlink" x="0px" y="0px"
	 viewBox="0 0 100 100" enable-background="new 0 0 100 100" xml:space="preserve">
<g>
	<path fill="#5F6062" d="M78.8,48.3l-1.5-4c-2,0.9-4.2,1.3-6.7,1.3h0c-2.4,0-5-0.4-7.8-1.2h-0.1c-0.9,1.2-2,2.9-2.9,4.9
		c-0.7,1.5-2.3,2.5-4,2.5c-1.8,0-3.8-1-4.8-2.6c-0.8-1.2-1-2.7-0.4-4c0.1-0.3,0.2-0.5,0.4-0.8H29.2c-0.8,0-1.4-0.8-1.1-1.6l3.6-9.7
		c0.7-1.8,2.3-3,4.2-3H53c0.1-0.8,0.3-1.6,0.6-2.5c0.2-0.7,0.5-1.4,0.8-2H35.8c-3.8,0-7.2,2.4-8.5,5.9L21.3,48c-1.9,2-3.8,4.3-3.8,6
		h0v18.1c0,0.1,0,0.2,0,0.3v5.1c0,2.6,2.1,4.8,4.8,4.8h1.4c2.6,0,4.8-2.1,4.8-4.8v-3.3h43v3.3c0,2.6,2.1,4.8,4.8,4.8h1.4
		c2.6,0,4.8-2.1,4.8-4.8v-5.4v0V54h0C82.4,52.6,80.6,50.3,78.8,48.3z M30.4,60.9c-2.4,0-4.5-2.1-4.5-4.5c0-2.4,2.1-4.5,4.5-4.5
		c2.4,0,4.5,2.1,4.5,4.5C35,58.8,32.9,60.9,30.4,60.9z M69.2,60.9c-2.4,0-4.5-2.1-4.5-4.5c0-2.4,2.1-4.5,4.5-4.5
		c2.4,0,4.5,2.1,4.5,4.5C73.7,58.8,71.6,60.9,69.2,60.9z"/>
	<path fill="#5F6062" d="M63.6,20.3C55.5,25,56,32.6,56.2,35.5c10.5-12.3,26.2-11.7,26.2-11.7s-22.2,7.6-28.8,22.8
		c-0.5,1.2,2.4,2.8,3.1,1.3c2-4.2,4.8-7.4,4.8-7.4c4.1,1.5,11.2,3.3,16.3-0.2c6.7-4.7,6-15.1,15.6-20.1C95.6,18.9,74.6,14,63.6,20.3
		z"/>
</g>
</svg>
