<?xml version="1.0" encoding="utf-8"?>
<!-- Generator: Adobe Illustrator 19.1.0, SVG Export Plug-In . SVG Version: 6.00 Build 0)  -->
<svg version="1.1" id="icons" xmlns="http://www.w3.org/2000/svg" xmlns:xlink="http://www.w3.org/1999/xlink" x="0px" y="0px"
	 viewBox="0 0 100 100" enable-background="new 0 0 100 100" xml:space="preserve">
<g>
	<g>
		<g>
			<circle fill="#EC2127" cx="36.9" cy="50" r="19.5"/>
			<g>
				<path fill="#FAA61B" d="M63.1,30.5c-5,0-9.6,1.9-13.1,5c-0.7,0.6-1.4,1.3-2,2.1H52c0.5,0.7,1,1.3,1.5,2.1h-6.9
					c-0.4,0.7-0.8,1.3-1.1,2.1h9.1c0.3,0.7,0.6,1.4,0.8,2.1H44.6c-0.2,0.7-0.4,1.4-0.6,2.1H56c0.3,1.3,0.4,2.7,0.4,4.1
					c0,2.2-0.4,4.2-1,6.2H44.6c0.2,0.7,0.5,1.4,0.8,2.1h9.1c-0.3,0.7-0.7,1.4-1.1,2.1h-6.9c0.5,0.7,0.9,1.4,1.5,2.1H52
					c-0.6,0.7-1.3,1.4-2,2.1c3.5,3.1,8,5,13.1,5c10.7,0,19.5-8.7,19.5-19.5C82.5,39.2,73.8,30.5,63.1,30.5z"/>
			</g>
		</g>
		<path d="M79.9,60.8c0-0.3,0.3-0.6,0.6-0.6c0.3,0,0.6,0.3,0.6,0.6c0,0.3-0.3,0.6-0.6,0.6C80.2,61.4,79.9,61.2,79.9,60.8z
			 M80.6,61.3c0.3,0,0.5-0.2,0.5-0.5c0-0.3-0.2-0.5-0.5-0.5c-0.3,0-0.5,0.2-0.5,0.5C80.1,61.1,80.3,61.3,80.6,61.3z M80.5,61.1h-0.1
			v-0.6h0.2c0,0,0.1,0,0.1,0c0,0,0.1,0.1,0.1,0.1c0,0.1,0,0.1-0.1,0.1l0.1,0.2h-0.1l-0.1-0.2h-0.1V61.1z M80.5,60.8L80.5,60.8
			c0.1,0,0.1,0,0.1,0c0,0,0,0,0-0.1c0,0,0,0,0-0.1c0,0-0.1,0-0.1,0h-0.1V60.8z"/>
	</g>
	<g>
		<g>
			<path d="M32.4,52.1c-0.2,0-0.3,0-0.5,0c-1.2,0-1.8,0.4-1.8,1.2c0,0.5,0.3,0.8,0.8,0.8C31.7,54.1,32.4,53.3,32.4,52.1z M33.9,55.7
				c-0.3,0-1.8,0-1.8,0l0-0.8c-0.5,0.7-1.2,1-2.2,1c-1.1,0-1.9-0.9-1.9-2.2c0-2,1.4-3.1,3.7-3.1c0.2,0,0.5,0,0.9,0.1
				c0.1-0.3,0.1-0.4,0.1-0.5c0-0.5-0.4-0.7-1.4-0.7c-1,0-1.9,0.2-2.2,0.4c0-0.1,0.3-1.8,0.3-1.8c1.1-0.3,1.7-0.4,2.5-0.4
				c1.8,0,2.8,0.8,2.8,2.4c0,0.4-0.1,0.9-0.2,1.6C34.4,52.6,34,55.1,33.9,55.7z"/>
			<polygon points="27.2,55.7 25.1,55.7 26.3,48.1 23.6,55.7 22.1,55.7 22,48.1 20.7,55.7 18.7,55.7 20.4,45.8 23.4,45.8 23.6,51.3 
				25.4,45.8 28.8,45.8 			"/>
			<path d="M65.7,52.1c-0.2,0-0.3,0-0.5,0c-1.2,0-1.8,0.4-1.8,1.2c0,0.5,0.3,0.8,0.8,0.8C65,54.1,65.6,53.3,65.7,52.1z M67.2,55.7
				c-0.3,0-1.8,0-1.8,0l0-0.8c-0.5,0.7-1.2,1-2.2,1c-1.1,0-1.9-0.9-1.9-2.2c0-2,1.4-3.1,3.7-3.1c0.2,0,0.5,0,0.9,0.1
				c0.1-0.3,0.1-0.4,0.1-0.5c0-0.5-0.4-0.7-1.4-0.7c-1,0-1.9,0.2-2.2,0.4c0-0.1,0.3-1.8,0.3-1.8c1.1-0.3,1.7-0.4,2.5-0.4
				c1.8,0,2.8,0.8,2.8,2.4c0,0.4-0.1,0.9-0.2,1.6C67.7,52.6,67.3,55.1,67.2,55.7z"/>
			<path d="M43.3,55.5c-0.6,0.2-1,0.3-1.5,0.3c-1.1,0-1.7-0.6-1.7-1.8c0-0.4,0.2-1.3,0.3-2.1c0.1-0.8,0.9-5.5,0.9-5.5h2.1l-0.2,1.2
				h1.3l-0.3,1.9h-1.3c-0.2,1.5-0.6,3.4-0.6,3.7c0,0.4,0.2,0.6,0.7,0.6c0.2,0,0.4,0,0.6-0.1L43.3,55.5z"/>
			<path d="M49.8,55.5c-0.7,0.2-1.4,0.3-2.2,0.3c-2.4,0-3.6-1.2-3.6-3.6c0-2.7,1.6-4.8,3.7-4.8c1.7,0,2.8,1.1,2.8,2.9
				c0,0.6-0.1,1.2-0.3,2h-4.2C46,53.5,46.7,54,47.9,54c0.8,0,1.4-0.2,2.2-0.5L49.8,55.5z M48.6,50.7c0-0.2,0.2-1.4-1-1.4
				c-0.7,0-1.1,0.5-1.3,1.4H48.6z"/>
			<path d="M35.2,50.2c0,1,0.5,1.7,1.6,2.2c0.9,0.4,1,0.5,1,0.9c0,0.5-0.4,0.7-1.2,0.7c-0.6,0-1.2-0.1-1.9-0.3c0,0-0.3,1.8-0.3,1.9
				c0.5,0.1,0.9,0.2,2.2,0.2c2.2,0,3.3-0.8,3.3-2.7c0-1.1-0.4-1.8-1.5-2.2c-0.9-0.4-1-0.5-1-0.9c0-0.4,0.4-0.7,1-0.7
				c0.4,0,1,0,1.5,0.1l0.3-1.9c-0.5-0.1-1.4-0.2-1.9-0.2C36,47.5,35.2,48.7,35.2,50.2z"/>
			<path d="M60,47.7c0.6,0,1.1,0.2,1.9,0.5l0.3-2.1c-0.3-0.1-1.4-0.8-2.3-0.8c-1.4,0-2.6,0.7-3.4,1.9c-1.2-0.4-1.7,0.4-2.3,1.2
				l-0.5,0.1c0-0.3,0.1-0.5,0.1-0.8h-1.9c-0.3,2.5-0.7,5-1.1,7.5l-0.1,0.5h2.1c0.4-2.3,0.5-3.8,0.7-4.8l0.8-0.4
				c0.1-0.4,0.5-0.6,1.2-0.6c-0.1,0.5-0.2,1.1-0.2,1.6c0,2.6,1.4,4.3,3.7,4.3c0.6,0,1.1-0.1,1.9-0.3l0.4-2.3
				c-0.7,0.3-1.3,0.5-1.8,0.5c-1.2,0-2-0.9-2-2.4C57.3,49.2,58.5,47.7,60,47.7z"/>
			<path d="M77.9,45.8l-0.5,2.9c-0.6-0.8-1.2-1.3-2-1.3c-1.1,0-2,0.8-2.7,2c-0.9-0.2-1.8-0.5-1.8-0.5l0,0c0.1-0.7,0.1-1.1,0.1-1.2
				h-1.9c-0.3,2.5-0.7,5-1.1,7.5l-0.1,0.5H70c0.3-1.9,0.5-3.4,0.7-4.6c0.7-0.7,1.1-1.2,1.8-1.2c-0.3,0.8-0.5,1.7-0.5,2.6
				c0,2,1,3.3,2.6,3.3c0.8,0,1.4-0.3,1.9-0.9l-0.1,0.7h2l1.6-9.9H77.9z M75.3,53.8c-0.7,0-1.1-0.5-1.1-1.6c0-1.6,0.7-2.7,1.6-2.7
				c0.7,0,1.1,0.6,1.1,1.6C77,52.7,76.3,53.8,75.3,53.8z"/>
		</g>
		<g>
			<polygon fill="#FFFFFF" points="27.8,55.1 25.7,55.1 26.9,47.5 24.2,55.1 22.8,55.1 22.6,47.5 21.3,55.1 19.3,55.1 21,45.2 
				24,45.2 24.1,51.3 26.1,45.2 29.4,45.2 			"/>
			<path fill="#FFFFFF" d="M33,51.5c-0.2,0-0.3,0-0.5,0c-1.2,0-1.8,0.4-1.8,1.2c0,0.5,0.3,0.8,0.8,0.8C32.3,53.5,33,52.7,33,51.5z
				 M34.5,55.1c-0.3,0-1.8,0-1.8,0l0-0.8c-0.5,0.7-1.2,1-2.2,1c-1.1,0-1.9-0.9-1.9-2.2c0-2,1.4-3.1,3.7-3.1c0.2,0,0.5,0,0.9,0.1
				c0.1-0.3,0.1-0.4,0.1-0.5c0-0.5-0.4-0.7-1.4-0.7c-1,0-1.9,0.2-2.2,0.4c0-0.1,0.3-1.8,0.3-1.8c1.1-0.3,1.7-0.4,2.5-0.4
				c1.8,0,2.8,0.8,2.8,2.4c0,0.4-0.1,0.9-0.2,1.6C35,52,34.6,54.5,34.5,55.1z"/>
			<path fill="#FFFFFF" d="M62.9,45.5l-0.3,2.1c-0.8-0.4-1.3-0.5-1.9-0.5c-1.6,0-2.7,1.5-2.7,3.7c0,1.5,0.7,2.4,2,2.4
				c0.5,0,1.1-0.2,1.8-0.5l-0.4,2.2c-0.8,0.2-1.3,0.3-1.9,0.3c-2.3,0-3.7-1.6-3.7-4.3c0-3.5,2-6,4.8-6C61.5,45,62.6,45.4,62.9,45.5z
				"/>
			<path fill="#FFFFFF" d="M66.3,51.5c-0.2,0-0.3,0-0.5,0c-1.2,0-1.8,0.4-1.8,1.2c0,0.5,0.3,0.8,0.8,0.8
				C65.6,53.5,66.2,52.7,66.3,51.5z M67.8,55.1c-0.3,0-1.8,0-1.8,0l0-0.8c-0.5,0.7-1.2,1-2.2,1c-1.1,0-1.9-0.9-1.9-2.2
				c0-2,1.4-3.1,3.7-3.1c0.2,0,0.5,0,0.9,0.1c0.1-0.3,0.1-0.4,0.1-0.5c0-0.5-0.4-0.7-1.4-0.7c-1,0-1.9,0.2-2.2,0.4
				c0-0.1,0.3-1.8,0.3-1.8c1.1-0.3,1.7-0.4,2.5-0.4c1.8,0,2.8,0.8,2.8,2.4c0,0.4-0.1,0.9-0.2,1.6C68.3,52,67.9,54.5,67.8,55.1z"/>
			<path fill="#FFFFFF" d="M43.9,55c-0.6,0.2-1,0.3-1.5,0.3c-1.1,0-1.7-0.6-1.7-1.8c0-0.4,0.2-1.3,0.3-2.1c0.1-0.8,0.9-5.5,0.9-5.5
				H44l-0.2,1.2h1.1L44.6,49h-1.1c-0.2,1.5-0.6,3.4-0.6,3.7c0,0.4,0.2,0.6,0.7,0.6c0.2,0,0.4,0,0.6-0.1L43.9,55z"/>
			<path fill="#FFFFFF" d="M50.4,54.9c-0.7,0.2-1.4,0.3-2.2,0.3c-2.4,0-3.6-1.2-3.6-3.6c0-2.7,1.6-4.8,3.7-4.8
				c1.7,0,2.8,1.1,2.8,2.9c0,0.6-0.1,1.2-0.3,2h-4.2c-0.1,1.2,0.6,1.7,1.8,1.7c0.8,0,1.4-0.2,2.2-0.5L50.4,54.9z M49.2,50.1
				c0-0.2,0.2-1.4-1-1.4c-0.7,0-1.1,0.5-1.3,1.4H49.2z"/>
			<path fill="#FFFFFF" d="M35.8,49.6c0,1,0.5,1.7,1.6,2.2c0.9,0.4,1,0.5,1,0.9c0,0.5-0.4,0.7-1.2,0.7c-0.6,0-1.2-0.1-1.9-0.3
				c0,0-0.3,1.8-0.3,1.9c0.5,0.1,0.9,0.2,2.2,0.2c2.2,0,3.3-0.8,3.3-2.7c0-1.1-0.4-1.8-1.5-2.2c-0.9-0.4-1-0.5-1-0.9
				c0-0.4,0.4-0.7,1-0.7c0.4,0,1,0,1.5,0.1l0.3-1.9c-0.5-0.1-1.4-0.2-1.9-0.2C36.6,46.9,35.8,48.1,35.8,49.6z"/>
			<path fill="#FFFFFF" d="M79,55.1h-2l0.1-0.7c-0.6,0.6-1.2,0.9-1.9,0.9c-1.5,0-2.6-1.3-2.6-3.3c0-2.7,1.6-4.9,3.4-4.9
				c0.8,0,1.4,0.3,2,1.1l0.5-2.9h2.1L79,55.1z M75.9,53.2c1,0,1.7-1.1,1.7-2.7c0-1-0.4-1.6-1.1-1.6c-1,0-1.6,1.1-1.6,2.7
				C74.8,52.7,75.2,53.2,75.9,53.2z"/>
			<path fill="#FFFFFF" d="M69.7,47.1c-0.3,2.5-0.7,5-1.1,7.5l-0.1,0.5h2.1c0.8-4.9,0.9-5.9,2.1-5.7c0.2-1,0.5-1.9,0.8-2.3
				c-0.9-0.2-1.4,0.3-2,1.3c0.1-0.4,0.1-0.8,0.1-1.2H69.7z"/>
			<path fill="#FFFFFF" d="M52.3,47.1c-0.3,2.5-0.7,5-1.1,7.5l-0.1,0.5h2.1c0.8-4.9,0.9-5.9,2.1-5.7c0.2-1,0.5-1.9,0.8-2.3
				c-0.9-0.2-1.4,0.3-2,1.3c0.1-0.4,0.1-0.8,0.1-1.2H52.3z"/>
			<g>
				<path fill="#FFFFFF" d="M79.9,54.5c0-0.3,0.3-0.6,0.6-0.6c0.3,0,0.6,0.3,0.6,0.6c0,0.3-0.3,0.6-0.6,0.6
					C80.2,55.1,79.9,54.8,79.9,54.5z M80.6,54.9c0.3,0,0.5-0.2,0.5-0.5c0-0.3-0.2-0.5-0.5-0.5c-0.3,0-0.5,0.2-0.5,0.5
					C80.1,54.7,80.3,54.9,80.6,54.9z M80.5,54.7h-0.1v-0.6h0.2c0,0,0.1,0,0.1,0c0,0,0.1,0.1,0.1,0.1c0,0.1,0,0.1-0.1,0.1l0.1,0.2
					h-0.1l-0.1-0.2h-0.1V54.7z M80.5,54.4L80.5,54.4c0.1,0,0.1,0,0.2,0c0,0,0,0,0-0.1c0,0,0,0,0-0.1c0,0-0.1,0-0.1,0h-0.1V54.4z"/>
			</g>
		</g>
	</g>
</g>
</svg>
