<?xml version="1.0" encoding="utf-8"?>
<!-- Generator: Adobe Illustrator 19.1.0, SVG Export Plug-In . SVG Version: 6.00 Build 0)  -->
<svg version="1.1" id="icons" xmlns="http://www.w3.org/2000/svg" xmlns:xlink="http://www.w3.org/1999/xlink" x="0px" y="0px"
	 viewBox="0 0 100 100" enable-background="new 0 0 100 100" xml:space="preserve">
<path fill="#5F6062" d="M50,17.7c-17.8,0-32.3,14.4-32.3,32.3c0,17.8,14.4,32.3,32.3,32.3c17.8,0,32.3-14.4,32.3-32.3
	C82.3,32.2,67.8,17.7,50,17.7z M63.6,64.3L63.6,64.3c-1.1,1.1-2.9,1.1-4,0L47.3,51.9h0V27.8c0-1.5,1.3-2.8,2.8-2.8h0
	c1.5,0,2.8,1.3,2.8,2.8v20.6c0,0.7,0.3,1.5,0.8,2l9.9,9.9C64.7,61.4,64.7,63.2,63.6,64.3z"/>
</svg>
