<?xml version="1.0" encoding="utf-8"?>
<!-- Generator: Adobe Illustrator 18.1.1, SVG Export Plug-In . SVG Version: 6.00 Build 0)  -->
<svg version="1.1" id="icons" xmlns="http://www.w3.org/2000/svg" xmlns:xlink="http://www.w3.org/1999/xlink" x="0px" y="0px"
	 viewBox="0 0 100 100" enable-background="new 0 0 100 100" xml:space="preserve">
<g opacity="0.6">
	<path d="M82,53.1H72c1,0.8,1.6,2.1,1.6,3.4c0,2.4-2.1,4.5-4.5,4.5c-2.4,0-4.5-2.1-4.5-4.5c0-1.3,0.6-2.6,1.6-3.4h-2.9
		c-3.1,0-5.7-2.5-5.7-5.7v-2.8H29.4c-0.8,0-1.4-0.8-1.1-1.6l3.5-9.6c0.6-1.8,2.3-2.9,4.2-2.9h21.7v-2.2c0-0.8,0.2-1.6,0.5-2.3H36
		c-3.8,0-7.1,2.3-8.4,5.9l-6,16.4c-1.9,1.9-3.7,4.3-3.8,6h0v18c0,0.1,0,0.2,0,0.3v5.1c0,2.6,2.1,4.8,4.8,4.8h1.4
		c2.6,0,4.8-2.1,4.8-4.8v-3.2h42.8v3.2c0,2.6,2.1,4.8,4.8,4.8h1.4c2.6,0,4.8-2.1,4.8-4.8v-5.3v0v-18h0C82.3,53.9,82.2,53.5,82,53.1z
		 M30.6,61c-2.4,0-4.5-2.1-4.5-4.5c0-2.4,2.1-4.5,4.5-4.5c2.4,0,4.5,2.1,4.5,4.5C35.1,59,33,61,30.6,61z"/>
	<g>
		<circle cx="78.5" cy="41.9" r="1.5"/>
		<circle cx="69.6" cy="31.7" r="1.5"/>
		<path d="M84.7,25.8h-1.4v-6.4c0-0.9-0.8-1.7-1.7-1.7H66.4c-0.9,0-1.7,0.8-1.7,1.7v6.4h-1.4c-1.3,0-2.4,1.1-2.4,2.4v19.2
			c0,1.3,1.1,2.4,2.4,2.4h21.4c1.3,0,2.4-1.1,2.4-2.4V28.2C87.1,26.9,86,25.8,84.7,25.8z M66.5,30c1-1.7,3.1-2.3,4.9-1.3
			c1.7,1,2.3,3.1,1.3,4.9c-1,1.7-3.1,2.3-4.9,1.3C66.1,33.9,65.5,31.7,66.5,30z M68.4,45.6L68.4,45.6c-0.7-0.4-0.9-1.3-0.4-2
			l9.7-15.3c0.4-0.7,1.3-0.9,2-0.4l0,0c0.7,0.4,0.9,1.3,0.4,2l-9.7,15.3C70,45.9,69.1,46.1,68.4,45.6z M81.6,43.6
			c-1,1.7-3.1,2.3-4.9,1.3c-1.7-1-2.3-3.1-1.3-4.9c1-1.7,3.1-2.3,4.9-1.3C81.9,39.7,82.5,41.9,81.6,43.6z"/>
	</g>
</g>
</svg>
