<?xml version="1.0" encoding="utf-8"?>
<!-- Generator: Adobe Illustrator 19.1.0, SVG Export Plug-In . SVG Version: 6.00 Build 0)  -->
<svg version="1.1" id="icons" xmlns="http://www.w3.org/2000/svg" xmlns:xlink="http://www.w3.org/1999/xlink" x="0px" y="0px"
	 viewBox="0 0 100 100" enable-background="new 0 0 100 100" xml:space="preserve">
<g>
	<g>
		<path fill="#FFFFFF" d="M78.5,24.7H21.8c-2.3,0-4.2,1.9-4.2,4.2v42.3c0,2.3,1.9,4.2,4.2,4.2h56.7c2.3,0,4.2-1.9,4.2-4.2V28.9
			C82.7,26.6,80.8,24.7,78.5,24.7z"/>
		<path fill="#5F6062" d="M78.5,26.5c1.3,0,2.4,1.1,2.4,2.4v42.3c0,1.3-1.1,2.4-2.4,2.4H21.8c-1.3,0-2.4-1.1-2.4-2.4V28.9
			c0-1.3,1.1-2.4,2.4-2.4H78.5 M78.5,24.7H21.8c-2.3,0-4.2,1.9-4.2,4.2v42.3c0,2.3,1.9,4.2,4.2,4.2h56.7c2.3,0,4.2-1.9,4.2-4.2V28.9
			C82.7,26.6,80.8,24.7,78.5,24.7L78.5,24.7z"/>
	</g>
	<g>
		<g>
			<g>
				<circle fill="#EC2127" cx="39.7" cy="50.2" r="15.4"/>
				<g>
					<path fill="#FAA61B" d="M60.3,34.8c-4,0-7.6,1.5-10.3,4c-0.6,0.5-1.1,1-1.6,1.6h3.1c0.4,0.5,0.8,1.1,1.2,1.6h-5.5
						c-0.3,0.5-0.6,1.1-0.9,1.6h7.2c0.2,0.5,0.5,1.1,0.7,1.6h-8.5c-0.2,0.5-0.3,1.1-0.4,1.6h9.4c0.2,1,0.3,2.1,0.3,3.3
						c0,1.7-0.3,3.3-0.8,4.9h-8.5c0.2,0.6,0.4,1.1,0.7,1.6h7.2c-0.3,0.6-0.6,1.1-0.9,1.6h-5.4c0.4,0.6,0.7,1.1,1.2,1.6h3.1
						c-0.5,0.6-1,1.1-1.6,1.6c2.7,2.5,6.3,4,10.3,4c8.5,0,15.4-6.9,15.4-15.4C75.7,41.7,68.8,34.8,60.3,34.8z"/>
				</g>
			</g>
			<path d="M73.6,58.8c0-0.3,0.2-0.5,0.5-0.5c0.3,0,0.5,0.2,0.5,0.5c0,0.3-0.2,0.5-0.5,0.5C73.9,59.3,73.6,59.1,73.6,58.8z
				 M74.1,59.2c0.2,0,0.4-0.2,0.4-0.4c0-0.2-0.2-0.4-0.4-0.4c-0.2,0-0.4,0.2-0.4,0.4C73.8,59,73.9,59.2,74.1,59.2z M74.1,59H74v-0.4
				h0.2c0,0,0.1,0,0.1,0c0,0,0.1,0.1,0.1,0.1c0,0,0,0.1-0.1,0.1l0.1,0.2h-0.1l-0.1-0.2h-0.1V59z M74.1,58.8L74.1,58.8
				c0.1,0,0.1,0,0.1,0c0,0,0,0,0-0.1c0,0,0,0,0,0c0,0,0,0-0.1,0h-0.1V58.8z"/>
		</g>
		<g>
			<g>
				<path d="M36.1,51.9c-0.2,0-0.3,0-0.4,0c-0.9,0-1.4,0.3-1.4,1c0,0.4,0.2,0.6,0.6,0.6C35.6,53.5,36.1,52.8,36.1,51.9z M37.3,54.7
					c-0.2,0-1.4,0-1.4,0l0-0.7c-0.4,0.5-1,0.8-1.7,0.8c-0.9,0-1.5-0.7-1.5-1.7c0-1.5,1.1-2.4,2.9-2.4c0.2,0,0.4,0,0.7,0
					c0.1-0.2,0.1-0.3,0.1-0.4c0-0.4-0.3-0.6-1.1-0.6c-0.8,0-1.5,0.2-1.8,0.3c0-0.1,0.2-1.4,0.2-1.4c0.8-0.2,1.4-0.3,2-0.3
					c1.4,0,2.2,0.6,2.2,1.9c0,0.3-0.1,0.7-0.1,1.3C37.6,52.3,37.3,54.2,37.3,54.7z"/>
				<polygon points="32,54.7 30.3,54.7 31.3,48.7 29.1,54.7 28,54.7 27.8,48.8 26.8,54.7 25.3,54.7 26.6,46.9 29,46.9 29.1,51.3 
					30.6,46.9 33.3,46.9 				"/>
				<path d="M62.4,51.9c-0.2,0-0.3,0-0.4,0c-0.9,0-1.4,0.3-1.4,1c0,0.4,0.2,0.6,0.6,0.6C61.9,53.5,62.3,52.8,62.4,51.9z M63.6,54.7
					c-0.2,0-1.4,0-1.4,0l0-0.7c-0.4,0.5-1,0.8-1.7,0.8c-0.9,0-1.5-0.7-1.5-1.7c0-1.5,1.1-2.4,2.9-2.4c0.2,0,0.4,0,0.7,0
					c0.1-0.2,0.1-0.3,0.1-0.4c0-0.4-0.3-0.6-1.1-0.6c-0.8,0-1.5,0.2-1.8,0.3c0-0.1,0.2-1.4,0.2-1.4c0.8-0.2,1.4-0.3,2-0.3
					c1.4,0,2.2,0.6,2.2,1.9c0,0.3-0.1,0.7-0.1,1.3C63.9,52.3,63.6,54.2,63.6,54.7z"/>
				<path d="M44.7,54.6c-0.5,0.1-0.8,0.2-1.2,0.2c-0.9,0-1.3-0.5-1.3-1.4c0-0.3,0.1-1,0.2-1.7c0.1-0.6,0.7-4.3,0.7-4.3h1.7l-0.2,1h1
					l-0.2,1.5h-1c-0.2,1.2-0.5,2.7-0.5,2.9c0,0.3,0.2,0.5,0.6,0.5c0.2,0,0.3,0,0.4-0.1L44.7,54.6z"/>
				<path d="M49.8,54.6c-0.6,0.2-1.1,0.3-1.7,0.3c-1.9,0-2.8-1-2.8-2.8c0-2.2,1.2-3.8,2.9-3.8c1.4,0,2.2,0.9,2.2,2.3
					c0,0.5-0.1,0.9-0.2,1.6h-3.3c-0.1,0.9,0.5,1.3,1.4,1.3c0.6,0,1.1-0.1,1.7-0.4L49.8,54.6z M48.9,50.8c0-0.1,0.2-1.1-0.8-1.1
					c-0.5,0-0.9,0.4-1.1,1.1H48.9z"/>
				<path d="M38.3,50.4c0,0.8,0.4,1.4,1.3,1.8c0.7,0.3,0.8,0.4,0.8,0.7c0,0.4-0.3,0.6-1,0.6c-0.5,0-1-0.1-1.5-0.3
					c0,0-0.2,1.4-0.2,1.5c0.4,0.1,0.7,0.2,1.7,0.2c1.8,0,2.6-0.7,2.6-2.1c0-0.9-0.3-1.4-1.2-1.8c-0.7-0.3-0.8-0.4-0.8-0.7
					c0-0.3,0.3-0.5,0.8-0.5c0.3,0,0.8,0,1.2,0.1l0.2-1.5c-0.4-0.1-1.1-0.1-1.5-0.1C38.9,48.2,38.3,49.2,38.3,50.4z"/>
				<path d="M57.9,48.4c0.5,0,0.9,0.1,1.5,0.4l0.3-1.7c-0.2-0.1-1.1-0.7-1.8-0.7c-1.1,0-2.1,0.6-2.7,1.5c-1-0.3-1.4,0.3-1.9,1
					L52.8,49c0-0.2,0.1-0.4,0.1-0.6h-1.5c-0.2,2-0.6,4-0.9,5.9l-0.1,0.4h1.7c0.3-1.8,0.4-3,0.5-3.8l0.6-0.3c0.1-0.3,0.4-0.5,1-0.5
					c-0.1,0.4-0.1,0.8-0.1,1.3c0,2.1,1.1,3.4,2.9,3.4c0.5,0,0.9-0.1,1.5-0.2l0.3-1.8c-0.6,0.3-1,0.4-1.4,0.4c-1,0-1.6-0.7-1.6-1.9
					C55.8,49.6,56.7,48.4,57.9,48.4z"/>
				<path d="M72.1,46.9l-0.4,2.3c-0.5-0.6-0.9-1-1.6-1c-0.8,0-1.6,0.6-2.1,1.6c-0.7-0.1-1.4-0.4-1.4-0.4l0,0c0.1-0.5,0.1-0.8,0.1-1
					h-1.5c-0.2,2-0.6,4-0.9,5.9l-0.1,0.4h1.7c0.2-1.5,0.4-2.7,0.5-3.6c0.6-0.5,0.9-1,1.4-0.9c-0.3,0.6-0.4,1.3-0.4,2.1
					c0,1.6,0.8,2.6,2,2.6c0.6,0,1.1-0.2,1.5-0.7l-0.1,0.6h1.6l1.3-7.8H72.1z M70,53.3c-0.6,0-0.9-0.4-0.9-1.2c0-1.2,0.5-2.1,1.3-2.1
					c0.6,0,0.9,0.4,0.9,1.2C71.3,52.4,70.7,53.3,70,53.3z"/>
			</g>
			<g>
				<polygon fill="#FFFFFF" points="32.5,54.3 30.8,54.3 31.7,48.3 29.6,54.3 28.5,54.3 28.3,48.3 27.3,54.3 25.8,54.3 27.1,46.5 
					29.5,46.5 29.5,51.3 31.2,46.5 33.7,46.5 				"/>
				<path fill="#FFFFFF" d="M36.6,51.4c-0.2,0-0.3,0-0.4,0c-0.9,0-1.4,0.3-1.4,1c0,0.4,0.2,0.6,0.6,0.6C36,53,36.5,52.4,36.6,51.4z
					 M37.8,54.3c-0.2,0-1.4,0-1.4,0l0-0.7c-0.4,0.5-1,0.8-1.7,0.8c-0.9,0-1.5-0.7-1.5-1.7c0-1.5,1.1-2.4,2.9-2.4c0.2,0,0.4,0,0.7,0
					c0.1-0.2,0.1-0.3,0.1-0.4c0-0.4-0.3-0.6-1.1-0.6c-0.8,0-1.5,0.2-1.8,0.3c0-0.1,0.2-1.4,0.2-1.4c0.8-0.2,1.4-0.3,2-0.3
					c1.4,0,2.2,0.6,2.2,1.9c0,0.3-0.1,0.7-0.1,1.3C38.1,51.8,37.8,53.8,37.8,54.3z"/>
				<path fill="#FFFFFF" d="M60.2,46.7l-0.3,1.7c-0.6-0.3-1-0.4-1.5-0.4c-1.2,0-2.1,1.2-2.1,2.9c0,1.2,0.6,1.9,1.6,1.9
					c0.4,0,0.9-0.1,1.4-0.4L59,54.1c-0.6,0.2-1,0.2-1.5,0.2c-1.8,0-2.9-1.3-2.9-3.4c0-2.8,1.5-4.7,3.8-4.7
					C59.1,46.3,59.9,46.6,60.2,46.7z"/>
				<path fill="#FFFFFF" d="M62.9,51.4c-0.2,0-0.3,0-0.4,0c-0.9,0-1.4,0.3-1.4,1c0,0.4,0.2,0.6,0.6,0.6C62.3,53,62.8,52.4,62.9,51.4
					z M64.1,54.3c-0.2,0-1.4,0-1.4,0l0-0.7c-0.4,0.5-1,0.8-1.7,0.8c-0.9,0-1.5-0.7-1.5-1.7c0-1.5,1.1-2.4,2.9-2.4c0.2,0,0.4,0,0.7,0
					c0.1-0.2,0.1-0.3,0.1-0.4c0-0.4-0.3-0.6-1.1-0.6c-0.8,0-1.5,0.2-1.8,0.3c0-0.1,0.2-1.4,0.2-1.4c0.8-0.2,1.4-0.3,2-0.3
					c1.4,0,2.2,0.6,2.2,1.9c0,0.3-0.1,0.7-0.1,1.3C64.4,51.8,64.1,53.8,64.1,54.3z"/>
				<path fill="#FFFFFF" d="M45.2,54.2c-0.5,0.1-0.8,0.2-1.2,0.2c-0.9,0-1.3-0.5-1.3-1.4c0-0.3,0.1-1,0.2-1.7
					c0.1-0.6,0.7-4.3,0.7-4.3h1.7l-0.2,1h0.9l-0.2,1.5h-0.9c-0.2,1.2-0.5,2.7-0.5,2.9c0,0.3,0.2,0.5,0.6,0.5c0.2,0,0.3,0,0.4-0.1
					L45.2,54.2z"/>
				<path fill="#FFFFFF" d="M50.3,54.1c-0.6,0.2-1.1,0.3-1.7,0.3c-1.9,0-2.8-1-2.8-2.8c0-2.2,1.2-3.8,2.9-3.8c1.4,0,2.2,0.9,2.2,2.3
					c0,0.5-0.1,0.9-0.2,1.6h-3.3c-0.1,0.9,0.5,1.3,1.4,1.3c0.6,0,1.1-0.1,1.7-0.4L50.3,54.1z M49.3,50.4c0-0.1,0.2-1.1-0.8-1.1
					c-0.5,0-0.9,0.4-1.1,1.1H49.3z"/>
				<path fill="#FFFFFF" d="M38.8,49.9c0,0.8,0.4,1.4,1.3,1.8c0.7,0.3,0.8,0.4,0.8,0.7c0,0.4-0.3,0.6-1,0.6c-0.5,0-1-0.1-1.5-0.3
					c0,0-0.2,1.4-0.2,1.5c0.4,0.1,0.7,0.2,1.7,0.2c1.8,0,2.6-0.7,2.6-2.1c0-0.9-0.3-1.4-1.2-1.8c-0.7-0.3-0.8-0.4-0.8-0.7
					c0-0.3,0.3-0.5,0.8-0.5c0.3,0,0.8,0,1.2,0.1l0.2-1.5c-0.4-0.1-1.1-0.1-1.5-0.1C39.4,47.8,38.8,48.8,38.8,49.9z"/>
				<path fill="#FFFFFF" d="M72.9,54.3h-1.6l0.1-0.6c-0.5,0.5-0.9,0.7-1.5,0.7c-1.2,0-2-1-2-2.6c0-2.1,1.2-3.9,2.7-3.9
					c0.6,0,1.1,0.3,1.6,0.9l0.4-2.3h1.6L72.9,54.3z M70.4,52.8c0.8,0,1.3-0.9,1.3-2.1c0-0.8-0.3-1.2-0.9-1.2c-0.8,0-1.3,0.9-1.3,2.1
					C69.6,52.4,69.9,52.8,70.4,52.8z"/>
				<path fill="#FFFFFF" d="M65.6,47.9c-0.2,2-0.6,4-0.9,5.9l-0.1,0.4h1.7c0.6-3.9,0.7-4.6,1.7-4.5c0.1-0.8,0.4-1.5,0.6-1.8
					c-0.7-0.1-1.1,0.2-1.6,1c0-0.3,0.1-0.6,0.1-1H65.6z"/>
				<path fill="#FFFFFF" d="M51.8,47.9c-0.2,2-0.6,4-0.9,5.9l-0.1,0.4h1.7c0.6-3.9,0.7-4.6,1.7-4.5c0.1-0.8,0.4-1.5,0.6-1.8
					c-0.7-0.1-1.1,0.2-1.6,1c0-0.3,0.1-0.6,0.1-1H51.8z"/>
				<g>
					<path fill="#FFFFFF" d="M73.6,53.8c0-0.3,0.2-0.5,0.5-0.5c0.3,0,0.5,0.2,0.5,0.5c0,0.3-0.2,0.5-0.5,0.5
						C73.9,54.3,73.6,54,73.6,53.8z M74.1,54.1c0.2,0,0.4-0.2,0.4-0.4c0-0.2-0.2-0.4-0.4-0.4c-0.2,0-0.4,0.2-0.4,0.4
						C73.8,54,73.9,54.1,74.1,54.1z M74.1,54H74v-0.4h0.2c0,0,0.1,0,0.1,0c0,0,0.1,0.1,0.1,0.1c0,0,0,0.1-0.1,0.1l0.1,0.2h-0.1
						l-0.1-0.2h-0.1V54z M74.1,53.7L74.1,53.7c0.1,0,0.1,0,0.1,0c0,0,0,0,0-0.1c0,0,0,0,0,0c0,0,0,0-0.1,0h-0.1V53.7z"/>
				</g>
			</g>
		</g>
	</g>
</g>
</svg>
