<?xml version="1.0" encoding="utf-8"?>
<!-- Generator: Adobe Illustrator 19.1.0, SVG Export Plug-In . SVG Version: 6.00 Build 0)  -->
<svg version="1.1" id="icons" xmlns="http://www.w3.org/2000/svg" xmlns:xlink="http://www.w3.org/1999/xlink" x="0px" y="0px"
	 viewBox="0 0 100 100" enable-background="new 0 0 100 100" xml:space="preserve">
<g>
	<path fill="#5F6062" d="M42.9,63.4l-6.2,1.9c-0.4,0.2-0.8-0.2-0.7-0.6l2.4-6.1c-0.8,0.5-1.8,1-2.9,1.3c-4.2,1.3-9,2.6-11.9,5.5
		c-2.3,2.3-0.8,17.5-0.8,17.5H40h7.8L42.9,63.4z"/>
	<path fill="#5F6062" d="M41.8,47.7c0.6,0.8,1.2,1.6,1.9,2.4c-0.3,1.7-0.8,3.4-1.7,5l8.3,13.7L58.6,55c-0.9-1.5-1.4-3.3-1.7-5
		c0.6-0.7,1.2-1.4,1.8-2.2c3.6,1.2,7.9,1.5,11.6-1.2c-5.1-5.1-1-11.4-4.7-22.8c-3.1-9.6-15.9-9.2-17.5-5.8
		c-6.8-2.4-11.9,0.8-13.8,11c-2.2,11.7,2,13-3,18.1C35.1,49.5,38.7,49,41.8,47.7z"/>
	<path fill="#5F6062" d="M77,65.5c-2.8-2.8-7.5-4.1-11.6-5.4c0,0,0,0,0,0c-0.1,0-0.1,0-0.2-0.1c-1.2-0.4-2.2-0.9-3.1-1.4l2.5,6.2
		c0.2,0.4-0.3,0.8-0.7,0.6l-6.2-1.9l-4.9,19.5h7.8h17.2C77.7,82.9,79.2,67.8,77,65.5z"/>
</g>
</svg>
