<?xml version="1.0" encoding="utf-8"?>
<!-- Generator: Adobe Illustrator 19.1.0, SVG Export Plug-In . SVG Version: 6.00 Build 0)  -->
<svg version="1.1" xmlns="http://www.w3.org/2000/svg" xmlns:xlink="http://www.w3.org/1999/xlink" x="0px" y="0px"
	 viewBox="0 0 100 100" enable-background="new 0 0 100 100" xml:space="preserve">
<g id="grid" display="none">
	<g display="inline">
		
			<line opacity="0.35" fill-rule="evenodd" clip-rule="evenodd" fill="none" stroke="#666666" stroke-width="0.5" x1="87" y1="7.4" x2="87" y2="92.6"/>
		
			<line opacity="0.35" fill-rule="evenodd" clip-rule="evenodd" fill="none" stroke="#666666" stroke-width="0.5" x1="7.4" y1="87" x2="92.6" y2="87"/>
		
			<line opacity="0.35" fill-rule="evenodd" clip-rule="evenodd" fill="none" stroke="#666666" stroke-width="0.5" x1="92.6" y1="7.4" x2="7.4" y2="92.6"/>
		
			<line opacity="0.35" fill-rule="evenodd" clip-rule="evenodd" fill="none" stroke="#666666" stroke-width="0.5" x1="92.6" y1="50" x2="7.4" y2="50"/>
		
			<line opacity="0.35" fill-rule="evenodd" clip-rule="evenodd" fill="none" stroke="#666666" stroke-width="0.5" x1="50" y1="7.4" x2="50" y2="92.6"/>
		
			<line opacity="0.35" fill-rule="evenodd" clip-rule="evenodd" fill="none" stroke="#666666" stroke-width="0.5" x1="92.6" y1="34.2" x2="7.4" y2="34.2"/>
		
			<line opacity="0.35" fill-rule="evenodd" clip-rule="evenodd" fill="none" stroke="#666666" stroke-width="0.5" x1="92.6" y1="65.8" x2="7.4" y2="65.8"/>
		
			<line opacity="0.35" fill-rule="evenodd" clip-rule="evenodd" fill="none" stroke="#666666" stroke-width="0.5" x1="34.2" y1="7.4" x2="34.2" y2="92.6"/>
		
			<line opacity="0.35" fill-rule="evenodd" clip-rule="evenodd" fill="none" stroke="#666666" stroke-width="0.5" x1="65.8" y1="7.4" x2="65.8" y2="92.6"/>
		
			<line opacity="0.35" fill-rule="evenodd" clip-rule="evenodd" fill="none" stroke="#666666" stroke-width="0.5" x1="13" y1="7.4" x2="13" y2="92.6"/>
		
			<line opacity="0.35" fill-rule="evenodd" clip-rule="evenodd" fill="none" stroke="#666666" stroke-width="0.5" x1="7.4" y1="13" x2="92.6" y2="13"/>
		
			<line opacity="0.35" fill-rule="evenodd" clip-rule="evenodd" fill="none" stroke="#666666" stroke-width="0.5" x1="7.4" y1="7.4" x2="92.6" y2="92.6"/>
		
			<rect x="17.8" y="17.8" fill-rule="evenodd" clip-rule="evenodd" fill="none" stroke="#FF0000" stroke-width="0.5" width="64.5" height="64.5"/>
		
			<rect x="22.5" y="13" fill-rule="evenodd" clip-rule="evenodd" fill="none" stroke="#FF0000" stroke-width="0.5" width="55" height="74"/>
		
			<rect x="13" y="22.5" fill-rule="evenodd" clip-rule="evenodd" fill="none" stroke="#FF0000" stroke-width="0.5" width="74" height="55"/>
		
			<rect x="22.5" y="13" fill-rule="evenodd" clip-rule="evenodd" fill="none" stroke="#FF0000" stroke-width="0.5" width="55" height="74"/>
	</g>
</g>
<g id="icons">
	<g>
		<circle fill="#5F6062" cx="61.8" cy="25.8" r="2.1"/>
		<path fill="#5F6062" d="M66.3,51.9c1.4,0,2.8,0.2,4.1,0.4V22.8c0-2.6-2.1-4.7-4.7-4.7h-31c-2.6,0-4.7,2.1-4.7,4.7v54.6
			c0,2.6,2.1,4.7,4.7,4.7h16c-2.2-3.1-3.5-6.9-3.5-11C47.1,60.5,55.7,51.9,66.3,51.9z M34.2,23.5c0-0.8,0.6-1.4,1.4-1.4h29.1
			c0.8,0,1.4,0.6,1.4,1.4v4.8c0,0.8-0.6,1.4-1.4,1.4H35.6c-0.8,0-1.4-0.6-1.4-1.4V23.5z M34.2,39.7v-4.8c0-0.8,0.6-1.4,1.4-1.4h29.1
			c0.8,0,1.4,0.6,1.4,1.4v4.8c0,0.8-0.6,1.4-1.4,1.4H35.6C34.8,41.1,34.2,40.5,34.2,39.7z"/>
		<circle fill="#5F6062" cx="61.8" cy="37.1" r="2.1"/>
		<g>
			<path fill="#5F6062" d="M73,68.2c-0.1,0-0.2,0-0.3,0c-1.1,0.1-2.5,0.9-4,2.1c-0.3,0.2-0.6,0.5-0.8,0.7c0.2,0.2,0.5,0.5,0.8,0.7
				c1.6,1.3,2.9,2,4,2.1l0,0l0,0c0.1,0,0.2,0,0.3,0c1.3,0,2.4-1.3,2.4-2.8C75.5,69.5,74.4,68.2,73,68.2z"/>
			<path fill="#5F6062" d="M60,68.2c-0.1,0-0.2,0-0.3,0c-1.3,0-2.4,1.3-2.4,2.8c0,1.6,1.1,2.8,2.4,2.8c0.1,0,0.2,0,0.3,0l0,0l0,0
				c1.1-0.1,2.5-0.9,4-2.1c0.3-0.2,0.6-0.5,0.8-0.7c-0.2-0.2-0.5-0.4-0.8-0.7C62.5,69.1,61.1,68.4,60,68.2z"/>
			<path fill="#5F6062" d="M66.3,55.2c-8.8,0-15.9,7.1-15.9,15.9s7.1,15.9,15.9,15.9s15.9-7.1,15.9-15.9S75.1,55.2,66.3,55.2z
				 M73.6,76.6c-0.2,0-0.4,0-0.6,0c-2.4-0.3-5.1-2.5-6.7-3.9c-1.5,1.4-4.2,3.6-6.7,3.9c-0.2,0-0.4,0-0.6,0c-2.6,0-4.7-2.5-4.7-5.6
				c0-3.1,2.1-5.6,4.7-5.6c0.2,0,0.4,0,0.6,0c2.4,0.3,5.1,2.4,6.7,3.9c1.5-1.4,4.2-3.5,6.7-3.9c0.2,0,0.4,0,0.6,0
				c2.6,0,4.7,2.5,4.7,5.6C78.3,74.1,76.2,76.6,73.6,76.6z"/>
		</g>
	</g>
</g>
</svg>
