<?xml version="1.0" encoding="utf-8"?>
<!-- Generator: Adobe Illustrator 19.1.0, SVG Export Plug-In . SVG Version: 6.00 Build 0)  -->
<svg version="1.1" id="icons" xmlns="http://www.w3.org/2000/svg" xmlns:xlink="http://www.w3.org/1999/xlink" x="0px" y="0px"
	 viewBox="0 0 100 100" enable-background="new 0 0 100 100" xml:space="preserve">
<g>
	<path fill="#5F6062" d="M29.5,17.7L17.7,29.5l7.7,7.7l-2.3,2.3c-0.7,0.7-0.7,1.8,0,2.5l3.6,3.6c0.3,0.3,0.6,0.4,1,0.4l6.6,0
		l6.4,6.4c0.7,0.7,1.8,0.7,2.5,0l9.2-9.2c0.7-0.7,0.7-1.8,0-2.5l-6.4-6.4l0-6.6c0-0.4-0.2-0.7-0.4-1l-3.6-3.6
		c-0.7-0.7-1.8-0.7-2.5,0l-2.3,2.3L29.5,17.7z M43.7,39.6c0.3-0.3,0.7-0.3,1,0l2.4,2.4c0.3,0.3,0.3,0.7,0,1l-4.1,4.1
		c-0.3,0.3-0.7,0.3-1,0l-2.4-2.4c-0.3-0.3-0.3-0.7,0-1L43.7,39.6z M38.5,27.4c0.3-0.3,0.7-0.3,1,0l0.8,0.8c0.3,0.3,0.3,0.7,0,1
		L29.2,40.3c-0.3,0.3-0.7,0.3-1,0l-0.8-0.8c-0.3-0.3-0.3-0.7,0-1L38.5,27.4z"/>
	
		<rect x="66.9" y="63.9" transform="matrix(-0.7071 -0.7071 0.7071 -0.7071 72.2334 174.3867)" fill="#5F6062" width="10.6" height="16.7"/>
	<g>
		<path fill="#5F6062" d="M57.6,44.3L44.3,57.6c-0.7,0.7-0.7,1.8,0,2.5l13.3,13.3c0.7,0.7,1.8,0.7,2.5,0l13.3-13.3
			c0.7-0.7,0.7-1.8,0-2.5L60.1,44.3C59.4,43.6,58.3,43.6,57.6,44.3z M58.2,51.2c0.4-0.4,1-0.4,1.4,0l7,7c0.4,0.4,0.4,1,0,1.4l-7,7
			c-0.4,0.4-1,0.4-1.4,0l-7-7c-0.4-0.4-0.4-1,0-1.4L58.2,51.2z"/>
		<path fill="#5F6062" d="M54.6,59.6l3.5,3.5c0.4,0.4,1,0.4,1.4,0l3.5-3.5c0.4-0.4,0.4-1,0-1.4l-3.5-3.5c-0.4-0.4-1-0.4-1.4,0
			l-3.5,3.5C54.2,58.5,54.2,59.2,54.6,59.6z"/>
	</g>
</g>
</svg>
