<?xml version="1.0" encoding="utf-8"?>
<!-- Generator: Adobe Illustrator 19.1.0, SVG Export Plug-In . SVG Version: 6.00 Build 0)  -->
<svg version="1.1" id="icons" xmlns="http://www.w3.org/2000/svg" xmlns:xlink="http://www.w3.org/1999/xlink" x="0px" y="0px"
	 viewBox="0 0 100 100" enable-background="new 0 0 100 100" xml:space="preserve">
<path fill="#5F6062" d="M82.6,54.2L82.6,54.2c-0.1-1.4-1.9-3.7-3.7-5.7l-6.1-16.7c-1.3-3.5-4.7-5.9-8.4-5.9H36.1
	c-3.8,0-7.1,2.3-8.4,5.9l-6,16.4c-1.9,2-3.7,4.3-3.8,6h0v18.1c0,0.1,0,0.2,0,0.3v5.1c0,2.6,2.1,4.8,4.8,4.8H24
	c2.6,0,4.8-2.1,4.8-4.8v-3.2h42.9v3.2c0,2.6,2.1,4.8,4.8,4.8h1.4c2.6,0,4.8-2.1,4.8-4.8v-5.3v0V54.2z M28.3,43l3.6-9.7
	c0.7-1.8,2.3-2.9,4.2-2.9h28.2c1.9,0,3.6,1.2,4.2,2.9l3.6,9.7c0.3,0.8-0.3,1.6-1.1,1.6H29.5C28.6,44.6,28,43.8,28.3,43z M30.7,61.1
	c-2.4,0-4.5-2.1-4.5-4.5c0-2.4,2.1-4.5,4.5-4.5c2.4,0,4.5,2.1,4.5,4.5C35.2,59,33.1,61.1,30.7,61.1z M64.8,56.5
	c0-2.4,2.1-4.5,4.5-4.5c2.4,0,4.5,2.1,4.5,4.5c0,2.4-2.1,4.5-4.5,4.5C66.9,61.1,64.8,59,64.8,56.5z"/>
</svg>
