<?xml version="1.0" encoding="utf-8"?>
<!-- Generator: Adobe Illustrator 19.2.1, SVG Export Plug-In . SVG Version: 6.00 Build 0)  -->
<svg version="1.1" id="icons" xmlns="http://www.w3.org/2000/svg" xmlns:xlink="http://www.w3.org/1999/xlink" x="0px" y="0px"
	 viewBox="0 0 100 100" enable-background="new 0 0 100 100" xml:space="preserve">
<path fill="#5F6062" d="M81.5,50L81.5,50c0-1.9-1.5-3.5-3.5-3.5H53v-25c0-1.9-1.5-3.5-3.5-3.5l0,0c-1.9,0-3.5,1.5-3.5,3.5v25H21
	c-1.9,0-3.5,1.5-3.5,3.5l0,0c0,1.9,1.5,3.5,3.5,3.5h25v25c0,1.9,1.5,3.5,3.5,3.5l0,0c1.9,0,3.5-1.5,3.5-3.5l0-25l25,0
	C80,53.5,81.5,51.9,81.5,50z"/>
</svg>
