<svg id="Layer_1" data-name="Layer 1" xmlns="http://www.w3.org/2000/svg" viewBox="0 0 64 64"><defs><style>.cls-1{fill:#d52b1e;}.cls-2{fill:#fff;}</style></defs><title>Red-caution</title><g id="Group_7099" data-name="Group 7099"><g id="Group_6966" data-name="Group 6966"><g id="Group_6279" data-name="Group 6279"><g id="Group_6168" data-name="Group 6168"><path id="Path_888" data-name="Path 888" class="cls-1" d="M32,3.42A28.58,28.58,0,1,1,3.42,32h0A28.66,28.66,0,0,1,32,3.42M32,0A32,32,0,1,0,64,32,32,32,0,0,0,32,0Z" transform="translate(0 0)"/><circle id="Ellipse_217" data-name="Ellipse 217" class="cls-2" cx="32" cy="32" r="30"/></g></g></g><path id="Path_904" data-name="Path 904" class="cls-1" d="M49.34,42.35l-16-26.53a1.54,1.54,0,0,0-2.1-.55,1.8,1.8,0,0,0-.55.55l-16,26.53a1.52,1.52,0,0,0,.51,2.08,1.57,1.57,0,0,0,.79.22H48a1.51,1.51,0,0,0,1.57-1.45A1.41,1.41,0,0,0,49.34,42.35ZM33.61,39.2a1.58,1.58,0,0,1-3.15,0v-.06A1.57,1.57,0,0,1,32,37.57h0a1.63,1.63,0,0,1,1.58,1.63ZM32,35.6h0a1.3,1.3,0,0,1-1.29-1.24l-.56-9a1.33,1.33,0,0,1,1.26-1.4h1.1a1.28,1.28,0,0,1,1.29,1.3v.1l-.56,9a1.22,1.22,0,0,1-1.19,1.24Z" transform="translate(0 0)"/></g></svg>