
<svg xmlns="http://www.w3.org/2000/svg"  x="0px" y="0px"
	 width="64.299px" height="64.299px" viewBox="0 0 64.299 64.299">

	<path fill="#5F6062" d="M35.197,24.235l-3.902,4.234l-2.006-1.824c-0.321-0.302-0.814-0.302-1.134,0c-0.32,0.302-0.32,0.767,0,1.07
		l2.573,2.36c0.148,0.139,0.369,0.233,0.566,0.233c0.197,0,0.419-0.094,0.566-0.233l4.469-4.745c0.321-0.302,0.321-0.79,0-1.093
		C36.011,23.933,35.518,23.933,35.197,24.235z"/>
	<path fill="#5F6062" d="M32.224,17.149c-5.464,0-9.894,4.43-9.894,9.894c0,5.464,4.43,9.894,9.894,9.894
		c5.464,0,9.894-4.43,9.894-9.894C42.117,21.579,37.688,17.149,32.224,17.149z M32.212,35.212c-4.485,0-8.134-3.649-8.134-8.134
		c0-4.485,3.649-8.134,8.134-8.134c4.485,0,8.134,3.649,8.134,8.134C40.346,31.562,36.697,35.212,32.212,35.212z"/>
	<path fill="#5F6062" d="M32.149,0C14.394,0,0,14.394,0,32.149c0,17.756,14.394,32.149,32.149,32.149s32.149-14.394,32.149-32.149
		C64.299,14.394,49.905,0,32.149,0z M43.761,29.337c1.543,2.297,0.957,3.713-1.758,4.245c0.547,2.713-0.535,3.797-3.248,3.249
		c-0.009,0.047-0.024,0.082-0.034,0.128v12.85c0,0.614-0.714,0.952-1.188,0.563c-1.516-1.243-4.067-3.34-5.119-4.244
		c-0.273-0.234-0.675-0.234-0.948,0c-1.052,0.904-3.603,3.001-5.119,4.244c-0.475,0.389-1.188,0.051-1.188-0.563V36.902
		c-2.319,0.302-3.242-0.792-2.733-3.319c-2.715-0.533-3.301-1.948-1.758-4.245c-2.305-1.531-2.305-3.063,0-4.595
		c-1.543-2.298-0.958-3.713,1.758-4.245c-0.547-2.714,0.535-3.796,3.248-3.249c0.533-2.717,1.947-3.302,4.244-1.759
		c1.531-2.306,3.062-2.306,4.593,0c2.297-1.544,3.711-0.958,4.244,1.759c2.712-0.547,3.795,0.535,3.248,3.249
		c2.715,0.533,3.301,1.947,1.758,4.245C46.066,26.274,46.066,27.806,43.761,29.337z"/>

</svg>
