
<svg xmlns="http://www.w3.org/2000/svg"  x="0px" y="0px"
	 width="64.299px" height="64.299px" viewBox="0 0 64.299 64.299" >
<path fill="#5F6062" d="M32.149,0C14.394,0,0,14.394,0,32.149c0,17.756,14.394,32.149,32.149,32.149s32.149-14.394,32.149-32.149
	C64.299,14.394,49.905,0,32.149,0z M49.831,42.942c0,1.257-1.019,2.276-2.276,2.276H16.743c-1.257,0-2.276-1.019-2.276-2.276V23.901
	l16.373,9.506c0.81,0.47,1.809,0.47,2.618,0l16.373-9.506V42.942z M49.831,21.489l-16.373,9.506c-0.81,0.47-1.809,0.47-2.618,0
	l-16.373-9.506v-1.522c0-1.257,1.019-2.276,2.276-2.276h30.813c1.257,0,2.276,1.019,2.276,2.276V21.489z"/>
</svg>
