<?xml version="1.0" encoding="UTF-8"?>
<svg width="66px" height="66px" viewBox="0 0 66 66" version="1.1" xmlns="http://www.w3.org/2000/svg" xmlns:xlink="http://www.w3.org/1999/xlink" xmlns:sketch="http://www.bohemiancoding.com/sketch/ns">
    <!-- Generator: Sketch 3.4.2 (15855) - http://www.bohemiancoding.com/sketch -->
    <title>fill-auto-disc-A6</title>
    <desc>Created with Sketch.</desc>
    <defs></defs>
    <g id="Page-1" stroke="none" stroke-width="1" fill="none" fill-rule="evenodd" sketch:type="MSPage">
        <g id="fill-auto-disc-A6" sketch:type="MSLayerGroup" fill="#5D5D5D">
            <g id="Group" sketch:type="MSShapeGroup">
                <path d="M46.1,46.7 C46.1,47.1 46.2,47.4 46.2,47.8 C48.7,47.2 50.6,45.2 51.1,42.8 C50.8,42.7 50.5,42.7 50.1,42.7 C47.9,42.6 46.1,44.4 46.1,46.7 L46.1,46.7 Z" id="Shape"></path>
                <circle id="Oval" cx="44.6" cy="41.3" r="1.8"></circle>
                <path d="M39.1,42.6 C38.8,42.6 38.4,42.6 38.1,42.7 C38.6,45.2 40.6,47.1 43,47.7 C43.1,47.4 43.1,47 43.1,46.6 C43.2,44.4 41.4,42.6 39.1,42.6 L39.1,42.6 Z" id="Shape"></path>
                <path d="M44.6,34.7 C41.5,34.7 38.8,36.9 38.1,39.8 C39.9,38.5 42.2,37.7 44.6,37.7 C47,37.7 49.2,38.5 51.1,39.8 C50.4,36.8 47.8,34.7 44.6,34.7 L44.6,34.7 Z" id="Shape"></path>
                <path d="M33,0.9 C15.2,0.9 0.9,15.3 0.9,33 C0.9,50.8 15.3,65.1 33,65.1 C50.7,65.1 65.1,50.7 65.1,33 C65.1,15.2 50.7,0.9 33,0.9 L33,0.9 Z M16.1,47.4 C16.1,47.4 15.8,42 16.8,40.5 C17.9,38.8 20.6,37.7 24.2,36.2 C27.8,34.7 28.7,34.2 28.7,34.2 L28.7,30.7 C28.7,30.7 27.3,29.7 26.9,26.4 C26,26.6 25.2,25.1 25.1,24.3 C25.1,23.5 25.2,21.4 26.3,21.6 C26.1,20 25.9,18.5 26,17.8 C26.3,15 29,12 33.3,12 C37.5,12 40.3,14.9 40.6,17.8 C40.7,18.6 40.5,20 40.3,21.6 C41.3,21.4 41.5,23.5 41.4,24.3 C41.4,25.1 40.5,26.6 39.6,26.4 C39.2,29.7 37.8,30.7 37.8,30.7 L37.8,33.1 C35.4,35.1 33.9,38 33.9,41.3 C33.9,43.6 34.6,45.7 35.9,47.4 L16.1,47.4 L16.1,47.4 Z M44.6,50.1 C39.7,50.1 35.8,46.1 35.8,41.3 C35.8,36.4 39.8,32.5 44.6,32.5 C49.5,32.5 53.4,36.5 53.4,41.3 C53.5,46.2 49.5,50.1 44.6,50.1 L44.6,50.1 Z" id="Shape"></path>
            </g>
        </g>
    </g>
</svg>