
<svg xmlns="http://www.w3.org/2000/svg" x="0px" y="0px"
	 width="64.299px" height="64.299px" viewBox="0 0 64.299 64.299" >

	<path fill="#5F6062" d="M43.566,36.446H24.499c-0.587,0-1.063,0.468-1.063,1.045c0,0.577,0.476,1.045,1.063,1.045h19.067
		c0.587,0,1.063-0.468,1.063-1.045C44.628,36.914,44.153,36.446,43.566,36.446z"/>
	<path fill="#5F6062" d="M24.55,32.498h7.635c0.575,0,1.045-0.47,1.045-1.045v-6.521c0-0.575-0.47-1.045-1.045-1.045H24.55
		c-0.575,0-1.045,0.47-1.045,1.045v6.521C23.506,32.028,23.976,32.498,24.55,32.498z"/>
	<path fill="#5F6062" d="M17.647,21.5c-0.577,0-1.045,0.468-1.045,1.045v19.813c0,0.577,0.468,1.045,1.045,1.045
		c0.577,0,1.045-0.468,1.045-1.045V22.544C18.692,21.967,18.224,21.5,17.647,21.5z"/>
	<path fill="#5F6062" d="M43.584,23.909h-6.196c-0.577,0-1.045,0.468-1.045,1.045s0.468,1.045,1.045,1.045h6.196
		c0.577,0,1.045-0.468,1.045-1.045S44.161,23.909,43.584,23.909z"/>
	<path fill="#5F6062" d="M32.149,0C14.394,0,0,14.394,0,32.149c0,17.756,14.394,32.149,32.149,32.149s32.149-14.394,32.149-32.149
		C64.299,14.394,49.905,0,32.149,0z M49.849,44.376c0,1.227-0.995,2.222-2.222,2.222H26.26h0h-8.561
		c-1.841,0-3.334-1.493-3.334-3.334V21.291c0-1.327,1.076-2.403,2.403-2.403h2.08v-0.222c0-1.227,0.995-2.222,2.222-2.222h26.556
		c1.227,0,2.222,0.995,2.222,2.222V44.376z"/>
	<path fill="#5F6062" d="M43.584,30.178h-6.196c-0.577,0-1.045,0.468-1.045,1.045c0,0.577,0.468,1.045,1.045,1.045h6.196
		c0.577,0,1.045-0.468,1.045-1.045C44.628,30.645,44.161,30.178,43.584,30.178z"/>

</svg>
