
<svg xmlns="http://www.w3.org/2000/svg" x="0px" y="0px"
	 width="64.299px" height="64.299px" viewBox="0 0 64.299 64.299">

	<path fill="#5F6062" d="M27.913,27.772h-5.602c-0.382,0-0.692,0.31-0.692,0.692v13.303c0,0.382,0.31,0.692,0.692,0.692h5.602
		c0.382,0,0.692-0.31,0.692-0.692V28.463C28.605,28.081,28.295,27.772,27.913,27.772z"/>
	<path fill="#5F6062" d="M32.149,0C14.394,0,0,14.394,0,32.149c0,17.756,14.394,32.149,32.149,32.149s32.149-14.394,32.149-32.149
		C64.299,14.394,49.905,0,32.149,0z M39.379,6.6c2.757,2.129,2.758,5.084,2.758,4.799c0-0.285,2.355-3.402,2.26-2.454
		c-0.095,0.948-1.097,2.211,1.598,6.825c0.639,1.093,1.001,2.082,1.164,2.978c0.077,0.414,0.117,0.84,0.117,1.276
		c0,1.995-0.84,3.793-2.186,5.061c-1.534-3.457-0.775-5.279-0.693-6.099c0.095-0.948-2.26,3.196-2.26,3.481
		c0,0.285-0.001-3.697-2.758-5.826c0,0-0.515,4.897-3.345,7.908c-0.166,0.176-0.324,0.356-0.476,0.539
		c-1.347-1.268-2.189-3.068-2.189-5.064c0-0.128,0.004-0.255,0.01-0.381c-0.021-2.21,0.976-4.378,2.654-6.164
		C38.864,10.47,39.379,6.6,39.379,6.6z M51.104,29.14c-0.251,0.285-0.602,0.431-0.955,0.431c-0.299,0-0.599-0.105-0.841-0.318
		l-1.502-1.324v15.477c0,0.767-0.621,1.388-1.388,1.388H17.834c-0.767,0-1.388-0.621-1.388-1.388V27.955l-1.472,1.298
		c-0.527,0.465-1.331,0.414-1.796-0.113c-0.465-0.527-0.414-1.331,0.113-1.796l18.009-15.875c0.481-0.424,1.202-0.424,1.683,0
		l1.516,1.337c-1.763,2.044-2.732,4.436-2.723,6.803c-0.007,0.138-0.01,0.277-0.01,0.417c0,0.023,0.003,0.046,0.004,0.069
		c0,0.024-0.004,0.047-0.004,0.071c0,2.907,1.455,5.47,3.673,7.013l0.304,0.198c1.321,0.838,2.884,1.33,4.564,1.33
		c1.51,0,2.925-0.395,4.156-1.082l0.88-0.571c0.954-0.699,1.752-1.594,2.348-2.62l3.301,2.91
		C51.518,27.809,51.569,28.613,51.104,29.14z"/>

</svg>
