
<svg xmlns="http://www.w3.org/2000/svg" x="0px" y="0px"
	 width="64.299px" height="64.299px" viewBox="0 0 64.299 64.299">

	<path fill="#5F6062" d="M20.076,30.651c-1.365,0-2.534,1.169-2.534,2.536c0,1.364,1.169,2.534,2.534,2.534
		c1.367,0,2.534-1.17,2.534-2.534C22.61,31.82,21.443,30.651,20.076,30.651z"/>
	<path fill="#5F6062" d="M41.728,30.651c-1.367,0-2.537,1.169-2.537,2.536c0,1.364,1.17,2.534,2.537,2.534
		c1.364,0,2.534-1.17,2.534-2.534C44.263,31.82,43.092,30.651,41.728,30.651z"/>
	<path fill="#5F6062" d="M32.149,0C14.394,0,0,14.394,0,32.149c0,17.756,14.394,32.149,32.149,32.149s32.149-14.394,32.149-32.149
		C64.299,14.394,49.905,0,32.149,0z M49.137,41.98L49.137,41.98v2.99c0,1.474-1.195,2.669-2.669,2.669h-0.783
		c-1.474,0-2.669-1.195-2.669-2.669v-1.815H18.99v1.815c0,1.474-1.195,2.669-2.669,2.669h-0.783c-1.474,0-2.669-1.195-2.669-2.669
		v-2.842c-0.006-0.049-0.01-0.098-0.01-0.148V31.861h0.004c0.04-0.946,1.093-2.277,2.134-3.37l3.381-9.19
		c0.729-1.98,2.615-3.296,4.725-3.296H33.42c-0.162,0.363-0.302,0.739-0.421,1.129c-0.145,0.478-0.247,0.943-0.316,1.389h-9.578
		c-1.055,0-1.999,0.658-2.363,1.648l-1.993,5.416c-0.161,0.438,0.163,0.903,0.63,0.903h12.142c-0.069,0.147-0.136,0.295-0.2,0.444
		c-0.312,0.729-0.228,1.546,0.231,2.241c0.563,0.853,1.633,1.426,2.663,1.426c0.978,0,1.836-0.531,2.239-1.385
		c0.517-1.094,1.149-2.057,1.632-2.725h0.053c1.535,0.454,2.993,0.684,4.346,0.684c1.39,0,2.649-0.246,3.761-0.731l0.817,2.221
		c1.017,1.11,2.025,2.401,2.07,3.198h0.004V41.98z M55.206,12.935c-5.335,2.821-4.952,8.616-8.691,11.229
		c-2.814,1.967-6.783,0.973-9.079,0.124c0,0-1.555,1.769-2.671,4.129c-0.374,0.793-2.013-0.078-1.726-0.748
		c3.646-8.484,16.059-12.716,16.059-12.716s-8.756-0.335-14.611,6.557c-0.156-1.576-0.415-5.832,4.117-8.445
		C44.747,9.522,56.453,12.275,55.206,12.935z"/>

</svg>
