
<svg xmlns="http://www.w3.org/2000/svg" x="0px" y="0px"
	 width="64.299px" height="64.299px" viewBox="0 0 64.299 64.299">
<path fill="#5F6062" d="M32.149,0C14.394,0,0,14.394,0,32.149c0,17.756,14.394,32.149,32.149,32.149s32.149-14.394,32.149-32.149
	C64.299,14.394,49.905,0,32.149,0z M36.095,11.519c0.762-1.566,6.669-1.785,8.111,2.671c1.694,5.242-0.19,8.151,2.157,10.524
	c-1.705,1.249-3.694,1.092-5.355,0.555c-0.26,0.353-0.532,0.691-0.81,1.011c0.289,1.883,1.257,3.78,3.789,4.581
	c0.034,0.011,0.068,0.021,0.102,0.032c-0.004,0.002-0.007,0.005-0.011,0.007c0.19,0.059,0.383,0.119,0.577,0.18
	c-0.362,0.221-0.709,0.48-1.037,0.777c-0.309-0.281-0.636-0.529-0.981-0.744c-0.978-0.61-2.088-0.933-3.208-0.933
	c-1.409,0-2.746,0.491-3.851,1.34c0.272-0.541,0.535-1.223,0.73-2.075c0.371-0.246,0.712-0.588,1.007-1.018
	c0.453-0.66,0.734-1.421,0.773-2.09c0.024-0.393,0.083-2.271-0.866-3.416c0.12-1.087,0.171-1.919,0.11-2.532
	c-0.165-1.713-1.073-3.402-2.493-4.635c-1.178-1.023-2.658-1.688-4.263-1.934C31.748,11.34,33.696,10.663,36.095,11.519z
	 M14.236,46.355c0,0-0.258-4.702,0.598-6.031c0.951-1.484,3.274-2.407,6.437-3.722c3.16-1.317,3.911-1.773,3.911-1.773l0.031-3.038
	c0,0-1.184-0.912-1.554-3.761c-0.742,0.217-1.515-1.106-1.562-1.801c-0.039-0.67,0.106-2.524,1.009-2.338
	c-0.183-1.401-0.317-2.657-0.256-3.321c0.239-2.443,2.637-5.008,6.323-5.008c3.688,0,6.089,2.565,6.323,5.008
	c0.067,0.664-0.069,1.921-0.25,3.321c0.901-0.186,1.042,1.668,1.001,2.338c-0.039,0.695-0.817,2.018-1.559,1.801
	c-0.367,2.849-1.548,3.761-1.548,3.761l0.025,3.038c0,0,0.005,0.003,0.016,0.009c-0.08,0.221-0.151,0.448-0.213,0.68
	c-0.434,1.651-0.557,4.276,1.318,7.411c0.709,1.186,1.64,2.329,2.784,3.425H14.236z M43.614,48.822
	c-17.692-9.985-4.894-22.402,0-14.039C48.513,26.42,61.31,38.837,43.614,48.822z"/>
</svg>
