
<svg xmlns="http://www.w3.org/2000/svg" x="0px" y="0px"
	 width="64.299px" height="64.299px" viewBox="0 0 64.299 64.299" >
<path fill="#5F6062" d="M32.149,0C14.394,0,0,14.394,0,32.149c0,17.756,14.394,32.149,32.149,32.149s32.149-14.394,32.149-32.149
	C64.299,14.394,49.905,0,32.149,0z M25.487,20.823c-0.211-1.61-0.364-3.053-0.294-3.817c0.275-2.807,3.031-5.755,7.266-5.755
	c4.238,0,6.997,2.948,7.265,5.755c0.077,0.763-0.08,2.207-0.287,3.817c1.035-0.214,1.198,1.917,1.15,2.686
	c-0.045,0.799-0.939,2.319-1.792,2.069c-0.422,3.274-1.779,4.321-1.779,4.321l0.015,1.861c-1.549,0.612-3.459,1.198-4.62,1.198
	c-1.129,0-2.994-0.568-4.523-1.164l0.019-1.896c0,0-1.361-1.047-1.785-4.321c-0.853,0.249-1.741-1.271-1.795-2.069
	C24.284,22.74,24.45,20.609,25.487,20.823z M15.296,46.635c0,0-0.297-5.404,0.687-6.93c1.092-1.705,3.762-2.766,7.397-4.277
	c1.423-0.593,2.421-1.034,3.108-1.352l2.971,12.558H15.296z M30.745,46.635l0.695-9.645c0.02-0.273,0.247-0.484,0.52-0.484h0.933
	c0.274,0,0.501,0.211,0.52,0.484l0.695,9.645H30.745z M34.365,34.467l-0.631,1.147c-0.123,0.224-0.359,0.364-0.615,0.364h-1.356
	c-0.256,0-0.492-0.139-0.615-0.364l-0.631-1.147c-0.258-0.468,0.081-1.041,0.615-1.041h2.619
	C34.284,33.426,34.622,33.999,34.365,34.467z M49.377,46.635h-13.95l2.969-12.575c0.688,0.318,1.696,0.765,3.143,1.368
	c3.635,1.511,6.059,2.571,7.154,4.277C49.667,41.231,49.377,46.635,49.377,46.635z"/>
</svg>
