
<svg xmlns="http://www.w3.org/2000/svg" x="0px" y="0px"
	 width="64.299px" height="64.299px" viewBox="0 0 64.299 64.299" >

	<circle fill="#5F6062" cx="26.272" cy="37.058" r="1.286"/>
	<path fill="#5F6062" d="M40.249,35.941h-9.542c-0.577,0-1.045,0.468-1.045,1.045c0,0.577,0.468,1.045,1.045,1.045h9.542
		c0.577,0,1.045-0.468,1.045-1.045C41.294,36.409,40.826,35.941,40.249,35.941z"/>
	<circle fill="#5F6062" cx="26.272" cy="24.779" r="1.286"/>
	<circle fill="#5F6062" cx="26.272" cy="30.892" r="1.286"/>
	<path fill="#5F6062" d="M40.249,23.765h-9.542c-0.577,0-1.045,0.468-1.045,1.045c0,0.577,0.468,1.045,1.045,1.045h9.542
		c0.577,0,1.045-0.468,1.045-1.045C41.294,24.233,40.826,23.765,40.249,23.765z"/>
	<path fill="#5F6062" d="M32.149,0C14.394,0,0,14.394,0,32.149c0,17.756,14.394,32.149,32.149,32.149s32.149-14.394,32.149-32.149
		C64.299,14.394,49.905,0,32.149,0z M48.45,45.887c0,1.443-1.17,2.613-2.613,2.613H20.798c-1.443,0-2.613-1.17-2.613-2.613V15.602
		c0-1.443,1.17-2.613,2.613-2.613h25.039c1.443,0,2.613,1.17,2.613,2.613V45.887z"/>
	<path fill="#5F6062" d="M40.249,29.827h-9.542c-0.577,0-1.045,0.468-1.045,1.045c0,0.577,0.468,1.045,1.045,1.045h9.542
		c0.577,0,1.045-0.468,1.045-1.045C41.294,30.295,40.826,29.827,40.249,29.827z"/>

</svg>
