
<svg xmlns="http://www.w3.org/2000/svg" x="0px" y="0px"
	 width="64.299px" height="64.299px" viewBox="0 0 64.299 64.299">

	<circle fill="#5F6062" cx="18.915" cy="36.018" r="1.747"/>
	<circle fill="#5F6062" cx="45.29" cy="36.018" r="1.747"/>
	<path fill="#5F6062" d="M32.149,0C14.394,0,0,14.394,0,32.149c0,17.756,14.394,32.149,32.149,32.149s32.149-14.394,32.149-32.149
		C64.299,14.394,49.905,0,32.149,0z M18.915,40.435c-2.44,0-4.417-1.978-4.417-4.417c0-2.44,1.978-4.417,4.417-4.417
		s4.417,1.978,4.417,4.417C23.333,38.458,21.355,40.435,18.915,40.435z M45.29,40.435c-2.44,0-4.417-1.978-4.417-4.417
		c0-2.44,1.978-4.417,4.417-4.417c2.44,0,4.417,1.978,4.417,4.417C49.707,38.458,47.73,40.435,45.29,40.435z M54.654,34.192
		c0,0.956-0.775,1.731-1.731,1.731h-1.773c-0.051-3.188-2.659-5.765-5.859-5.765s-5.808,2.578-5.859,5.765H24.774
		c-0.051-3.188-2.659-5.765-5.859-5.765c-3.2,0-5.808,2.578-5.859,5.765h-2.029c-0.763,0-1.382-0.619-1.382-1.382v-1.968
		c0-0.763,0.619-1.382,1.382-1.382v-3.124c0-2.231,1.809-4.04,4.04-4.04h5.899l4.709-4.274c1.062-0.964,2.445-1.498,3.879-1.498
		h5.866c0.573,0,1.059,0.42,1.142,0.986l0.01,4.785h15.543c0.956,0,1.731,0.775,1.731,1.731v5.433c0.446,0,0.808,0.362,0.808,0.808
		V34.192z"/>
	<path fill="#5F6062" d="M29.554,20.276c-0.934,0-1.829,0.346-2.521,0.973l-3.061,2.778h10.731l-0.032-3.751H29.554z"/>

</svg>
