<?xml version="1.0" encoding="utf-8"?>
<!-- Generator: Adobe Illustrator 19.2.1, SVG Export Plug-In . SVG Version: 6.00 Build 0)  -->
<svg version="1.1" id="Layer_1" xmlns="http://www.w3.org/2000/svg" xmlns:xlink="http://www.w3.org/1999/xlink" x="0px" y="0px"
	 viewBox="0 0 64.3 64.3" style="enable-background:new 0 0 64.3 64.3;" xml:space="preserve">
 
<g>
	<path class="st0" d="M17.8,47c0,0.4,0.3,0.7,0.7,0.7h27.2c0.4,0,0.7-0.3,0.7-0.7V28.1H17.8V47z M37.6,31.2c0-0.4,0.3-0.7,0.7-0.7
		h4.4c0.4,0,0.7,0.3,0.7,0.7v4.4c0,0.1,0,0.2-0.1,0.3c0,0,0,0,0,0.1c0,0,0,0.1-0.1,0.1l0,0l0,0c0,0,0,0-0.1,0.1s-0.2,0.1-0.4,0.1
		h-4.4c-0.4,0-0.7-0.3-0.7-0.7C37.6,35.6,37.6,31.2,37.6,31.2z M29.3,31.2c0-0.4,0.3-0.7,0.7-0.7h4.4c0.4,0,0.7,0.3,0.7,0.7v4.4
		c0,0.1,0,0.2-0.1,0.3c0,0,0,0,0,0.1c0,0,0,0.1-0.1,0.1l0,0l0,0c0,0,0,0-0.1,0.1s-0.2,0.1-0.4,0.1H30c-0.4,0-0.7-0.3-0.7-0.7V31.2z
		 M29.3,39.5c0-0.4,0.3-0.7,0.7-0.7h4.4c0.4,0,0.7,0.3,0.7,0.7v4.4c0,0.1,0,0.2-0.1,0.3c0,0,0,0,0,0.1c0,0,0,0.1-0.1,0.1l0,0l0,0
		c0,0,0,0-0.1,0.1s-0.2,0.1-0.4,0.1H30c-0.4,0-0.7-0.3-0.7-0.7V39.5z M21,31.2c0-0.4,0.3-0.7,0.7-0.7h4.4c0.4,0,0.7,0.3,0.7,0.7v4.4
		c0,0.1,0,0.2-0.1,0.3c0,0,0,0,0,0.1c0,0,0,0.1-0.1,0.1l0,0l0,0c0,0,0,0-0.1,0.1s-0.2,0.1-0.4,0.1h-4.4c-0.4,0-0.7-0.3-0.7-0.7V31.2
		z M21,39.5c0-0.4,0.3-0.7,0.7-0.7h4.4c0.4,0,0.7,0.3,0.7,0.7v4.4c0,0.1,0,0.2-0.1,0.3c0,0,0,0,0,0.1c0,0,0,0.1-0.1,0.1l0,0l0,0
		c0,0,0,0-0.1,0.1s-0.2,0.1-0.4,0.1h-4.4c-0.4,0-0.7-0.3-0.7-0.7V39.5z"/>
	<path class="st0" d="M32.1,0C14.4,0,0,14.4,0,32.1c0,17.8,14.4,32.1,32.1,32.1s32.1-14.4,32.1-32.1C64.3,14.4,49.9,0,32.1,0z
		 M40.4,14.7c0-0.3,0.3-0.5,0.5-0.5h1.4c0.3,0,0.5,0.3,0.5,0.5v5.9c0,0.3-0.2,0.5-0.5,0.5h-1.4c-0.3,0-0.5-0.3-0.5-0.5V14.7z
		 M21.4,14.7c0-0.3,0.3-0.5,0.5-0.5h1.4c0.3,0,0.5,0.3,0.5,0.5v5.9c0.1,0.3-0.2,0.5-0.5,0.5h-1.4c-0.3,0-0.5-0.3-0.5-0.5V14.7z
		 M48.9,47.7c0,1.4-1.1,2.5-2.5,2.5H17.8c-1.4,0-2.5-1.1-2.5-2.5V19.1c0-1.4,1.1-2.5,2.5-2.5h1.9v3.7c0,1.4,1.6,2.4,2.9,2.4
		c1.4,0,2.9-1.1,2.9-2.5v-3.7h13.1v3.7c0,1.4,1.6,2.5,2.9,2.5s2.9-1.1,2.9-2.5v-3.7h1.9c1.4,0,2.5,1.1,2.5,2.5L48.9,47.7L48.9,47.7z
		"/>
</g>
</svg>
