
<svg xmlns="http://www.w3.org/2000/svg" x="0px" y="0px"
	 width="64.299px" height="64.299px" viewBox="0 0 64.299 64.299" >
<path fill="#5F6062" d="M32.149,0C14.394,0,0,14.394,0,32.149c0,17.756,14.394,32.149,32.149,32.149s32.149-14.394,32.149-32.149
	C64.299,14.394,49.905,0,32.149,0z M25.816,39.27c0,0.319-0.117,0.595-0.355,0.829c-0.237,0.233-0.518,0.35-0.843,0.35h-6.514
	c-0.324,0-0.605-0.117-0.843-0.35c-0.236-0.234-0.355-0.51-0.355-0.829V27.573c0-0.32,0.119-0.597,0.355-0.83
	c0.236-0.232,0.519-0.349,0.843-0.349h6.514c0.325,0,0.606,0.117,0.843,0.349c0.238,0.233,0.355,0.51,0.355,0.83V39.27z
	 M48.604,27.487c-0.199,0.828-0.76,1.473-1.474,1.81c0.482,0.625,0.689,1.455,0.489,2.283c-0.199,0.828-0.76,1.473-1.474,1.81
	c0.482,0.625,0.689,1.455,0.489,2.283c-0.199,0.828-0.76,1.473-1.474,1.81c0.482,0.625,0.689,1.455,0.489,2.283
	c-0.316,1.316-1.546,2.169-2.855,2.057c-0.018,0.001-0.036,0.003-0.055,0.003l0,0.001h-7.194c-0.15,0-0.299-0.014-0.446-0.043
	l-6.992-1.359c-0.659-0.128-1.135-0.705-1.135-1.376V27.425c0-0.499,0.265-0.96,0.695-1.211l3.548-2.071h0.004l5.364-8.508
	c0.661-1.049,2.048-1.363,3.097-0.702v0c0.901,0.568,1.279,1.691,0.904,2.689l-2.449,6.521h7.397c0.027,0,0.052,0.003,0.077,0.007
	c0.159-0.012,0.32-0.009,0.482,0.006c0.171,0.007,0.343,0.03,0.516,0.072C48.06,24.577,48.953,26.036,48.604,27.487z"/>
</svg>
