<?xml version="1.0" encoding="utf-8"?>
<!-- Generator: Adobe Illustrator 19.2.1, SVG Export Plug-In . SVG Version: 6.00 Build 0)  -->
<svg version="1.1" id="icons" xmlns="http://www.w3.org/2000/svg" xmlns:xlink="http://www.w3.org/1999/xlink" x="0px" y="0px"
	 viewBox="0 0 64.3 64.3" enable-background="new 0 0 64.3 64.3" xml:space="preserve">
<path fill="#5F6062" d="M32.1,0C14.4,0,0,14.4,0,32.1c0,17.8,14.4,32.1,32.1,32.1s32.1-14.4,32.1-32.1C64.3,14.4,49.9,0,32.1,0z
	 M24.9,20.9c0.3-2.8,3-5.7,7.2-5.7c4.2,0,7,2.9,7.2,5.7c0.1,0.8-0.1,2.2-0.3,3.8l-0.6,4.7c-0.4,3.3-4.8,5.9-6.5,5.9
	s-5.7-2.6-6.1-5.9l-0.6-4.7C25,23.1,24.8,21.7,24.9,20.9z M49,48.8H15c0,0-0.3-5.4,0.7-6.9c1.1-1.7,3.7-2.8,7.4-4.3
	c3.6-1.5,5.5-2,5.5-2s1.2,1.2,3.4,1.2s3.7-1.2,3.7-1.2s1.9,0.5,5.5,2c3.6,1.5,6,2.6,7.1,4.3C49.2,43.5,49,48.8,49,48.8z"/>
</svg>
