
<svg xmlns="http://www.w3.org/2000/svg" x="0px" y="0px"
	 width="64.299px" height="64.299px" viewBox="0 0 64.299 64.299" >
<path fill="#5F6062" d="M32.149,0C14.394,0,0,14.394,0,32.149c0,17.756,14.394,32.149,32.149,32.149s32.149-14.394,32.149-32.149
	C64.299,14.394,49.905,0,32.149,0z M26.591,46.926h-9.197c0,0-0.808-8.118,0.406-9.348c1.54-1.556,4.145-2.25,6.373-2.953
	c2.921-0.924,4.046-3.112,4.384-5.285c-0.351-0.402-0.69-0.83-1.018-1.276c-1.66,0.667-3.573,0.961-5.66-0.244
	c2.718-2.747,0.473-3.41,1.631-9.691c1.007-5.468,3.745-7.202,7.374-5.907c0.882-1.814,7.724-2.067,9.394,3.094
	c1.962,6.072-0.22,9.441,2.499,12.19c-1.975,1.446-4.279,1.265-6.202,0.643c-0.301,0.409-0.616,0.8-0.938,1.171
	c0.119,0.772,0.336,1.546,0.697,2.265c-1.625,0.913-2.897,2.534-3.424,4.54c-0.435,1.655-0.559,4.288,1.321,7.432
	c0.697,1.166,1.608,2.291,2.725,3.37H26.591z M43.589,49.465c-17.742-10.014-4.908-22.466,0-14.079
	C48.501,27,61.335,39.452,43.589,49.465z"/>
</svg>
