
<svg xmlns="http://www.w3.org/2000/svg" x="0px" y="0px"
	 width="64.299px" height="64.299px" viewBox="0 0 64.299 64.299">
<path fill="#5F6062" d="M32.149,0C14.394,0,0,14.394,0,32.149s14.394,32.149,32.149,32.149s32.149-14.394,32.149-32.149
	S49.905,0,32.149,0z M48.578,27.85l-7.492,7.302l1.769,10.311c0.14,0.814-0.715,1.435-1.446,1.051l-9.26-4.868l-9.26,4.868
	c-0.731,0.384-1.586-0.236-1.446-1.051l1.769-10.311L15.72,27.85c-0.591-0.577-0.265-1.581,0.552-1.7l10.353-1.504l4.63-9.381
	c0.366-0.741,1.422-0.741,1.788,0l4.63,9.381l10.353,1.504C48.844,26.269,49.17,27.273,48.578,27.85z"/>
</svg>
