
<svg xmlns="http://www.w3.org/2000/svg" x="0px" y="0px"
	 width="64.299px" height="64.299px" viewBox="0 0 64.299 64.299">

	<path fill="#5F6062" d="M38.203,33.337H26.758c-0.845,0-1.53,0.685-1.53,1.53s0.685,1.53,1.53,1.53h11.445
		c0.845,0,1.53-0.685,1.53-1.53S39.047,33.337,38.203,33.337z"/>
	<path fill="#5F6062" d="M42.282,16.459H22.886c-0.534,0-1.001,0.358-1.14,0.873l-2.591,9.576c0.178-0.03,0.36-0.046,0.546-0.046
		h6.633l0.629,0.679c0.179,0.193,0.43,0.303,0.693,0.303h9.647c0.263,0,0.514-0.11,0.693-0.303l0.629-0.679h6.515
		c0.186,0,0.368,0.016,0.546,0.046l-2.676-9.89C42.922,16.688,42.623,16.459,42.282,16.459z M23.492,19.511
		c0-0.522,0.423-0.945,0.945-0.945h15.969c0.522,0,0.945,0.423,0.945,0.945v0.034c0,0.522-0.423,0.945-0.945,0.945H24.436
		c-0.522,0-0.945-0.423-0.945-0.945V19.511z M42.532,23.655c0,0.522-0.423,0.945-0.945,0.945H23.255
		c-0.522,0-0.945-0.423-0.945-0.945v-0.034c0-0.522,0.423-0.945,0.945-0.945h18.332c0.522,0,0.945,0.423,0.945,0.945V23.655z"/>
	<path fill="#5F6062" d="M32.149,0C14.394,0,0,14.394,0,32.149c0,17.756,14.394,32.149,32.149,32.149s32.149-14.394,32.149-32.149
		C64.299,14.394,49.905,0,32.149,0z M48.448,30.17v12.692v1.89c0,0.783-0.635,1.417-1.417,1.417h-1.89H19.702h-1.89
		c-0.783,0-1.417-0.635-1.417-1.417v-1.89V30.17v-1.644c0-0.292,0.039-0.582,0.115-0.864l3.193-11.802
		c0.279-1.03,1.213-1.745,2.28-1.745H42.86c1.067,0,2.002,0.715,2.28,1.745l3.193,11.802c0.076,0.282,0.115,0.572,0.115,0.864V30.17
		z"/>

</svg>
