
<svg xmlns="http://www.w3.org/2000/svg" x="0px" y="0px"
	 width="64.299px" height="64.299px" viewBox="0 0 64.299 64.299" >

	<path fill="#5F6062" d="M41.763,30.71c-1.393,0-2.585,1.191-2.585,2.584c0,1.39,1.192,2.583,2.585,2.583
		c1.39,0,2.583-1.192,2.583-2.583C44.345,31.901,43.153,30.71,41.763,30.71z"/>
	<path fill="#5F6062" d="M19.699,30.71c-1.391,0-2.583,1.191-2.583,2.584c0,1.39,1.191,2.583,2.583,2.583
		c1.393,0,2.583-1.192,2.583-2.583C22.281,31.901,21.091,30.71,19.699,30.71z"/>
	<path fill="#5F6062" d="M32.149,0C14.394,0,0,14.394,0,32.149c0,17.756,14.394,32.149,32.149,32.149s32.149-14.394,32.149-32.149
		C64.299,14.394,49.905,0,32.149,0z M49.313,42.255L49.313,42.255v3.047c0,1.502-1.218,2.72-2.72,2.72h-0.798
		c-1.502,0-2.72-1.218-2.72-2.72v-1.85H18.592v1.85c0,1.502-1.218,2.72-2.72,2.72h-0.798c-1.502,0-2.72-1.218-2.72-2.72v-2.896
		c-0.006-0.049-0.01-0.1-0.01-0.151V31.944h0.004c0.04-0.964,1.114-2.321,2.175-3.434l3.446-9.365
		c0.743-2.018,2.665-3.359,4.815-3.359h7.115c-0.104,0.42-0.185,0.845-0.243,1.275l-0.175,1.291h-6.696
		c-1.075,0-2.036,0.671-2.408,1.68l-2.031,5.519c-0.164,0.447,0.166,0.92,0.642,0.92H34.62c1.01,1.48,2.709,2.454,4.632,2.454
		c3.09,0,5.603-2.514,5.603-5.603v-1.005l2.343,6.369c1.036,1.131,2.064,2.447,2.109,3.258h0.004V42.255z M35.553,23.321
		c0-0.602,0.49-1.093,1.093-1.093c0.602,0,1.093,0.49,1.093,1.093c0,0.835,0.679,1.514,1.514,1.514c0.835,0,1.514-0.679,1.514-1.514
		v-4.674c0-0.602,0.49-1.093,1.093-1.093c0.602,0,1.093,0.49,1.093,1.093v4.674c0,2.04-1.66,3.699-3.7,3.699
		C37.212,27.02,35.553,25.361,35.553,23.321z M49.211,16.377c-1.445,0-2.75,0.6-3.679,1.564c-0.929-0.964-2.234-1.564-3.679-1.564
		c-1.445,0-2.75,0.6-3.679,1.564c-0.929-0.964-2.234-1.564-3.679-1.564c-1.1,0-2.119,0.348-2.953,0.939
		c0.641-4.726,4.454-8.443,9.224-8.938V7.635c0-0.602,0.49-1.093,1.093-1.093c0.602,0,1.093,0.49,1.093,1.093v0.744
		c4.765,0.5,8.572,4.215,9.212,8.937C51.33,16.724,50.311,16.377,49.211,16.377z"/>

</svg>
