
<svg  xmlns="http://www.w3.org/2000/svg" x="0px" y="0px"
	 width="64.299px" height="64.299px" viewBox="0 0 64.299 64.299" >

	<path fill="#5F6062" d="M28.015,25.168H20.01c-0.541,0-0.997,0.456-0.997,0.997v8.006c0,0.541,0.456,0.997,0.997,0.997h8.006
		c0.541,0,0.997-0.456,0.997-0.997v-8.006C29.013,25.624,28.557,25.168,28.015,25.168z"/>
	<path fill="#5F6062" d="M44.076,30.075H34.59c-0.586,0-1.062,0.475-1.062,1.062c0,0.586,0.475,1.062,1.062,1.062h9.486
		c0.586,0,1.062-0.475,1.062-1.062C45.138,30.55,44.662,30.075,44.076,30.075z"/>
	<path fill="#5F6062" d="M32.149,0C14.394,0,0,14.394,0,32.149c0,17.756,14.394,32.149,32.149,32.149s32.149-14.394,32.149-32.149
		C64.299,14.394,49.905,0,32.149,0z M49.831,41.656c0,1.257-1.019,2.276-2.276,2.276H16.743c-1.257,0-2.276-1.019-2.276-2.276V18.68
		c0-1.257,1.019-2.276,2.276-2.276h30.813c1.257,0,2.276,1.019,2.276,2.276V41.656z"/>
	<path fill="#5F6062" d="M44.076,25.121H34.59c-0.586,0-1.062,0.475-1.062,1.062s0.475,1.062,1.062,1.062h9.486
		c0.586,0,1.062-0.475,1.062-1.062S44.662,25.121,44.076,25.121z"/>

</svg>
