
<svg xmlns="http://www.w3.org/2000/svg" x="0px" y="0px"
	 width="64.299px" height="64.299px" viewBox="0 0 64.299 64.299" >

	<path fill="#5F6062" d="M27.266,21.902l-3.016,2.862h10.47V21.15h-5.2C28.713,21.15,27.912,21.417,27.266,21.902z"/>
	<circle fill="#5F6062" cx="46.854" cy="34.953" r="1.749"/>
	<circle fill="#5F6062" cx="18.716" cy="34.953" r="1.749"/>
	<path fill="#5F6062" d="M41.269,21.15h-4.777v3.614h8.234l-0.936-2C43.388,21.783,42.328,21.15,41.269,21.15z"/>
	<path fill="#5F6062" d="M32.149,0C14.394,0,0,14.394,0,32.149c0,17.756,14.394,32.149,32.149,32.149s32.149-14.394,32.149-32.149
		C64.299,14.394,49.905,0,32.149,0z M18.716,39.376c-2.442,0-4.422-1.98-4.422-4.422c0-2.442,1.98-4.422,4.422-4.422
		c2.442,0,4.422,1.98,4.422,4.422C23.138,37.396,21.158,39.376,18.716,39.376z M46.854,39.376c-2.442,0-4.422-1.98-4.422-4.422
		c0-2.442,1.98-4.422,4.422-4.422c2.442,0,4.422,1.98,4.422,4.422C51.276,37.396,49.296,39.376,46.854,39.376z M54.654,33.867
		c0,0.957-0.776,1.733-1.733,1.733h-0.236c0.023-0.212,0.036-0.428,0.036-0.647c0-3.235-2.632-5.867-5.867-5.867
		c-3.235,0-5.867,2.632-5.867,5.867c0,0.219,0.012,0.434,0.036,0.647H24.547c0.023-0.212,0.036-0.428,0.036-0.647
		c0-3.235-2.632-5.867-5.867-5.867c-3.235,0-5.867,2.632-5.867,5.867c0,0.219,0.012,0.434,0.036,0.647h-1.507
		c-0.957,0-1.733-0.776-1.733-1.733v-1.602c0-0.957,0.776-1.733,1.733-1.733h0.066v-1.723c0-2.234,1.811-4.044,4.044-4.044h5.393
		l5.171-4.48c1-0.751,2.217-1.156,3.468-1.156h11.749c1.876,0,3.565,1.133,4.277,2.869l1.366,2.768l5.434,0.008
		c0.956,0.001,1.731,0.777,1.731,1.733v4.026c0.319,0,0.578,0.259,0.578,0.578V33.867z"/>

</svg>
