
<svg xmlns="http://www.w3.org/2000/svg" x="0px" y="0px"
	 width="64.299px" height="64.299px" viewBox="0 0 64.299 64.299">

	<path fill="#5F6062" d="M40.734,23.565c-1.116-1.116-2.415-1.992-3.86-2.603c-1.494-0.632-3.084-0.953-4.725-0.953
		s-3.23,0.32-4.725,0.953c-1.445,0.611-2.744,1.487-3.86,2.603c-1.116,1.116-1.992,2.415-2.603,3.86
		c-0.632,1.494-0.953,3.084-0.953,4.725s0.321,3.23,0.953,4.725c0.611,1.445,1.487,2.744,2.603,3.86
		c1.116,1.116,2.415,1.992,3.86,2.603c1.494,0.632,3.084,0.953,4.725,0.953s3.23-0.32,4.725-0.953
		c1.445-0.611,2.744-1.487,3.86-2.603c1.116-1.116,1.992-2.415,2.603-3.86c0.632-1.494,0.953-3.084,0.953-4.725
		s-0.32-3.23-0.953-4.725C42.726,25.98,41.85,24.681,40.734,23.565z M30.822,23.03c0.073-0.619,0.6-1.098,1.238-1.096l0.012,0h0.001
		l0.003,0c0.029,0,0.057,0,0.085,0.001c0.686,0.01,1.234,0.573,1.226,1.259c-0.001,0.044-0.003,0.088-0.009,0.132
		c-0.073,0.624-0.608,1.104-1.25,1.096c-0.025,0-0.05,0-0.076-0.001c-0.687-0.002-1.242-0.56-1.24-1.247
		C30.814,23.125,30.817,23.077,30.822,23.03z M24.675,29.505c-0.01,0.084-0.028,0.168-0.056,0.251
		c-0.008,0.024-0.016,0.048-0.024,0.072c-0.212,0.653-0.913,1.011-1.566,0.799c-0.574-0.186-0.92-0.75-0.852-1.327
		c0.009-0.079,0.026-0.159,0.052-0.238c0.002-0.006,0.004-0.012,0.006-0.017v0c0-0.001,0.001-0.002,0.001-0.004c0,0,0-0.001,0-0.001
		c0-0.001,0.001-0.003,0.001-0.004c0-0.001,0.001-0.002,0.001-0.003c0,0,0.001-0.002,0.001-0.002c0-0.001,0.001-0.002,0.001-0.003
		c0-0.001,0.001-0.002,0.001-0.003c0-0.001,0-0.001,0.001-0.002c0.006-0.019,0.013-0.038,0.019-0.057
		c0.219-0.65,0.923-1,1.573-0.782C24.403,28.372,24.743,28.933,24.675,29.505z M26.597,26.258c-0.03,0.251-0.136,0.496-0.32,0.696
		c-0.017,0.019-0.034,0.037-0.051,0.056c-0.46,0.51-1.247,0.55-1.756,0.089c-0.311-0.281-0.447-0.683-0.401-1.069
		c0.029-0.247,0.132-0.487,0.311-0.686c0.005-0.006,0.011-0.012,0.016-0.018c0,0,0,0,0.001-0.001c0,0,0.001-0.001,0.001-0.001
		c0.001-0.001,0.002-0.002,0.003-0.004v0c0.001-0.001,0.003-0.003,0.004-0.004l0,0c0.011-0.012,0.022-0.024,0.033-0.036l0.001-0.001
		c0.001-0.001,0.002-0.002,0.003-0.003c0.002-0.002,0.004-0.004,0.006-0.006c0.465-0.505,1.251-0.537,1.756-0.072
		C26.509,25.478,26.642,25.875,26.597,26.258z M28.938,25.062c-0.023,0.01-0.046,0.02-0.069,0.03
		c-0.627,0.279-1.362-0.003-1.642-0.63c-0.094-0.212-0.124-0.435-0.099-0.65c0.05-0.421,0.314-0.807,0.73-0.992
		c0.002-0.001,0.004-0.002,0.006-0.002l0.002-0.001c0,0,0.001-0.001,0.005-0.002c0,0,0.001,0,0.003-0.001l0,0
		c0.018-0.008,0.036-0.016,0.054-0.024c0.007-0.003,0.014-0.006,0.022-0.009c0.63-0.273,1.362,0.016,1.635,0.646
		c0.09,0.209,0.119,0.428,0.094,0.639C29.629,24.491,29.36,24.879,28.938,25.062z M32.149,35.99c-0.828,0-1.499-0.671-1.499-1.499
		c0-0.129,0.016-0.255,0.047-0.375h0l1.086-7.215c0.022-0.186,0.179-0.326,0.366-0.326s0.344,0.14,0.366,0.326l1.086,7.215h0
		c0.031,0.12,0.047,0.245,0.047,0.375C33.648,35.319,32.977,35.99,32.149,35.99z M36.964,24.521
		c-0.286,0.624-1.024,0.898-1.649,0.612c-0.023-0.01-0.046-0.021-0.069-0.031c-0.509-0.227-0.79-0.755-0.728-1.28
		c0.014-0.122,0.047-0.244,0.1-0.362c0.28-0.627,1.016-0.908,1.643-0.628c0.007,0.003,0.014,0.006,0.021,0.01
		c0.001,0,0.002,0.001,0.003,0.001c0.023,0.01,0.045,0.021,0.068,0.031c0.502,0.231,0.776,0.754,0.715,1.275
		C37.054,24.274,37.019,24.399,36.964,24.521z M37.928,27.081c-0.017-0.019-0.033-0.038-0.05-0.057
		c-0.248-0.277-0.349-0.634-0.309-0.976c0.034-0.29,0.17-0.57,0.405-0.78c0.511-0.458,1.296-0.415,1.754,0.095
		c0.004,0.004,0.007,0.008,0.011,0.012c0.001,0.001,0.002,0.002,0.003,0.003l0,0c0.011,0.012,0.022,0.025,0.033,0.037l0,0
		c0.001,0.001,0.003,0.003,0.004,0.004l0.001,0.001c0.001,0.001,0.002,0.002,0.003,0.003c0.001,0.001,0.001,0.001,0.002,0.002
		l0.001,0.002c0.001,0.001,0.002,0.003,0.003,0.004l0.001,0.001c0.002,0.002,0.004,0.005,0.006,0.007
		c0.242,0.276,0.34,0.628,0.3,0.966c-0.035,0.294-0.174,0.577-0.414,0.788C39.167,27.648,38.381,27.597,37.928,27.081z
		 M41.95,29.699c-0.056,0.472-0.381,0.891-0.865,1.042c-0.655,0.205-1.353-0.161-1.557-0.816c-0.008-0.024-0.015-0.048-0.023-0.072
		c-0.057-0.176-0.072-0.355-0.052-0.527c0.055-0.468,0.375-0.884,0.853-1.039c0.654-0.211,1.354,0.148,1.565,0.801
		c0.004,0.012,0.008,0.023,0.011,0.035l0,0c0,0.001,0.001,0.003,0.001,0.004c0,0.001,0.001,0.002,0.001,0.003l0,0
		c0.006,0.018,0.011,0.036,0.017,0.053C41.955,29.358,41.97,29.532,41.95,29.699z"/>
	<path fill="#5F6062" d="M32.149,0C14.394,0,0,14.394,0,32.149c0,17.756,14.394,32.149,32.149,32.149s32.149-14.394,32.149-32.149
		C64.299,14.394,49.905,0,32.149,0z M32.149,48.037c-8.775,0-15.888-7.113-15.888-15.888c0-8.774,7.113-15.888,15.888-15.888
		c8.774,0,15.888,7.113,15.888,15.888C48.037,40.924,40.924,48.037,32.149,48.037z"/>

</svg>
