
<svg xmlns="http://www.w3.org/2000/svg" x="0px" y="0px"
	 width="64.299px" height="64.299px" viewBox="0 0 64.299 64.299">

	<path fill="#5F6062" d="M25.965,32.032h16.272c0.575,0,1.041-0.466,1.041-1.041c0-0.575-0.466-1.041-1.041-1.041H25.965
		c-0.575,0-1.041,0.466-1.041,1.041C24.924,31.566,25.39,32.032,25.965,32.032z"/>
	<path fill="#5F6062" d="M25.965,25.994h13.149c0.575,0,1.041-0.466,1.041-1.041c0-0.575-0.466-1.041-1.041-1.041H25.965
		c-0.575,0-1.041,0.466-1.041,1.041C24.924,25.528,25.39,25.994,25.965,25.994z"/>
	<path fill="#5F6062" d="M32.149,0C14.394,0,0,14.394,0,32.149c0,17.756,14.394,32.149,32.149,32.149s32.149-14.394,32.149-32.149
		C64.299,14.394,49.905,0,32.149,0z M20.78,48.55c-1.437,0-2.603-1.165-2.603-2.603V15.781c0-1.437,1.165-2.603,2.603-2.603h24.942
		c1.437,0,2.603,1.165,2.603,2.603V32.42c-1.116-0.402-2.319-0.622-3.572-0.622c-3.457,0-6.531,1.668-8.461,4.242H25.965
		c-0.575,0-1.041,0.466-1.041,1.041c0,0.575,0.466,1.041,1.041,1.041h9.11c-0.572,1.3-0.89,2.735-0.89,4.244
		c0,2.307,0.744,4.444,2.004,6.184H20.78z M44.753,51.098c-4.822,0-8.732-3.909-8.732-8.731s3.909-8.731,8.732-8.731
		c4.822,0,8.731,3.909,8.731,8.731S49.575,51.098,44.753,51.098z"/>
	<path fill="#5F6062" d="M48.81,41.607h-8.115c-0.342,0-0.618,0.277-0.618,0.619v0.281c0,0.342,0.277,0.618,0.618,0.618h8.115
		c0.342,0,0.618-0.277,0.618-0.618v-0.281C49.429,41.884,49.152,41.607,48.81,41.607z"/>

</svg>
