
<svg xmlns="http://www.w3.org/2000/svg" x="0px" y="0px"
	 width="64.299px" height="64.299px" viewBox="0 0 64.299 64.299" >

	<path fill="#5F6062" d="M48.304,21.436H15.92c-0.175,0-0.318,0.143-0.318,0.318v5.402c0,0.175,0.143,0.318,0.318,0.318h32.384
		c0.175,0,0.318-0.143,0.318-0.318v-5.402C48.621,21.579,48.478,21.436,48.304,21.436z"/>
	<path fill="#5F6062" d="M42.958,34.64H37.78c-1.325,0-2.408,1.084-2.408,2.408c0,1.325,1.084,2.408,2.408,2.408h5.178
		c1.325,0,2.408-1.084,2.408-2.408C45.366,35.723,44.282,34.64,42.958,34.64z"/>
	<path fill="#5F6062" d="M32.149,0C14.394,0,0,14.394,0,32.149c0,17.756,14.394,32.149,32.149,32.149s32.149-14.394,32.149-32.149
		C64.299,14.394,49.905,0,32.149,0z M49.731,41.579c0,1.253-1.016,2.269-2.269,2.269h-30.72c-1.253,0-2.269-1.016-2.269-2.269
		V18.673c0-1.253,1.016-2.269,2.269-2.269h30.72c1.253,0,2.269,1.016,2.269,2.269V41.579z"/>

</svg>
