
<svg xmlns="http://www.w3.org/2000/svg" x="0px" y="0px"
	 width="64.299px" height="64.299px" viewBox="0 0 64.299 64.299">
	<path fill="#5F6062" d="M32.149,0C14.394,0,0,14.394,0,32.149c0,17.756,14.394,32.149,32.149,32.149s32.149-14.394,32.149-32.149
		C64.299,14.394,49.905,0,32.149,0z M29.267,37.628l-6.925,6.925l3.555,0c1.012,0,1.836,0.824,1.836,1.836
		c0,1.012-0.824,1.836-1.836,1.836l-8.928,0c-0.493,0-0.895-0.401-0.895-0.895v-8.928c0-1.012,0.824-1.836,1.836-1.836
		c1.012,0,1.836,0.824,1.836,1.836v3.555l6.925-6.925c0.347-0.347,0.808-0.538,1.298-0.538c0.49,0,0.951,0.191,1.298,0.538
		c0.347,0.347,0.538,0.808,0.538,1.298C29.805,36.82,29.614,37.281,29.267,37.628z M29.267,29.267
		c-0.347,0.347-0.808,0.538-1.298,0.538c-0.49,0-0.951-0.191-1.298-0.538l-6.925-6.925v2.471c0,1.012-0.824,1.836-1.836,1.836
		c-1.012,0-1.836-0.824-1.836-1.836v-7.844c0-0.493,0.401-0.895,0.895-0.895h8.928c1.012,0,1.836,0.824,1.836,1.836
		c0,1.012-0.824,1.836-1.836,1.836h-3.555l6.925,6.925c0.347,0.347,0.538,0.808,0.538,1.298
		C29.805,28.459,29.614,28.92,29.267,29.267z M47.329,48.224h-8.928c-1.012,0-1.836-0.824-1.836-1.836
		c0-1.012,0.824-1.836,1.836-1.836h3.555l-6.925-6.925c-0.347-0.347-0.538-0.808-0.538-1.298c0-0.49,0.191-0.951,0.538-1.298
		c0.347-0.347,0.808-0.538,1.298-0.538c0.49,0,0.951,0.191,1.298,0.538l6.925,6.925l0-3.555c0-1.012,0.824-1.836,1.836-1.836
		c1.012,0,1.836,0.824,1.836,1.836v8.928C48.224,47.823,47.823,48.224,47.329,48.224z M48.224,24.814
		c0,1.012-0.824,1.836-1.836,1.836s-1.836-0.824-1.836-1.836v-2.472l-6.925,6.925c-0.347,0.347-0.808,0.538-1.298,0.538
		c-0.49,0-0.951-0.191-1.298-0.538c-0.716-0.716-0.716-1.88,0-2.596l6.925-6.925h-3.555c-1.012,0-1.836-0.824-1.836-1.836
		c0-1.012,0.824-1.836,1.836-1.836h8.928c0.493,0,0.895,0.401,0.895,0.895V24.814z"/>
</svg>
