
<svg xmlns="http://www.w3.org/2000/svg" x="0px" y="0px"
	 width="64.299px" height="64.299px" viewBox="0 0 64.299 64.299">

	<path fill="#5F6062" d="M41.115,26.246c1.79,0,3.245-1.509,3.245-3.36c0-1.85-1.455-3.356-3.245-3.356
		c-1.788,0-3.243,1.505-3.243,3.356C37.872,24.737,39.327,26.246,41.115,26.246z"/>
	<path fill="#5F6062" d="M32.149,0C14.394,0,0,14.394,0,32.149c0,17.756,14.394,32.149,32.149,32.149s32.149-14.394,32.149-32.149
		C64.299,14.394,49.905,0,32.149,0z M41.115,17.667c2.788,0,5.048,2.337,5.048,5.219c0,0.218-0.018,0.432-0.039,0.641
		c-0.422,4.079-4.607,8.784-4.607,8.784c-0.075,0.086-0.15,0.141-0.22,0.182h-0.005l-0.141,0.045l-0.14-0.045h-0.005
		c-0.071-0.041-0.141-0.096-0.216-0.182c0,0-4.246-4.701-4.677-8.775c-0.026-0.214-0.044-0.428-0.044-0.651
		C36.068,20.004,38.329,17.667,41.115,17.667z M48.409,29.751c-0.321,0.238-0.64,0.456-0.799,0.574
		c-0.31,0.232-0.415,0.697-0.315,0.999c0.032,0.098,0.086,0.179,0.161,0.23c0.244,0.162-1.091,0.165-1.783,0.744
		c-0.181,0.152-0.319,0.343-0.373,0.587c-0.253,1.161-0.855,0.134-0.97,0.987c-0.002,0.013-0.004,0.024-0.005,0.037
		c-0.043,0.38-0.11,0.689-0.137,0.936c-0.037,0.354,0.01,0.581,0.342,0.702c0.203,0.074-0.064,0.43-0.508,0.872
		c-0.307,0.306-0.7,0.652-1.081,0.973c-0.602,0.507-1.175,0.952-1.336,1.072c-0.105,0.078-0.169,0.264-0.201,0.501
		c-0.038,0.281-0.028,0.634,0.016,0.973c0.065,0.503,0.207,0.977,0.389,1.136c0.095,0.083,0.156,0.241,0.194,0.438
		c0.054,0.282,0.058,0.644,0.034,0.973c-0.031,0.44-0.108,0.825-0.176,0.893c-0.111,0.11-0.646-0.441-0.919-0.893
		c-0.107-0.176-0.174-0.338-0.159-0.439c0.021-0.147,0.007-0.337-0.024-0.535c-0.043-0.285-0.121-0.585-0.182-0.796
		c-0.102-0.358-1.077-0.512-1.129-0.205c-0.033,0.198-0.367-0.287-0.723-0.573c-0.195-0.156-0.396-0.252-0.56-0.144
		c-0.074,0.049-0.148,0.097-0.22,0.144c-0.378,0.247-0.704,0.469-0.704,0.727c0,0.307-2.053-0.614-2.361-0.564
		c-0.308,0.051-2.001,0.564-2.053,1.127c-0.008,0.084-0.014,0.181-0.02,0.284c-0.017,0.313-0.025,0.689-0.029,0.973
		c-0.003,0.252-0.003,0.432-0.003,0.432s-0.369-0.14-0.784-0.432c-0.325-0.229-0.678-0.551-0.904-0.973
		c-0.065-0.121-0.119-0.249-0.16-0.386c-0.2-0.683-0.51-1.049-0.773-1.187c-0.174-0.091-0.327-0.083-0.413,0
		c-0.018,0.017-0.034,0.037-0.045,0.06c-0.154,0.307-0.41,0.717-0.41,0.717s-0.382-0.332-0.68-0.778
		c-0.124-0.187-0.235-0.393-0.296-0.605c-0.052-0.182-0.214-0.298-0.433-0.369c-0.594-0.192-1.611-0.052-2,0h-0.394
		c-0.684-0.074-2.056-0.415-2.356-0.757c-0.359-0.409-0.924-0.205-1.231-0.154c-0.18,0.03-0.499-0.306-0.805-0.663
		c-0.219-0.254-0.431-0.519-0.581-0.668c-0.081-0.081-0.207-0.185-0.351-0.305c-0.486-0.406-1.188-1.003-1.14-1.574
		c0.001-0.011,0.001-0.022,0.003-0.034c0.066-0.483-0.337-0.698-0.632-0.94c-0.162-0.133-0.292-0.275-0.292-0.475v-5.068
		c0-0.297-0.387-0.747-0.526-1.089c-0.052-0.129-0.016-0.275,0.013-0.345c0.088-0.219,0.552,0.162,0.78,0.308
		c0.038,0.024,0.07,0.043,0.092,0.05c0.024,0.008,0.047-0.011,0.068-0.05c0.033-0.06,0.062-0.165,0.088-0.284
		c0.005-0.026,0.01-0.051,0.016-0.078c0.054-0.285,0.085-0.611,0.085-0.611H33.65c0,0,1.179,0.45,2.047,0.668
		c1.316,4.124,4.938,7.541,4.938,7.541c0.087,0.1,0.167,0.163,0.249,0.21h0.005l0.161,0.053l0.161-0.053h0.005
		c0.081-0.047,0.167-0.11,0.252-0.21c0,0,2.334-2.023,3.913-5.217c0.734-0.017,1.292-0.046,1.408-0.074
		c0.279-0.07,0.416-0.258,0.475-0.371c0.028-0.054,0.038-0.09,0.038-0.09s1.735-0.148,1.989,0.09
		c0.004,0.004,0.009,0.008,0.013,0.012C49.429,28.947,48.918,29.374,48.409,29.751z"/>

</svg>
