
<svg xmlns="http://www.w3.org/2000/svg" x="0px" y="0px"
	 width="64.299px" height="64.299px" viewBox="0 0 64.299 64.299">

	<path fill="#5F6062" d="M27.905,27.847h-5.599c-0.382,0-0.691,0.31-0.691,0.691v13.296c0,0.382,0.309,0.691,0.691,0.691h5.599
		c0.382,0,0.691-0.309,0.691-0.691V28.539C28.596,28.157,28.286,27.847,27.905,27.847z"/>
	<path fill="#5F6062" d="M32.149,0C14.394,0,0,14.394,0,32.149c0,17.756,14.394,32.149,32.149,32.149s32.149-14.394,32.149-32.149
		C64.299,14.394,49.905,0,32.149,0z M51.082,29.215c-0.251,0.285-0.602,0.431-0.954,0.431c-0.299,0-0.599-0.105-0.84-0.318
		l-1.501-1.323v15.468c0,0.766-0.621,1.387-1.387,1.387H17.831c-0.766,0-1.387-0.621-1.387-1.387V28.031l-1.471,1.297
		c-0.527,0.464-1.331,0.414-1.795-0.113c-0.464-0.527-0.414-1.33,0.113-1.795l17.998-15.866c0.481-0.424,1.201-0.424,1.682,0
		l2.383,2.101c-1.526,1.523-2.717,3.844-2.37,7.35l0.211,2.127c-0.521,0.76-0.978,1.567-1.345,2.422
		c-0.268,0.627-0.196,1.329,0.199,1.927c0.485,0.735,1.407,1.228,2.294,1.228c0.841,0,1.579-0.456,1.926-1.191
		c0.454-0.961,1.01-1.805,1.431-2.386c1.347,0.403,2.625,0.607,3.812,0.607c1.714,0,3.198-0.43,4.412-1.279
		c0.319-0.223,0.6-0.47,0.865-0.725l4.18,3.685C51.496,27.885,51.547,28.688,51.082,29.215z M52.538,13.413
		c-4.624,2.445-4.293,7.468-7.533,9.733c-2.439,1.705-5.88,0.843-7.87,0.108c0,0-1.348,1.534-2.315,3.579
		c-0.324,0.687-1.745-0.068-1.496-0.649c3.16-7.354,13.92-11.022,13.92-11.022s-7.589-0.29-12.665,5.684
		c-0.135-1.366-0.36-5.055,3.569-7.32C43.473,10.455,53.62,12.841,52.538,13.413z"/>

</svg>
