
<svg xmlns="http://www.w3.org/2000/svg" x="0px" y="0px"
	 width="64.299px" height="64.299px" viewBox="0 0 64.299 64.299">

	<path fill="#5F6062" d="M32.149,0C14.394,0,0,14.394,0,32.149s14.394,32.149,32.149,32.149s32.149-14.394,32.149-32.149
		S49.905,0,32.149,0z M37.954,36.502c-1.684,0-3.266-0.416-4.664-1.141l-5.286,5.285c-0.132,0.132-0.312,0.206-0.498,0.206h-1.908
		c-0.389,0-0.705,0.316-0.705,0.705v1.495c0,0.389-0.316,0.705-0.705,0.705h-1.49c-0.389,0-0.705,0.316-0.705,0.705v1.904
		c0,0.187-0.074,0.366-0.207,0.498l-1.039,1.039c-0.132,0.132-0.312,0.207-0.498,0.207h-3.122c-0.519,0-0.94-0.421-0.94-0.94v-3.12
		c0-0.187,0.074-0.366,0.207-0.498l12.542-12.542c-0.722-1.399-1.139-2.982-1.139-4.665c0-5.607,4.547-10.156,10.156-10.156
		c5.606-0.001,10.156,4.548,10.156,10.156C48.111,31.953,43.561,36.502,37.954,36.502z"/>
	<path fill="#5F6062" d="M40.796,20.178c-1.837,0-3.326,1.488-3.326,3.325c0,1.836,1.489,3.325,3.326,3.325
		c1.834,0,3.324-1.489,3.324-3.326C44.12,21.667,42.63,20.178,40.796,20.178z"/>

</svg>
