
<svg  xmlns="http://www.w3.org/2000/svg"  x="0px" y="0px"
	 width="64.299px" height="64.299px" viewBox="0 0 64.299 64.299" >
<path fill="#5F6062" d="M32.149,0C14.394,0,0,14.394,0,32.149s14.394,32.149,32.149,32.149s32.149-14.394,32.149-32.149
	S49.905,0,32.149,0z M31.803,41.234l-2.759,2.743c-1.47,1.454-3.403,2.18-5.335,2.18c-1.933,0-3.849-0.727-5.319-2.18
	c-1.421-1.421-2.213-3.304-2.213-5.302c0-1.999,0.793-3.882,2.213-5.302l5.947-5.897c3.7-3.667,7.945-4.196,10.819-1.338
	c0.776,0.776,0.776,2.015,0.017,2.792c-0.776,0.776-2.015,0.776-2.792,0.017c-1.685-1.668-4.014,0.116-5.236,1.354l-5.947,5.897
	c-0.677,0.661-1.041,1.553-1.041,2.494s0.363,1.833,1.041,2.494c1.404,1.388,3.684,1.388,5.071,0l2.76-2.743
	c0.776-0.776,2.032-0.76,2.792,0.017C32.58,39.219,32.58,40.458,31.803,41.234z M45.893,27.261l-6.343,6.293
	c-1.966,1.949-4.014,2.924-5.98,2.924c-1.586,0-3.105-0.661-4.443-1.982c-0.776-0.777-0.776-2.015-0.017-2.792
	c0.776-0.776,2.015-0.776,2.792-0.017c0.578,0.578,1.933,1.933,4.84-0.958l6.343-6.293c0.677-0.661,1.041-1.553,1.041-2.494
	c0-0.942-0.363-1.833-1.041-2.494c-1.255-1.255-3.204-1.866-4.675-0.396l-3.341,3.357c-0.776,0.776-2.032,0.76-2.792-0.016
	c-0.776-0.776-0.76-2.032,0.016-2.792l3.357-3.341c2.858-2.841,7.169-2.676,10.258,0.397c1.421,1.42,2.213,3.304,2.213,5.302
	C48.106,23.957,47.313,25.84,45.893,27.261z"/>
</svg>
