<?xml version="1.0" encoding="utf-8"?>
<!-- Generator: Adobe Illustrator 19.2.1, SVG Export Plug-In . SVG Version: 6.00 Build 0)  -->
<svg version="1.1" id="Layer_1" xmlns="http://www.w3.org/2000/svg" xmlns:xlink="http://www.w3.org/1999/xlink" x="0px" y="0px"
	 viewBox="0 0 64.3 64.3" style="enable-background:new 0 0 64.3 64.3;" xml:space="preserve">

<path class="st0" d="M48.1,16.9l-5.7,5.8l-2.5-2.6c-0.3-0.3-0.8-0.3-1.1,0c-0.3,0.3-0.3,0.8,0,1.1l3.1,3.2c0.2,0.2,0.4,0.2,0.6,0.2
	h0c0.2,0,0.4-0.1,0.6-0.2l6.3-6.4c0.3-0.3,0.3-0.8,0-1.1C48.9,16.5,48.4,16.5,48.1,16.9z"/>
<path class="st0" d="M32.1,0C14.4,0,0,14.4,0,32.1c0,17.8,14.4,32.1,32.1,32.1s32.1-14.4,32.1-32.1C64.3,14.4,49.9,0,32.1,0z
	 M21.2,12.2c0-0.3,0.3-0.5,0.5-0.5h1.5c0.3,0,0.5,0.3,0.5,0.5v6.2c0.1,0.3-0.2,0.5-0.5,0.5h-1.5c-0.3,0-0.5-0.3-0.5-0.5V12.2z
	 M50.2,47.2c0,1.5-1.2,2.6-2.6,2.6H17.5c-1.5,0-2.6-1.2-2.6-2.6V16.9c0-1.5,1.2-2.6,2.6-2.6h2v3.9c0,1.5,1.7,2.5,3.1,2.5
	c1.5,0,3.1-1.2,3.1-2.6v-3.9h9.9c-0.5,0.6-1,1.4-1.3,2.2c-0.5,1.3-0.8,2.6-0.8,4s0.3,2.7,0.8,4c0.3,0.6,0.6,1.3,1.1,1.9h-18v19.9
	c0,0.4,0.3,0.7,0.7,0.7h28.7c0.4,0,0.7-0.3,0.7-0.7v-16c0.2,0,0.2-0.1,0.3-0.1c0.8-0.3,1.7-0.8,2.3-1.4V47.2z M35.4,34.6
	c0,0,0,0,0,0.1c0,0,0,0.1-0.1,0.1c0,0,0,0-0.1,0.1c-0.1,0.1-0.2,0.1-0.4,0.1h-4.5c-0.4,0-0.7-0.3-0.7-0.7v-4.6
	c0-0.4,0.3-0.7,0.7-0.7h4.6c0.4,0,0.7,0.3,0.7,0.7v4.6h-0.1C35.5,34.4,35.5,34.5,35.4,34.6z M35.5,38.4v4.6c0,0.1,0,0.2-0.1,0.3
	c0,0,0,0,0,0.1c0,0,0,0.1-0.1,0.1c0,0,0,0-0.1,0.1c-0.1,0.1-0.2,0.1-0.4,0.1h-4.5c-0.4,0-0.7-0.3-0.7-0.7v-4.6
	c0-0.4,0.3-0.7,0.7-0.7h4.6C35.2,37.8,35.5,38.1,35.5,38.4z M26.8,34.6c0,0,0,0,0,0.1c0,0,0,0.1-0.1,0.1c0,0,0,0-0.1,0.1
	c-0.1,0.1-0.2,0.1-0.4,0.1h-4.6c-0.4,0-0.7-0.3-0.7-0.7v-4.6c0-0.4,0.3-0.7,0.7-0.7h4.6c0.4,0,0.7,0.3,0.7,0.7v4.6
	C26.9,34.4,26.9,34.5,26.8,34.6z M26.9,38.4v4.6c0,0.1,0,0.2-0.1,0.3c0,0,0,0,0,0.1c0,0,0,0.1-0.1,0.1c0,0,0,0-0.1,0.1
	c-0.1,0.1-0.2,0.1-0.4,0.1h-4.6c-0.4,0-0.7-0.3-0.7-0.7v-4.6c0-0.4,0.3-0.7,0.7-0.7h4.6C26.6,37.8,26.9,38.1,26.9,38.4z M38.3,34.3
	v-4.6c0-0.1,0-0.2,0.1-0.3c0.4,0.3,1,0.5,1.4,0.7c1.3,0.5,2.6,0.8,4,0.8c0.1,0,0.3,0,0.4,0v3.5c0,0.1,0,0.2-0.1,0.3c0,0,0,0,0,0.1
	c0,0,0,0.1-0.1,0.1c0,0,0,0-0.1,0.1c-0.1,0.1-0.2,0.1-0.4,0.1H39v-0.1C38.6,35.1,38.3,34.7,38.3,34.3z M43.8,29.3
	c-4.9,0-8.8-3.9-8.8-8.8s3.9-8.8,8.8-8.8s8.8,3.9,8.8,8.8S48.7,29.3,43.8,29.3z"/>
</svg>
