
<svg  xmlns="http://www.w3.org/2000/svg" x="0px" y="0px"
	 width="64.299px" height="64.299px" viewBox="0 0 64.299 64.299">

	<path fill="#5F6062" d="M26.718,24.578c0,1.75,1.355,3.37,3.459,4.141l0.626,0.177v-8.657c-0.922,0.244-1.76,0.66-2.455,1.226
		C27.297,22.322,26.718,23.428,26.718,24.578z"/>
	<path fill="#5F6062" d="M34.781,42.809c0.922-0.244,1.761-0.66,2.455-1.226c1.051-0.858,1.631-1.964,1.631-3.114
		c0-1.75-1.356-3.37-3.459-4.141l-0.626-0.177V42.809z"/>
	<path fill="#5F6062" d="M32.149,0C14.394,0,0,14.394,0,32.149s14.394,32.149,32.149,32.149s32.149-14.394,32.149-32.149
		S49.905,0,32.149,0z M36.621,30.536l0.063,0.022c3.743,1.334,6.161,4.439,6.161,7.909c0,1.21-0.288,2.38-0.857,3.477
		c-0.532,1.026-1.284,1.941-2.236,2.718c-1.392,1.136-3.111,1.893-4.971,2.209v1.007c0,1.099-0.891,1.989-1.989,1.989
		c-1.099,0-1.989-0.891-1.989-1.989v-1.007c-1.86-0.316-3.579-1.073-4.971-2.209c-0.952-0.777-1.704-1.692-2.236-2.718
		c-0.568-1.097-0.857-2.267-0.857-3.477c0-1.099,0.891-1.989,1.989-1.989c1.099,0,1.989,0.891,1.989,1.989
		c0,1.15,0.579,2.256,1.63,3.114c0.694,0.567,1.533,0.982,2.455,1.226v-9.78l-1.839-0.519l-0.063-0.023
		c-3.743-1.334-6.161-4.439-6.161-7.909c0-1.21,0.288-2.38,0.857-3.477c0.532-1.026,1.284-1.941,2.236-2.718
		c1.392-1.136,3.111-1.893,4.971-2.209v-1.041c0-1.099,0.891-1.989,1.989-1.989c1.099,0,1.989,0.891,1.989,1.989v1.041
		c1.86,0.316,3.579,1.073,4.971,2.209c0.952,0.777,1.705,1.692,2.236,2.718c0.568,1.097,0.857,2.267,0.857,3.477
		c0,1.099-0.891,1.989-1.989,1.989c-1.099,0-1.989-0.891-1.989-1.989c0-1.15-0.579-2.256-1.631-3.114
		c-0.694-0.567-1.533-0.982-2.455-1.226v9.78L36.621,30.536z"/>

</svg>
