<?xml version="1.0" encoding="utf-8"?>
<!-- Generator: Adobe Illustrator 19.2.1, SVG Export Plug-In . SVG Version: 6.00 Build 0)  -->
<svg version="1.1" id="Layer_1" xmlns="http://www.w3.org/2000/svg" xmlns:xlink="http://www.w3.org/1999/xlink" x="0px" y="0px" width="64.3px" height="64.3px" viewBox="0 0 64.3 64.3" style="enable-background:new 0 0 64.3 64.3;" xml:space="preserve">
<g id="Layer_2" class="st0">
</g>
<g id="icons">
	<path class="st1" d="M32.1-0.1C14.3-0.1,0,14.2,0,31.9s14.3,32.2,32.1,32.2s32.1-14.4,32.1-32.1S49.8-0.1,32.1-0.1z M14.4,32.5
		c0-1.1,0.9-2,2-2h15.4L28,26.6c-0.8-0.8-0.8-2.1,0-2.9s2.1-0.8,2.8,0l7.6,7.6c0.5,0.5,0.5,1.3,0,1.8l-7.6,7.6
		c-0.8,0.8-2.1,0.8-2.8,0c-0.8-0.8-0.8-2,0-2.8l3.6-3.5H16.4C15.2,34.5,14.4,33.6,14.4,32.5z M46.5,47.6c0,1-0.7,1.9-1.6,1.9H22.6
		c-1.1,0-2-0.9-2-2s0.9-2,2-2h18.9c0.6,0,0.9-0.6,0.9-1.2v-24c0-0.6-0.4-0.8-0.9-0.8H22.6c-1.1,0-2-0.9-2-2s0.9-2,2-2h22.2
		c1,0,1.6,0.5,1.6,1.5L46.5,47.6L46.5,47.6z"/>
</g>
</svg>
