
<svg  xmlns="http://www.w3.org/2000/svg" x="0px" y="0px"
	 width="64.299px" height="64.299px" viewBox="0 0 64.299 64.299">

	<path fill="#5F6062" d="M44.777,36.449h-9.461c-0.585,0-1.059,0.474-1.059,1.059s0.474,1.059,1.059,1.059h9.461
		c0.585,0,1.059-0.474,1.059-1.059S45.362,36.449,44.777,36.449z"/>
	<path fill="#5F6062" d="M27.603,21.589c-1.095-0.854-2.759-1.401-4.621-1.401c-3.29,0-5.966,1.706-5.966,3.802
		c0,1.236,0.934,2.332,2.37,3.027c-1.478,1.405-2.11,2.505-1.776,3.099c0.395,0.703,2.053,0.558,4.549-0.397l0.047-0.018
		l-0.072-0.105l-0.028,0.01c-1.917,0.686-3.241,0.775-3.542,0.24c-0.265-0.47,0.27-1.402,1.465-2.557
		c0.871,0.319,1.878,0.503,2.953,0.503c3.289,0,5.966-1.706,5.966-3.802c0-0.696-0.3-1.348-0.815-1.91
		c2.521-1.085,4.384-1.369,4.749-0.719c0.443,0.788-1.315,2.767-4.276,4.813L28.568,26.2l0.085,0.094l0.027-0.018
		c3.701-2.472,5.896-4.892,5.337-5.884C33.524,19.513,31.006,19.984,27.603,21.589z M26.112,24.943c-0.089,0-1.043,0-1.131,0
		c0.024-0.089,0.496-1.87,0.559-2.109C25.604,23.073,26.088,24.853,26.112,24.943z M22.67,20.601
		c-0.028,0.103-1.078,4.017-1.14,4.248c-0.065-0.229-1.049-3.694-1.068-3.761C21.129,20.803,21.89,20.637,22.67,20.601z
		 M23.232,24.943c-0.089,0-1.046,0-1.135,0c0.024-0.089,0.499-1.871,0.562-2.109C22.725,23.072,23.208,24.853,23.232,24.943z
		 M20.343,24.943c-0.089,0-1.036,0-1.124,0c0.024-0.089,0.498-1.868,0.561-2.107C19.845,23.075,20.319,24.854,20.343,24.943z
		 M18.122,23.99c0-0.898,0.497-1.738,1.397-2.377c-0.054,0.201-0.953,3.549-0.998,3.716C18.26,24.905,18.122,24.455,18.122,23.99z
		 M18.964,25.899c0.011-0.04,0.098-0.368,0.111-0.417c0.055,0,1.356,0,1.412,0c0.014,0.054,0.39,1.461,0.421,1.577
		C20.124,26.8,19.452,26.401,18.964,25.899z M22.982,27.388c-0.507,0-1.009-0.057-1.492-0.166c0.021-0.079,0.45-1.685,0.464-1.74
		c0.055,0,1.371,0,1.425,0c0.015,0.054,0.477,1.757,0.501,1.845C23.584,27.366,23.282,27.388,22.982,27.388z M23.202,20.599
		c0.784,0.025,1.551,0.181,2.225,0.457c-0.018,0.068-0.953,3.553-1.016,3.789C24.344,24.61,23.232,20.702,23.202,20.599z
		 M25.043,27.064c-0.022-0.077-0.318-1.115-0.324-1.135c0.005-0.019,0.105-0.397,0.119-0.447c0.055,0,1.365,0,1.421,0
		c0.014,0.052,0.218,0.802,0.232,0.854C26.074,26.642,25.586,26.886,25.043,27.064z M27.433,25.346
		c-0.046-0.163-1.025-3.601-1.081-3.799c0.946,0.639,1.49,1.523,1.49,2.443C27.842,24.462,27.701,24.917,27.433,25.346z"/>
	<path fill="#5F6062" d="M32.149,0C14.394,0,0,14.394,0,32.149c0,17.756,14.394,32.149,32.149,32.149s32.149-14.394,32.149-32.149
		C64.299,14.394,49.905,0,32.149,0z M49.831,41.656c0,1.257-1.019,2.276-2.276,2.276H16.743c-1.257,0-2.276-1.019-2.276-2.276V18.68
		c0-1.257,1.019-2.276,2.276-2.276h30.813c1.257,0,2.276,1.019,2.276,2.276V41.656z"/>
	<path fill="#5F6062" d="M44.777,31.508h-9.461c-0.585,0-1.059,0.474-1.059,1.059s0.474,1.059,1.059,1.059h9.461
		c0.585,0,1.059-0.474,1.059-1.059S45.362,31.508,44.777,31.508z"/>

</svg>
