
<svg xmlns="http://www.w3.org/2000/svg" x="0px" y="0px"
	 width="64.299px" height="64.299px" viewBox="0 0 64.299 64.299">
<path fill="#5F6062" d="M0,32.149c0,17.756,14.394,32.149,32.149,32.149s32.149-14.394,32.149-32.149
	C64.299,14.394,49.905,0,32.149,0C14.394,0,0,14.394,0,32.149z M16.783,19.318c0.041-0.104,0.095-0.203,0.163-0.296
	c0.039-0.054,0.083-0.105,0.132-0.153l1.469-1.469l1.977-1.977c0.516-0.516,1.352-0.516,1.867,0l1.256,1.256l0.704,0.776
	l3.404,4.769c0.516,0.516,0.516,1.352,0,1.867l-2.729,2.728c-0.407,0.407-1.014,0.492-1.505,0.257
	c0.624,2.98,2.083,5.804,4.381,8.102c2.298,2.298,5.122,3.757,8.102,4.381c-0.236-0.491-0.151-1.098,0.256-1.506l2.728-2.728
	c0.516-0.516,1.352-0.516,1.867,0l4.77,3.405l0.776,0.704l1.255,1.255c0.516,0.516,0.516,1.352,0,1.867l-1.975,1.975l-1.472,1.472
	c-0.051,0.051-0.106,0.097-0.163,0.138c-0.088,0.064-0.182,0.115-0.28,0.154c-4.219,2.153-12.302-1.057-19.114-7.869
	C17.846,31.618,14.635,23.539,16.783,19.318z"/>
</svg>
