
<svg xmlns="http://www.w3.org/2000/svg" x="0px" y="0px"
	 width="64.299px" height="64.299px" viewBox="0 0 64.299 64.299" >

	<path fill="#5F6062" d="M32.515,39.013H23.19c-0.508,0-0.92,0.412-0.92,0.92c0,0.508,0.412,0.92,0.92,0.92h9.324
		c0.508,0,0.92-0.412,0.92-0.92C33.435,39.425,33.023,39.013,32.515,39.013z"/>
	<path fill="#5F6062" d="M37.577,33.629H23.19c-0.508,0-0.92,0.412-0.92,0.92c0,0.508,0.412,0.92,0.92,0.92h14.387
		c0.508,0,0.92-0.412,0.92-0.92C38.497,34.041,38.085,33.629,37.577,33.629z"/>
	<path fill="#5F6062" d="M23.19,30.131h11.626c0.508,0,0.92-0.412,0.92-0.92c0-0.508-0.412-0.92-0.92-0.92H23.19
		c-0.508,0-0.92,0.412-0.92,0.92C22.27,29.719,22.682,30.131,23.19,30.131z"/>
	<path fill="#5F6062" d="M32.149,0C14.394,0,0,14.394,0,32.149c0,17.756,14.394,32.149,32.149,32.149s32.149-14.394,32.149-32.149
		C64.299,14.394,49.905,0,32.149,0z M42.959,47.772c0,1.271-1.03,2.301-2.301,2.301H18.606c-1.271,0-2.301-1.03-2.301-2.301V21.101
		c0-1.271,1.03-2.301,2.301-2.301h22.052c1.271,0,2.301,1.03,2.301,2.301V47.772z M48.237,42.561c0,1.271-1.03,2.301-2.301,2.301
		H44.84V21.101c0-2.306-1.876-4.182-4.182-4.182H21.582v-1.03c0-1.271,1.03-2.301,2.301-2.301h22.052
		c1.271,0,2.301,1.03,2.301,2.301V42.561z"/>

</svg>
