<svg enable-background="new 0 0 100 100" viewBox="0 0 100 100" xmlns="http://www.w3.org/2000/svg"><g fill="#5f6062"><path d="m72 49c-.8 0-1.5.1-2.2.2-.8-3.6-4-6.4-7.9-6.4-.2 0-.4 0-.6 0-1.1-6.8-6.9-12-14-12-6.3 0-11.7 4.1-13.5 9.9-.5-.1-1-.1-1.5-.1-7.8 0-14.2 6.3-14.2 14.2 0 7.7 6.1 13.9 13.7 14.1h5.8v-2.7c-1.6-.1-2.9-1.1-3.5-2.5-.6-1.5-.3-3.3.9-4.5l8-8c.8-.8 1.8-1.2 2.9-1.2s2.1.4 2.9 1.2l8 8c1.2 1.2 1.5 3 .9 4.5s-2 2.4-3.5 2.5v2.8h17.8c5.6 0 10-4.5 10-10s-4.5-10-10-10z"/><path d="m54.6 61.6-8-8c-.3-.3-.9-.3-1.2 0l-8 8c-.5.5-.2 1.4.6 1.4h3v10.9c0 .5.4.8.8.8h8.4c.5 0 .8-.4.8-.8v-10.9h3c.7 0 1.1-.9.6-1.4z"/></g></svg>