<svg viewBox="0 0 25.649 28.352" xmlns="http://www.w3.org/2000/svg"><path d="m18.671 4.352h-16.907a1.765 1.765 0 0 0 -1.764 1.764v20.472a1.765 1.765 0 0 0 1.764 1.764h16.907a1.765 1.765 0 0 0 1.764-1.764v-20.472a1.765 1.765 0 0 0 -1.764-1.764zm-5.55 16.208a.7.7 0 0 1 -.7.7h-7.13a.7.7 0 0 1 -.7-.7.7.7 0 0 1 .7-.7h7.13a.7.7 0 0 1 .7.7zm3.9-4.116a.7.7 0 0 1 -.7.7h-11.029a.7.7 0 0 1 -.7-.7.7.7 0 0 1 .7-.7h11.027a.7.7 0 0 1 .7.7zm-2.132-4.116a.7.7 0 0 1 -.7.7h-8.897a.7.7 0 0 1 -.7-.7.7.7 0 0 1 .7-.7h8.931a.691.691 0 0 1 .662.7z" fill="#999999"/><g fill="#1778d3"><path d="m18.14800191 14.49999905c-3.85980988 0-6.99999985-3.14019013-6.99999985-7 0-3.85981012 3.14018997-7 6.99999985-7 1.86983013 0 3.62771988.72813999 4.94987011 2.05027997 1.32215023 1.32216013 2.05023002 3.08001006 2.05012989 4.94975007 0 3.85977983-3.14019013 6.99996996-7 6.99996996zm-1.22971726-4.96933556.22206831.22312546.20319367-.24075222c-.07573605.02794838-.1567111.04270267-.2396245.04270267-.06364584 0-.12594939-.00853729-.18563748-.02507591z"/><path d="m18.14800191 13.99999905c3.58977031 0 6.5-2.91022969 6.5-6.5.00020027-3.58977008-2.91002941-6.5-6.5-6.5-3.58976984 0-6.49999987 2.91022992-6.49999987 6.5 0 3.58996963 2.91023003 6.5 6.49999987 6.5m-2.96986079-6.60950995c.11687779 0 .2337296.0447321.32267093.13418007l1.46765018 1.47472c.03751754.03771258.08656788.05634546.13546037.05634546.05412388 0 .10805655-.02282428.14597941-.06786537l3.52042007-4.17105031c.09002209-.10663247.21857357-.16154766.34801293-.16154766.10371112 0 .20798587.03523946.29351711.10736776.19227028.1621499.21634006.44904995.05418014.64111995l-4.16093015 4.9300499c-.03802872.04503155-.0919714.06786251-.14605904.06786251-.04887152 0-.09785843-.01862526-.13538122-.05634213l-2.1682198-2.17853021c-.17732001-.17812014-.1767099-.4664402.00162005-.64375019.0887773-.08837843.20494103-.13255978.32107902-.13255978m2.96986079 7.60950995c-4.13550997 0-7.49999988-3.36448956-7.49999988-7.5 0-4.13550997 3.36448991-7.5 7.49999988-7.5 2.00337982 0 3.88683986.78014999 5.30342006 2.19673001 1.41660023 1.41659987 2.19668961 3.30001986 2.19657994 5.30333007 0 4.13545036-3.36448956 7.49993992-7.5 7.49993992z" fill="#ffffff"/></g></svg>