<svg enable-background="new 0 0 100 100" viewBox="0 0 100 100" xmlns="http://www.w3.org/2000/svg"><g fill="#5f6062"><path d="m74.3 17.7h-38.8c-2.2 0-4 1.8-4 4v1.8h33.5c4.1 0 7.4 3.3 7.4 7.4v41.8h1.9c2.2 0 4-1.8 4-4v-46.9c0-2.3-1.8-4.1-4-4.1z"/><path d="m65 26.9h-38.8c-2.2 0-4 1.8-4 4v46.9c0 2.2 1.8 4 4 4h38.8c2.2 0 4-1.8 4-4v-46.9c0-2.2-1.8-4-4-4zm-12.7 37.1c0 .9-.7 1.6-1.6 1.6h-16.4c-.9 0-1.6-.7-1.6-1.6s.7-1.6 1.6-1.6h16.4c.9 0 1.6.8 1.6 1.6zm8.9-9.4c0 .9-.7 1.6-1.6 1.6h-25.3c-.9 0-1.6-.7-1.6-1.6s.7-1.6 1.6-1.6h25.3c.9 0 1.6.7 1.6 1.6zm-4.9-9.4c0 .9-.7 1.6-1.6 1.6h-20.4c-.9 0-1.6-.7-1.6-1.6s.7-1.6 1.6-1.6h20.4c.9 0 1.6.7 1.6 1.6z"/></g></svg>