<svg enable-background="new 0 0 100 100" viewBox="0 0 100 100" xmlns="http://www.w3.org/2000/svg"><g fill="#5f6062"><path d="m52.1 70.8c0-2.8.6-5.4 1.6-7.8h-16.7c-1.1 0-1.9-.9-1.9-1.9 0-1.1.9-1.9 1.9-1.9h19c3.5-4.7 9.2-7.8 15.6-7.8 2.3 0 4.5.4 6.6 1.1v-30.6c0-2.6-2.1-4.8-4.8-4.8h-45.9c-2.6 0-4.8 2.1-4.8 4.8v55.5c0 2.6 2.1 4.8 4.8 4.8h28.3c-2.3-3.2-3.7-7.1-3.7-11.4zm-15.1-33.9h24.2c1.1 0 1.9.9 1.9 1.9 0 1.1-.9 1.9-1.9 1.9h-24.2c-1.1 0-1.9-.9-1.9-1.9s.9-1.9 1.9-1.9zm0 11.1h30c1.1 0 1.9.9 1.9 1.9 0 1.1-.9 1.9-1.9 1.9h-30c-1.1 0-1.9-.9-1.9-1.9s.9-1.9 1.9-1.9z"/><path d="m71.6 54.8c-8.9 0-16.1 7.2-16.1 16.1s7.2 16.1 16.1 16.1 16.1-7.2 16.1-16.1-7.2-16.1-16.1-16.1zm7.2 17.4h-14.4c-.8 0-1.4-.6-1.4-1.4s.6-1.4 1.4-1.4h14.4c.8 0 1.4.6 1.4 1.4s-.6 1.4-1.4 1.4z"/></g></svg>