<svg enable-background="new 0 0 100 100" viewBox="0 0 100 100" xmlns="http://www.w3.org/2000/svg"><g fill="#5f6062"><path d="m62.4 29.2h-1.6c-1.8 0-3.3-1.5-3.3-3.3v-5.4c0-4.1-3.3-7.4-7.4-7.4s-7.4 3.3-7.4 7.4v5.4c0 1.8-1.5 3.3-3.3 3.3h-1.7c-1.8 0-3.3 1.5-3.3 3.3v1.6h31.5v-1.6c-.2-1.8-1.7-3.3-3.5-3.3zm-12.4-6.6c-1.9 0-3.4-1.5-3.4-3.4s1.5-3.4 3.4-3.4 3.4 1.5 3.4 3.4c0 1.8-1.5 3.4-3.4 3.4z"/><path d="m71.1 22.5h-10.3v1.7c0 .9.7 1.6 1.6 1.6 3.7 0 6.7 3 6.7 6.7v4.9h-38.2v-4.9c0-3.7 3-6.7 6.7-6.7.9 0 1.6-.7 1.6-1.6v-1.7h-10.3c-2.4 0-4.4 2-4.4 4.4v51c0 2.4 2 4.4 4.4 4.4h42.1c2.4 0 4.4-2 4.4-4.4v-51c.1-2.4-1.9-4.4-4.3-4.4zm-6.8 45.4c0 1.1-.9 1.9-1.9 1.9h-24.8c-1.1 0-1.9-.9-1.9-1.9 0-1.1.9-1.9 1.9-1.9h24.7c1.1 0 2 .9 2 1.9zm0-9.5c0 1.1-.9 1.9-1.9 1.9h-24.8c-1.1 0-1.9-.9-1.9-1.9 0-1.1.9-1.9 1.9-1.9h24.7c1.1 0 2 .9 2 1.9zm0-9.5c0 1.1-.9 1.9-1.9 1.9h-24.8c-1.1 0-1.9-.9-1.9-1.9 0-1.1.9-1.9 1.9-1.9h24.7c1.1 0 2 .9 2 1.9z"/></g></svg>