<svg enable-background="new 0 0 100 100" viewBox="0 0 100 100" xmlns="http://www.w3.org/2000/svg"><g fill="#5f6062"><path d="m34.2 32.5v1.6h31.5v-1.6c0-1.8-1.5-3.3-3.3-3.3h-1.6c-1.8 0-3.3-1.5-3.3-3.3v-5.4c0-4.1-3.3-7.4-7.4-7.4s-7.4 3.3-7.4 7.4v5.4c0 1.8-1.5 3.3-3.3 3.3h-1.7c-2 0-3.5 1.5-3.5 3.3zm15.8-16.8c1.9 0 3.4 1.5 3.4 3.4s-1.5 3.4-3.4 3.4-3.4-1.5-3.4-3.4c-.1-1.9 1.5-3.4 3.4-3.4z"/><path d="m54.7 60.3h-17.1c-1.1 0-1.9-.9-1.9-1.9 0-1.1.9-1.9 1.9-1.9h20.4c3.4-3.1 8-4.9 12.9-4.9 1.6 0 3.1.2 4.5.5v-25.2c0-2.4-2-4.4-4.4-4.4h-10.3v1.7c0 .9.7 1.6 1.6 1.6 3.7 0 6.7 3 6.7 6.7v4.9h-38.1v-4.9c0-3.7 3-6.7 6.7-6.7.9 0 1.6-.7 1.6-1.6v-1.7h-10.3c-2.4 0-4.4 2-4.4 4.4v51c0 2.4 2 4.4 4.4 4.4h26.3c-2.3-3.2-3.6-7.1-3.6-11.3 0-4 1.1-7.6 3.1-10.7zm-17.1-13.3h24.7c1.1 0 1.9.9 1.9 1.9 0 1.1-.9 1.9-1.9 1.9h-24.7c-1.1 0-1.9-.9-1.9-1.9s.8-1.9 1.9-1.9z"/><path d="m70.9 54.9c-8.9 0-16.1 7.2-16.1 16.1s7.3 16 16.1 16c8.9 0 16.1-7.2 16.1-16s-7.2-16.1-16.1-16.1zm9.9 11.5-11.5 11.6c-.3.3-.7.4-1 .4-.4 0-.8-.2-1.1-.5l-5.6-5.8c-.6-.6-.6-1.5 0-2.1s1.5-.6 2.1 0l4.5 4.7 10.4-10.5c.6-.6 1.5-.6 2.1 0 .7.7.7 1.6.1 2.2z"/></g></svg>