<svg enable-background="new 0 0 100 100" viewBox="0 0 100 100" xmlns="http://www.w3.org/2000/svg"><g fill="#5f6062"><path d="m50.1 17.8c-17.7 0-32.1 14.4-32.1 32.2s14.4 32.2 32.2 32.2 32.1-14.4 32.1-32.2-14.4-32.2-32.2-32.2zm22.7 41.8c-1.2 2.9-3 5.6-5.3 7.8-2.3 2.3-4.9 4-7.8 5.3-3 1.3-6.2 1.9-9.6 1.9-3.3 0-6.5-.6-9.6-1.9-2.9-1.2-5.6-3-7.8-5.3-2.3-2.3-4-4.9-5.3-7.8-1.3-3-1.9-6.2-1.9-9.6 0-3.3.6-6.5 1.9-9.6 1.2-2.9 3-5.6 5.3-7.8 2.3-2.3 4.9-4 7.8-5.3 3-1.3 6.2-1.9 9.6-1.9 3.3 0 6.5.6 9.6 1.9 2.9 1.2 5.6 3 7.8 5.3 2.3 2.3 4 4.9 5.3 7.8 1.3 3 1.9 6.2 1.9 9.6 0 3.3-.7 6.5-1.9 9.6z"/><path d="m41.6 31c-.1 0-.1.1-.2.1-.8.4-1.4 1.2-1.5 2-.1.4 0 .9.2 1.3.6 1.3 2.1 1.8 3.3 1.3 0 0 .1 0 .1-.1.9-.4 1.4-1.2 1.5-2 .1-.4 0-.9-.2-1.3-.4-1.2-1.9-1.8-3.2-1.3z"/><path d="m33.3 42c-1.3-.4-2.7.3-3.2 1.6v.1c-.1.2-.1.3-.1.5-.1 1.2.6 2.3 1.7 2.7 1.3.4 2.7-.3 3.2-1.6v-.1c.1-.2.1-.3.1-.5.1-1.2-.6-2.3-1.7-2.7z"/><path d="m49.9 34.4h.2c1.3 0 2.4-1 2.5-2.2 0-.1 0-.2 0-.3 0-1.4-1.1-2.5-2.5-2.5-.1 0-.1 0-.2 0-1.3 0-2.4 1-2.5 2.2v.3c0 1.3 1.1 2.5 2.5 2.5z"/><path d="m38.1 35.9c-1-.9-2.6-.9-3.6.1s0 0-.1.1c-.4.4-.6.9-.6 1.4-.1.8.2 1.6.8 2.2 1 .9 2.6.9 3.6-.2 0 0 .1-.1.1-.1.4-.4.6-.9.6-1.4.1-.7-.2-1.5-.8-2.1z"/><path d="m68.2 47.1c1-.3 1.6-1.2 1.8-2.1 0-.3 0-.7-.1-1v-.1s0 0 0-.1c-.4-1.3-1.8-2-3.2-1.6-1 .3-1.6 1.2-1.7 2.1 0 .3 0 .7.1 1.1v.1c.4 1.3 1.8 2.1 3.1 1.6z"/><path d="m66.2 38.4c.1-.7-.1-1.4-.6-2s0 0-.1-.1c-.9-1-2.5-1.1-3.6-.2-.5.4-.8 1-.8 1.6-.1.7.1 1.4.6 2 0 0 .1.1.1.1.9 1 2.5 1.1 3.6.2.5-.5.7-1 .8-1.6z"/><path d="m58.6 31.2s-.1 0-.1-.1c-1.3-.6-2.8 0-3.3 1.3-.1.2-.2.5-.2.7-.1 1.1.4 2.1 1.5 2.6 0 0 .1 0 .1.1 1.3.6 2.8 0 3.3-1.2.1-.2.2-.5.2-.8.1-1-.5-2.1-1.5-2.6z"/><path d="m53.1 54-2.2-14.6c0-.4-.4-.7-.7-.7-.4 0-.7.3-.7.7l-2.3 14.6c-.1.2-.1.5-.1.8 0 1.7 1.4 3 3 3s3-1.4 3-3c.1-.3 0-.6 0-.8z"/></g></svg>