<svg height="64.628" viewBox="0 0 64.628 64.628" width="64.628" xmlns="http://www.w3.org/2000/svg"><g fill="#5f6062"><path d="m32.314 0c-17.847 0-32.314 14.467-32.314 32.314 0 17.846 14.467 32.314 32.314 32.314s32.314-14.468 32.314-32.314c0-17.847-14.468-32.314-32.314-32.314zm0 62.689c-16.749 0-30.375-13.626-30.375-30.375s13.626-30.375 30.375-30.375 30.375 13.626 30.375 30.375-13.626 30.375-30.375 30.375z"/><path d="m19.012 31.762c-2.452 0-4.44 1.988-4.44 4.44s1.988 4.44 4.44 4.44 4.44-1.988 4.44-4.44-1.988-4.44-4.44-4.44zm0 6.196c-.968 0-1.755-.788-1.755-1.756s.787-1.756 1.755-1.756 1.756.788 1.756 1.756-.788 1.756-1.756 1.756z"/><path d="m54.122 31.35v-5.46c0-.961-.779-1.74-1.74-1.74h-15.623l-.011-4.809c-.084-.57-.572-.992-1.148-.992h-5.896c-1.441 0-2.831.537-3.898 1.505l-4.733 4.296h-5.93c-2.243 0-4.061 1.818-4.061 4.061v3.14c-.767 0-1.389.622-1.389 1.389v1.978c0 .767.622 1.389 1.389 1.389h2.04c.051-3.204 2.673-5.795 5.889-5.795s5.838 2.591 5.889 5.795h14.732c.051-3.204 2.673-5.795 5.889-5.795s5.838 2.591 5.889 5.795h1.782c.961 0 1.74-.779 1.74-1.74v-2.204c.002-.449-.362-.813-.81-.813zm-30.027-7.2 3.076-2.792c.695-.631 1.595-.978 2.534-.978h5.144l.032 3.77z"/><path d="m45.522 31.762c-2.452 0-4.44 1.988-4.44 4.44s1.988 4.44 4.44 4.44 4.44-1.988 4.44-4.44-1.988-4.44-4.44-4.44zm0 6.196c-.968 0-1.756-.788-1.756-1.756s.788-1.756 1.756-1.756 1.755.788 1.755 1.756-.787 1.756-1.755 1.756z"/></g></svg>