<svg height="64.628" viewBox="0 0 64.628 64.628" width="64.628" xmlns="http://www.w3.org/2000/svg"><g fill="#5f6062"><path d="m32.314 0c-17.847 0-32.314 14.467-32.314 32.314s14.467 32.314 32.314 32.314 32.314-14.468 32.314-32.314-14.468-32.314-32.314-32.314zm0 62.689c-16.749 0-30.375-13.626-30.375-30.375s13.626-30.375 30.375-30.375 30.375 13.626 30.375 30.375-13.626 30.375-30.375 30.375z"/><path d="m33.739 12.039c-.647-1.073-2.203-1.073-2.85 0l-17.339 28.758c-.669 1.109.13 2.523 1.425 2.523h34.678c1.295 0 2.093-1.414 1.425-2.523zm.264 25.309c0 .933-.756 1.69-1.69 1.69s-1.69-.756-1.69-1.69v-.04c0-.933.756-1.689 1.69-1.689s1.69.756 1.69 1.689zm-.278-5.194c-.045.753-.669 1.34-1.423 1.34s-1.378-.587-1.423-1.34l-.589-9.812c-.049-.819.602-1.511 1.423-1.511h1.178c.821 0 1.472.691 1.423 1.511z"/></g></svg>