<svg height="64.628" viewBox="0 0 64.628 64.628" width="64.628" xmlns="http://www.w3.org/2000/svg"><g fill="#5f6062"><path d="m32.314 0c-17.847 0-32.314 14.467-32.314 32.314 0 17.846 14.467 32.314 32.314 32.314s32.314-14.468 32.314-32.314c0-17.847-14.468-32.314-32.314-32.314zm0 62.689c-16.749 0-30.375-13.626-30.375-30.375s13.626-30.375 30.375-30.375 30.375 13.626 30.375 30.375-13.626 30.375-30.375 30.375z"/><path d="m46.144 18.815h-3.386c-.033 1.273-1.077 2.298-2.358 2.298-1.28 0-2.325-1.025-2.358-2.298h-11.043c-.033 1.273-1.077 2.298-2.358 2.298-1.28 0-2.325-1.025-2.358-2.298h-3.435c-1.303 0-2.359 1.056-2.359 2.359v24.937c0 1.303 1.056 2.359 2.359 2.359h27.296c1.303 0 2.359-1.056 2.359-2.359v-24.936c.001-1.304-1.056-2.36-2.359-2.36zm-4.841 11.502-10.146 10.225c-.331.334-.79.525-1.26.525h-.016c-.472-.003-.932-.201-1.262-.542l-4.936-5.112c-.68-.704-.66-1.831.044-2.511.333-.321.771-.498 1.233-.498.486 0 .94.193 1.277.542l3.676 3.807 8.869-8.937c.336-.338.784-.525 1.261-.525.472 0 .916.183 1.251.515.337.334.523.779.525 1.254.001.473-.182.92-.516 1.257z"/><path d="m24.641 19.933c.652 0 1.18-.528 1.18-1.18 0-3.694 3.005-6.7 6.7-6.7s6.7 3.006 6.7 6.7c0 .652.528 1.18 1.18 1.18s1.18-.528 1.18-1.18c0-4.995-4.064-9.059-9.059-9.059s-9.059 4.064-9.059 9.059c-.002.652.527 1.18 1.178 1.18z"/></g></svg>