<svg height="64.628" viewBox="0 0 64.628 64.628" width="64.628" xmlns="http://www.w3.org/2000/svg"><g fill="#5f6062"><path d="m32.314 0c-17.847 0-32.314 14.467-32.314 32.314 0 17.846 14.467 32.314 32.314 32.314s32.314-14.468 32.314-32.314c0-17.847-14.468-32.314-32.314-32.314zm0 62.689c-16.749 0-30.375-13.626-30.375-30.375s13.626-30.375 30.375-30.375 30.375 13.626 30.375 30.375-13.626 30.375-30.375 30.375z"/><path d="m32.314 16.345c-8.819 0-15.969 7.149-15.969 15.969 0 8.819 7.149 15.969 15.969 15.969s15.969-7.15 15.969-15.969-7.15-15.969-15.969-15.969zm11.245 20.718c-.614 1.453-1.495 2.758-2.617 3.88s-2.427 2.002-3.88 2.617c-1.502.635-3.1.957-4.749.957s-3.247-.322-4.749-.957c-1.453-.614-2.758-1.495-3.88-2.617s-2.002-2.427-2.617-3.88c-.635-1.502-.957-3.1-.957-4.749s.322-3.247.957-4.749c.614-1.453 1.495-2.758 2.617-3.88s2.427-2.002 3.88-2.617c1.502-.635 3.1-.957 4.749-.957s3.247.322 4.749.957c1.453.614 2.758 1.495 3.88 2.617s2.002 2.427 2.617 3.88c.635 1.502.957 3.1.957 4.749.001 1.649-.321 3.247-.957 4.749z"/><path d="m28.092 22.897c-.007.003-.015.006-.022.01-.018.008-.036.016-.055.024-.002.001-.003.001-.003.001-.003.001-.005.002-.005.002l-.002.001c-.002.001-.004.002-.006.002-.418.186-.684.573-.733.997-.025.215.005.44.1.653.281.631 1.019.914 1.65.634.023-.01.046-.02.07-.031.424-.184.694-.574.744-1.002.025-.212-.004-.433-.095-.642-.274-.633-1.01-.924-1.643-.649z"/><path d="m23.957 28.326c-.654-.219-1.361.133-1.581.786-.006.019-.013.038-.019.057 0 .001 0 .001-.001.002 0 .001-.001.002-.001.003s-.001.002-.001.004c0 .001-.001.002-.001.002 0 .001-.001.002-.001.003s-.001.003-.001.004v.001c-.001.002-.001.003-.001.004-.002.006-.004.012-.006.018-.026.079-.043.159-.052.239-.068.58.279 1.147.856 1.334.657.213 1.362-.147 1.574-.803.008-.024.016-.048.024-.072.028-.084.047-.168.057-.252.066-.575-.275-1.139-.846-1.33z"/><path d="m32.218 24.545c.025 0 .051 0 .076.001.645.008 1.183-.475 1.257-1.102.005-.043.008-.088.009-.132.008-.689-.543-1.255-1.232-1.265-.029 0-.057-.001-.086-.001h-.003-.001-.012c-.641-.002-1.171.48-1.244 1.102-.006.047-.009.095-.009.144-.004.69.555 1.251 1.245 1.253z"/><path d="m24.573 25.398c-.002.002-.004.004-.006.006-.001.001-.002.002-.003.003l-.001.001c-.011.012-.022.024-.033.037-.001.001-.003.003-.004.004s-.002.003-.003.004-.001.001-.001.001c-.001.001-.001.001-.001.001-.006.006-.011.012-.016.018-.18.2-.283.441-.313.689-.046.388.091.793.404 1.075.512.463 1.302.423 1.765-.09.017-.019.034-.038.051-.056.185-.201.292-.447.322-.699.045-.384-.088-.784-.395-1.066-.508-.468-1.298-.435-1.766.072z"/><path d="m42.1 29.282c0-.001-.001-.002-.001-.004-.001-.001-.001-.003-.002-.004-.004-.012-.008-.024-.012-.036-.212-.657-.916-1.017-1.573-.805-.48.155-.802.573-.858 1.044-.02.173-.005.353.052.529.008.024.015.048.023.072.206.659.906 1.026 1.565.821.486-.152.813-.573.869-1.048.02-.168.006-.343-.048-.516-.004-.017-.01-.035-.015-.053z"/><path d="m40.302 26.541c.04-.339-.059-.694-.302-.971-.002-.002-.004-.005-.006-.007l-.001-.001c-.001-.001-.002-.003-.003-.004l-.001-.002s-.001-.001-.002-.002-.002-.002-.003-.003l-.001-.001c-.001-.001-.003-.003-.004-.004-.011-.012-.022-.025-.033-.037-.001-.001-.002-.002-.003-.003-.004-.004-.007-.008-.011-.012-.461-.513-1.25-.555-1.763-.095-.236.212-.373.492-.407.784-.041.344.061.702.31.981.017.019.034.038.05.057.456.518 1.245.569 1.764.114.241-.214.381-.498.416-.794z"/><path d="m36.54 22.99c-.023-.01-.046-.021-.068-.031l-.003-.001c-.007-.003-.014-.006-.022-.01-.63-.282-1.369.001-1.651.631-.053.119-.086.241-.101.364-.062.528.22 1.058.731 1.287.023.01.046.021.069.031.627.288 1.369.013 1.657-.615.056-.122.091-.249.106-.375.062-.523-.214-1.049-.718-1.281z"/><path d="m33.773 34.291-1.091-7.252c-.022-.187-.18-.327-.368-.327s-.346.141-.368.327l-1.091 7.252c-.031.12-.047.247-.047.377 0 .832.675 1.506 1.507 1.506s1.506-.674 1.506-1.506c-.001-.13-.017-.257-.048-.377z"/></g></svg>