<svg height="64.628" viewBox="0 0 64.628 64.628" width="64.628" xmlns="http://www.w3.org/2000/svg"><g fill="#5f6062"><path d="m32.314 0c-17.847 0-32.314 14.467-32.314 32.314s14.467 32.314 32.314 32.314 32.314-14.468 32.314-32.314-14.468-32.314-32.314-32.314zm0 62.689c-16.749 0-30.375-13.626-30.375-30.375s13.626-30.375 30.375-30.375 30.375 13.626 30.375 30.375-13.626 30.375-30.375 30.375z"/><path d="m46.228 13.644h-22.197c-1.279 0-2.316 1.037-2.316 2.316v1.037h19.2c2.321 0 4.209 1.888 4.209 4.209v23.916h1.103c1.279 0 2.316-1.037 2.316-2.316v-26.846c.001-1.279-1.036-2.316-2.315-2.316z"/><path d="m40.915 18.89h-22.196c-1.279 0-2.316 1.037-2.316 2.316v26.846c0 1.279 1.037 2.316 2.316 2.316h22.196c1.279 0 2.316-1.037 2.316-2.316v-26.846c.001-1.279-1.036-2.316-2.316-2.316zm-7.269 21.272c0 .512-.415.926-.926.926h-9.385c-.512 0-.926-.415-.926-.926 0-.512.415-.926.926-.926h9.385c.511-.001.926.414.926.926zm5.095-5.42c0 .512-.415.926-.926.926h-14.481c-.512 0-.926-.415-.926-.926 0-.512.415-.926.926-.926h14.481c.511-.001.926.414.926.926zm-2.779-5.373c0 .512-.415.926-.926.926h-11.702c-.512 0-.926-.415-.926-.926 0-.512.415-.926.926-.926h11.701c.512-.001.927.414.927.926z"/></g></svg>