<svg height="64.628" viewBox="0 0 64.628 64.628" width="64.628" xmlns="http://www.w3.org/2000/svg"><g fill="#5f6062"><path d="m32.314 0c-17.847 0-32.314 14.467-32.314 32.314 0 17.846 14.467 32.314 32.314 32.314s32.314-14.468 32.314-32.314c0-17.847-14.468-32.314-32.314-32.314zm0 62.689c-16.749 0-30.375-13.626-30.375-30.375s13.626-30.375 30.375-30.375 30.375 13.626 30.375 30.375-13.626 30.375-30.375 30.375z"/><path d="m34.511 38.976h-9.136c-.576 0-1.044-.467-1.044-1.044s.467-1.044 1.044-1.044h10.356c1.935-2.581 5.018-4.254 8.485-4.254 1.257 0 2.462.22 3.582.624v-16.687c0-1.441-1.169-2.61-2.61-2.61h-25.013c-1.441 0-2.61 1.169-2.61 2.61v30.252c0 1.441 1.169 2.61 2.61 2.61h15.452c-1.263-1.745-2.009-3.888-2.009-6.201 0-1.514.319-2.953.893-4.256zm-9.136-14.251h13.186c.577 0 1.044.467 1.044 1.044s-.467 1.044-1.044 1.044h-13.186c-.576 0-1.044-.467-1.044-1.044 0-.576.468-1.044 1.044-1.044zm0 6.055h16.318c.576 0 1.044.467 1.044 1.044s-.467 1.044-1.044 1.044h-16.318c-.576 0-1.044-.467-1.044-1.044 0-.576.468-1.044 1.044-1.044z"/><path d="m44.216 34.475c-4.836 0-8.756 3.92-8.756 8.756s3.92 8.756 8.756 8.756 8.756-3.92 8.756-8.756-3.921-8.756-8.756-8.756zm4.689 9.036c0 .266-.216.482-.482.482h-8.414c-.266 0-.482-.216-.482-.482v-.559c0-.266.216-.482.482-.482h8.414c.266 0 .482.216.482.482z"/></g></svg>