<svg height="64.628" viewBox="0 0 64.628 64.628" width="64.628" xmlns="http://www.w3.org/2000/svg"><g fill="#5f6062"><path d="m32.314 0c-17.847 0-32.314 14.467-32.314 32.314s14.467 32.314 32.314 32.314 32.314-14.468 32.314-32.314-14.468-32.314-32.314-32.314zm0 62.689c-16.749 0-30.375-13.626-30.375-30.375s13.626-30.375 30.375-30.375 30.375 13.626 30.375 30.375-13.626 30.375-30.375 30.375z"/><path d="m45.35 18.973-17.501 20.736c-.359.426-1.006.452-1.4.057l-7.296-7.331c-.882-.886-2.314-.889-3.2-.008-.886.882-.889 2.314-.008 3.2l10.779 10.83c.393.395 1.04.368 1.4-.057l20.685-24.509c.806-.955.685-2.383-.27-3.189-.955-.805-2.383-.684-3.189.271z"/></g></svg>