<svg enable-background="new 0 0 64.4 64.4" viewBox="0 0 64.4 64.4" xmlns="http://www.w3.org/2000/svg"><path d="m32.2-.1c-17.8 0-32.3 14.5-32.3 32.4 0 17.8 14.5 32.3 32.3 32.3s32.3-14.5 32.3-32.3c0-17.9-14.4-32.4-32.3-32.4zm0 62.7c-16.8 0-30.4-13.6-30.3-30.4 0-16.8 13.6-30.4 30.4-30.3 16.8 0 30.3 13.6 30.3 30.3 0 16.8-13.6 30.4-30.4 30.4zm-7.6-40.1c-7 4.1-6.6 10.7-6.4 13.1 9.1-10.7 22.7-10.2 22.7-10.2s-19.3 6.6-25 19.7c-.5 1 2.1 2.4 2.7 1.2 1.1-2.3 2.5-4.5 4.2-6.4 3.6 1.3 9.7 2.9 14.1-.2 5.8-4.1 5.2-13 13.5-17.4 1.9-1.1-16.3-5.3-25.8.2z"/></svg>