<svg height="64.628" viewBox="0 0 64.628 64.628" width="64.628" xmlns="http://www.w3.org/2000/svg"><g fill="#5f6062"><path d="m32.314 0c-17.847 0-32.314 14.467-32.314 32.314 0 17.846 14.467 32.314 32.314 32.314s32.314-14.468 32.314-32.314c0-17.847-14.468-32.314-32.314-32.314zm0 62.689c-16.749 0-30.375-13.626-30.375-30.375s13.626-30.375 30.375-30.375 30.375 13.626 30.375 30.375-13.626 30.375-30.375 30.375z"/><path d="m46.897 25.511c-.765-1.81-1.86-3.436-3.255-4.832s-3.02-2.492-4.83-3.258c-1.875-.794-3.866-1.196-5.917-1.197-2.051 0-4.042.401-5.917 1.194-1.81.765-3.436 1.86-4.832 3.255s-2.492 3.02-3.258 4.83c-.786 1.856-1.187 3.825-1.195 5.855l-4.15-.001c-.629 0-.944.76-.499 1.205l6.029 6.032c.275.276.722.276.998 0l6.032-6.029c.445-.444.13-1.205-.499-1.205l-4.147-.001c.013-2.279.687-4.454 1.933-6.304.041-.03.081-.065.116-.105l.773-.886c2.008-2.302 4.792-3.685 7.839-3.894 3.048-.208 5.994.782 8.296 2.79 2.356 2.055 3.748 4.923 3.905 8.055.111 3.208-1.086 6.242-3.343 8.498-2.161 2.159-5.033 3.348-8.087 3.348h-1.176c-.104 0-.201.023-.29.064-2.223-.284-4.313-1.218-6.04-2.725l-.832-.726c-.367-.345-.869-.544-1.411-.507-1.033.071-1.812.965-1.742 1.997.031.448.217.848.501 1.152.035.053.074.103.124.147l.886.773c1.546 1.348 3.311 2.353 5.245 2.988 1.868.613 3.813.855 5.781.72 1.969-.135 3.863-.64 5.629-1.501 1.83-.892 3.442-2.128 4.789-3.674 1.348-1.546 2.353-3.311 2.988-5.245.577-1.759.821-3.587.736-5.438-.064-1.859-.457-3.665-1.18-5.375z"/></g></svg>