<svg height="64.628" viewBox="0 0 64.628 64.628" width="64.628" xmlns="http://www.w3.org/2000/svg"><g fill="#5f6062"><path d="m32.314 0c-17.847 0-32.314 14.467-32.314 32.314 0 17.846 14.467 32.314 32.314 32.314s32.314-14.468 32.314-32.314c0-17.847-14.468-32.314-32.314-32.314zm0 62.689c-16.749 0-30.375-13.626-30.375-30.375s13.626-30.375 30.375-30.375 30.375 13.626 30.375 30.375-13.626 30.375-30.375 30.375z"/><path d="m18.812 30.687c-2.455 0-4.445 1.99-4.445 4.445s1.99 4.445 4.445 4.445 4.445-1.99 4.445-4.445-1.99-4.445-4.445-4.445zm0 6.203c-.969 0-1.758-.788-1.758-1.758 0-.969.788-1.758 1.758-1.758.969 0 1.758.788 1.758 1.758s-.789 1.758-1.758 1.758z"/><path d="m54.353 30.687v-4.047c0-.961-.778-1.741-1.74-1.742l-5.461-.008-1.373-2.782c-.715-1.744-2.413-2.883-4.299-2.883h-11.808c-1.257 0-2.48.408-3.486 1.162l-5.198 4.503h-5.42c-2.245 0-4.065 1.82-4.065 4.065v1.732h-.066c-.962 0-1.742.78-1.742 1.742v1.611c0 .962.78 1.742 1.742 1.742h1.515c-.024-.213-.036-.43-.036-.65 0-3.252 2.645-5.897 5.897-5.897s5.897 2.645 5.897 5.897c0 .22-.013.436-.036.65h16.56c-.024-.213-.036-.43-.036-.65 0-3.252 2.645-5.897 5.897-5.897s5.897 2.645 5.897 5.897c0 .22-.013.436-.036.65h.237c.962 0 1.742-.78 1.742-1.742v-2.772c-.001-.321-.261-.581-.582-.581zm-19.455-5.796h-10.523l3.031-2.877c.649-.487 1.454-.756 2.266-.756h5.227v3.633zm1.781 0v-3.632h4.801c1.065 0 2.13.637 2.534 1.622l.941 2.011h-8.276z"/><path d="m47.094 30.687c-2.455 0-4.445 1.99-4.445 4.445s1.99 4.445 4.445 4.445 4.445-1.99 4.445-4.445-1.99-4.445-4.445-4.445zm0 6.203c-.969 0-1.758-.788-1.758-1.758 0-.969.788-1.758 1.758-1.758.969 0 1.758.788 1.758 1.758-.001.97-.789 1.758-1.758 1.758z"/></g></svg>