<svg enable-background="new 0 0 64.6 64.6" viewBox="0 0 64.6 64.6" xmlns="http://www.w3.org/2000/svg"><path d="m32.3 0c-17.8 0-32.3 14.5-32.3 32.3s14.5 32.3 32.3 32.3 32.3-14.4 32.3-32.3-14.4-32.3-32.3-32.3zm0 62.7c-16.7 0-30.4-13.6-30.4-30.4s13.7-30.3 30.4-30.3 30.4 13.6 30.4 30.3-13.6 30.4-30.4 30.4z"/><path d="m32.8 31.1c-.9 0-1.5.7-1.5 1.5v9.9c0 1.4-1.1 2.5-2.5 2.5s-2.5-1.1-2.5-2.5c0-.9-.7-1.5-1.5-1.5-.9 0-1.5.7-1.5 1.5 0 3.1 2.5 5.6 5.6 5.6s5.6-2.5 5.6-5.6v-9.9c-.2-.8-.9-1.5-1.7-1.5z"/><path d="m34.3 16.4v-.9c0-.9-.7-1.5-1.5-1.5-.9 0-1.5.7-1.5 1.5v.9c-7.5.7-13.4 6.5-14.4 13.9 1.3-.9 2.9-1.5 4.6-1.5 2.2 0 4.3.9 5.7 2.4 1.4-1.5 3.5-2.4 5.7-2.4s4.3.9 5.7 2.4c1.4-1.5 3.5-2.4 5.7-2.4 1.7 0 3.3.5 4.6 1.5-1.1-7.4-7.1-13.2-14.6-13.9z"/></svg>