<svg height="64.628" viewBox="0 0 64.628 64.628" width="64.628" xmlns="http://www.w3.org/2000/svg"><g fill="#5f6062"><path d="m32.314 0c-17.847 0-32.314 14.467-32.314 32.314s14.467 32.314 32.314 32.314 32.314-14.468 32.314-32.314-14.468-32.314-32.314-32.314zm0 62.689c-16.749 0-30.375-13.626-30.375-30.375s13.626-30.375 30.375-30.375 30.375 13.626 30.375 30.375-13.626 30.375-30.375 30.375z"/><path d="m37.245 43.242h-8.928c-.551 0-.991.441-.991.991 0 .551.441.991.991.991h8.928c.551 0 .991-.441.991-.991.001-.55-.44-.991-.991-.991z"/><path d="m30.938 48.357h3.659c1.101 0 1.983-.854 1.983-1.983h-7.624c0 1.102.908 1.983 1.982 1.983z"/><path d="m37.245 40.11h-8.928c-.551 0-.991.441-.991.991 0 .551.441.991.991.991h8.928c.551 0 .991-.441.991-.991.001-.551-.44-.991-.991-.991z"/><path d="m32.781 16.271c-5.452 0-9.858 4.406-9.858 9.858 0 5.369 3.686 6.003 4.292 11.84 0 .551.441.991.991.991h9.121c.551 0 .991-.441.991-.991.633-5.865 4.32-6.498 4.32-11.84.001-5.452-4.405-9.858-9.857-9.858z"/></g></svg>