<svg height="64.628" viewBox="0 0 64.628 64.628" width="64.628" xmlns="http://www.w3.org/2000/svg"><g fill="#5f6062"><path d="m32.314 0c-17.847 0-32.314 14.467-32.314 32.314s14.467 32.314 32.314 32.314 32.314-14.468 32.314-32.314-14.468-32.314-32.314-32.314zm0 62.689c-16.749 0-30.375-13.626-30.375-30.375s13.626-30.375 30.375-30.375 30.375 13.626 30.375 30.375-13.626 30.375-30.375 30.375z"/><path d="m44.323 38.045c1.408-2.208 2.228-4.828 2.228-7.641 0-7.86-6.372-14.232-14.232-14.232s-14.232 6.372-14.232 14.232 6.372 14.232 14.232 14.232c2.788 0 5.386-.805 7.581-2.19l4.898 4.898c1.218 1.218 3.194 1.218 4.412 0s1.218-3.193 0-4.412zm-12.004 2.69c-5.696 0-10.331-4.634-10.331-10.331 0-5.696 4.634-10.331 10.331-10.331 5.696 0 10.331 4.634 10.331 10.331s-4.634 10.331-10.331 10.331z"/></g></svg>