<svg height="64.628" viewBox="0 0 64.628 64.628" width="64.628" xmlns="http://www.w3.org/2000/svg"><g fill="#5f6062"><path d="m32.314 0c-17.847 0-32.314 14.467-32.314 32.314s14.467 32.314 32.314 32.314 32.314-14.468 32.314-32.314-14.468-32.314-32.314-32.314zm0 62.689c-16.749 0-30.375-13.626-30.375-30.375s13.626-30.375 30.375-30.375 30.375 13.626 30.375 30.375-13.626 30.375-30.375 30.375z"/><path d="m37.427 21.574c1.057.863 1.639 1.974 1.639 3.13 0 1.104.895 1.999 1.999 1.999s1.999-.895 1.999-1.999c0-1.217-.29-2.392-.861-3.495-.534-1.032-1.291-1.951-2.248-2.732-1.399-1.142-3.126-1.903-4.996-2.221v-1.046c0-1.104-.895-1.999-1.999-1.999s-1.999.895-1.999 1.999v1.046c-1.869.318-3.597 1.079-4.996 2.221-.957.781-1.713 1.701-2.248 2.732-.571 1.103-.861 2.279-.861 3.495 0 3.488 2.431 6.609 6.192 7.95l.064.023 1.849.522v9.83c-.927-.245-1.769-.663-2.467-1.233-1.057-.863-1.639-1.974-1.639-3.13 0-1.104-.895-1.999-1.999-1.999s-1.999.895-1.999 1.999c0 1.217.29 2.393.861 3.495.535 1.032 1.291 1.951 2.248 2.732 1.399 1.142 3.126 1.903 4.996 2.221v1.013c0 1.104.895 1.999 1.999 1.999s1.999-.895 1.999-1.999v-1.013c1.87-.317 3.597-1.079 4.996-2.221.957-.781 1.713-1.701 2.248-2.732.571-1.103.861-2.279.861-3.495 0-3.488-2.431-6.609-6.192-7.95l-.064-.023-1.849-.522v-9.83c.926.246 1.769.663 2.467 1.233zm-6.466 7.469-.629-.178c-2.114-.775-3.477-2.403-3.477-4.162 0-1.156.582-2.267 1.639-3.13.698-.57 1.541-.987 2.467-1.233zm4.628 5.46c2.114.775 3.477 2.403 3.477 4.162 0 1.156-.582 2.267-1.639 3.13-.698.57-1.541.987-2.467 1.233v-8.702z"/></g></svg>