<svg enable-background="new 0 0 64.6 64.6" viewBox="0 0 64.6 64.6" xmlns="http://www.w3.org/2000/svg"><path d="m32.3 0c-17.8 0-32.3 14.5-32.3 32.3s14.5 32.3 32.3 32.3 32.3-14.4 32.3-32.3-14.4-32.3-32.3-32.3zm0 62.7c-16.7 0-30.4-13.6-30.4-30.4s13.7-30.3 30.4-30.3 30.4 13.6 30.4 30.3-13.6 30.4-30.4 30.4z"/><path d="m49.7 43.9c-.6.3-1.2.6-1.9 1.1-1.7 1.3-2.7 1.5-4.7 0-.5-.4-1-.7-1.6-.9-.5-.2-1-.4-1.6-.5-.3-.1-.6-.1-.9-.1-.4 0-.8 0-1.2 0-.3 0-.5.1-.8.2-.5.2-1 .4-1.5.7-.3.2-.7.4-1 .6-.4.3-.9.6-1.4.8-.3.1-.6.2-.9.2h-.1c-.3 0-.6-.1-.9-.2-.5-.2-1-.5-1.4-.8-.3-.2-.6-.4-1-.6-.5-.3-1-.5-1.5-.7-.3-.1-.5-.1-.8-.2-.4-.1-.8-.1-1.2 0-.3 0-.6 0-.9.1-.5.1-1.1.3-1.6.5-.5.3-1.1.6-1.6.9-2 1.5-2.9 1.3-4.7 0-.7-.5-1.4-.9-2.1-1.2-1-.4-2 .4-2 1.4 0 .6.4 1.2 1 1.4.5.2 1 .4 1.5.8 2.8 2.1 5.1 2.1 7.9 0 1.8-1.3 3.3-1.3 5.1 0 1.1.8 2.1 1.3 3.1 1.5.3.1.6.1 1 .1.3 0 .6 0 1-.1 1-.2 2-.7 3.1-1.5 1.8-1.3 3.3-1.3 5.1 0 2.8 2.1 5.1 2.1 7.9 0 .5-.4 1-.7 1.4-.8.6-.2.9-.8.9-1.4.3-1-.7-1.7-1.7-1.3z"/><path d="m47.6 18.5c-.3-1.1-1.2-1.9-2.3-2.1l-12.2-2.4v4.8l16 5.5z"/><path d="m31.4 14-11.7 2.4c-1.1.2-2 1-2.2 2.1l-1.5 5.8 15.4-5.5z"/><path d="m53.3 28.9-18.3-6.7c-2.8-1.2-5.2 0-5.2 0l-18.3 6.7s-3 .9-1 3.2c1.5 1.7 7.3 7.7 10.2 10.6.3-.2.6-.4.9-.6.5-.4 1-.7 1.6-.9.5-.2 1-.4 1.6-.5.3-.1.6-.1.9-.1h1.2c.3 0 .5.1.8.2.5.2 1 .4 1.5.7.3.2.6.4 1 .6.4.3.9.6 1.4.8.3.1.6.2.9.2h.1c.3 0 .6-.1.9-.2.5-.2 1-.5 1.4-.8.3-.2.6-.4 1-.6.5-.3 1-.5 1.5-.7.3-.1.5-.1.8-.2.4-.1.8-.1 1.2 0 .3 0 .6 0 .9.1.5.1 1.1.3 1.6.5.5.3 1.1.6 1.6.9.3.3.7.5 1 .6 2.9-3 8.6-8.9 10.2-10.7 1.6-2.3-1.4-3.1-1.4-3.1z"/></svg>