<svg enable-background="new 0 0 64.628 64.628" height="64.628" viewBox="0 0 64.628 64.628" width="64.628" xmlns="http://www.w3.org/2000/svg"><g fill="#5f6062"><path d="m32.314 0c-17.847 0-32.314 14.467-32.314 32.314 0 17.846 14.467 32.314 32.314 32.314s32.314-14.468 32.314-32.314c0-17.847-14.468-32.314-32.314-32.314zm0 62.689c-16.749 0-30.375-13.626-30.375-30.375s13.626-30.375 30.375-30.375 30.375 13.626 30.375 30.375-13.626 30.375-30.375 30.375z"/><path d="m34.218 37.765h-9.206c-.581 0-1.052-.471-1.052-1.052s.471-1.052 1.052-1.052h10.435c1.949-2.601 5.056-4.287 8.55-4.287 1.266 0 2.481.222 3.609.628v-16.813c0-1.452-1.177-2.63-2.63-2.63h-25.204c-1.453 0-2.63 1.178-2.63 2.63v30.484c0 1.453 1.177 2.63 2.63 2.63h15.571c-1.273-1.758-2.025-3.917-2.025-6.249 0-1.525.322-2.976.9-4.289zm-9.206-14.36h13.288c.581 0 1.052.471 1.052 1.052s-.471 1.052-1.052 1.052h-13.288c-.581 0-1.052-.471-1.052-1.052s.471-1.052 1.052-1.052zm0 6.102h16.443c.581 0 1.052.471 1.052 1.052s-.471 1.052-1.052 1.052h-16.443c-.581 0-1.052-.471-1.052-1.052s.471-1.052 1.052-1.052z"/><path d="m43.997 33.215c-4.881 0-8.838 3.957-8.838 8.838s3.957 8.838 8.838 8.838 8.838-3.957 8.838-8.838c.001-4.881-3.956-8.838-8.838-8.838zm3.742 12.749c-.3.3-.787.3-1.087 0l-3.392-3.392v-6.608c0-.424.344-.768.768-.768s.768.344.768.768v5.971l2.942 2.942c.301.301.301.787.001 1.087z"/></g></svg>