<svg height="64.628" viewBox="0 0 64.628 64.628" width="64.628" xmlns="http://www.w3.org/2000/svg"><g fill="#5f6062"><path d="m32.314 0c-17.847 0-32.314 14.467-32.314 32.314s14.467 32.314 32.314 32.314 32.314-14.468 32.314-32.314-14.468-32.314-32.314-32.314zm0 62.689c-16.749 0-30.375-13.626-30.375-30.375s13.626-30.375 30.375-30.375 30.375 13.626 30.375 30.375-13.626 30.375-30.375 30.375z"/><path d="m27.44 19.131c-1.018 0-1.845.828-1.845 1.845v2.008l-6.287-6.287c-.349-.349-.812-.54-1.305-.54s-.956.192-1.305.54c-.349.349-.54.812-.54 1.305s.192.956.54 1.305l6.287 6.287h-2.146c-1.017 0-1.845.828-1.845 1.845s.828 1.845 1.845 1.845h7.547c.496 0 .899-.403.899-.899v-7.409c0-1.017-.828-1.845-1.845-1.845z"/><path d="m46.626 16.157c-.493 0-.956.192-1.305.54l-6.287 6.287v-2.146c0-1.017-.828-1.845-1.845-1.845s-1.845.828-1.845 1.845v7.547c0 .496.403.899.899.899h7.409c1.018 0 1.845-.828 1.845-1.845s-.828-1.845-1.845-1.845h-2.008l6.287-6.287c.349-.349.541-.812.541-1.305s-.192-.956-.541-1.305c-.349-.348-.812-.54-1.305-.54z"/><path d="m28.385 35.343h-7.547c-1.017 0-1.845.828-1.845 1.845s.828 1.845 1.845 1.845h2.146l-6.287 6.287c-.349.349-.54.812-.54 1.305s.192.956.54 1.305c.349.349.812.541 1.305.541s.956-.192 1.305-.54l6.287-6.287v2.008c0 1.017.828 1.845 1.845 1.845 1.018 0 1.845-.828 1.845-1.845v-7.409c.001-.496-.403-.9-.899-.9z"/><path d="m41.643 39.033h2.008c1.018 0 1.845-.828 1.845-1.845s-.828-1.845-1.845-1.845h-7.409c-.496 0-.899.403-.899.899v7.547c0 1.017.828 1.845 1.845 1.845 1.018 0 1.845-.828 1.845-1.845v-2.146l6.287 6.287c.349.349.812.54 1.305.54s.956-.192 1.305-.54c.349-.349.541-.812.541-1.305s-.192-.956-.541-1.305z"/></g></svg>