<svg height="64.628" viewBox="0 0 64.628 64.628" width="64.628" xmlns="http://www.w3.org/2000/svg"><g fill="#5f6062"><path d="m32.314 0c-17.847 0-32.314 14.467-32.314 32.314 0 17.846 14.467 32.314 32.314 32.314s32.314-14.468 32.314-32.314c0-17.847-14.468-32.314-32.314-32.314zm0 62.689c-16.749 0-30.375-13.626-30.375-30.375s13.626-30.375 30.375-30.375 30.375 13.626 30.375 30.375-13.626 30.375-30.375 30.375z"/><path d="m30.998 33.578-16.457-9.554v19.138c0 1.263 1.024 2.287 2.287 2.287h30.971c1.263 0 2.287-1.024 2.287-2.287v-19.139l-16.456 9.555c-.814.472-1.818.472-2.632 0z"/><path d="m47.799 17.781h-30.971c-1.263 0-2.287 1.024-2.287 2.287v1.53l16.457 9.555c.814.472 1.818.472 2.632 0l16.457-9.555v-1.53c0-1.263-1.024-2.287-2.288-2.287z"/></g></svg>