<svg height="64.628" viewBox="0 0 64.628 64.628" width="64.628" xmlns="http://www.w3.org/2000/svg"><g fill="#5f6062"><path d="m0 32.314c0 17.846 14.467 32.314 32.314 32.314s32.314-14.468 32.314-32.314-14.468-32.314-32.314-32.314c-17.847 0-32.314 14.467-32.314 32.314zm1.939 0c0-16.749 13.626-30.375 30.375-30.375s30.375 13.626 30.375 30.375-13.626 30.375-30.375 30.375-30.375-13.626-30.375-30.375z"/><path d="m16.271 22.143 3.873 3.873-1.156 1.156c-.349.349-.349.916 0 1.266l1.816 1.816c.134.134.316.209.505.21l3.287.005 3.181 3.181c.349.349.916.349 1.266 0l4.607-4.607c.349-.349.349-.916 0-1.266l-3.181-3.181-.005-3.287c0-.189-.076-.371-.21-.505l-1.816-1.816c-.349-.349-.916-.349-1.266 0l-1.156 1.156-3.873-3.873zm10.937 7.115 2.05-2.05c.14-.14.367-.14.506 0l1.223 1.223c.14.14.14.366 0 .506l-2.05 2.05c-.14.14-.367.14-.506 0l-1.223-1.223c-.14-.139-.14-.366 0-.506zm-6.095-2.589 5.556-5.556c.14-.14.366-.14.506 0l.402.402c.14.14.14.366 0 .506l-5.556 5.556c-.14.14-.366.14-.506 0l-.402-.402c-.14-.14-.14-.366 0-.506z"/><path d="m39.348 40.867h8.353v5.315h-8.353z" transform="matrix(.7071 -.7071 .7071 .7071 -18.0285 43.5247)"/><path d="m29.573 36.205c-.349.349-.349.916 0 1.266l6.632 6.632c.349.349.916.349 1.266 0l6.632-6.632c.35-.349.35-.916 0-1.266l-6.632-6.632c-.349-.349-.916-.349-1.266 0zm3.418.287 3.501-3.501c.191-.191.5-.191.691 0l3.501 3.501c.191.191.191.5 0 .691l-3.501 3.501c-.191.191-.5.191-.691 0l-3.501-3.501c-.191-.191-.191-.5 0-.691z"/><path d="m36.38 34.831c.252-.252.662-.252.914 0l1.55 1.55c.252.252.252.662 0 .914l-1.55 1.55c-.252.252-.662.252-.914 0l-1.55-1.55c-.252-.252-.252-.662 0-.914z"/></g></svg>