<svg height="64.628" viewBox="0 0 64.628 64.628" width="64.628" xmlns="http://www.w3.org/2000/svg"><g fill="#5f6062"><path d="m32.314 0c-17.847 0-32.314 14.467-32.314 32.314s14.467 32.314 32.314 32.314 32.314-14.468 32.314-32.314-14.468-32.314-32.314-32.314zm0 62.689c-16.749 0-30.375-13.626-30.375-30.375s13.626-30.375 30.375-30.375 30.375 13.626 30.375 30.375-13.626 30.375-30.375 30.375z"/><circle cx="18.3" cy="43.582" r="2.143"/><path d="m46.328 41.438h-20.883c-1.184 0-2.143.96-2.143 2.143 0 1.184.96 2.143 2.143 2.143h20.883c1.184 0 2.143-.96 2.143-2.143s-.96-2.143-2.143-2.143z"/><circle cx="18.3" cy="35.008" r="2.143"/><path d="m46.328 32.865h-20.883c-1.184 0-2.143.96-2.143 2.143 0 1.184.96 2.143 2.143 2.143h20.883c1.184 0 2.143-.96 2.143-2.143 0-1.184-.96-2.143-2.143-2.143z"/><path d="m18.3 23.815c-1.184 0-2.143.96-2.143 2.143 0 1.184.96 2.143 2.143 2.143 1.184 0 2.143-.96 2.143-2.143.001-1.183-.959-2.143-2.143-2.143z"/><path d="m46.328 23.815h-20.883c-1.184 0-2.143.96-2.143 2.143 0 1.184.96 2.143 2.143 2.143h20.883c1.184 0 2.143-.96 2.143-2.143s-.96-2.143-2.143-2.143z"/><circle cx="18.3" cy="17.385" r="2.143"/><path d="m46.328 15.242h-20.883c-1.184 0-2.143.96-2.143 2.143 0 1.184.96 2.143 2.143 2.143h20.883c1.184 0 2.143-.96 2.143-2.143 0-1.184-.96-2.143-2.143-2.143z"/></g></svg>