<svg height="64.628" viewBox="0 0 64.628 64.628" width="64.628" xmlns="http://www.w3.org/2000/svg"><g fill="#5f6062"><path d="m32.314 0c-17.847 0-32.314 14.467-32.314 32.314s14.467 32.314 32.314 32.314 32.314-14.468 32.314-32.314-14.468-32.314-32.314-32.314zm0 62.689c-16.749 0-30.375-13.626-30.375-30.375s13.626-30.375 30.375-30.375 30.375 13.626 30.375 30.375-13.626 30.375-30.375 30.375z"/><path d="m28.436 16.157h-10.134c-1.185 0-2.146.961-2.146 2.146v10.133c0 1.185.961 2.146 2.146 2.146h10.133c1.185 0 2.146-.961 2.146-2.146v-10.133c0-1.185-.96-2.146-2.145-2.146z"/><path d="m46.325 16.157h-10.133c-1.185 0-2.146.961-2.146 2.146v10.133c0 1.185.961 2.146 2.146 2.146h10.133c1.185 0 2.146-.961 2.146-2.146v-10.133c0-1.185-.961-2.146-2.146-2.146z"/><path d="m28.436 34.046h-10.134c-1.185 0-2.146.961-2.146 2.146v10.133c0 1.185.961 2.146 2.146 2.146h10.133c1.185 0 2.146-.961 2.146-2.146v-10.133c0-1.185-.96-2.146-2.145-2.146z"/><path d="m46.325 34.046h-10.133c-1.185 0-2.146.961-2.146 2.146v10.133c0 1.185.961 2.146 2.146 2.146h10.133c1.185 0 2.146-.961 2.146-2.146v-10.133c0-1.185-.961-2.146-2.146-2.146z"/></g></svg>