<svg height="64.628" viewBox="0 0 64.628 64.628" width="64.628" xmlns="http://www.w3.org/2000/svg"><g fill="#5f6062"><path d="m32.314 0c-17.847 0-32.314 14.467-32.314 32.314s14.467 32.314 32.314 32.314 32.314-14.468 32.314-32.314-14.468-32.314-32.314-32.314zm0 62.689c-16.749 0-30.375-13.626-30.375-30.375s13.626-30.375 30.375-30.375 30.375 13.626 30.375 30.375-13.626 30.375-30.375 30.375z"/><path d="m47.668 16.96c-.918-.918-2.407-.918-3.325 0l-12.029 12.029-12.029-12.029c-.918-.918-2.407-.918-3.325 0s-.918 2.407 0 3.325l12.029 12.029-12.029 12.029c-.918.918-.918 2.407 0 3.325s2.407.918 3.325 0l12.029-12.029 12.029 12.029c.918.918 2.407.918 3.325 0s.918-2.407 0-3.325l-12.029-12.029 12.029-12.029c.918-.918.918-2.407 0-3.325z"/></g></svg>