<svg height="64.628" viewBox="0 0 64.628 64.628" width="64.628" xmlns="http://www.w3.org/2000/svg"><g fill="#5f6062"><path d="m32.314 0c-17.847 0-32.314 14.467-32.314 32.314 0 17.846 14.467 32.314 32.314 32.314s32.314-14.468 32.314-32.314c0-17.847-14.468-32.314-32.314-32.314zm0 62.689c-16.749 0-30.375-13.626-30.375-30.375s13.626-30.375 30.375-30.375 30.375 13.626 30.375 30.375-13.626 30.375-30.375 30.375z"/><path d="m18.379 34.74c-2.418 0-4.379 1.96-4.379 4.378s1.96 4.377 4.378 4.377 4.378-1.96 4.378-4.377-1.959-4.378-4.377-4.378zm0 6.109c-.955 0-1.731-.776-1.731-1.731 0-.954.777-1.731 1.731-1.731.955 0 1.731.776 1.731 1.731 0 .954-.777 1.731-1.731 1.731z"/><path d="m43.64 30.15 7.447-11.724v5.048c-.373.194-.635.572-.635 1.022 0 .449.262.828.635 1.022v.996c0 .244.168.44.392.502.026.017.046.04.076.053.273.118.462.376.493.671.023.219-.041.434-.18.605s-.336.278-.555.301-.434-.041-.605-.179c-.171-.139-.278-.336-.301-.555-.03-.291-.291-.502-.582-.471-.291.03-.502.291-.471.582.052.5.297.95.688 1.267.339.274.753.42 1.183.42.066 0 .133-.004.2-.011.5-.052.951-.297 1.268-.687.317-.391.462-.882.41-1.382-.064-.608-.43-1.132-.956-1.43v-.681c.373-.194.635-.572.635-1.022 0-.449-.263-.827-.635-1.022v-6.715l.293-.462-.006-.005c.188-.235.3-.533.3-.857 0-.76-.616-1.375-1.376-1.375-.407 0-.772.177-1.024.457l-15.745 13.274v-7.974c0-.292-.237-.529-.53-.529h-1.8c-.292 0-.529.237-.529.529v10.332h-.919v-3.429-2.964c0-.585-.474-1.059-1.059-1.059h-1.059v-1.164c0-.292-.237-.529-.529-.529h-1.853c-.292 0-.529.237-.529.529v1.164h-3.839c-.353 0-.682.176-.879.468l-2.231 3.32c-.098.146-.263.234-.439.234h-3.801c-1.462 0-2.647.899-2.647 2.361v2.784.232 2.17h-1.21c-.585 0-1.059.474-1.059 1.059v2.574c0 .585.474 1.059 1.059 1.059h1.21.162.465c.084-3.129 2.656-5.648 5.806-5.648s5.722 2.519 5.806 5.648h15.845c.084-3.129 2.657-5.648 5.806-5.648 3.15 0 5.722 2.519 5.806 5.648h.983.739c.877 0 1.588-.711 1.588-1.588v-1.958-5.263zm-14.68-2.899h-8.52c.005-.008.011-.015.016-.023l1.705-2.538c.131-.195.351-.313.587-.313h5.505c.39 0 .707.316.707.707z"/><path d="m45.836 34.74c-2.418 0-4.378 1.96-4.378 4.377s1.96 4.377 4.378 4.377 4.378-1.96 4.378-4.377-1.96-4.377-4.378-4.377zm0 6.109c-.955 0-1.731-.776-1.731-1.731 0-.954.777-1.731 1.731-1.731.955 0 1.731.776 1.731 1.731 0 .954-.777 1.731-1.731 1.731z"/></g></svg>