<svg height="64.628" viewBox="0 0 64.628 64.628" width="64.628" xmlns="http://www.w3.org/2000/svg"><g fill="#5f6062"><path d="m32.314 0c-17.847 0-32.314 14.467-32.314 32.314 0 17.846 14.467 32.314 32.314 32.314s32.314-14.468 32.314-32.314c0-17.847-14.468-32.314-32.314-32.314zm0 62.689c-16.749 0-30.375-13.626-30.375-30.375s13.626-30.375 30.375-30.375 30.375 13.626 30.375 30.375-13.626 30.375-30.375 30.375z"/><path d="m19.08 32.872c-2.464 0-4.462 1.998-4.462 4.462s1.998 4.462 4.462 4.462 4.462-1.998 4.462-4.462-1.997-4.462-4.462-4.462zm0 6.227c-.973 0-1.764-.792-1.764-1.764 0-.973.791-1.764 1.764-1.764s1.764.792 1.764 1.764c.001.972-.791 1.764-1.764 1.764z"/><path d="m54.351 32.872v-7.568l-1.145-2.793c-.718-1.751-2.423-2.894-4.315-2.894h-16.577c-1.262 0-2.49.409-3.499 1.167l-5.218 4.52h-7.773c-2.254 0-4.081 1.827-4.081 4.081v3.487h-.3c-.966 0-1.749.783-1.749 1.749v1.617c0 .966.783 1.749 1.749 1.749h1.754c-.024-.214-.036-.432-.036-.652 0-3.264 2.655-5.92 5.92-5.92 3.264 0 5.92 2.656 5.92 5.92 0 .221-.013.438-.036.652h16.215c-.024-.214-.036-.432-.036-.652 0-3.264 2.656-5.92 5.92-5.92s5.92 2.656 5.92 5.92c0 .221-.012.438-.036.652h.238c.966 0 1.749-.783 1.749-1.749v-2.783c-.001-.322-.262-.583-.584-.583zm-14.866-7.568h-12.488l3.043-2.888c.652-.489 1.46-.758 2.274-.758h7.171zm1.787 0v-3.647h7.618c1.069 0 2.022.639 2.427 1.628l.828 2.018h-10.873z"/><path d="m47.063 32.872c-2.464 0-4.462 1.998-4.462 4.462s1.998 4.462 4.462 4.462 4.462-1.998 4.462-4.462c.001-2.464-1.997-4.462-4.462-4.462zm0 6.227c-.973 0-1.764-.792-1.764-1.764 0-.973.791-1.764 1.764-1.764s1.764.792 1.764 1.764c.001.972-.791 1.764-1.764 1.764z"/></g></svg>