<svg height="64.628" viewBox="0 0 64.628 64.628" width="64.628" xmlns="http://www.w3.org/2000/svg"><g fill="#5f6062"><path d="m0 32.314c0 17.846 14.467 32.314 32.314 32.314s32.314-14.468 32.314-32.314-14.468-32.314-32.314-32.314-32.314 14.467-32.314 32.314zm1.939 0c0-16.749 13.626-30.375 30.375-30.375s30.375 13.626 30.375 30.375-13.626 30.375-30.375 30.375-30.375-13.626-30.375-30.375z"/><path d="m17.033 19.12c.039-.054.084-.105.132-.154l1.477-1.477 1.987-1.987c.518-.518 1.358-.518 1.877 0l1.262 1.262.708.78 3.422 4.793c.518.518.518 1.358 0 1.877l-2.743 2.742c-.409.409-1.019.495-1.513.258.627 2.995 2.094 5.834 4.404 8.144 2.309 2.31 5.148 3.776 8.143 4.403-.237-.494-.152-1.104.258-1.513l2.742-2.742c.518-.518 1.358-.518 1.877 0l4.794 3.422.78.708 1.262 1.262c.518.518.518 1.358 0 1.877l-1.985 1.985-1.479 1.479c-.051.051-.106.098-.163.139-.089.064-.183.116-.282.155-4.241 2.164-12.365-1.063-19.211-7.909-6.843-6.843-10.07-14.963-7.912-19.206.04-.105.094-.205.163-.298z"/></g></svg>