<svg height="64.628" viewBox="0 0 64.628 64.628" width="64.628" xmlns="http://www.w3.org/2000/svg"><g fill="#5f6062"><path d="m32.314 0c-17.847 0-32.314 14.467-32.314 32.314s14.467 32.314 32.314 32.314 32.314-14.468 32.314-32.314-14.468-32.314-32.314-32.314zm0 62.689c-16.749 0-30.375-13.626-30.375-30.375s13.626-30.375 30.375-30.375 30.375 13.626 30.375 30.375-13.626 30.375-30.375 30.375z"/><path d="m28.112 34.671c-.493 0-.956.192-1.305.54l-6.96 6.96v-3.574c0-1.017-.828-1.845-1.845-1.845s-1.845.828-1.845 1.845v8.974c0 .496.403.899.899.899h8.974c1.017 0 1.845-.828 1.845-1.845s-.828-1.845-1.845-1.845h-3.574l6.96-6.96c.349-.349.54-.812.54-1.305s-.192-.956-.54-1.305c-.348-.347-.811-.539-1.304-.539z"/><path d="m47.572 16.157h-8.974c-1.017 0-1.845.828-1.845 1.845s.828 1.845 1.845 1.845h3.574l-6.96 6.96c-.719.719-.719 1.89 0 2.609.348.349.812.54 1.305.54s.956-.192 1.305-.54l6.96-6.96v2.484c0 1.017.828 1.845 1.845 1.845s1.845-.828 1.845-1.845v-7.885c-.001-.495-.405-.898-.9-.898z"/><path d="m22.457 19.847h3.574c1.018 0 1.845-.828 1.845-1.845s-.828-1.845-1.845-1.845h-8.974c-.496 0-.899.403-.899.899v7.884c0 1.017.828 1.845 1.845 1.845s1.845-.828 1.845-1.845v-2.484l6.96 6.96c.349.349.812.54 1.305.54s.956-.192 1.305-.54c.349-.349.54-.812.54-1.305s-.192-.956-.54-1.305z"/><path d="m46.626 36.752c-1.017 0-1.845.828-1.845 1.845v3.574l-6.96-6.96c-.349-.348-.812-.54-1.305-.54s-.956.192-1.305.54c-.349.349-.54.812-.54 1.305s.192.956.54 1.305l6.96 6.96h-3.574c-1.017 0-1.845.828-1.845 1.845s.828 1.845 1.845 1.845h8.974c.496 0 .899-.403.899-.899v-8.974c.001-1.018-.827-1.846-1.844-1.846z"/></g></svg>