<svg height="64.628" viewBox="0 0 64.628 64.628" width="64.628" xmlns="http://www.w3.org/2000/svg"><g fill="#5f6062"><path d="m32.314 0c-17.847 0-32.314 14.467-32.314 32.314 0 17.846 14.467 32.314 32.314 32.314s32.314-14.468 32.314-32.314c0-17.847-14.468-32.314-32.314-32.314zm0 62.689c-16.749 0-30.375-13.626-30.375-30.375s13.626-30.375 30.375-30.375 30.375 13.626 30.375 30.375-13.626 30.375-30.375 30.375z"/><path d="m34.537 39.014h-9.15c-.578 0-1.046-.468-1.046-1.046 0-.577.468-1.046 1.046-1.046h10.372c1.938-2.585 5.025-4.261 8.497-4.261 1.259 0 2.466.221 3.587.625v-16.711c0-1.444-1.17-2.614-2.614-2.614h-25.05c-1.444 0-2.614 1.17-2.614 2.614v30.298c0 1.444 1.17 2.614 2.614 2.614h15.476c-1.265-1.747-2.012-3.893-2.012-6.211-.001-1.515.319-2.957.894-4.262zm-9.15-14.273h13.206c.578 0 1.046.468 1.046 1.046s-.468 1.046-1.046 1.046h-13.206c-.578 0-1.046-.468-1.046-1.046.001-.577.469-1.046 1.046-1.046zm0 6.065h16.343c.577 0 1.046.468 1.046 1.046s-.468 1.046-1.046 1.046h-16.343c-.578 0-1.046-.468-1.046-1.046.001-.578.469-1.046 1.046-1.046z"/><path d="m44.256 34.512c-4.84 0-8.764 3.924-8.764 8.764s3.924 8.764 8.764 8.764 8.764-3.924 8.764-8.764-3.923-8.764-8.764-8.764zm4.694 8.683c0 .421-.341.762-.762.762h-3.17v3.17c0 .421-.341.762-.762.762s-.762-.341-.762-.762v-3.17h-3.17c-.421 0-.762-.341-.762-.762s.341-.762.762-.762h3.17v-3.17c0-.421.341-.762.762-.762s.762.341.762.762v3.17h3.17c.421 0 .762.341.762.762z"/></g></svg>