<svg height="64.628" viewBox="0 0 64.628 64.628" width="64.628" xmlns="http://www.w3.org/2000/svg"><g fill="#5f6062"><path d="m32.314 0c-17.847 0-32.314 14.467-32.314 32.314s14.467 32.314 32.314 32.314 32.314-14.468 32.314-32.314-14.468-32.314-32.314-32.314zm0 62.689c-16.749 0-30.375-13.626-30.375-30.375s13.626-30.375 30.375-30.375 30.375 13.626 30.375 30.375-13.626 30.375-30.375 30.375z"/><path d="m19.173 25.613c-.013.049-.101.378-.112.419.491.505 1.166.905 1.954 1.167-.031-.117-.409-1.531-.423-1.585-.056-.001-1.364-.001-1.419-.001z"/><path d="m22.211 25.071h1.141c-.024-.091-.51-1.881-.576-2.12-.064.239-.541 2.03-.565 2.12z"/><path d="m20.447 25.071c-.024-.09-.501-1.877-.566-2.118-.064.241-.541 2.028-.564 2.118z"/><path d="m22.786 20.707c-.783.036-1.548.203-2.219.489.019.067 1.008 3.551 1.073 3.781.062-.233 1.118-4.167 1.146-4.27z"/><path d="m26.246 25.071c-.024-.091-.511-1.88-.576-2.12-.063.24-.538 2.03-.561 2.12z"/><path d="m18.215 24.113c0 .467.138.919.402 1.345.045-.168.948-3.533 1.003-3.735-.905.644-1.405 1.488-1.405 2.39z"/><path d="m22.066 25.613c-.014.055-.445 1.669-.466 1.749.486.11.99.167 1.5.167.301 0 .605-.022.903-.062-.024-.088-.489-1.8-.504-1.854-.055 0-1.377 0-1.433 0z"/><path d="m26.487 21.658c.057.199 1.04 3.655 1.087 3.818.269-.432.411-.889.411-1.363-.001-.924-.547-1.813-1.498-2.455z"/><path d="m47.799 16.489h-30.971c-1.263 0-2.287 1.024-2.287 2.287v23.093c0 1.263 1.024 2.287 2.287 2.287h30.971c1.263 0 2.287-1.024 2.287-2.287v-23.093c.001-1.263-1.023-2.287-2.287-2.287zm-18.971 9.921-.028.019-.086-.095.037-.026c2.977-2.056 4.744-4.045 4.298-4.838-.367-.653-2.24-.367-4.774.723.518.565.82 1.22.82 1.92 0 2.107-2.69 3.822-5.996 3.822-1.08 0-2.092-.185-2.968-.506-1.201 1.161-1.738 2.098-1.472 2.57.303.538 1.633.448 3.56-.242l.028-.01.072.106-.047.018c-2.509.959-4.175 1.105-4.572.399-.336-.597.3-1.703 1.785-3.115-1.444-.698-2.382-1.8-2.382-3.042 0-2.107 2.69-3.822 5.996-3.822 1.871 0 3.544.55 4.645 1.408 3.421-1.614 5.951-2.087 6.447-1.204.562.999-1.644 3.431-5.363 5.915zm16.178 12.354h-9.509c-.588 0-1.064-.476-1.064-1.064s.477-1.064 1.064-1.064h9.509c.588 0 1.064.476 1.064 1.064 0 .587-.476 1.064-1.064 1.064zm0-4.966h-9.509c-.588 0-1.064-.476-1.064-1.064s.477-1.064 1.064-1.064h9.509c.588 0 1.064.476 1.064 1.064s-.476 1.064-1.064 1.064z"/><path d="m23.321 20.704c.03.103 1.148 4.032 1.215 4.268.063-.237 1.003-3.74 1.021-3.808-.677-.277-1.448-.435-2.236-.46z"/><path d="m24.965 25.613c-.014.05-.114.429-.119.449.006.02.303 1.064.325 1.141.546-.179 1.036-.425 1.455-.731-.014-.053-.219-.806-.233-.859-.056 0-1.372 0-1.428 0z"/></g></svg>