<svg xmlns="http://www.w3.org/2000/svg" width="65.02" height="39.27" viewBox="0 0 65.02 39.27"><title>Artboard 1</title><path d="M64.7,1.63c-1.9-3.3-11.5-1.5-24.5,4.5l-.2.1.2.1A9.34,9.34,0,0,1,42,7.93l.1.1h.1c9.7-4.1,16.9-5.2,18.3-2.7,1.7,2.9-5,10.3-16.3,17.9l-.1.1.3.3.1-.1C58.5,14.23,66.8,5.23,64.7,1.63Z" fill="#00529a"/><path d="M19.3,35.73c-7.3,2.6-12.3,2.9-13.4.9-1-1.7,1-5.2,5.6-9.5l.2-.2-1.3-.5a11.73,11.73,0,0,1-1.1-.5H9.2l-.1.1c-5.7,5.3-8.2,9.4-6.9,11.6,1.5,2.6,7.8,2.1,17.3-1.5l.2-.1-.3-.4Z" fill="#00529a"/><path d="M22.7.83C10.2.83,0,7.13,0,14.93S10.2,29,22.7,29s22.7-6.3,22.7-14.1S35.2.83,22.7.83Zm-3.9,19.6h5.4c.1.2,1.8,6.5,1.9,6.8-1.1.1-2.3.2-3.4.2a27.6,27.6,0,0,1-5.7-.6C17.1,26.63,18.7,20.63,18.8,20.43Zm.5-2c.1-.3,1.9-6.9,2.1-7.8.2.9,2.1,7.5,2.2,7.8Zm2.2-16.1c-.1.4-4.1,14.9-4.3,15.8-.2-.8-4-13.7-4.1-14A27.88,27.88,0,0,1,21.5,2.33Zm2,0A26.24,26.24,0,0,1,32,4c-.1.3-3.6,13.2-3.9,14.1C27.9,17.23,23.6,2.73,23.5,2.33Zm6.8,16.1c.1-.3,1.9-6.9,2.1-7.8.2.9,2.1,7.5,2.2,7.8Zm-1,3.7a15.43,15.43,0,0,1,.5-1.7h5.4c.1.2.8,3,.9,3.2a21.68,21.68,0,0,1-5.5,2.7C30.4,26,29.3,22.23,29.3,22.13Zm10.3-2.2c-.2-.6-3.9-13.4-4.1-14.1,3.6,2.4,5.7,5.6,5.7,9.1A9.25,9.25,0,0,1,39.6,19.93Zm-24.8,6.4A18.56,18.56,0,0,1,7.4,22c0-.1.4-1.4.4-1.5h5.4C13.2,20.63,14.7,25.93,14.8,26.33Zm-6.5-7.9c.1-.3,1.9-6.9,2.1-7.8.2.9,2.1,7.5,2.1,7.8ZM9.5,6.13c-.2.7-3.6,13.2-3.8,13.8a9.14,9.14,0,0,1-1.5-5C4.2,11.63,6.1,8.53,9.5,6.13Z" fill="#ed1c2e"/></svg>