<svg xmlns="http://www.w3.org/2000/svg" xmlns:xlink="http://www.w3.org/1999/xlink" width="64" height="33.624" viewBox="0 0 64 33.624"><defs><style>.a,.c{fill:#14356f;}.a{clip-rule:evenodd;}.b{clip-path:url(#a);}.d{clip-path:url(#b);}.e{clip-path:url(#c);}</style><clipPath id="a"><path class="a" d="M37.813-55.166a2.6,2.6,0,0,0,2.591-2.6,2.6,2.6,0,0,0-2.591-2.6l-5.575,0a2.6,2.6,0,0,0-2.543,2.6,2.6,2.6,0,0,0,2.543,2.6l5.575,0" transform="translate(-29.695 60.375)"/></clipPath><clipPath id="b"><path class="a" d="M36.458-44.507a2.636,2.636,0,0,0-2.63,2.643,2.636,2.636,0,0,0,2.63,2.643,2.636,2.636,0,0,0,2.63-2.643,2.636,2.636,0,0,0-2.63-2.643" transform="translate(-33.828 44.507)"/></clipPath><clipPath id="c"><path class="a" d="M80.586-68.935c-3.927,0-6.447,1.659-9.729,5.286-2.052-3.565-4.923-5.286-8.733-5.286a9.229,9.229,0,0,0-8.557,5.04v-4.426H37.912a1.827,1.827,0,0,0-1.747,1.865,1.827,1.827,0,0,0,1.747,1.865h5.5a1.817,1.817,0,0,1,1.772,1.859,1.817,1.817,0,0,1-1.772,1.859H41.476A1.827,1.827,0,0,0,39.729-59a1.827,1.827,0,0,0,1.747,1.865h1.937a1.817,1.817,0,0,1,1.772,1.859v.052a1.817,1.817,0,0,1-1.772,1.859H38.061A1.827,1.827,0,0,0,36.313-51.5a1.827,1.827,0,0,0,1.747,1.865h5.353a1.817,1.817,0,0,1,1.772,1.859v.022A1.817,1.817,0,0,1,43.414-45.9H41.328a1.827,1.827,0,0,0-1.747,1.865,1.827,1.827,0,0,0,1.747,1.865l3.858,0v6.851h8.792V-53.2c0-4.426,1.875-6.7,5.392-6.7,3.458,0,4.4,2.09,4.4,6.7v17.888h9.084V-53.2c0-4.426,1.875-6.7,5.392-6.7,3.459,0,4.4,2.09,4.4,6.7v17.888h9.025V-57.072c0-7.683-3.985-11.863-11.077-11.863" transform="translate(-36.165 68.935)"/></clipPath></defs><g class="b" transform="translate(0 7.666)"><path class="c" d="M24.7-65.375h23.85v18.35H24.7Z" transform="translate(-31.266 58.804)"/></g><g class="d" transform="translate(5.432 21.856)"><path class="c" d="M28.828-49.507h18.4v18.428h-18.4Z" transform="translate(-35.399 42.936)"/></g><g class="e" transform="translate(8.502)"><path class="c" d="M31.165-73.935H95.691v43.044H31.165Z" transform="translate(-35.679 69.225)"/></g></svg>