<?xml version="1.0" encoding="utf-8"?>
<!-- Generator: Adobe Illustrator 24.1.2, SVG Export Plug-In . SVG Version: 6.00 Build 0)  -->
<svg version="1.1" id="Layer_1" xmlns="http://www.w3.org/2000/svg" xmlns:xlink="http://www.w3.org/1999/xlink" x="0px" y="0px"
	 viewBox="0 0 64.3 64.3" style="enable-background:new 0 0 64.3 64.3;" xml:space="preserve">
<style type="text/css">
	.st0{fill:#FFFFFF;}
</style>
<path class="st0" d="M32.1,0C14.4,0,0,14.4,0,32.1c0,17.8,14.4,32.1,32.1,32.1s32.1-14.4,32.1-32.1C64.3,14.4,49.9,0,32.1,0z
	 M33,13.9l12.1,2.4c1.1,0.2,2,1,2.2,2.1l1.5,5.8L33,18.7V13.9z M17.3,18.4c0.3-1.1,1.1-1.9,2.2-2.1l11.6-2.4v4.8l-15.4,5.5
	L17.3,18.4z M50.5,46.4c-0.4,0.2-0.9,0.4-1.4,0.8c-2.8,2.1-5.1,2.1-7.9,0c-1.8-1.3-3.3-1.3-5.1,0c-1,0.8-2.1,1.3-3.1,1.5
	c-0.3,0.1-0.6,0.1-1,0.1h0c-0.3,0-0.6,0-1-0.1c-1-0.2-2-0.7-3.1-1.5c-1.8-1.3-3.3-1.3-5.1,0c-2.8,2.1-5.1,2.1-7.9,0
	c-0.5-0.4-1-0.7-1.5-0.8c-0.6-0.2-1-0.8-1-1.4c0-1,1-1.7,2-1.4c0.7,0.3,1.4,0.6,2.1,1.2c1.7,1.3,2.7,1.5,4.6,0
	c0.5-0.4,1-0.7,1.5-0.9c0.5-0.2,1-0.4,1.6-0.5c0.3-0.1,0.6-0.1,0.9-0.1c0.4,0,0.8,0,1.2,0c0.3,0,0.5,0.1,0.8,0.2
	c0.5,0.2,1,0.4,1.5,0.7c0.3,0.2,0.6,0.4,1,0.6c0.4,0.3,0.9,0.6,1.4,0.8c0.3,0.1,0.6,0.2,0.9,0.2h0.1c0.3,0,0.6-0.1,0.9-0.2
	c0.5-0.2,1-0.5,1.4-0.8c0.3-0.2,0.6-0.4,1-0.6c0.5-0.3,1-0.5,1.5-0.7c0.3-0.1,0.5-0.1,0.8-0.2c0.4-0.1,0.8-0.1,1.2,0
	c0.3,0,0.6,0,0.9,0.1c0.5,0.1,1.1,0.3,1.6,0.5c0.5,0.3,1.1,0.6,1.5,0.9c2,1.5,2.9,1.3,4.6,0c0.7-0.5,1.3-0.9,1.9-1.1
	c1-0.4,2,0.3,2,1.4C51.5,45.6,51.1,46.2,50.5,46.4z M53.9,31.9c-1.5,1.7-7.3,7.6-10.1,10.6c-0.3-0.2-0.6-0.4-1-0.6
	c-0.5-0.4-1-0.7-1.5-0.9c-0.5-0.2-1-0.4-1.6-0.5c-0.3-0.1-0.6-0.1-0.9-0.1c-0.4,0-0.8,0-1.2,0c-0.3,0-0.5,0.1-0.8,0.2
	c-0.5,0.2-1,0.4-1.5,0.7c-0.3,0.2-0.6,0.4-1,0.6c-0.4,0.3-0.9,0.6-1.4,0.8c-0.3,0.1-0.6,0.2-0.9,0.2h-0.1c-0.3,0-0.6-0.1-0.9-0.2
	c-0.5-0.2-1-0.5-1.4-0.8c-0.3-0.2-0.6-0.4-1-0.6c-0.5-0.3-1-0.5-1.5-0.7c-0.3-0.1-0.5-0.1-0.8-0.2c-0.4-0.1-0.8-0.1-1.2,0
	c-0.3,0-0.6,0-0.9,0.1c-0.5,0.1-1.1,0.3-1.6,0.5c-0.5,0.3-1.1,0.6-1.5,0.9c-0.3,0.2-0.6,0.4-0.9,0.6c-2.9-3-8.6-8.9-10.2-10.6
	c-2.1-2.3,1-3.2,1-3.2L29.6,22c0,0,2.4-1.2,5.2,0L53,28.7C53,28.7,56,29.5,53.9,31.9z"/>
</svg>
