<svg xmlns="http://www.w3.org/2000/svg" style="display: none;">
  
    <symbol id="pixel-core-2way-chat" viewBox="0 0 512 512">
      <path d="m390 123l-154 0c-16 0-30 14-30 30l0 16 70 0c25 0 44 20 44 44l0 76 6 0 39 39 0-39 25 0c16 0 29-14 29-30l0-106c0-16-12-30-29-30z m-114 61l-154 0c-17 0-30 13-30 30l0 106c0 16 13 30 30 30l24 0 0 39 40-39 89 0c17 0 30-14 30-30l0-107c1-16-13-29-29-29z"/>
    </symbol>
  
    <symbol id="pixel-core-aaa-insurance-logo" viewBox="0 0 512 512">
      <path d="m187 303l9 0-9 39-8 0z m12 14c1-2 1-3 1-4l7 0-1 2c2-2 5-3 9-3 5 0 9 3 9 9 0 2-1 5-1 6l-3 15-8 0 3-14c1-2 1-4 1-6 0-3-1-4-4-4-5 0-7 5-8 9l-3 15-8 0z m50 2c-2-1-4-2-6-2-2 0-5 1-5 4 0 3 9 5 9 11 0 8-6 10-13 10-3 0-6 0-8-2l1-6c2 1 4 2 7 2 3 0 6-1 6-3 0-4-10-5-10-12 0-7 7-9 12-9 3 0 6 0 8 1z m29 18c0 2 0 3 0 5l-8 0 1-3c-2 2-5 4-8 4-6 0-10-4-10-10 0-2 1-4 1-6l4-14 7 0-2 14c-1 2-1 4-1 6 0 2 1 4 4 4 5 0 7-5 8-9l3-15 8 0z m11-21c0-1 1-2 1-4l7 0-1 6c1-3 5-6 9-6 1 0 2 0 3 0l-2 7c-1 0-2 0-3 0-5 0-8 5-9 9l-2 14-8 0z m35 21c-3 3-6 5-10 5-5 0-8-3-8-8 0-10 10-10 17-10l3 0c0-1 0-2 0-3 0-3-3-4-6-4-3 0-7 1-9 2l1-6c3-1 6-1 10-1 5 0 11 2 11 9 0 4-3 15-4 20l-6 0z m-8 0c6 0 7-4 9-9l-3 0c-4 0-10 1-10 6 0 2 2 3 4 3z m24-20c1-2 1-3 1-4l7 0 0 2c2-2 5-3 8-3 6 0 10 3 10 9 0 2-1 5-1 6l-4 14-7 0 2-13c1-2 1-4 1-6 0-3-1-5-4-5-5 0-7 5-8 10l-3 14-8 0z m52 2c-1-1-3-1-5-1-7 0-10 6-10 11 0 3 1 7 6 7 3 0 5 0 7-1l-1 6c-2 1-4 2-7 2-7 0-12-6-12-13 0-10 6-18 17-18 2 0 5 1 7 1z m9 10c0 5 3 7 9 7 3 0 6-1 8-2l-1 6c-3 2-6 2-9 2-8 0-14-4-14-13 0-8 7-17 17-17 7 0 11 3 11 11 0 2 0 4 0 6z m14-5c0 0 0-1 0-2 0-3-1-5-4-5-5 0-7 3-9 7z m-69-148c-8-13-45-6-97 18l-1 1 0 0c3 2 5 4 7 6l1 1 1 0c38-17 66-21 72-11 6 12-20 40-65 71l0 0 1 2 1-1c56-37 88-72 80-87z m-180 136c-28 10-49 11-53 3-4-7 4-20 23-37l0-1-5-2c0 0-4-2-4-2l-1 0c-23 21-32 37-27 46 6 10 31 8 68-6l1 0z m14-139c-50 0-90 25-90 56 0 31 40 56 90 56 49 0 90-25 90-56-1-31-41-56-90-56z m-16 78c1 0 20 0 21 0 0 1 8 25 8 27-5 1-9 1-13 1-8 0-16-1-23-3 0-1 7-24 7-25z m2-8c0-1 8-27 9-31 1 4 8 30 8 31-1 0-16 0-17 0z m9-64c-1 2-17 59-18 63-1-4-16-55-16-56 11-4 22-6 34-7z m8 0c12 1 23 3 34 7-1 1-15 52-16 56-1-4-18-61-18-63z m26 64c1-1 8-27 9-31 1 4 8 30 8 31-1 0-15 0-17 0z m-3 15c0-1 1-6 1-7 1 0 21 0 22 0 0 1 3 12 3 13-6 4-13 8-22 10 0-1-4-16-4-16z m41-9c-1-2-16-52-17-55 15 9 23 22 23 35 0 7-2 14-6 20z m-99 25c-12-3-22-9-29-16 0-1 1-6 1-7 1 0 21 0 22 0 0 1 5 21 6 23z m-25-31c0-1 8-27 9-31 1 4 8 30 8 31-2 0-16 0-17 0z m4-49c-1 3-14 52-15 55-4-6-6-13-6-20 0-13 8-25 21-35z"/>
    </symbol>
  
    <symbol id="pixel-core-aaa-logo" viewBox="0 0 512 512">
      <path d="m418 164c-10-17-59-8-126 23l-1 0 1 1c4 2 7 5 10 8l0 1 1 0c49-21 86-27 93-14 9 15-25 53-83 91l-1 1 2 1 0 0c72-48 115-94 104-112z m-233 174c-37 14-63 15-68 5-5-9 5-27 28-49l1-1-6-2c-1 0-6-3-6-3l0 0-1 1c-29 27-42 48-35 59 7 13 40 11 88-8l1 0-1-2z m18-178c-64 0-116 32-116 72 0 40 52 72 116 72 64 0 116-32 116-72 0-40-52-72-116-72z m-20 100c1 0 26 0 27 0 1 1 10 33 10 35-5 0-12 1-17 1-10 0-20-1-29-3 0-1 8-32 9-33z m2-10c1-2 10-35 11-40 1 5 11 38 11 40-1 0-20 0-22 0z m12-83c-1 2-21 77-22 81-1-4-21-70-21-71 12-5 27-9 43-10z m10 0c15 1 30 4 43 9 0 2-18 68-20 72-1-4-23-79-23-81z m35 83c0-2 9-35 10-40 1 5 11 38 12 40-2 0-21 0-22 0z m-5 19c0-1 2-8 2-9 1 0 27 0 28 0 0 1 4 15 4 16-8 6-17 11-28 14-1-1-6-21-6-21z m52-11c-1-4-20-69-21-73 19 13 29 29 29 47 0 9-3 17-8 26z m-127 32c-15-5-28-12-38-22 0 0 2-7 2-7 1 0 27 0 28 0 0 0 8 27 8 29z m-33-40c1-2 10-35 11-40 1 5 11 38 11 40-1 0-20 0-22 0z m6-63c-1 3-18 67-19 71-5-9-8-17-8-26 0-17 10-33 27-45z"/>
    </symbol>
  
    <symbol id="pixel-core-access-point" viewBox="0 0 512 512">
      <path d="m395 327l-119 0c0 0 0-1 0-1l-5-56c0-4-2-6-5-7l-2-49c5-4 8-9 8-15 0-10-7-17-17-17-9 0-16 7-16 17 0 6 3 11 8 15l-2 49c-2 0-4 3-4 7l-5 56c0 1 0 1 0 1l-119 0c-13 0-24 11-24 24l0 45c0 13 11 24 24 24l278 0c14 0 24-11 24-24l0-45c0-13-11-24-24-24z m-91 64c-10 0-17-8-17-17 0-9 7-17 17-17 9 0 17 8 17 17 0 9-8 17-17 17z m72 0c-9 0-17-8-17-17 0-9 8-17 17-17 9 0 17 8 17 17 0 9-8 17-17 17z m-246-91c4 5 12 6 17 1 5-5 5-12 0-17-9-11-16-23-22-36-6-16-9-32-9-50 0-17 3-34 9-50 6-13 13-25 22-36 5-4 5-12 0-16-5-5-13-5-17 0-11 13-20 27-26 43-8 19-12 39-12 59 0 21 4 41 12 60 6 15 14 29 26 42z m86-68c4-4 4-10 1-15-3-6-5-12-5-19 0-7 2-13 5-19 3-4 2-11-1-15-6-5-15-4-19 2-6 10-9 21-9 32 0 11 3 22 9 32 4 6 13 7 19 2z m-53 33c5 6 13 6 18 1 4-4 5-11 1-16-12-15-18-33-18-52 0-19 6-38 18-53 4-5 3-12-1-16-5-5-13-5-18 1-15 19-23 43-23 67 0 25 8 49 23 68z m223-117c7 16 10 33 10 50 0 18-3 34-10 50-5 14-13 25-22 36-4 5-4 12 1 17 5 5 13 4 17-1 11-13 19-27 26-42 7-19 11-39 11-60 0-20-4-40-11-59-7-16-15-30-26-43-5-5-13-5-17 0-5 4-5 12-1 16 10 10 17 23 22 36z m-86 50c0 7-3 13-6 19-3 5-2 11 2 15 6 6 15 5 19-2 6-9 9-21 9-32 0-11-3-22-9-32-4-6-13-7-19-2-4 4-5 11-2 15 4 6 6 12 6 19z m31 68c5 5 13 5 18-1 15-19 23-42 23-67 0-24-8-48-23-67-5-6-13-6-18-1-4 4-5 11-1 16 12 15 18 34 18 53 0 18-6 37-18 52-4 4-3 11 1 15z"/>
    </symbol>
  
    <symbol id="pixel-core-alert" viewBox="0 0 512 512">
      <path d="m412 328l-48-53 0-85c0-60-50-110-111-110-60 0-110 50-110 110l0 85-48 53c-14 15-3 39 18 39l281 0c20 0 31-24 18-39z m-159 104c22 0 41-18 41-40l-81 0c0 22 18 40 40 40z"/>
    </symbol>
  
    <symbol id="pixel-core-amex" viewBox="0 0 512 512">
      <path d="m401 126l-290 0c-12 0-21 10-21 22l0 217c0 11 9 21 21 21l290 0c12 0 22-10 22-21l0-217c-1-12-10-22-22-22z m-5 160l-23 0-16-18-16 18-57 0 0-62 59 0 14 17 16-17 24 0-28 30z m-21-4l12 0-23-28 23-26-12 0-18 19-17-19-52 0 0 54 51 0 18-20z m-106 4l-18 0 0-34-16 34-16 0-15-35 0 35-32 0-6-13-26 0-5 13-20 0 27-62 22 0 21 40 0-40 26 0 16 36 16-36 26 0 0 62z m-14-4l10 0 0-54-19 0-19 42-19-42-19 0 0 53-28-53-16 0-23 54 10 0 6-13 31 0 6 13 25 0 0-51 22 51 10 0 23-50 0 50z m78-8l-36 0 0-15 32 0 0-7-32 0 0-15 38 0 16 17z m-31-4l30 0 14-16-12-13-31 0 0 7 31 0 0 15-32 0z m-137-9l-24 0 12-28z m-17-4l11 0-6-13z"/>
    </symbol>
  
    <symbol id="pixel-core-amex-logo" viewBox="0 0 512 512">
      <path d="m401 136c7 0 12 5 12 12l0 217c0 6-5 12-12 12l-290 0c-7 0-12-6-12-12l0-217c0-7 5-12 12-12l290 0m0 0c7 0 12 5 12 12l0 217c0 6-5 12-12 12l-290 0c-7 0-12-6-12-12l0-217c0-7 5-12 12-12l290 0m0-10l-290 0c-12 0-21 10-21 22l0 217c0 11 9 21 21 21l290 0c12 0 22-10 22-21l0-217c-1-12-10-22-22-22z m-5 160l-23 0-16-18-16 18-57 0 0-62 59 0 14 17 16-17 24 0-28 30z m-21-4l12 0-23-28 23-26-12 0-18 19-17-19-52 0 0 54 51 0 18-20z m-106 4l-18 0 0-34-16 34-16 0-15-35 0 35-32 0-6-13-26 0-5 13-20 0 27-62 22 0 21 40 0-40 26 0 16 36 16-36 26 0 0 62z m-14-4l10 0 0-54-19 0-19 42-19-42-19 0 0 53-28-53-16 0-23 54 10 0 6-13 31 0 6 13 25 0 0-51 22 51 10 0 23-50 0 50z m78-8l-36 0 0-15 32 0 0-7-32 0 0-15 38 0 16 17z m-31-4l30 0 14-16-12-13-31 0 0 7 31 0 0 15-32 0z m-137-9l-24 0 12-28z m-17-4l11 0-6-13z"/>
    </symbol>
  
    <symbol id="pixel-core-arrow-down" viewBox="0 0 512 512">
      <path d="m97 197l152 153c4 4 11 4 15 0l152-153c8-8 8-20 0-28l-1-2c-8-7-21-7-28 0l-124 123c-4 4-10 4-14 0l-123-123c-7-7-20-7-28 0l-1 2c-8 8-8 20 0 28z"/>
    </symbol>
  
    <symbol id="pixel-core-arrow-left" viewBox="0 0 512 512">
      <path d="m315 415l-151-152c-4-4-4-10 0-14l152-152c8-8 20-8 28 0l2 1c7 8 7 21 0 28l-123 123c-4 4-4 10 0 14l123 123c7 7 7 20 0 28l-2 1c-8 8-20 8-29 0z"/>
    </symbol>
  
    <symbol id="pixel-core-arrow-right" viewBox="0 0 512 512">
      <path d="m197 415l151-152c4-4 4-10 0-14l-151-152c-8-8-21-8-29 0l-1 1c-8 8-8 21 0 28l122 123c4 4 4 10 0 14l-123 122c-7 8-7 21 0 28l2 2c8 8 20 8 29 0z"/>
    </symbol>
  
    <symbol id="pixel-core-arrow-up" viewBox="0 0 512 512">
      <path d="m98 315l151-151c4-4 11-4 14 0l152 151c7 8 7 21 0 29l-2 1c-7 8-20 8-28 0l-122-122c-4-4-10-4-14 0l-122 122c-7 8-20 8-28 0l-1-1c-8-8-8-21 0-29z"/>
    </symbol>
  
    <symbol id="pixel-core-auto" viewBox="0 0 512 512">
      <path d="m510 254c-1-11-15-29-30-44l-48-132c-10-28-36-46-66-46l-223 0c-29-1-56 18-66 46l-47 129c-15 16-29 34-30 47l0 186c0 20 17 37 38 37l10 0c21 0 38-17 38-37l0-26 338 0 0 26c0 20 17 37 38 37l11 0c20 0 37-17 37-37l0-186z m-428-88l28-76c5-14 19-23 33-23l222 0c15 0 28 9 34 23l28 76c1 3 1 6-1 9-2 2-5 4-8 4l-327 0c-3 0-6-1-8-4-2-2-2-6-1-9z m19 143c-20 0-36-16-36-36 0-19 16-35 36-35 19 0 35 16 35 35 0 20-16 36-35 36z m268-36c0-20 16-36 36-36 19 0 35 16 35 36 0 19-16 35-35 35-10 0-19-4-25-10-7-7-11-16-11-25z"/>
    </symbol>
  
    <symbol id="pixel-core-auto-1" viewBox="0 0 512 512">
      <path d="m423 278c-1-8-10-19-19-30l-31-85c-7-18-24-30-43-30l-145 0c-20 0-37 11-43 30l-31 84c-10 10-19 22-19 31l0 92c0 1 0 1 0 2l0 26c0 13 10 24 24 24l7 0c13 0 24-10 24-24l0-17 220 0 0 17c0 13 11 24 25 24l7 0c13 0 24-10 24-24l0-120z m-278-58l18-50c4-9 12-14 22-14l144 0c10 0 19 6 22 14l18 50c2 4-1 8-5 8l-213 0c-5 0-8-4-6-8z m12 93c-12 0-23-11-23-23 0-12 11-23 23-23 12 0 23 11 23 23 0 12-11 23-23 23z m175-24c0-12 11-23 23-23 12 0 23 11 23 23 0 13-11 23-23 23-12 1-23-10-23-23z"/>
    </symbol>
  
    <symbol id="pixel-core-auto-antitheft" viewBox="0 0 512 512">
      <path d="m417 268l-56 0c9 4 15 12 15 22 0 12-11 23-23 23-13 0-23-11-23-23 0-10 6-18 15-22l-26 0c-14 0-27-12-27-27l0-12-142 0c-4 0-7-4-6-8l18-49c3-10 12-15 22-15l108 0 0-21c0-1 0-1 0-2l-108 0c-19 0-37 12-43 30l-31 83c-9 10-19 22-19 31l0 92c0 1 0 1 0 2l0 25c0 14 10 24 24 24l7 0c13 0 24-10 24-24l0-16 218 0 0 16c0 14 11 24 24 24l7 0c14 0 24-10 24-24l0-119c1-3 0-6-2-10z m-261 45c-12 0-23-11-23-23 0-12 11-23 23-23 12 0 23 11 23 23 0 13-10 23-23 23z m279-62l-116 0c-5 0-10-4-10-10l0-105c0-6 5-11 10-11l116 0c6 0 10 5 10 11l0 106c0 5-4 9-10 9z m-41-84c-3-6-9-10-17-10-7 0-13 4-17 10-2 3-3 6-3 10 0 8 5 14 12 18l0 22c0 3 2 5 5 5l6 0c2 0 5-2 5-5l0-22c7-4 11-10 11-18 1-4 0-7-2-10z m15-54c0-17-14-31-31-31l-1 0c-17 0-31 14-31 31l-16 0c0-12 5-24 14-33 8-9 20-14 33-14l1 0c13 0 24 5 33 14 9 9 14 20 14 33z"/>
    </symbol>
  
    <symbol id="pixel-core-auto-checkmark" viewBox="0 0 512 512">
      <path d="m416 255c-14 8-28 12-45 13 6 4 9 11 9 18 0 13-10 24-23 24-13 0-24-11-24-24 0-8 5-16 13-20-26-6-48-21-62-42l-133 0c-5 0-8-4-6-8l18-50c4-9 13-15 22-15l83 0c2-9 4-16 7-24l-90 0c-20 0-37 13-44 31l-31 85c-10 10-19 22-20 31l0 94c0 0 0 1 0 1l0 26c0 14 11 25 25 25l7 0c14 0 24-11 24-25l0-17 223 0 0 17c0 14 11 25 24 25l7 0c14 0 25-11 25-25l0-121c0-5-4-12-9-19z m-259 55c-13 0-23-11-23-24 0-13 10-23 23-23 13 0 24 10 24 23-1 13-12 24-24 24z m210-226c-46 0-83 37-83 83 0 47 37 84 83 84 46 0 84-37 84-84 0-46-38-83-84-83z m51 59l-60 61c-1 1-3 2-5 2-2 0-4-1-6-3l-29-30c-3-3-3-8 0-11 3-3 8-3 11 0l23 25 55-55c3-3 7-3 10 0 4 4 4 8 1 11z"/>
    </symbol>
  
    <symbol id="pixel-core-auto-checkmark-1" viewBox="0 0 512 512">
      <path d="m465 259c-19 11-41 17-64 18 8 6 14 16 14 26 0 18-16 34-34 34-18 0-33-16-33-34 0-12 7-23 18-29-37-8-68-29-89-59l-191 0c-6 0-10-6-8-12l26-71c5-13 17-22 31-22l119 0c2-12 5-23 10-33l-129 0c-28 0-53 17-62 43l-45 121c-14 15-27 32-28 45l0 0 0 134c0 0 0 1 0 1l0 38c0 19 16 35 35 35l11 0c19 0 35-16 35-35l0-24 317 0 0 24c0 19 16 35 35 35l11 0c19 0 35-16 35-35l0-173 0 0c-1-7-6-17-14-27z m-370 78c-18 0-33-16-33-34 0-18 15-33 33-33 18 0 34 15 34 33 0 18-16 34-34 34z m300-322c-65 0-118 53-118 119 0 65 53 118 118 118 66 0 119-53 119-118 0-66-53-119-119-119z m73 84l-85 86c-2 2-5 4-8 4l0 0c-3 0-5-2-7-4l-42-43c-4-4-4-11 0-15 5-4 12-4 16 0l34 35 77-78c4-4 11-4 15 0 5 4 5 11 0 15z"/>
    </symbol>
  
    <symbol id="pixel-core-auto-highlimit" viewBox="0 0 512 512">
      <path d="m400 249l-21-56 0 9c0 27-23 49-50 49-17 0-32-8-41-22l-138 0c-5 0-8-4-6-8l18-49c3-9 12-15 21-15l60 0 1-11c1-4 1-8 2-11l-63 0c-19 0-36 11-42 29l-31 83c-9 10-19 22-19 31l0 91c0 1 0 1 0 2l0 25c0 14 10 24 24 24l7 0c13 0 24-10 24-24l0-16 218 0 0 16c0 14 10 24 24 24l6 0c14 0 24-10 24-24l0-118c0-7-9-19-18-29z m-244 64c-12 0-23-11-23-23 0-12 11-23 23-23 12 0 23 11 23 23 0 13-11 23-23 23z m196 0c-13 0-23-11-23-23 0-12 10-23 23-23 12 0 23 11 23 23 0 13-11 23-23 23z m-9-153l0 42c0 7-6 13-13 13-7 0-14-6-14-13 0-5-4-10-9-10-6 0-10 4-10 10 0 18 15 32 33 32 18 0 32-14 32-32l0-42c0-5-4-9-9-9-6 0-10 4-10 9z m-23-6c8-9 20-14 33-14 13 0 24 5 33 14 8-9 20-14 32-14 10 0 19 3 26 8-5-42-39-74-82-79l0-7c0-5-4-9-9-9-6 0-10 4-10 9l0 7c-42 5-76 37-82 79 7-5 17-8 26-8 13 0 25 5 33 14z"/>
    </symbol>
  
    <symbol id="pixel-core-auto-hybrid" viewBox="0 0 512 512">
      <path d="m403 247l-7-20c-10 4-22 6-35 6-12 0-25-2-39-6l-1 0c-5 6-10 15-15 25-3 8-12 13-20 13-10 0-20-5-25-13-4-6-5-14-2-21 1-1 1-2 2-4l-111 0c-5 0-8-4-6-8l18-50c4-9 12-15 22-15l87 0c1-4 2-8 3-13 1-3 3-7 5-10l-96 0c-19 0-37 12-43 30l-31 85c-10 10-19 22-19 30l0 93c0 1 0 1 0 2l0 26c0 13 10 24 24 24l7 0c14 0 25-10 25-24l0-17 220 0 0 17c0 13 11 24 25 24l7 0c13 0 24-10 24-24l0-121c0-7-9-18-19-29z m-247 65c-13 0-23-11-23-23 0-13 10-23 23-23 12 0 23 10 23 23 0 12-11 23-23 23z m198 0c-12 0-23-11-23-23 0-13 11-23 23-23 13 0 23 10 23 23 0 12-10 23-23 23z m-28-208c-42 24-39 63-38 78 54-63 134-60 134-60 0 0-114 39-148 117-2 6 13 14 16 6 11-21 25-38 25-38 21 8 57 17 83-1 35-24 31-77 80-103 11-6-96-31-152 1z"/>
    </symbol>
  
    <symbol id="pixel-core-auto-multipolicy" viewBox="0 0 512 512">
      <path d="m439 235c0-7-8-17-17-27l-29-77c-6-17-21-28-39-28l-131 0c-17 0-33 11-39 28l-3 8 22 0 1-1c3-8 11-14 19-14l131 0c9 0 17 6 20 14l16 45c2 3-1 7-5 7l-33 0 14 39c3-2 7-4 11-4 12 0 21 10 21 21 0 9-5 17-13 20 2 2 3 4 4 5 0 0 5 9 5 17 0 4 0 41 0 71 4 5 9 7 16 7l7 0c12 0 22-10 22-22l0-25z m-61 53c-1-7-9-18-18-27l-28-78c-6-16-22-27-40-27l-130 0c-18 0-33 11-40 27l-28 77c-8 9-17 20-18 28l0 84c0 0 0 1 0 1l0 23c0 13 10 22 22 22l7 0c12 0 22-9 22-22l0-15 200 0 0 15c0 13 9 22 22 22l6 0c13 0 22-9 22-22l0-108z m-253-52l17-46c3-8 11-13 19-13l131 0c9 0 17 5 20 13l16 46c2 3-1 7-5 7l-192 0c-4 0-7-4-6-7z m12 83c-12 0-21-9-21-21 0-11 9-20 21-20 11 0 21 9 21 20 0 12-10 21-21 21z m158-21c0-11 10-20 21-20 12 0 21 9 21 20 0 12-9 21-21 21-11 0-21-9-21-21z"/>
    </symbol>
  
    <symbol id="pixel-core-auto-ubi" viewBox="0 0 512 512">
      <path d="m420 272l-51 0c5 4 8 11 8 17 0 13-11 23-23 23-12 0-23-10-23-23 0-6 3-13 8-17l-15 0c-16 0-29-13-29-29l0-15-144 0c-5 0-8-4-6-8l18-49c3-9 12-15 21-15l111 0 0-11c0-4 1-8 3-12l-114 0c-19 0-36 12-43 30l-30 84c-10 10-19 22-20 31l0 92c0 1 0 1 0 2l0 26c0 13 11 24 25 24l7 0c13 0 24-10 24-24l0-17 220 0 0 17c0 13 10 24 24 24l7 0c14 0 25-10 25-24l0-119c-2-3-2-5-3-7z m-263 40c-13 0-23-10-23-23 0-12 10-23 23-23 12 0 23 11 23 23 0 13-11 23-23 23z m253-97c0 4-4 7-8 7-4 0-8-3-8-7 0-5 4-8 8-8 4 0 8 3 8 8z m-46-53c0 5-3 8-8 8-4 0-7-3-7-8 0-4 3-7 7-7 5 0 8 3 8 7z m70-30l-8 0 0-33c0-4-4-8-8-8l-78 0c-5 0-9 4-9 8l0 33-7 0c-7 0-12 6-12 12l0 99c0 6 5 12 12 12l110 0c6 0 12-6 12-12l0-99c0-6-6-12-12-12z m-94 22c6-9 16-12 26-7 8 5 11 16 6 25-5 9-16 12-25 7-9-5-12-17-7-25z m10 79c-3-2-4-6-2-10l50-78c2-4 6-5 10-2 4 2 5 7 2 10l-50 78c-2 4-6 5-10 2z m68-10c-5 9-16 12-25 7-9-5-12-16-7-25 5-9 16-12 25-7 8 5 11 17 7 25z"/>
    </symbol>
  
    <symbol id="pixel-core-auto-usage" viewBox="0 0 512 512">
      <path d="m365 86c-46 0-83 36-83 82 0 46 37 83 83 83 46 0 83-36 83-83-1-45-37-82-83-82z m0 13c5 0 9 4 9 9 0 5-4 9-9 9-5 0-9-4-9-9-1-5 3-9 9-9z m-57 88c-5 0-10-4-10-9 0-5 5-9 10-9 5 0 9 4 9 9 0 5-4 9-9 9z m13-45c-6 0-10-4-10-9 0-5 4-9 10-9 5 0 9 4 9 9 0 5-4 9-9 9z m101 45c-5 0-9-4-9-9 0-5 4-9 9-9 6 0 10 4 10 9 0 5-4 9-10 9z m-13-50l-28 26c0 1 0 2 0 3 0 9-6 15-14 15-9 0-15-6-15-15 0-8 6-14 15-14 1 0 3 0 4 0l28-26c3-2 8-2 11 1 2 3 2 8-1 10z m5 118c-14 8-28 12-44 13 5 4 9 11 9 18 0 13-11 24-24 24-12 0-23-11-23-24 0-8 5-16 12-20-26-6-47-21-61-41l-133 0c-5 0-8-4-6-8l18-50c4-9 13-15 22-15l82 0c2-9 4-16 7-23l-89 0c-20 0-37 12-44 30l-31 84c-10 10-19 23-19 31l0 94c0 0 0 1 0 1l0 26c0 14 10 25 24 25l7 0c14 0 25-11 25-25l0-17 221 0 0 17c0 14 11 25 25 25l7 0c13 0 24-11 24-25l0-121c0-5-4-11-9-19z m-258 55c-13 0-23-11-23-24 0-13 10-23 23-23 13 0 24 10 24 23-1 13-12 24-24 24z"/>
    </symbol>
  
    <symbol id="pixel-core-bank" viewBox="0 0 512 512">
      <path d="m405 350l-298 0c-3 0-5-2-5-5l0-14c0-3 2-5 5-5l298 0c3 0 5 3 5 5l0 14c0 3-2 5-5 5z m12 37l-322 0c-3 0-5-3-5-6l0-13c0-3 2-6 5-6l322 0c3 0 5 3 5 6l0 13c0 4-2 6-5 6z m-297-157c4 2 6 6 6 10l0 46c0 4-3 7-6 8l-1 0c-3 2-6 6-6 9 0 5 4 10 10 10l39 0c5 0 10-4 10-10 0-4-3-8-6-9l-1 0c-3-1-6-5-6-8l0-46c0-4 3-8 6-9l1 0c3-2 6-5 6-9 0-5-4-10-10-10l-39 0c-5 0-10 5-10 10 1 3 3 7 7 8z m112 0c5 2 7 6 7 10l0 46c0 4-3 7-7 8l0 0c-4 2-6 6-6 9 0 5 4 10 10 10l39 0c5 0 10-4 10-10 0-4-3-8-6-9l-1 0c-4-1-6-5-6-8l0-46c0-4 2-8 6-9l1 0c3-2 6-5 6-9 0-5-4-10-10-10l-39 0c-6 0-10 5-10 10 0 3 3 7 6 8z m166-9c0-5-4-10-10-10l-39 0c-5 0-10 5-10 10 0 4 3 8 6 9l1 0c3 1 6 5 6 9l0 46c0 4-3 7-6 8l-1 0c-3 2-6 5-6 9 0 5 4 10 10 10l39 0c5 0 10-4 10-10 0-4-3-8-6-9l-1 0c-3-1-6-5-6-8l0-46c0-5 3-8 6-9l1 0c4-1 6-5 6-9z m21-42l-161-54c-1 0-3 0-5 0l-159 54c-1 0-1 0-1 0-1 1-2 2-2 3-1 0-1 1-1 2l0 5c0 6 5 10 10 10l312 0c6 0 10-4 10-10l0-5c0 0 0 0 0-1 0-1-1-3-3-4z"/>
    </symbol>
  
    <symbol id="pixel-core-bill" viewBox="0 0 512 512">
      <path d="m373 91l-234 0c-14 0-25 10-25 24l0 284c0 13 11 24 25 24l234 0c14 0 25-10 25-24l0-284c0-13-11-24-25-24z m-42 224c0 6-5 10-10 10l-90 0c-5 0-9-4-9-10 0-5 4-9 9-9l90 0c5 0 10 4 10 9z m0-57c0 6-5 10-10 10l-90 0c-5 0-9-5-9-10 0-6 4-10 9-10l90 0c5 0 10 5 10 10z m0-56c0 5-5 9-10 9l-90 0c-5 0-9-4-9-9 0-6 4-10 9-10l90 0c5-1 10 4 10 10z m-129-1c0 7-5 13-12 13-7 0-12-6-12-13 0-6 5-12 12-12 7 0 12 6 12 12z m0 58c0 6-5 12-12 12-7 0-12-6-12-12 0-7 5-13 12-13 7 0 12 6 12 13z m0 57c0 7-5 13-12 13-7 0-12-6-12-13 0-6 5-12 12-12 7 0 12 6 12 12z"/>
    </symbol>
  
    <symbol id="pixel-core-birthday" viewBox="0 0 512 512">
      <path d="m352 315c-1-1-3-1-3-1-1 0-2 0-3 1l-20 19c-7 7-15 10-24 10-9 0-17-4-24-10l-19-19c-1-1-2-1-4-1-1 0-2 0-3 1l-18 18c-7 7-15 10-24 10-9 0-17-4-24-10l-19-18c-1-1-2-1-3-1-1 0-2 0-3 1l0 0c-7 7-15 11-24 11-2 0-3 0-5-1l0 79c0 10 7 17 16 17l217 0c9 0 16-7 16-17l0-79c-2 0-3 0-5 0-9 0-18-3-24-10z m0-107l-192 0c-24 0-43 19-43 42l0 41c0 17 21 26 33 14l1 0c7-8 19-8 27 0l18 18c8 8 20 8 27 0l19-18c7-8 19-8 27 0l19 19c8 8 20 8 27 0l20-19c8-8 19-8 27 0 12 12 33 3 33-14l0-41c0-23-19-42-43-42z m-151-64c0-3-2-5-5-5l-14 0c-3 0-5 3-5 5l0 48 24 0z m-13-15c7 1 12-5 12-12 0-3-1-5-2-7-4-7-6-14-8-18 0 0-1-1-1-1-1 0-1 1-2 1-1 4-3 10-7 17-1 2-2 5-2 7 0 7 4 13 10 13z m81 15c0-3-3-5-5-5l-15 0c-3 0-5 3-5 5l0 48 25 0z m-14-15c7 1 12-5 12-12 0-3-1-5-2-7-4-8-6-14-7-18 0 0-1-1-1-1-1 0-2 1-2 1-1 4-3 10-7 17-2 2-3 5-3 7 0 7 5 13 10 13z m80 15c0-3-3-5-5-5l-15 0c-3 0-5 3-5 5l0 48 25 0z m-13-15c6 1 11-5 11-12 0-3-1-5-2-7-3-7-5-14-7-18 0 0-1-1-1-1-1 0-1 1-2 1-1 4-3 10-7 17-2 2-3 5-3 7 0 7 4 13 11 13z"/>
    </symbol>
  
    <symbol id="pixel-core-calendar" viewBox="0 0 512 512">
      <path d="m169 136l-14 0c-3 0-5-3-5-5l0-58c0-3 3-5 5-5l14 0c3 0 5 3 5 5l0 58c1 3-2 5-5 5z m186 0l-13 0c-4 0-6-3-6-5l0-58c0-3 3-5 6-5l13 0c3 0 5 3 5 5l0 58c0 3-2 5-5 5z m41-44l-23 0 0 31c0 14-11 24-24 24-14 0-24-10-24-24l0-31-139 0 0 31c0 14-10 24-24 24-13 0-24-10-24-23l0-32-23 0c-13 0-24 11-24 24l0 281c0 13 11 24 24 24l281 0c13 0 24-11 24-24l0-281c0-13-11-24-24-24z m-23 258c0 8-7 15-15 15l-205 0c-9 0-15-7-15-15l0-134c0-9 7-15 15-15l205 0c9 0 15 7 15 15z m-170-98c0 8-6 14-14 14-8 0-14-6-14-14 0-8 6-14 14-14 8 0 14 6 14 14z m67 0c0 8-7 14-15 14-7 0-14-6-14-14 0-8 7-14 14-14 8 0 15 6 15 14z m66 0c0 8-6 14-14 14-8 0-14-6-14-14 0-8 6-14 14-14 8 0 14 6 14 14z m-133 62c0 8-6 14-14 14-8 0-14-6-14-14 0-8 6-14 14-14 8 0 14 6 14 14z m67 0c0 8-7 14-15 14-7 0-14-6-14-14 0-8 7-14 14-14 8 0 15 6 15 14z m66 0c0 8-6 14-14 14-8 0-14-6-14-14 0-8 6-14 14-14 8 0 14 6 14 14z"/>
    </symbol>
  
    <symbol id="pixel-core-calendar2" viewBox="0 0 512 512">
      <path d="m169 151l-14 0c-3 0-5-3-5-5l0-58c0-3 3-5 5-5l14 0c3 0 5 3 5 5l0 57c1 4-2 6-5 6z m186 0l-13 0c-4 0-6-3-6-5l0-58c0-3 3-5 6-5l13 0c3 0 5 3 5 5l0 57c0 4-2 6-5 6z m41 69l0 185c0 4-3 7-7 7l-267 0c-4 0-7-3-7-7l0-185z m0-113l-19 0 0 36c0 14-15 24-29 24-13 0-29-10-29-24l0-36-128 0 0 36c0 14-15 24-29 24-14 0-29-10-29-23l0-37-19 0c-13 0-24 11-24 24l0 281c0 13 11 24 24 24l281 0c14 0 24-11 24-24l0-281c1-13-10-24-23-24z m-119 142l-43 0c-3 0-6 3-6 6l0 43c0 4 3 7 6 7l43 0c2 0 3-1 4-1 0 0 0-1 0-1 0 0 1 0 1 0 0 0 0-1 0-1 0 0 0-1 1-1 0-1 0-2 0-3l0-43c1-3-2-6-6-6z m-81 0l-43 0c-3 0-7 3-7 6l0 43c0 4 4 7 7 7l43 0c1 0 2-1 3-1 1 0 1-1 1-1 0 0 0 0 0 0 0 0 1-1 1-1 0 0 0-1 0-1 1-1 1-2 1-3l0-43c0-3-3-6-6-6z m162 0l-43 0c-3 0-6 3-6 6l0 43c0 4 3 7 6 7l43 0c1 0 2-1 3-1 1 0 1-1 1-1 0 0 0 0 0 0 0 0 1-1 1-1 0 0 0-1 1-1 0-1 0-2 0-3l0-43c0-3-3-6-6-6z m-81 81l-43 0c-3 0-6 3-6 7l0 42c0 4 3 7 6 7l43 0c2 0 3 0 4-1 0 0 0 0 0 0 0 0 1-1 1-1 0 0 0-1 0-1 0 0 0-1 1-1 0-1 0-2 0-3l0-42c1-4-2-7-6-7z m-81 0l-43 0c-3 0-7 3-7 7l0 42c0 4 4 7 7 7l43 0c1 0 2 0 3-1 1 0 1 0 1 0 0 0 0-1 0-1 0 0 1-1 1-1 0 0 0-1 0-1 1-1 1-2 1-3l0-42c0-4-3-7-6-7z"/>
    </symbol>
  
    <symbol id="pixel-core-calendar-checkmark" viewBox="0 0 512 512">
      <path d="m169 136l-14 0c-3 0-5-3-5-5l0-58c0-3 3-5 5-5l14 0c3 0 5 2 5 5l0 57c1 3-2 6-5 6z m206 109c-1 0-1 0-2 0l0 105c0 8-6 15-14 15l-206 0c-9 0-15-7-15-15l0-134c0-9 7-15 15-15l134 0c-13-18-21-40-21-63 0-17 4-32 10-45l-90 0 0 31c0 14-10 24-24 24-13 0-24-11-24-25l0-31-23 0c-13 0-24 10-24 24l0 281c0 13 11 24 24 24l281 0c14 0 24-11 24-24l0-162c-13 7-29 10-45 10z m-172 6c0 8-6 15-14 15-8 0-14-7-14-15 0-8 6-14 14-14 8 0 14 6 14 14z m67 0c0 8-7 15-15 15-7 0-14-7-14-15 0-8 7-14 14-14 8 0 15 6 15 14z m66 0c0 8-6 15-14 15-8 0-14-7-14-15 0-8 6-14 14-14 8 0 14 6 14 14z m-133 63c0 8-6 14-14 14-8 0-14-6-14-14 0-8 6-14 14-14 8 0 14 6 14 14z m67 0c0 8-7 14-15 14-7 0-14-6-14-14 0-8 7-14 14-14 8 0 15 6 15 14z m66 0c0 8-6 14-14 14-8 0-14-6-14-14 0-8 6-14 14-14 8 0 14 6 14 14z m39-268c-51 0-91 41-91 91 0 50 41 91 91 91 50 0 91-41 91-91 0-50-41-91-91-91z m56 65l-65 66c-2 2-4 3-7 3-2 0-4-1-6-3l-31-33c-4-3-4-8 0-11 3-3 8-3 11 0l26 26 60-60c3-3 9-3 12 0 3 3 3 9 0 12z"/>
    </symbol>
  
    <symbol id="pixel-core-chat" viewBox="0 0 512 512">
      <path d="m386 106l-260 0c-19 0-34 16-34 34l0 188c0 19 16 33 34 33l149 0 61 61 0-61 50 0c19 0 34-15 34-33l0-187c0-19-15-35-34-35z"/>
    </symbol>
  
    <symbol id="pixel-core-checkmark" viewBox="0 0 512 512">
      <path d="m199 399l-110-110c-10-9-10-24 0-33 9-9 23-9 32 0l75 75c4 4 10 3 14-1l179-211c8-10 23-11 32-3 10 8 11 23 3 33l-211 250c-4 4-10 4-14 0z"/>
    </symbol>
  
    <symbol id="pixel-core-claims" viewBox="0 0 512 512">
      <path d="m319 150l-8 0c-9 0-17-8-17-17l0-28c0-21-16-38-37-38-21 0-38 17-38 38l0 28c0 9-8 17-17 17l-9 0c-9 0-17 7-17 16l0 9 161 0 0-9c-1-9-8-16-18-16z m-63-34c-10 0-17-8-17-18 0-9 7-17 17-17 10 0 17 8 17 17 0 10-7 18-17 18z m108-1l-53 0 0 9c0 5 4 8 8 8 19 0 35 15 35 34l0 25-196 0 0-25c0-19 16-34 35-34 4 0 8-3 8-8l0-9-53 0c-12 0-23 10-23 23l0 261c0 12 11 22 23 22l216 0c12 0 22-10 22-22l0-261c1-13-10-23-22-23z m-35 233c0 5-4 9-10 9l-126 0c-6 0-10-4-10-9 0-6 4-10 10-10l126 0c6 0 10 5 10 10z m0-49c0 6-4 10-10 10l-126 0c-6 0-10-5-10-10 0-6 4-10 10-10l126 0c6 0 10 5 10 10z m0-49c0 6-4 10-10 10l-126 0c-6 0-10-5-10-10 0-5 4-9 10-9l126 0c6 0 10 4 10 9z"/>
    </symbol>
  
    <symbol id="pixel-core-claims-complete" viewBox="0 0 512 512">
      <path d="m175 166l0 9 161 0 0-9c0-9-7-16-17-16l-8 0c-9 0-17-8-17-17l0-28c0-21-16-38-37-38-21 0-38 17-38 38l0 28c0 9-8 17-17 17l-9 0c-10 0-18 7-18 16z m81-86c10 0 17 8 17 18 0 10-7 17-17 17-10 0-17-7-17-17-1-10 7-18 17-18z m24 229l-87 0c-6 0-10-5-10-10 0-6 4-10 10-10l104 0c17-16 41-25 66-25 8 0 16 1 23 3l0-129c0-13-10-23-22-23l-53 0 0 9c0 5 3 8 8 8 19 0 34 15 34 34l0 25-195 0 0-25c0-19 16-34 35-34 4 0 8-3 8-8l0-9-53 0c-12 0-23 10-23 23l0 261c0 12 11 22 23 22l135 0c-12-16-19-36-19-57 0-21 6-39 16-55z m-87-68l126 0c6 0 10 4 10 9 0 6-5 10-10 10l-126 0c-6 0-10-5-10-10 0-5 4-9 10-9z m170 40c-46 0-82 37-82 83 0 45 37 81 82 81 46 0 82-36 82-81 0-46-36-83-82-83z m51 59l-59 59c-2 2-4 2-5 2-2 0-4-1-6-2l-29-30c-3-3-3-8 0-11 3-3 8-3 11 0l23 24 53-53c4-3 8-3 11 0 4 3 4 8 1 11z"/>
    </symbol>
  
    <symbol id="pixel-core-claims-free" viewBox="0 0 512 512">
      <path d="m368 187c15-22 9-35-17-41 5-25-5-35-30-30-6-26-19-32-41-17-14-22-29-22-43 0-22-15-36-9-41 17-26-5-36 5-31 30-25 6-31 19-17 41-22 14-22 29 0 43-14 22-9 36 17 41-4 24 4 34 26 32l0 122c0 6 7 9 12 5 14-12 38-32 48-40 3-2 7-2 10 0 9 8 34 28 48 40 5 4 12 1 12-5l0-122c0-1 0-1 0-1 26 5 36-6 31-31 25-5 31-19 17-41 21-14 21-29-1-43z m-109 116c-52 0-94-42-94-94 0-52 42-94 94-94 51 0 93 42 93 94 0 52-42 94-93 94z m0-171c-43 0-78 34-78 77 0 42 35 77 78 77 42 0 77-35 77-77-1-43-35-77-77-77z m38 61l-42 45c-2 1-4 2-5 2-2 0-4-1-5-2l-25-23c-3-3-3-7 0-10 3-3 7-3 10 0l19 17 37-40c3-3 8-3 11 0 4 3 4 7 0 11z"/>
    </symbol>
  
    <symbol id="pixel-core-clock" viewBox="0 0 512 512">
      <path d="m256 91c-91 0-165 73-165 165 0 91 73 165 165 165 91 0 165-73 165-165 0-91-74-165-165-165z m70 238c-6 6-15 6-21 0l-63-63 0-124c0-7 7-14 15-14 7 0 14 7 14 14l0 106c0 3 1 7 4 10l51 51c5 5 5 15 0 20z"/>
    </symbol>
  
    <symbol id="pixel-core-close" viewBox="0 0 512 512">
      <path d="m414 96c-10-10-25-10-35 0l-126 125-125-125c-10-10-25-10-35 0-10 9-10 25 0 35l126 125-126 125c-10 10-10 26 0 35 10 10 25 10 35 0l125-125 126 125c10 10 25 10 35 0 9-9 9-25 0-35l-126-125 126-125c9-10 9-26 0-35z"/>
    </symbol>
  
    <symbol id="pixel-core-cloud" viewBox="0 0 512 512">
      <path d="m421 303c0-29-23-52-52-52-4 0-8 0-11 1-4-19-21-33-41-33-1 0-2 0-3 0-5-35-35-61-71-61-33 0-60 21-70 50-3 0-5 0-8 0-40 0-72 33-72 73 0 39 31 71 70 72l207 0c28 1 51-22 51-50z"/>
    </symbol>
  
    <symbol id="pixel-core-cloud-download" viewBox="0 0 512 512">
      <path d="m368 251c-4 0-8 0-12 1-4-19-20-33-40-33-1 0-2 0-3 0-6-35-35-61-72-61-32 0-60 21-69 50-3 0-5 0-8 0-40 0-72 32-72 73 0 39 31 71 70 72l17 0-1-2c-6-6-8-15-5-23 3-7 10-12 18-13l0-39c0-11 10-21 21-21l44 0c12 0 21 10 21 21l0 39c8 1 15 6 18 13 3 8 1 17-5 23l-1 2 80 0c28 0 50-23 50-51 0-28-23-51-51-51z m-93 82l-15 0 0-55c0-3-2-5-4-5l-43 0c-3 0-4 2-4 5l0 55-15 0c-4 0-6 4-4 7l41 41c2 1 5 1 7 0l41-41c2-3 1-7-4-7z"/>
    </symbol>
  
    <symbol id="pixel-core-cloud-upload" viewBox="0 0 512 512">
      <path d="m369 251c-4 0-8 0-12 1-4-19-20-33-40-33-1 0-2 0-3 0-6-35-35-61-72-61-32 0-60 21-69 50-3 0-5 0-8 0-40 0-72 32-72 73 0 39 31 71 70 72l30 0 0-14c-9-1-15-6-18-13-3-8-2-17 4-23l41-41c4-4 9-6 15-6 6 0 11 2 15 6l41 41c6 6 7 15 4 23-3 8-10 12-17 13l0 14 91 0c28 0 51-23 51-51 0-28-23-51-51-51z m-89 64l-41-41c-2-1-5-1-7 0l-41 41c-2 3-1 8 4 8l15 0 0 55c0 3 2 4 4 4l43 0c3 0 4-2 4-4l0-55 15 0c4 0 6-5 4-8z"/>
    </symbol>
  
    <symbol id="pixel-core-companion" viewBox="0 0 512 512">
      <path d="m366 447c-167-94-47-211 0-132 46-79 166 38 0 132z m-88-55c-18-30-17-55-13-70 1-2 1-4 2-7l0-28c0 0 12-9 15-36 7 2 14-10 14-17 1-6-1-23-9-22 2-13 3-25 3-31-2-23-25-47-60-47-34 0-57 24-59 47-1 6 1 18 3 31-9-1-10 16-10 22 0 7 8 19 15 17 3 27 15 36 15 36l-1 28c0 0-7 4-37 17-30 13-52 21-60 35-8 12-6 57-6 57l215 0c-12-10-21-21-27-32z m29-213c0 6 0 14-1 24 8 11 8 29 8 33-1 6-3 13-7 19-3 4-6 7-10 10-2 8-4 14-7 19 11-8 23-13 37-13 10 0 21 3 30 9 3 2 6 5 9 7 3-2 6-5 10-7-2 0-4-1-6-1 0 0 0 0-1-1-24-8-33-26-36-43 3-3 5-6 8-10 16 5 34 7 50-5-22-22-4-50-20-99-14-42-69-40-77-25-22-8-41-2-52 21 16 3 29 9 40 19 14 11 23 27 25 43z"/>
    </symbol>
  
    <symbol id="pixel-core-condo" viewBox="0 0 512 512">
      <path d="m289 92l-95 0 0-20c0-2-2-5-5-5l-52 0c-2 0-5 2-5 5l0 20-21 0c-5 0-9 2-11 6l-21 42 242 0-21-42c-2-4-7-6-11-6z m-211 318c0 7 6 12 13 12l80 0 0-71c0-2 2-5 5-5l47 0c3 0 5 2 5 5l0 71 93 0 0-264-243 0z m170-211c0-2 2-4 4-4l41 0c3 0 4 2 4 4l0 34c0 3-2 4-4 4l-41 0c-3 0-4-2-4-4z m0 76c0-3 2-4 4-4l41 0c3 0 4 2 4 4l0 34c0 2-2 4-4 4l-41 0c-3 0-4-2-4-4z m0 76c0-3 2-4 4-4l41 0c3 0 4 2 4 4l0 34c0 2-2 4-4 4l-41 0c-3 0-4-2-4-4z m-73-152c0-2 2-4 4-4l41 0c3 0 4 2 4 4l0 34c0 3-2 4-4 4l-41 0c-2 0-4-2-4-4l0-34z m0 76c0-3 2-4 4-4l41 0c3 0 4 2 4 4l0 34c0 2-2 4-4 4l-41 0c-2 0-4-2-4-4l0-34z m-74-76c0-2 2-4 4-4l42 0c3 0 4 2 4 4l0 34c0 3-2 4-4 4l-42 0c-2 0-4-2-4-4z m0 76c0-3 2-4 4-4l42 0c3 0 4 2 4 4l0 34c0 2-2 4-4 4l-42 0c-2 0-4-2-4-4z m0 76c0-3 2-4 4-4l42 0c3 0 4 2 4 4l0 34c0 2-2 4-4 4l-42 0c-2 0-4-2-4-4z m320-141c-2-5-7-7-12-7l-70 0 0 32 94 0z m-82 212l81 0c8 0 14-5 14-13l0-162-95 0z m22-148c0-2 3-4 5-4l42 0c2 0 4 2 4 4l0 35c0 2-2 4-4 4l-42 0c-3 0-5-2-5-4z m0 77c0-3 3-4 5-4l42 0c2 0 4 2 4 4l0 34c0 3-2 4-4 4l-42 0c-3 0-5-2-5-4z"/>
    </symbol>
  
    <symbol id="pixel-core-creditcard-back" viewBox="0 0 512 512">
      <path d="m403 125l-293 0c-12 0-21 10-21 21l0 219c0 12 9 22 21 22l293 0c12 0 22-10 22-22l0-218c0-12-10-22-22-22z m11 103c0 1-1 3-3 3l-309 0c-1 0-3-2-3-3l0-52c0-1 2-3 3-3l310 0c1 0 3 2 3 3l0 52z m-54 117l-49 0c-13 0-23-10-23-23 0-13 10-23 23-23l49 0c13 0 23 10 23 23 0 13-10 23-23 23z"/>
    </symbol>
  
    <symbol id="pixel-core-dark-night" viewBox="0 0 512 512">
      <path d="m332 125c3 13 5 26 5 39 0 96-77 173-173 173-13 0-26-2-39-5-8-2-14 8-8 15 30 31 71 50 117 50 90 0 163-72 163-162 0-46-20-88-50-117-7-7-17-1-15 7z"/>
    </symbol>
  
    <symbol id="pixel-core-dashboard" viewBox="0 0 512 512">
      <path d="m257 91c-91 0-165 74-165 165 0 91 74 165 165 165 91 0 164-74 164-165 0-91-73-165-164-165z m116 214c-6 15-16 29-27 40-12 12-25 21-40 27-16 7-32 10-49 10-17 0-34-3-50-10-14-6-28-15-40-27-11-12-20-25-27-40-6-15-9-32-9-49 0-17 3-33 9-49 6-15 16-29 27-40 12-12 26-21 40-27 16-7 32-10 50-10 16 0 33 3 49 10 15 6 28 15 40 27 11 12 20 25 27 40 6 15 9 32 9 49 0 17-3 33-9 49z m-160-146c-1 0-1 0-1 0-4 2-7 6-8 10 0 3 0 5 1 7 3 7 11 9 17 7 0 0 1 0 1-1 4-2 7-6 7-10 1-2 0-5-1-7-2-6-9-9-16-6z m-43 56c-6-2-13 2-16 8 0 0 0 1 0 1 0 1 0 1 0 2-1 6 3 12 8 14 7 2 14-1 17-8 0 0 0-1 0-1 0-1 0-1 0-2 1-6-3-12-9-14z m85-39c1 0 1 0 2 0 6 0 12-5 12-11 0-1 0-1 0-2 0-7-5-12-12-12-1 0-1 0-2 0-6 0-12 5-12 11 0 0 0 1 0 1 0 7 5 13 12 13z m-60 8c-5-5-13-5-18 0 0 0 0 0-1 1-2 2-3 4-3 7 0 4 1 8 4 11 5 5 13 5 19-1 0 0 0 0 0 0 2-2 3-5 3-7 1-4-1-8-4-11z m154 57c5-1 8-6 9-11 0-1 0-3 0-5 0 0 0 0 0 0 0 0 0 0 0-1-2-6-9-10-16-8-6 2-9 6-9 11 0 1 0 3 0 5 0 0 0 1 0 1 2 7 10 11 16 8z m-10-44c0-4-1-8-3-11 0 0 0 0-1 0-4-5-12-6-18-1-3 2-4 5-4 8-1 4 0 7 3 10 0 0 0 1 0 1 5 5 13 5 19 1 2-3 3-5 4-8z m-39-37c0 0 0 0 0-1-7-3-15 0-17 7-1 1-1 2-1 3-1 6 2 11 7 14 0 0 1 0 1 0 6 3 14 0 17-6 0-1 1-2 1-4 0-5-3-11-8-13z m-28 116l-11-74c0-2-2-4-4-4-2 0-4 2-4 4l-11 74c-1 2-1 3-1 5 0 8 7 15 16 15 8 0 15-7 15-15 0-2 0-3 0-5z"/>
    </symbol>
  
    <symbol id="pixel-core-data-inmotion" viewBox="0 0 512 512">
      <path d="m327 132c0 6-5 11-11 11-6 0-10-5-10-11 0-6 4-11 10-11 6 0 11 5 11 11z m12 134c8 0 15 1 21 2l0-151c0-14-10-24-24-24l-158 0c-14 0-24 10-24 24l0 279c0 14 10 24 24 24l82 0c-12-16-18-35-18-56-1-54 43-98 97-98z m-164-146c0-4 3-7 7-7l149 0c4 0 7 3 7 7l0 25c0 4-3 7-7 7l-149 0c-4 0-7-3-7-7z m0 83l0-24c0-4 3-7 7-7l149 0c4 0 7 3 7 7l0 24c0 4-3 7-7 7l-149 0c-4 0-7-3-7-7z m152-13c0 6-5 11-11 11-6 0-10-5-10-11 0-6 4-11 10-11 6 0 11 5 11 11z m47 159c-1 0-1 0-2 0-5 1-13 5-20 11-2 1-3 2-4 4 1 1 2 2 4 3 8 7 15 10 20 11 1 0 1 0 2 0 6 0 12-7 12-14 1-8-5-15-12-15z m-67 0c0 0-1 0-1 0-7 0-13 7-13 15 0 8 6 14 13 14 0 0 1 0 1 0 6-1 13-5 21-11 1-1 3-2 4-3-1-2-3-3-4-4-8-6-15-10-21-11z m32-66c-45 0-81 36-81 81 0 45 36 81 81 81 46 0 82-36 82-81 0-45-36-81-82-81z m38 109c-1 0-2 0-3 0-13-1-26-13-35-20-7 7-21 19-34 20-1 0-2 0-3 0-13 0-24-13-24-28 0-16 11-29 24-29 1 0 2 0 3 0 12 1 26 12 34 20 8-7 22-18 35-20 1 0 2 0 3 0 13 0 24 13 24 29 0 15-11 28-24 28z"/>
    </symbol>
  
    <symbol id="pixel-core-device-display" viewBox="0 0 512 512">
      <path d="m404 133l-296 0c-10 0-17 7-17 16l0 164c0 10 7 17 17 17l133 0 0 25-48 0c-10 0-17 7-17 16l0 11c0 1 1 3 3 3l155 0c1 0 2-2 2-3l0-11c0-9-7-16-16-16l-48 0 0-25 132 0c10 0 17-7 17-17l0-164c0-9-7-16-17-16z m-16 157c0 4-3 7-7 7l-250 0c-4 0-7-3-7-7l0-117c0-5 3-8 7-8l250 0c4 0 7 3 7 8z"/>
    </symbol>
  
    <symbol id="pixel-core-device-laptop" viewBox="0 0 512 512">
      <path d="m456 342l-47 0 0-203c0-9-8-18-18-18l-261 0c-10 0-18 9-18 18l0 203-47 0c-3 0-5 2-5 5l0 21c0 8 7 15 16 15l368 0c10 0 17-7 17-15l0-21c0-3-3-5-5-5z m-147 10l-95 0c-6 0-11-4-11-10l116 0c0 5-5 10-10 10z m67-51c0 4-4 7-8 7l-215 0c-5 0-8-3-8-7l0-139c0-4 3-7 8-7l215 0c4 0 8 3 8 7z"/>
    </symbol>
  
    <symbol id="pixel-core-device-phone" viewBox="0 0 512 512">
      <path d="m345 78l-169 0c-11 0-20 9-20 20l0 306c0 11 9 20 20 20l169 0c11 0 20-9 20-20l0-306c1-11-9-20-20-20z m-84 318c-10 0-19-8-19-19 0-10 8-19 19-19 10 0 19 8 19 19 0 11-9 19-19 19z m69-68c0 4-3 8-7 8l-124 0c-4 0-8-4-8-8l0-207c0-4 4-7 8-7l124 0c4 0 7 3 7 7z"/>
    </symbol>
  
    <symbol id="pixel-core-device-tablet" viewBox="0 0 512 512">
      <path d="m369 78l-217 0c-11 0-20 9-20 20l0 306c0 11 9 20 20 20l217 0c11 0 21-9 21-20l0-306c0-11-10-20-21-20z m-108 331c-7 0-13-6-13-13 0-7 6-14 13-14 7 0 13 7 13 14 0 7-5 13-13 13z m95-51c0 5-3 9-8 9l-175 0c-5 0-8-4-8-9l0-239c0-4 3-8 8-8l175 0c5 0 8 4 8 8z"/>
    </symbol>
  
    <symbol id="pixel-core-discover" viewBox="0 0 512 512">
      <path d="m401 136c7 0 12 5 12 12l0 217c0 6-5 12-12 12l-290 0c-7 0-12-6-12-12l0-217c0-7 5-12 12-12l290 0m-263 76l-13 0 0 42 12 0c6 0 11-1 15-4 5-4 8-10 8-17 0-12-9-21-22-21z m9 32c-2 3-6 4-11 4l-2 0 0-28 2 0c5 0 9 1 11 4 4 2 5 6 5 10 0 4-2 8-5 10z m17-32l9 0 0 42-9 0z m29 17c-6-2-7-3-7-5 0-3 3-5 7-5 2 0 4 1 6 4l4-6c-3-3-7-5-12-5-8 0-13 6-13 13 0 5 2 8 10 12 3 1 5 2 6 2 1 1 2 3 2 5 0 3-2 6-6 6-4 0-7-2-9-6l-5 5c4 6 8 9 14 9 9 0 15-6 15-14-1-9-3-12-12-15z m14 4c0 13 10 22 22 22 3 0 7 0 10-2l0-10c-3 3-6 5-10 5-8 0-14-6-14-15 0-8 6-14 14-14 4 0 7 2 10 5l0-10c-3-2-7-3-10-3-12 0-22 11-22 22z m98 8l-12-29-8 0 17 44 5 0 18-44-9 0z m24 13l23 0 0-6-15 0 0-12 14 0 0-7-14 0 0-9 15 0 0-8-23 0z m56-29c0-7-6-12-15-12l-13 0 0 42 9 0 0-17 1 0 11 17 10 0-13-18c6-1 10-6 10-12z m-17 7l-2 0 0-13 2 0c5 0 8 2 8 6 0 5-3 7-8 7z m-81 2c0 12-10 23-22 23-13 0-23-11-23-23 0-12 10-23 23-23 12 0 22 11 22 23z m103-20c0 0-1-1-2-1l-1 0 0 4 1 0 0-2 1 2 1 0-1-2c0 0 1 0 1-1z m-2 1l0-1c1 0 1 0 1 0 0 1 0 1-1 1z m1-4c-2 0-3 2-3 4 0 1 1 3 3 3 1 0 3-2 3-3 0-2-2-4-3-4z m0 7c-2 0-3-1-3-3 0-1 1-3 3-3 1 0 2 2 2 3 0 2-1 3-2 3z m12 158c7 0 12-5 12-12l0-63c-22 14-90 51-197 75z m0-240c7 0 12 5 12 12l0 217c0 6-5 12-12 12l-290 0c-7 0-12-6-12-12l0-217c0-7 5-12 12-12l290 0m0-10l-290 0c-12 0-21 10-21 22l0 217c0 11 9 21 21 21l290 0c12 0 22-10 22-21l0-217c-1-12-10-22-22-22z"/>
    </symbol>
  
    <symbol id="pixel-core-discover-logo" viewBox="0 0 512 512">
      <path d="m104 229l-14 0 0 53 14 0c9 0 14-2 19-6 7-5 10-12 10-21 0-15-12-26-29-26z m13 40c-3 3-8 4-14 4l-3 0 0-34 2 0c7 0 11 1 14 4 4 3 6 8 6 13 0 5-2 10-5 13z m21-40l10 0 0 53-10 0z m35 21c-6-2-8-4-8-7 0-3 3-5 8-5 3 0 5 1 8 4l5-8c-4-4-9-5-15-5-9 0-16 7-16 15 0 7 3 10 12 14 5 2 7 3 8 3 2 2 3 3 3 6 0 4-4 7-9 7-5 0-8-2-11-7l-6 6c4 8 10 11 18 11 11 0 18-8 18-18 0-8-3-12-15-16z m18 6c0 15 13 28 28 28 5 0 8-1 13-3l0-13c-4 4-8 6-12 6-11 0-18-8-18-19 0-10 7-17 17-17 5 0 9 1 13 6l0-13c-5-2-8-3-13-3-15 0-28 13-28 28z m123 9l-14-36-12 0 23 55 5 0 23-55-11 0z m30 17l29 0 0-9-19 0 0-14 18 0 0-9-18 0 0-11 19 0 0-10-29 0z m70-37c0-9-7-15-19-15l-15 0 0 53 10 0 0-22 2 0 14 21 13 0-17-22c7-1 12-7 12-15z m-21 9l-3 0 0-16 3 0c6 0 9 3 9 8 1 5-3 8-9 8z m-101 2c0 16-13 28-28 28-16 0-28-12-28-28 0-16 12-28 28-28 15 0 28 12 28 28z m128-25c0-1-1-1-2-1l-1 0 0 4 1 0 0-2 1 2 2 0-2-2c1 0 1 0 1-1z m-2 1l0-1c1 0 1 0 1 0 0 1 0 1-1 1z m0-4c-2 0-4 2-4 4 0 2 2 5 4 5 2 0 4-3 4-5 0-2-1-4-4-4z m0 8c-1 0-3-2-3-4 0-2 2-3 3-3 2 0 3 2 3 3 1 2-1 4-3 4z"/>
    </symbol>
  
    <symbol id="pixel-core-display" viewBox="0 0 512 512">
      <path d="m404 133l-296 0c-10 0-17 7-17 16l0 164c0 10 7 17 17 17l133 0 0 25-48 0c-10 0-17 7-17 16l0 11c0 1 1 3 3 3l155 0c1 0 2-2 2-3l0-11c0-9-7-16-16-16l-48 0 0-25 132 0c10 0 17-7 17-17l0-164c0-9-7-16-17-16z m-16 157c0 4-3 7-7 7l-250 0c-4 0-7-3-7-7l0-117c0-5 3-8 7-8l250 0c4 0 7 3 7 8z"/>
    </symbol>
  
    <symbol id="pixel-core-document" viewBox="0 0 512 512">
      <path d="m374 91l-236 0c-14 0-24 11-24 24l0 285c0 14 11 25 24 25l236 0c14 0 24-11 24-25l0-285c0-13-10-24-24-24z m-78 225c0 6-4 10-9 10l-100 0c-5 0-9-4-9-10 0-5 4-9 9-9l100 0c5 0 9 4 9 9z m55-57c0 6-5 10-10 10l-154 0c-5 0-9-5-9-10 0-6 4-10 9-10l154 0c5 0 10 4 10 10z m-30-57c0 5-5 9-10 9l-124 0c-5 0-9-4-9-9 0-6 4-10 9-10l125 0c5 0 9 5 9 10z"/>
    </symbol>
  
    <symbol id="pixel-core-document-add" viewBox="0 0 512 512">
      <path d="m265 364c0-14 3-28 8-40l-85 0c-5 0-9-5-9-10 0-5 4-9 9-9l97 0c18-24 47-40 80-40 11 0 23 2 33 5l0-155c0-13-11-24-25-24l-233 0c-14 0-25 10-25 24l0 282c0 14 11 25 25 25l144 0c-12-16-19-36-19-58z m-77-173l123 0c6 0 10 5 10 10 0 5-5 9-10 9l-123 0c-5 0-9-4-9-9 0-5 4-10 9-10z m0 57l152 0c6 0 10 4 10 10 0 5-4 9-10 9l-152 0c-5 0-9-4-9-9 0-6 4-10 9-10z m176 34c-45 0-81 36-81 82 0 45 36 81 81 81 45 0 81-36 81-81 0-46-36-82-81-82z m44 81c0 4-4 7-8 7l-29 0 0 30c0 4-3 7-7 7-5 0-8-3-8-7l0-30-29 0c-4 0-8-3-8-7 0-4 4-7 8-7l29 0 0-30c0-4 3-7 8-7 4 0 7 3 7 7l0 30 29 0c4 0 8 3 8 7z"/>
    </symbol>
  
    <symbol id="pixel-core-document-multipolicy" viewBox="0 0 512 512">
      <path d="m380 91l-198 0c-12 0-21 9-21 20l0 9 172 0c21 0 38 17 38 38l0 214 9 0c12 0 21-9 21-20l0-240c0-12-9-21-21-21z m-47 47l-199 0c-11 0-20 9-20 20l0 240c0 12 9 21 20 21l199 0c11 0 20-9 20-21l0-240c0-11-9-20-20-20z m-65 190c0 4-4 8-8 8l-84 0c-5 0-9-4-9-8 0-5 4-9 9-9l84 0c4 0 8 5 8 9z m45-48c0 4-3 8-8 8l-129 0c-5 0-9-4-9-8 0-5 4-9 9-9l129 0c5 0 8 4 8 9z m-25-49c0 5-3 9-8 9l-104 0c-5 0-9-4-9-9 0-4 4-8 9-8l104 0c5 0 8 4 8 8z"/>
    </symbol>
  
    <symbol id="pixel-core-document-recent" viewBox="0 0 512 512">
      <path d="m265 364c0-15 3-28 8-40l-85 0c-6 0-10-5-10-10 0-6 5-10 10-10l97 0c18-24 47-40 79-40 12 0 23 2 34 6l0-156c0-14-11-25-25-25l-234 0c-13 0-24 11-24 25l0 283c0 13 10 24 24 24l145 0c-12-16-19-36-19-57z m-77-174l123 0c6 0 10 5 10 10 0 5-5 9-10 9l-123 0c-6 0-10-4-10-9 0-5 4-10 10-10z m0 57l152 0c6 0 10 4 10 10 0 5-4 9-10 9l-152 0c-6 0-10-4-10-9 0-6 4-10 10-10z m176 34c-46 0-82 37-82 82 0 46 37 82 82 82 46 0 82-37 82-82 0-45-36-82-82-82z m35 119c-3 2-7 2-10 0l-32-32 0-61c0-4 3-7 7-7 4 0 7 3 7 7l0 55 27 27c4 3 4 8 1 11z"/>
    </symbol>
  
    <symbol id="pixel-core-document-subtract" viewBox="0 0 512 512">
      <path d="m267 362c0-14 3-27 8-39l-86 0c-5 0-9-5-9-10 0-6 4-10 9-10l98 0c18-24 47-40 80-40 11 0 23 2 33 6l0-157c0-13-10-24-24-24l-235 0c-14 0-25 10-25 24l0 284c0 14 11 25 25 25l145 0c-12-17-19-36-19-59z m-78-173l124 0c6 0 10 5 10 10 0 5-5 9-10 9l-124 0c-5 0-9-4-9-9 0-5 4-10 9-10z m0 57l154 0c6 0 10 4 10 9 0 6-5 10-10 10l-154 0c-5 0-9-4-9-10 0-5 4-9 9-9z m178 35c-46 0-83 36-83 82 0 46 37 82 83 82 45 0 82-36 82-82 0-46-37-82-82-82z m36 89l-73 0c-4 0-7-3-7-8 0-4 3-7 7-7l73 0c5 0 8 3 8 7 0 5-3 8-8 8z"/>
    </symbol>
  
    <symbol id="pixel-core-down" viewBox="0 0 512 512">
      <path d="m234 109l0 241-52-52c-7-8-20-8-27 0-8 8-8 20 0 28l90 90c4 4 12 4 17 0l90-90c8-8 8-20 0-28-7-8-20-8-27 0l-52 52 0-240c0-11-8-20-19-20-11 0-20 8-20 19z"/>
    </symbol>
  
    <symbol id="pixel-core-download" viewBox="0 0 512 512">
      <path d="m376 311c-10 0-19 8-19 19l0 30-207 0 0-30c0-11-8-19-19-19-10 0-19 8-19 19l0 59c0 5 4 8 8 8l266 0c4 0 8-3 8-8l0-59c0-11-8-19-18-19z m-128 13c3 3 9 3 12 0l68-69c7-7 7-18 0-26-7-7-19-7-26 0l-30 29 0-124c0-10-8-19-19-19-10 0-19 8-19 19l0 124-29-29c-7-7-19-7-26 0-7 7-7 19 0 26z"/>
    </symbol>
  
    <symbol id="pixel-core-edit" viewBox="0 0 512 512">
      <path d="m410 142l-44-43c-9-9-22-9-31 0l-241 241c-1 1-2 2-2 4l0 67c0 3 2 5 5 5l68 0c1 0 2 0 3-1l242-241c8-9 8-23 0-32z m-280 257l-21-21 0-23 45 44z"/>
    </symbol>
  
    <symbol id="pixel-core-equal" viewBox="0 0 512 512">
      <path d="m346 286l-180 0c-12 0-23 10-23 22 0 13 11 23 23 23l180 0c12 0 23-10 23-23 0-12-11-22-23-22z m0-105l-180 0c-12 0-23 10-23 23 0 12 11 22 23 22l180 0c12 0 23-10 23-22 0-13-11-23-23-23z"/>
    </symbol>
  
    <symbol id="pixel-core-external-link" viewBox="0 0 512 512">
      <path d="m375 245c-11 0-21 9-21 21l0 98c0 9-7 17-17 17l-188 0c-10 0-17-8-17-17l0-189c0-10 7-17 17-17l98 0c11 0 20-10 20-21 0-11-9-20-20-20l-139 0c-10 0-17 7-17 17l0 269c0 10 7 18 17 18l269 0c10 0 18-8 18-18l0-138c0-11-9-20-20-20z m54-171l-112 0c-11 0-21 9-21 21 0 12 10 22 21 22l48 0-101 101c-8 8-8 22 0 30 8 8 22 8 30 0l101-101 0 48c0 12 9 22 21 22 12 0 22-10 22-22l0-112c0-5-4-9-9-9z"/>
    </symbol>
  
    <symbol id="pixel-core-female" viewBox="0 0 512 512">
      <path d="m391 333c-14-15-38-21-59-28 0 0 0 0-1 0-27-9-38-30-41-51 3-3 6-7 8-11 19 6 40 8 59-6-25-26-5-58-23-115-16-49-81-47-89-29-35-13-61 4-70 55-11 60 10 66-15 92 20 11 38 9 54 3 3 4 6 8 9 12-3 20-14 41-41 50-21 7-46 13-61 28-11 12-4 89-4 89l278 0c0-1 8-77-4-89z"/>
    </symbol>
  
    <symbol id="pixel-core-female-business" viewBox="0 0 512 512">
      <path d="m220 325l-32 9c-2 1-4-1-4-3l13-31c-4 3-10 5-15 7-22 6-46 13-61 28-12 12-4 89-4 89l128 0z m-6-81c3 4 6 8 10 13-2 8-4 17-9 25l43 70 42-70c-5-8-7-17-9-26 3-4 6-7 10-11 18 6 40 7 59-6-26-27-5-59-24-117-16-49-82-47-90-30-35-12-61 4-70 56-12 60 10 67-16 93 20 12 38 10 54 3z m180 91c-14-14-38-21-59-27-1 0-1 0-1-1-6-2-11-4-16-7l13 32c1 2-2 4-4 3l-32-10-25 100 128 0c0-1 8-78-4-90z"/>
    </symbol>
  
    <symbol id="pixel-core-female-driver" viewBox="0 0 512 512">
      <path d="m263 364c0-32 14-59 36-78-6-8-10-19-11-29 3-4 6-7 8-11 18 6 40 8 58-6-25-25-5-57-23-114-16-48-80-46-88-29-34-13-60 4-69 55-11 59 10 65-16 91 20 11 38 8 53 2 3 4 6 8 10 12-3 20-14 40-41 49-21 7-45 13-60 28-11 11-4 87-4 87l166 0c-13-15-19-36-19-57z m99-83c-45 0-82 37-82 83 0 45 37 82 82 82 47 0 83-37 83-82 0-46-36-83-83-83z m0 20c30 0 55 21 61 48-16-13-37-20-61-20-23 0-43 7-60 20 7-27 31-48 60-48z m-14 123c-23-6-41-24-46-47 3-1 6-1 9-1 21 0 38 17 38 38 0 3 0 7-1 10z m14-44c-9 0-17-7-17-17 0-10 8-17 17-17 10 0 18 7 18 17 0 10-8 17-18 17z m15 44c-1-3-1-7-1-10 0-21 17-39 38-39 3 0 6 1 9 1-5 24-23 42-46 48z"/>
    </symbol>
  
    <symbol id="pixel-core-female-events" viewBox="0 0 512 512">
      <path d="m364 281c-46 0-83 37-83 84 0 46 37 83 83 83 46 0 83-37 83-83 1-47-36-84-83-84z m36 120c-3 3-8 3-10 0l-33-32 0-62c0-4 3-7 8-7 4 0 7 3 7 7l0 53c0 2 0 4 2 6l25 25c3 3 3 8 1 10z m-136-36c0-32 14-60 37-78-7-9-10-19-12-29 3-4 6-8 9-12 18 6 40 8 58-6-25-26-5-58-23-115-16-48-81-46-89-29-34-12-60 4-69 56-11 59 10 66-16 91 20 11 38 9 53 2 4 4 7 8 10 12-3 21-14 41-41 50-21 6-46 13-60 27-11 12-4 88-4 88l166 0c-13-15-19-35-19-57z"/>
    </symbol>
  
    <symbol id="pixel-core-female-policyholder" viewBox="0 0 512 512">
      <path d="m274 389c-17-29-16-54-12-70 5-18 17-33 32-42-3-7-5-14-6-21 3-4 6-7 8-11 18 6 40 8 58-6-25-25-5-57-23-114-16-48-80-46-88-29-34-13-60 4-69 55-11 59 10 65-16 91 20 11 38 8 53 2 3 4 6 8 10 11-3 21-14 41-41 50-21 7-45 13-60 28-11 11-3 87-3 87l183 0c-11-9-19-20-26-31z m88 55c-166-93-46-210 0-131 46-79 166 38 0 131z"/>
    </symbol>
  
    <symbol id="pixel-core-file-cabinet" viewBox="0 0 512 512">
      <path d="m174 159l164 0c6 0 10-5 10-10l0-1c0-5-5-9-10-9l-164 0c-6 0-10 4-10 9l0 1c0 6 4 10 10 10z m176 22l-189 0c-5 0-9 5-9 10l0 0c0 6 4 10 9 10l189 0c6 0 10-4 10-10l0 0c0-5-4-10-10-10z m70 52l-33-121c-3-11-12-18-23-18l-216 0c-10 0-20 7-23 18l-33 121c-1 3-1 6-1 9l0 167c0 8 7 14 15 14l301 0c8 0 15-6 15-14l0-167c-1-3-2-6-2-9z m-89 74c0 9-7 16-16 16l-117 0c-9 0-16-7-16-16 0-9 7-16 16-16l117 0c9 0 16 7 16 16z m56-82l-67 0-7 7c-2 2-4 3-7 3l-99 0c-3 0-5-1-7-3l-7-7-68 0c-2 0-4 0-6 0l27-99c1-5 6-9 12-9l199 0c4 0 7 3 8 6l28 102c-2 0-4 0-6 0z"/>
    </symbol>
  
    <symbol id="pixel-core-home" viewBox="0 0 512 512">
      <path d="m508 271c-4 4-8 6-13 6-4 0-7-2-11-4l-20-18 0 206c0 10-8 18-18 18l-380 0c-11 0-19-8-19-18l0-205-19 17c-7 7-18 6-24-1-6-7-5-18 2-24l239-211c6-5 16-5 22 0l106 93 0-58c0-5 4-9 9-9l43 0c5 0 9 4 9 9l0 112 72 64c7 6 8 16 2 23z m-384-15c-4 0-6 3-6 6l0 182c0 3 2 6 6 6l78 0c3 0 6-3 6-6l0-182c0-3-3-6-6-6z m159 0c-4 0-6 3-6 6l0 106c0 3 2 6 6 6l105 0c4 0 6-3 6-6l0-106c0-3-2-6-6-6z"/>
    </symbol>
  
    <symbol id="pixel-core-home-earthquake" viewBox="0 0 512 512">
      <path d="m448 241l-55-48 0-86c0-4-3-7-7-7l-33 0c-4 0-7 3-7 7l0 44-80-71c-4-4-12-4-17 0l-181 161c-6 4-6 12-1 18 4 5 12 5 17 1l15-14 0 143c0 8 6 14 14 14l178 0 11-24-22-74 58-42-27-58 47 58-56 44 24 69-10 26 86 0c8 0 14-6 14-13l0-143 15 14c3 2 6 3 9 3 3 0 7-2 10-4 4-6 3-14-2-18z m-233 138l-56 0c-4 0-7-3-7-7l0-120c0-4 3-7 7-7l56 0c4 0 7 3 7 7l0 121c0 3-3 6-7 6z m101 36l-219 0c-6 0-12 6-12 13 0 6 6 12 12 12l208 0z m101 0l-78 0-9 25 87 0c6 0 12-6 12-12 0-7-6-13-12-13z"/>
    </symbol>
  
    <symbol id="pixel-core-home-fire" viewBox="0 0 512 512">
      <path d="m445 250l-33-29c-6 10-14 19-23 26l-9 6c-12 7-27 11-42 11-16 0-32-5-45-14l-3-2c-22-15-37-41-37-70 0 0 0 0 0 0 0 0 0-1 0-1 0-1 0-2 0-4 0-23 10-48 27-68l-15-13c-5-4-12-4-17 0l-179 158c-6 5-6 13-1 18 4 5 12 6 18 1l14-12 0 154c0 7 6 13 14 13l285 0c8 0 14-6 14-13l0-155 15 13c3 2 6 3 8 3 4 0 7-1 10-4 5-5 4-13-1-18z m-223 144c0 4-3 7-7 7l-56 0c-4 0-7-3-7-7l0-132c0-4 3-7 7-7l56 0c3 0 6 3 6 7l0 132z m69-166c1-2 3-4 4-6 29-30 34-79 34-79 27 21 27 61 27 58 0-3 24-44 23-35-1 9-8 27 7 61 13-12 22-30 22-50 0-4 0-9-1-13-1-9-5-19-12-30-26-46-17-58-16-68 1-9-22 22-22 25 0 3 0-27-28-48 0 0-5 38-33 69-17 18-27 39-27 61 0 1 0 3 0 4 0 20 9 38 22 51z"/>
    </symbol>
  
    <symbol id="pixel-core-home-green" viewBox="0 0 512 512">
      <path d="m399 214c-3 2-5 5-9 7-12 8-26 12-43 12-12 0-24-2-38-6-4 6-9 14-14 24-3 7-10 12-19 12-8 0-17-5-22-13-4-5-5-12-2-19 3-8 8-16 13-24l-2-21c-3-34 8-56 24-72l-24-20c-4-4-12-4-16 0l-177 156c-5 4-6 12-1 17 4 5 12 6 17 1l14-13 0 153c0 7 6 13 14 13l281 0c8 0 14-6 14-13l0-153 15 13c2 2 5 3 8 3 4 0 7-1 9-4 5-5 4-13-1-17z m-179 178c0 3-3 6-6 6l-56 0c-3 0-6-3-6-6l0-131c0-4 3-7 6-7l56 0c3 0 6 3 6 7z m94-279c-39 23-36 59-35 72 49-59 124-55 124-55 0 0-106 35-137 108-2 6 12 13 15 6 10-20 23-35 23-35 19 7 53 16 77-1 32-23 29-72 74-96 11-6-89-29-141 1z"/>
    </symbol>
  
    <symbol id="pixel-core-home-safety" viewBox="0 0 512 512">
      <path d="m438 249l-34-29 0 9c0 15-11 26-25 26l-112 0c-14 0-25-11-25-26l0-102c0-12 8-23 20-25 0-3 0-5 1-8l-3-2c-5-4-12-4-16 0l-178 157c-5 4-6 12-1 18 5 5 12 5 18 1l14-13 0 153c0 7 6 13 14 13l282 0c8 0 14-6 14-13l0-153 15 13c2 2 5 3 8 3 4 0 7-1 9-4 5-5 4-14-1-18z m-221 142c0 4-3 7-7 7l-55 0c-3 0-7-3-7-7l0-131c0-3 4-7 7-7l55 0c4 0 7 4 7 7z m162-152l-112 0c-5 0-9-5-9-10l0-102c0-6 4-10 9-10l112 0c6 0 10 5 10 10l0 102c0 6-4 10-10 10z m-40-82c-3-5-9-10-16-10-8 0-14 5-17 10-1 3-2 6-2 9 0 8 4 14 11 17l0 22c0 3 2 5 5 5l6 0c2 0 5-2 5-5l0-22c6-3 11-9 11-17 0-3-1-6-3-9z m14-52c0-16-13-30-29-30l-1 0c-17 0-30 14-30 30l-16 0c0-12 5-24 13-32 9-9 20-14 33-14l0 0c12 0 24 5 32 14 9 8 14 20 14 32z"/>
    </symbol>
  
    <symbol id="pixel-core-id-card" viewBox="0 0 512 512">
      <path d="m409 115l-306 0c-12 0-22 10-22 22l0 228c0 12 10 23 22 23l306 0c12 0 23-11 23-23l0-227c-1-13-11-23-23-23z m-184 176c0 5-5 10-10 10l-79 0c-5 0-10-5-10-10l0-80c0-5 5-9 10-9l79 0c5 0 10 4 10 9z m55-41l94 0c6 0 11 5 11 11 0 6-5 11-11 11l-94 0c-6 0-11-5-11-11 1-6 5-11 11-11z m0-49l94 0c6 0 11 5 11 11 0 6-5 11-11 11l-94 0c-6 0-11-5-11-11 1-6 5-11 11-11z"/>
    </symbol>
  
    <symbol id="pixel-core-key" viewBox="0 0 512 512">
      <path d="m316 92c-58 0-105 47-105 105 0 18 4 34 12 48l-130 130c-1 1-2 3-2 5l0 32c0 5 4 10 10 10l32 0c2 0 4-1 5-2l11-11c2-1 2-3 2-5l0-20c0-4 3-7 7-7l16 0c4 0 7-3 7-7l0-16c0-4 3-7 7-7l19 0c2 0 4 0 5-2l55-55c15 8 31 12 48 12 58 0 105-47 105-105 1-58-46-105-104-105z m29 110c-19 0-34-15-34-34 0-19 15-34 34-34 19 0 34 15 34 34 0 19-15 34-34 34z"/>
    </symbol>
  
    <symbol id="pixel-core-left" viewBox="0 0 512 512">
      <path d="m401 237l-240 0 51-53c8-7 8-20 0-27-7-8-19-8-27 0l-90 90c-5 5-5 13 0 18l90 90c8 7 20 7 27 0 8-8 8-20 0-28l-51-52 240 0c11 0 20-8 20-19 0-11-9-19-20-19z"/>
    </symbol>
  
    <symbol id="pixel-core-light-day" viewBox="0 0 512 512">
      <path d="m369 255c0 63-51 114-113 114-62 0-113-51-113-114 0-62 51-113 113-113 62 0 113 51 113 113z m42-9l-15 0c-6 0-10 4-10 9 0 6 5 10 10 10l15 0c6 0 10-4 10-10 0-5-4-9-10-9z m-295 0l-15 0c-6 0-10 4-10 9 0 6 5 10 10 10l15 0c6 0 10-4 10-10 0-5-4-9-10-9z m140-120c6 0 10-5 10-10l0-15c0-6-5-10-10-10-6 0-10 5-10 10l0 15c0 5 4 10 10 10z m0 260c-6 0-10 4-10 9l0 16c0 5 5 9 10 9 6 0 10-4 10-9l0-16c0-5-4-9-10-9z m105-38c-3-4-10-4-13 0-4 3-4 10 0 13l10 11c4 4 11 4 14 0 4-3 4-10 0-14z m-210-184c3 3 10 3 13 0 4-4 4-10 0-14l-10-11c-4-3-11-3-14 0-4 4-4 11 0 14z m222-25c-4-4-11-4-14 0l-11 11c-3 3-3 10 0 13 4 4 10 4 14 0l11-10c3-4 3-10 0-14z m-222 209l-12 10c-3 4-3 11 0 14 4 4 11 4 14 0l11-11c3-3 3-10 0-13-4-4-10-4-13 0z"/>
    </symbol>
  
    <symbol id="pixel-core-like" viewBox="0 0 512 512">
      <path d="m172 227l-69 0c-3 0-6 1-8 3-3 3-4 6-4 9l0 122c0 4 1 7 4 9 2 3 5 4 8 4l69 0c3 0 6-1 8-4 3-2 4-5 4-9l0-122c0-3-1-6-4-9-2-2-5-3-8-3z m230-23c-2 0-4 0-6 0-1 0-3 0-5 0 0 0 0 0-1 0l-77 0 26-68c4-11 0-22-10-28-11-8-25-4-32 7l-56 88-38 22c-4 2-7 7-7 13l0 121c0 8 5 14 12 15l74 14c1 1 3 1 4 1l75 0c0 0 1 0 1 0 14 1 27-8 30-22 2-9 0-17-5-24 7-4 13-10 15-19 2-9 0-17-5-24 7-4 13-10 15-19 2-9 0-17-5-24 8-4 13-10 15-19 4-15-5-30-20-34z"/>
    </symbol>
  
    <symbol id="pixel-core-link" viewBox="0 0 512 512">
      <path d="m252 377l-29 30c-16 15-37 23-58 23-21 0-42-8-58-23-15-16-24-36-24-58 0-21 9-42 24-57l65-64c39-40 86-46 117-14 8 8 8 22 0 30-8 8-22 8-30 0-19-18-44 1-57 15l-65 64c-7 7-11 16-11 27 0 10 4 20 11 27 16 15 40 15 55 0l30-30c8-8 22-8 30 0 9 8 9 22 0 30z m153-152l-69 69c-21 21-43 32-65 32-17 0-33-8-48-22-8-8-8-22 0-30 8-8 22-8 30 0 7 6 21 21 53-10l68-68c7-8 12-17 12-28 0-10-5-20-12-27-14-14-35-20-50-4l-37 37c-8 8-22 8-30 0-8-9-8-22 0-31l36-36c32-31 78-29 111 4 16 15 25 36 25 57 0 21-9 42-24 57z"/>
    </symbol>
  
    <symbol id="pixel-core-location-map" viewBox="0 0 512 512">
      <path d="m418 247c-4 3-7 5-9 6-3 3-5 8-3 11 0 1 1 2 1 3 3 1-12 2-19 8-2 1-4 4-5 7-2 12-9 1-10 10 0 0 0 1 0 1-1 4-1 8-2 10 0 4 0 6 4 8 2 1-1 4-6 10-3 3-8 7-12 10-6 6-12 11-14 12-1 1-3 3-3 6 0 3 0 7 0 10 1 6 3 11 5 13 1 1 1 2 2 4 0 3 0 7 0 11 0 5-1 9-2 10-1 1-7-5-10-10-1-2-2-4-2-5 0-1 0-3 0-5-1-3-2-6-2-9-1-4-12-6-13-2 0 2-4-3-7-6-2-2-4-3-6-2-1 1-2 1-3 2-4 2-8 5-8 8 0 4-22-7-25-6-4 0-22 6-23 12 0 1 0 2 0 3 0 4 0 8 0 11 0 3 0 5 0 5 0 0-4-2-9-5-4-2-7-6-10-11 0-1-1-2-1-4-2-7-6-11-9-13-2-1-3-1-5 0 0 0 0 1 0 1-2 4-5 8-5 8 0 0-2-5-5-10-2-2-3-4-3-7-1-2-3-3-5-4-7-2-17 0-22 0l-4 0c-8-1-23-4-26-8-4-5-10-2-13-2-2 1-6-3-9-7-2-2-4-5-6-7-1-1-2-2-3-3-6-5-13-11-13-18 0 0 0 0 0 0 1-6-3-8-6-11-2-1-3-3-3-5l0-55c0-3-5-8-6-12-1-1 0-3 0-3 1-3 6 1 9 3 0 1 1 1 1 1 0 0 0 0 0-1 1 0 1-2 1-3 0 0 0 0 0-1 1-3 1-7 1-7l164 0c0 0 12 6 22 8 14 45 54 82 54 82 1 1 2 2 2 2l2 1 1-1c2 0 3-1 3-2 0 0 26-22 43-57 8 0 14 0 15-1 3 0 5-3 6-4 0 0 0-1 0-1 0 0 19-2 22 1 0 2-6 6-11 10z m-75 28c-1 1-2 2-3 3l-2 0-1 0c-1-1-2-2-3-3 0 0-46-51-51-95 0-3 0-5 0-7 0-32 24-57 55-57 31 0 55 25 55 57 0 2 0 4 0 7-4 44-50 95-50 95z m-5-139c-19 0-35 16-35 37 0 20 16 36 35 36 20 0 36-16 36-36 0-21-16-37-36-37z"/>
    </symbol>
  
    <symbol id="pixel-core-location-marker" viewBox="0 0 512 512">
      <path d="m256 83c-63 0-115 54-115 119 0 5 1 9 1 15 10 92 106 199 106 199 2 2 3 3 5 4l4 1 3-1c1-1 3-2 5-4 0 0 95-107 104-200 1-5 1-10 1-14 1-65-51-119-114-119z m0 196c-40 0-74-35-74-77 0-42 34-76 74-76 40 0 74 34 74 76 0 42-34 77-74 77z"/>
    </symbol>
  
    <symbol id="pixel-core-lock" viewBox="0 0 512 512">
      <path d="m363 425l-205 0c-10 0-18-8-18-17l0-188c0-10 8-18 18-18l205 0c10 0 18 8 18 18l0 188c0 10-8 17-18 17z m-72-150c-6-10-18-17-31-17-13 0-24 7-30 17-2 5-4 11-4 17 0 14 8 26 21 32l0 40c0 5 4 9 9 9l10 0c5 0 9-4 9-9l0-40c12-6 21-18 21-32-1-6-2-11-5-17z m25-96c0-30-25-55-55-55l-1 0c-31 0-55 25-55 55l-29 0c0-22 9-43 25-59 16-16 37-24 59-24l1 0c23 0 44 8 59 24 16 16 25 37 25 59z"/>
    </symbol>
  
    <symbol id="pixel-core-login" viewBox="0 0 512 512">
      <path d="m382 95l-211 0c-11 0-19 8-19 19 0 10 9 19 19 19l180 0c6 0 10 4 10 9l0 230c0 5-5 9-10 9l-179 0c-11 0-19 9-19 19 0 11 8 19 19 19l211 0c9 0 16-7 16-16l0-292c0-9-7-16-17-16z m-158 216c-7 7-7 19 0 27 8 8 20 8 27 0l73-72c4-5 4-13 0-17l-73-73c-8-8-20-8-27 0-8 8-8 20 0 27l35 35-147 0c-11 0-19 9-19 19 0 11 8 19 19 19l146 0z"/>
    </symbol>
  
    <symbol id="pixel-core-logout" viewBox="0 0 512 512">
      <path d="m340 381l-180 0c-5 0-9-4-9-9l0-230c0-5 4-9 9-9l180 0c11 0 19-9 19-19 0-11-8-19-19-19l-210 0c-10 0-17 7-17 16l0 292c0 9 8 16 17 16l211 0c11 0 19-8 19-19 0-10-9-19-20-19z m76-133l-73-72c-8-8-19-8-27 0-8 8-8 20 0 27l35 35-147 0c-10 0-19 9-19 19 0 11 9 19 19 19l147 0-35 35c-8 7-8 19 0 27 8 8 19 8 27 0l72-72c5-5 5-13 1-18z"/>
    </symbol>
  
    <symbol id="pixel-core-male" viewBox="0 0 512 512">
      <path d="m413 354c-11-16-34-26-69-41-35-15-43-20-43-20l-1-33c0 0 13-11 17-42 9 3 17-12 18-20 0-7-1-28-11-26 2-15 3-30 2-37-2-27-29-55-70-55-41 0-68 29-70 55-1 7 1 22 3 37-10-2-12 18-11 26 0 8 9 23 17 20 4 32 17 42 17 42l0 33c0 0-8 5-44 20-34 15-59 25-70 41-10 15-7 67-7 67l329 0c0 0 3-52-7-67z"/>
    </symbol>
  
    <symbol id="pixel-core-male-add-user" viewBox="0 0 512 512">
      <path d="m251 364c0-31 14-58 36-76l0-23c0 0 13-10 17-40 7 2 16-12 17-20 0-7-2-27-11-25 2-15 3-28 2-35-2-26-28-53-67-53-40 0-65 28-68 54 0 7 1 20 3 35-10-2-11 18-11 25 0 8 9 21 17 19 4 30 16 41 16 41l0 32c0 0-8 5-42 19-34 14-59 24-69 40-9 14-6 64-6 64l185 0c-11-16-19-36-19-57z m99-81c-45 0-81 36-81 81 0 45 37 81 81 81 45 0 82-36 82-81 0-45-37-81-82-81z m44 80c0 4-3 7-7 7l-29 0 0 29c0 4-3 8-7 8-4 0-7-4-7-8l0-29-30 0c-4 0-7-3-7-7 0-4 3-7 7-7l30 0 0-29c0-4 3-8 7-8 4 0 7 4 7 8l0 29 29 0c4 0 7 3 7 7z"/>
    </symbol>
  
    <symbol id="pixel-core-male-business" viewBox="0 0 512 512">
      <path d="m414 354c-11-16-34-26-69-41-14-6-24-10-31-13l-28 121 134 0c0 0 3-52-6-67z m-218-136c4 32 17 42 17 42l0 18c15 6 33 11 44 11 11 0 29-5 44-11l0-18c0 0 13-11 17-42 9 3 17-12 18-20 0-8-1-28-11-26 2-15 3-30 2-37-2-27-29-55-70-55-41 0-68 29-70 55-1 7 1 22 3 37-10-2-12 18-11 26 0 8 8 23 17 20z m3 82c-6 3-16 7-30 13-35 15-60 25-71 41-10 15-7 67-7 67l137 0z m76 4l-6 11c-1 2-4 3-6 3l-14 0c-2 0-4-1-6-3l-6-11c-3-5 1-11 6-11l25 0c6 1 10 7 7 11z m-2 117l-32 0 6-93c0-2 3-4 5-4l9 0c3 0 5 2 5 4z"/>
    </symbol>
  
    <symbol id="pixel-core-male-driver" viewBox="0 0 512 512">
      <path d="m262 362c0-31 14-59 37-78l0-23c0 0 13-11 17-42 8 3 17-12 17-20 0-7-1-27-11-25 2-16 4-30 3-37-3-26-29-55-70-55-40 0-67 29-70 55 0 7 1 21 3 37-10-2-11 18-11 25 0 8 9 22 17 20 4 31 16 42 16 42l0 33c0 0-8 5-43 19-35 15-61 25-71 41-9 15-6 66-6 66l189 0c-10-16-17-36-17-58z m102-84c-47 0-85 37-85 84 0 47 38 84 85 84 46 0 84-37 84-84 0-47-38-84-84-84z m0 20c29 0 55 21 61 49-17-12-38-20-61-20-24 0-45 7-62 20 7-28 32-49 62-49z m-16 126c-23-6-42-25-47-48 3-1 6-1 9-1 22 0 39 17 39 39 1 3 0 6-1 10z m16-45c-10 0-18-7-18-17 0-10 8-17 18-17 9 0 17 7 17 17 0 10-8 17-17 17z m15 45c-1-3-2-7-2-10 0-22 18-39 39-39 3 0 6 0 9 1-5 23-23 42-46 48z"/>
    </symbol>
  
    <symbol id="pixel-core-male-events" viewBox="0 0 512 512">
      <path d="m262 361c0-31 14-59 37-78l0-23c0 0 13-10 17-41 8 2 17-13 17-20 0-8-1-28-11-26 2-15 4-29 3-36-3-27-30-55-70-55-40 0-67 28-70 55 0 7 1 21 3 36-10-2-11 18-11 26 0 7 9 22 17 20 4 31 17 41 17 41l-1 33c0 0-8 5-43 20-34 14-60 24-70 41-9 14-6 66-6 66l190 0c-12-17-19-37-19-59z m102-84c-47 0-84 38-84 84 0 47 37 84 84 84 47 0 84-37 84-84 0-46-38-84-84-84z m35 121c-3 3-7 3-10 0l-32-32 0-63c0-4 3-7 7-7 4 0 7 3 7 7l0 54c0 2 1 3 2 5l26 26c3 3 3 8 0 10z"/>
    </symbol>
  
    <symbol id="pixel-core-male-policyholder" viewBox="0 0 512 512">
      <path d="m276 391c-18-30-17-55-13-71 6-21 20-38 38-46l0-13c0 0 13-10 17-42 9 3 17-12 18-20 0-8-1-28-11-26 2-15 3-30 2-37-2-27-29-56-70-56-41 0-68 29-71 56-1 7 1 22 3 37-10-2-12 18-11 26 0 8 9 23 17 20 4 32 17 42 17 42l0 34c0 0-8 5-44 20-35 15-60 25-71 41-10 15-7 67-7 67l212 0c-11-10-19-21-26-32z m90 56c-170-95-48-214 0-134 46-80 169 39 0 134z"/>
    </symbol>
  
    <symbol id="pixel-core-map-usa" viewBox="0 0 512 512">
      <path d="m439 204c-3-3-22-1-22-1 0 0 0 1-1 1 0 2-2 4-5 4-5 2-72 3-73-2-1-1-1-1-2-2-3-2-9-1-9-1 0 0-1 0-2 1-2 2-5 6-8 7-3 1-4-3-4-7 0-1 1-2 1-2 1-3-7-11-13-16-3-2-6-3-8-2-5 1-32-9-32-9l-169 0c0 0 0 4-1 7 0 1 0 1 0 1 0 2 0 3-1 3 0 1 0 1-1 1 0 0 0-1-1-1-2-1-8-6-9-3 0 1 0 2 1 3 1 4 5 10 5 13 0 1 0 3 0 5 0 3 0 7 0 12 0 5 0 11 0 17 0 5 0 8 0 12 0 6 0 10 0 12 0 2 2 4 3 6 4 2 8 5 7 10 0 0 0 0 0 1 0 7 7 13 13 18 2 1 3 2 4 3 2 2 4 5 7 8 3 4 7 8 9 8 4-1 10-3 14 1 3 4 19 8 26 9l5 0c5 0 16-2 23 0 2 1 4 2 5 4 0 3 2 5 3 7 4 5 8 8 8 8 0 0 3-4 5-8 0 0 0 0 0 0 1-1 3-1 5 0 3 1 6 5 8 13 1 2 1 3 2 5 3 4 7 8 11 11 4 3 8 5 8 5 0 0 0-2 0-5 0-3 0-8 1-11 0-1 0-2 0-3 0-7 20-13 23-13 4-1 27 10 27 6 0-3 4-5 8-8 1 0 2-1 3-1 2-1 4 0 6 1 4 3 8 9 8 7 1-4 12-2 13 3 0 2 2 5 2 9 1 2 1 4 1 6 0 1 0 3 2 5 3 5 9 11 10 10 1 0 1-5 2-10 0-4 0-8-1-11 0-2-1-4-2-5-2-2-3-8-4-13-1-4-1-8 0-11 0-3 1-5 2-6 2-2 8-7 15-12 4-4 9-8 12-12 6-5 9-9 6-9-4-2-4-4-4-9 0-3 1-6 1-10 0 0 0-1 0-1 2-10 9 2 12-11 0-3 2-5 4-7 8-6 23-6 20-8-1-1-1-2-2-3-1-4 0-9 4-11 2-2 5-4 9-7 6-5 12-10 10-12z"/>
    </symbol>
  
    <symbol id="pixel-core-mastercard" viewBox="0 0 512 512">
      <path d="m402 126l-290 0c-12 0-22 10-22 22l0 217c0 11 10 21 22 21l290 0c12 0 21-10 21-21l0-217c0-12-9-22-21-22z m0 10c7 0 12 5 12 12l0 217c0 6-5 12-12 12l-290 0c-7 0-13-6-13-12l0-217c0-7 6-12 13-12l290 0m0-10l-290 0c-12 0-22 10-22 22l0 217c0 11 10 21 22 21l290 0c12 0 21-10 21-21l0-217c0-12-9-22-21-22z m-120 131c0 44-35 79-79 79-43 0-79-35-79-79 0-44 36-79 79-79 44 0 79 35 79 79z m27-79c-21 0-39 8-53 21-3 2-6 5-8 8l16 0c2 2 4 5 6 8l-28 0c-2 3-3 6-5 8l37 0c1 3 2 6 4 8l-44 0c-1 3-2 6-2 9l48 0c1 5 2 10 2 17 0 8-2 16-4 25l-44 0c1 3 2 5 4 8l36 0c-1 3-3 5-4 8l-28 0c2 3 4 6 6 8l16 0c-2 3-5 6-8 8 14 13 32 21 53 21 43 0 79-35 79-79 0-42-36-78-79-78z m68 123c0-1 1-3 2-3 2 0 3 2 3 3 0 2-1 3-3 3-1 0-2-1-2-3z m2 2c1 0 2-1 2-2 0-1-1-2-2-2-1 0-2 1-2 2 1 1 1 2 2 2z m0-1l0 0 0-2 1 0c0 0 0 0 0 0 0 0 1 1 1 1 0 0 0 0-1 0l1 1-1 0 0-1-1 0z m0-1c1 0 1 0 1 0 0 0 0 0 0 0 0 0 0 0-1 0l0 0 0 0z m-194-35c-1 0-2 0-2 0-5 0-7 1-7 5 0 2 1 3 3 3 3 0 6-4 6-8z m6 14c-1 0-7 0-7 0l0-4c-2 3-5 5-9 5-5 0-8-4-8-9 0-8 6-12 15-12 1 0 2 0 4 0 0-1 0-2 0-2 0-3-1-4-5-4-4 0-8 1-9 2 0-1 1-7 1-7 4-1 7-2 10-2 7 0 11 3 11 10 0 2 0 4 0 7-1 4-3 14-3 16z m-27 0l-9 0 5-31-11 31-6 0-1-30-5 30-7 0 6-40 12 0 1 23 8-23 13 0z m155-14c-1 0-1 0-2 0-4 0-7 1-7 5 0 2 1 3 3 3 4 0 6-4 6-8z m7 14c-1 0-8 0-8 0l0-4c-2 3-5 5-8 5-5 0-8-4-8-9 0-8 6-12 15-12 1 0 2 0 4 0 0-1 0-2 0-2 0-3-2-4-6-4-4 0-7 1-9 2 0-1 1-7 1-7 4-1 7-2 10-2 8 0 12 3 12 10 0 2-1 4-1 7-1 4-2 14-2 16z m-97 0c-3 0-4 1-6 1-5 0-7-3-7-8 0-1 1-5 1-8 1-3 4-22 4-22l8 0-1 5 5 0-1 7-5 0c-1 7-2 14-2 15 0 2 1 3 3 3 1 0 1 0 2-1z m26 0c-3 1-6 1-9 1-9 0-14-5-14-14 0-12 6-20 15-20 7 0 11 5 11 12 0 3 0 5-1 8l-17 0c0 5 3 7 7 7 3 0 6-1 9-2z m-5-20c0 0 1-6-4-6-2 0-4 3-5 6z m-54-2c0 4 2 7 7 9 3 2 4 2 4 4 0 2-2 3-5 3-3 0-5-1-8-2 0 0-1 8-1 8 2 1 4 1 9 1 9 0 13-3 13-11 0-4-1-7-6-9-4-1-4-2-4-3 0-2 1-3 4-3 1 0 4 0 6 0l1-7c-2-1-6-1-8-1-9 0-12 5-12 11z m100-10c3 0 5 0 8 2l2-9c-1 0-6-3-10-3-5 0-10 3-13 7-5-1-8 2-10 5l-3 1c0-1 1-2 1-3l-8 0c-1 10-3 20-4 30l-1 2 9 0c1-9 2-15 2-19l3-2c1-1 2-2 6-2-1 2-1 4-1 6 0 11 6 18 15 18 2 0 4-1 8-1l1-10c-3 2-5 2-7 2-5 0-8-3-8-9 0-9 4-15 10-15z m73-8l-2 12c-2-3-5-5-8-5-4 0-8 3-11 8-3-1-7-2-7-2 1-3 1-4 1-5l-8 0c-1 10-3 20-5 30l0 2 8 0c1-8 2-14 3-18 3-3 5-5 7-5-1 3-2 7-2 11 0 8 4 13 10 13 3 0 6-1 8-3l-1 3 9 0 6-40-8 0z m-11 33c-3 0-4-2-4-6 0-6 2-11 6-11 4 0 5 2 5 6 0 6-3 11-7 11z m-192 5l-8 0 4-31-10 31-6 0-1-31-5 31-8 0 7-40 12 0 0 25 9-25 13 0z m21-15c-1 0-1 0-2 0-4 0-7 2-7 5 0 2 1 3 3 3 3 0 6-3 6-8z m7 15c-1 0-8 0-8 0l0-4c-2 3-5 5-8 5-5 0-8-4-8-9 0-8 6-12 15-12 1 0 2 0 3 0 1-1 1-2 1-3 0-2-2-3-6-3-4 0-7 1-9 2 0-1 1-7 1-7 4-1 7-2 10-2 8 0 12 3 12 10 0 2-1 4-1 7-1 3-2 13-2 16z m114-39l-1 9c-3-2-5-2-8-2-6 0-11 6-11 15 0 6 3 9 8 9 2 0 5 0 8-2l-2 9c-3 1-5 1-8 1-9 0-14-7-14-17 0-15 7-24 19-24 4 0 8 2 9 2z m14 24c-1 0-1 0-2 0-5 0-7 2-7 5 0 2 1 3 3 3 3 0 6-3 6-8z m6 15c-1 0-7 0-7 0l0-4c-2 3-5 5-9 5-4 0-7-4-7-9 0-8 5-12 14-12 2 0 3 0 4 0 1-1 1-2 1-3 0-2-2-3-6-3-4 0-8 1-9 2 0-1 1-7 1-7 4-1 7-2 10-2 7 0 11 3 11 10 0 2 0 4 0 7-1 3-3 13-3 16z m-97 0c-2 0-4 1-6 1-4 0-6-3-6-8 0-1 0-5 1-8 0-3 3-22 3-22l9 0-1 5 5 0-2 7-4 0c-1 7-3 14-3 15 0 2 1 3 3 3 1 0 2 0 2-1z m27-1c-4 1-6 2-9 2-10 0-15-6-15-15 0-11 7-19 15-19 8 0 12 4 12 12 0 2-1 4-1 8l-17 0c-1 4 2 6 7 6 3 0 5 0 9-2z m-6-19c0 0 1-6-4-6-2 0-4 2-5 6z m-53-3c0 5 2 8 6 10 4 1 4 2 4 3 0 2-1 3-5 3-2 0-5 0-7-1 0 0-1 7-1 8 2 0 3 1 8 1 10 0 14-4 14-11 0-5-2-7-7-9-3-2-4-2-4-4 0-2 2-3 4-3 2 0 5 0 7 1l1-8c-2 0-6 0-8 0-9 0-12 5-12 10z m174 23l-8 0 1-3c-3 3-5 4-8 4-6 0-10-6-10-14 0-11 6-20 13-20 4 0 6 2 9 5l2-12 8 0z m-13-8c5 0 7-4 7-10 0-5-1-7-5-7-4 0-6 5-6 11 0 4 2 6 4 6z m-24-25c-1 10-3 21-5 30l0 3 8 0c4-20 4-24 9-24 1-4 2-7 3-9-3 0-5 1-8 5 0-1 1-3 1-5z m-71 0c-1 10-3 21-4 30l-1 3 9 0c3-20 3-24 9-24 0-4 2-7 3-9-4 0-6 1-9 5 0-1 1-3 1-5z m112 30c0-1 1-2 2-2 2 0 3 1 3 2 0 2-1 3-3 3-1 0-2-2-2-3z m2 2c1 0 2-1 2-2 0-1-1-2-2-2-1 0-2 1-2 2 1 1 1 2 2 2z m0-1l0 0 0-2 1 0c0 0 0 0 0 0 0 0 1 1 1 1 0 0 0 0-1 0l1 1-1 0 0-1-1 0z m0-1c1 0 1 0 1 0 0 0 0 0 0-1 0 0 0 0-1 0l0 0 0 1z"/>
    </symbol>
  
    <symbol id="pixel-core-mastercard-logo" viewBox="0 0 512 512">
      <path d="m289 256c0 55-45 100-100 100-55 0-100-45-100-100 0-55 45-100 100-100 55 0 100 45 100 100z m34-100c-26 0-49 10-67 26-4 3-7 6-10 11l20 0c3 3 5 6 8 10l-35 0c-2 4-5 7-6 11l47 0c1 4 3 7 4 11l-56 0c-1 3-2 7-3 11l62 0c1 6 2 13 2 21 0 11-2 21-5 31l-56 0c1 4 3 7 4 11l47 0c-1 4-4 7-6 11l-35 0c3 3 5 7 8 11l20 0c-3 3-6 7-10 10 18 16 41 26 67 26 55 0 100-45 100-100-1-56-45-101-100-101z m86 155c0-1 2-3 3-3 2 0 3 2 3 3 0 2-1 3-3 3-1 0-3-1-3-3z m4 3c1 0 2-1 2-3 0-1-1-2-2-2-2 0-3 1-3 2 0 2 1 3 3 3z m-1-1l0 0 0-3 1 0c0 0 0 0 0 0 0 0 1 0 1 0 0 1 0 1-1 1l1 1-1 0 0-1-1 0z m0-2c1 0 1 0 1 0 0 0 0 0 0 0 0 0 0 0 0-1 0 0-1 0-1 0l0 0 0 1z m-246-44c-1 0-2 0-3 0-6 0-9 2-9 6 0 2 2 4 4 4 4 0 8-4 8-10z m8 18c-2 0-10 0-10 0l0-4c-2 4-6 5-11 5-6 0-10-4-10-11 0-10 8-16 19-16 1 0 3 0 5 1 0-2 0-2 0-3 0-3-2-4-7-4-5 0-9 1-11 2 0 0 2-9 2-9 5-1 8-2 12-2 10 0 15 4 15 13 0 2-1 4-1 8-1 4-3 17-3 20z m-35 0l-10 0 6-39-14 39-8 0 0-39-7 39-10 0 8-51 16 0 1 29 9-29 17 0z m197-18c-1 0-1 0-2 0-6 0-9 2-9 6 0 2 1 4 4 4 4 0 7-4 7-10z m8 18c-1 0-9 0-9 0l0-4c-3 4-6 5-11 5-6 0-10-4-10-11 0-10 7-16 19-16 1 0 2 0 4 1 1-2 1-2 1-3 0-3-2-4-7-4-5 0-10 1-12 2 0 0 2-9 2-9 6-1 9-2 13-2 9 0 14 4 14 13 0 2 0 4-1 8 0 4-2 17-3 20z m-122-1c-3 1-5 2-8 2-6 0-9-3-9-10 0-2 1-6 2-10 0-4 4-28 4-28l11 0-1 6 7 0-2 9-6 0c-1 8-3 18-3 19 0 2 1 3 3 3 1 0 2 0 3 0z m33 0c-4 1-7 2-11 2-13 0-19-6-19-19 0-14 8-24 19-24 9 0 15 5 15 15 0 3-1 6-2 10l-21 0c0 6 3 8 9 8 4 0 7-1 12-2z m-6-24c0-1 1-8-5-8-4 0-6 3-7 8z m-69-3c0 5 3 9 8 11 5 2 6 3 6 5 0 2-3 3-7 3-3 0-6 0-9-1 0 0-2 9-2 10 3 0 5 1 11 1 12 0 17-4 17-14 0-6-2-9-7-11-5-2-6-3-6-5 0-2 3-4 6-4 2 0 5 0 7 1l2-10c-3 0-7-1-10-1-12 1-16 7-16 15z m127-13c3 0 6 1 10 3l1-11c-1 0-7-4-11-4-7 0-14 4-18 10-6-2-8 2-11 6l-3 0c0-1 0-2 0-4l-9 0c-2 13-4 26-6 39l0 2 10 0c2-12 3-19 4-24l4-2c1-2 3-4 6-4 0 3-1 6-1 9 0 13 7 22 19 22 3 0 6-1 10-2l2-12c-4 2-7 3-9 3-7 0-11-5-11-12-1-11 6-19 13-19z m92-10l-3 15c-3-4-6-6-10-6-6 0-10 4-14 10-4-1-9-3-9-3 1-3 1-5 1-6l-10 0c-2 13-4 26-6 39l0 2 10 0c2-10 3-17 4-23 4-4 6-7 9-7-1 5-2 9-2 14 0 10 5 17 13 17 4 0 7-2 10-5l-1 4 10 0 9-51-11 0z m-13 41c-4 0-6-2-6-8 0-8 3-14 8-14 4 0 6 4 6 9 0 8-3 13-8 13z m-244 7l-10 0 6-39-14 39-7 0-1-39-7 39-10 0 9-51 15 0 0 32 11-32 17 0z m27-18c-1 0-2 0-3 0-6 0-9 2-9 6 0 2 2 4 4 4 4 0 8-4 8-10z m8 18c-2 0-10 0-10 0l0-4c-2 4-6 5-11 5-5 0-10-4-10-11 0-10 8-16 19-16 1 0 3 0 5 1 0-2 0-3 0-3 0-3-2-4-7-4-5 0-9 1-11 2 0 0 2-9 2-9 5-1 8-2 12-2 10 0 15 4 15 12 0 2-1 5-1 9-1 4-3 17-3 20z m145-49l-1 11c-5-2-7-3-10-3-8 0-14 8-14 19 0 8 4 12 10 12 3 0 6-1 9-2l-2 11c-4 1-6 2-9 2-12 0-19-9-19-22 0-18 10-31 24-31 5 0 11 2 12 3z m17 31c-1 0-1 0-2 0-6 0-9 2-9 6 0 2 1 4 4 4 4 0 7-4 7-10z m8 18c-1 0-9 0-9 0l0-4c-3 4-6 5-11 5-6 0-10-4-10-11 0-10 7-16 19-16 1 0 2 0 4 1 1-2 1-3 1-3 0-3-2-4-7-4-5 0-10 1-11 2 0 0 1-9 1-9 6-1 9-2 13-2 9 0 14 4 14 12 0 2 0 5-1 9 0 4-2 17-3 20z m-122 0c-3 1-5 1-8 1-6 0-9-3-9-9 0-2 1-7 2-11 0-4 5-28 5-28l10 0-1 6 6 0-2 10-5 0c-1 8-3 17-3 19 0 2 1 3 3 3 1 0 2 0 3-1z m33-1c-4 1-7 2-11 2-13 0-19-7-19-19 0-14 9-24 19-24 9 0 15 5 15 14 0 4-1 7-2 11l-21 0c-1 6 3 8 9 8 4 0 7-1 11-2z m-6-24c0-2 1-8-5-8-4 0-6 3-7 8z m-69-3c0 5 3 9 8 11 5 2 6 3 6 5 0 2-2 3-7 3-3 0-6 0-9-1 0 0-2 9-2 10 3 0 5 1 11 1 12 0 17-4 17-14 0-6-2-9-7-11-5-3-5-3-5-5 0-2 2-4 5-4 2 0 5 0 7 1l2-10c-3 0-7-1-10-1-12 1-16 7-16 15z m221 28l-10 0 1-3c-3 3-6 4-10 4-8 0-13-7-13-17 0-14 8-25 17-25 4 0 7 2 10 6l3-15 11 0z m-15-10c5 0 8-5 8-13 0-6-2-9-5-9-5 0-9 6-9 14 0 6 2 8 6 8z m-32-31c-2 13-4 26-6 39l0 2 10 0c5-25 5-30 11-29 1-5 3-10 4-12-4-1-7 2-10 7 1-2 1-4 1-6l-10 0z m-89 0c-2 13-4 26-6 39l0 2 10 0c4-25 5-30 11-29 1-5 3-10 4-12-4-1-7 2-10 7 1-2 1-4 1-6l-10 0z m141 38c0-1 2-3 3-3 2 0 3 2 3 3 0 2-1 3-3 3-1 0-3-1-3-3z m4 2c1 0 2-1 2-2 0-2-1-3-2-3-2 0-3 1-3 3 0 1 1 2 3 2z m-1-1l0 0 0-3 1 0c0 0 0 0 0 0 0 0 1 1 1 1 0 0 0 0-1 0l1 1-1 0 0-1-1 0z m0-1c1 0 1 0 1 0 0 0 0 0 0-1 0 0 0 0 0 0 0 0 0 0 0 0l-1 0z"/>
    </symbol>
  
    <symbol id="pixel-core-maximize" viewBox="0 0 512 512">
      <path d="m111 410c-5 0-9-4-9-9l0-85c0-10 8-18 17-18 10 0 18 8 18 18l0 34 66-66c3-3 7-5 12-5 5 0 9 2 12 5 3 3 5 7 5 12 0 5-2 9-5 12l-65 67 34 0c10 0 18 7 18 17 0 10-8 18-18 18z m185-177c-5 0-9-2-12-5-7-6-7-18 0-25l66-66-34 0c-10 0-18-7-18-17 0-10 8-18 18-18l85 0c5 0 9 4 9 9l0 75c0 10-8 18-17 18-10 0-18-8-18-18l0-23-67 65c-3 4-7 5-12 5z m-80 0c-5 0-9-2-12-5l-67-66 0 24c0 10-7 17-17 17-10 0-18-7-18-17l0-75c0-5 4-9 9-9l86 0c9 0 17 8 17 17 0 10-8 18-17 18l-34 0 66 66c3 3 5 7 5 12 0 5-2 9-5 12-4 5-8 6-13 6z m100 177c-10 0-18-8-18-17 0-10 8-18 18-18l34 0-66-66c-3-3-5-8-5-13 0-4 2-9 5-12 3-3 7-5 12-5 5 0 9 2 12 5l66 66 0-34c0-9 8-17 18-17 9 0 17 8 17 17l0 86c0 5-4 9-9 9l-84 0z"/>
    </symbol>
  
    <symbol id="pixel-core-membership-card" viewBox="0 0 512 512">
      <path d="m139 205c0-1-5-19-6-21 0 2-5 20-6 21 2 0 11 0 12 0z m-22-9c0 4 1 9 4 13 0-2 9-35 10-37-9 6-14 14-14 24z m39 9c1 0 10 0 11 0 0-1-5-19-5-21-1 2-5 20-6 21z m40 0c0-1-5-19-6-21 0 2-5 20-5 21 1 0 10 0 11 0z m-34-43c-8 0-16 2-22 4 0 1 10 35 11 38 1-2 11-41 11-42z m247-42l-306 0c-12 0-22 11-22 23l0 228c0 12 10 22 22 22l306 0c12 0 23-10 23-22l0-228c-1-12-11-23-23-23z m-187 98l-1 0 0-1c29-20 47-40 43-48-4-6-22-3-47 8 5 5 8 12 8 19 0 21-27 37-60 37-10 0-20-2-29-5-12 12-17 21-14 26 3 5 16 5 35-3l1 0 0 1 0 0c-25 10-41 11-45 5-3-7 3-17 17-31-14-7-24-18-24-30 0-21 27-38 60-38 18 0 35 5 45 14 34-16 59-21 64-12 5 9-17 34-53 58z m159 122l-94 0c-5 0-11-5-11-11 0-5 5-11 11-11l94 0c6 0 11 5 11 11 0 6-5 11-11 11z m0-49l-94 0c-5 0-11-5-11-11 0-6 5-11 11-11l94 0c6 0 11 5 11 11 0 6-5 11-11 11z m-182-120c0 2 10 36 10 38 3-4 5-9 5-13 0-10-6-18-15-25z m-16 39c0 1-1 5-1 5 0 0 3 11 3 11 6-1 11-4 15-7 0 0-2-8-2-9-1 0-14 0-15 0z m-57 0c0 1-1 4-1 5 5 5 12 8 20 11-1-1-4-16-4-16-1 0-14 0-15 0z m29 0c0 1-4 17-4 18 4 1 9 1 14 1 3 0 7 0 9 0 0-1-5-18-5-19-1 0-13 0-14 0z m12-48c1 1 12 40 12 42 1-3 10-37 10-38-6-2-14-4-22-4z"/>
    </symbol>
  
    <symbol id="pixel-core-menu" viewBox="0 0 512 512">
      <path d="m398 233l-286 0c-13 0-23 10-23 23 0 13 10 23 23 23l286 0c13 0 23-10 23-23 0-13-10-23-23-23z m0-107l-286 0c-13 0-23 11-23 24 0 12 10 23 23 23l286 0c13 0 23-11 23-23 0-13-10-24-23-24z m0 213l-286 0c-13 0-23 11-23 23 0 13 10 24 23 24l286 0c13 0 23-11 23-24 0-12-10-23-23-23z"/>
    </symbol>
  
    <symbol id="pixel-core-message" viewBox="0 0 512 512">
      <path d="m243 275l-162-94 0 189c0 12 10 23 22 23l306 0c12 0 23-11 23-23l0-189-163 94c-8 5-18 5-26 0z m26-24l162-94 0-15c0-12-10-22-22-22l-306 0c-12 0-22 10-22 22l0 15 162 94c8 5 18 5 26 0z"/>
    </symbol>
  
    <symbol id="pixel-core-minimize" viewBox="0 0 512 512">
      <path d="m165 189l-21 0c-10 0-18 8-18 18 0 10 8 18 18 18l74 0c4 0 8-4 8-9l0-72c0-10-8-18-18-18-9 0-18 8-18 18l0 19-61-61c-4-4-8-5-13-5-4 0-9 2-13 5-3 3-5 8-5 13 0 4 2 9 5 12z m129 36l73 0c9 0 18-8 18-18 0-10-9-18-18-18l-20 0 62-62c3-3 5-7 5-12 0-5-2-10-5-13-4-4-8-5-13-5-5 0-9 2-13 5l-61 61 0-21c0-9-9-18-18-18-10 0-18 9-18 18l0 74c0 5 3 9 8 9z m-178 187c5 0 9-2 13-5l61-61 0 19c0 10 9 18 18 18 10 0 18-8 18-18l0-72c0-5-4-9-8-9l-74 0c-10 0-18 8-18 18 0 10 8 18 18 18l21 0-62 61c-3 4-5 8-5 13 0 5 2 9 5 13 4 4 9 5 13 5z m188-27c9 0 18-9 18-18l0-21 61 61c4 4 8 5 13 5 4 0 9-2 13-5 3-4 5-8 5-13 0-4-2-9-5-13l-62-61 20 0c9 0 18-8 18-18 0-10-9-18-18-18l-73 0c-4 0-8 4-8 9l0 74c0 9 8 18 18 18z"/>
    </symbol>
  
    <symbol id="pixel-core-motorcycle" viewBox="0 0 512 512">
      <path d="m425 238l0-19c0-8-6-15-14-15l-128 0-84-37 5-15c2-6 7-9 13-9l32 0 0-9-36 0c-14 0-27 9-32 22l-22 66c-7-2-15-3-22-3-42 0-75 33-75 75 0 41 34 75 75 75 41 0 74-34 74-75 0-27-13-50-34-63l14-42 10 40 65 72 36 0c3 38 35 68 74 68 41 0 75-34 75-75 0-23-10-43-26-56z m-238 56c0 28-23 50-50 50-27 0-50-22-50-50 0-28 23-50 50-50 4 0 9 1 14 2l-9 24c-2-1-4-1-6-1-14 0-25 12-25 25 0 14 11 25 25 25 14 0 25-11 25-25 0-4-1-7-2-10l9-28c12 9 19 23 19 38z m116-17c-3-1-6-1-9-1-2-13-13-23-26-23-7 0-13 2-17 6-3-2-6-4-8-6l-10-9 87 0c-8 9-14 21-17 33z m73 67c-25 0-46-19-49-43l25 0c3 10 13 18 24 18 12 0 21-8 24-18l16 0 0-17-17 0c-4-9-13-15-23-15-10 0-18 6-22 15l-26 0c4-23 25-40 48-40 28 0 50 23 50 50 0 27-23 50-50 50z m-215-169l0-11c0-8-6-14-14-14l-19 0 0 39 19 0c8 0 14-7 14-14z"/>
    </symbol>
  
    <symbol id="pixel-core-news" viewBox="0 0 512 512">
      <path d="m412 105l-269 0c-12 0-22 10-22 22l0 3-21 0c-13 0-24 10-24 24l0 222c0 18 15 34 34 34l302 0c12 0 23-11 23-23l0-260c-1-12-11-22-23-22z m-293 262c0 5-4 10-10 10-6 0-11-4-11-10l0-201c0-5 4-10 11-10 5 0 10 4 10 10z m49-177c0-5 5-10 11-10l77 0c6 0 11 4 11 10l0 67c0 5-5 10-11 10l-77 0c-6 0-11-4-11-10z m203 138l-193 0c-6 0-11-4-11-11 0-5 5-10 11-10l193 0c6 0 10 4 10 10 0 7-4 11-10 11z m0-63l-63 0c-5 0-11-5-11-11 0-6 5-11 11-11l63 0c5 0 10 5 10 11 0 6-4 11-10 11z m0-64l-63 0c-5 0-11-4-11-11 0-5 5-10 11-10l63 0c5 0 10 4 10 10 0 7-4 11-10 11z"/>
    </symbol>
  
    <symbol id="pixel-core-office-chair" viewBox="0 0 512 512">
      <path d="m212 262c-12 3-25-5-28-17l-36-140c-3-12 5-25 17-28 13-3 25 4 29 17l35 139c3 13-5 26-17 29z m150 168c0 9-8 17-17 17-10 0-18-8-18-17 0-10 8-18 18-18 9 0 17 8 17 18z m-149 0c0 9-8 17-18 17-10 0-18-8-18-17 0-10 8-18 18-18 10 0 18 8 18 18z m-61-231c5-1 10 1 11 6l19 76c1 4 5 7 9 7l10 0c4-7 11-13 21-13l117 0c13 0 23 11 23 23 0 12-10 23-23 23l-58 0 0 44 73 20c5 1 9 7 7 12-1 6-7 10-12 8l-79-21-76 21c-1 1-3 1-4 1-4 0-8-4-10-8-1-6 2-12 8-13l71-20 0-44-37 0c-10 0-18-6-21-14l-24 0c-4 0-8-3-9-7l-23-90c-1-5 2-10 7-11z"/>
    </symbol>
  
    <symbol id="pixel-core-print" viewBox="0 0 512 512">
      <path d="m396 145l-46 0 0-30c0-13-11-24-25-24l-139 0c-13 0-24 10-24 24l0 30-47 0c-13 0-24 11-24 25l0 113c0 13 10 25 24 25l47 0 0 89c0 13 11 24 24 24l139 0c13 0 25-10 25-24l0-89 46 0c14 0 25-11 25-25l0-113c0-13-11-25-25-25z m-266 65c-9 0-17-8-17-17 0-9 8-17 17-17 9 0 17 8 17 17 0 9-8 17-17 17z m56-95l139 0 0 30-139 0z m140 282l-140 0 0-89 139 0z m-30-75l-80 0c-7 0-12 5-12 12 0 6 5 12 12 12l80 0c7 0 12-6 12-12 0-7-5-12-12-12z m0 38l-80 0c-7 0-12 6-12 12 0 7 5 13 12 13l80 0c7 0 12-6 12-13 0-6-5-12-12-12z"/>
    </symbol>
  
    <symbol id="pixel-core-pup" viewBox="0 0 512 512">
      <path d="m256 251c-9 0-15 7-15 15l0 100c0 14-12 25-25 25-14 0-26-11-26-25 0-9-7-15-15-15-8 0-15 7-15 15 0 31 25 56 56 56 31 0 56-25 56-56l0-100c0-8-7-15-16-15z m16-149l0-9c0-9-7-15-15-15-9 0-16 7-16 15l0 9c-75 7-135 65-145 140 13-10 28-15 46-15 22 0 43 9 57 24 15-14 35-24 58-24 22 0 43 9 57 24 14-14 35-24 57-24 18 0 33 5 46 15-10-75-70-132-145-140z"/>
    </symbol>
  
    <symbol id="pixel-core-question" viewBox="0 0 512 512">
      <path d="m255 409c-13 0-25-11-25-24 0-14 12-25 25-25 13 0 25 11 25 25 0 13-12 24-25 24z m-1-64c-11 0-20-10-20-21l0-19c0-10 4-24 21-36 8-6 16-9 17-9l1-1c25-8 41-31 41-56 0-33-27-60-60-60-32 0-59 27-59 60 0 11-9 20-20 20-12 0-21-9-21-20 0-27 10-52 29-71 19-19 44-29 71-29 27 0 52 10 71 29 19 19 29 44 29 71 0 21-7 42-20 59-12 17-29 29-48 36-5 2-10 5-12 7l0 19c1 11-8 21-20 21z"/>
    </symbol>
  
    <symbol id="pixel-core-reminder" viewBox="0 0 512 512">
      <path d="m275 421l-38 0c-12 0-21-9-21-21l79 0c1 12-8 21-20 21z m28-32l-94 0c-5 0-10-5-10-11 0-5 5-10 10-10l94 0c5 0 10 5 10 10 0 6-5 11-10 11z m0-33l-94 0c-5 0-10-5-10-10 0-6 5-11 10-11l94 0c5 0 10 5 10 11 0 5-5 10-10 10z m11-43c0 5-5 10-10 10l-96 0c-5 0-10-5-10-10-6-61-45-68-45-124 0-57 46-103 103-103 57 0 103 46 103 103 0 56-38 62-45 124z"/>
    </symbol>
  
    <symbol id="pixel-core-renewal" viewBox="0 0 512 512">
      <path d="m402 257c0-1 0-2 0-2 0-1 0-2 0-4 0-1 0-3 0-5 0 0 0-1 0-2-1-16-4-31-10-46-7-17-18-33-32-46-13-14-29-25-46-32-18-7-38-11-57-11-20 0-39 4-57 11-17 7-33 18-46 32-14 13-24 29-32 46-7 18-11 37-11 56l-40 0c-6 0-9 8-4 12l57 58c3 3 8 3 10 0l57-58c4-4 1-12-5-12l-40 0c0-22 7-43 19-60 1 0 1-1 1-1l8-9c20-22 46-35 75-37 30-2 58 8 80 27 22 19 36 46 38 75 0 1 0 2 0 4 0 0 0 1 0 1 0 30-12 58-33 79-21 21-48 32-77 32l-12 0c-1 0-2 0-2 1-22-3-42-12-58-27l-8-7c-4-3-9-5-14-4-9 0-17 9-17 19 1 4 2 8 6 11 0 0 0 1 1 1l8 8c15 13 32 23 50 29 18 6 37 8 56 7 19-2 38-6 55-14 17-9 33-21 46-36 12-15 22-31 28-50 4-16 6-31 6-46z"/>
    </symbol>
  
    <symbol id="pixel-core-rental" viewBox="0 0 512 512">
      <path d="m418 187l-44-44c-4-4-12-4-16 0l-47 47-47-47c-4-4-12-4-16 0l-47 47-47-47c-4-4-12-4-16 0l-44 44c-2 2-3 6-3 9l0 170c0 6 5 11 11 11l309 0c6 0 11-5 11-11l0-170c-1-3-2-7-4-9z m-297 34c0-2 2-4 4-4l14 0c2 0 3 2 3 4l0 13c0 3-1 4-3 4l-14 0c-2 0-4-1-4-4z m0 43l0-14c0-2 2-4 4-4l14 0c2 0 3 2 3 4l0 14c0 2-1 3-3 3l-14 0c-2 0-4-1-4-3z m42 91c0 2-1 3-3 3l-27 0c-2 0-4-1-4-3l0-54c0-2 2-4 4-4l27 0c2 0 3 2 3 4z m8-91c0 2-2 3-4 3l-13 0c-2 0-4-1-4-3l0-14c0-2 2-4 4-4l13 0c2 0 4 2 4 4z m0-29c0 2-2 4-4 4l-13 0c-2 0-4-2-4-4l0-14c0-2 2-3 4-3l13 0c2 0 4 1 4 3z m60-14c0-2 1-4 3-4l14 0c2 0 4 2 4 4l0 13c0 3-2 4-4 4l-14 0c-2 0-3-1-3-4z m0 43l0-14c0-2 1-4 3-4l14 0c2 0 4 2 4 4l0 14c0 2-2 3-4 3l-14 0c-1 0-3-1-3-3z m42 91c0 2-1 3-3 3l-27 0c-2 0-4-1-4-3l0-54c0-2 2-4 4-4l27 0c2 0 3 2 3 4z m8-91c0 2-1 3-3 3l-14 0c-2 0-4-1-4-3l0-14c0-2 2-4 4-4l14 0c2 0 3 2 3 4z m0-29c0 2-1 4-3 4l-14 0c-2 0-4-2-4-4l0-14c0-2 2-3 4-3l14 0c2 0 3 1 3 3z m60-14c0-2 2-4 4-4l13 0c2 0 4 2 4 4l0 13c0 3-2 4-4 4l-13 0c-2 0-4-1-4-4z m0 43l0-14c0-2 2-4 4-4l13 0c2 0 4 2 4 4l0 14c0 2-2 3-4 3l-13 0c-2 0-4-1-4-3z m42 91c0 2-1 3-3 3l-27 0c-2 0-4-1-4-3l0-54c0-2 2-4 4-4l27 0c2 0 3 2 3 4z m8-91c0 2-1 3-3 3l-14 0c-2 0-4-1-4-3l0-14c0-2 2-4 4-4l14 0c2 0 3 2 3 4z m0-29c0 2-1 4-3 4l-14 0c-2 0-4-2-4-4l0-14c0-2 2-3 4-3l14 0c2 0 3 1 3 3z"/>
    </symbol>
  
    <symbol id="pixel-core-resting-data" viewBox="0 0 512 512">
      <path d="m339 283c-45 0-81 36-81 81 0 45 36 81 81 81 46 0 82-36 82-81 0-45-36-81-82-81z m0 107c0 3-3 6-6 6l-32 0c-3 0-6-3-6-6l0-1c0-1 1-2 1-3l15-19c3-3 5-6 8-9l-16 0c-3 0-6-2-6-5l0-1c0-3 3-6 6-6l29 0c3 0 6 3 6 6l0 1c0 2-1 3-1 4l-14 17c-2 3-5 6-8 9l18 0c3 0 6 3 6 6z m43-29c0 3-2 5-4 5l-26 0c-2 0-4-2-4-5l0-1c0-1 0-2 1-3l11-14c2-3 5-5 7-8l-13 0c-3 0-5-2-5-4l0-1c0-2 2-4 5-4l23 0c3 0 5 2 5 4l0 2c0 1-1 2-1 2l-11 14c-2 3-4 5-7 7l15 0c2 0 4 2 4 5z m-55-229c0 6-5 11-11 11-6 0-11-5-11-11 0-6 5-11 11-11 6 0 11 5 11 11z m12 134c8 0 15 1 21 2l0-151c0-14-10-24-24-24l-158 0c-14 0-24 10-24 24l0 279c0 14 10 24 24 24l81 0c-11-16-18-35-18-56 0-54 44-98 98-98z m-164-146c0-4 3-7 7-7l149 0c4 0 7 3 7 7l0 25c0 4-3 7-7 7l-149 0c-4 0-7-3-7-7z m0 83l0-24c0-4 3-7 7-7l149 0c4 0 7 3 7 7l0 24c0 4-3 7-7 7l-149 0c-4 0-7-3-7-7z m152-13c0 6-5 11-11 11-6 0-11-5-11-11 0-6 5-11 11-11 6 0 11 5 11 11z"/>
    </symbol>
  
    <symbol id="pixel-core-right" viewBox="0 0 512 512">
      <path d="m111 237l240 0-51-53c-8-7-8-20 0-27 7-8 19-8 27 0l90 90c5 4 5 12 0 17l-90 91c-8 7-20 7-28 0-8-8-8-20 0-28l52-52-240 0c-11 0-20-9-20-20 0-10 9-18 20-18z"/>
    </symbol>
  
    <symbol id="pixel-core-right-turn" viewBox="0 0 512 512">
      <path d="m389 249l-58-59c-3-3-8-1-8 4l0 30c-25 0-49 7-69 21l0-86 29 0c4 0 7-5 4-8l-59-59c-2-2-5-2-6 0l-59 59c-3 3-1 8 4 8l29 0 0 250c0 6 5 12 12 12l34 0c7 0 12-6 12-12l0-60c0-19 8-36 21-49 13-13 30-20 48-20l0 30c0 4 5 7 8 4l58-59c2-1 2-4 0-6z"/>
    </symbol>
  
    <symbol id="pixel-core-safetybelt" viewBox="0 0 512 512">
      <path d="m151 91l-60 60 39 39-12 12c-3 4-3 9 0 13l19 18c1 2 3 3 5 3l34 0 32 32c4 4 10 4 13 0l47-47c4-3 4-9 0-13l-32-32 0-34c0-2-2-4-3-5l-18-19c-4-3-9-3-13 0l-12 12z m73 112c1-2 3-2 5 0l12 12c2 2 2 4 0 5l-21 21c-1 2-3 2-5 0l-12-12c-2-2-2-4 0-5z m-27-63c2-1 4-1 5 0l4 4c2 2 2 4 0 6l-56 56c-2 2-4 2-6 0l-4-4c-1-1-1-3 0-5z m162 279l-38-38 60-61 38 39z m-64-192l-68 68c-4 3-4 9 0 13l68 68c3 3 9 3 13 0l68-68c3-4 3-10 0-13l-68-68c-4-4-10-4-13 0z m3 35c2-2 5-2 7 0l36 36c2 2 2 5 0 7l-36 36c-2 2-5 2-7 0l-36-36c-2-2-2-5 0-7z m-18 43l17 18c3 2 6 2 8 0l18-18c2-2 2-5 0-7l-18-18c-2-2-5-2-8 0l-17 18c-2 2-2 5 0 7z"/>
    </symbol>
  
    <symbol id="pixel-core-search" viewBox="0 0 512 512">
      <path d="m407 363l-48-48c0 0-1-1-1-1 14-22 22-48 22-76 0-78-63-142-142-142-79 0-142 63-142 142 0 78 64 142 143 142 27 0 53-8 75-22 0 0 1 1 1 1l48 48c12 12 32 12 44 0 12-12 12-32 0-44z m-272-125c0-57 46-103 103-103 57 0 103 46 103 103 0 57-46 103-103 103-57 0-103-46-103-103z"/>
    </symbol>
  
    <symbol id="pixel-core-sedan" viewBox="0 0 512 512">
      <path d="m141 293c-21 0-38 17-38 38 0 21 17 38 38 38 21 0 38-17 38-38 0-21-17-38-38-38z m0 53c-8 0-15-7-15-15 0-8 7-15 15-15 9 0 15 7 15 15 0 8-6 15-15 15z m303-53l0-34c0-9-7-15-15-15l-47 0-11-24c-6-15-21-24-37-24l-101 0c-10 0-21 3-29 9l-44 39-46 0c-19 0-35 15-35 35l0 14-1 0c-8 0-15 7-15 15l0 14c0 8 7 15 15 15l13 0c0-2 0-4 0-6 0-27 22-50 50-50 27 0 50 23 50 50 0 2 0 4-1 6l141 0c0-2 0-4 0-6 0-27 22-50 50-50 28 0 50 23 50 50 0 2 0 4 0 6l2 0c8 0 14-7 14-15l0-24c2-3-1-5-3-5z m-166-49l-90 0 26-25c6-4 12-7 19-7l45 0z m15 0l0-31 41 0c10 0 18 6 22 14l8 17z m89 49c-21 0-38 17-38 38 0 21 17 38 38 38 21 0 38-17 38-38 0-21-17-38-38-38z m0 53c-8 0-15-7-15-15 0-8 7-15 15-15 8 0 15 7 15 15 0 8-7 15-15 15z"/>
    </symbol>
  
    <symbol id="pixel-core-settings" viewBox="0 0 512 512">
      <path d="m373 311c1-1 1-2 1-2 0-1 0-1 1-1 0-1 0-1 0-2 0 0 1-1 1-1 0-1 0-1 0-1 1-1 1-2 1-2 2-6 4-12 5-17l36-7c2-1 4-3 4-6l0-30c0-2-2-4-4-5l-36-7c-1-6-3-11-5-17 0-1 0-2-1-2 0-1 0-1 0-1 0-1-1-1-1-2 0 0 0-1 0-1 0-1 0-1-1-1 0-1 0-2-1-3-2-5-5-10-8-15l20-30c1-2 1-5-1-7l-22-21c-1-2-4-3-6-1l-30 20c-5-3-11-6-16-9 0 0-1 0-2-1 0 0 0 0-1 0 0 0-1-1-1-1-1 0-1 0-2 0 0 0 0 0-1-1 0 0-1 0-2-1-6-2-11-3-17-5l-8-35c0-2-2-4-5-4l-30 0c-2 0-4 2-5 4l-7 36c-6 1-11 3-17 5-1 0-2 0-2 1-1 0-1 0-1 0-1 0-1 1-2 1 0 0-1 0-1 0-1 0-1 0-1 1-1 0-2 0-2 1-5 2-10 5-16 9l-30-20c-2-2-4-1-6 0l-22 22c-2 1-2 4 0 6l19 30c-3 6-6 11-8 16-1 0-1 1-1 2 0 0 0 0-1 1 0 0 0 1 0 1 0 1-1 1-1 2 0 0 0 0 0 1-1 0-1 1-1 2-2 6-4 11-5 17l-36 7c-2 1-4 3-4 5l0 30c0 3 2 5 4 6l36 7c1 5 3 11 5 17 0 0 0 1 1 2 0 0 0 0 0 1 0 0 1 1 1 1 0 1 0 1 0 2 0 0 0 0 1 1 0 0 0 1 1 2 2 5 5 10 8 15l-20 31c-2 2-1 4 1 7l21 21c2 2 5 2 7 1l30-20c5 3 10 6 15 8 1 1 2 1 2 1 1 0 1 0 1 1 1 0 1 0 2 0 0 0 1 1 1 1 1 0 1 0 1 0 1 1 2 1 2 1 6 2 12 4 17 5l8 36c0 2 2 4 5 4l30 0c3 0 5-2 5-4l8-36c5-1 11-3 17-5 0 0 1 0 2-1 0 0 0 0 1 0 0 0 1-1 1-1 1 0 1 0 2 0 0 0 0 0 1-1 0 0 1 0 2-1 5-2 10-5 15-8l30 20c2 1 5 1 7-1l21-21c2-2 3-5 1-7l-20-30c4-5 7-11 9-16z m-52-54c0 35-29 65-64 65-36 0-65-29-65-65 0-36 29-64 65-64 35 0 64 29 64 64z"/>
    </symbol>
  
    <symbol id="pixel-core-share" viewBox="0 0 512 512">
      <path d="m359 300c-16 0-31 6-42 16l-113-56c0-1 0-3 0-5 0-2 0-5-1-7l114-58c11 11 26 17 42 17 32 0 59-26 59-59 0-32-26-58-59-58-32 0-59 26-59 58 0 2 0 4 0 6l-116 57c-10-9-24-15-39-15-32 0-59 26-59 59 0 33 27 59 59 59 16 0 31-7 41-17l114 56c0 2 0 3 0 5 0 33 26 59 59 59 32 0 59-26 59-59 0-32-27-58-59-58z"/>
    </symbol>
  
    <symbol id="pixel-core-shopping" viewBox="0 0 512 512">
      <path d="m387 145l-33 0c-1 12-10 22-23 22-13 0-23-10-23-22l-107 0c0 12-10 22-23 22-12 0-22-10-23-22l-33 0c-13 0-23 10-23 23l0 242c0 12 10 23 23 23l264 0c13 0 23-11 23-23l0-243c1-12-10-22-22-22z m-158 215c-4 0-9-2-12-5l-48-49c-7-7-6-18 0-24 4-3 8-5 12-5 5 0 9 2 13 5l35 37 86-87c3-3 8-5 13-5 4 0 8 2 12 5 3 4 5 8 5 13 0 4-1 8-5 12l-98 98c-3 3-8 5-13 5z m102-204c-6 0-11-5-11-12 0-35-29-65-65-65-36 0-65 30-65 65 0 7-5 12-11 12-6 0-12-5-12-12 0-48 40-87 88-87 48 0 88 39 88 87 0 7-6 12-12 12z"/>
    </symbol>
  
    <symbol id="pixel-core-star" viewBox="0 0 512 512">
      <path d="m264 120l41 83 92 14c7 1 10 9 5 14l-67 65 16 91c1 7-6 13-13 9l-82-43-82 43c-7 4-14-2-13-9l16-91-66-65c-5-5-2-13 5-14l92-14 41-83c2-6 12-6 15 0z"/>
    </symbol>
  
    <symbol id="pixel-core-structured-data" viewBox="0 0 512 512">
      <path d="m327 132c0 6-5 11-11 11-6 0-10-5-10-11 0-6 4-11 10-11 6 0 11 5 11 11z m12 134c8 0 15 1 21 2l0-151c0-14-10-24-24-24l-158 0c-14 0-24 10-24 24l0 279c0 14 10 24 24 24l82 0c-12-16-18-35-18-56-1-54 43-98 97-98z m-164-146c0-4 3-7 7-7l149 0c4 0 7 3 7 7l0 25c0 4-3 7-7 7l-149 0c-4 0-7-3-7-7z m0 83l0-24c0-4 3-7 7-7l149 0c4 0 7 3 7 7l0 24c0 4-3 7-7 7l-149 0c-4 0-7-3-7-7z m152-13c0 6-5 11-11 11-6 0-10-5-10-11 0-6 4-11 10-11 6 0 11 5 11 11z m12 93c-45 0-81 36-81 81 0 45 36 81 81 81 46 0 82-36 82-81 0-45-36-81-82-81z m44 80c0 4-3 7-7 7l-29 0 0 29c0 4-3 8-8 8-4 0-7-4-7-8l0-29-29 0c-4 0-7-3-7-7 0-4 3-7 7-7l29 0 0-29c0-4 3-8 7-8 5 0 8 4 8 8l0 29 29 0c4 0 7 3 7 7z"/>
    </symbol>
  
    <symbol id="pixel-core-suv" viewBox="0 0 512 512">
      <path d="m144 292c-21 0-38 17-38 38 0 21 17 39 38 39 21 0 38-17 38-38 0-21-17-39-38-39z m0 54c-8 0-15-7-15-15 0-8 7-15 15-15 8 0 15 7 15 15 0 8-7 15-15 15z m301-54l0-64-10-24c-6-15-20-24-37-24l-141 0c-11 0-21 3-30 9l-44 39-67 0c-19 0-35 15-35 35l0 29-2 0c-8 0-15 7-15 15l0 14c0 8 7 15 15 15l15 0c0-2-1-4-1-6 0-27 23-50 51-50 28 0 51 22 51 50 0 2 0 4-1 6l138 0c0-2 0-4 0-6 0-27 22-50 50-50 28 0 51 22 51 50 0 2 0 4 0 6l2 0c8 0 15-7 15-15l0-24c0-2-3-5-5-5z m-127-64l-107 0 27-25c5-4 12-6 19-6l61 0 0 31z m15 0l0-31 65 0c10 0 18 5 21 13l7 18z m49 64c-21 0-37 17-37 38 0 21 16 38 37 38 21 0 38-17 38-38 0-21-17-38-38-38z m0 54c-8 0-14-7-14-15 0-8 6-15 14-15 9 0 15 7 15 15 1 8-6 15-15 15z"/>
    </symbol>
  
    <symbol id="pixel-core-symbol-dollar" viewBox="0 0 512 512">
      <path d="m297 246l-1 0-19-6 0-103c10 3 18 7 26 13 11 9 18 20 18 33 0 12 9 21 21 21 11 0 20-9 20-21 0-13-3-25-9-37-5-11-13-21-23-29-15-12-33-20-52-23l0-11c0-12-10-21-21-21-12 0-21 9-21 21l0 11c-20 3-38 11-53 23-10 8-18 18-23 29-6 12-9 24-9 37 0 37 25 69 65 83l0 0 20 6 0 103c-10-2-19-7-27-13-11-9-17-20-17-32 0-12-9-21-21-21-12 0-21 9-21 21 0 13 3 25 9 37 6 10 14 20 24 28 15 12 33 20 52 24l0 11c0 11 9 21 21 21 12 0 21-10 21-21l0-11c19-4 38-11 52-24 10-8 18-18 24-28 6-12 9-24 9-37 0-37-26-70-65-84z m-69-19c-22-8-36-25-36-44 0-12 6-24 17-32 8-7 17-11 27-13l0 91z m75 135c-7 7-16 11-26 13l0-91 7 2c22 8 36 25 36 44 0 12-6 23-17 32z"/>
    </symbol>
  
    <symbol id="pixel-core-telephone" viewBox="0 0 512 512">
      <path d="m422 362l-13-13-9-7-50-36c-5-6-14-6-19 0l-29 28c-4 4-5 11-2 16-32-6-61-22-85-46-25-24-40-54-47-85 6 3 12 2 16-2l29-29c6-6 6-14 0-20l-36-50-7-8-13-13c-6-6-15-6-20 0l-36 36c-1 1-1 1-2 2 0 1-1 2-1 3-23 44 11 129 83 200 71 72 156 106 200 83 1 0 2-1 4-1 0-1 1-1 1-2l36-36c6-6 6-14 0-20z"/>
    </symbol>
  
    <symbol id="pixel-core-toolkit" viewBox="0 0 512 512">
      <path d="m420 190l0-22c0-13-10-25-24-25l-65 0 0-17c0-20-17-36-37-36l-76 0c-20 0-37 16-37 36l0 17-66 0c-13 0-24 11-24 25l0 22z m-215-64c0-6 5-12 12-12l77 0c7 0 12 6 12 12l0 18-101 0z m-114 81l0 189c0 13 10 24 24 24l281 0c13 0 24-10 24-24l0-189z m225 105c-10 11-25 15-39 11l-52 53c-8 8-22 8-29 0-9-8-9-22 0-29l52-53c-4-13 0-28 11-39 12-12 30-15 45-8l-28 27c-2 2-2 6 0 8l14 13c2 2 5 2 7 0l28-27c7 14 4 32-9 44z"/>
    </symbol>
  
    <symbol id="pixel-core-towtruck" viewBox="0 0 512 512">
      <path d="m136 294c-20 0-37 17-37 37 0 21 17 38 37 38 21 0 38-17 38-38 0-20-17-37-38-37z m0 52c-8 0-15-7-15-15 0-8 7-15 15-15 8 0 15 7 15 15 0 8-7 15-15 15z m215-91l64-100 0 43c-3 2-6 5-6 9 0 3 2 7 6 9l0 8c0 2 1 4 3 4 0 0 1 1 1 1 2 1 4 3 4 5 0 3-1 4-2 6-1 1-3 2-4 2-2 0-4 0-5-1-2-1-3-3-3-5 0-3-2-4-5-4-3 0-4 2-4 5 0 4 2 8 6 11 3 2 6 3 10 3 0 0 1 0 1 0 4 0 8-2 11-5 3-4 4-8 4-12-1-5-4-10-9-12l0-6c3-1 6-5 6-9 0-3-2-7-6-8l0-58 3-4c2-2 3-5 3-7 0-7-6-12-12-12-4 0-7 1-9 4l-134 113 0-68c0-3-2-5-4-5l-16 0c-2 0-4 2-4 5l0 88-8 0 0-54c0-5-4-10-9-10l-9 0 0-9c0-3-2-5-5-5l-16 0c-2 0-4 2-4 5l0 9-33 0c-3 0-6 2-8 5l-19 28c-1 1-2 2-3 2l-33 0c-12 0-22 7-22 20l0 44-10 0c-5 0-10 4-10 9l0 22c0 5 5 9 10 9l11 0c1 0 3 0 5 0 0-26 22-48 49-48 27 0 49 22 50 48 42 0 92 0 135 0 1-26 23-48 50-48 26 0 48 22 49 48 4 0 6 0 9 0l6 0c7 0 13-6 13-13l0-62z m-125-25l-72 0 14-21c1-2 3-3 5-3l47 0c3 0 6 3 6 6z m144 64c-20 0-37 17-37 37 0 21 17 38 37 38 21 0 38-17 38-38 0-20-17-37-38-37z m0 52c-8 0-15-7-15-15 0-8 7-15 15-15 8 0 15 7 15 15 0 8-7 15-15 15z"/>
    </symbol>
  
    <symbol id="pixel-core-truck" viewBox="0 0 512 512">
      <path d="m144 294c-21 0-38 17-38 37 0 21 17 38 38 38 20 0 37-17 37-38 0-20-17-37-37-37z m0 52c-8 0-15-7-15-15 0-8 7-15 15-15 8 0 15 7 15 15 0 8-7 15-15 15z m296-56l0-46c0-8-7-15-15-15l-132 0 0-40c0-5-4-8-9-8l-50 0c-12 0-24 4-33 13l-40 36-50 0c-19 0-34 15-34 34l0 27c-7 0-12 5-12 12l0 16c0 7 5 12 12 12l17 0c1-27 23-48 50-48 27 0 49 22 50 48l124 0c0-27 22-48 50-48 27 0 49 22 49 48l15 0c8 0 15-6 15-15l0-19c-1-4-4-7-7-7z m-253-61l26-23c6-5 13-8 21-8l44 0 1 31z m180 65c-20 0-37 17-37 37 0 21 17 38 37 38 21 0 37-17 37-38 0-20-16-37-37-37z m0 52c-8 0-15-7-15-15 0-8 7-15 15-15 8 0 15 7 15 15 0 8-7 15-15 15z"/>
    </symbol>
  
    <symbol id="pixel-core-ubi" viewBox="0 0 512 512">
      <path d="m302 326c0 6-5 11-12 11-6 0-11-5-11-11 0-6 5-11 11-11 7 0 12 5 12 11z m-69-78c0 7-5 12-11 12-7 0-12-5-12-12 0-6 5-11 12-11 6 0 11 5 11 11z m132-73l-14 0 0-65c0-10-7-18-17-18l-156 0c-10 0-18 8-18 18l0 65-14 0c-13 0-24 11-24 24l0 197c0 13 11 24 24 24l219 0c13 0 24-11 24-24l0-197c1-13-11-24-24-24z m-167 59c7-13 24-17 37-10 13 8 18 25 10 38-7 13-24 18-37 10-13-7-18-24-10-38z m14 121c-5-3-6-10-3-15l75-118c3-5 10-7 15-4 5 3 7 10 4 15l-75 119c-3 5-10 7-16 3z m102-15c-7 13-24 18-37 10-13-7-18-24-10-37 7-13 24-18 37-10 13 7 18 24 10 37z"/>
    </symbol>
  
    <symbol id="pixel-core-unstructured-data" viewBox="0 0 512 512">
      <path d="m339 283c-45 0-81 36-81 81 0 45 37 81 81 81 45 0 82-36 82-81 0-45-36-81-82-81z m44 81c0 4-3 7-7 7l-73 0c-4 0-7-3-7-7 0-4 3-7 7-7l73 0c4 0 7 3 7 7z m-56-232c0 6-5 11-11 11-6 0-10-5-10-11 0-6 4-11 10-11 6 0 11 5 11 11z m12 134c8 0 15 1 21 2l0-151c0-14-10-24-24-24l-158 0c-14 0-24 10-24 24l0 279c0 14 10 24 24 24l82 0c-12-16-18-35-18-56 0-54 44-98 97-98z m-164-146c0-4 3-7 7-7l149 0c4 0 7 3 7 7l0 25c0 4-3 7-7 7l-149 0c-4 0-7-3-7-7z m0 83l0-24c0-4 3-7 7-7l149 0c4 0 7 3 7 7l0 24c0 4-3 7-7 7l-149 0c-4 0-7-3-7-7z m152-13c0 6-5 11-11 11-6 0-10-5-10-11 0-6 4-11 10-11 6 0 11 5 11 11z"/>
    </symbol>
  
    <symbol id="pixel-core-up" viewBox="0 0 512 512">
      <path d="m234 400l0-241-52 52c-7 8-20 8-27 0-8-7-8-20 0-27l90-90c4-5 12-5 17 0l90 90c8 7 8 20 0 27-7 8-20 8-27 0l-52-52 0 241c0 11-8 19-19 19-11 0-20-8-20-19z"/>
    </symbol>
  
    <symbol id="pixel-core-view-grid" viewBox="0 0 512 512">
      <path d="m215 90l-104 0c-12 0-22 10-22 22l0 104c0 12 10 22 22 22l104 0c12 0 22-10 22-22l0-104c0-12-10-22-22-22z m183 0l-104 0c-12 0-22 10-22 22l0 104c0 12 10 22 22 22l104 0c13 0 22-10 22-22l0-104c0-12-9-22-22-22z m-183 183l-104 0c-12 0-22 10-22 22l0 104c0 13 10 22 22 22l104 0c12 0 22-9 22-22l0-104c0-12-10-22-22-22z m183 0l-104 0c-12 0-22 10-22 22l0 104c0 13 10 22 22 22l104 0c13 0 22-9 22-22l0-104c0-12-9-22-22-22z"/>
    </symbol>
  
    <symbol id="pixel-core-view-list" viewBox="0 0 512 512">
      <path d="m134 360c0 13-10 22-22 22-13 0-22-9-22-22 0-12 9-22 22-22 12 0 22 10 22 22z m266-22l-215 0c-12 0-22 10-22 22 0 13 10 22 22 22l216 0c12 0 22-9 22-22-1-12-10-22-23-22z m-266-76c0 12-10 22-22 22-13 0-22-10-22-22 0-13 9-22 22-22 12 0 22 9 22 22z m266-22l-215 0c-12 0-22 9-22 22 0 12 10 22 22 22l216 0c12 0 22-10 22-22-1-13-10-22-23-22z m-288-104c-13 0-22 10-22 22 0 12 9 22 22 22 12 0 22-10 22-22 0-12-10-22-22-22z m288 0l-215 0c-12 0-22 10-22 22 0 12 10 22 22 22l216 0c12 0 22-10 22-22-1-12-10-22-23-22z"/>
    </symbol>
  
    <symbol id="pixel-core-visa" viewBox="0 0 512 512">
      <path d="m401 126l-290 0c-12 0-21 10-21 22l0 217c0 11 9 21 21 21l290 0c12 0 22-10 22-21l0-217c-1-12-10-22-22-22z m0 10c7 0 12 5 12 12l0 217c0 6-5 12-12 12l-290 0c-7 0-12-6-12-12l0-217c0-7 5-12 12-12l290 0m0-10l-290 0c-12 0-21 10-21 22l0 217c0 11 9 21 21 21l290 0c12 0 22-10 22-21l0-217c-1-12-10-22-22-22z m-168 175l-23 0 14-89 23 0z m138 0l21 0-18-89-19 0c-8 0-10 7-10 7l-35 82 24 0 5-14 30 0z m-25-32l12-32 7 32z m-34-36l3-18c0 0-10-5-20-5-11 0-38 6-38 30 0 22 31 23 31 34 0 12-28 10-38 2l-3 21c0 0 11 5 26 5 16 0 40-8 40-30 0-23-32-25-32-35 0-10 22-9 31-4z m-121-21l-22 61-3-13c0 0-5-16-21-30-3-2-6-5-10-7l20 77 24 0 37-89-25 0z m-25 48l-7-40c0 0-1-8-11-8l-36 0-1 2c0 0 18 3 34 16 16 14 21 30 21 30z"/>
    </symbol>
  
    <symbol id="pixel-core-visa-logo" viewBox="0 0 512 512">
      <path d="m233 303l-27 0 17-104 28 0z m164 0l25 0-22-104-21 0c-10 0-13 7-13 7l-40 97 28 0 5-15 35 0z m-29-37l14-39 8 39z m-40-42l4-23c0 0-12-4-25-4-13 0-45 6-45 34 0 28 37 28 37 42 0 14-34 12-45 2l-4 24c0 0 12 6 31 6 18 0 46-10 46-36 0-27-38-29-38-41 1-12 27-11 39-4z m-144-25l-26 71-3-15c0 0-7-19-25-34-5-3-9-6-12-9l23 91 28 0 44-104z m-29 56l-9-47c0 0-1-9-13-9l-43 0 0 1c0 0 20 4 40 21 18 15 25 34 25 34z"/>
    </symbol>
  
    <symbol id="pixel-core-warning" viewBox="0 0 512 512">
      <path d="m414 368l-146-242c-6-9-19-9-24 0l-146 242c-5 9 1 21 12 21l291 0c12 0 18-12 13-21z m-144-29c0 8-6 14-14 14-8 0-14-6-14-14l0-1c0-7 6-14 14-14 8 1 14 7 14 15z m-14-32c-6 0-12-5-12-12l-5-82c0-7 5-13 12-13l10 0c6 0 12 6 11 13l-5 82c0 7-5 12-11 12z"/>
    </symbol>
  
    <symbol id="pixel-core-watercraft" viewBox="0 0 512 512">
      <path d="m257 401c-3 0-6-1-8-1-8-2-16-6-25-12-14-11-26-11-40 0-23 16-41 16-63 0-4-3-8-5-12-7-5-1-8-6-8-11 0-8 9-14 16-11 6 2 12 5 17 9 14 10 22 12 37 0 4-3 8-6 12-7 4-2 8-3 13-4 2-1 4-1 7-1 3 0 6 0 9 1 2 0 4 1 6 1 4 1 8 3 12 6 3 1 6 3 8 5 4 2 7 5 11 6 2 1 5 2 7 2l1 0c2 0 4-1 6-2 4-1 8-4 11-6 3-2 6-4 8-5 4-3 8-5 12-6 2 0 4-1 7-1 3-1 6-1 9-1 2 0 4 1 7 1 4 1 9 2 12 4 5 2 9 5 13 7 15 12 23 10 36 0 5-4 11-7 15-9 8-3 17 3 17 11 0 5-3 9-8 11-3 1-6 4-10 7-23 16-41 16-63 0-15-11-27-11-41 0-8 6-16 10-24 11-2 2-5 2-7 2m-8-279l-93 19c-9 1-16 8-18 17l-12 46 123-44z m111 19l-97-19 0 38 127 44-12-46c-3-8-9-15-18-17z m63 99l-146-53c-22-10-41 0-41 0l-146 53c0 0-24 7-8 26 12 14 58 61 81 84 2-1 5-3 7-4 5-3 9-6 13-8 4-2 8-3 12-4 3 0 5 0 7 0 3 0 6 0 9 0 3 1 5 1 7 2 4 1 8 3 12 5 2 2 5 3 8 5 3 3 7 5 11 7 2 1 4 1 6 1l1 0c3 0 5 0 7-1 4-2 7-4 11-7 2-2 5-3 8-5 4-2 7-4 12-5 2-1 4-1 6-2 3 0 6 0 9 0 3 0 5 0 7 0 5 1 9 2 13 4 4 2 8 5 12 8 3 2 5 3 8 5 23-24 68-71 81-85 17-19-7-26-7-26z"/>
    </symbol>
  
    <symbol id="pixel-smarttrek" viewBox="0 0 512 512">
      <path d="m495 76c9 0 17 7 17 16l0 135c0 9-8 16-17 16l-154 0c-9 0-16-7-16-16l0-135c0-9 7-16 16-16l10 0 0-45c0-7 6-12 12-12l110 0c7 0 12 5 12 12l0 45z m-101 58c-4 0-8-4-8-8 0-4 4-8 8-8 5 0 8 4 8 8 0 4-3 8-8 8z m-17-18c-5 9-1 21 8 26 9 5 20 2 26-7 5-9 2-20-7-26-9-5-21-2-27 7z m11 83c4 3 9 1 11-2l52-81c2-4 1-9-2-11-4-2-9-1-11 3l-53 81c-2 3-1 8 3 10z m55-12c-5 0-8-4-8-8 0-4 3-8 8-8 4 0 7 4 7 8 0 4-3 8-7 8z m16 2c6-10 2-21-7-26-9-5-21-2-26 7-5 9-2 20 7 26 9 5 21 2 26-7z m17 80c4 5 4 11 4 15l0 174c0 19-16 35-35 35l-11 0c-19 0-35-16-35-35l0-24-318 0 0 24c0 19-16 35-35 35l-11 0c-19 0-35-16-35-35l0-174c1-13 15-31 28-45l45-122c10-26 35-44 63-44l158 0 0 33-158 0c-14 0-27 9-31 22l-27 72c-2 6 3 12 9 12l207 0 0 18c0 22 18 39 40 39l37 0c-13 6-22 18-22 32 0 18 16 34 34 34 18 0 33-16 33-34 0-14-9-26-21-32z m-380 66c18 0 33-15 33-34 0-18-15-34-33-34-18 0-34 16-34 34 0 18 16 34 34 34z"/>
    </symbol>
  
    <symbol id="pixel-standard-comment" viewBox="0 0 512 512">
      <path d="m387 92l-262 0c-19 0-34 15-34 34l0 188c0 19 15 34 34 34l122 0 112 98 0-98 28 0c19 0 34-15 34-34l0-188c0-19-15-34-34-34z"/>
    </symbol>
  
    <symbol id="pixel-standard-pin" viewBox="0 0 512 512">
      <path d="m305 316l88-88 54-6-156-155-6 54-87 87-54 6 64 65-106 107-9 34 35-9 106-106 65 65z"/>
    </symbol>
  
    <symbol id="pixel-outline-unchecked" viewBox="0 0 512 512">
      <path d="m451 508l-394 0c-31 0-57-25-57-57l0-394c0-31 26-57 57-57l394 0c32 0 57 26 57 57l0 394c0 32-25 57-57 57z m-394-493c-23 0-42 19-42 42l0 394c0 23 19 42 42 42l394 0c23 0 42-19 42-42l0-394c0-23-19-42-42-42l-394 0z"/>
    </symbol>
  
    <symbol id="pixel-circle-full" viewBox="0 0 512 512">
      <path d="m256 512c-141 0-256-115-256-256 0-141 115-256 256-256 141 0 256 115 256 256 0 141-115 256-256 256z"/>
    </symbol>
  
    <symbol id="pixel-circle-empty" viewBox="0 0 512 512">
      <path d="m256 0c-141 0-256 115-256 256 0 141 115 256 256 256 141 0 256-115 256-256 0-141-115-256-256-256z m0 448c-106 0-192-86-192-192 0-106 86-192 192-192 106 0 192 86 192 192 0 106-86 192-192 192z"/>
    </symbol>
  
    <symbol id="pixel-minus" viewBox="0 0 512 512">
      <path d="m448 256c0 18-14 32-32 32l-320 0c-18 0-32-14-32-32 0-18 14-32 32-32l320 0c18 0 32 14 32 32z"/>
    </symbol>
  
    <symbol id="pixel-square-stop" viewBox="0 0 512 512">
      <path d="m480 0l-448 0c-18 0-32 14-32 32l0 448c0 18 14 32 32 32l448 0c18 0 32-14 32-32l0-448c0-18-14-32-32-32z m-128 352l-192 0 0-192 192 0z"/>
    </symbol>
  
    <symbol id="pixel-square-record" viewBox="0 0 512 512">
      <path d="m480 0l-448 0c-18 0-32 14-32 32l0 448c0 18 14 32 32 32l448 0c18 0 32-14 32-32l0-448c0-18-14-32-32-32z m-224 352c-53 0-96-43-96-96 0-53 43-96 96-96 53 0 96 43 96 96 0 53-43 96-96 96z"/>
    </symbol>
  
</svg>
