<svg height="64.299" viewBox="0 0 64.299 64.299" width="64.299" xmlns="http://www.w3.org/2000/svg"><path d="m32.149 0c-17.755 0-32.149 14.394-32.149 32.149s14.394 32.149 32.149 32.149 32.149-14.394 32.149-32.149-14.393-32.149-32.149-32.149zm-.346 41.234-2.759 2.743c-1.47 1.454-3.403 2.18-5.335 2.18-1.933 0-3.849-.727-5.319-2.18-1.421-1.421-2.213-3.304-2.213-5.302 0-1.999.793-3.882 2.213-5.302l5.947-5.897c3.7-3.667 7.945-4.196 10.819-1.338.776.776.776 2.015.017 2.792-.776.776-2.015.776-2.792.017-1.685-1.668-4.014.116-5.236 1.354l-5.947 5.897c-.677.661-1.041 1.553-1.041 2.494s.363 1.833 1.041 2.494c1.404 1.388 3.684 1.388 5.071 0l2.76-2.743c.776-.776 2.032-.76 2.792.017.759.759.759 1.998-.018 2.774zm14.09-13.973-6.343 6.293c-1.966 1.949-4.014 2.924-5.98 2.924-1.586 0-3.105-.661-4.443-1.982-.776-.777-.776-2.015-.017-2.792.776-.776 2.015-.776 2.792-.017.578.578 1.933 1.933 4.84-.958l6.343-6.293c.677-.661 1.041-1.553 1.041-2.494 0-.942-.363-1.833-1.041-2.494-1.255-1.255-3.204-1.866-4.675-.396l-3.341 3.357c-.776.776-2.032.76-2.792-.016-.776-.776-.76-2.032.016-2.792l3.357-3.341c2.858-2.841 7.169-2.676 10.258.397 1.421 1.42 2.213 3.304 2.213 5.302-.015 1.998-.808 3.881-2.228 5.302z" fill="#5f6062"/></svg>