<svg height="64.299" viewBox="0 0 64.299 64.299" width="64.299" xmlns="http://www.w3.org/2000/svg"><g fill="#5f6062"><path d="m32.823 36.306c-.19.19-.19.498 0 .688l3.483 3.483c.19.19.498.19.688 0l3.483-3.483c.19-.19.19-.498 0-.688l-3.483-3.483c-.19-.19-.498-.19-.688 0zm1.83-.111 1.542-1.542c.251-.251.658-.251.909 0l1.542 1.542c.251.251.251.658 0 .909l-1.542 1.542c-.251.251-.658.251-.909 0l-1.542-1.542c-.251-.251-.251-.658 0-.909z"/><path d="m29.109 27.069c.139-.139.365-.139.504 0l1.217 1.217c.139.139.139.365 0 .504l-2.04 2.04c-.139.139-.365.139-.504 0l-1.217-1.217c-.139-.139-.139-.365 0-.504z"/><path d="m0 32.149c0 17.756 14.394 32.149 32.149 32.149s32.149-14.394 32.149-32.149-14.393-32.149-32.149-32.149-32.149 14.394-32.149 32.149zm38.496 12.223 5.876-5.876 3.739 3.739-5.876 5.876zm-9.074-8.352 6.598-6.598c.348-.348.911-.348 1.259 0l6.598 6.598c.348.348.348.911 0 1.259l-6.598 6.598c-.348.348-.911.348-1.259 0l-6.598-6.598c-.347-.347-.347-.911 0-1.259zm-9.381-10.136-3.853-3.853 5.842-5.842 3.853 3.853 1.15-1.15c.348-.348.911-.348 1.259 0l1.807 1.807c.133.133.208.314.209.503l.005 3.271 3.165 3.165c.348.348.348.912 0 1.259l-4.583 4.583c-.348.348-.912.348-1.259 0l-3.165-3.165-3.271-.005c-.189 0-.369-.075-.502-.209l-1.807-1.807c-.348-.348-.348-.911 0-1.259z"/><path d="m26.533 21.005c.139-.139.365-.139.504 0l.4.4c.139.139.139.365 0 .504l-5.528 5.528c-.139.139-.365.139-.504 0l-.4-.4c-.139-.139-.139-.365 0-.504z"/></g></svg>