<svg height="64.299" viewBox="0 0 64.299 64.299" width="64.299" xmlns="http://www.w3.org/2000/svg"><g fill="#5f6062"><path d="m20.048 31.516c-1.13 0-2.098.968-2.098 2.099 0 1.13.968 2.098 2.098 2.098 1.132 0 2.098-.969 2.098-2.098 0-1.131-.966-2.099-2.098-2.099z"/><path d="m19.471 28.071h19.242c.387 0 .655-.385.522-.748l-1.65-4.485c-.302-.82-1.083-1.365-1.956-1.365h-13.074c-.874 0-1.655.545-1.956 1.365l-1.65 4.484c-.134.364.135.749.522.749z"/><path d="m37.976 31.516c-1.132 0-2.1.968-2.1 2.099 0 1.13.969 2.098 2.1 2.098 1.13 0 2.098-.969 2.098-2.098 0-1.131-.969-2.099-2.098-2.099z"/><path d="m32.149 0c-17.755 0-32.149 14.394-32.149 32.149 0 17.756 14.394 32.149 32.149 32.149s32.149-14.394 32.149-32.149c.001-17.755-14.393-32.149-32.149-32.149zm11.961 40.897v2.476c0 1.22-.989 2.21-2.21 2.21h-.648c-1.22 0-2.21-.989-2.21-2.21v-1.503h-19.893v1.503c0 1.22-.989 2.21-2.21 2.21h-.648c-1.22 0-2.21-.989-2.21-2.21v-2.353c-.005-.04-.008-.081-.008-.123v-8.378h.003c.033-.783.905-1.886 1.767-2.791l2.8-7.609c.603-1.64 2.165-2.729 3.913-2.729h13.073c1.747 0 3.309 1.09 3.913 2.729l2.852 7.752c.842.919 1.677 1.988 1.714 2.648h.004v8.378zm6.116-5.229v2.476c0 1.22-.989 2.21-2.21 2.21h-.648c-.649 0-1.232-.28-1.636-.725 0-2.956 0-6.656 0-7.11 0-.769-.517-1.621-.517-1.621-.103-.182-.222-.37-.358-.566.769-.316 1.333-1.084 1.333-1.945 0-1.132-.969-2.099-2.098-2.099-.422 0-.821.135-1.156.362l-1.401-3.807h3.294c.387 0 .655-.385.522-.748l-1.651-4.485c-.302-.82-1.083-1.365-1.956-1.365h-13.073c-.874 0-1.655.545-1.956 1.365l-.058.159h-2.221l.323-.879c.603-1.64 2.165-2.729 3.913-2.729h13.073c1.747 0 3.309 1.09 3.913 2.729l2.852 7.752c.842.919 1.677 1.988 1.714 2.648h.004v8.378z"/></g></svg>