<svg height="64.299" viewBox="0 0 64.299 64.299" width="64.299" xmlns="http://www.w3.org/2000/svg"><g fill="#5f6062"><path d="m26.718 24.578c0 1.75 1.355 3.37 3.459 4.141l.626.177v-8.657c-.922.244-1.76.66-2.455 1.226-1.051.857-1.63 1.963-1.63 3.113z"/><path d="m34.781 42.809c.922-.244 1.761-.66 2.455-1.226 1.051-.858 1.631-1.964 1.631-3.114 0-1.75-1.356-3.37-3.459-4.141l-.626-.177v8.658z"/><path d="m32.149 0c-17.755 0-32.149 14.394-32.149 32.149s14.394 32.149 32.149 32.149 32.149-14.394 32.149-32.149-14.393-32.149-32.149-32.149zm4.472 30.536.063.022c3.743 1.334 6.161 4.439 6.161 7.909 0 1.21-.288 2.38-.857 3.477-.532 1.026-1.284 1.941-2.236 2.718-1.392 1.136-3.111 1.893-4.971 2.209v1.007c0 1.099-.891 1.989-1.989 1.989-1.099 0-1.989-.891-1.989-1.989v-1.007c-1.86-.316-3.579-1.073-4.971-2.209-.952-.777-1.704-1.692-2.236-2.718-.568-1.097-.857-2.267-.857-3.477 0-1.099.891-1.989 1.989-1.989 1.099 0 1.989.891 1.989 1.989 0 1.15.579 2.256 1.63 3.114.694.567 1.533.982 2.455 1.226v-9.78l-1.839-.519-.063-.023c-3.743-1.334-6.161-4.439-6.161-7.909 0-1.21.288-2.38.857-3.477.532-1.026 1.284-1.941 2.236-2.718 1.392-1.136 3.111-1.893 4.971-2.209v-1.041c0-1.099.891-1.989 1.989-1.989 1.099 0 1.989.891 1.989 1.989v1.041c1.86.316 3.579 1.073 4.971 2.209.952.777 1.705 1.692 2.236 2.718.568 1.097.857 2.267.857 3.477 0 1.099-.891 1.989-1.989 1.989-1.099 0-1.989-.891-1.989-1.989 0-1.15-.579-2.256-1.631-3.114-.694-.567-1.533-.982-2.455-1.226v9.78z"/></g></svg>