<svg enable-background="new 0 0 64.3 64.3" viewBox="0 0 64.3 64.3" xmlns="http://www.w3.org/2000/svg"><path d="m32.1 0c-17.7 0-32.1 14.4-32.1 32.1 0 17.8 14.4 32.1 32.1 32.1s32.1-14.4 32.1-32.1c.1-17.7-14.3-32.1-32.1-32.1zm-7.2 20.9c.3-2.8 3-5.7 7.2-5.7s7 2.9 7.2 5.7c.1.8-.1 2.2-.3 3.8l-.6 4.7c-.4 3.3-4.8 5.9-6.5 5.9s-5.7-2.6-6.1-5.9l-.6-4.7c-.2-1.6-.4-3-.3-3.8zm24.1 27.9h-34s-.3-5.4.7-6.9c1.1-1.7 3.7-2.8 7.4-4.3 3.6-1.5 5.5-2 5.5-2s1.2 1.2 3.4 1.2 3.7-1.2 3.7-1.2 1.9.5 5.5 2 6 2.6 7.1 4.3c.9 1.6.7 6.9.7 6.9z" fill="#5f6062"/></svg>