<svg height="64.299" viewBox="0 0 64.299 64.299" width="64.299" xmlns="http://www.w3.org/2000/svg"><path d="m0 32.149c0 17.756 14.394 32.149 32.149 32.149s32.149-14.394 32.149-32.149c.001-17.755-14.393-32.149-32.149-32.149-17.755 0-32.149 14.394-32.149 32.149zm16.783-12.831c.041-.104.095-.203.163-.296.039-.054.083-.105.132-.153l1.469-1.469 1.977-1.977c.516-.516 1.352-.516 1.867 0l1.256 1.256.704.776 3.404 4.769c.516.516.516 1.352 0 1.867l-2.729 2.728c-.407.407-1.014.492-1.505.257.624 2.98 2.083 5.804 4.381 8.102s5.122 3.757 8.102 4.381c-.236-.491-.151-1.098.256-1.506l2.728-2.728c.516-.516 1.352-.516 1.867 0l4.77 3.405.776.704 1.255 1.255c.516.516.516 1.352 0 1.867l-1.975 1.975-1.472 1.472c-.051.051-.106.097-.163.138-.088.064-.182.115-.28.154-4.219 2.153-12.302-1.057-19.114-7.869-6.806-6.808-10.017-14.887-7.869-19.108z" fill="#5f6062"/></svg>