<svg height="64.299" viewBox="0 0 64.299 64.299" width="64.299" xmlns="http://www.w3.org/2000/svg"><g fill="#5f6062"><path d="m32.149 0c-17.755 0-32.149 14.394-32.149 32.149s14.394 32.149 32.149 32.149 32.149-14.394 32.149-32.149-14.393-32.149-32.149-32.149zm5.805 36.502c-1.684 0-3.266-.416-4.664-1.141l-5.286 5.285c-.132.132-.312.206-.498.206h-1.908c-.389 0-.705.316-.705.705v1.495c0 .389-.316.705-.705.705h-1.49c-.389 0-.705.316-.705.705v1.904c0 .187-.074.366-.207.498l-1.039 1.039c-.132.132-.312.207-.498.207h-3.122c-.519 0-.94-.421-.94-.94v-3.12c0-.187.074-.366.207-.498l12.542-12.542c-.722-1.399-1.139-2.982-1.139-4.665 0-5.607 4.547-10.156 10.156-10.156 5.606-.001 10.156 4.548 10.156 10.156.002 5.608-4.548 10.157-10.155 10.157z"/><path d="m40.796 20.178c-1.837 0-3.326 1.488-3.326 3.325 0 1.836 1.489 3.325 3.326 3.325 1.834 0 3.324-1.489 3.324-3.326 0-1.835-1.49-3.324-3.324-3.324z"/></g></svg>