<svg height="64.299" viewBox="0 0 64.299 64.299" width="64.299" xmlns="http://www.w3.org/2000/svg"><g fill="#5f6062"><path d="m48.304 21.436h-32.384c-.175 0-.318.143-.318.318v5.402c0 .175.143.318.318.318h32.384c.175 0 .318-.143.318-.318v-5.402c-.001-.175-.144-.318-.318-.318z"/><path d="m42.958 34.64h-5.178c-1.325 0-2.408 1.084-2.408 2.408 0 1.325 1.084 2.408 2.408 2.408h5.178c1.325 0 2.408-1.084 2.408-2.408 0-1.325-1.084-2.408-2.408-2.408z"/><path d="m32.149 0c-17.755 0-32.149 14.394-32.149 32.149 0 17.756 14.394 32.149 32.149 32.149s32.149-14.394 32.149-32.149c.001-17.755-14.393-32.149-32.149-32.149zm17.582 41.579c0 1.253-1.016 2.269-2.269 2.269h-30.72c-1.253 0-2.269-1.016-2.269-2.269v-22.906c0-1.253 1.016-2.269 2.269-2.269h30.72c1.253 0 2.269 1.016 2.269 2.269z"/></g></svg>