<svg height="64.299" viewBox="0 0 64.299 64.299" width="64.299" xmlns="http://www.w3.org/2000/svg"><g fill="#5f6062"><path d="m28.015 25.168h-8.005c-.541 0-.997.456-.997.997v8.006c0 .541.456.997.997.997h8.006c.541 0 .997-.456.997-.997v-8.006c0-.541-.456-.997-.998-.997z"/><path d="m44.076 30.075h-9.486c-.586 0-1.062.475-1.062 1.062 0 .586.475 1.062 1.062 1.062h9.486c.586 0 1.062-.475 1.062-1.062s-.476-1.062-1.062-1.062z"/><path d="m32.149 0c-17.755 0-32.149 14.394-32.149 32.149 0 17.756 14.394 32.149 32.149 32.149s32.149-14.394 32.149-32.149c.001-17.755-14.393-32.149-32.149-32.149zm17.682 41.656c0 1.257-1.019 2.276-2.276 2.276h-30.812c-1.257 0-2.276-1.019-2.276-2.276v-22.976c0-1.257 1.019-2.276 2.276-2.276h30.813c1.257 0 2.276 1.019 2.276 2.276v22.976z"/><path d="m44.076 25.121h-9.486c-.586 0-1.062.475-1.062 1.062s.475 1.062 1.062 1.062h9.486c.586 0 1.062-.475 1.062-1.062s-.476-1.062-1.062-1.062z"/></g></svg>