<svg enable-background="new 0 0 64.3 64.3" viewBox="0 0 64.3 64.3" xmlns="http://www.w3.org/2000/svg"><path d="m17.8 47c0 .4.3.7.7.7h27.2c.4 0 .7-.3.7-.7v-18.9h-28.6zm19.8-15.8c0-.4.3-.7.7-.7h4.4c.4 0 .7.3.7.7v4.4c0 .1 0 .2-.1.3v.1s0 .1-.1.1 0 0-.1.1-.2.1-.4.1h-4.4c-.4 0-.7-.3-.7-.7zm-8.3 0c0-.4.3-.7.7-.7h4.4c.4 0 .7.3.7.7v4.4c0 .1 0 .2-.1.3v.1s0 .1-.1.1 0 0-.1.1-.2.1-.4.1h-4.4c-.4 0-.7-.3-.7-.7zm0 8.3c0-.4.3-.7.7-.7h4.4c.4 0 .7.3.7.7v4.4c0 .1 0 .2-.1.3v.1s0 .1-.1.1 0 0-.1.1-.2.1-.4.1h-4.4c-.4 0-.7-.3-.7-.7zm-8.3-8.3c0-.4.3-.7.7-.7h4.4c.4 0 .7.3.7.7v4.4c0 .1 0 .2-.1.3v.1s0 .1-.1.1 0 0-.1.1-.2.1-.4.1h-4.4c-.4 0-.7-.3-.7-.7zm0 8.3c0-.4.3-.7.7-.7h4.4c.4 0 .7.3.7.7v4.4c0 .1 0 .2-.1.3v.1s0 .1-.1.1 0 0-.1.1-.2.1-.4.1h-4.4c-.4 0-.7-.3-.7-.7z"/><path d="m32.1 0c-17.7 0-32.1 14.4-32.1 32.1 0 17.8 14.4 32.1 32.1 32.1s32.1-14.4 32.1-32.1c.1-17.7-14.3-32.1-32.1-32.1zm8.3 14.7c0-.3.3-.5.5-.5h1.4c.3 0 .5.3.5.5v5.9c0 .3-.2.5-.5.5h-1.4c-.3 0-.5-.3-.5-.5zm-19 0c0-.3.3-.5.5-.5h1.4c.3 0 .5.3.5.5v5.9c.1.3-.2.5-.5.5h-1.4c-.3 0-.5-.3-.5-.5zm27.5 33c0 1.4-1.1 2.5-2.5 2.5h-28.6c-1.4 0-2.5-1.1-2.5-2.5v-28.6c0-1.4 1.1-2.5 2.5-2.5h1.9v3.7c0 1.4 1.6 2.4 2.9 2.4 1.4 0 2.9-1.1 2.9-2.5v-3.7h13.1v3.7c0 1.4 1.6 2.5 2.9 2.5s2.9-1.1 2.9-2.5v-3.7h1.9c1.4 0 2.5 1.1 2.5 2.5z"/></svg>