<svg enable-background="new 0 0 64.3 64.3" height="64.3" viewBox="0 0 64.3 64.3" width="64.3" xmlns="http://www.w3.org/2000/svg"><path d="m32.1-.1c-17.8 0-32.1 14.3-32.1 32s14.3 32.2 32.1 32.2 32.1-14.4 32.1-32.1-14.4-32.1-32.1-32.1zm-17.7 32.6c0-1.1.9-2 2-2h15.4l-3.8-3.9c-.8-.8-.8-2.1 0-2.9s2.1-.8 2.8 0l7.6 7.6c.5.5.5 1.3 0 1.8l-7.6 7.6c-.8.8-2.1.8-2.8 0-.8-.8-.8-2 0-2.8l3.6-3.5h-15.2c-1.2.1-2-.8-2-1.9zm32.1 15.1c0 1-.7 1.9-1.6 1.9h-22.3c-1.1 0-2-.9-2-2s.9-2 2-2h18.9c.6 0 .9-.6.9-1.2v-24c0-.6-.4-.8-.9-.8h-18.9c-1.1 0-2-.9-2-2s.9-2 2-2h22.2c1 0 1.6.5 1.6 1.5z"/></svg>