<svg height="64.299" viewBox="0 0 64.299 64.299" width="64.299" xmlns="http://www.w3.org/2000/svg"><g fill="#5f6062"><path d="m25.965 32.032h16.272c.575 0 1.041-.466 1.041-1.041s-.466-1.041-1.041-1.041h-16.272c-.575 0-1.041.466-1.041 1.041s.466 1.041 1.041 1.041z"/><path d="m25.965 25.994h13.149c.575 0 1.041-.466 1.041-1.041s-.466-1.041-1.041-1.041h-13.149c-.575 0-1.041.466-1.041 1.041s.466 1.041 1.041 1.041z"/><path d="m32.149 0c-17.755 0-32.149 14.394-32.149 32.149 0 17.756 14.394 32.149 32.149 32.149s32.149-14.394 32.149-32.149c.001-17.755-14.393-32.149-32.149-32.149zm-11.369 48.55c-1.437 0-2.603-1.165-2.603-2.603v-30.166c0-1.437 1.165-2.603 2.603-2.603h24.942c1.437 0 2.603 1.165 2.603 2.603v16.639c-1.116-.402-2.319-.622-3.572-.622-3.457 0-6.531 1.668-8.461 4.242h-10.327c-.575 0-1.041.466-1.041 1.041s.466 1.041 1.041 1.041h9.11c-.572 1.3-.89 2.735-.89 4.244 0 2.307.744 4.444 2.004 6.184zm23.973 2.548c-4.822 0-8.732-3.909-8.732-8.731s3.909-8.731 8.732-8.731c4.822 0 8.731 3.909 8.731 8.731s-3.909 8.731-8.731 8.731z"/><path d="m48.81 41.607h-8.115c-.342 0-.618.277-.618.619v.281c0 .342.277.618.618.618h8.115c.342 0 .618-.277.618-.618v-.281c.001-.342-.276-.619-.618-.619z"/></g></svg>