<svg viewBox="0 0 64 64" xmlns="http://www.w3.org/2000/svg"><path d="m32 3.42a28.58 28.58 0 1 1 -28.58 28.58 28.66 28.66 0 0 1 28.58-28.58m0-3.42a32 32 0 1 0 32 32 32 32 0 0 0 -32-32z" fill="#d52b1e"/><circle cx="32" cy="32" fill="#ffffff" r="30"/><path d="m49.34 42.35-16-26.53a1.54 1.54 0 0 0 -2.1-.55 1.8 1.8 0 0 0 -.55.55l-16 26.53a1.52 1.52 0 0 0 .51 2.08 1.57 1.57 0 0 0 .79.22h32.01a1.51 1.51 0 0 0 1.57-1.45 1.41 1.41 0 0 0 -.23-.85zm-15.73-3.15a1.58 1.58 0 0 1 -3.15 0v-.06a1.57 1.57 0 0 1 1.54-1.57 1.63 1.63 0 0 1 1.58 1.63zm-1.61-3.6a1.3 1.3 0 0 1 -1.29-1.24l-.56-9a1.33 1.33 0 0 1 1.26-1.4h1.1a1.28 1.28 0 0 1 1.29 1.3v.1l-.56 9a1.22 1.22 0 0 1 -1.19 1.24z" fill="#d52b1e"/></svg>