<svg height="64.299" viewBox="0 0 64.299 64.299" width="64.299" xmlns="http://www.w3.org/2000/svg"><path d="m32.149 0c-17.755 0-32.149 14.394-32.149 32.149 0 17.756 14.394 32.149 32.149 32.149s32.149-14.394 32.149-32.149c.001-17.755-14.393-32.149-32.149-32.149zm.852 13.901 12.089 2.387c1.094.216 1.967 1.041 2.244 2.121l1.481 5.767-15.814-5.479zm-15.655 4.495c.276-1.073 1.14-1.895 2.225-2.117l11.642-2.377v4.795l-15.352 5.479zm33.189 27.997c-.418.163-.852.436-1.366.817-2.797 2.077-5.077 2.077-7.875 0-1.777-1.321-3.294-1.321-5.073 0-1.05.78-2.056 1.264-3.052 1.456-.318.066-.634.099-.95.101h-.008c-.316-.001-.632-.035-.95-.101-.996-.192-2.002-.677-3.052-1.456-1.779-1.321-3.296-1.321-5.073 0-2.798 2.077-5.079 2.077-7.875 0-.511-.38-1.009-.651-1.474-.815-.587-.206-.975-.765-.975-1.387 0-1.02 1.014-1.739 1.972-1.388.698.255 1.406.641 2.101 1.157 1.707 1.268 2.663 1.458 4.628 0 .483-.358.997-.676 1.544-.927.497-.228 1.02-.4 1.558-.499.298-.054.601-.077.904-.087.389-.013.771-.017 1.157.042.26.04.517.098.769.173.533.159 1.041.391 1.522.669.329.19.646.401.95.629.434.322.889.638 1.394.838.271.107.571.172.863.181h.081c.292-.009.591-.074.862-.181.505-.2.96-.516 1.394-.838.304-.228.622-.439.951-.629.481-.278.989-.51 1.522-.669.252-.075.509-.134.769-.173.386-.059.768-.054 1.157-.042.303.01.606.033.904.087.538.098 1.061.27 1.558.499.547.251 1.061.569 1.544.927 1.965 1.458 2.921 1.268 4.628 0 .651-.484 1.269-.853 1.881-1.108.966-.402 2.029.314 2.029 1.36.002.6-.36 1.146-.919 1.364zm3.392-14.539c-1.538 1.714-7.266 7.641-10.13 10.596-.293-.157-.608-.362-.954-.618-.483-.358-.997-.674-1.543-.925-.496-.228-1.019-.399-1.557-.497-.298-.054-.601-.077-.903-.087-.389-.013-.77-.017-1.156.042-.26.04-.517.098-.769.173-.532.158-1.04.39-1.52.668-.329.19-.646.4-.95.627-.433.321-.888.636-1.393.836-.271.107-.57.172-.862.181h-.081c-.292-.009-.591-.074-.862-.181-.505-.2-.959-.514-1.393-.836-.304-.227-.621-.438-.95-.627-.48-.277-.988-.509-1.52-.668-.252-.075-.509-.133-.769-.173-.386-.059-.767-.054-1.156-.042-.303.01-.605.033-.903.087-.538.098-1.06.27-1.556.497-.547.251-1.061.567-1.543.925-.333.246-.636.445-.919.599-2.888-2.961-8.63-8.866-10.166-10.577-2.074-2.312.951-3.167.951-3.167l18.235-6.678s2.419-1.199 5.185 0l18.235 6.678c-.001-.001 3.023.855.949 3.167z" fill="#5f6062"/></svg>