<svg height="64.299" viewBox="0 0 64.299 64.299" width="64.299" xmlns="http://www.w3.org/2000/svg"><g fill="#5f6062"><path d="m38.604 20.762v2.214c0 .274.223.496.498.496h.597c.275 0 .498-.222.498-.496v-2.214c.663-.302 1.123-.969 1.123-1.742 0-.334-.088-.649-.239-.923-.33-.597-.971-1-1.708-.99-.709.01-1.327.409-1.652.99-.149.268-.235.575-.239.901-.01.784.454 1.46 1.122 1.764z"/><path d="m27.94 27.829h-5.612c-.383 0-.693.31-.693.693v13.327c0 .383.31.693.693.693h5.612c.383 0 .693-.31.693-.693v-13.327c0-.383-.31-.693-.693-.693z"/><path d="m32.149 0c-17.755 0-32.149 14.394-32.149 32.149 0 17.756 14.394 32.149 32.149 32.149s32.149-14.394 32.149-32.149c.001-17.755-14.393-32.149-32.149-32.149zm2.585 12.767c0-1.232.481-2.391 1.355-3.262s2.036-1.352 3.272-1.352h.078c1.236 0 2.398.478 3.272 1.349s1.356 2.03 1.356 3.262v.013.002h-1.596v-.013c0-1.666-1.359-3.024-3.033-3.024h-.077c-1.672 0-3.033 1.355-3.033 3.024v.013h-1.592v-.012zm10.343 1.234c.55 0 .995.445.995.992v10.411c0 .548-.446.992-.995.992h-11.35c-.55 0-.995-.444-.995-.992v-10.411c0-.547.445-.992.995-.992zm6.095 15.199c-.252.286-.603.432-.957.432-.3 0-.6-.105-.842-.318l-1.505-1.326v15.505c0 .768-.623 1.391-1.391 1.391h-28.634c-.768 0-1.391-.623-1.391-1.391v-15.48l-1.475 1.3c-.528.465-1.334.415-1.799-.113-.466-.528-.415-1.334.113-1.799l18.041-15.903c.482-.425 1.204-.425 1.686 0l.225.199c-.044.253-.096.505-.108.766-1.15.269-2.01 1.302-2.01 2.532v10.411c0 1.433 1.167 2.599 2.602 2.599h11.35c1.435 0 2.602-1.166 2.602-2.599v-.983l3.38 2.98c.528.463.579 1.269.113 1.797z"/></g></svg>