<svg height="64.299" viewBox="0 0 64.299 64.299" width="64.299" xmlns="http://www.w3.org/2000/svg"><path d="m32.149 0c-17.755 0-32.149 14.394-32.149 32.149s14.394 32.149 32.149 32.149 32.149-14.394 32.149-32.149-14.393-32.149-32.149-32.149zm17.68 38.418-.175.175c-.843.843-2.21.843-3.053 0l-13.247-13.246c-.421-.421-1.105-.421-1.527 0l-13.245 13.246c-.843.843-2.21.843-3.053 0l-.175-.175c-.843-.843-.843-2.21 0-3.053l16.474-16.475c.422-.421 1.105-.421 1.527 0l16.474 16.474c.843.844.843 2.211 0 3.054z" fill="#5f6062"/></svg>