<svg height="64.299" viewBox="0 0 64.299 64.299" width="64.299" xmlns="http://www.w3.org/2000/svg"><path d="m32.149 0c-17.755 0-32.149 14.394-32.149 32.149s14.394 32.149 32.149 32.149 32.149-14.394 32.149-32.149-14.393-32.149-32.149-32.149zm2.272 48.111h-3.64c-1.068 0-1.972-.877-1.972-1.972h7.585c-.001 1.122-.878 1.972-1.973 1.972zm2.635-3.117h-8.883c-.548 0-.986-.438-.986-.986s.438-.986.986-.986h8.883c.548 0 .986.438.986.986s-.438.986-.986.986zm0-3.116h-8.883c-.548 0-.986-.438-.986-.986s.438-.986.986-.986h8.883c.548 0 .986.438.986.986s-.438.986-.986.986zm1.068-4.102c0 .548-.438.986-.986.986h-9.075c-.548 0-.986-.438-.986-.986-.603-5.808-4.27-6.438-4.27-11.78 0-5.424 4.383-9.807 9.808-9.807 5.424 0 9.807 4.383 9.807 9.807 0 5.314-3.668 5.944-4.298 11.78z" fill="#5f6062"/></svg>