<svg height="64.299" viewBox="0 0 64.299 64.299" width="64.299" xmlns="http://www.w3.org/2000/svg"><g fill="#5f6062"><path d="m20.076 30.651c-1.365 0-2.534 1.169-2.534 2.536 0 1.364 1.169 2.534 2.534 2.534 1.367 0 2.534-1.17 2.534-2.534 0-1.367-1.167-2.536-2.534-2.536z"/><path d="m41.728 30.651c-1.367 0-2.537 1.169-2.537 2.536 0 1.364 1.17 2.534 2.537 2.534 1.364 0 2.534-1.17 2.534-2.534.001-1.367-1.17-2.536-2.534-2.536z"/><path d="m32.149 0c-17.755 0-32.149 14.394-32.149 32.149 0 17.756 14.394 32.149 32.149 32.149s32.149-14.394 32.149-32.149c.001-17.755-14.393-32.149-32.149-32.149zm16.988 41.98v2.99c0 1.474-1.195 2.669-2.669 2.669h-.783c-1.474 0-2.669-1.195-2.669-2.669v-1.815h-24.026v1.815c0 1.474-1.195 2.669-2.669 2.669h-.783c-1.474 0-2.669-1.195-2.669-2.669v-2.842c-.006-.049-.01-.098-.01-.148v-10.119h.004c.04-.946 1.093-2.277 2.134-3.37l3.381-9.19c.729-1.98 2.615-3.296 4.725-3.296h10.317c-.162.363-.302.739-.421 1.129-.145.478-.247.943-.316 1.389h-9.578c-1.055 0-1.999.658-2.363 1.648l-1.993 5.416c-.161.438.163.903.63.903h12.142c-.069.147-.136.295-.2.444-.312.729-.228 1.546.231 2.241.563.853 1.633 1.426 2.663 1.426.978 0 1.836-.531 2.239-1.385.517-1.094 1.149-2.057 1.632-2.725h.053c1.535.454 2.993.684 4.346.684 1.39 0 2.649-.246 3.761-.731l.817 2.221c1.017 1.11 2.025 2.401 2.07 3.198h.004zm6.069-29.045c-5.335 2.821-4.952 8.616-8.691 11.229-2.814 1.967-6.783.973-9.079.124 0 0-1.555 1.769-2.671 4.129-.374.793-2.013-.078-1.726-.748 3.646-8.484 16.059-12.716 16.059-12.716s-8.756-.335-14.611 6.557c-.156-1.576-.415-5.832 4.117-8.445 6.143-3.543 17.849-.79 16.602-.13z"/></g></svg>