<svg height="64.299" viewBox="0 0 64.299 64.299" width="64.299" xmlns="http://www.w3.org/2000/svg"><path d="m32.149 0c-17.755 0-32.149 14.394-32.149 32.149s14.394 32.149 32.149 32.149 32.149-14.394 32.149-32.149-14.393-32.149-32.149-32.149zm16.429 27.85-7.492 7.302 1.769 10.311c.14.814-.715 1.435-1.446 1.051l-9.26-4.868-9.26 4.868c-.731.384-1.586-.236-1.446-1.051l1.769-10.311-7.492-7.302c-.591-.577-.265-1.581.552-1.7l10.353-1.504 4.63-9.381c.366-.741 1.422-.741 1.788 0l4.63 9.381 10.353 1.504c.818.119 1.144 1.123.552 1.7z" fill="#5f6062"/></svg>