<svg enable-background="new 0 0 64.299 64.299" height="64.299" viewBox="0 0 64.299 64.299" width="64.299" xmlns="http://www.w3.org/2000/svg"><path d="m32.149 0c-17.755 0-32.149 14.394-32.149 32.149 0 17.756 14.394 32.149 32.149 32.149s32.149-14.394 32.149-32.149c.001-17.755-14.393-32.149-32.149-32.149zm-16.853 47.278s-.297-5.406.687-6.933c1.093-1.706 3.764-2.767 7.399-4.278 3.633-1.514 4.495-2.038 4.495-2.038l.035-3.492s-1.361-1.048-1.786-4.323c-.853.249-1.741-1.271-1.796-2.07-.045-.77.121-2.901 1.16-2.687-.211-1.61-.364-3.054-.294-3.818.275-2.808 3.032-5.757 7.269-5.757 4.24 0 7 2.949 7.268 5.757.077.764-.08 2.208-.288 3.818 1.035-.214 1.198 1.917 1.15 2.687-.045.799-.939 2.32-1.792 2.07-.422 3.275-1.78 4.323-1.78 4.323l.011 1.342c-1.845.83-3.314 2.551-3.888 4.736-.429 1.632-.551 4.229 1.303 7.33.69 1.154 1.592 2.267 2.699 3.334h-21.852zm28.383 2.493c-17.497-9.876-4.84-22.156 0-13.885 4.844-8.271 17.501 4.009 0 13.885z" fill="#5f6062"/></svg>