<svg height="64.299" viewBox="0 0 64.299 64.299" width="64.299" xmlns="http://www.w3.org/2000/svg"><g fill="#5f6062"><path d="m44.862 41.187c-.144-.144-.225-.339-.225-.543v-5.651c0-.424-.344-.768-.768-.768s-.768.344-.768.768v6.605l3.391 3.391c.3.3.786.3 1.086 0s.3-.786 0-1.086z"/><path d="m32.149 0c-17.755 0-32.149 14.394-32.149 32.149 0 17.756 14.394 32.149 32.149 32.149s32.149-14.394 32.149-32.149c.001-17.755-14.393-32.149-32.149-32.149zm-5.331 47.318h-9.171s-.806-8.095.405-9.321c1.535-1.552 4.134-2.244 6.355-2.945 2.912-.922 4.035-3.103 4.371-5.27-.35-.401-.688-.828-1.015-1.273-1.655.665-3.562.959-5.644-.244 2.711-2.739.472-3.401 1.627-9.663 1.005-5.453 3.734-7.182 7.353-5.89.88-1.809 7.702-2.062 9.368 3.085 1.956 6.054-.22 9.414 2.491 12.155-1.969 1.442-4.267 1.261-6.185.641-.3.407-.614.798-.936 1.168.166 1.082.527 2.168 1.207 3.101-2.365 1.958-3.874 4.915-3.874 8.218 0 2.327.75 4.482 2.019 6.237h-8.371zm17.02 2.597c-4.879 0-8.835-3.955-8.835-8.835 0-4.879 3.955-8.835 8.835-8.835s8.835 3.955 8.835 8.835-3.956 8.835-8.835 8.835z"/></g></svg>