<svg height="64.299" viewBox="0 0 64.299 64.299" width="64.299" xmlns="http://www.w3.org/2000/svg"><g fill="#5f6062"><path d="m27.905 27.847h-5.599c-.382 0-.691.31-.691.691v13.296c0 .382.309.691.691.691h5.599c.382 0 .691-.309.691-.691v-13.295c0-.382-.31-.692-.691-.692z"/><path d="m32.149 0c-17.755 0-32.149 14.394-32.149 32.149 0 17.756 14.394 32.149 32.149 32.149s32.149-14.394 32.149-32.149c.001-17.755-14.393-32.149-32.149-32.149zm18.933 29.215c-.251.285-.602.431-.954.431-.299 0-.599-.105-.84-.318l-1.501-1.323v15.468c0 .766-.621 1.387-1.387 1.387h-28.569c-.766 0-1.387-.621-1.387-1.387v-15.442l-1.471 1.297c-.527.464-1.331.414-1.795-.113s-.414-1.33.113-1.795l17.998-15.866c.481-.424 1.201-.424 1.682 0l2.383 2.101c-1.526 1.523-2.717 3.844-2.37 7.35l.211 2.127c-.521.76-.978 1.567-1.345 2.422-.268.627-.196 1.329.199 1.927.485.735 1.407 1.228 2.294 1.228.841 0 1.579-.456 1.926-1.191.454-.961 1.01-1.805 1.431-2.386 1.347.403 2.625.607 3.812.607 1.714 0 3.198-.43 4.412-1.279.319-.223.6-.47.865-.725l4.18 3.685c.527.465.578 1.268.113 1.795zm1.456-15.802c-4.624 2.445-4.293 7.468-7.533 9.733-2.439 1.705-5.88.843-7.87.108 0 0-1.348 1.534-2.315 3.579-.324.687-1.745-.068-1.496-.649 3.16-7.354 13.92-11.022 13.92-11.022s-7.589-.29-12.665 5.684c-.135-1.366-.36-5.055 3.569-7.32 5.325-3.071 15.472-.685 14.39-.113z"/></g></svg>