<svg height="64.299" viewBox="0 0 64.299 64.299" width="64.299" xmlns="http://www.w3.org/2000/svg"><g fill="#5f6062"><path d="m35.197 24.235-3.902 4.234-2.006-1.824c-.321-.302-.814-.302-1.134 0s-.32.767 0 1.07l2.573 2.36c.148.139.369.233.566.233s.419-.094.566-.233l4.469-4.745c.321-.302.321-.79 0-1.093-.318-.304-.811-.304-1.132-.002z"/><path d="m32.224 17.149c-5.464 0-9.894 4.43-9.894 9.894s4.43 9.894 9.894 9.894 9.894-4.43 9.894-9.894c-.001-5.464-4.43-9.894-9.894-9.894zm-.012 18.063c-4.485 0-8.134-3.649-8.134-8.134s3.649-8.134 8.134-8.134 8.134 3.649 8.134 8.134c0 4.484-3.649 8.134-8.134 8.134z"/><path d="m32.149 0c-17.755 0-32.149 14.394-32.149 32.149 0 17.756 14.394 32.149 32.149 32.149s32.149-14.394 32.149-32.149c.001-17.755-14.393-32.149-32.149-32.149zm11.612 29.337c1.543 2.297.957 3.713-1.758 4.245.547 2.713-.535 3.797-3.248 3.249-.009.047-.024.082-.034.128v12.85c0 .614-.714.952-1.188.563-1.516-1.243-4.067-3.34-5.119-4.244-.273-.234-.675-.234-.948 0-1.052.904-3.603 3.001-5.119 4.244-.475.389-1.188.051-1.188-.563v-12.907c-2.319.302-3.242-.792-2.733-3.319-2.715-.533-3.301-1.948-1.758-4.245-2.305-1.531-2.305-3.063 0-4.595-1.543-2.298-.958-3.713 1.758-4.245-.547-2.714.535-3.796 3.248-3.249.533-2.717 1.947-3.302 4.244-1.759 1.531-2.306 3.062-2.306 4.593 0 2.297-1.544 3.711-.958 4.244 1.759 2.712-.547 3.795.535 3.248 3.249 2.715.533 3.301 1.947 1.758 4.245 2.305 1.531 2.305 3.063 0 4.594z"/></g></svg>