<svg height="64.299" viewBox="0 0 64.299 64.299" width="64.299" xmlns="http://www.w3.org/2000/svg"><path d="m32.149 0c-17.755 0-32.149 14.394-32.149 32.149 0 17.756 14.394 32.149 32.149 32.149s32.149-14.394 32.149-32.149c.001-17.755-14.393-32.149-32.149-32.149zm-5.558 46.926h-9.197s-.808-8.118.406-9.348c1.54-1.556 4.145-2.25 6.373-2.953 2.921-.924 4.046-3.112 4.384-5.285-.351-.402-.69-.83-1.018-1.276-1.66.667-3.573.961-5.66-.244 2.718-2.747.473-3.41 1.631-9.691 1.007-5.468 3.745-7.202 7.374-5.907.882-1.814 7.724-2.067 9.394 3.094 1.962 6.072-.22 9.441 2.499 12.19-1.975 1.446-4.279 1.265-6.202.643-.301.409-.616.8-.938 1.171.119.772.336 1.546.697 2.265-1.625.913-2.897 2.534-3.424 4.54-.435 1.655-.559 4.288 1.321 7.432.697 1.166 1.608 2.291 2.725 3.37h-10.365zm16.998 2.539c-17.742-10.014-4.908-22.466 0-14.079 4.912-8.386 17.746 4.066 0 14.079z" fill="#5f6062"/></svg>