<svg enable-background="new 0 0 64.3 64.3" height="64.3" viewBox="0 0 64.3 64.3" width="64.3" xmlns="http://www.w3.org/2000/svg"><path d="m32.1-.1c-17.8 0-32.1 14.3-32.1 32s14.3 32.2 32.1 32.2 32.1-14.4 32.1-32.1-14.4-32.1-32.1-32.1zm10.1 49.3h-22.1c-1 0-1.9-.6-1.9-1.6v-30.7c0-1 .9-1.8 1.9-1.8h22.2c1.1 0 2 .9 2 2s-.9 2-2 2h-18.9c-.6 0-1.2.5-1.2 1.1v24.1c0 .6.6.8 1.2.8h18.9c1.1 0 2 .9 2 2-.1 1.1-.9 2.1-2.1 2.1zm8-16-7.6 7.6c-.8.8-2.1.8-2.8 0s-.8-2.1 0-2.9l3.6-3.7h-15.5c-1.1 0-2-.9-2-2s.9-2 2-2h15.4l-3.7-3.6c-.8-.8-.8-2 0-2.8s2.1-.8 2.8 0l7.6 7.6c.7.5.7 1.3.2 1.8z"/></svg>