<svg height="64.299" viewBox="0 0 64.299 64.299" width="64.299" xmlns="http://www.w3.org/2000/svg"><g fill="#5f6062"><path d="m32.155 19.971c-5.667 0-10.278 4.611-10.278 10.278s4.611 10.278 10.278 10.278 10.278-4.611 10.278-10.278-4.611-10.278-10.278-10.278z"/><path d="m32.149 0c-17.755 0-32.149 14.394-32.149 32.149s14.394 32.149 32.149 32.149 32.149-14.394 32.149-32.149-14.393-32.149-32.149-32.149zm16.811 47.103c-1.212 1.212-3.177 1.212-4.389 0l-4.873-4.873c-2.184 1.378-4.769 2.179-7.543 2.179-7.82 0-14.159-6.339-14.159-14.159s6.339-14.16 14.159-14.16 14.159 6.339 14.159 14.159c0 2.799-.815 5.405-2.217 7.602l4.863 4.863c1.212 1.212 1.212 3.177 0 4.389z"/></g></svg>