<svg enable-background="new 0 0 64.3 64.3" height="64.3" viewBox="0 0 64.3 64.3" width="64.3" xmlns="http://www.w3.org/2000/svg"><path d="m45.9 27.6c-2.8 0-5.1 2-5.6 4.6h3c.5-1 1.5-1.7 2.6-1.7 1.2 0 2.2.7 2.6 1.7h2v2h-1.9c-.2 1.1-1.4 2-2.7 2s-2.4-.9-2.8-2.1h-2.9c.4 2.8 2.8 5 5.7 5 3.2 0 5.8-2.6 5.8-5.8s-2.6-5.7-5.8-5.7z"/><path d="m21.9 28.9-1.1 3.2c.2.4.3.8.3 1.3 0 1.6-1.3 2.9-2.9 2.9s-2.9-1.3-2.9-2.9 1.3-2.9 2.9-2.9c.2 0 .5 0 .7.1l.9-2.7c-.5-.2-1.1-.2-1.6-.2-3.2 0-5.8 2.6-5.8 5.8s2.6 5.8 5.8 5.8 5.8-2.6 5.8-5.8c-.1-1.9-.9-3.6-2.1-4.6z"/><path d="m30.4 28.6c.3.2.6.4.9.7.5-.4 1.2-.7 2-.7 1.6 0 2.8 1.2 3.1 2.6.3.1.7.1 1 .1.3-1.5 1-2.8 2-3.9h-10z"/><path d="m32.1-.1c-17.8 0-32.1 14.3-32.1 32-.1 17.8 14.3 32.2 32.1 32.2s32.1-14.4 32.1-32.1c0-17.8-14.4-32.1-32.1-32.1zm-15 16.5h2.2c.9 0 1.7.8 1.7 1.7v1.3c0 .9-.8 1.7-1.7 1.7h-2.2zm28.8 25.6c-4.5 0-8.2-3.5-8.6-7.9h-4.1l-7.5-8.3-1.2-4.6-1.6 4.8c2.4 1.5 4 4.2 4 7.3 0 4.8-3.9 8.7-8.7 8.7s-8.8-4-8.8-8.8 3.9-8.7 8.7-8.7c.9 0 1.7.1 2.6.4l2.6-7.7c.5-1.6 2-2.6 3.7-2.6h4.1v1.1h-3.7c-.7 0-1.3.4-1.5 1.1l-.6 1.8 9.7 4.3h14.8c1 0 1.7.8 1.7 1.7v2.2c1.8 1.6 2.9 3.9 2.9 6.5.2 4.8-3.7 8.7-8.5 8.7z"/></svg>