<svg height="64.299" viewBox="0 0 64.299 64.299" width="64.299" xmlns="http://www.w3.org/2000/svg"><path d="m32.149 0c-17.755 0-32.149 14.394-32.149 32.149 0 17.756 14.394 32.149 32.149 32.149s32.149-14.394 32.149-32.149c.001-17.755-14.393-32.149-32.149-32.149zm-17.657 22.276c0-.086.021-.167.058-.238.034-.11.105-.211.219-.28.038-.023.08-.04.123-.054l17.026-5.628c.131-.057.281-.057.412 0l17.172 5.644c.24.103.335.324.312.532-.003.028-.006.055-.006.083v.522c0 .575-.466 1.042-1.042 1.042h-33.233c-.575 0-1.042-.466-1.042-1.042v-.581zm3.231 4.936-.03-.012c-.391-.153-.649-.531-.649-.951 0-.564.458-1.022 1.022-1.022h4.199c.564 0 1.022.458 1.022 1.022 0 .42-.257.798-.649.951l-.031.012c-.391.153-.649.531-.649.951v4.909c0 .42.258.798.649.951l.031.012c.391.153.649.531.649.951 0 .564-.458 1.022-1.022 1.022h-4.199c-.564 0-1.022-.458-1.022-1.022 0-.42.257-.798.649-.951l.031-.012c.391-.153.649-.531.649-.951v-4.909c-.001-.42-.258-.798-.65-.951zm30.171 10.125c.366 0 .663.297.663.663v1.278c0 .366-.297.663-.663.663h-31.489c-.366 0-.663-.297-.663-.663v-1.278c0-.366.297-.663.663-.663zm-18.213-10.125-.03-.012c-.391-.153-.649-.531-.649-.951 0-.564.458-1.022 1.022-1.022h4.199c.564 0 1.022.458 1.022 1.022 0 .42-.257.798-.649.951l-.031.012c-.391.153-.649.531-.649.951v4.909c0 .42.257.798.649.951l.031.012c.391.153.649.531.649.951 0 .564-.458 1.022-1.022 1.022h-4.199c-.564 0-1.022-.458-1.022-1.022 0-.42.257-.798.649-.951l.03-.012c.391-.153.649-.531.649-.951v-4.909c0-.42-.258-.798-.649-.951zm12.01 0-.031-.012c-.391-.153-.649-.531-.649-.951 0-.564.458-1.022 1.022-1.022h4.199c.564 0 1.022.458 1.022 1.022 0 .42-.257.798-.649.951l-.031.012c-.391.153-.649.531-.649.951v4.909c0 .42.257.798.649.951l.031.012c.391.153.649.531.649.951 0 .564-.458 1.022-1.022 1.022h-4.199c-.564 0-1.022-.458-1.022-1.022 0-.42.257-.798.649-.951l.031-.012c.391-.153.649-.531.649-.951v-4.909c0-.42-.258-.798-.649-.951zm8.168 15.973c0 .366-.297.663-.663.663h-34.093c-.366 0-.663-.297-.663-.663v-1.278c0-.366.297-.663.663-.663h34.093c.366 0 .663.297.663.663z" fill="#5f6062"/></svg>