<svg height="64.299" viewBox="0 0 64.299 64.299" width="64.299" xmlns="http://www.w3.org/2000/svg"><path d="m32.149 0c-17.755 0-32.149 14.394-32.149 32.149 0 17.756 14.394 32.149 32.149 32.149s32.149-14.394 32.149-32.149c.001-17.755-14.393-32.149-32.149-32.149zm-13.942 45.492c-1.178 0-2.132-.955-2.132-2.132 0-1.178.955-2.132 2.132-2.132 1.178 0 2.132.955 2.132 2.132s-.954 2.132-2.132 2.132zm0-8.53c-1.178 0-2.132-.955-2.132-2.132s.955-2.132 2.132-2.132c1.178 0 2.132.955 2.132 2.132s-.954 2.132-2.132 2.132zm2.132-11.136c0 1.178-.955 2.132-2.132 2.132-1.178 0-2.132-.955-2.132-2.132 0-1.178.955-2.132 2.132-2.132 1.178 0 2.132.954 2.132 2.132zm-2.132-6.397c-1.178 0-2.132-.955-2.132-2.132 0-1.178.955-2.132 2.132-2.132 1.178 0 2.132.955 2.132 2.132s-.954 2.132-2.132 2.132zm27.885 26.063h-20.777c-1.178 0-2.132-.955-2.132-2.132 0-1.178.955-2.132 2.132-2.132h20.776c1.178 0 2.132.955 2.132 2.132.001 1.177-.954 2.132-2.131 2.132zm0-8.53h-20.777c-1.178 0-2.132-.955-2.132-2.132s.955-2.132 2.132-2.132h20.776c1.178 0 2.132.955 2.132 2.132s-.954 2.132-2.131 2.132zm2.132-11.136c0 1.178-.955 2.132-2.132 2.132h-20.777c-1.178 0-2.132-.955-2.132-2.132 0-1.178.955-2.132 2.132-2.132h20.776c1.178 0 2.133.954 2.133 2.132zm-2.132-6.397h-20.777c-1.178 0-2.132-.955-2.132-2.132 0-1.178.955-2.132 2.132-2.132h20.776c1.178 0 2.132.955 2.132 2.132.001 1.177-.954 2.132-2.131 2.132z" fill="#5f6062"/></svg>