<svg height="64.299" viewBox="0 0 64.299 64.299" width="64.299" xmlns="http://www.w3.org/2000/svg"><path d="m32.149 0c-17.755 0-32.149 14.394-32.149 32.149 0 17.756 14.394 32.149 32.149 32.149s32.149-14.394 32.149-32.149c.001-17.755-14.393-32.149-32.149-32.149zm14.952 36.139c-.631 1.925-1.631 3.68-2.973 5.218-1.341 1.538-2.944 2.768-4.765 3.655-1.758.857-3.642 1.359-5.601 1.493s-3.894-.107-5.752-.717c-1.925-.631-3.68-1.631-5.218-2.973l-.882-.769c-.05-.043-.089-.094-.123-.146-.283-.302-.468-.7-.499-1.146-.07-1.027.706-1.917 1.733-1.987.539-.037 1.039.161 1.404.504l.828.722c1.719 1.499 3.798 2.428 6.01 2.711.088-.04.185-.063.288-.063h1.17c3.039.001 5.897-1.182 8.046-3.331 2.246-2.245 3.437-5.263 3.326-8.455-.156-3.116-1.541-5.969-3.885-8.014-2.291-1.997-5.222-2.983-8.254-2.776s-5.802 1.583-7.799 3.874l-.769.882c-.035.04-.074.074-.116.105-1.24 1.841-1.91 4.005-1.923 6.272l4.126.001c.625 0 .938.756.496 1.199l-6.001 5.998c-.274.274-.719.274-.993 0l-5.998-6.001c-.442-.442-.129-1.198.497-1.198l4.129.001c.009-2.019.407-3.978 1.189-5.825.762-1.801 1.853-3.418 3.241-4.805 1.389-1.388 3.006-2.478 4.807-3.239 1.866-.789 3.846-1.188 5.887-1.188 2.041.001 4.021.401 5.887 1.191 1.801.762 3.418 1.853 4.805 3.241 1.388 1.389 2.478 3.006 3.239 4.807.719 1.701 1.111 3.497 1.175 5.347.085 1.844-.158 3.662-.732 5.412z" fill="#5f6062"/></svg>