<svg height="64.299" viewBox="0 0 64.299 64.299" width="64.299" xmlns="http://www.w3.org/2000/svg"><path d="m32.149 0c-17.755 0-32.149 14.394-32.149 32.149 0 17.756 14.394 32.149 32.149 32.149s32.149-14.394 32.149-32.149c.001-17.755-14.393-32.149-32.149-32.149zm-8.359 24.86c.822-.822 2.156-.822 2.979 0l3.307 3.307v-13.952c0-1.163.943-2.106 2.106-2.106s2.106.943 2.106 2.106v13.952l3.307-3.307c.823-.822 2.156-.822 2.979 0s.823 2.156 0 2.979l-7.73 7.73c-.366.366-.958.366-1.324 0l-7.73-7.73c-.823-.823-.823-2.157 0-2.979zm24.22 18.04c0 .517-.419.936-.936.936h-29.849c-.517 0-.936-.419-.936-.936v-6.71c0-1.163.943-2.106 2.106-2.106s2.106.943 2.106 2.106v3.434h23.296v-3.434c0-1.163.943-2.106 2.106-2.106s2.106.943 2.106 2.106v6.71z" fill="#5f6062"/></svg>