<svg height="64.299" viewBox="0 0 64.299 64.299" width="64.299" xmlns="http://www.w3.org/2000/svg"><path d="m32.149 0c-17.755 0-32.149 14.394-32.149 32.149 0 17.756 14.394 32.149 32.149 32.149s32.149-14.394 32.149-32.149c.001-17.755-14.393-32.149-32.149-32.149zm17.682 42.942c0 1.257-1.019 2.276-2.276 2.276h-30.812c-1.257 0-2.276-1.019-2.276-2.276v-19.041l16.373 9.506c.81.47 1.809.47 2.618 0l16.373-9.506zm0-21.453-16.373 9.506c-.81.47-1.809.47-2.618 0l-16.373-9.506v-1.522c0-1.257 1.019-2.276 2.276-2.276h30.813c1.257 0 2.276 1.019 2.276 2.276v1.522z" fill="#5f6062"/></svg>