<svg height="64.299" viewBox="0 0 64.299 64.299" width="64.299" xmlns="http://www.w3.org/2000/svg"><g fill="#5f6062"><path d="m44.777 36.449h-9.461c-.585 0-1.059.474-1.059 1.059s.474 1.059 1.059 1.059h9.461c.585 0 1.059-.474 1.059-1.059s-.474-1.059-1.059-1.059z"/><path d="m27.603 21.589c-1.095-.854-2.759-1.401-4.621-1.401-3.29 0-5.966 1.706-5.966 3.802 0 1.236.934 2.332 2.37 3.027-1.478 1.405-2.11 2.505-1.776 3.099.395.703 2.053.558 4.549-.397l.047-.018-.072-.105-.028.01c-1.917.686-3.241.775-3.542.24-.265-.47.27-1.402 1.465-2.557.871.319 1.878.503 2.953.503 3.289 0 5.966-1.706 5.966-3.802 0-.696-.3-1.348-.815-1.91 2.521-1.085 4.384-1.369 4.749-.719.443.788-1.315 2.767-4.276 4.813l-.038.026.085.094.027-.018c3.701-2.472 5.896-4.892 5.337-5.884-.493-.879-3.011-.408-6.414 1.197zm-1.491 3.354c-.089 0-1.043 0-1.131 0 .024-.089.496-1.87.559-2.109.064.239.548 2.019.572 2.109zm-3.442-4.342c-.028.103-1.078 4.017-1.14 4.248-.065-.229-1.049-3.694-1.068-3.761.667-.285 1.428-.451 2.208-.487zm.562 4.342c-.089 0-1.046 0-1.135 0 .024-.089.499-1.871.562-2.109.066.238.549 2.019.573 2.109zm-2.889 0c-.089 0-1.036 0-1.124 0 .024-.089.498-1.868.561-2.107.065.239.539 2.018.563 2.107zm-2.221-.953c0-.898.497-1.738 1.397-2.377-.054.201-.953 3.549-.998 3.716-.261-.424-.399-.874-.399-1.339zm.842 1.909c.011-.04.098-.368.111-.417h1.412c.014.054.39 1.461.421 1.577-.784-.259-1.456-.658-1.944-1.16zm4.018 1.489c-.507 0-1.009-.057-1.492-.166.021-.079.45-1.685.464-1.74h1.425c.015.054.477 1.757.501 1.845-.296.039-.598.061-.898.061zm.22-6.789c.784.025 1.551.181 2.225.457-.018.068-.953 3.553-1.016 3.789-.067-.235-1.179-4.143-1.209-4.246zm1.841 6.465c-.022-.077-.318-1.115-.324-1.135.005-.019.105-.397.119-.447h1.421c.014.052.218.802.232.854-.417.306-.905.55-1.448.728zm2.39-1.718c-.046-.163-1.025-3.601-1.081-3.799.946.639 1.49 1.523 1.49 2.443 0 .472-.141.927-.409 1.356z"/><path d="m32.149 0c-17.755 0-32.149 14.394-32.149 32.149 0 17.756 14.394 32.149 32.149 32.149s32.149-14.394 32.149-32.149c.001-17.755-14.393-32.149-32.149-32.149zm17.682 41.656c0 1.257-1.019 2.276-2.276 2.276h-30.812c-1.257 0-2.276-1.019-2.276-2.276v-22.976c0-1.257 1.019-2.276 2.276-2.276h30.813c1.257 0 2.276 1.019 2.276 2.276v22.976z"/><path d="m44.777 31.508h-9.461c-.585 0-1.059.474-1.059 1.059s.474 1.059 1.059 1.059h9.461c.585 0 1.059-.474 1.059-1.059s-.474-1.059-1.059-1.059z"/></g></svg>