<svg height="64.299" viewBox="0 0 64.299 64.299" width="64.299" xmlns="http://www.w3.org/2000/svg"><path d="m32.149 0c-17.755 0-32.149 14.394-32.149 32.149 0 17.756 14.394 32.149 32.149 32.149s32.149-14.394 32.149-32.149c.001-17.755-14.393-32.149-32.149-32.149zm16.411 21.781-20.58 24.384c-.358.424-1.001.45-1.392.057l-10.724-10.775c-.877-.881-.874-2.307.008-3.184.881-.877 2.307-.874 3.184.008l7.259 7.294c.391.393 1.035.367 1.392-.057l17.412-20.63c.802-.95 2.222-1.07 3.173-.268s1.07 2.221.268 3.171z" fill="#5f6062"/></svg>