<svg height="64.299" viewBox="0 0 64.299 64.299" width="64.299" xmlns="http://www.w3.org/2000/svg"><g fill="#5f6062"><path d="m28.116 24.278h-5.477c-.234 0-.453.117-.584.311l-1.696 2.525c-.005.008-.011.015-.016.023h8.476v-2.156c0-.389-.315-.703-.703-.703z"/><circle cx="45.609" cy="38.943" r="1.722"/><path d="m32.149 0c-17.755 0-32.149 14.394-32.149 32.149 0 17.756 14.394 32.149 32.149 32.149s32.149-14.394 32.149-32.149c.001-17.755-14.393-32.149-32.149-32.149zm-13.857 43.298c-2.406 0-4.356-1.95-4.356-4.355s1.95-4.355 4.356-4.355 4.356 1.95 4.356 4.355-1.951 4.355-4.356 4.355zm27.317 0c-2.406 0-4.356-1.95-4.356-4.355s1.95-4.355 4.356-4.355 4.356 1.95 4.356 4.355-1.951 4.355-4.356 4.355zm9.07-8.041v1.948c0 .873-.707 1.58-1.58 1.58h-.736c-.244 0-.573 0-.978 0-.084-3.113-2.643-5.62-5.777-5.62s-5.693 2.507-5.777 5.62c-5.045 0-10.79 0-15.764 0-.084-3.113-2.643-5.62-5.776-5.62-3.134 0-5.692 2.507-5.777 5.62-.187 0-.343 0-.463 0h-.161-1.204c-.582 0-1.054-.472-1.054-1.053v-2.56c0-.582.472-1.053 1.054-1.053h1.204v-2.159-.231-2.77c0-1.454 1.179-2.349 2.634-2.349h3.782c.175 0 .339-.087.437-.233l2.219-3.303c.196-.291.524-.466.874-.466h3.82v-1.159c0-.291.236-.527.527-.527h1.843c.291 0 .527.236.527.527v1.159h1.054c.582 0 1.053.472 1.053 1.053v2.949 3.411h.915v-10.279c0-.291.236-.527.527-.527h1.791c.291 0 .527.236.527.527v7.933l15.665-13.208c.251-.279.614-.455 1.019-.455.756 0 1.369.613 1.369 1.368 0 .322-.112.619-.298.852l.006.005-.292.46v6.681c.371.193.632.569.632 1.016s-.261.823-.632 1.017v.678c.523.296.887.818.951 1.423.052.498-.093.986-.408 1.375s-.763.632-1.261.684c-.067.007-.133.01-.199.01-.428 0-.84-.145-1.177-.418-.389-.315-.632-.763-.684-1.261-.03-.289.18-.548.469-.579.29-.03.548.18.579.469.023.218.129.414.3.552.17.138.384.201.602.179.218-.023.414-.129.552-.3s.201-.384.179-.602c-.031-.294-.219-.55-.491-.668-.029-.013-.05-.035-.076-.053-.223-.061-.39-.257-.39-.499v-.991c-.371-.193-.632-.569-.632-1.017 0-.447.261-.823.632-1.016v-5.022l-7.409 11.664h11.254v5.238z"/><circle cx="18.292" cy="38.943" r="1.722"/></g></svg>