<svg height="64.299" viewBox="0 0 64.299 64.299" width="64.299" xmlns="http://www.w3.org/2000/svg"><path d="m32.149 0c-17.755 0-32.149 14.394-32.149 32.149 0 17.756 14.394 32.149 32.149 32.149s32.149-14.394 32.149-32.149c.001-17.755-14.393-32.149-32.149-32.149zm-5.498 46.958h-9.213s-.81-8.132.407-9.364c1.542-1.559 4.153-2.254 6.385-2.958.595-.188 1.114-.429 1.569-.712l-1.292 3.256c-.089.224.145.439.361.333l3.329-1.043 2.619 10.489h-4.165zm1.04-14.945c.502-.829.787-1.752.929-2.673-.351-.403-.692-.832-1.02-1.278-1.663.668-3.579.963-5.67-.245 2.723-2.752.474-3.416 1.634-9.708 1.009-5.478 3.752-7.215 7.387-5.917.884-1.817 7.738-2.071 9.411 3.1 1.965 6.082-.221 9.458 2.503 12.211-1.978 1.449-4.286 1.267-6.213.644-.302.409-.617.802-.94 1.173.141.916.421 1.835.914 2.662l-4.477 7.383zm19.171 14.945h-9.213-4.163l2.617-10.48 3.299 1.033c.216.106.449-.109.361-.333l-1.315-3.313c.476.307 1.027.568 1.663.769.039.012.079.025.118.037-.004.003-.008.006-.012.008 2.199.689 4.73 1.388 6.24 2.913 1.214 1.234.405 9.366.405 9.366z" fill="#5f6062"/></svg>