<svg height="64.299" viewBox="0 0 64.299 64.299" width="64.299" xmlns="http://www.w3.org/2000/svg"><path d="m32.149 0c-17.755 0-32.149 14.394-32.149 32.149 0 17.756 14.394 32.149 32.149 32.149s32.149-14.394 32.149-32.149c.001-17.755-14.393-32.149-32.149-32.149zm.04 46.273c-1.364 0-2.473-1.109-2.473-2.473s1.11-2.473 2.473-2.473c1.364 0 2.473 1.109 2.473 2.473 0 1.363-1.11 2.473-2.473 2.473zm8.085-14.709c-1.239 1.686-2.936 2.926-4.909 3.589-.452.182-.98.524-1.156.742v1.854c0 1.138-.922 2.06-2.06 2.06s-2.06-.922-2.06-2.06v-1.933c-.015-.965.345-2.364 2.121-3.606.822-.574 1.636-.888 1.726-.922l.08-.028c2.447-.807 4.092-3.082 4.092-5.662 0-3.286-2.673-5.96-5.96-5.96-3.286 0-5.96 2.673-5.96 5.96 0 1.138-.922 2.06-2.06 2.06s-2.06-.922-2.06-2.06c0-2.692 1.048-5.223 2.952-7.127s4.435-2.952 7.127-2.952 5.223 1.048 7.127 2.952 2.952 4.435 2.952 7.127c.003 2.164-.673 4.227-1.952 5.966z" fill="#5f6062"/></svg>