<svg height="64.299" viewBox="0 0 64.299 64.299" width="64.299" xmlns="http://www.w3.org/2000/svg"><g fill="#5f6062"><path d="m27.913 27.772h-5.602c-.382 0-.692.31-.692.692v13.303c0 .382.31.692.692.692h5.602c.382 0 .692-.31.692-.692v-13.304c0-.382-.31-.691-.692-.691z"/><path d="m32.149 0c-17.755 0-32.149 14.394-32.149 32.149 0 17.756 14.394 32.149 32.149 32.149s32.149-14.394 32.149-32.149c.001-17.755-14.393-32.149-32.149-32.149zm7.23 6.6c2.757 2.129 2.758 5.084 2.758 4.799s2.355-3.402 2.26-2.454-1.097 2.211 1.598 6.825c.639 1.093 1.001 2.082 1.164 2.978.077.414.117.84.117 1.276 0 1.995-.84 3.793-2.186 5.061-1.534-3.457-.775-5.279-.693-6.099.095-.948-2.26 3.196-2.26 3.481s-.001-3.697-2.758-5.826c0 0-.515 4.897-3.345 7.908-.166.176-.324.356-.476.539-1.347-1.268-2.189-3.068-2.189-5.064 0-.128.004-.255.01-.381-.021-2.21.976-4.378 2.654-6.164 2.831-3.009 3.346-6.879 3.346-6.879zm11.725 22.54c-.251.285-.602.431-.955.431-.299 0-.599-.105-.841-.318l-1.502-1.324v15.477c0 .767-.621 1.388-1.388 1.388h-28.584c-.767 0-1.388-.621-1.388-1.388v-15.451l-1.472 1.298c-.527.465-1.331.414-1.796-.113s-.414-1.331.113-1.796l18.009-15.875c.481-.424 1.202-.424 1.683 0l1.516 1.337c-1.763 2.044-2.732 4.436-2.723 6.803-.007.138-.01.277-.01.417 0 .023.003.046.004.069 0 .024-.004.047-.004.071 0 2.907 1.455 5.47 3.673 7.013l.304.198c1.321.838 2.884 1.33 4.564 1.33 1.51 0 2.925-.395 4.156-1.082l.88-.571c.954-.699 1.752-1.594 2.348-2.62l3.301 2.91c.526.465.577 1.269.112 1.796z"/></g></svg>