<svg height="64.299" viewBox="0 0 64.299 64.299" width="64.299" xmlns="http://www.w3.org/2000/svg"><path d="m32.149 0c-17.755 0-32.149 14.394-32.149 32.149 0 17.756 14.394 32.149 32.149 32.149s32.149-14.394 32.149-32.149c.001-17.755-14.393-32.149-32.149-32.149zm14.897 47.903h-9.063-10.819-9.064s-.796-8 .4-9.212c1.517-1.533 4.085-2.217 6.281-2.91 2.878-.911 3.988-3.066 4.32-5.208-.346-.396-.68-.818-1.003-1.258-1.635.657-3.521.947-5.577-.241 2.679-2.707.466-3.361 1.608-9.55.993-5.389 3.691-7.098 7.267-5.821.87-1.787 7.612-2.037 9.258 3.049 1.933 5.983-.217 9.304 2.462 12.013-1.946 1.425-4.217 1.246-6.112.634-.297.403-.607.789-.925 1.154.33 2.149 1.435 4.315 4.325 5.228.039.012.078.024.116.037-.004.003-.008.005-.012.008 2.163.678 4.653 1.365 6.138 2.865 1.196 1.212.4 9.212.4 9.212z" fill="#5f6062"/></svg>