<svg height="64.299" viewBox="0 0 64.299 64.299" width="64.299" xmlns="http://www.w3.org/2000/svg"><g fill="#5f6062"><path d="m44.834 40.6c-.143-.143-.224-.338-.224-.541v-5.63c0-.423-.343-.765-.765-.765-.423 0-.765.343-.765.765v6.581l3.378 3.378c.299.299.783.299 1.082 0s.299-.783 0-1.082z"/><path d="m32.149 0c-17.755 0-32.149 14.394-32.149 32.149 0 17.756 14.394 32.149 32.149 32.149s32.149-14.394 32.149-32.149c.001-17.755-14.393-32.149-32.149-32.149zm-16.853 46.636s-.297-5.404.687-6.93c1.092-1.705 3.762-2.766 7.397-4.277 3.631-1.513 4.494-2.037 4.494-2.037l.035-3.491s-1.361-1.048-1.785-4.321c-.853.249-1.741-1.271-1.795-2.069-.044-.77.121-2.9 1.159-2.686-.211-1.61-.364-3.053-.294-3.817.275-2.807 3.031-5.755 7.266-5.755 4.238 0 6.998 2.948 7.266 5.755.077.763-.08 2.207-.287 3.817 1.035-.214 1.198 1.917 1.15 2.686-.045.799-.939 2.319-1.792 2.069-.422 3.274-1.779 4.321-1.779 4.321l.02 2.411c-2.351 1.951-3.852 4.894-3.852 8.181 0 2.287.726 4.407 1.96 6.143zm28.518 2.66c-4.862 0-8.802-3.941-8.802-8.802 0-4.862 3.941-8.802 8.802-8.802 4.862 0 8.802 3.941 8.802 8.802s-3.941 8.802-8.802 8.802z"/></g></svg>