<svg height="64.299" viewBox="0 0 64.299 64.299" width="64.299" xmlns="http://www.w3.org/2000/svg"><g fill="#5f6062"><path d="m25.455 32.78h16.379c.579 0 1.048-.469 1.048-1.048s-.469-1.048-1.048-1.048h-16.379c-.579 0-1.048.469-1.048 1.048s.469 1.048 1.048 1.048z"/><path d="m32.149 0c-17.755 0-32.149 14.394-32.149 32.149 0 17.756 14.394 32.149 32.149 32.149s32.149-14.394 32.149-32.149c.001-17.755-14.393-32.149-32.149-32.149zm-11.914 49.406c-1.447 0-2.62-1.173-2.62-2.62v-30.365c0-1.447 1.173-2.62 2.62-2.62h25.106c1.447 0 2.62 1.173 2.62 2.62v16.749c-1.124-.405-2.334-.626-3.595-.626-3.48 0-6.574 1.679-8.516 4.27h-10.395c-.579 0-1.048.469-1.048 1.048s.469 1.048 1.048 1.048h9.17c-.576 1.308-.897 2.753-.897 4.272 0 2.323.749 4.473 2.017 6.225h-15.51zm24.131 2.579c-4.862 0-8.804-3.941-8.804-8.804 0-4.862 3.941-8.804 8.804-8.804 4.862 0 8.804 3.941 8.804 8.804s-3.941 8.804-8.804 8.804z"/><path d="m25.455 26.702h13.236c.579 0 1.048-.469 1.048-1.048s-.469-1.048-1.048-1.048h-13.236c-.579 0-1.048.469-1.048 1.048s.469 1.048 1.048 1.048z"/><path d="m45.162 43.064v-5.948c0-.423-.343-.765-.765-.765-.423 0-.765.343-.765.765v6.582l3.379 3.379c.299.299.783.299 1.082 0s.299-.784 0-1.082z"/></g></svg>