<svg height="64.299" viewBox="0 0 64.299 64.299" width="64.299" xmlns="http://www.w3.org/2000/svg"><g fill="#5f6062"><path d="m20.006 31.143c-1.352 0-2.51 1.158-2.51 2.511 0 1.351 1.158 2.51 2.51 2.51 1.353 0 2.51-1.159 2.51-2.51 0-1.353-1.157-2.511-2.51-2.511z"/><path d="m46.835 17.196-5.802 5.847-2.527-2.617c-.315-.326-.835-.335-1.161-.02s-.336.835-.02 1.161l3.11 3.221c.153.159.364.249.585.251h.006c.219 0 .429-.087.583-.243l6.393-6.442c.32-.322.318-.842-.004-1.162-.324-.32-.844-.318-1.163.004z"/><path d="m32.149 0c-17.755 0-32.149 14.394-32.149 32.149 0 17.756 14.394 32.149 32.149 32.149s32.149-14.394 32.149-32.149c.001-17.755-14.393-32.149-32.149-32.149zm16.636 42.363v2.961c0 1.46-1.183 2.643-2.643 2.643h-.775c-1.46 0-2.643-1.183-2.643-2.643v-1.798h-23.794v1.798c0 1.46-1.183 2.643-2.643 2.643h-.775c-1.46 0-2.643-1.183-2.643-2.643v-2.814c-.006-.048-.01-.097-.01-.147v-10.021h.004c.039-.937 1.083-2.255 2.113-3.337l3.348-9.101c.722-1.961 2.59-3.264 4.679-3.264h9.628c-.341.787-.591 1.623-.736 2.493h-8.892c-1.045 0-1.979.652-2.34 1.632l-1.973 5.363c-.16.434.162.894.624.894h14.342c1.538 2.223 3.89 3.842 6.621 4.423-.789.431-1.343 1.273-1.343 2.208 0 1.351 1.159 2.51 2.512 2.51 1.351 0 2.51-1.159 2.51-2.51 0-.793-.398-1.517-.998-1.983 1.722-.069 3.341-.544 4.764-1.332.586.753 1.029 1.484 1.058 2.003h.004v10.022zm-6.264-12.535c-4.925 0-8.918-3.993-8.918-8.918s3.993-8.918 8.918-8.918 8.918 3.993 8.918 8.918-3.993 8.918-8.918 8.918z"/></g></svg>