<svg height="64.299" viewBox="0 0 64.299 64.299" width="64.299" xmlns="http://www.w3.org/2000/svg"><g fill="#5f6062"><path d="m32.149 0c-17.755 0-32.149 14.394-32.149 32.149 0 17.756 14.394 32.149 32.149 32.149s32.149-14.394 32.149-32.149c.001-17.755-14.393-32.149-32.149-32.149zm-11.5 49.165c-1.433 0-2.595-1.162-2.595-2.595v-30.077c0-1.433 1.162-2.595 2.595-2.595h24.867c1.433 0 2.595 1.162 2.595 2.595v16.589c-1.113-.401-2.312-.62-3.561-.62-3.446 0-6.512 1.663-8.435 4.23h-10.296c-.573 0-1.038.465-1.038 1.038s.465 1.038 1.038 1.038h9.083c-.57 1.296-.888 2.727-.888 4.231 0 2.301.742 4.431 1.998 6.166zm23.901 2.534c-4.805 0-8.7-3.895-8.7-8.7s3.895-8.7 8.7-8.7 8.7 3.895 8.7 8.7-3.895 8.7-8.7 8.7z"/><path d="m48.453 42.162h-3.146v-3.146c0-.418-.339-.756-.756-.756-.418 0-.756.339-.756.756v3.146h-3.146c-.418 0-.756.339-.756.756 0 .418.339.756.756.756h3.146v3.146c0 .418.339.756.756.756.418 0 .756-.339.756-.756v-3.146h3.146c.418 0 .756-.339.756-.756s-.339-.756-.756-.756z"/><path d="m25.819 32.696h16.223c.573 0 1.038-.465 1.038-1.038s-.465-1.038-1.038-1.038h-16.223c-.573 0-1.038.465-1.038 1.038 0 .574.464 1.038 1.038 1.038z"/><path d="m25.819 26.676h13.11c.573 0 1.038-.465 1.038-1.038s-.465-1.038-1.038-1.038h-13.11c-.573 0-1.038.465-1.038 1.038 0 .574.464 1.038 1.038 1.038z"/></g></svg>