<svg height="64.299" viewBox="0 0 64.299 64.299" width="64.299" xmlns="http://www.w3.org/2000/svg"><g fill="#5f6062"><path d="m27.918 28.628h-5.6c-.384 0-.694.311-.694.694v11.964c0 .382.31.692.692.692h5.605c.382 0 .692-.31.692-.692v-11.964c-.001-.383-.312-.694-.695-.694z"/><path d="m32.149 0c-17.755 0-32.149 14.394-32.149 32.149 0 17.756 14.394 32.149 32.149 32.149s32.149-14.394 32.149-32.149c.001-17.755-14.393-32.149-32.149-32.149zm4.693 48h-20.627c-.68 0-1.231-.551-1.231-1.231s.551-1.231 1.231-1.231h21.755zm11.056 0h-8.645l.937-2.462h7.707c.68 0 1.231.551 1.231 1.231.001.68-.55 1.231-1.23 1.231zm3.223-18.003c-.252.285-.603.431-.955.431-.299 0-.599-.105-.841-.318l-1.503-1.325v14.142c0 .767-.622 1.389-1.389 1.389h-8.553l.986-2.591-2.354-6.858 5.587-4.392-4.597-5.724 2.671 5.724-5.766 4.09 2.161 7.356-1.098 2.395h-17.634c-.767 0-1.389-.622-1.389-1.389v-14.115l-1.473 1.298c-.527.465-1.332.414-1.797-.113s-.414-1.332.113-1.797l18.017-15.882c.481-.424 1.202-.424 1.684 0l7.953 7.011v-4.374c0-.383.311-.694.694-.694h3.24c.383 0 .694.311.694.694v8.455l5.435 4.791c.528.464.579 1.268.114 1.796z"/></g></svg>