<svg height="64.299" viewBox="0 0 64.299 64.299" width="64.299" xmlns="http://www.w3.org/2000/svg"><path d="m32.149 0c-17.755 0-32.149 14.394-32.149 32.149 0 17.756 14.394 32.149 32.149 32.149s32.149-14.394 32.149-32.149c.001-17.755-14.393-32.149-32.149-32.149zm1.997 42.319c0 3.064-2.493 5.556-5.556 5.556-3.064 0-5.556-2.493-5.556-5.556 0-.849.691-1.539 1.539-1.539.849 0 1.539.691 1.539 1.539 0 1.366 1.111 2.478 2.477 2.478s2.478-1.111 2.478-2.478v-9.855c0-.849.691-1.539 1.539-1.539.849 0 1.539.691 1.539 1.539v9.855zm9.789-13.727c-2.227 0-4.237.925-5.669 2.41-1.432-1.486-3.443-2.41-5.669-2.41-2.227 0-4.237.925-5.669 2.41-1.432-1.486-3.442-2.41-5.669-2.41-1.695 0-3.265.536-4.549 1.447.994-7.33 6.939-13.086 14.358-13.788v-.86c0-.849.691-1.539 1.539-1.539.849 0 1.539.691 1.539 1.539v.862c7.409.71 13.346 6.463 14.339 13.786-1.285-.911-2.855-1.447-4.55-1.447z" fill="#5f6062"/></svg>