<svg height="64.299" viewBox="0 0 64.299 64.299" width="64.299" xmlns="http://www.w3.org/2000/svg"><path d="m32.149 0c-17.755 0-32.149 14.394-32.149 32.149 0 17.756 14.394 32.149 32.149 32.149s32.149-14.394 32.149-32.149c.001-17.755-14.393-32.149-32.149-32.149zm-3.013 43.429c0 1.012-.824 1.836-1.836 1.836s-1.836-.824-1.836-1.836v-1.998l-6.255 6.255c-.347.347-.808.538-1.298.538s-.951-.191-1.298-.538-.538-.808-.538-1.298.191-.951.538-1.298l6.255-6.255h-2.135c-1.012 0-1.836-.824-1.836-1.836s.824-1.836 1.836-1.836h7.508c.493 0 .895.401.895.895zm-.895-14.293h-7.508c-1.012 0-1.836-.824-1.836-1.836s.824-1.836 1.836-1.836h2.135l-6.255-6.255c-.347-.347-.538-.808-.538-1.298s.191-.951.538-1.298.808-.538 1.298-.538.951.191 1.298.538l6.255 6.255v-1.998c0-1.012.824-1.836 1.836-1.836s1.836.824 1.836 1.836v7.371c0 .493-.402.895-.895.895zm19.445 18.55c-.347.347-.808.538-1.298.538s-.951-.191-1.298-.538l-6.255-6.255v2.135c0 1.012-.824 1.836-1.836 1.836s-1.836-.824-1.836-1.836v-7.508c0-.493.401-.895.895-.895h7.371c1.012 0 1.836.824 1.836 1.836s-.824 1.836-1.836 1.836h-1.998l6.255 6.255c.347.347.538.808.538 1.298 0 .491-.191.952-.538 1.298zm0-28.477-6.255 6.255h1.998c1.012 0 1.836.824 1.836 1.836s-.824 1.836-1.836 1.836h-7.371c-.493 0-.895-.401-.895-.895v-7.508c0-1.012.824-1.836 1.836-1.836s1.836.824 1.836 1.836v2.135l6.255-6.255c.347-.347.808-.538 1.298-.538s.951.191 1.298.538.538.808.538 1.298-.191.951-.538 1.298z" fill="#5f6062"/></svg>