<svg enable-background="new 0 0 64.3 64.3" viewBox="0 0 64.3 64.3" xmlns="http://www.w3.org/2000/svg"><path d="m48.1 16.9-5.7 5.8-2.5-2.6c-.3-.3-.8-.3-1.1 0s-.3.8 0 1.1l3.1 3.2c.2.2.4.2.6.2s.4-.1.6-.2l6.3-6.4c.3-.3.3-.8 0-1.1-.5-.4-1-.4-1.3 0z"/><path d="m32.1 0c-17.7 0-32.1 14.4-32.1 32.1 0 17.8 14.4 32.1 32.1 32.1s32.1-14.4 32.1-32.1c.1-17.7-14.3-32.1-32.1-32.1zm-10.9 12.2c0-.3.3-.5.5-.5h1.5c.3 0 .5.3.5.5v6.2c.1.3-.2.5-.5.5h-1.5c-.3 0-.5-.3-.5-.5zm29 35c0 1.5-1.2 2.6-2.6 2.6h-30.1c-1.5 0-2.6-1.2-2.6-2.6v-30.3c0-1.5 1.2-2.6 2.6-2.6h2v3.9c0 1.5 1.7 2.5 3.1 2.5 1.5 0 3.1-1.2 3.1-2.6v-3.9h9.9c-.5.6-1 1.4-1.3 2.2-.5 1.3-.8 2.6-.8 4s.3 2.7.8 4c.3.6.6 1.3 1.1 1.9h-18v19.9c0 .4.3.7.7.7h28.7c.4 0 .7-.3.7-.7v-16c.2 0 .2-.1.3-.1.8-.3 1.7-.8 2.3-1.4v18.5zm-14.8-12.6v.1s0 .1-.1.1c0 0 0 0-.1.1s-.2.1-.4.1h-4.5c-.4 0-.7-.3-.7-.7v-4.6c0-.4.3-.7.7-.7h4.6c.4 0 .7.3.7.7v4.6h-.1c0 .1 0 .2-.1.3zm.1 3.8v4.6c0 .1 0 .2-.1.3v.1s0 .1-.1.1c0 0 0 0-.1.1s-.2.1-.4.1h-4.5c-.4 0-.7-.3-.7-.7v-4.6c0-.4.3-.7.7-.7h4.6c.3.1.6.4.6.7zm-8.7-3.8v.1s0 .1-.1.1c0 0 0 0-.1.1s-.2.1-.4.1h-4.6c-.4 0-.7-.3-.7-.7v-4.6c0-.4.3-.7.7-.7h4.6c.4 0 .7.3.7.7v4.6c0 .1 0 .2-.1.3zm.1 3.8v4.6c0 .1 0 .2-.1.3v.1s0 .1-.1.1c0 0 0 0-.1.1s-.2.1-.4.1h-4.6c-.4 0-.7-.3-.7-.7v-4.6c0-.4.3-.7.7-.7h4.6c.4.1.7.4.7.7zm11.4-4.1v-4.6c0-.1 0-.2.1-.3.4.3 1 .5 1.4.7 1.3.5 2.6.8 4 .8h.4v3.5c0 .1 0 .2-.1.3v.1s0 .1-.1.1c0 0 0 0-.1.1s-.2.1-.4.1h-4.5v-.1c-.4.1-.7-.3-.7-.7zm5.5-5c-4.9 0-8.8-3.9-8.8-8.8s3.9-8.8 8.8-8.8 8.8 3.9 8.8 8.8-3.9 8.8-8.8 8.8z"/></svg>