<svg height="64.299" viewBox="0 0 64.299 64.299" width="64.299" xmlns="http://www.w3.org/2000/svg"><path d="m32.149 0c-17.755 0-32.149 14.394-32.149 32.149 0 17.756 14.394 32.149 32.149 32.149s32.149-14.394 32.149-32.149c.001-17.755-14.393-32.149-32.149-32.149zm3.946 11.519c.762-1.566 6.669-1.785 8.111 2.671 1.694 5.242-.19 8.151 2.157 10.524-1.705 1.249-3.694 1.092-5.355.555-.26.353-.532.691-.81 1.011.289 1.883 1.257 3.78 3.789 4.581.034.011.068.021.102.032-.004.002-.007.005-.011.007.19.059.383.119.577.18-.362.221-.709.48-1.037.777-.309-.281-.636-.529-.981-.744-.978-.61-2.088-.933-3.208-.933-1.409 0-2.746.491-3.851 1.34.272-.541.535-1.223.73-2.075.371-.246.712-.588 1.007-1.018.453-.66.734-1.421.773-2.09.024-.393.083-2.271-.866-3.416.12-1.087.171-1.919.11-2.532-.165-1.713-1.073-3.402-2.493-4.635-1.178-1.023-2.658-1.688-4.263-1.934 1.172-2.48 3.12-3.157 5.519-2.301zm-21.859 34.836s-.258-4.702.598-6.031c.951-1.484 3.274-2.407 6.437-3.722 3.16-1.317 3.911-1.773 3.911-1.773l.031-3.038s-1.184-.912-1.554-3.761c-.742.217-1.515-1.106-1.562-1.801-.039-.67.106-2.524 1.009-2.338-.183-1.401-.317-2.657-.256-3.321.239-2.443 2.637-5.008 6.323-5.008 3.688 0 6.089 2.565 6.323 5.008.067.664-.069 1.921-.25 3.321.901-.186 1.042 1.668 1.001 2.338-.039.695-.817 2.018-1.559 1.801-.367 2.849-1.548 3.761-1.548 3.761l.025 3.038s.005.003.016.009c-.08.221-.151.448-.213.68-.434 1.651-.557 4.276 1.318 7.411.709 1.186 1.64 2.329 2.784 3.425h-22.834zm29.378 2.467c-17.692-9.985-4.894-22.402 0-14.039 4.899-8.363 17.696 4.054 0 14.039z" fill="#5f6062"/></svg>