<svg height="64.299" viewBox="0 0 64.299 64.299" width="64.299" xmlns="http://www.w3.org/2000/svg"><g fill="#5f6062"><path d="m28.168 27.847h-6.101c-.245 0-.444.199-.444.444v13.806c0 .245.199.444.444.444h6.101c.245 0 .444-.199.444-.444v-13.806c0-.245-.199-.444-.444-.444z"/><path d="m42.274 27.847h-7.953c-.245 0-.444.199-.444.444v7.79c0 .245.199.444.444.444h7.953c.245 0 .444-.199.444-.444v-7.79c0-.245-.199-.444-.444-.444z"/><path d="m32.149 0c-17.755 0-32.149 14.394-32.149 32.149 0 17.756 14.394 32.149 32.149 32.149s32.149-14.394 32.149-32.149c.001-17.755-14.393-32.149-32.149-32.149zm18.972 29.216c-.252.285-.603.431-.955.431-.299 0-.599-.105-.841-.318l-1.503-1.325v15.484c0 .767-.622 1.389-1.389 1.389h-28.597c-.767 0-1.389-.622-1.389-1.389v-15.457l-1.473 1.298c-.527.465-1.332.414-1.797-.113s-.414-1.332.113-1.797l18.017-15.882c.481-.424 1.202-.424 1.684 0l7.953 7.011v-4.374c0-.383.311-.694.694-.694h3.24c.383 0 .694.311.694.694v8.455l5.435 4.791c.528.464.579 1.269.114 1.796z"/></g></svg>