<svg height="64.299" viewBox="0 0 64.299 64.299" width="64.299" xmlns="http://www.w3.org/2000/svg"><g fill="#5f6062"><path d="m40.734 23.565c-1.116-1.116-2.415-1.992-3.86-2.603-1.494-.632-3.084-.953-4.725-.953s-3.23.32-4.725.953c-1.445.611-2.744 1.487-3.86 2.603s-1.992 2.415-2.603 3.86c-.632 1.494-.953 3.084-.953 4.725s.321 3.23.953 4.725c.611 1.445 1.487 2.744 2.603 3.86s2.415 1.992 3.86 2.603c1.494.632 3.084.953 4.725.953s3.23-.32 4.725-.953c1.445-.611 2.744-1.487 3.86-2.603s1.992-2.415 2.603-3.86c.632-1.494.953-3.084.953-4.725s-.32-3.23-.953-4.725c-.611-1.445-1.487-2.744-2.603-3.86zm-9.912-.535c.073-.619.6-1.098 1.238-1.096h.012.001.003c.029 0 .057 0 .085.001.686.01 1.234.573 1.226 1.259-.001.044-.003.088-.009.132-.073.624-.608 1.104-1.25 1.096-.025 0-.05 0-.076-.001-.687-.002-1.242-.56-1.24-1.247.002-.049.005-.097.01-.144zm-6.147 6.475c-.01.084-.028.168-.056.251-.008.024-.016.048-.024.072-.212.653-.913 1.011-1.566.799-.574-.186-.92-.75-.852-1.327.009-.079.026-.159.052-.238.002-.006.004-.012.006-.017 0-.001.001-.002.001-.004v-.001c0-.001.001-.003.001-.004s.001-.002.001-.003c0 0 .001-.002.001-.002 0-.001.001-.002.001-.003s.001-.002.001-.003 0-.001.001-.002c.006-.019.013-.038.019-.057.219-.65.923-1 1.573-.782.569.188.909.749.841 1.321zm1.922-3.247c-.03.251-.136.496-.32.696-.017.019-.034.037-.051.056-.46.51-1.247.55-1.756.089-.311-.281-.447-.683-.401-1.069.029-.247.132-.487.311-.686.005-.006.011-.012.016-.018 0 0 0 0 .001-.001 0 0 .001-.001.001-.001.001-.001.002-.002.003-.004.001-.001.003-.003.004-.004l.033-.036.001-.001c.001-.001.002-.002.003-.003.002-.002.004-.004.006-.006.465-.505 1.251-.537 1.756-.072.305.28.438.677.393 1.06zm2.341-1.196c-.023.01-.046.02-.069.03-.627.279-1.362-.003-1.642-.63-.094-.212-.124-.435-.099-.65.05-.421.314-.807.73-.992.002-.001.004-.002.006-.002l.002-.001s.001-.001.005-.002c0 0 .001 0 .003-.001.018-.008.036-.016.054-.024.007-.003.014-.006.022-.009.63-.273 1.362.016 1.635.646.09.209.119.428.094.639-.05.425-.319.813-.741.996zm3.211 10.928c-.828 0-1.499-.671-1.499-1.499 0-.129.016-.255.047-.375l1.086-7.215c.022-.186.179-.326.366-.326s.344.14.366.326l1.086 7.215c.031.12.047.245.047.375 0 .828-.671 1.499-1.499 1.499zm4.815-11.469c-.286.624-1.024.898-1.649.612-.023-.01-.046-.021-.069-.031-.509-.227-.79-.755-.728-1.28.014-.122.047-.244.1-.362.28-.627 1.016-.908 1.643-.628.007.003.014.006.021.01.001 0 .002.001.003.001.023.01.045.021.068.031.502.231.776.754.715 1.275-.014.125-.049.25-.104.372zm.964 2.56c-.017-.019-.033-.038-.05-.057-.248-.277-.349-.634-.309-.976.034-.29.17-.57.405-.78.511-.458 1.296-.415 1.754.095.004.004.007.008.011.012.001.001.002.002.003.003.011.012.022.025.033.037.001.001.003.003.004.004l.001.001c.001.001.002.002.003.003s.001.001.002.002l.001.002c.001.001.002.003.003.004l.001.001c.002.002.004.005.006.007.242.276.34.628.3.966-.035.294-.174.577-.414.788-.515.455-1.301.404-1.754-.112zm4.022 2.618c-.056.472-.381.891-.865 1.042-.655.205-1.353-.161-1.557-.816-.008-.024-.015-.048-.023-.072-.057-.176-.072-.355-.052-.527.055-.468.375-.884.853-1.039.654-.211 1.354.148 1.565.801.004.012.008.023.011.035 0 .001.001.003.001.004s.001.002.001.003c.006.018.011.036.017.053.054.175.069.349.049.516z"/><path d="m32.149 0c-17.755 0-32.149 14.394-32.149 32.149 0 17.756 14.394 32.149 32.149 32.149s32.149-14.394 32.149-32.149c.001-17.755-14.393-32.149-32.149-32.149zm0 48.037c-8.775 0-15.888-7.113-15.888-15.888 0-8.774 7.113-15.888 15.888-15.888 8.774 0 15.888 7.113 15.888 15.888s-7.113 15.888-15.888 15.888z"/></g></svg>