<svg height="64.299" viewBox="0 0 64.299 64.299" width="64.299" xmlns="http://www.w3.org/2000/svg"><g fill="#5f6062"><path d="m41.115 26.246c1.79 0 3.245-1.509 3.245-3.36 0-1.85-1.455-3.356-3.245-3.356-1.788 0-3.243 1.505-3.243 3.356s1.455 3.36 3.243 3.36z"/><path d="m32.149 0c-17.755 0-32.149 14.394-32.149 32.149 0 17.756 14.394 32.149 32.149 32.149s32.149-14.394 32.149-32.149c.001-17.755-14.393-32.149-32.149-32.149zm8.966 17.667c2.788 0 5.048 2.337 5.048 5.219 0 .218-.018.432-.039.641-.422 4.079-4.607 8.784-4.607 8.784-.075.086-.15.141-.22.182h-.005l-.141.045-.14-.045h-.005c-.071-.041-.141-.096-.216-.182 0 0-4.246-4.701-4.677-8.775-.026-.214-.044-.428-.044-.651-.001-2.881 2.26-5.218 5.046-5.218zm7.294 12.084c-.321.238-.64.456-.799.574-.31.232-.415.697-.315.999.032.098.086.179.161.23.244.162-1.091.165-1.783.744-.181.152-.319.343-.373.587-.253 1.161-.855.134-.97.987-.002.013-.004.024-.005.037-.043.38-.11.689-.137.936-.037.354.01.581.342.702.203.074-.064.43-.508.872-.307.306-.7.652-1.081.973-.602.507-1.175.952-1.336 1.072-.105.078-.169.264-.201.501-.038.281-.028.634.016.973.065.503.207.977.389 1.136.095.083.156.241.194.438.054.282.058.644.034.973-.031.44-.108.825-.176.893-.111.11-.646-.441-.919-.893-.107-.176-.174-.338-.159-.439.021-.147.007-.337-.024-.535-.043-.285-.121-.585-.182-.796-.102-.358-1.077-.512-1.129-.205-.033.198-.367-.287-.723-.573-.195-.156-.396-.252-.56-.144-.074.049-.148.097-.22.144-.378.247-.704.469-.704.727 0 .307-2.053-.614-2.361-.564-.308.051-2.001.564-2.053 1.127-.008.084-.014.181-.02.284-.017.313-.025.689-.029.973-.003.252-.003.432-.003.432s-.369-.14-.784-.432c-.325-.229-.678-.551-.904-.973-.065-.121-.119-.249-.16-.386-.2-.683-.51-1.049-.773-1.187-.174-.091-.327-.083-.413 0-.018.017-.034.037-.045.06-.154.307-.41.717-.41.717s-.382-.332-.68-.778c-.124-.187-.235-.393-.296-.605-.052-.182-.214-.298-.433-.369-.594-.192-1.611-.052-2 0h-.394c-.684-.074-2.056-.415-2.356-.757-.359-.409-.924-.205-1.231-.154-.18.03-.499-.306-.805-.663-.219-.254-.431-.519-.581-.668-.081-.081-.207-.185-.351-.305-.486-.406-1.188-1.003-1.14-1.574.001-.011.001-.022.003-.034.066-.483-.337-.698-.632-.94-.162-.133-.292-.275-.292-.475v-5.068c0-.297-.387-.747-.526-1.089-.052-.129-.016-.275.013-.345.088-.219.552.162.78.308.038.024.07.043.092.05.024.008.047-.011.068-.05.033-.06.062-.165.088-.284.005-.026.01-.051.016-.078.054-.285.085-.611.085-.611h14.936s1.179.45 2.047.668c1.316 4.124 4.938 7.541 4.938 7.541.087.1.167.163.249.21h.005l.161.053.161-.053h.005c.081-.047.167-.11.252-.21 0 0 2.334-2.023 3.913-5.217.734-.017 1.292-.046 1.408-.074.279-.07.416-.258.475-.371.028-.054.038-.09.038-.09s1.735-.148 1.989.09c.004.004.009.008.013.012.125.162-.386.589-.895.966z"/></g></svg>