<svg height="64.299" viewBox="0 0 64.299 64.299" width="64.299" xmlns="http://www.w3.org/2000/svg"><path d="m32.149 0c-17.755 0-32.149 14.394-32.149 32.149 0 17.756 14.394 32.149 32.149 32.149s32.149-14.394 32.149-32.149c.001-17.755-14.393-32.149-32.149-32.149zm-6.662 20.823c-.211-1.61-.364-3.053-.294-3.817.275-2.807 3.031-5.755 7.266-5.755 4.238 0 6.997 2.948 7.265 5.755.077.763-.08 2.207-.287 3.817 1.035-.214 1.198 1.917 1.15 2.686-.045.799-.939 2.319-1.792 2.069-.422 3.274-1.779 4.321-1.779 4.321l.015 1.861c-1.549.612-3.459 1.198-4.62 1.198-1.129 0-2.994-.568-4.523-1.164l.019-1.896s-1.361-1.047-1.785-4.321c-.853.249-1.741-1.271-1.795-2.069-.043-.768.123-2.899 1.16-2.685zm-10.191 25.812s-.297-5.404.687-6.93c1.092-1.705 3.762-2.766 7.397-4.277 1.423-.593 2.421-1.034 3.108-1.352l2.971 12.558h-14.163zm15.449 0 .695-9.645c.02-.273.247-.484.52-.484h.933c.274 0 .501.211.52.484l.695 9.645zm3.62-12.168-.631 1.147c-.123.224-.359.364-.615.364h-1.356c-.256 0-.492-.139-.615-.364l-.631-1.147c-.258-.468.081-1.041.615-1.041h2.619c.533 0 .871.573.614 1.041zm15.012 12.168h-13.95l2.969-12.575c.688.318 1.696.765 3.143 1.368 3.635 1.511 6.059 2.571 7.154 4.277.974 1.526.684 6.93.684 6.93z" fill="#5f6062"/></svg>