<svg height="64.299" viewBox="0 0 64.299 64.299" width="64.299" xmlns="http://www.w3.org/2000/svg"><g fill="#5f6062"><circle cx="26.272" cy="37.058" r="1.286"/><path d="m40.249 35.941h-9.542c-.577 0-1.045.468-1.045 1.045s.468 1.045 1.045 1.045h9.542c.577 0 1.045-.468 1.045-1.045s-.468-1.045-1.045-1.045z"/><circle cx="26.272" cy="24.779" r="1.286"/><circle cx="26.272" cy="30.892" r="1.286"/><path d="m40.249 23.765h-9.542c-.577 0-1.045.468-1.045 1.045s.468 1.045 1.045 1.045h9.542c.577 0 1.045-.468 1.045-1.045s-.468-1.045-1.045-1.045z"/><path d="m32.149 0c-17.755 0-32.149 14.394-32.149 32.149 0 17.756 14.394 32.149 32.149 32.149s32.149-14.394 32.149-32.149c.001-17.755-14.393-32.149-32.149-32.149zm16.301 45.887c0 1.443-1.17 2.613-2.613 2.613h-25.039c-1.443 0-2.613-1.17-2.613-2.613v-30.285c0-1.443 1.17-2.613 2.613-2.613h25.039c1.443 0 2.613 1.17 2.613 2.613z"/><path d="m40.249 29.827h-9.542c-.577 0-1.045.468-1.045 1.045s.468 1.045 1.045 1.045h9.542c.577 0 1.045-.468 1.045-1.045s-.468-1.045-1.045-1.045z"/></g></svg>