<svg height="64.299" viewBox="0 0 64.299 64.299" width="64.299" xmlns="http://www.w3.org/2000/svg"><g fill="#5f6062"><path d="m45.249 45.84c0 .371.051.73.144 1.073 2.451-.603 4.372-2.566 4.912-5.041-.311-.076-.636-.117-.97-.117-2.253-.001-4.086 1.832-4.086 4.085z"/><circle cx="43.804" cy="40.451" r="1.83"/><path d="m38.274 41.754c-.334 0-.659.041-.97.117.54 2.474 2.461 4.438 4.912 5.041.093-.342.144-.701.144-1.073-.001-2.252-1.833-4.085-4.086-4.085z"/><path d="m43.804 33.797c-3.131 0-5.763 2.173-6.468 5.09 1.824-1.308 4.057-2.079 6.468-2.079s4.644.771 6.468 2.079c-.705-2.917-3.337-5.09-6.468-5.09z"/><path d="m32.149 0c-17.755 0-32.149 14.394-32.149 32.149 0 17.756 14.394 32.149 32.149 32.149s32.149-14.394 32.149-32.149c.001-17.755-14.393-32.149-32.149-32.149zm-16.853 46.592s-.297-5.402.687-6.928c1.092-1.705 3.761-2.765 7.394-4.275 3.63-1.513 4.492-2.037 4.492-2.037l.035-3.49s-1.36-1.047-1.785-4.32c-.853.249-1.74-1.27-1.795-2.069-.044-.769.121-2.899 1.159-2.685-.21-1.609-.364-3.052-.294-3.815.275-2.806 3.03-5.753 7.264-5.753 4.237 0 6.995 2.947 7.263 5.753.077.763-.08 2.206-.287 3.815 1.035-.214 1.197 1.916 1.149 2.685-.045.798-.939 2.318-1.791 2.069-.422 3.273-1.779 4.32-1.779 4.32l.02 2.41c-2.351 1.95-3.85 4.892-3.85 8.178 0 2.286.726 4.406 1.959 6.141h-19.841zm28.508 2.694c-4.88 0-8.835-3.956-8.835-8.835 0-4.88 3.955-8.835 8.835-8.835s8.835 3.956 8.835 8.835-3.955 8.835-8.835 8.835z"/></g></svg>