<svg height="64.299" viewBox="0 0 64.299 64.299" width="64.299" xmlns="http://www.w3.org/2000/svg"><g fill="#5f6062"><path d="m41.763 30.71c-1.393 0-2.585 1.191-2.585 2.584 0 1.39 1.192 2.583 2.585 2.583 1.39 0 2.583-1.192 2.583-2.583-.001-1.393-1.193-2.584-2.583-2.584z"/><path d="m19.699 30.71c-1.391 0-2.583 1.191-2.583 2.584 0 1.39 1.191 2.583 2.583 2.583 1.393 0 2.583-1.192 2.583-2.583-.001-1.393-1.191-2.584-2.583-2.584z"/><path d="m32.149 0c-17.755 0-32.149 14.394-32.149 32.149 0 17.756 14.394 32.149 32.149 32.149s32.149-14.394 32.149-32.149c.001-17.755-14.393-32.149-32.149-32.149zm17.164 42.255v3.047c0 1.502-1.218 2.72-2.72 2.72h-.798c-1.502 0-2.72-1.218-2.72-2.72v-1.85h-24.483v1.85c0 1.502-1.218 2.72-2.72 2.72h-.798c-1.502 0-2.72-1.218-2.72-2.72v-2.896c-.006-.049-.01-.1-.01-.151v-10.311h.004c.04-.964 1.114-2.321 2.175-3.434l3.446-9.365c.743-2.018 2.665-3.359 4.815-3.359h7.115c-.104.42-.185.845-.243 1.275l-.175 1.291h-6.696c-1.075 0-2.036.671-2.408 1.68l-2.031 5.519c-.164.447.166.92.642.92h15.632c1.01 1.48 2.709 2.454 4.632 2.454 3.09 0 5.603-2.514 5.603-5.603v-1.005l2.343 6.369c1.036 1.131 2.064 2.447 2.109 3.258h.004v10.311zm-13.76-18.934c0-.602.49-1.093 1.093-1.093.602 0 1.093.49 1.093 1.093 0 .835.679 1.514 1.514 1.514s1.514-.679 1.514-1.514v-4.674c0-.602.49-1.093 1.093-1.093.602 0 1.093.49 1.093 1.093v4.674c0 2.04-1.66 3.699-3.7 3.699-2.041 0-3.7-1.659-3.7-3.699zm13.658-6.944c-1.445 0-2.75.6-3.679 1.564-.929-.964-2.234-1.564-3.679-1.564s-2.75.6-3.679 1.564c-.929-.964-2.234-1.564-3.679-1.564-1.1 0-2.119.348-2.953.939.641-4.726 4.454-8.443 9.224-8.938v-.743c0-.602.49-1.093 1.093-1.093.602 0 1.093.49 1.093 1.093v.744c4.765.5 8.572 4.215 9.212 8.937-.834-.592-1.853-.939-2.953-.939z"/></g></svg>