<svg height="64.299" viewBox="0 0 64.299 64.299" width="64.299" xmlns="http://www.w3.org/2000/svg"><path d="m32.149 0c-17.755 0-32.149 14.394-32.149 32.149 0 17.756 14.394 32.149 32.149 32.149s32.149-14.394 32.149-32.149c.001-17.755-14.393-32.149-32.149-32.149zm-2.882 37.628-6.925 6.925h3.555c1.012 0 1.836.824 1.836 1.836s-.824 1.836-1.836 1.836h-8.928c-.493 0-.895-.401-.895-.895v-8.928c0-1.012.824-1.836 1.836-1.836s1.836.824 1.836 1.836v3.555l6.925-6.925c.347-.347.808-.538 1.298-.538s.951.191 1.298.538.538.808.538 1.298-.191.951-.538 1.298zm0-8.361c-.347.347-.808.538-1.298.538s-.951-.191-1.298-.538l-6.925-6.925v2.471c0 1.012-.824 1.836-1.836 1.836s-1.836-.824-1.836-1.836v-7.844c0-.493.401-.895.895-.895h8.928c1.012 0 1.836.824 1.836 1.836s-.824 1.836-1.836 1.836h-3.555l6.925 6.925c.347.347.538.808.538 1.298s-.191.951-.538 1.298zm18.062 18.957h-8.928c-1.012 0-1.836-.824-1.836-1.836s.824-1.836 1.836-1.836h3.555l-6.925-6.925c-.347-.347-.538-.808-.538-1.298s.191-.951.538-1.298.808-.538 1.298-.538.951.191 1.298.538l6.925 6.925v-3.555c0-1.012.824-1.836 1.836-1.836s1.836.824 1.836 1.836v8.928c0 .494-.401.895-.895.895zm.895-23.41c0 1.012-.824 1.836-1.836 1.836s-1.836-.824-1.836-1.836v-2.472l-6.925 6.925c-.347.347-.808.538-1.298.538s-.951-.191-1.298-.538c-.716-.716-.716-1.88 0-2.596l6.925-6.925h-3.555c-1.012 0-1.836-.824-1.836-1.836s.824-1.836 1.836-1.836h8.928c.493 0 .895.401.895.895z" fill="#5f6062"/></svg>