<svg height="64.299" viewBox="0 0 64.299 64.299" width="64.299" xmlns="http://www.w3.org/2000/svg"><g fill="#5f6062"><path d="m44.248 18.679c-.789.011-1.479.456-1.84 1.103-.166.298-.262.641-.266 1.004-.011.873.506 1.627 1.251 1.965v2.467c0 .305.249.553.554.553h.665c.306 0 .554-.248.554-.553v-2.467c.739-.336 1.251-1.079 1.251-1.941 0-.372-.098-.722-.266-1.028-.368-.665-1.082-1.114-1.903-1.103z"/><path d="m20.047 30.718c-1.36 0-2.524 1.164-2.524 2.526 0 1.359 1.164 2.524 2.524 2.524 1.361 0 2.524-1.166 2.524-2.524.001-1.361-1.162-2.526-2.524-2.526z"/><path d="m32.149 0c-17.755 0-32.149 14.394-32.149 32.149 0 17.756 14.394 32.149 32.149 32.149s32.149-14.394 32.149-32.149c.001-17.755-14.393-32.149-32.149-32.149zm6.931 13.844c0-1.373.536-2.664 1.51-3.634.973-.971 2.268-1.506 3.645-1.506h.086c1.377 0 2.672.533 3.645 1.503.974.971 1.51 2.261 1.51 3.634v.015.002h-1.778v-.015c0-1.857-1.514-3.369-3.379-3.369h-.086c-1.862 0-3.379 1.51-3.379 3.369v.015h-1.774zm9.913 28.159v2.978c0 1.468-1.19 2.658-2.658 2.658h-.78c-1.468 0-2.658-1.19-2.658-2.658v-1.808h-23.931v1.808c0 1.468-1.19 2.658-2.658 2.658h-.78c-1.468 0-2.658-1.19-2.658-2.658v-2.831c-.006-.048-.01-.098-.01-.148v-10.078h.004c.039-.942 1.089-2.268 2.126-3.357l3.368-9.153c.726-1.973 2.605-3.283 4.707-3.283h11.933c-.004.064-.007.129-.007.194v2.313h-11.928c-1.051 0-1.991.655-2.354 1.642l-1.985 5.395c-.161.436.162.9.628.9h15.636v1.349c0 1.636 1.332 2.966 2.969 2.966h2.764c-.942.372-1.636 1.304-1.636 2.354 0 1.359 1.166 2.524 2.527 2.524 1.359 0 2.524-1.166 2.524-2.524 0-1.05-.694-1.983-1.635-2.354h6.099c.226.389.371.745.387 1.034h.004v10.079zm2.719-14.08c0 .61-.497 1.106-1.109 1.106h-12.645c-.612 0-1.108-.495-1.108-1.106v-11.598c0-.61.496-1.106 1.108-1.106h12.645c.612 0 1.109.496 1.109 1.106z"/></g></svg>