<svg height="66" viewBox="0 0 66 66" width="66" xmlns="http://www.w3.org/2000/svg"><g fill="#5d5d5d" fill-rule="evenodd"><path d="m46.1 46.7c0 .4.1.7.1 1.1 2.5-.6 4.4-2.6 4.9-5-.3-.1-.6-.1-1-.1-2.2-.1-4 1.7-4 4z"/><circle cx="44.6" cy="41.3" r="1.8"/><path d="m39.1 42.6c-.3 0-.7 0-1 .1.5 2.5 2.5 4.4 4.9 5 .1-.3.1-.7.1-1.1.1-2.2-1.7-4-4-4z"/><path d="m44.6 34.7c-3.1 0-5.8 2.2-6.5 5.1 1.8-1.3 4.1-2.1 6.5-2.1s4.6.8 6.5 2.1c-.7-3-3.3-5.1-6.5-5.1z"/><path d="m33 .9c-17.8 0-32.1 14.4-32.1 32.1 0 17.8 14.4 32.1 32.1 32.1s32.1-14.4 32.1-32.1c0-17.8-14.4-32.1-32.1-32.1zm-16.9 46.5s-.3-5.4.7-6.9c1.1-1.7 3.8-2.8 7.4-4.3s4.5-2 4.5-2v-3.5s-1.4-1-1.8-4.3c-.9.2-1.7-1.3-1.8-2.1 0-.8.1-2.9 1.2-2.7-.2-1.6-.4-3.1-.3-3.8.3-2.8 3-5.8 7.3-5.8 4.2 0 7 2.9 7.3 5.8.1.8-.1 2.2-.3 3.8 1-.2 1.2 1.9 1.1 2.7 0 .8-.9 2.3-1.8 2.1-.4 3.3-1.8 4.3-1.8 4.3v2.4c-2.4 2-3.9 4.9-3.9 8.2 0 2.3.7 4.4 2 6.1zm28.5 2.7c-4.9 0-8.8-4-8.8-8.8 0-4.9 4-8.8 8.8-8.8 4.9 0 8.8 4 8.8 8.8.1 4.9-3.9 8.8-8.8 8.8z"/></g></svg>