<svg height="64.299" viewBox="0 0 64.299 64.299" width="64.299" xmlns="http://www.w3.org/2000/svg"><g fill="#5f6062"><circle cx="36.353" cy="21.951" r="1"/><path d="m20.013 31.093c-1.353 0-2.512 1.159-2.512 2.513 0 1.352 1.159 2.512 2.512 2.512 1.355 0 2.512-1.16 2.512-2.512 0-1.354-1.157-2.513-2.512-2.513z"/><circle cx="42.511" cy="14.388" r="1"/><circle cx="37.761" cy="17.067" r="1"/><path d="m32.149 0c-17.755 0-32.149 14.394-32.149 32.149 0 17.756 14.394 32.149 32.149 32.149s32.149-14.394 32.149-32.149c.001-17.755-14.393-32.149-32.149-32.149zm16.67 42.324v2.964c0 1.461-1.184 2.646-2.646 2.646h-.776c-1.461 0-2.646-1.184-2.646-2.646v-1.799h-23.815v1.799c0 1.461-1.184 2.646-2.646 2.646h-.776c-1.461 0-2.646-1.184-2.646-2.646v-2.817c-.006-.048-.01-.097-.01-.147v-10.03h.004c.039-.937 1.084-2.257 2.115-3.341l3.352-9.109c.722-1.963 2.592-3.268 4.684-3.268h9.638c-.342.788-.591 1.624-.737 2.496h-8.901c-1.046 0-1.981.652-2.342 1.634l-1.975 5.369c-.16.434.162.895.625.895h14.356c1.54 2.225 3.894 3.846 6.628 4.427-.79.431-1.345 1.274-1.345 2.21 0 1.352 1.16 2.512 2.514 2.512 1.352 0 2.512-1.16 2.512-2.512 0-.793-.398-1.519-.999-1.985 1.723-.069 3.344-.545 4.768-1.334.587.753 1.03 1.485 1.059 2.005h.004v10.031zm-6.307-12.486c-4.93 0-8.927-3.997-8.927-8.927s3.997-8.927 8.927-8.927c4.931 0 8.927 3.997 8.927 8.927s-3.997 8.927-8.927 8.927z"/><circle cx="48.723" cy="21.951" r="1"/><path d="m46.218 16.378-3.05 2.778c-.156-.05-.322-.077-.494-.077-.898 0-1.625.728-1.625 1.625s.728 1.625 1.625 1.625 1.625-.728 1.625-1.625c0-.143-.019-.281-.053-.413l3.026-2.756c.319-.291.343-.786.052-1.105-.292-.319-.787-.342-1.106-.052z"/></g></svg>