<svg height="64.299" viewBox="0 0 64.299 64.299" width="64.299" xmlns="http://www.w3.org/2000/svg"><g fill="#5f6062"><path d="m39.839 27.151c-.474 0-.92.185-1.254.522l-8.824 8.892-3.657-3.788c-.336-.348-.787-.539-1.271-.539-.46 0-.896.176-1.227.496-.701.677-.72 1.797-.044 2.498l4.911 5.086c.328.34.786.536 1.255.539h.016c.467 0 .924-.19 1.254-.522l10.095-10.173c.332-.335.514-.779.513-1.251-.002-.472-.187-.915-.522-1.247-.334-.331-.776-.513-1.245-.513z"/><path d="m32.149 0c-17.755 0-32.149 14.394-32.149 32.149 0 17.756 14.394 32.149 32.149 32.149s32.149-14.394 32.149-32.149c.001-17.755-14.393-32.149-32.149-32.149zm.206 9.645c4.97 0 9.013 4.043 9.013 9.013 0 .648-.525 1.174-1.174 1.174-.648 0-1.174-.525-1.174-1.174 0-3.675-2.99-6.666-6.666-6.666s-6.666 2.99-6.666 6.666c0 .648-.525 1.174-1.174 1.174-.648 0-1.174-.525-1.174-1.174.002-4.97 4.045-9.013 9.015-9.013zm15.902 36.232c0 1.296-1.051 2.347-2.347 2.347h-27.158c-1.296 0-2.347-1.051-2.347-2.347v-24.81c0-1.296 1.051-2.347 2.347-2.347h3.418c.033 1.266 1.072 2.286 2.346 2.286s2.313-1.02 2.346-2.286h10.987c.033 1.266 1.072 2.286 2.346 2.286s2.313-1.02 2.346-2.286h3.369c1.296 0 2.347 1.051 2.347 2.347z"/></g></svg>