<svg enable-background="new 0 0 64.299 64.299" height="64.299" viewBox="0 0 64.299 64.299" width="64.299" xmlns="http://www.w3.org/2000/svg"><path d="m32.149 0c-17.755 0-32.149 14.394-32.149 32.149 0 17.756 14.394 32.149 32.149 32.149s32.149-14.394 32.149-32.149c.001-17.755-14.393-32.149-32.149-32.149zm17.209 47.26h-34.062s-.297-5.401.686-6.927c1.092-1.705 3.76-2.764 7.393-4.274 3.629-1.513 4.491-2.036 4.491-2.036l.035-3.489s-1.36-1.047-1.784-4.319c-.853.249-1.74-1.27-1.794-2.068-.044-.769.121-2.898 1.159-2.685-.21-1.609-.364-3.052-.294-3.814.275-2.806 3.029-5.752 7.262-5.752 4.236 0 6.994 2.946 7.262 5.752.077.763-.08 2.206-.287 3.814 1.034-.214 1.197 1.916 1.149 2.685-.045.798-.939 2.317-1.791 2.068-.422 3.272-1.778 4.319-1.778 4.319l.029 3.489s.865.524 4.491 2.036c3.633 1.51 6.055 2.57 7.15 4.274.974 1.526.683 6.927.683 6.927z" fill="#5f6062"/></svg>