<svg height="64.299" viewBox="0 0 64.299 64.299" width="64.299" xmlns="http://www.w3.org/2000/svg"><g fill="#5f6062"><path d="m45.175 46.135c0 .373.051.735.145 1.078 2.464-.606 4.395-2.58 4.939-5.068-.313-.077-.639-.118-.976-.118-2.265.001-4.108 1.844-4.108 4.108z"/><path d="m38.163 42.028c-.336 0-.663.042-.976.118.543 2.488 2.475 4.462 4.939 5.068.094-.344.145-.705.145-1.078 0-2.265-1.843-4.108-4.108-4.108z"/><circle cx="43.723" cy="40.717" r="1.84"/><path d="m32.149 0c-17.755 0-32.149 14.394-32.149 32.149s14.394 32.149 32.149 32.149 32.149-14.394 32.149-32.149-14.393-32.149-32.149-32.149zm-5.542 46.99h-9.223s-.81-8.14.407-9.374c1.544-1.56 4.157-2.256 6.391-2.961 2.929-.927 4.058-3.12 4.396-5.3-.352-.403-.692-.833-1.021-1.28-1.664.669-3.583.964-5.675-.245 2.726-2.755.474-3.42 1.636-9.718 1.01-5.484 3.756-7.223 7.395-5.923.885-1.819 7.746-2.073 9.42 3.103 1.967 6.089-.221 9.468 2.506 12.224-1.98 1.45-4.291 1.268-6.22.645-.302.41-.618.802-.941 1.174.167 1.088.53 2.181 1.214 3.118-2.378 1.969-3.896 4.943-3.896 8.265 0 2.34.754 4.508 2.031 6.273h-8.42zm17.116 2.61c-4.906 0-8.883-3.977-8.883-8.883s3.977-8.883 8.883-8.883 8.883 3.977 8.883 8.883-3.977 8.883-8.883 8.883z"/><path d="m43.723 34.028c-3.147 0-5.794 2.185-6.503 5.118 1.833-1.315 4.079-2.091 6.503-2.091s4.669.775 6.503 2.091c-.709-2.933-3.355-5.118-6.503-5.118z"/></g></svg>