<svg height="64.299" viewBox="0 0 64.299 64.299" width="64.299" xmlns="http://www.w3.org/2000/svg"><g fill="#5f6062"><path d="m45.987 27.64c-2.77 0-5.09 1.959-5.649 4.564h3.029c.459-.988 1.461-1.675 2.621-1.675 1.159 0 2.161.687 2.62 1.675h2.014v1.984h-1.851c-.338 1.22-1.458 2.119-2.784 2.119s-2.446-.899-2.784-2.119h-2.942c.378 2.823 2.801 5.008 5.726 5.008 3.186 0 5.778-2.592 5.778-5.778s-2.592-5.778-5.778-5.778z"/><path d="m22.002 28.976-1.089 3.186c.184.38.288.806.288 1.256 0 1.593-1.296 2.889-2.889 2.889s-2.889-1.296-2.889-2.889 1.296-2.889 2.889-2.889c.236 0 .466.029.686.083l.935-2.74c-.514-.151-1.058-.232-1.621-.232-3.186 0-5.778 2.592-5.778 5.778s2.592 5.778 5.778 5.778 5.778-2.592 5.778-5.778c-.001-1.784-.813-3.381-2.088-4.442z"/><path d="m30.593 28.741c.266.215.573.442.921.67.535-.445 1.222-.712 1.972-.712 1.555 0 2.841 1.15 3.055 2.646.321.056.653.103.996.141.335-1.473 1.046-2.804 2.026-3.885h-10.108z"/><path d="m32.149 0c-17.755 0-32.149 14.394-32.149 32.149 0 17.756 14.394 32.149 32.149 32.149s32.149-14.394 32.149-32.149c.001-17.755-14.393-32.149-32.149-32.149zm-14.896 16.624h2.19c.931 0 1.686.755 1.686 1.686v1.268c0 .931-.755 1.686-1.686 1.686h-2.19zm28.734 25.461c-4.527 0-8.243-3.471-8.632-7.897h-4.066l-7.54-8.281-1.131-4.58-1.637 4.788c2.404 1.54 3.998 4.236 3.998 7.303 0 4.786-3.88 8.667-8.667 8.667-4.786 0-8.667-3.88-8.667-8.667s3.88-8.667 8.667-8.667c.889 0 1.747.134 2.555.383l2.619-7.675c.535-1.567 2.007-2.62 3.663-2.62h4.136v1.074h-3.702c-.667 0-1.26.424-1.476 1.056l-.603 1.763 9.658 4.275h14.837c.957 0 1.733.776 1.733 1.733v2.189c1.792 1.588 2.921 3.906 2.921 6.488.001 4.788-3.879 8.668-8.666 8.668z"/></g></svg>