<svg height="64.299" viewBox="0 0 64.299 64.299" width="64.299" xmlns="http://www.w3.org/2000/svg"><g fill="#5f6062"><path d="m32.724 20.726h-1.172c-.817 0-1.464.688-1.415 1.503l.586 9.762c.045.749.665 1.333 1.415 1.333s1.37-.584 1.415-1.333l.586-9.762c.049-.815-.599-1.503-1.415-1.503z"/><path d="m32.149 0c-17.755 0-32.149 14.394-32.149 32.149s14.394 32.149 32.149 32.149 32.149-14.394 32.149-32.149-14.393-32.149-32.149-32.149zm17.251 43.099h-34.501c-1.288 0-2.083-1.407-1.418-2.51l17.251-28.612c.644-1.068 2.192-1.068 2.835 0l17.251 28.612c.665 1.103-.13 2.51-1.418 2.51z"/><path d="m32.149 35.438c-.928 0-1.681.753-1.681 1.681v.04c0 .928.753 1.681 1.681 1.681s1.681-.753 1.681-1.681v-.04c0-.929-.752-1.681-1.681-1.681z"/></g></svg>