<svg height="64.299" viewBox="0 0 64.299 64.299" width="64.299" xmlns="http://www.w3.org/2000/svg"><path d="m32.149 0c-17.755 0-32.149 14.394-32.149 32.149s14.394 32.149 32.149 32.149 32.149-14.394 32.149-32.149-14.393-32.149-32.149-32.149zm16.476 46.332c0 .517-.419.936-.936.936h-29.881c-.517 0-.936-.419-.936-.936v-29.881c0-.517.419-.936.936-.936h14.589c1.099 0 1.989.891 1.989 1.989 0 1.099-.891 1.989-1.989 1.989h-10.61c-.517 0-.936.419-.936.936v21.924c0 .517.419.936.936.936h21.924c.517 0 .936-.419.936-.936v-10.611c0-1.099.891-1.989 1.989-1.989 1.099 0 1.989.891 1.989 1.989zm2.368-21.291c0 1.163-.943 2.106-2.106 2.106s-2.106-.943-2.106-2.106v-4.677l-9.865 9.865c-.822.822-2.156.822-2.979 0-.822-.822-.822-2.156 0-2.979l9.865-9.865h-4.677c-1.163 0-2.106-.943-2.106-2.106s.943-2.106 2.106-2.106h10.932c.517 0 .936.419.936.936z" fill="#5f6062"/></svg>