<svg height="64.299" viewBox="0 0 64.299 64.299" width="64.299" xmlns="http://www.w3.org/2000/svg"><path d="m32.149 0c-17.755 0-32.149 14.394-32.149 32.149 0 17.756 14.394 32.149 32.149 32.149s32.149-14.394 32.149-32.149c.001-17.755-14.393-32.149-32.149-32.149zm15.276 44.117c.914.914.914 2.395 0 3.308-.914.914-2.395.914-3.308 0l-11.968-11.967-11.967 11.967c-.914.914-2.395.914-3.308 0-.914-.914-.914-2.395 0-3.308l11.968-11.968-11.969-11.967c-.914-.914-.914-2.395 0-3.308.914-.914 2.395-.914 3.308 0l11.968 11.968 11.968-11.968c.914-.914 2.395-.914 3.308 0 .914.914.914 2.395 0 3.308l-11.967 11.967z" fill="#5f6062"/></svg>