<svg height="64.299" viewBox="0 0 64.299 64.299" width="64.299" xmlns="http://www.w3.org/2000/svg"><g fill="#5f6062"><path d="m29.886 22.302-3.027 2.873h12.424v-3.628h-7.134c-.81 0-1.614.268-2.263.755z"/><circle cx="46.824" cy="37.144" r="1.755"/><circle cx="18.983" cy="37.144" r="1.755"/><path d="m48.641 21.547h-7.579v3.628h10.818l-.823-2.008c-.404-.984-1.352-1.62-2.416-1.62z"/><path d="m32.149 0c-17.755 0-32.149 14.394-32.149 32.149 0 17.756 14.394 32.149 32.149 32.149s32.149-14.394 32.149-32.149c.001-17.755-14.393-32.149-32.149-32.149zm-13.166 41.584c-2.452 0-4.44-1.988-4.44-4.439 0-2.452 1.988-4.439 4.44-4.439s4.439 1.988 4.439 4.439c.001 2.451-1.987 4.439-4.439 4.439zm27.841 0c-2.452 0-4.439-1.988-4.439-4.439 0-2.452 1.988-4.439 4.439-4.439 2.452 0 4.44 1.988 4.44 4.439-.001 2.451-1.988 4.439-4.44 4.439zm7.83-5.531c0 .961-.779 1.74-1.74 1.74h-.236c.024-.213.036-.43.036-.649 0-3.248-2.642-5.89-5.89-5.89-3.247 0-5.89 2.642-5.89 5.89 0 .219.012.436.036.649h-16.133c.024-.213.036-.43.036-.649 0-3.248-2.642-5.89-5.89-5.89s-5.889 2.642-5.889 5.89c0 .219.012.436.036.649h-1.745c-.961 0-1.74-.779-1.74-1.74v-1.608c0-.961.779-1.74 1.74-1.74h.298v-3.469c0-2.242 1.818-4.06 4.06-4.06h7.734l5.191-4.497c1.004-.754 2.226-1.161 3.481-1.161h16.492c1.883 0 3.579 1.138 4.293 2.88l1.139 2.778v7.53c.32 0 .58.26.58.58v2.767z"/></g></svg>