<svg height="64.299" viewBox="0 0 64.299 64.299" width="64.299" xmlns="http://www.w3.org/2000/svg"><path d="m32.149 0c-17.755 0-32.149 14.394-32.149 32.149 0 17.756 14.394 32.149 32.149 32.149s32.149-14.394 32.149-32.149c.001-17.755-14.393-32.149-32.149-32.149zm-5.039 32.878 13.246 13.246c.843.843.843 2.21 0 3.053l-.175.175c-.843.843-2.21.843-3.053 0l-16.475-16.474c-.421-.422-.421-1.105 0-1.527l16.474-16.474c.843-.843 2.21-.843 3.053 0l.175.175c.843.843.843 2.21 0 3.053l-13.245 13.246c-.422.422-.422 1.106 0 1.527z" fill="#5f6062"/></svg>