<svg height="64.299" viewBox="0 0 64.299 64.299" width="64.299" xmlns="http://www.w3.org/2000/svg"><path d="m32.149 0c-17.755 0-32.149 14.394-32.149 32.149 0 17.756 14.394 32.149 32.149 32.149s32.149-14.394 32.149-32.149c.001-17.755-14.393-32.149-32.149-32.149zm-6.333 39.27c0 .319-.117.595-.355.829-.237.233-.518.35-.843.35h-6.514c-.324 0-.605-.117-.843-.35-.236-.234-.355-.51-.355-.829v-11.697c0-.32.119-.597.355-.83.236-.232.519-.349.843-.349h6.514c.325 0 .606.117.843.349.238.233.355.51.355.83zm22.788-11.783c-.199.828-.76 1.473-1.474 1.81.482.625.689 1.455.489 2.283-.199.828-.76 1.473-1.474 1.81.482.625.689 1.455.489 2.283-.199.828-.76 1.473-1.474 1.81.482.625.689 1.455.489 2.283-.316 1.316-1.546 2.169-2.855 2.057-.018.001-.036.003-.055.003v.001h-7.194c-.15 0-.299-.014-.446-.043l-6.992-1.359c-.659-.128-1.135-.705-1.135-1.376v-11.624c0-.499.265-.96.695-1.211l3.548-2.071h.004l5.364-8.508c.661-1.049 2.048-1.363 3.097-.702.901.568 1.279 1.691.904 2.689l-2.449 6.521h7.397c.027 0 .052.003.077.007.159-.012.32-.009.482.006.171.007.343.03.516.072 1.453.349 2.346 1.808 1.997 3.259z" fill="#5f6062"/></svg>