<svg height="64.299" viewBox="0 0 64.299 64.299" width="64.299" xmlns="http://www.w3.org/2000/svg"><g fill="#5f6062"><path d="m35.69 36.019h-10.478c-.571 0-1.034.463-1.034 1.034s.463 1.034 1.034 1.034h10.478c.571 0 1.034-.463 1.034-1.034s-.463-1.034-1.034-1.034z"/><path d="m25.212 26.038h13.064c.571 0 1.034-.463 1.034-1.034s-.463-1.034-1.034-1.034h-13.064c-.571 0-1.034.463-1.034 1.034s.463 1.034 1.034 1.034z"/><path d="m41.379 29.968h-16.167c-.571 0-1.034.463-1.034 1.034s.463 1.034 1.034 1.034h16.167c.571 0 1.034-.463 1.034-1.034 0-.57-.463-1.034-1.034-1.034z"/><path d="m32.149 0c-17.755 0-32.149 14.394-32.149 32.149 0 17.756 14.394 32.149 32.149 32.149s32.149-14.394 32.149-32.149c.001-17.755-14.393-32.149-32.149-32.149zm15.277 45.862c0 1.428-1.158 2.586-2.586 2.586h-24.78c-1.428 0-2.586-1.158-2.586-2.586v-29.971c0-1.428 1.158-2.586 2.586-2.586h24.781c1.428 0 2.586 1.158 2.586 2.586v29.971z"/></g></svg>