<svg height="64.299" viewBox="0 0 64.299 64.299" width="64.299" xmlns="http://www.w3.org/2000/svg"><g fill="#5f6062"><path d="m32.595 20.187c-3.838 0-6.961 3.232-6.961 7.204 0 3.973 3.124 7.213 6.961 7.213 3.843 0 6.966-3.239 6.966-7.213 0-3.973-3.123-7.204-6.966-7.204z"/><path d="m32.149 0c-17.755 0-32.149 14.394-32.149 32.149 0 17.756 14.394 32.149 32.149 32.149s32.149-14.394 32.149-32.149c.001-17.755-14.393-32.149-32.149-32.149zm11.198 28.767c-.906 8.756-9.89 18.857-9.89 18.857-.161.185-.321.303-.472.391h-.01l-.302.097-.301-.097h-.01c-.152-.088-.302-.206-.465-.391 0 0-9.116-10.092-10.04-18.836-.055-.46-.095-.918-.095-1.397 0-6.187 4.852-11.202 10.833-11.202 5.986 0 10.836 5.016 10.836 11.202 0 .469-.038.926-.084 1.376z"/></g></svg>