<svg height="64.299" viewBox="0 0 64.299 64.299" width="64.299" xmlns="http://www.w3.org/2000/svg"><g fill="#5f6062"><path d="m21.337 29.311c-1.361 0-2.526 1.165-2.526 2.527 0 1.36 1.165 2.526 2.526 2.526 1.362 0 2.526-1.166 2.526-2.526 0-1.362-1.164-2.527-2.526-2.527z"/><path d="m20.642 25.165h23.16c.465 0 .789-.463.628-.9l-1.986-5.398c-.363-.987-1.303-1.643-2.355-1.643h-15.734c-1.052 0-1.992.656-2.355 1.643l-1.986 5.397c-.16.437.163.901.628.901z"/><path d="m42.915 29.311c-1.362 0-2.528 1.165-2.528 2.527 0 1.36 1.166 2.526 2.528 2.526 1.36 0 2.526-1.166 2.526-2.526-.001-1.362-1.167-2.527-2.526-2.527z"/><path d="m32.149 0c-17.755 0-32.149 14.394-32.149 32.149 0 17.756 14.394 32.149 32.149 32.149s32.149-14.394 32.149-32.149c.001-17.755-14.393-32.149-32.149-32.149zm18.149 40.602v2.98c0 1.469-1.191 2.66-2.66 2.66h-.78c-1.469 0-2.66-1.191-2.66-2.66v-1.809h-23.943v1.809c0 1.469-1.191 2.66-2.66 2.66h-.78c-1.469 0-2.66-1.191-2.66-2.66v-2.832c-.006-.048-.01-.098-.01-.148v-10.084h.004c.039-.942 1.089-2.269 2.127-3.359l3.37-9.158c.726-1.974 2.606-3.285 4.709-3.285h15.734c2.103 0 3.983 1.311 4.709 3.285l3.433 9.33c1.013 1.106 2.018 2.393 2.063 3.187h.004z"/></g></svg>