<svg height="64.299" viewBox="0 0 64.299 64.299" width="64.299" xmlns="http://www.w3.org/2000/svg"><g fill="#5f6062"><path d="m27.266 21.902-3.016 2.862h10.47v-3.614h-5.2c-.807 0-1.608.267-2.254.752z"/><circle cx="46.854" cy="34.953" r="1.749"/><circle cx="18.716" cy="34.953" r="1.749"/><path d="m41.269 21.15h-4.777v3.614h8.234l-.936-2c-.402-.981-1.462-1.614-2.521-1.614z"/><path d="m32.149 0c-17.755 0-32.149 14.394-32.149 32.149 0 17.756 14.394 32.149 32.149 32.149s32.149-14.394 32.149-32.149c.001-17.755-14.393-32.149-32.149-32.149zm-13.433 39.376c-2.442 0-4.422-1.98-4.422-4.422s1.98-4.422 4.422-4.422 4.422 1.98 4.422 4.422-1.98 4.422-4.422 4.422zm28.138 0c-2.442 0-4.422-1.98-4.422-4.422s1.98-4.422 4.422-4.422 4.422 1.98 4.422 4.422-1.98 4.422-4.422 4.422zm7.8-5.509c0 .957-.776 1.733-1.733 1.733h-.236c.023-.212.036-.428.036-.647 0-3.235-2.632-5.867-5.867-5.867s-5.867 2.632-5.867 5.867c0 .219.012.434.036.647h-16.476c.023-.212.036-.428.036-.647 0-3.235-2.632-5.867-5.867-5.867s-5.867 2.632-5.867 5.867c0 .219.012.434.036.647h-1.507c-.957 0-1.733-.776-1.733-1.733v-1.602c0-.957.776-1.733 1.733-1.733h.066v-1.723c0-2.234 1.811-4.044 4.044-4.044h5.393l5.171-4.48c1-.751 2.217-1.156 3.468-1.156h11.749c1.876 0 3.565 1.133 4.277 2.869l1.366 2.768 5.434.008c.956.001 1.731.777 1.731 1.733v4.026c.319 0 .578.259.578.578v2.756z"/></g></svg>