<svg height="64.299" viewBox="0 0 64.299 64.299" width="64.299" xmlns="http://www.w3.org/2000/svg"><g fill="#5f6062"><path d="m32.515 39.013h-9.325c-.508 0-.92.412-.92.92s.412.92.92.92h9.324c.508 0 .92-.412.92-.92.001-.508-.411-.92-.919-.92z"/><path d="m37.577 33.629h-14.387c-.508 0-.92.412-.92.92s.412.92.92.92h14.387c.508 0 .92-.412.92-.92s-.412-.92-.92-.92z"/><path d="m23.19 30.131h11.626c.508 0 .92-.412.92-.92s-.412-.92-.92-.92h-11.626c-.508 0-.92.412-.92.92s.412.92.92.92z"/><path d="m32.149 0c-17.755 0-32.149 14.394-32.149 32.149 0 17.756 14.394 32.149 32.149 32.149s32.149-14.394 32.149-32.149c.001-17.755-14.393-32.149-32.149-32.149zm10.81 47.772c0 1.271-1.03 2.301-2.301 2.301h-22.052c-1.271 0-2.301-1.03-2.301-2.301v-26.671c0-1.271 1.03-2.301 2.301-2.301h22.052c1.271 0 2.301 1.03 2.301 2.301zm5.278-5.211c0 1.271-1.03 2.301-2.301 2.301h-1.096v-23.761c0-2.306-1.876-4.182-4.182-4.182h-19.076v-1.03c0-1.271 1.03-2.301 2.301-2.301h22.052c1.271 0 2.301 1.03 2.301 2.301v26.672z"/></g></svg>