<svg height="64.299" viewBox="0 0 64.299 64.299" width="64.299" xmlns="http://www.w3.org/2000/svg"><g fill="#5f6062"><path d="m43.566 36.446h-19.067c-.587 0-1.063.468-1.063 1.045s.476 1.045 1.063 1.045h19.067c.587 0 1.063-.468 1.063-1.045-.001-.577-.476-1.045-1.063-1.045z"/><path d="m24.55 32.498h7.635c.575 0 1.045-.47 1.045-1.045v-6.521c0-.575-.47-1.045-1.045-1.045h-7.635c-.575 0-1.045.47-1.045 1.045v6.521c.001.575.471 1.045 1.045 1.045z"/><path d="m17.647 21.5c-.577 0-1.045.468-1.045 1.045v19.813c0 .577.468 1.045 1.045 1.045s1.045-.468 1.045-1.045v-19.814c0-.577-.468-1.044-1.045-1.044z"/><path d="m43.584 23.909h-6.196c-.577 0-1.045.468-1.045 1.045s.468 1.045 1.045 1.045h6.196c.577 0 1.045-.468 1.045-1.045s-.468-1.045-1.045-1.045z"/><path d="m32.149 0c-17.755 0-32.149 14.394-32.149 32.149 0 17.756 14.394 32.149 32.149 32.149s32.149-14.394 32.149-32.149c.001-17.755-14.393-32.149-32.149-32.149zm17.7 44.376c0 1.227-.995 2.222-2.222 2.222h-21.367-8.561c-1.841 0-3.334-1.493-3.334-3.334v-21.973c0-1.327 1.076-2.403 2.403-2.403h2.08v-.222c0-1.227.995-2.222 2.222-2.222h26.556c1.227 0 2.222.995 2.222 2.222v25.71z"/><path d="m43.584 30.178h-6.196c-.577 0-1.045.468-1.045 1.045s.468 1.045 1.045 1.045h6.196c.577 0 1.045-.468 1.045-1.045-.001-.578-.468-1.045-1.045-1.045z"/></g></svg>