<?xml version="1.0" encoding="utf-8"?>
<!-- Generator: Adobe Illustrator 19.1.0, SVG Export Plug-In . SVG Version: 6.00 Build 0)  -->
<svg version="1.1" id="icons" xmlns="http://www.w3.org/2000/svg" xmlns:xlink="http://www.w3.org/1999/xlink" x="0px" y="0px"
	 viewBox="0 0 100 100" enable-background="new 0 0 100 100" xml:space="preserve">
<g>
	<path fill="#5F6062" d="M87.5,47l-10.7-9.4V20.9c0-0.8-0.6-1.4-1.4-1.4H69c-0.8,0-1.4,0.6-1.4,1.4v8.6L52,15.7
		c-0.9-0.8-2.4-0.8-3.3,0L13.2,47c-1,0.9-1.1,2.5-0.2,3.5c0.9,1,2.5,1.1,3.5,0.2l2.9-2.6V76c0,1.5,1.2,2.7,2.7,2.7h34.7l2.2-4.7
		l-4.3-14.5l11.4-8.1l-5.3-11.3L70,51.4l-11,8.6l4.6,13.5l-1.9,5.1h16.8c1.5,0,2.7-1.2,2.7-2.7V48.1l3,2.6c0.5,0.4,1.1,0.6,1.7,0.6
		c0.7,0,1.4-0.3,1.9-0.8C88.6,49.5,88.5,47.9,87.5,47z M42,74.1H31c-0.8,0-1.4-0.6-1.4-1.4V49.2c0-0.8,0.6-1.4,1.4-1.4h11
		c0.8,0,1.4,0.6,1.4,1.4v23.6C43.4,73.5,42.8,74.1,42,74.1z"/>
	<g>
		<path fill="#5F6062" d="M61.8,81.1H19c-1.3,0-2.4,1.1-2.4,2.4c0,1.3,1.1,2.4,2.4,2.4h40.6L61.8,81.1z"/>
		<path fill="#5F6062" d="M81.4,81.1H66.2l-1.8,4.8h17c1.3,0,2.4-1.1,2.4-2.4C83.8,82.2,82.7,81.1,81.4,81.1z"/>
	</g>
</g>
</svg>
