<?xml version="1.0" encoding="utf-8"?>
<!-- Generator: Adobe Illustrator 19.1.0, SVG Export Plug-In . SVG Version: 6.00 Build 0)  -->
<svg version="1.1" id="icons" xmlns="http://www.w3.org/2000/svg" xmlns:xlink="http://www.w3.org/1999/xlink" x="0px" y="0px"
	 viewBox="0 0 100 100" enable-background="new 0 0 100 100" xml:space="preserve">
<g>
	<g>
		<path fill="#5F6062" d="M80.8,69.2c-2.1-3.2-6.6-5.2-13.5-8.1c-2.7-1.1-4.6-2-5.9-2.6l-5.6,23.7H82C82,82.3,82.6,72.1,80.8,69.2z"
			/>
		<path fill="#5F6062" d="M38.2,42.6c0.8,6.2,3.4,8.1,3.4,8.1l0,3.6c2.9,1.1,6.4,2.2,8.5,2.2c2.2,0,5.8-1.1,8.7-2.3l0-3.5
			c0,0,2.6-2,3.4-8.1c1.6,0.5,3.3-2.4,3.4-3.9c0.1-1.5-0.2-5.5-2.2-5.1c0.4-3,0.7-5.8,0.5-7.2c-0.5-5.3-5.7-10.8-13.7-10.8
			c-8,0-13.2,5.6-13.7,10.8c-0.1,1.4,0.2,4.2,0.6,7.2c-2-0.4-2.3,3.6-2.2,5.1C34.9,40.2,36.6,43.1,38.2,42.6z"/>
		<path fill="#5F6062" d="M38.9,58.6c-1.3,0.6-3.2,1.4-5.9,2.5C26.2,64,21.2,66,19.1,69.2c-1.9,2.9-1.3,13.1-1.3,13.1h26.7
			L38.9,58.6z"/>
	</g>
	<path fill="#5F6062" d="M53.7,59.3l-1.2,2.2c-0.2,0.4-0.7,0.7-1.2,0.7h-2.6c-0.5,0-0.9-0.3-1.2-0.7l-1.2-2.2c-0.5-0.9,0.2-2,1.2-2
		h4.9C53.6,57.4,54.2,58.5,53.7,59.3z"/>
	<path fill="#5F6062" d="M53.3,82.3h-6.3l1.3-18.2c0-0.5,0.5-0.9,1-0.9H51c0.5,0,0.9,0.4,1,0.9L53.3,82.3z"/>
</g>
</svg>
