<?xml version="1.0" encoding="utf-8"?>
<!-- Generator: Adobe Illustrator 19.1.0, SVG Export Plug-In . SVG Version: 6.00 Build 0)  -->
<svg version="1.1" id="icons" xmlns="http://www.w3.org/2000/svg" xmlns:xlink="http://www.w3.org/1999/xlink" x="0px" y="0px"
	 viewBox="0 0 100 100" enable-background="new 0 0 100 100" xml:space="preserve">
<path fill="#5F6062" d="M89,66.7h-9.1V27.2c0-1.9-1.6-3.5-3.5-3.5H25.3c-1.9,0-3.5,1.6-3.5,3.5v39.5h-9.1c-0.6,0-1,0.5-1,1v4.1
	c0,1.7,1.4,3,3.2,3h71.9c1.8,0,3.2-1.4,3.2-3v-4.1C90,67.1,89.5,66.7,89,66.7z M60.3,68.7H41.7c-1.1,0-2-0.8-2.1-1.9h22.8
	C62.3,67.8,61.4,68.7,60.3,68.7z M73.4,58.7c0,0.8-0.7,1.5-1.5,1.5H29.8c-0.8,0-1.5-0.7-1.5-1.5v-27c0-0.8,0.7-1.5,1.5-1.5h42.1
	c0.8,0,1.5,0.7,1.5,1.5V58.7z"/>
</svg>
