<?xml version="1.0" encoding="UTF-8"?>
<svg width="66px" height="40px" viewBox="0 0 66 40" version="1.1" xmlns="http://www.w3.org/2000/svg" xmlns:xlink="http://www.w3.org/1999/xlink" xmlns:sketch="http://www.bohemiancoding.com/sketch/ns">
    <!-- Generator: Sketch 3.4.2 (15855) - http://www.bohemiancoding.com/sketch -->
    <title>core-aaa-logo</title>
    <desc>Created with Sketch.</desc>
    <defs></defs>
    <g id="Page-1" stroke="none" stroke-width="1" fill="none" fill-rule="evenodd" sketch:type="MSPage">
        <g id="core-aaa-logo" sketch:type="MSLayerGroup">
            <g id="Group" sketch:type="MSShapeGroup">
                <g transform="translate(2.000000, 0.000000)" id="Shape" fill="#00529A">
                    <path d="M63.6,2 C61.7,-1.3 52.1,0.5 39.1,6.5 L38.9,6.6 L39.1,6.7 C39.8,7.2 40.4,7.7 40.9,8.3 L41,8.4 L41.1,8.4 C50.8,4.3 58,3.2 59.4,5.7 C61.1,8.6 54.4,16 43.1,23.6 L43,23.7 L43.3,24 L43.4,23.9 C57.4,14.6 65.7,5.6 63.6,2 L63.6,2 Z"></path>
                    <path d="M18.2,36.1 C10.9,38.7 5.9,39 4.8,37 C3.8,35.3 5.8,31.8 10.4,27.5 L10.6,27.3 L9.3,26.8 C9.2,26.8 8.2,26.3 8.2,26.3 L8.1,26.3 L8,26.4 C2.3,31.7 -0.2,35.8 1.1,38 C2.6,40.6 8.9,40.1 18.4,36.5 L18.6,36.4 L18.3,36 L18.2,36.1 L18.2,36.1 Z"></path>
                </g>
                <path d="M23.6,1.2 C11.1,1.2 0.9,7.5 0.9,15.3 C0.9,23.1 11.1,29.4 23.6,29.4 C36.1,29.4 46.3,23.1 46.3,15.3 C46.3,7.5 36.1,1.2 23.6,1.2 L23.6,1.2 Z M19.7,20.8 L25.1,20.8 C25.2,21 26.9,27.3 27,27.6 C25.9,27.7 24.7,27.8 23.6,27.8 C21.7,27.8 19.8,27.6 17.9,27.2 C18,27 19.6,21 19.7,20.8 L19.7,20.8 Z M20.2,18.8 C20.3,18.5 22.1,11.9 22.3,11 C22.5,11.9 24.4,18.5 24.5,18.8 L20.2,18.8 L20.2,18.8 Z M22.4,2.7 C22.3,3.1 18.3,17.6 18.1,18.5 C17.9,17.7 14.1,4.8 14,4.5 C16.5,3.5 19.4,2.9 22.4,2.7 L22.4,2.7 Z M24.4,2.7 C27.4,2.8 30.3,3.4 32.9,4.4 C32.8,4.7 29.3,17.6 29,18.5 C28.8,17.6 24.5,3.1 24.4,2.7 L24.4,2.7 Z M31.2,18.8 C31.3,18.5 33.1,11.9 33.3,11 C33.5,11.9 35.4,18.5 35.5,18.8 L31.2,18.8 L31.2,18.8 Z M30.2,22.5 C30.2,22.4 30.6,21 30.7,20.8 L36.1,20.8 C36.2,21 36.9,23.8 37,24 C35.4,25.1 33.6,26 31.5,26.7 C31.3,26.4 30.2,22.6 30.2,22.5 L30.2,22.5 Z M40.5,20.3 C40.3,19.7 36.6,6.9 36.4,6.2 C40,8.6 42.1,11.8 42.1,15.3 C42.1,17.1 41.5,18.7 40.5,20.3 L40.5,20.3 Z M15.7,26.7 C12.7,25.7 10.2,24.3 8.3,22.4 C8.3,22.3 8.7,21 8.7,20.9 L14.1,20.9 C14.1,21 15.6,26.3 15.7,26.7 L15.7,26.7 Z M9.2,18.8 C9.3,18.5 11.1,11.9 11.3,11 C11.5,11.9 13.4,18.5 13.4,18.8 L9.2,18.8 L9.2,18.8 Z M10.4,6.5 C10.2,7.2 6.8,19.7 6.6,20.3 C5.6,18.7 5.1,17.1 5.1,15.3 C5.1,12 7,8.9 10.4,6.5 L10.4,6.5 Z" id="Shape" fill="#ED1C2E"></path>
            </g>
        </g>
    </g>
</svg>