<?xml version="1.0" encoding="utf-8"?>
<!-- Generator: Adobe Illustrator 19.1.0, SVG Export Plug-In . SVG Version: 6.00 Build 0)  -->
<svg version="1.1" id="icons" xmlns="http://www.w3.org/2000/svg" xmlns:xlink="http://www.w3.org/1999/xlink" x="0px" y="0px"
	 viewBox="0 0 100 100" enable-background="new 0 0 100 100" xml:space="preserve">
<path fill="#5F6062" d="M61.7,18c-11.3,0-20.5,9.2-20.5,20.5c0,3.4,0.8,6.6,2.3,9.4L18.2,73.2c-0.3,0.3-0.4,0.6-0.4,1v6.3
	c0,1,0.8,1.9,1.9,1.9H26c0.4,0,0.7-0.1,1-0.4l2.1-2.1c0.3-0.3,0.4-0.6,0.4-1V75c0-0.8,0.6-1.4,1.4-1.4h3c0.8,0,1.4-0.6,1.4-1.4v-3
	c0-0.8,0.6-1.4,1.4-1.4h3.8c0.4,0,0.7-0.1,1-0.4l10.7-10.7c2.8,1.5,6,2.3,9.4,2.3c11.3,0,20.5-9.2,20.5-20.5
	C82.2,27.2,73,18,61.7,18z M67.4,39.5c-3.7,0-6.7-3-6.7-6.7c0-3.7,3-6.7,6.7-6.7c3.7,0,6.7,3,6.7,6.7C74.1,36.5,71.1,39.5,67.4,39.5
	z"/>
</svg>
