<?xml version="1.0" encoding="utf-8"?>
<!-- Generator: Adobe Illustrator 19.1.0, SVG Export Plug-In . SVG Version: 6.00 Build 0)  -->
<svg version="1.1" xmlns="http://www.w3.org/2000/svg" xmlns:xlink="http://www.w3.org/1999/xlink" x="0px" y="0px"
  viewBox="0 0 54.98 62.17" enable-background="new 0 0 54.98 62.17" xml:space="preserve">
  <g id="Layer_2" data-name="Layer 2">
    <g id="icons">
      <path
        fill="#5F6062"
        id="coverage-sheild"
        class="cls-1"
        d="M36.28,5.23a61.54,61.54,0,0,0,18.64,6.91,76.33,76.33,0,0,1-1.05,16.12,40.11,40.11,0,
        0,1-5,13.81c-4.19,7.12-10.47,13.19-21.35,20.1-10.89-6.9-17.17-13-21.36-20.1a47,47,0,0,
        1-5-13.82,74.89,74.89,0,0,1-1-16.11A61.83,61.83,0,0,0,18.7,5.24C22.26,3.35,25.19,1.47,
        27.49,0A89.64,89.64,0,0,0,36.28,5.23ZM24.35,43.33c.42.42.83.21,1.26,0L43.4,22.61a1.93,
        1.93,0,0,0-2.92-2.51L25.41,37.69c-.21.41-.83.41-1.26,0l-6.28-6.28a1.78,1.78,0,0,
        0-2.51-.21,1.39,1.39,0,0,0-.21.21,2,2,0,0,0,0,2.72Z"
      />
    </g>
  </g>
</svg>