<?xml version="1.0" encoding="utf-8"?>
<!-- Generator: Adobe Illustrator 19.1.0, SVG Export Plug-In . SVG Version: 6.00 Build 0)  -->
<svg version="1.1" xmlns="http://www.w3.org/2000/svg" xmlns:xlink="http://www.w3.org/1999/xlink" x="0px" y="0px"
	 viewBox="0 0 100 100" enable-background="new 0 0 100 100" xml:space="preserve">
<g id="grid" display="none">
	<g display="inline">
		
			<line opacity="0.35" fill-rule="evenodd" clip-rule="evenodd" fill="none" stroke="#666666" stroke-width="0.5" x1="87" y1="7.4" x2="87" y2="92.6"/>
		
			<line opacity="0.35" fill-rule="evenodd" clip-rule="evenodd" fill="none" stroke="#666666" stroke-width="0.5" x1="7.4" y1="87" x2="92.6" y2="87"/>
		
			<line opacity="0.35" fill-rule="evenodd" clip-rule="evenodd" fill="none" stroke="#666666" stroke-width="0.5" x1="92.6" y1="7.4" x2="7.4" y2="92.6"/>
		
			<line opacity="0.35" fill-rule="evenodd" clip-rule="evenodd" fill="none" stroke="#666666" stroke-width="0.5" x1="92.6" y1="50" x2="7.4" y2="50"/>
		
			<line opacity="0.35" fill-rule="evenodd" clip-rule="evenodd" fill="none" stroke="#666666" stroke-width="0.5" x1="50" y1="7.4" x2="50" y2="92.6"/>
		
			<line opacity="0.35" fill-rule="evenodd" clip-rule="evenodd" fill="none" stroke="#666666" stroke-width="0.5" x1="92.6" y1="34.2" x2="7.4" y2="34.2"/>
		
			<line opacity="0.35" fill-rule="evenodd" clip-rule="evenodd" fill="none" stroke="#666666" stroke-width="0.5" x1="92.6" y1="65.8" x2="7.4" y2="65.8"/>
		
			<line opacity="0.35" fill-rule="evenodd" clip-rule="evenodd" fill="none" stroke="#666666" stroke-width="0.5" x1="34.2" y1="7.4" x2="34.2" y2="92.6"/>
		
			<line opacity="0.35" fill-rule="evenodd" clip-rule="evenodd" fill="none" stroke="#666666" stroke-width="0.5" x1="65.8" y1="7.4" x2="65.8" y2="92.6"/>
		
			<line opacity="0.35" fill-rule="evenodd" clip-rule="evenodd" fill="none" stroke="#666666" stroke-width="0.5" x1="13" y1="7.4" x2="13" y2="92.6"/>
		
			<line opacity="0.35" fill-rule="evenodd" clip-rule="evenodd" fill="none" stroke="#666666" stroke-width="0.5" x1="7.4" y1="13" x2="92.6" y2="13"/>
		
			<line opacity="0.35" fill-rule="evenodd" clip-rule="evenodd" fill="none" stroke="#666666" stroke-width="0.5" x1="7.4" y1="7.4" x2="92.6" y2="92.6"/>
		
			<rect x="17.8" y="17.8" fill-rule="evenodd" clip-rule="evenodd" fill="none" stroke="#FF0000" stroke-width="0.5" width="64.5" height="64.5"/>
		
			<rect x="22.5" y="13" fill-rule="evenodd" clip-rule="evenodd" fill="none" stroke="#FF0000" stroke-width="0.5" width="55" height="74"/>
		
			<rect x="13" y="22.5" fill-rule="evenodd" clip-rule="evenodd" fill="none" stroke="#FF0000" stroke-width="0.5" width="74" height="55"/>
		
			<rect x="22.5" y="13" fill-rule="evenodd" clip-rule="evenodd" fill="none" stroke="#FF0000" stroke-width="0.5" width="55" height="74"/>
	</g>
</g>
<g id="icons">
	<path fill="#5F6062" d="M75.4,20.8H24.6c-3.7,0-6.6,3-6.6,6.6V64c0,3.7,3,6.6,6.6,6.6h29.2l11.9,11.9V70.6h9.7c3.7,0,6.6-3,6.6-6.6
		V27.5C82,23.8,79.1,20.8,75.4,20.8z"/>
</g>
</svg>
