<?xml version="1.0" encoding="UTF-8"?>
<svg width="66px" height="58px" viewBox="0 0 66 58" version="1.1" xmlns="http://www.w3.org/2000/svg" xmlns:xlink="http://www.w3.org/1999/xlink" xmlns:sketch="http://www.bohemiancoding.com/sketch/ns">
    <!-- Generator: Sketch 3.4.2 (15855) - http://www.bohemiancoding.com/sketch -->
    <title>core-auto</title>
    <desc>Created with Sketch.</desc>
    <defs></defs>
    <g id="Page-1" stroke="none" stroke-width="1" fill="none" fill-rule="evenodd" sketch:type="MSPage">
        <g id="core-auto" sketch:type="MSLayerGroup" fill="#5F6062">
            <path d="M65.6,29.2 L65.6,29.2 C65.5,27.8 63.7,25.5 61.9,23.5 L55.8,6.8 C54.5,3.3 51.1,0.9 47.4,0.9 L19.1,0.9 C15.3,0.9 12,3.2 10.7,6.8 L4.7,23.2 C2.8,25.2 1,27.5 0.9,29.2 L0.9,29.2 L0.9,47.3 L0.9,47.6 L0.9,52.7 C0.9,55.3 3,57.5 5.7,57.5 L7,57.5 C9.6,57.5 11.8,55.4 11.8,52.7 L11.8,49.5 L54.7,49.5 L54.7,52.7 C54.7,55.3 56.8,57.5 59.5,57.5 L60.9,57.5 C63.5,57.5 65.7,55.4 65.7,52.7 L65.7,47.4 L65.7,47.4 L65.7,29.2 L65.6,29.2 Z M11.3,18 L14.9,8.3 C15.6,6.5 17.2,5.4 19.1,5.4 L47.3,5.4 C49.2,5.4 50.9,6.6 51.5,8.3 L55.1,18 C55.4,18.8 54.8,19.6 54,19.6 L12.5,19.6 C11.6,19.6 11,18.8 11.3,18 L11.3,18 Z M13.7,36.1 C11.3,36.1 9.2,34 9.2,31.6 C9.2,29.2 11.3,27.1 13.7,27.1 C16.1,27.1 18.2,29.2 18.2,31.6 C18.2,34 16.1,36.1 13.7,36.1 L13.7,36.1 Z M47.8,31.5 C47.8,29.1 49.9,27 52.3,27 C54.7,27 56.8,29.1 56.8,31.5 C56.8,33.9 54.7,36 52.3,36 C49.9,36.1 47.8,34 47.8,31.5 L47.8,31.5 Z" id="Shape" sketch:type="MSShapeGroup"></path>
        </g>
    </g>
</svg>