<?xml version="1.0" encoding="utf-8"?>
<!-- Generator: Adobe Illustrator 19.2.1, SVG Export Plug-In . SVG Version: 6.00 Build 0)  -->
<svg version="1.1" id="icons" xmlns="http://www.w3.org/2000/svg" xmlns:xlink="http://www.w3.org/1999/xlink" x="0px" y="0px"
	 viewBox="0 0 100 100" style="enable-background:new 0 0 100 100;" xml:space="preserve">
<g>
	<path d="M33,29.5h-2.7c-0.6,0-1-0.5-1-1V17.2c0-0.6,0.5-1,1-1H33c0.6,0,1,0.5,1,1v11.2C34.1,29.1,33.6,29.5,33,29.5z"/>
	<path d="M69.4,29.5h-2.7c-0.6,0-1-0.5-1-1V17.2c0-0.6,0.5-1,1-1h2.7c0.6,0,1,0.5,1,1v11.2C70.4,29.1,70,29.5,69.4,29.5z"/>
	<path d="M77.3,43v36.1c0,0.8-0.6,1.4-1.4,1.4h-52c-0.8,0-1.4-0.6-1.4-1.4V43H77.3z M77.3,20.9h-3.6V28c0,2.6-3,4.7-5.7,4.7
		c-2.6,0-5.7-2.1-5.7-4.7v-7.1H37.3V28c0,2.6-3,4.7-5.7,4.7c-2.6,0-5.7-2-5.7-4.6v-7.2h-3.6c-2.6,0-4.7,2.1-4.7,4.7v54.9
		c0,2.6,2.1,4.7,4.7,4.7h54.9c2.6,0,4.7-2.1,4.7-4.7V25.6C82,23,79.9,20.9,77.3,20.9L77.3,20.9z"/>
	<path d="M54.1,48.6h-8.3c-0.7,0-1.3,0.6-1.3,1.3v8.3c0,0.7,0.6,1.3,1.3,1.3h8.3c0.3,0,0.5-0.1,0.7-0.2c0.1,0,0.1-0.1,0.1-0.1
		c0,0,0,0,0,0c0,0,0.1-0.1,0.1-0.1c0,0,0.1-0.1,0.1-0.2c0,0,0-0.1,0.1-0.1c0.1-0.2,0.1-0.4,0.1-0.6v-8.3
		C55.4,49.2,54.8,48.6,54.1,48.6z"/>
	<path d="M38.2,48.6h-8.3c-0.7,0-1.3,0.6-1.3,1.3v8.3c0,0.7,0.6,1.3,1.3,1.3h8.3c0.3,0,0.5-0.1,0.7-0.2c0.1,0,0.1-0.1,0.1-0.1
		c0,0,0,0,0,0c0,0,0.1-0.1,0.1-0.1c0,0,0.1-0.1,0.1-0.2c0,0,0-0.1,0.1-0.1c0.1-0.2,0.1-0.4,0.1-0.6v-8.3
		C39.5,49.2,38.9,48.6,38.2,48.6z"/>
	<path d="M69.9,48.6h-8.3c-0.7,0-1.3,0.6-1.3,1.3v8.3c0,0.7,0.6,1.3,1.3,1.3h8.3c0.3,0,0.5-0.1,0.7-0.2c0.1,0,0.1-0.1,0.1-0.1
		c0,0,0,0,0,0c0,0,0.1-0.1,0.1-0.1c0,0,0.1-0.1,0.1-0.2c0,0,0-0.1,0.1-0.1c0.1-0.2,0.1-0.4,0.1-0.6v-8.3
		C71.1,49.2,70.6,48.6,69.9,48.6z"/>
	<path d="M54.1,64.5h-8.3c-0.7,0-1.3,0.6-1.3,1.3v8.3c0,0.7,0.6,1.3,1.3,1.3h8.3c0.3,0,0.5-0.1,0.7-0.2c0.1,0,0.1-0.1,0.1-0.1
		c0,0,0,0,0,0c0,0,0.1-0.1,0.1-0.1c0,0,0.1-0.1,0.1-0.2c0,0,0-0.1,0.1-0.1c0.1-0.2,0.1-0.4,0.1-0.6v-8.3
		C55.4,65,54.8,64.5,54.1,64.5z"/>
	<path d="M38.2,64.5h-8.3c-0.7,0-1.3,0.6-1.3,1.3v8.3c0,0.7,0.6,1.3,1.3,1.3h8.3c0.3,0,0.5-0.1,0.7-0.2c0.1,0,0.1-0.1,0.1-0.1
		c0,0,0,0,0,0c0,0,0.1-0.1,0.1-0.1c0,0,0.1-0.1,0.1-0.2c0,0,0-0.1,0.1-0.1c0.1-0.2,0.1-0.4,0.1-0.6v-8.3
		C39.5,65,38.9,64.5,38.2,64.5z"/>
</g>
</svg>
