<?xml version="1.0" encoding="UTF-8"?>
<svg width="66px" height="52px" viewBox="0 0 66 52" version="1.1" xmlns="http://www.w3.org/2000/svg" xmlns:xlink="http://www.w3.org/1999/xlink" xmlns:sketch="http://www.bohemiancoding.com/sketch/ns">
    <!-- Generator: Sketch 3.4.2 (15855) - http://www.bohemiancoding.com/sketch -->
    <title>core-bank</title>
    <desc>Created with Sketch.</desc>
    <defs></defs>
    <g id="Page-1" stroke="none" stroke-width="1" fill="none" fill-rule="evenodd" sketch:type="MSPage">
        <g id="core-bank" sketch:type="MSLayerGroup" fill="#5F6062">
            <g id="Group" sketch:type="MSShapeGroup">
                <path d="M62.1,44.4 L3.9,44.4 C3.3,44.4 2.9,43.9 2.9,43.4 L2.9,40.7 C2.9,40.1 3.4,39.7 3.9,39.7 L62.1,39.7 C62.7,39.7 63.1,40.2 63.1,40.7 L63.1,43.4 C63.1,43.9 62.7,44.4 62.1,44.4 L62.1,44.4 Z" id="Shape"></path>
                <path d="M64.5,51.5 L1.5,51.5 C0.9,51.5 0.5,51 0.5,50.5 L0.5,47.8 C0.5,47.2 1,46.8 1.5,46.8 L64.5,46.8 C65.1,46.8 65.5,47.3 65.5,47.8 L65.5,50.5 C65.5,51.1 65.1,51.5 64.5,51.5 L64.5,51.5 Z" id="Shape"></path>
                <g transform="translate(5.000000, 17.000000)" id="Shape">
                    <path d="M1.4,4 L1.4,4 C2.2,4.3 2.6,5 2.6,5.8 L2.6,14.8 C2.6,15.6 2.1,16.3 1.4,16.5 L1.3,16.5 C0.6,16.8 0.1,17.5 0.1,18.2 L0.1,18.2 C0.1,19.2 0.9,20.1 2,20.1 L9.7,20.1 C10.7,20.1 11.6,19.3 11.6,18.2 L11.6,18.2 C11.6,17.4 11.1,16.7 10.4,16.5 L10.3,16.5 C9.6,16.2 9.1,15.5 9.1,14.8 L9.1,5.8 C9.1,5 9.6,4.3 10.3,4.1 L10.4,4.1 C11.1,3.8 11.6,3.1 11.6,2.4 L11.6,2.4 C11.6,1.4 10.8,0.5 9.7,0.5 L2,0.5 C1,0.5 0.1,1.3 0.1,2.4 L0.1,2.4 C0.3,3 0.7,3.7 1.4,4 L1.4,4 Z"></path>
                    <path d="M23.4,4 L23.4,4 C24.2,4.3 24.6,5 24.6,5.8 L24.6,14.8 C24.6,15.6 24.1,16.3 23.4,16.5 L23.3,16.5 C22.6,16.8 22.1,17.5 22.1,18.2 L22.1,18.2 C22.1,19.2 22.9,20.1 24,20.1 L31.7,20.1 C32.7,20.1 33.6,19.3 33.6,18.2 L33.6,18.2 C33.6,17.4 33.1,16.7 32.4,16.5 L32.3,16.5 C31.6,16.2 31.1,15.5 31.1,14.8 L31.1,5.8 C31.1,5 31.6,4.3 32.3,4.1 L32.4,4.1 C33.1,3.8 33.6,3.1 33.6,2.4 L33.6,2.4 C33.6,1.4 32.8,0.5 31.7,0.5 L24,0.5 C23,0.5 22.1,1.3 22.1,2.4 L22.1,2.4 C22.2,3 22.7,3.7 23.4,4 L23.4,4 Z"></path>
                    <path d="M55.7,2.2 L55.7,2.2 C55.7,1.2 54.9,0.3 53.8,0.3 L46.1,0.3 C45.1,0.3 44.2,1.1 44.2,2.2 L44.2,2.2 C44.2,3 44.7,3.7 45.4,3.9 L45.5,3.9 C46.2,4.2 46.7,4.9 46.7,5.6 L46.7,14.6 C46.7,15.4 46.2,16.1 45.5,16.3 L45.4,16.3 C44.7,16.6 44.2,17.3 44.2,18 L44.2,18 C44.2,19 45,19.9 46.1,19.9 L53.8,19.9 C54.8,19.9 55.7,19.1 55.7,18 L55.7,18 C55.7,17.2 55.2,16.5 54.5,16.3 L54.4,16.3 C53.7,16 53.2,15.3 53.2,14.6 L53.2,5.6 C53.2,4.8 53.7,4.1 54.4,3.9 L54.5,3.9 C55.3,3.7 55.7,3 55.7,2.2 L55.7,2.2 Z"></path>
                </g>
                <path d="M64.9,10.9 L33.3,0.5 C33.1,0.4 32.8,0.4 32.5,0.5 L1.3,10.9 C1.2,10.9 1.1,11 1.1,11 C0.9,11.1 0.8,11.3 0.7,11.5 C0.6,11.6 0.6,11.8 0.6,11.9 L0.6,13 C0.6,14.1 1.5,14.9 2.5,14.9 L63.5,14.9 C64.6,14.9 65.4,14 65.4,13 L65.4,12 L65.4,11.8 C65.5,11.5 65.3,11.1 64.9,10.9 L64.9,10.9 Z" id="Shape"></path>
            </g>
        </g>
    </g>
</svg>