<?xml version="1.0" encoding="utf-8"?>
<!-- Generator: Adobe Illustrator 19.1.0, SVG Export Plug-In . SVG Version: 6.00 Build 0)  -->
<svg version="1.1" xmlns="http://www.w3.org/2000/svg" xmlns:xlink="http://www.w3.org/1999/xlink" x="0px" y="0px"
	 viewBox="0 0 100 100" enable-background="new 0 0 100 100" xml:space="preserve">
<g id="grid" display="none">
</g>
<g id="icons">
	<g id="icons_2_">
		<g>
			<path fill="#5F6062" d="M66.5,74.5H31.3c-1.1,0-1.9-0.9-1.9-1.9V27.8c0-1.1,0.9-1.9,1.9-1.9h35.2c2.1,0,3.7-1.7,3.7-3.7l0,0
				c0-2.1-1.7-3.7-3.7-3.7H25.3c-1.8,0-3.2,1.5-3.2,3.2v57c0,1.8,1.5,3.2,3.2,3.2h41.3c2.1,0,3.7-1.7,3.7-3.7l0,0
				C70.3,76.2,68.6,74.5,66.5,74.5z"/>
			<path fill="#5F6062" d="M81.2,48.5L67,34.4c-1.5-1.5-3.8-1.5-5.3,0l0,0c-1.5,1.5-1.5,3.8,0,5.3l6.8,6.8H39.9
				c-2.1,0-3.7,1.7-3.7,3.7l0,0c0,2.1,1.7,3.7,3.7,3.7h28.6l-6.8,6.8c-1.5,1.5-1.5,3.8,0,5.3l0,0c1.5,1.5,3.8,1.5,5.3,0l14.1-14.1
				C82.1,51,82.1,49.5,81.2,48.5z"/>
		</g>
	</g>
</g>
</svg>
