<svg xmlns="http://www.w3.org/2000/svg" viewBox="0 0 25.649 28.352">
  <defs>
    <style>
      .cls-1 {
        fill: #999;
      }

      .cls-2 {
        fill: #1778d3;
      }

      .cls-3, .cls-4 {
        stroke: none;
      }

      .cls-4 {
        fill: #fff;
      }
    </style>
  </defs>
  <g id="Group_487" data-name="Group 487" transform="translate(-452.001 -478.649)">
    <path id="core-document" class="cls-1" d="M40.871,17.7H23.964A1.765,1.765,0,0,0,22.2,19.464V39.936A1.765,1.765,0,0,0,23.964,41.7H40.871a1.765,1.765,0,0,0,1.764-1.764V19.464A1.765,1.765,0,0,0,40.871,17.7Zm-5.55,16.208a.7.7,0,0,1-.7.7h-7.13a.7.7,0,0,1-.7-.7h0a.7.7,0,0,1,.7-.7h7.13a.7.7,0,0,1,.7.7Zm3.9-4.116a.7.7,0,0,1-.7.7H27.492a.7.7,0,0,1-.7-.7h0a.7.7,0,0,1,.7-.7H38.519a.7.7,0,0,1,.7.7Zm-2.132-4.116a.7.7,0,0,1-.7.7H27.492a.7.7,0,0,1-.7-.7h0a.7.7,0,0,1,.7-.7h8.931a.691.691,0,0,1,.662.7Z" transform="translate(429.801 465.301)"/>
    <g id="fill-checkmark" class="cls-2" transform="translate(463.649 479.649)">
      <path class="cls-3" d="M 6.500001907348633 13.49999904632568 C 2.640192031860352 13.49999904632568 -0.4999979436397552 10.35980892181396 -0.4999979436397552 6.499999046325684 C -0.4999979436397552 2.640188932418823 2.640192031860352 -0.5000009536743164 6.500001907348633 -0.5000009536743164 C 8.369832038879395 -0.5000009536743164 10.12772178649902 0.2281390428543091 11.44987201690674 1.550279021263123 C 12.77202224731445 2.87243914604187 13.50010204315186 4.630289077758789 13.50000190734863 6.50002908706665 C 13.50000190734863 10.35980892181396 10.35981178283691 13.49999904632568 6.500001907348633 13.49999904632568 Z M 5.270284652709961 8.53066349029541 L 5.492352962493896 8.753788948059082 L 5.695546627044678 8.513036727905273 C 5.619810581207275 8.540985107421875 5.538835525512695 8.555739402770996 5.45592212677002 8.555739402770996 C 5.392276287078857 8.555739402770996 5.329972743988037 8.547202110290527 5.270284652709961 8.53066349029541 Z"/>
      <path class="cls-4" d="M 6.500001907348633 12.99999904632568 C 10.08977222442627 12.99999904632568 13.00000190734863 10.08976936340332 13.00000190734863 6.499999046325684 C 13.00020217895508 2.910228967666626 10.08997249603271 -9.5367431640625e-07 6.500001907348633 -9.5367431640625e-07 C 2.910232067108154 -9.5367431640625e-07 2.043151880570804e-06 2.910228967666626 2.043151880570804e-06 6.499999046325684 C 2.043151880570804e-06 10.08996868133545 2.910232067108154 12.99999904632568 6.500001907348633 12.99999904632568 M 3.530141115188599 6.390489101409912 C 3.647018909454346 6.390489101409912 3.763870716094971 6.435221195220947 3.852812051773071 6.524669170379639 L 5.320462226867676 7.999389171600342 C 5.357979774475098 8.037101745605469 5.40703010559082 8.055734634399414 5.455922603607178 8.055734634399414 C 5.510046482086182 8.055734634399414 5.563979148864746 8.032910346984863 5.601902008056641 7.987869262695312 L 9.122322082519531 3.816818952560425 C 9.212344169616699 3.71018648147583 9.340895652770996 3.655271291732788 9.470335006713867 3.655271291732788 C 9.57404613494873 3.655271291732788 9.67832088470459 3.690510749816895 9.763852119445801 3.762639045715332 C 9.956122398376465 3.924788951873779 9.980192184448242 4.211688995361328 9.818032264709473 4.403759002685547 L 5.657102108001709 9.333808898925781 C 5.619073390960693 9.378840446472168 5.565130710601807 9.401671409606934 5.511043071746826 9.401671409606934 C 5.46217155456543 9.401671409606934 5.413184642791748 9.38304615020752 5.375661849975586 9.345329284667969 L 3.207442045211792 7.166799068450928 C 3.030122041702271 6.988678932189941 3.030732154846191 6.700358867645264 3.209062099456787 6.523048877716064 C 3.297839403152466 6.434670448303223 3.414003133773804 6.390489101409912 3.530141115188599 6.390489101409912 M 6.500001907348633 13.99999904632568 C 2.364491939544678 13.99999904632568 -0.9999979734420776 10.6355094909668 -0.9999979734420776 6.499999046325684 C -0.9999979734420776 2.364489078521729 2.364491939544678 -1.000000953674316 6.500001907348633 -1.000000953674316 C 8.503381729125977 -1.000000953674316 10.38684177398682 -0.2198509573936462 11.80342197418213 1.196729063987732 C 13.22002220153809 2.61332893371582 14.00011157989502 4.496748924255371 14.00000190734863 6.500059127807617 C 14.00000190734863 10.6355094909668 10.63551235198975 13.99999904632568 6.500001907348633 13.99999904632568 Z"/>
    </g>
  </g>
</svg>
