<?xml version="1.0" encoding="utf-8"?>
<!-- Generator: Adobe Illustrator 19.1.0, SVG Export Plug-In . SVG Version: 6.00 Build 0)  -->
<svg version="1.1" id="icons" xmlns="http://www.w3.org/2000/svg" xmlns:xlink="http://www.w3.org/1999/xlink" x="0px" y="0px"
	 viewBox="0 0 100 100" enable-background="new 0 0 100 100" xml:space="preserve">
<g>
	<g>
		<path fill="#5F6062" d="M85.8,45.9c-0.1-1.3-1.7-3.4-3.4-5.2l-5.6-15.2c-1.2-3.2-4.2-5.3-7.7-5.3H43.6c-3.4,0-6.5,2.1-7.7,5.3
			l-0.6,1.7h4.4l0.1-0.3c0.6-1.6,2.1-2.7,3.8-2.7h25.6c1.7,0,3.2,1.1,3.8,2.7l3.2,8.8c0.3,0.7-0.3,1.5-1,1.5h-6.5l2.7,7.5
			c0.7-0.4,1.4-0.7,2.3-0.7c2.2,0,4.1,1.9,4.1,4.1c0,1.7-1.1,3.2-2.6,3.8c0.3,0.4,0.5,0.8,0.7,1.1c0,0,1,1.7,1,3.2
			c0,0.9,0,8.1,0,13.9c0.8,0.9,1.9,1.4,3.2,1.4h1.3c2.4,0,4.3-1.9,4.3-4.3v-4.9v0L85.8,45.9L85.8,45.9z"/>
	</g>
	<path fill="#5F6062" d="M73.8,56.2L73.8,56.2c-0.1-1.3-1.7-3.4-3.4-5.2l-5.6-15.2c-1.2-3.2-4.2-5.3-7.7-5.3H31.6
		c-3.4,0-6.5,2.1-7.7,5.3l-5.5,14.9c-1.7,1.8-3.4,3.9-3.5,5.5h0v16.4c0,0.1,0,0.2,0,0.2v4.6c0,2.4,1.9,4.3,4.3,4.3h1.3
		c2.4,0,4.3-1.9,4.3-4.3v-2.9h39v2.9c0,2.4,1.9,4.3,4.3,4.3h1.3c2.4,0,4.3-1.9,4.3-4.3v-4.9v0V56.2z M24.5,46l3.2-8.8
		c0.6-1.6,2.1-2.7,3.8-2.7h25.6c1.7,0,3.2,1.1,3.8,2.7l3.2,8.8c0.3,0.7-0.3,1.5-1,1.5H25.5C24.8,47.5,24.3,46.7,24.5,46z M26.7,62.4
		c-2.2,0-4.1-1.9-4.1-4.1c0-2.2,1.9-4.1,4.1-4.1c2.2,0,4.1,1.9,4.1,4.1C30.8,60.5,28.9,62.4,26.7,62.4z M57.7,58.3
		c0-2.2,1.9-4.1,4.1-4.1c2.2,0,4.1,1.9,4.1,4.1c0,2.2-1.9,4.1-4.1,4.1C59.6,62.4,57.7,60.5,57.7,58.3z"/>
</g>
</svg>
