<?xml version="1.0" encoding="utf-8"?>
<!-- Generator: Adobe Illustrator 19.1.0, SVG Export Plug-In . SVG Version: 6.00 Build 0)  -->
<svg version="1.1" id="icons" xmlns="http://www.w3.org/2000/svg" xmlns:xlink="http://www.w3.org/1999/xlink" x="0px" y="0px"
	 viewBox="0 0 100 100" enable-background="new 0 0 100 100" xml:space="preserve">
<g>
	<path fill="#5F6062" d="M71.3,16.7c-8.9,0-16.2,7.2-16.2,16.2c0,8.9,7.2,16.2,16.2,16.2c8.9,0,16.2-7.2,16.2-16.2
		C87.4,24,80.2,16.7,71.3,16.7z M71.3,19.3c1,0,1.8,0.8,1.8,1.8c0,1-0.8,1.8-1.8,1.8c-1,0-1.8-0.8-1.8-1.8
		C69.4,20.1,70.2,19.3,71.3,19.3z M60.1,36.6c-1,0-1.8-0.8-1.8-1.8c0-1,0.8-1.8,1.8-1.8c1,0,1.8,0.8,1.8,1.8
		C61.9,35.8,61.1,36.6,60.1,36.6z M62.6,27.8c-1,0-1.8-0.8-1.8-1.8c0-1,0.8-1.8,1.8-1.8c1,0,1.8,0.8,1.8,1.8
		C64.5,27,63.6,27.8,62.6,27.8z M82.5,36.6c-1,0-1.8-0.8-1.8-1.8c0-1,0.8-1.8,1.8-1.8c1,0,1.8,0.8,1.8,1.8
		C84.3,35.8,83.5,36.6,82.5,36.6z M79.9,26.8l-5.5,5c0.1,0.2,0.1,0.5,0.1,0.7c0,1.6-1.3,2.9-2.9,2.9s-2.9-1.3-2.9-2.9
		c0-1.6,1.3-2.9,2.9-2.9c0.3,0,0.6,0,0.9,0.1l5.5-5c0.6-0.5,1.5-0.5,2,0.1C80.5,25.4,80.5,26.3,79.9,26.8z"/>
	<path fill="#5F6062" d="M80.8,49.9c-2.6,1.4-5.5,2.3-8.6,2.4c1.1,0.8,1.8,2.2,1.8,3.6c0,2.5-2.1,4.6-4.6,4.6
		c-2.5,0-4.6-2.1-4.6-4.6c0-1.7,1-3.2,2.4-4c-5-1.1-9.2-4-12-8h-26c-0.8,0-1.4-0.8-1.1-1.6l3.6-9.7c0.7-1.8,2.4-3,4.2-3H52
		c0.3-1.6,0.7-3.1,1.3-4.5H35.9c-3.8,0-7.2,2.4-8.5,5.9l-6.1,16.5c-1.9,2-3.8,4.4-3.8,6.1h0v18.2c0,0.1,0,0.2,0,0.3v5.1
		c0,2.6,2.1,4.8,4.8,4.8h1.4c2.6,0,4.8-2.1,4.8-4.8v-3.3h43.2v3.3c0,2.6,2.1,4.8,4.8,4.8h1.4c2.6,0,4.8-2.1,4.8-4.8v-5.4v0V53.6h0
		C82.6,52.6,81.8,51.3,80.8,49.9z M30.5,60.5c-2.5,0-4.6-2.1-4.6-4.6c0-2.5,2.1-4.6,4.6-4.6c2.5,0,4.6,2.1,4.6,4.6
		C35,58.4,32.9,60.5,30.5,60.5z"/>
</g>
</svg>
