<?xml version="1.0" encoding="utf-8"?>
<!-- Generator: Adobe Illustrator 22.1.0, SVG Export Plug-In . SVG Version: 6.00 Build 0)  -->
<svg version="1.2" baseProfile="tiny" id="icons" xmlns="http://www.w3.org/2000/svg" xmlns:xlink="http://www.w3.org/1999/xlink"
	 x="0px" y="0px" viewBox="0 0 100 100" xml:space="preserve">
<g>
	<path fill="#5F6062" d="M74,60.7L74,60.7c-2,0-3.7,1.6-3.7,3.7v6H29.9v-6c0-2-1.6-3.7-3.7-3.7l0,0c-2,0-3.7,1.6-3.7,3.7v11.6
		c0,0.9,0.7,1.6,1.6,1.6h51.8c0.9,0,1.6-0.7,1.6-1.6V64.4C77.6,62.4,76,60.7,74,60.7z"/>
	<path fill="#5F6062" d="M51.2,22.9c-0.6-0.6-1.7-0.6-2.3,0L35.5,36.3c-1.4,1.4-1.4,3.7,0,5.2l0,0c1.4,1.4,3.7,1.4,5.2,0l5.7-5.7V60
		c0,2,1.6,3.7,3.7,3.7l0,0c2,0,3.7-1.6,3.7-3.7V35.8l5.7,5.7c1.4,1.4,3.7,1.4,5.2,0l0,0c1.4-1.4,1.4-3.7,0-5.2L51.2,22.9z"/>
</g>
</svg>
