<?xml version="1.0" encoding="UTF-8"?>
<svg width="64px" height="53px" viewBox="0 0 64 53" version="1.1" xmlns="http://www.w3.org/2000/svg" xmlns:xlink="http://www.w3.org/1999/xlink" xmlns:sketch="http://www.bohemiancoding.com/sketch/ns">
    <!-- Generator: Sketch 3.4.2 (15855) - http://www.bohemiancoding.com/sketch -->
    <title>core-warning</title>
    <desc>Created with Sketch.</desc>
    <defs></defs>
    <g id="Page-1" stroke="none" stroke-width="1" fill="none" fill-rule="evenodd" sketch:type="MSPage">
        <g id="core-warning" sketch:type="MSLayerGroup" fill="#5F6062">
            <path d="M62.8,48.9 L34.3,1.7 C33.2,-0.1 30.7,-0.1 29.6,1.7 L1.2,48.9 C0.1,50.7 1.4,53 3.5,53 L60.4,53 C62.6,53 63.9,50.7 62.8,48.9 L62.8,48.9 Z M34.8,43.2 C34.8,44.7 33.6,46 32,46 C30.5,46 29.2,44.8 29.2,43.2 L29.2,43.1 C29.2,41.6 30.4,40.3 32,40.3 C33.5,40.4 34.8,41.6 34.8,43.2 L34.8,43.2 L34.8,43.2 Z M32,36.9 L32,36.9 C30.8,36.9 29.7,35.9 29.7,34.7 L28.7,18.6 C28.6,17.3 29.7,16.1 31,16.1 L32.9,16.1 C34.2,16.1 35.3,17.2 35.2,18.6 L34.2,34.7 C34.2,35.9 33.2,36.9 32,36.9 L32,36.9 Z" id="Shape" sketch:type="MSShapeGroup"></path>
        </g>
    </g>
</svg>