<?xml version="1.0" encoding="utf-8"?>
<!-- Generator: Adobe Illustrator 19.1.0, SVG Export Plug-In . SVG Version: 6.00 Build 0)  -->
<svg version="1.1" id="icons" xmlns="http://www.w3.org/2000/svg" xmlns:xlink="http://www.w3.org/1999/xlink" x="0px" y="0px"
	 viewBox="0 0 100 100" enable-background="new 0 0 100 100" xml:space="preserve">
<g>
	<path fill="#5F6062" d="M51.3,71c0-6.1,2.8-11.5,7.1-15.1c-1.2-1.7-1.9-3.7-2.2-5.7c0.6-0.7,1.2-1.4,1.7-2.1
		c3.5,1.1,7.7,1.5,11.3-1.2c-5-5-1-11.2-4.6-22.3c-3.1-9.4-15.6-9-17.2-5.7c-6.6-2.4-11.6,0.8-13.5,10.8c-2.1,11.5,2,12.7-3,17.7
		c3.8,2.2,7.3,1.7,10.3,0.4c0.6,0.8,1.2,1.6,1.9,2.3c-0.6,4-2.7,8-8,9.7c-4.1,1.3-8.8,2.6-11.7,5.4c-2.2,2.2-0.7,17.1-0.7,17.1h16.8
		H55C52.6,79.2,51.3,75.2,51.3,71z"/>
	<g>
		<path fill="#5F6062" d="M70.8,54.8c-8.9,0-16.2,7.3-16.2,16.2s7.3,16.2,16.2,16.2C79.8,87.2,87,79.9,87,71S79.8,54.8,70.8,54.8z
			 M70.8,58.8c5.7,0,10.6,4,11.9,9.3c-3.3-2.4-7.4-3.8-11.9-3.8s-8.5,1.4-11.9,3.8C60.3,62.8,65.1,58.8,70.8,58.8z M67.9,82.8
			c-4.5-1.1-8-4.7-9-9.2c0.6-0.1,1.2-0.2,1.8-0.2c4.1,0,7.5,3.4,7.5,7.5C68.2,81.5,68.1,82.2,67.9,82.8z M70.8,74.3
			c-1.9,0-3.4-1.5-3.4-3.4c0-1.9,1.5-3.4,3.4-3.4s3.4,1.5,3.4,3.4C74.2,72.8,72.7,74.3,70.8,74.3z M73.7,82.8
			c-0.2-0.6-0.3-1.3-0.3-2c0-4.1,3.4-7.5,7.5-7.5c0.6,0,1.2,0.1,1.8,0.2C81.7,78.1,78.2,81.7,73.7,82.8z"/>
	</g>
</g>
</svg>
