<?xml version="1.0" encoding="utf-8"?>
<!-- Generator: Adobe Illustrator 19.1.0, SVG Export Plug-In . SVG Version: 6.00 Build 0)  -->
<svg version="1.1" id="icons" xmlns="http://www.w3.org/2000/svg" xmlns:xlink="http://www.w3.org/1999/xlink" x="0px" y="0px"
	 viewBox="0 0 100 100" enable-background="new 0 0 100 100" xml:space="preserve">
<path fill="#5F6062" d="M79.5,70.9l-9.4-9.4c0,0-0.1-0.1-0.1-0.1c2.7-4.3,4.3-9.4,4.3-14.9c0-15.3-12.4-27.8-27.8-27.8
	S18.8,31.1,18.8,46.5c0,15.3,12.4,27.8,27.8,27.8c5.4,0,10.5-1.6,14.8-4.3c0,0,0.1,0.1,0.1,0.1l9.4,9.4c2.4,2.4,6.2,2.4,8.6,0
	C81.9,77.1,81.9,73.3,79.5,70.9z M26.4,46.5c0-11.1,9-20.1,20.1-20.1c11.1,0,20.1,9,20.1,20.1s-9,20.1-20.1,20.1
	C35.4,66.6,26.4,57.6,26.4,46.5z"/>
</svg>
