<?xml version="1.0" encoding="utf-8"?>
<!-- Generator: Adobe Illustrator 19.1.0, SVG Export Plug-In . SVG Version: 6.00 Build 0)  -->
<svg version="1.1" id="icons" xmlns="http://www.w3.org/2000/svg" xmlns:xlink="http://www.w3.org/1999/xlink" x="0px" y="0px"
	 viewBox="0 0 100 100" enable-background="new 0 0 100 100" xml:space="preserve">
<g>
	<circle fill="#5F6062" cx="21.8" cy="70.4" r="4.3"/>
	<path fill="#5F6062" d="M78.2,66.1H36.2c-2.4,0-4.3,1.9-4.3,4.3c0,2.4,1.9,4.3,4.3,4.3h42.1c2.4,0,4.3-1.9,4.3-4.3
		C82.5,68,80.6,66.1,78.2,66.1z"/>
	<circle fill="#5F6062" cx="21.8" cy="51.1" r="4.3"/>
	<path fill="#5F6062" d="M78.2,46.8H36.2c-2.4,0-4.3,1.9-4.3,4.3c0,2.4,1.9,4.3,4.3,4.3h42.1c2.4,0,4.3-1.9,4.3-4.3
		C82.5,48.7,80.6,46.8,78.2,46.8z"/>
	<path fill="#5F6062" d="M21.8,26.6c-2.4,0-4.3,1.9-4.3,4.3v0c0,2.4,1.9,4.3,4.3,4.3c2.4,0,4.3-1.9,4.3-4.3v0
		C26.1,28.5,24.2,26.6,21.8,26.6z"/>
	<path fill="#5F6062" d="M78.2,26.6H36.2c-2.4,0-4.3,1.9-4.3,4.3v0c0,2.4,1.9,4.3,4.3,4.3h42.1c2.4,0,4.3-1.9,4.3-4.3v0
		C82.5,28.5,80.6,26.6,78.2,26.6z"/>
</g>
</svg>
