<?xml version="1.0" encoding="utf-8"?>
<!-- Generator: Adobe Illustrator 19.1.0, SVG Export Plug-In . SVG Version: 6.00 Build 0)  -->
<svg version="1.1" id="icons" xmlns="http://www.w3.org/2000/svg" xmlns:xlink="http://www.w3.org/1999/xlink" x="0px" y="0px"
	 viewBox="0 0 100 100" enable-background="new 0 0 100 100" xml:space="preserve">
<g>
	<path fill="#5F6062" d="M83.1,46.5v-3.7c0-1.6-1.3-2.9-2.9-2.9h-25l-16.3-7.2l1-3c0.4-1.1,1.4-1.8,2.5-1.8h6.2v-1.8h-7
		c-2.8,0-5.3,1.8-6.2,4.4l-4.4,12.9c-1.4-0.4-2.8-0.6-4.3-0.6c-8.1,0-14.6,6.5-14.6,14.6S18.7,72,26.7,72s14.6-6.5,14.6-14.6
		c0-5.2-2.7-9.7-6.7-12.3l2.8-8.1l1.9,7.7l12.7,14h6.9C59.5,66.2,65.8,72,73.4,72C81.4,72,88,65.5,88,57.4
		C88,53,86.1,49.1,83.1,46.5z M36.5,57.4c0,5.4-4.4,9.7-9.7,9.7S17,62.8,17,57.4s4.4-9.7,9.7-9.7c0.9,0,1.9,0.1,2.7,0.4l-1.6,4.6
		c-0.4-0.1-0.8-0.1-1.2-0.1c-2.7,0-4.9,2.2-4.9,4.9c0,2.7,2.2,4.9,4.9,4.9s4.9-2.2,4.9-4.9c0-0.8-0.2-1.5-0.5-2.1l1.8-5.4
		C35.1,51.7,36.5,54.4,36.5,57.4z M59.1,54.1c-0.6-0.1-1.1-0.1-1.7-0.2c-0.4-2.5-2.5-4.5-5.1-4.5c-1.3,0-2.4,0.5-3.3,1.2
		c-0.6-0.4-1.1-0.8-1.6-1.1l-1.9-1.9h17C60.9,49.4,59.7,51.7,59.1,54.1z M73.4,67.1c-4.9,0-9-3.7-9.6-8.4h5c0.6,2.1,2.5,3.6,4.7,3.6
		c2.2,0,4.1-1.5,4.7-3.6h3.1v-3.3h-3.4c-0.8-1.7-2.5-2.8-4.4-2.8c-2,0-3.6,1.2-4.4,2.8h-5.1c0.9-4.4,4.9-7.7,9.5-7.7
		c5.4,0,9.7,4.4,9.7,9.7S78.8,67.1,73.4,67.1z"/>
	<path fill="#5F6062" d="M31.5,34.1v-2.1c0-1.6-1.3-2.8-2.8-2.8H25v7.8h3.7C30.2,36.9,31.5,35.6,31.5,34.1z"/>
</g>
</svg>
