<?xml version="1.0" encoding="UTF-8"?>
<svg width="66px" height="34px" viewBox="0 0 66 34" version="1.1" xmlns="http://www.w3.org/2000/svg" xmlns:xlink="http://www.w3.org/1999/xlink" xmlns:sketch="http://www.bohemiancoding.com/sketch/ns">
    <!-- Generator: Sketch 3.4.2 (15855) - http://www.bohemiancoding.com/sketch -->
    <title>core-aaa-insurance-logo</title>
    <desc>Created with Sketch.</desc>
    <defs></defs>
    <g id="Page-1" stroke="none" stroke-width="1" fill="none" fill-rule="evenodd" sketch:type="MSPage">
        <g id="core-aaa-insurance-logo" sketch:type="MSLayerGroup">
            <g id="Page-1" sketch:type="MSShapeGroup">
                <g id="core-aaa-insurance-logo">
                    <g id="Group">
                        <g id="Shape" transform="translate(18.000000, 26.000000)" fill="#00529A">
                            <path d="M1.6,0.1 L3.2,0.1 L1.6,7.7 L0,7.7 L1.6,0.1 L1.6,0.1 L1.6,0.1 Z"></path>
                            <path d="M3.9,2.9 C4,2.6 4,2.3 4,2.1 L5.4,2.1 L5.3,2.6 L5.3,2.6 C5.7,2.2 6.3,1.9 6.9,1.9 C8,1.9 8.7,2.6 8.7,3.7 C8.7,4.1 8.6,4.6 8.5,4.9 L8,7.7 L6.5,7.7 L7,5.1 C7.1,4.7 7.2,4.3 7.2,3.9 C7.2,3.4 6.9,3.1 6.4,3.1 C5.4,3.1 5,4 4.8,4.9 L4.2,7.7 L2.7,7.7 L3.9,2.9 L3.9,2.9 L3.9,2.9 Z"></path>
                            <path d="M13.6,3.3 C13.2,3.2 12.8,3 12.4,3 C12,3 11.4,3.1 11.4,3.6 C11.4,4.3 13.3,4.6 13.3,5.9 C13.3,7.4 12,7.8 10.8,7.8 C10.2,7.8 9.6,7.7 9.1,7.5 L9.4,6.3 C9.8,6.5 10.2,6.7 10.8,6.7 C11.3,6.7 11.8,6.5 11.8,6.1 C11.8,5.2 9.9,5.1 9.9,3.7 C9.9,2.4 11.2,1.9 12.3,1.9 C12.8,1.9 13.4,2 13.9,2.1 L13.6,3.3 L13.6,3.3 L13.6,3.3 Z"></path>
                            <path d="M19.3,6.9 C19.2,7.2 19.2,7.5 19.2,7.7 L17.8,7.7 L17.9,7.2 L17.9,7.2 C17.5,7.6 16.9,7.9 16.3,7.9 C15.2,7.9 14.5,7.2 14.5,6.1 C14.5,5.7 14.6,5.2 14.7,4.9 L15.3,2.2 L16.8,2.2 L16.3,4.8 C16.2,5.2 16.1,5.6 16.1,6 C16.1,6.5 16.4,6.8 16.9,6.8 C17.9,6.8 18.3,5.9 18.5,5 L19.1,2.2 L20.6,2.2 L19.3,6.9 L19.3,6.9 L19.3,6.9 Z"></path>
                            <path d="M21.5,2.8 C21.5,2.6 21.6,2.3 21.6,2 L23,2 L22.8,3.1 L22.8,3.1 C23.1,2.5 23.8,1.9 24.5,1.9 C24.7,1.9 24.9,1.9 25.1,2 L24.8,3.4 C24.6,3.3 24.4,3.3 24.2,3.3 C23.2,3.3 22.7,4.2 22.5,5.1 L22,7.7 L20.5,7.7 L21.5,2.8 L21.5,2.8 L21.5,2.8 Z"></path>
                            <path d="M28.2,6.8 L28.2,6.8 C27.7,7.4 27.2,7.8 26.4,7.8 C25.4,7.8 24.7,7.2 24.7,6.2 C24.7,4.3 26.8,4.2 28.1,4.2 L28.6,4.2 L28.6,3.7 C28.6,3.1 28,3 27.5,3 C26.9,3 26.2,3.2 25.7,3.4 L25.9,2.2 C26.5,2 27.2,1.9 27.8,1.9 C28.9,1.9 30,2.3 30,3.6 C30,4.4 29.4,6.6 29.3,7.6 L28,7.6 L28.2,6.8 L28.2,6.8 L28.2,6.8 Z M26.7,6.8 C27.8,6.8 28.1,6 28.4,5.1 L27.9,5.1 C27.2,5.1 26,5.2 26,6.2 C26,6.6 26.4,6.8 26.7,6.8 L26.7,6.8 L26.7,6.8 Z"></path>
                            <path d="M31.5,2.9 C31.6,2.6 31.6,2.3 31.6,2.1 L33,2.1 L33,2.6 L33,2.6 C33.4,2.2 34,1.9 34.6,1.9 C35.7,1.9 36.4,2.6 36.4,3.7 C36.4,4.1 36.3,4.6 36.2,4.9 L35.6,7.6 L34.1,7.6 L34.6,5 C34.7,4.6 34.8,4.2 34.8,3.8 C34.8,3.3 34.5,3 34,3 C33,3 32.6,3.9 32.4,4.8 L31.8,7.6 L30.3,7.6 L31.5,2.9 L31.5,2.9 L31.5,2.9 Z"></path>
                            <path d="M41.6,3.4 C41.3,3.2 40.9,3.1 40.5,3.1 C39.3,3.1 38.7,4.2 38.7,5.2 C38.7,5.9 38.9,6.7 39.9,6.7 C40.3,6.7 40.7,6.6 41.1,6.4 L41,7.6 C40.6,7.8 40.1,7.9 39.6,7.9 C38.2,7.9 37.2,6.9 37.2,5.5 C37.2,3.5 38.5,2 40.5,2 C41,2 41.6,2.1 42,2.2 L41.6,3.4 L41.6,3.4 L41.6,3.4 Z"></path>
                            <path d="M43.4,5.3 C43.4,6.3 44,6.7 45,6.7 C45.6,6.7 46.2,6.5 46.7,6.3 L46.5,7.5 C45.9,7.7 45.3,7.8 44.7,7.8 C43.1,7.8 42,7 42,5.3 C42,3.6 43.4,1.9 45.2,1.9 C46.6,1.9 47.5,2.6 47.5,4 C47.5,4.4 47.4,4.8 47.4,5.3 L43.4,5.3 L43.4,5.3 L43.4,5.3 Z M46.1,4.3 L46.1,3.9 C46.1,3.3 45.8,3 45.2,3 C44.3,3 43.9,3.5 43.6,4.3 L46.1,4.3 L46.1,4.3 L46.1,4.3 Z"></path>
                        </g>
                        <g id="Shape">
                            <g id="Group" transform="translate(2.000000, 0.000000)" fill="#00529A">
                                <path d="M48.6,1.4 C47.1,-1.1 39.7,0.2 29.6,4.9 L29.4,5 L29.5,5.1 C30,5.5 30.5,5.9 30.9,6.3 L31,6.4 L31.1,6.4 C38.6,3.2 44.1,2.4 45.2,4.3 C46.5,6.6 41.3,12.2 32.6,18.1 L32.5,18.2 L32.8,18.5 L32.9,18.4 C43.8,11.2 50.2,4.3 48.6,1.4 L48.6,1.4 L48.6,1.4 Z" id="Shape"></path>
                                <path d="M13.5,27.9 C7.9,29.9 3.9,30.1 3.1,28.6 C2.3,27.2 3.9,24.6 7.5,21.2 L7.6,21.1 L6.6,20.7 L5.8,20.3 L5.7,20.3 L5.6,20.3 C1.2,24.4 -0.7,27.6 0.3,29.3 C1.5,31.3 6.4,30.9 13.7,28.2 L13.8,28.1 L13.5,27.9 L13.5,27.9 L13.5,27.9 L13.5,27.9 Z" id="Shape"></path>
                            </g>
                            <path d="M18.1,0.8 C8.4,0.8 0.5,5.7 0.5,11.7 C0.5,17.7 8.4,22.6 18.1,22.6 C27.8,22.6 35.7,17.7 35.7,11.7 C35.6,5.7 27.7,0.8 18.1,0.8 L18.1,0.8 L18.1,0.8 Z M15,16 L19.2,16 C19.2,16.2 20.6,21 20.7,21.3 C19.8,21.4 18.9,21.5 18.1,21.5 C16.6,21.5 15.1,21.3 13.7,21 C13.7,20.8 15,16.2 15,16 L15,16 L15,16 Z M15.4,14.5 C15.5,14.2 16.9,9.1 17.1,8.4 C17.3,9.1 18.7,14.2 18.8,14.5 L15.4,14.5 L15.4,14.5 L15.4,14.5 Z M17.1,2 C17,2.3 13.9,13.5 13.7,14.2 C13.5,13.5 10.6,3.6 10.6,3.4 C12.6,2.6 14.8,2.1 17.1,2 L17.1,2 L17.1,2 Z M18.7,2 C21,2.1 23.3,2.5 25.3,3.3 C25.2,3.5 22.5,13.5 22.3,14.2 C22.1,13.5 18.8,2.3 18.7,2 L18.7,2 L18.7,2 Z M23.9,14.5 C24,14.2 25.4,9.1 25.5,8.4 C25.7,9.1 27.1,14.2 27.2,14.5 L23.9,14.5 L23.9,14.5 L23.9,14.5 Z M23.2,17.3 C23.2,17.2 23.5,16.2 23.5,16 L27.7,16 C27.7,16.2 28.3,18.3 28.4,18.5 C27.2,19.4 25.7,20.1 24.1,20.6 C24.1,20.4 23.2,17.4 23.2,17.3 L23.2,17.3 L23.2,17.3 Z M31.2,15.7 C31.1,15.2 28.2,5.4 28,4.8 C30.8,6.6 32.4,9.2 32.4,11.8 C32.4,13.1 32,14.4 31.2,15.7 L31.2,15.7 L31.2,15.7 Z M11.9,20.6 C9.6,19.9 7.6,18.7 6.2,17.3 C6.2,17.2 6.5,16.2 6.5,16.1 L10.7,16.1 C10.7,16.2 11.8,20.2 11.9,20.6 L11.9,20.6 L11.9,20.6 Z M7,14.5 C7.1,14.2 8.5,9.1 8.7,8.4 C8.9,9.1 10.3,14.2 10.4,14.5 L7,14.5 L7,14.5 L7,14.5 Z M7.8,4.9 C7.6,5.5 5,15.1 4.9,15.6 C4.1,14.4 3.7,13.1 3.7,11.8 C3.7,9.2 5.2,6.8 7.8,4.9 L7.8,4.9 L7.8,4.9 Z" fill="#ED1C2E"></path>
                        </g>
                    </g>
                </g>
            </g>
        </g>
    </g>
</svg>