<?xml version="1.0" encoding="utf-8"?>
<!-- Generator: Adobe Illustrator 19.1.0, SVG Export Plug-In . SVG Version: 6.00 Build 0)  -->
<svg version="1.1" id="icons" xmlns="http://www.w3.org/2000/svg" xmlns:xlink="http://www.w3.org/1999/xlink" x="0px" y="0px"
	 viewBox="0 0 100 100" enable-background="new 0 0 100 100" xml:space="preserve">
<path fill="#5F6062" d="M82.4,70.7l-2.6-2.6l-1.6-1.4l-9.8-7c-1.1-1.1-2.8-1.1-3.8,0L59,65.3c-0.8,0.8-1,2.1-0.5,3.1
	c-6.1-1.3-11.9-4.3-16.6-9c-4.7-4.7-7.7-10.5-9-16.6c1,0.5,2.3,0.3,3.1-0.5l5.6-5.6c1.1-1.1,1.1-2.8,0-3.8l-7-9.8l-1.4-1.6l-2.6-2.6
	c-1.1-1.1-2.8-1.1-3.8,0l-4.1,4.1l-3,3c-0.1,0.1-0.2,0.2-0.3,0.3c-0.1,0.2-0.3,0.4-0.3,0.6c-4.4,8.7,2.2,25.3,16.2,39.2
	c14,14,30.6,20.6,39.2,16.2c0.2-0.1,0.4-0.2,0.6-0.3c0.1-0.1,0.2-0.2,0.3-0.3l3-3l4.1-4.1C83.5,73.5,83.5,71.8,82.4,70.7z"/>
</svg>
