<svg xmlns="http://www.w3.org/2000/svg" viewBox="2750 -20746.002 42.197 39.18">
  <defs>
    <style>
      .core-home-error-house {
        fill: #1778d3;
      }

      .core-home-error-triangle {
        fill: #d52b1e;
      }
    </style>
  </defs>
  <g id="Group_1978" data-name="Group 1978" transform="translate(2380 -21359)">
    <path id="path-2" class="core-home-error-house" d="M-972.011-103.438a1.051,1.051,0,0,1-.792.362,1.046,1.046,0,0,1-.7-.266l-1.246-1.109v12.967a1.156,1.156,0,0,1-1.151,1.161h-23.728a1.156,1.156,0,0,1-1.151-1.161V-104.42l-1.22,1.087a1.05,1.05,0,0,1-.766.265,1.052,1.052,0,0,1-.727-.361,1.072,1.072,0,0,1-.262-.773,1.069,1.069,0,0,1,.357-.733l14.95-13.3a1.048,1.048,0,0,1,1.4,0l6.6,5.872v-3.663a.578.578,0,0,1,.575-.581h2.686a.578.578,0,0,1,.575.581v7.082l4.508,4.012A1.072,1.072,0,0,1-972.011-103.438Zm-6.973,5.829v-6.663a.3.3,0,0,0-.3-.3h-6.74a.3.3,0,0,0-.3.3v6.663a.3.3,0,0,0,.3.3h6.74A.3.3,0,0,0-978.985-97.609Zm-12-6.986h-5.191a.3.3,0,0,0-.3.3v11.7a.3.3,0,0,0,.3.3h5.191a.3.3,0,0,0,.3-.3v-11.7a.3.3,0,0,0-.3-.279Z" transform="translate(1373.751 742.5)"/>
    <path id="path" class="core-home-error-triangle" d="M187.365,2025.1l-11.136-18.469a1.068,1.068,0,0,0-1.831,0L163.261,2025.1a1.068,1.068,0,0,0,.916,1.62H186.45a1.068,1.068,0,0,0,.916-1.62Zm-10.956-2.215a1.086,1.086,0,0,1-2.172,0v-.027a1.086,1.086,0,0,1,2.172,0Zm-1.092-2.477h0a.916.916,0,0,1-.916-.861l-.391-6.3a.916.916,0,0,1,.916-.97h.755a.916.916,0,0,1,.916.97l-.391,6.3a.916.916,0,0,1-.9.861Z" transform="translate(224.678 -1393.117)"/>
  </g>
</svg>
