<?xml version="1.0" encoding="utf-8"?>
<!-- Generator: Adobe Illustrator 19.1.0, SVG Export Plug-In . SVG Version: 6.00 Build 0)  -->
<svg version="1.1" id="icons" xmlns="http://www.w3.org/2000/svg" xmlns:xlink="http://www.w3.org/1999/xlink" x="0px" y="0px"
	 viewBox="0 0 100 100" enable-background="new 0 0 100 100" xml:space="preserve">
<g>
	<g>
		<path fill="#5F6062" d="M33,26.5h-2.7c-0.6,0-1-0.5-1-1V14.2c0-0.6,0.5-1,1-1H33c0.6,0,1,0.5,1,1v11.2C34.1,26,33.6,26.5,33,26.5z
			"/>
		<path fill="#5F6062" d="M73.2,47.9c-0.1,0-0.2,0-0.3,0v20.5c0,1.6-1.3,2.8-2.8,2.8H29.8c-1.6,0-2.8-1.3-2.8-2.8V42.1
			c0-1.6,1.3-2.8,2.8-2.8h26.3c-2.6-3.5-4.1-7.8-4.1-12.4c0-3.2,0.7-6.2,2-8.8H36.4v6.2c0,2.6-2.1,4.7-4.7,4.7S27,26.7,27,24.1v-6.2
			h-4.5c-2.6,0-4.7,2.1-4.7,4.7v54.9c0,2.6,2.1,4.7,4.7,4.7h54.9c2.6,0,4.7-2.1,4.7-4.7V45.9C79.4,47.2,76.4,47.9,73.2,47.9z"/>
		<circle fill="#5F6062" cx="36.9" cy="49.1" r="2.8"/>
		<circle fill="#5F6062" cx="49.9" cy="49.1" r="2.8"/>
		<circle fill="#5F6062" cx="62.9" cy="49.1" r="2.8"/>
		<circle fill="#5F6062" cx="36.9" cy="61.3" r="2.8"/>
		<circle fill="#5F6062" cx="49.9" cy="61.3" r="2.8"/>
		<circle fill="#5F6062" cx="62.9" cy="61.3" r="2.8"/>
	</g>
	<g>
		<path fill="#5F6062" d="M73.2,8.9c-9.9,0-17.8,8-17.8,17.8s8,17.8,17.8,17.8c9.9,0,17.8-8,17.8-17.8S83,8.9,73.2,8.9z M84.2,21.7
			L71.4,34.6c-0.3,0.3-0.7,0.5-1.2,0.5l0,0c-0.4,0-0.9-0.2-1.2-0.5l-6.2-6.4c-0.6-0.7-0.6-1.7,0-2.3c0.7-0.6,1.7-0.6,2.3,0l5.1,5.2
			l11.6-11.7c0.6-0.6,1.7-0.6,2.3,0S84.8,21,84.2,21.7z"/>
	</g>
</g>
</svg>
