<?xml version="1.0" encoding="UTF-8"?>
<svg width="65px" height="64px" viewBox="0 0 65 64" version="1.1" xmlns="http://www.w3.org/2000/svg" xmlns:xlink="http://www.w3.org/1999/xlink" xmlns:sketch="http://www.bohemiancoding.com/sketch/ns">
    <!-- Generator: Sketch 3.4.2 (15855) - http://www.bohemiancoding.com/sketch -->
    <title>core-add</title>
    <desc>Created with Sketch.</desc>
    <defs></defs>
    <g id="Page-1" stroke="none" stroke-width="1" fill="none" fill-rule="evenodd" sketch:type="MSPage">
        <g id="core-add" sketch:type="MSLayerGroup" fill="#5F6062">
            <path d="M64.5,32 L64.5,32 C64.5,30.1 63,28.5 61,28.5 L36,28.5 L36,3.5 C36,1.6 34.5,0 32.5,0 L32.5,0 C30.6,0 29,1.5 29,3.5 L29,28.5 L4,28.5 C2.1,28.5 0.5,30 0.5,32 L0.5,32 C0.5,33.9 2,35.5 4,35.5 L29,35.5 L29,60.5 C29,62.4 30.5,64 32.5,64 L32.5,64 C34.4,64 36,62.5 36,60.5 L36,35.5 L61,35.5 C63,35.5 64.5,33.9 64.5,32 L64.5,32 Z" id="Shape" sketch:type="MSShapeGroup"></path>
        </g>
    </g>
</svg>