
<svg xmlns="http://www.w3.org/2000/svg" x="0px" y="0px"
	 width="70.317px" height="65.57px" viewBox="0 0 70.317 65.57">

	<path fill="#5F6062" d="M63.543,33.441c-2.593,1.436-5.544,2.302-8.682,2.428c1.095,0.848,1.82,2.169,1.82,3.614
		c0,2.462-2.112,4.574-4.574,4.574c-2.467,0-4.579-2.112-4.579-4.574c0-1.706,1.01-3.24,2.449-4.025
		c-4.979-1.058-9.265-4.009-12.069-8.061H11.766c-0.843,0-1.428-0.839-1.137-1.63l3.597-9.776c0.658-1.787,2.36-2.975,4.265-2.975
		h16.207c0.265-1.587,0.72-3.109,1.342-4.544H18.491c-3.809,0-7.214,2.375-8.529,5.95L3.859,31.009
		c-1.879,1.973-3.781,4.376-3.852,6.083H0v18.264c0,0.091,0.006,0.18,0.017,0.267v5.13c0,2.661,2.157,4.817,4.817,4.817h1.413
		c2.661,0,4.817-2.157,4.817-4.817v-3.277h43.367v3.277c0,2.661,2.157,4.817,4.817,4.817h1.413c2.661,0,4.817-2.157,4.817-4.817
		v-5.397v0V37.092h-0.008C65.418,36.146,64.611,34.813,63.543,33.441z M13.025,44.058c-2.465,0-4.574-2.112-4.574-4.574
		c0-2.467,2.11-4.577,4.574-4.577c2.467,0,4.574,2.11,4.574,4.577C17.599,41.946,15.492,44.058,13.025,44.058z"/>
	<path fill="#5F6062" d="M54.062,0c-8.977,0-16.254,7.277-16.254,16.254s7.277,16.254,16.254,16.254
		c8.977,0,16.254-7.277,16.254-16.254S63.04,0,54.062,0z M64.05,11.595L52.398,23.337c-0.281,0.283-0.664,0.443-1.063,0.443l-0.01,0
		c-0.403-0.003-0.787-0.168-1.067-0.457l-5.668-5.87c-0.574-0.595-0.558-1.543,0.037-2.117c0.595-0.574,1.543-0.558,2.117,0.037
		l4.606,4.77L61.925,9.486c0.583-0.587,1.53-0.591,2.117-0.008C64.629,10.06,64.633,11.008,64.05,11.595z"/>

</svg>
