<?xml version="1.0" encoding="UTF-8"?>
<svg width="74px" height="66px" viewBox="0 0 74 66" version="1.1" xmlns="http://www.w3.org/2000/svg" xmlns:xlink="http://www.w3.org/1999/xlink" xmlns:sketch="http://www.bohemiancoding.com/sketch/ns">
    <!-- Generator: Sketch 3.4.2 (15855) - http://www.bohemiancoding.com/sketch -->
    <title>core-home</title>
    <desc>Created with Sketch.</desc>
    <defs></defs>
    <g id="Page-1" stroke="none" stroke-width="1" fill="none" fill-rule="evenodd" sketch:type="MSPage">
        <g id="core-home" sketch:type="MSLayerGroup" transform="translate(-1.000000, 0.000000)" fill="#5F6062">
            <path d="M74.4,35.2 C73.9,35.7 73.2,36 72.6,36 C72,36 71.5,35.8 71,35.4 L68.1,32.9 L68.1,62.6 C68.1,64.1 66.9,65.3 65.4,65.3 L10.5,65.3 C9,65.3 7.8,64.1 7.8,62.6 L7.8,33 L5,35.5 C4,36.4 2.4,36.3 1.6,35.3 C0.7,34.3 0.8,32.7 1.8,31.9 L36.4,1.4 C37.3,0.6 38.7,0.6 39.6,1.4 L54.9,14.8 L54.9,6.4 C54.9,5.7 55.5,5.1 56.2,5.1 L62.4,5.1 C63.1,5.1 63.7,5.7 63.7,6.4 L63.7,22.6 L74.1,31.8 C75.2,32.7 75.3,34.2 74.4,35.2 L74.4,35.2 Z M58.3,48.6 L58.3,33.3 C58.3,32.9 58,32.6 57.6,32.6 L42,32.6 C41.6,32.6 41.3,32.9 41.3,33.3 L41.3,48.6 C41.3,49 41.6,49.3 42,49.3 L57.6,49.3 C58,49.3 58.3,48.9 58.3,48.6 L58.3,48.6 Z M30.5,32.6 L18.5,32.6 C18.1,32.6 17.8,32.9 17.8,33.3 L17.8,60.1 C17.8,60.5 18.1,60.8 18.5,60.8 L30.5,60.8 C30.9,60.8 31.2,60.5 31.2,60.1 L31.2,33.3 C31.2,32.9 30.9,32.6 30.5,32.6 L30.5,32.6 Z" id="Shape" sketch:type="MSShapeGroup"></path>
        </g>
    </g>
</svg>