<svg xmlns="http://www.w3.org/2000/svg" viewBox="2792 -20746.002 43.197 39.83">
    <g id="Group_1979" data-name="Group 1979" transform="translate(2380 -21359)">
        <path id="path-5" class="core-auto-triangle-auto" d="M-1266.133-95.331h0c-.042-.751-.988-1.973-1.939-3.02l-3.231-8.838a4.73,4.73,0,0,0-4.429-3.11h-14.807a4.73,4.73,0,0,0-4.429,3.11l-3.153,8.674c-.978,1.058-1.965,2.29-2,3.174h0v9.531a1.175,1.175,0,0,0,0,.138v2.682a2.509,2.509,0,0,0,2.5,2.518h.736a2.509,2.509,0,0,0,2.5-2.518V-84.7h22.535v1.714a2.509,2.509,0,0,0,2.5,2.518h.736a2.51,2.51,0,0,0,2.5-2.518V-85.81h0Zm-28.5-5.924,1.871-5.115a2.36,2.36,0,0,1,2.217-1.555h14.806a2.36,2.36,0,0,1,2.217,1.555l1.871,5.115a.638.638,0,0,1-.075.579.629.629,0,0,1-.514.272h-21.795a.628.628,0,0,1-.536-.275.638.638,0,0,1-.063-.6Zm1.245,9.568a2.43,2.43,0,0,1-2.375-2.391,2.425,2.425,0,0,1,2.375-2.4,2.425,2.425,0,0,1,2.375,2.4,2.425,2.425,0,0,1-2.375,2.364Zm17.928-2.391a2.431,2.431,0,0,1,2.38-2.4,2.431,2.431,0,0,1,2.375,2.4,2.43,2.43,0,0,1-2.375,2.391,2.431,2.431,0,0,1-2.385-2.417Z" transform="translate(1712.124 733.301)"/>
        <path id="path" class="core-auto-triangle-triangle" d="M187.365,2025.1l-11.136-18.469a1.068,1.068,0,0,0-1.831,0L163.261,2025.1a1.068,1.068,0,0,0,.916,1.62H186.45a1.068,1.068,0,0,0,.916-1.62Zm-10.956-2.215a1.086,1.086,0,0,1-2.172,0v-.027a1.086,1.086,0,0,1,2.172,0Zm-1.092-2.477h0a.916.916,0,0,1-.916-.861l-.391-6.3a.916.916,0,0,1,.916-.97h.755a.916.916,0,0,1,.916.97l-.391,6.3a.916.916,0,0,1-.9.861Z" transform="translate(267.678 -1393.117)"/>
    </g>
</svg>
