<?xml version="1.0" encoding="utf-8"?>
<!-- Generator: Adobe Illustrator 19.1.0, SVG Export Plug-In . SVG Version: 6.00 Build 0)  -->
<svg version="1.1" id="icons" xmlns="http://www.w3.org/2000/svg" xmlns:xlink="http://www.w3.org/1999/xlink" x="0px" y="0px"
	 viewBox="0 0 100 100" enable-background="new 0 0 100 100" xml:space="preserve">
<path fill="#5F6062" d="M78.4,46.2h-47L41.5,36c1.5-1.5,1.5-3.9,0-5.4l0,0c-1.5-1.5-3.9-1.5-5.4,0L18.5,48.3c-0.9,0.9-0.9,2.4,0,3.4
	l17.6,17.6c1.5,1.5,3.9,1.5,5.4,0l0,0c1.5-1.5,1.5-3.9,0-5.4L31.4,53.8h47c2.1,0,3.8-1.7,3.8-3.8v0C82.2,47.9,80.5,46.2,78.4,46.2z"
	/>
</svg>
