<?xml version="1.0" encoding="utf-8"?>
<!-- Generator: Adobe Illustrator 19.1.0, SVG Export Plug-In . SVG Version: 6.00 Build 0)  -->
<svg version="1.1" id="icons" xmlns="http://www.w3.org/2000/svg" xmlns:xlink="http://www.w3.org/1999/xlink" x="0px" y="0px"
	 viewBox="0 0 100 100" enable-background="new 0 0 100 100" xml:space="preserve">
<path fill="#5F6062" d="M45.8,21.3v47L35.6,58.2c-1.5-1.5-3.9-1.5-5.4,0l0,0c-1.5,1.5-1.5,3.9,0,5.4l17.6,17.6
	c0.9,0.9,2.4,0.9,3.4,0l17.6-17.6c1.5-1.5,1.5-3.9,0-5.4l0,0c-1.5-1.5-3.9-1.5-5.4,0L53.4,68.4v-47c0-2.1-1.7-3.8-3.8-3.8h0
	C47.5,17.5,45.8,19.2,45.8,21.3z"/>
</svg>
