<svg xmlns="http://www.w3.org/2000/svg" viewBox="-465.999 -20282.857 41.951 32.035">
    <defs>
        <style>
            .cls-1 {
            fill: #1778d3;
            }

            .cls-2 {
            fill: #00844d;
            }
        </style>
    </defs>
    <g id="Group_1977" data-name="Group 1977" transform="translate(69)">
        <path id="path-2" class="cls-1" d="M-972.011-103.438a1.051,1.051,0,0,1-.792.362,1.046,1.046,0,0,1-.7-.266l-1.246-1.109v12.967a1.156,1.156,0,0,1-1.151,1.161h-23.728a1.156,1.156,0,0,1-1.151-1.161V-104.42l-1.22,1.087a1.05,1.05,0,0,1-.766.265,1.052,1.052,0,0,1-.727-.361,1.072,1.072,0,0,1-.262-.773,1.069,1.069,0,0,1,.357-.733l14.95-13.3a1.048,1.048,0,0,1,1.4,0l6.6,5.872v-3.663a.578.578,0,0,1,.575-.581h2.686a.578.578,0,0,1,.575.581v7.082l4.508,4.012A1.072,1.072,0,0,1-972.011-103.438Zm-6.973,5.829v-6.663a.3.3,0,0,0-.3-.3h-6.74a.3.3,0,0,0-.3.3v6.663a.3.3,0,0,0,.3.3h6.74A.3.3,0,0,0-978.985-97.609Zm-12-6.986h-5.191a.3.3,0,0,0-.3.3v11.7a.3.3,0,0,0,.3.3h5.191a.3.3,0,0,0,.3-.3v-11.7a.3.3,0,0,0-.3-.279Z" transform="translate(468.752 -20160.5)"/>
        <path id="path" class="cls-2" d="M170.935,440.7a8.905,8.905,0,1,0,8.905,8.905A8.905,8.905,0,0,0,170.935,440.7Zm4.545,6.033-5.7,6.753a.277.277,0,0,1-.385.017l-2.969-2.983a.624.624,0,0,1,.884-.881l2.011,2.019a.277.277,0,0,0,.385-.017l4.822-5.714a.623.623,0,1,1,.953.8Z" transform="translate(-672.889 -20723.557)"/>
    </g>
</svg>
