<?xml version="1.0" encoding="utf-8"?>
<!-- Generator: Adobe Illustrator 19.1.0, SVG Export Plug-In . SVG Version: 6.00 Build 0)  -->
<svg version="1.1" xmlns="http://www.w3.org/2000/svg" xmlns:xlink="http://www.w3.org/1999/xlink" x="0px" y="0px"
	 viewBox="0 0 100 100" enable-background="new 0 0 100 100" xml:space="preserve">
<g id="grid" display="none">
	<g display="inline">
		
			<line opacity="0.35" fill-rule="evenodd" clip-rule="evenodd" fill="none" stroke="#666666" stroke-width="0.5" x1="87" y1="7.4" x2="87" y2="92.6"/>
		
			<line opacity="0.35" fill-rule="evenodd" clip-rule="evenodd" fill="none" stroke="#666666" stroke-width="0.5" x1="7.4" y1="87" x2="92.6" y2="87"/>
		
			<line opacity="0.35" fill-rule="evenodd" clip-rule="evenodd" fill="none" stroke="#666666" stroke-width="0.5" x1="92.6" y1="7.4" x2="7.4" y2="92.6"/>
		
			<line opacity="0.35" fill-rule="evenodd" clip-rule="evenodd" fill="none" stroke="#666666" stroke-width="0.5" x1="92.6" y1="50" x2="7.4" y2="50"/>
		
			<line opacity="0.35" fill-rule="evenodd" clip-rule="evenodd" fill="none" stroke="#666666" stroke-width="0.5" x1="50" y1="7.4" x2="50" y2="92.6"/>
		
			<line opacity="0.35" fill-rule="evenodd" clip-rule="evenodd" fill="none" stroke="#666666" stroke-width="0.5" x1="92.6" y1="34.2" x2="7.4" y2="34.2"/>
		
			<line opacity="0.35" fill-rule="evenodd" clip-rule="evenodd" fill="none" stroke="#666666" stroke-width="0.5" x1="92.6" y1="65.8" x2="7.4" y2="65.8"/>
		
			<line opacity="0.35" fill-rule="evenodd" clip-rule="evenodd" fill="none" stroke="#666666" stroke-width="0.5" x1="34.2" y1="7.4" x2="34.2" y2="92.6"/>
		
			<line opacity="0.35" fill-rule="evenodd" clip-rule="evenodd" fill="none" stroke="#666666" stroke-width="0.5" x1="65.8" y1="7.4" x2="65.8" y2="92.6"/>
		
			<line opacity="0.35" fill-rule="evenodd" clip-rule="evenodd" fill="none" stroke="#666666" stroke-width="0.5" x1="13" y1="7.4" x2="13" y2="92.6"/>
		
			<line opacity="0.35" fill-rule="evenodd" clip-rule="evenodd" fill="none" stroke="#666666" stroke-width="0.5" x1="7.4" y1="13" x2="92.6" y2="13"/>
		
			<line opacity="0.35" fill-rule="evenodd" clip-rule="evenodd" fill="none" stroke="#666666" stroke-width="0.5" x1="7.4" y1="7.4" x2="92.6" y2="92.6"/>
		
			<rect x="17.8" y="17.8" fill-rule="evenodd" clip-rule="evenodd" fill="none" stroke="#FF0000" stroke-width="0.5" width="64.5" height="64.5"/>
		
			<rect x="22.5" y="13" fill-rule="evenodd" clip-rule="evenodd" fill="none" stroke="#FF0000" stroke-width="0.5" width="55" height="74"/>
		
			<rect x="13" y="22.5" fill-rule="evenodd" clip-rule="evenodd" fill="none" stroke="#FF0000" stroke-width="0.5" width="74" height="55"/>
		
			<rect x="22.5" y="13" fill-rule="evenodd" clip-rule="evenodd" fill="none" stroke="#FF0000" stroke-width="0.5" width="55" height="74"/>
	</g>
</g>
<g id="icons">
	<g>
		<path fill="#5F6062" d="M77.1,63.9H53.9c0-0.1,0-0.2,0-0.2l-0.9-11c0-0.7-0.5-1.2-1.1-1.4l-0.4-9.6c1-0.6,1.7-1.6,1.7-2.9
			c0-1.8-1.5-3.3-3.3-3.3s-3.3,1.5-3.3,3.3c0,1.2,0.7,2.3,1.7,2.9l-0.4,9.6C47.5,51.4,47,52,47,52.7l-0.9,11c0,0.1,0,0.2,0,0.2H22.9
			c-2.6,0-4.7,2.1-4.7,4.7v8.7c0,2.6,2.1,4.7,4.7,4.7h54.3c2.6,0,4.7-2.1,4.7-4.7v-8.7C81.8,66,79.7,63.9,77.1,63.9z M59.3,76.4
			c-1.8,0-3.3-1.5-3.3-3.3c0-1.8,1.5-3.3,3.3-3.3s3.3,1.5,3.3,3.3C62.6,74.9,61.1,76.4,59.3,76.4z M73.4,76.4
			c-1.8,0-3.3-1.5-3.3-3.3c0-1.8,1.5-3.3,3.3-3.3c1.8,0,3.3,1.5,3.3,3.3C76.7,74.9,75.2,76.4,73.4,76.4z"/>
		<path fill="#5F6062" d="M25.3,58.6c0.9,1,2.5,1.1,3.4,0.1h0c0.9-0.9,0.9-2.3,0.1-3.2c-1.8-2.1-3.2-4.5-4.3-7
			c-1.3-3.1-1.9-6.4-1.9-9.8c0-3.4,0.6-6.7,1.9-9.8c1-2.6,2.5-4.9,4.3-7c0.8-0.9,0.8-2.3-0.1-3.2h0c-1-1-2.6-0.9-3.4,0.1
			c-2.1,2.5-3.8,5.3-5,8.3c-1.5,3.7-2.3,7.6-2.3,11.6c0,4,0.8,7.9,2.3,11.6C21.4,53.3,23.1,56.1,25.3,58.6z"/>
		<path fill="#5F6062" d="M42.1,45.3L42.1,45.3c0.8-0.8,0.9-2,0.3-2.9c-0.7-1.1-1-2.4-1-3.7s0.4-2.6,1-3.7c0.6-0.9,0.4-2.1-0.3-2.9
			l0,0c-1.1-1.1-2.9-0.9-3.7,0.4c-1.1,1.8-1.7,4-1.7,6.2c0,2.2,0.6,4.3,1.7,6.2C39.3,46.1,41.1,46.3,42.1,45.3z"/>
		<path fill="#5F6062" d="M31.9,51.8c0.9,1.1,2.5,1.2,3.5,0.2l0,0c0.8-0.8,0.9-2.2,0.2-3.1c-2.3-3-3.5-6.6-3.5-10.3
			c0-3.6,1.2-7.3,3.5-10.3c0.7-0.9,0.6-2.3-0.2-3.1l0,0c-1-1-2.6-0.9-3.5,0.2c-2.9,3.7-4.5,8.3-4.5,13.1S28.9,48.1,31.9,51.8z"/>
		<path fill="#5F6062" d="M75.4,28.9c1.3,3.1,1.9,6.4,1.9,9.8c0,3.4-0.6,6.7-1.9,9.8c-1,2.6-2.5,4.9-4.3,7c-0.8,0.9-0.8,2.3,0.1,3.2
			h0c1,1,2.6,0.9,3.4-0.1c2.1-2.5,3.8-5.3,5-8.3c1.5-3.7,2.3-7.6,2.3-11.6c0-4-0.8-7.9-2.3-11.6c-1.2-3-2.9-5.8-5-8.3
			c-0.9-1-2.5-1.1-3.4-0.1l0,0c-0.9,0.9-0.9,2.3-0.1,3.2C73,23.9,74.4,26.3,75.4,28.9z"/>
		<path fill="#5F6062" d="M58.5,38.7c0,1.3-0.4,2.6-1,3.7c-0.6,0.9-0.4,2.1,0.3,2.9l0,0c1.1,1.1,2.9,0.9,3.7-0.4
			c1.1-1.8,1.7-4,1.7-6.2c0-2.2-0.6-4.3-1.7-6.2c-0.8-1.3-2.6-1.5-3.7-0.4l0,0c-0.8,0.8-0.9,2-0.3,2.9
			C58.2,36.1,58.5,37.3,58.5,38.7z"/>
		<path fill="#5F6062" d="M64.6,52L64.6,52c1,1,2.6,0.9,3.5-0.2c2.9-3.7,4.5-8.3,4.5-13.1s-1.6-9.4-4.5-13.1
			c-0.9-1.1-2.5-1.2-3.5-0.2v0c-0.8,0.8-0.9,2.2-0.2,3.1c2.3,3,3.5,6.6,3.5,10.3c0,3.6-1.2,7.3-3.5,10.3
			C63.7,49.9,63.8,51.2,64.6,52z"/>
	</g>
</g>
</svg>
