<svg xmlns="http://www.w3.org/2000/svg" width="93.437" height="100" viewBox="0 0 93.437 100">
  <g id="group-207" transform="translate(-1262.274 -1212.775)">
    <path id="path" d="M59.193,606.941a4.46,4.46,0,0,0-4.46,4.46v28.975a7.285,7.285,0,0,1-14.569,0,4.527,4.527,0,1,0-9.054,0,16.353,16.353,0,0,0,32.707,0V611.49a4.46,4.46,0,0,0-4.624-4.549Z" transform="translate(1249.806 656.046)" fill="#767676"/>
    <path id="path-2" data-name="path" d="M69.845,580.234v-2.542a4.527,4.527,0,0,0-9.054,0v2.527A47.172,47.172,0,0,0,18.57,620.76,23.148,23.148,0,0,1,48.615,623.6a23.147,23.147,0,0,1,33.346,0,23.148,23.148,0,0,1,30.045-2.839A47.172,47.172,0,0,0,69.845,580.234Z" transform="translate(1243.704 639.61)" fill="#767676"/>
  </g>
</svg>
