<svg id="Layer_1" data-name="Layer 1" xmlns="http://www.w3.org/2000/svg" viewBox="0 0 20 20"><defs><style>.cls-1,.cls-2{fill:#d52b1e;}.cls-1{opacity:0.23;}.cls-2,.cls-3{stroke:#d52b1e;}.cls-2{stroke-width:0.23px;}.cls-3{fill:none;stroke-width:0.69px;}</style></defs><g id="Group_3" data-name="Group 3"><g id="Group_1" data-name="Group 1"><circle id="Ellipse_1" data-name="Ellipse 1" class="cls-1" cx="10" cy="10" r="10"/><circle id="Ellipse_2" data-name="Ellipse 2" class="cls-1" cx="10" cy="10" r="8.16"/><g id="core-like"><path id="Path_1" data-name="Path 1" class="cls-2" d="M8.44,12.79H5.38A.52.52,0,0,1,5,12.62a.48.48,0,0,1-.16-.39V6.74A.48.48,0,0,1,5,6.35a.51.51,0,0,1,.39-.16H8.44a.49.49,0,0,1,.39.16A.51.51,0,0,1,9,6.74v5.49a.51.51,0,0,1-.16.39A.46.46,0,0,1,8.44,12.79Z"/><path id="Path_2" data-name="Path 2" class="cls-3" d="M14.71,11.3l-.14,0H12.48l.65,2.13a.83.83,0,0,1-.25.89h0a.52.52,0,0,1-.73-.09.64.64,0,0,1-.08-.14l-1.41-2.78h0l-.94-.67a.49.49,0,0,1-.18-.4V6.44A.43.43,0,0,1,9.84,6l1.85-.45a.2.2,0,0,1,.11,0h1.91a.73.73,0,0,1,.74.67,1.07,1.07,0,0,1-.13.76.86.86,0,0,1,.39.59,1.12,1.12,0,0,1-.13.76.86.86,0,0,1,.39.59,1.12,1.12,0,0,1-.13.76.82.82,0,0,1,.38.59A.87.87,0,0,1,14.71,11.3Z"/></g></g></g></svg>