<svg id="Layer_1" data-name="Layer 1" xmlns="http://www.w3.org/2000/svg" viewBox="0 0 20 20"><defs><style>.cls-1,.cls-2{fill:#00844d;}.cls-1{opacity:0.23;}.cls-3{fill:none;stroke:#00844d;stroke-width:0.69px;}</style></defs><g id="Group_2" data-name="Group 2"><g id="Group_1" data-name="Group 1"><circle id="Ellipse_1" data-name="Ellipse 1" class="cls-1" cx="10" cy="10" r="10"/><circle id="Ellipse_2" data-name="Ellipse 2" class="cls-1" cx="10" cy="10" r="8.16"/><g id="core-like"><path id="Path_1" data-name="Path 1" class="cls-2" d="M7.18,9.07H5a.38.38,0,0,0-.38.38h0V13.3a.32.32,0,0,0,.11.27.39.39,0,0,0,.27.11H7.18a.38.38,0,0,0,.38-.38h0V9.46a.32.32,0,0,0-.11-.27A.36.36,0,0,0,7.18,9.07Z" transform="translate(0 0.01)"/><path id="Path_2" data-name="Path 2" class="cls-3" d="M14.41,8.37a.55.55,0,0,0-.18,0h-2.6l.8-2.14a.72.72,0,0,0-.3-.88h0a.73.73,0,0,0-1,.22h0L9.35,8.33h0L8.17,9a.46.46,0,0,0-.22.4v3.82a.45.45,0,0,0,.37.45l2.31.45.15,0h2.37a.86.86,0,0,0,.93-.68.85.85,0,0,0-.16-.75.85.85,0,0,0,.49-.6.91.91,0,0,0-.16-.75.87.87,0,0,0,.48-.59.93.93,0,0,0-.16-.76.88.88,0,0,0-.16-1.65Z" transform="translate(0 0.01)"/></g></g></g></svg>