<?xml version="1.0" encoding="utf-8"?>
<!-- Generator: Adobe Illustrator 16.0.0, SVG Export Plug-In . SVG Version: 6.00 Build 0)  -->
<!DOCTYPE svg PUBLIC "-//W3C//DTD SVG 1.0//EN" "http://www.w3.org/TR/2001/REC-SVG-20010904/DTD/svg10.dtd">
<svg version="1.0" id="Layer_1" xmlns="http://www.w3.org/2000/svg" xmlns:xlink="http://www.w3.org/1999/xlink" x="0px" y="0px"
	 width="32px" height="32px" viewBox="0 0 32 32" enable-background="new 0 0 32 32" xml:space="preserve">
<g>
	<path fill="#EAEAEA" d="M20.029,28.515c-2.343-2.343-2.343-6.143,0-8.485s6.188-2.283,8.485,0C29.562,21,32,21,32,18
		c0-2.236,0,0.217,0-2c0-8.837-7.163-16-16-16S0,7.163,0,16s7.163,16,16,16c2.217,0-0.236,0,2,0C22,32,20.537,29.054,20.029,28.515z
		"/>
	<g opacity="0.1">
		<path d="M18,31c-0.643,0-0.893,0-0.982,0c-0.003,0-0.021,0-0.049,0c-0.089,0-0.335,0-0.969,0C7.332,31,0.292,24.104,0.025,15.5
			C0.021,15.668,0,15.831,0,16c0,8.837,7.163,16,16,16c0.634,0,0.88,0,0.969,0c0.028,0,0.046,0,0.049,0c0.09,0,0.34,0,0.982,0
			c2.57,0,2.882-1.215,2.644-2.228C20.441,30.445,19.735,31,18,31z"/>
		<path d="M28.515,19.029c-2.298-2.283-6.143-2.343-8.485,0c-1.299,1.299-1.851,3.045-1.709,4.742
			c0.113-1.363,0.665-2.698,1.709-3.742c2.343-2.343,6.188-2.283,8.485,0C29.562,21,32,21,32,18c0-0.643,0-0.893,0-0.982
			c0-0.006,0-0.014,0-0.014C32,20,29.562,20,28.515,19.029z"/>
	</g>
	<circle fill="#84BF56" cx="16" cy="5" r="3"/>
	<path opacity="0.15" d="M16,3c1.485,0,2.71,1.083,2.949,2.5C18.978,5.337,19,5.171,19,5c0-1.656-1.344-3-3-3s-3,1.344-3,3
		c0,0.171,0.022,0.337,0.051,0.5C13.29,4.083,14.515,3,16,3z"/>
	<circle fill="#EF4D4D" cx="5" cy="16" r="3"/>
	<circle fill="#EACA44" cx="8" cy="8" r="3"/>
	<circle fill="#469FCC" cx="24" cy="8" r="3"/>
	<circle fill="#8874D1" cx="8" cy="24" r="3"/>
	<path opacity="0.15" d="M24,6c1.485,0,2.71,1.083,2.949,2.5C26.978,8.337,27,8.171,27,8c0-1.656-1.344-3-3-3s-3,1.344-3,3
		c0,0.171,0.022,0.337,0.051,0.5C21.29,7.083,22.515,6,24,6z"/>
	<path opacity="0.1" d="M8,6c1.485,0,2.71,1.083,2.949,2.5C10.978,8.337,11,8.171,11,8c0-1.656-1.344-3-3-3S5,6.344,5,8
		c0,0.171,0.022,0.337,0.051,0.5C5.29,7.083,6.515,6,8,6z"/>
	<path opacity="0.15" d="M5,14c1.485,0,2.71,1.083,2.949,2.5C7.978,16.337,8,16.171,8,16c0-1.656-1.344-3-3-3s-3,1.344-3,3
		c0,0.171,0.022,0.337,0.051,0.5C2.29,15.083,3.515,14,5,14z"/>
	<path opacity="0.15" d="M8,22c1.485,0,2.71,1.083,2.949,2.5C10.978,24.337,11,24.171,11,24c0-1.656-1.344-3-3-3s-3,1.344-3,3
		c0,0.171,0.022,0.337,0.051,0.5C5.29,23.083,6.515,22,8,22z"/>
</g>
<g>
</g>
<g>
</g>
<g>
</g>
<g>
</g>
<g>
</g>
<g>
</g>
</svg>
