<?xml version="1.0" encoding="utf-8"?>
<!-- Generator: Adobe Illustrator 16.0.0, SVG Export Plug-In . SVG Version: 6.00 Build 0)  -->
<!DOCTYPE svg PUBLIC "-//W3C//DTD SVG 1.0//EN" "http://www.w3.org/TR/2001/REC-SVG-20010904/DTD/svg10.dtd">
<svg version="1.0" id="Layer_1" xmlns="http://www.w3.org/2000/svg" xmlns:xlink="http://www.w3.org/1999/xlink" x="0px" y="0px"
	 width="32px" height="32px" viewBox="0 0 32 32" enable-background="new 0 0 32 32" xml:space="preserve">
<g>
	<path fill="#EF4D4D" d="M12,31c0,0.553-0.447,1-1,1H1c-0.553,0-1-0.447-1-1V1c0-0.553,0.447-1,1-1h10c0.553,0,1,0.447,1,1V31z"/>
	<path fill="#EACA44" d="M20.762,4.021l-9.205-3.907c-0.51-0.216-1.096,0.021-1.312,0.529L0,24.779v5.192L4.779,32h5.191
		l11.32-26.668C21.508,4.823,21.27,4.236,20.762,4.021z"/>
	<path fill="#84BF56" d="M27.921,11.15L20.85,4.079c-0.391-0.391-1.023-0.391-1.414,0L0,23.516v4.969L3.516,32h4.969l19.437-19.436
		C28.312,12.174,28.312,11.541,27.921,11.15z"/>
	<path fill="#469FCC" d="M31.888,20.443l-3.907-9.205c-0.216-0.509-0.803-0.746-1.311-0.53L0,22.03v5.188L2.03,32h5.19
		l24.138-10.246C31.867,21.539,32.104,20.952,31.888,20.443z"/>
	<path fill="#EAEAEA" d="M1,32c-0.553,0-1-0.447-1-1V21c0-0.553,0.447-1,1-1h30c0.553,0,1,0.447,1,1v10c0,0.553-0.447,1-1,1H1z"/>
	<circle fill="#434854" cx="6" cy="26" r="2"/>
	<path opacity="0.15" d="M0,21c0-0.553,0.447-1,1-1h30c0.494,0,0.886,0.364,0.967,0.836c0-0.131-0.024-0.265-0.079-0.393L31.275,19
		H0V21z"/>
	<path opacity="0.15" d="M4.318,19.197L3.516,20h1.267l21.888-9.292c0.296-0.126,0.61-0.083,0.871,0.062l-1.006-1.006L4.318,19.197z
		"/>
	<path opacity="0.1" d="M2.135,20h1.381l15.92-15.921c0.228-0.228,0.535-0.307,0.831-0.269l-1.363-0.579L2.135,20z"/>
	<g opacity="0.2">
		<path d="M11.391,0.079c-0.055-0.023-0.118-0.022-0.178-0.036C11.272,0.046,11.331,0.065,11.391,0.079z"/>
	</g>
	<path opacity="0.15" d="M11,0H9.423L0.934,20h1.095l8.217-19.357c0.162-0.381,0.531-0.609,0.922-0.609C11.11,0.023,11.06,0,11,0z"
		/>
</g>
<g>
</g>
<g>
</g>
<g>
</g>
<g>
</g>
<g>
</g>
<g>
</g>
</svg>
