<svg id="ASSETS" xmlns="http://www.w3.org/2000/svg" viewBox="0 0 64 64"><defs><style>.cls-1{fill:#5f6062;}</style></defs><title>accel</title><path class="cls-1" d="M48.58,14.68a1.09,1.09,0,0,0-.78-.32,1.08,1.08,0,0,0-.68.23L29.6,27.51h0a3.87,3.87,0,0,0-.89.69A4.47,4.47,0,0,0,35,34.53a4.36,4.36,0,0,0,.69-.89h0l12.93-17.5A1.1,1.1,0,0,0,48.58,14.68Z"/><path class="cls-1" d="M56.87,18.72l-.18-.35-.33-.61L56,17.08c-.06-.11-.13-.22-.2-.33-.2-.33-.41-.65-.62-1l0,0a27.94,27.94,0,0,0-8.65-8.26l-.15-.09c-.29-.18-.59-.35-.88-.51l-.34-.19-.62-.32a28.07,28.07,0,0,0-12.7-3v0h0a28.11,28.11,0,1,0,0,56.21,1.77,1.77,0,0,0,1.77-1.76v-7a1.77,1.77,0,0,0-2.06-1.74A1.83,1.83,0,0,0,30,50.93V56a24.55,24.55,0,0,1-14.26-5.88l3.87-3.87a1.83,1.83,0,0,0,.26-2.33,1.76,1.76,0,0,0-2.68-.22l-4,3.94a24.42,24.42,0,0,1-6-14.41h5.45a1.82,1.82,0,0,0,1.82-1.46,1.75,1.75,0,0,0-1.73-2.05H7.24a24.45,24.45,0,0,1,6-14.36l3.84,3.83a1.77,1.77,0,0,0,2.58-.1,1.83,1.83,0,0,0-.17-2.46l-3.76-3.76a24.55,24.55,0,0,1,16.07-6h0V22.63L45.53,12.49a3.74,3.74,0,0,1,5.24,5.24L40.6,31.47H58a1.83,1.83,0,0,0,1.84-1.94A27.94,27.94,0,0,0,56.87,18.72Z"/></svg>