<svg xmlns="http://www.w3.org/2000/svg" height="64px" width="64px" viewBox="0 0 64 64"><defs><style>.cls-1{fill:#2685de;}.cls-2{fill:#fff;}</style></defs><title>accl_solid_blue</title><g id="ASSETS2"><circle class="cls-1" cx="32" cy="32.12" r="28.09"/><path class="cls-2" d="M40.4,23.74a.55.55,0,0,0-.73,0l-8.75,6.45h0a2.48,2.48,0,0,0-.45.35,2.23,2.23,0,0,0,3.16,3.16,2.1,2.1,0,0,0,.35-.45h0l6.46-8.74A.54.54,0,0,0,40.4,23.74Z"/><path class="cls-2" d="M44.54,25.76l-.09-.18-.16-.3a3.79,3.79,0,0,0-.2-.34L44,24.78l-.32-.49v0a14.07,14.07,0,0,0-4.32-4.13l-.08,0-.44-.26-.16-.09-.32-.16A14,14,0,0,0,32,18.08h0a14,14,0,1,0,0,28.08.88.88,0,0,0,.89-.88V41.8a.88.88,0,0,0-1-.86.91.91,0,0,0-.73.91v2.53A12.21,12.21,0,0,1,24,41.44l1.93-1.93a.91.91,0,0,0,.13-1.16.88.88,0,0,0-1.34-.11l-2,2a12.17,12.17,0,0,1-3-7.2h2.72a.91.91,0,0,0,.91-.73.88.88,0,0,0-.86-1H19.75a12.19,12.19,0,0,1,3-7.17L24.65,26a.87.87,0,0,0,.63.26.85.85,0,0,0,.66-.31.91.91,0,0,0-.08-1.23L24,22.84a12.26,12.26,0,0,1,8-3h0v7.86l6.87-5.06A1.84,1.84,0,0,1,40,22.26a1.87,1.87,0,0,1,1.48,3l-5.07,6.87h8.7a.91.91,0,0,0,.92-1A13.84,13.84,0,0,0,44.54,25.76Z"/></g></svg>