<svg id="ASSETS" xmlns="http://www.w3.org/2000/svg" height="64px" width="64px" viewBox="0 0 64 64"><defs><style>.cls-1{fill:#ffc425;}.cls-2{fill:#fff;}</style></defs><title>accel_solid_yellow</title><circle class="cls-1" cx="32.01" cy="32" r="28.09"/><path class="cls-2" d="M40.41,23.62a.56.56,0,0,0-.39-.17.54.54,0,0,0-.34.12L30.93,30h0a2.42,2.42,0,0,0-.45.34,2.24,2.24,0,0,0,0,3.16,2.22,2.22,0,0,0,1.58.65,2.18,2.18,0,0,0,1.58-.65,2.33,2.33,0,0,0,.35-.44h0l6.46-8.75A.54.54,0,0,0,40.41,23.62Z"/><path class="cls-2" d="M44.55,25.63l-.09-.17-.16-.31-.2-.33-.1-.17c-.1-.16-.2-.33-.31-.49v0A14,14,0,0,0,39.36,20L39.28,20l-.44-.25-.17-.09-.31-.16A13.91,13.91,0,0,0,32,18h0A14,14,0,1,0,32,46a.88.88,0,0,0,.89-.87V41.68a.89.89,0,0,0-1-.87.92.92,0,0,0-.73.92v2.53A12.33,12.33,0,0,1,24,41.32L26,39.39a.93.93,0,0,0,.13-1.17.88.88,0,0,0-1.34-.11l-2,2a12.12,12.12,0,0,1-3-7.2h2.72a.9.9,0,0,0,.91-.73.87.87,0,0,0-.86-1H19.76a12.19,12.19,0,0,1,3-7.18l1.91,1.92A.87.87,0,0,0,26,25.82a.91.91,0,0,0-.08-1.23L24,22.71a12.26,12.26,0,0,1,8-3h0v7.87l6.87-5.07A1.83,1.83,0,0,1,40,22.14a1.85,1.85,0,0,1,1.32.54,1.88,1.88,0,0,1,.16,2.46L36.43,32h8.7a.92.92,0,0,0,.92-1A13.89,13.89,0,0,0,44.55,25.63Z"/></svg>