<svg xmlns="http://www.w3.org/2000/svg" height="64px" width="64px" viewBox="0 0 64 64"><defs><style>.cls-1{fill:#fff;}.cls-2{fill:#d52b1e;}</style></defs><title>accel_hollow_red</title><g id="ASSETS2"><path class="cls-1" d="M30.41,61A26.59,26.59,0,1,1,57,34.44,26.62,26.62,0,0,1,30.41,61Z"/><path class="cls-2" d="M30.41,9.35A25.09,25.09,0,1,1,5.32,34.44,25.12,25.12,0,0,1,30.41,9.35m0-3A28.09,28.09,0,1,0,58.5,34.44,28.09,28.09,0,0,0,30.41,6.35Z"/><path class="cls-2" d="M38.78,26.08a.55.55,0,0,0-.73,0l-8.72,6.43h0a2.12,2.12,0,0,0-.44.35,2.22,2.22,0,0,0,0,3.14,2.19,2.19,0,0,0,1.57.66A2.23,2.23,0,0,0,32,36a2.07,2.07,0,0,0,.34-.44h0l6.44-8.71A.54.54,0,0,0,38.78,26.08Z"/><path class="cls-2" d="M42.91,28.09l-.09-.17-.16-.31-.2-.33-.1-.17c-.1-.16-.2-.32-.31-.48v0a14,14,0,0,0-4.31-4.11l-.07-.05-.44-.25-.17-.1L36.74,22a13.86,13.86,0,0,0-6.32-1.51h0a14,14,0,1,0,0,28,.87.87,0,0,0,.88-.88V44.09a.88.88,0,0,0-1-.87.92.92,0,0,0-.73.92v2.52a12.23,12.23,0,0,1-7.1-2.93l1.92-1.93a.9.9,0,0,0,.13-1.16.88.88,0,0,0-1.33-.11l-2,2a12.27,12.27,0,0,1-3-7.18h2.72a.91.91,0,0,0,.91-.73.87.87,0,0,0-.87-1H18.19a12.22,12.22,0,0,1,3-7.15l1.91,1.91a.89.89,0,0,0,.62.25.87.87,0,0,0,.67-.3.92.92,0,0,0-.08-1.23l-1.88-1.87a12.25,12.25,0,0,1,8-3h0V30L37.26,25a1.88,1.88,0,0,1,1.13-.38,1.86,1.86,0,0,1,1.48,3l-5.06,6.85h8.68a.91.91,0,0,0,.91-1A13.83,13.83,0,0,0,42.91,28.09Z"/></g></svg>