<svg id="Layer_1" data-name="Layer 1" xmlns="http://www.w3.org/2000/svg" viewBox="0 0 64 64"><defs><style>.cls-1{fill:#fff;}.cls-2{fill:#00844d;}</style></defs><title>accel_hollow_green</title><circle class="cls-1" cx="32" cy="32" r="32"/><path class="cls-2" d="M32,0A32,32,0,1,0,64,32,32,32,0,0,0,32,0Zm0,62.08A30.08,30.08,0,1,1,62.08,32,30.11,30.11,0,0,1,32,62.08Z"/><path class="cls-2" d="M41.57,22.45a.63.63,0,0,0-.44-.19.62.62,0,0,0-.39.14l-10,7.35h0a2.72,2.72,0,0,0-.51.4,2.54,2.54,0,1,0,3.6,3.59,2.38,2.38,0,0,0,.4-.5h0l7.36-10A.63.63,0,0,0,41.57,22.45Z"/><path class="cls-2" d="M46.29,24.75l-.1-.2L46,24.2l-.22-.38-.11-.19-.36-.56,0,0a15.77,15.77,0,0,0-4.92-4.7l-.08-.05L39.78,18l-.19-.11-.35-.18A16,16,0,0,0,32,16h0a16,16,0,1,0,0,32,1,1,0,0,0,1-1V43a1,1,0,0,0-1.17-1,1,1,0,0,0-.83,1V46a14,14,0,0,1-8.12-3.34l2.2-2.2a1,1,0,0,0,.15-1.33A1,1,0,0,0,23.72,39l-2.25,2.25A14,14,0,0,1,18,33h3.1a1.05,1.05,0,0,0,1.05-.84,1,1,0,0,0-1-1.16H18a13.92,13.92,0,0,1,3.41-8.18L23.63,25a1,1,0,0,0,.71.29A1,1,0,0,0,25.1,25a1,1,0,0,0-.1-1.4l-2.13-2.14A13.94,13.94,0,0,1,32,18h0v9l7.82-5.77a2.17,2.17,0,0,1,1.3-.44,2.13,2.13,0,0,1,1.69,3.42L37,32H47a1.05,1.05,0,0,0,1-1.11A15.79,15.79,0,0,0,46.29,24.75Z"/></svg>