<svg id="Layer_1" data-name="Layer 1" xmlns="http://www.w3.org/2000/svg" viewBox="0 0 64 64"><defs><style>.cls-1{fill:#00844d;}.cls-2{fill:#fff;}</style></defs><title>accel_solid_green</title><circle class="cls-1" cx="31.89" cy="32" r="32"/><path class="cls-2" d="M41.22,22.45a.63.63,0,0,0-.44-.19.64.64,0,0,0-.39.14l-10,7.35h0a2.38,2.38,0,0,0-.5.4,2.54,2.54,0,1,0,3.6,3.59,2.69,2.69,0,0,0,.39-.5h0l7.36-10A.62.62,0,0,0,41.22,22.45Z"/><path class="cls-2" d="M45.94,24.75a1.24,1.24,0,0,0-.1-.2,3.9,3.9,0,0,0-.19-.35c-.07-.13-.14-.26-.22-.38l-.11-.19c-.12-.19-.23-.37-.36-.56v0A15.91,15.91,0,0,0,40,18.35l-.08-.05-.5-.29-.19-.11-.36-.18A15.91,15.91,0,0,0,31.67,16h0a16,16,0,1,0,0,32,1,1,0,0,0,1-1V43a1,1,0,0,0-1.17-1,1,1,0,0,0-.84,1V46a13.93,13.93,0,0,1-8.11-3.34l2.2-2.2a1.05,1.05,0,0,0,.15-1.33A1,1,0,0,0,23.37,39l-2.25,2.25A13.9,13.9,0,0,1,17.7,33h3.1a1,1,0,0,0,1-.84,1,1,0,0,0-1-1.16H17.7a13.91,13.91,0,0,1,3.4-8.18L23.29,25a1,1,0,0,0,.7.29,1,1,0,0,0,.67-1.75l-2.14-2.14A14,14,0,0,1,31.66,18h0v9l7.82-5.77a2.12,2.12,0,0,1,2.8.19,2.12,2.12,0,0,1,.18,2.79L36.69,32h9.92a1,1,0,0,0,1-1.11A15.79,15.79,0,0,0,45.94,24.75Z"/></svg>