<svg xmlns="http://www.w3.org/2000/svg" viewBox="0 0 64 64"><defs><style>.cls-1{fill:#fff;}.cls-2{fill:#5f6062;}</style></defs><title>accel_hollow</title><g id="ASSETS2"><circle class="cls-1" cx="32" cy="32" r="26.59"/><path class="cls-2" d="M32,6.91A25.09,25.09,0,1,1,6.91,32,25.12,25.12,0,0,1,32,6.91m0-3A28.09,28.09,0,1,0,60.09,32,28.09,28.09,0,0,0,32,3.91Z"/><path class="cls-2" d="M41.37,22.64a.54.54,0,0,0-.72,0L31.92,29h0a2.42,2.42,0,0,0-.44.35,2.23,2.23,0,0,0,1.57,3.8,2.26,2.26,0,0,0,1.58-.65,2.05,2.05,0,0,0,.34-.45h0l6.45-8.71A.55.55,0,0,0,41.37,22.64Z"/><path class="cls-2" d="M45.5,24.65a1.3,1.3,0,0,0-.08-.17l-.17-.31-.19-.33-.1-.17-.31-.48,0,0a13.86,13.86,0,0,0-4.31-4.11l-.07,0c-.14-.09-.29-.17-.44-.25l-.17-.09-.31-.16A14,14,0,0,0,33,17h0a14,14,0,1,0,0,28,.88.88,0,0,0,.89-.88V40.65a.88.88,0,0,0-1-.86.91.91,0,0,0-.73.91v2.52A12.23,12.23,0,0,1,25,40.29L27,38.36a.9.9,0,0,0,.13-1.15.88.88,0,0,0-1.34-.12l-2,2a12.14,12.14,0,0,1-3-7.18H23.5a.91.91,0,0,0,.91-.73.87.87,0,0,0-.86-1H20.79a12.1,12.1,0,0,1,3-7.15l1.91,1.91A.88.88,0,0,0,27,24.84a.91.91,0,0,0-.08-1.23L25,21.74a12.22,12.22,0,0,1,8-3h0V26.6l6.84-5.05A1.88,1.88,0,0,1,41,21.17a1.86,1.86,0,0,1,1.47,3L37.4,31h8.68A.92.92,0,0,0,47,30,13.84,13.84,0,0,0,45.5,24.65Z"/></g></svg>