<svg xmlns="http://www.w3.org/2000/svg" height="64px" width="64px" viewBox="0 0 64 64"><defs><style>.cls-1{fill:#fff;}.cls-2{fill:#f2b719;}.cls-3{fill:#ffc425;}</style></defs><title>accel_hollow_yellow</title><g id="ASSETS2"><path class="cls-1" d="M32.17,58.73A26.59,26.59,0,1,1,58.75,32.14,26.62,26.62,0,0,1,32.17,58.73Z"/><path class="cls-2" d="M32.17,7.05A25.09,25.09,0,1,1,7.08,32.14,25.12,25.12,0,0,1,32.17,7.05m0-3A28.09,28.09,0,1,0,60.25,32.14,28.09,28.09,0,0,0,32.17,4.05Z"/><path class="cls-3" d="M40.54,23.78a.59.59,0,0,0-.39-.16.54.54,0,0,0-.34.12l-8.72,6.43h0a2.05,2.05,0,0,0-.45.34,2.23,2.23,0,0,0,0,3.15,2.26,2.26,0,0,0,1.58.65,2.22,2.22,0,0,0,1.57-.65,2.1,2.1,0,0,0,.35-.45h0l6.44-8.71A.55.55,0,0,0,40.54,23.78Z"/><path class="cls-3" d="M44.67,25.79l-.09-.17c0-.1-.11-.2-.17-.3a3.72,3.72,0,0,0-.19-.34.86.86,0,0,0-.1-.16c-.1-.17-.2-.33-.31-.49v0a14,14,0,0,0-4.31-4.11l-.07-.05L39,19.9l-.16-.09-.31-.16a14,14,0,0,0-6.32-1.51h0a14,14,0,1,0,0,28,.88.88,0,0,0,.88-.87V41.79a.87.87,0,0,0-1-.86.91.91,0,0,0-.73.91v2.52a12.21,12.21,0,0,1-7.1-2.93l1.92-1.92a.9.9,0,0,0,.13-1.16.87.87,0,0,0-1.33-.12l-2,2A12.2,12.2,0,0,1,20,33h2.72a.91.91,0,0,0,.91-.73.88.88,0,0,0-.87-1H20a12.25,12.25,0,0,1,3-7.15L24.84,26a.89.89,0,0,0,.62.26.9.9,0,0,0,.67-.31A.92.92,0,0,0,26,24.75l-1.87-1.87a12.24,12.24,0,0,1,8-3h0v7.84l6.84-5a1.9,1.9,0,0,1,1.13-.38,1.86,1.86,0,0,1,1.48,3l-5.06,6.85h8.68a.91.91,0,0,0,.91-1A14,14,0,0,0,44.67,25.79Z"/></g></svg>