<svg xmlns="http://www.w3.org/2000/svg" viewBox="-17768.5 -11783.5 14 25">
  <defs>
    <style>
      .cls-1 {
        fill: #177ed3;
        stroke: #167ed3;
      }
    </style>
  </defs>
  <g id="group" transform="translate(-17768 -11783)">
    <g id="group-2" data-name="group">
      <g id="group-3" data-name="group">
        <path id="path" class="cls-1" d="M-256.932,392.139-267.415,381.8a.756.756,0,0,1,0-1.224.78.78,0,0,1,1.241,0l11.034,10.878a.134.134,0,0,1,.138.136,1.032,1.032,0,0,1,.276.68c0,.272-.138.408-.276.68l-.138.136-11.034,10.878a.78.78,0,0,1-1.241,0,.756.756,0,0,1,0-1.224Z" transform="translate(267.725 -380.275)"/>
      </g>
    </g>
  </g>
</svg>
