<svg xmlns="http://www.w3.org/2000/svg" height="64px" width="64px" viewBox="0 0 64 64"><defs><style>.cls-1{fill:#2685de;}.cls-2{fill:#fff;}</style></defs><title>braking_solid_blue</title><g id="ASSETS2"><circle class="cls-1" cx="32" cy="32" r="28.09"/><path class="cls-2" d="M22.24,30.81a3.17,3.17,0,1,0,2.65,3.62A3.17,3.17,0,0,0,22.24,30.81ZM23,34.13A1.25,1.25,0,1,1,22,32.71,1.25,1.25,0,0,1,23,34.13Z"/><path class="cls-2" d="M17.32,33.61l.17,0a2.45,2.45,0,0,1,.06-.49,4.19,4.19,0,0,1,8.28,0,4.45,4.45,0,0,1-.1,1.92l11.63,2a3.85,3.85,0,0,1,.06-.5,4.2,4.2,0,0,1,8.28,0,4.44,4.44,0,0,1-.1,1.92l1.06.18c.68.12,1.11-.47,1.22-1.15l.2-1.13a.94.94,0,0,0-.82-1.24h0l.13-.76a4.09,4.09,0,0,0-2.77-4.55l-3.18-1L38.3,25A4,4,0,0,0,36,23.82l-8.3-1.41a3.27,3.27,0,0,0-3.36,1.44L23,25.57l-2.56-.43a2.57,2.57,0,0,0-3,2.08l-.44,2.56s-.53.1-.57.33l-.33,1.94A1.49,1.49,0,0,0,17.32,33.61Zm14.59-8.93,3.82.65a2.64,2.64,0,0,1,1.5.78L39,28.47,31.49,27.2Zm-6.45.06a2,2,0,0,1,2-.82l3.48.59L30.48,27l-5.92-1Z"/><path class="cls-2" d="M43.36,40.11a3.16,3.16,0,1,0-3.37,0H15.66v1H48.34v-1Zm-2.93-2.74a1.25,1.25,0,0,1,2.49.29,1.25,1.25,0,0,1-1.38,1.1A1.27,1.27,0,0,1,40.43,37.37Z"/></g></svg>