<svg xmlns="http://www.w3.org/2000/svg" viewBox="0 0 64 64"><defs><style>.cls-1{fill:#fff;}.cls-2{fill:#5f6062;}</style></defs><title>braking_hollow</title><g id="ASSETS2"><path class="cls-1" d="M32,58.59A26.59,26.59,0,1,1,58.59,32,26.62,26.62,0,0,1,32,58.59Z"/><path class="cls-2" d="M32,6.91A25.09,25.09,0,1,1,6.91,32,25.12,25.12,0,0,1,32,6.91m0-3A28.09,28.09,0,1,0,60.09,32,28.09,28.09,0,0,0,32,3.91Z"/><path class="cls-2" d="M22.64,31.13a3.17,3.17,0,1,0,2,2.87A3.18,3.18,0,0,0,22.64,31.13Zm.11,3.17a1.27,1.27,0,0,1-1.45,1,1.26,1.26,0,0,1-1-1.45,1.24,1.24,0,0,1,1.44-1A1.26,1.26,0,0,1,22.75,34.3Z"/><path class="cls-2" d="M17,33.67l.23,0a2.73,2.73,0,0,1,.07-.49,4.19,4.19,0,0,1,8.28.1,4.55,4.55,0,0,1-.14,1.92l11.6,2.16a4.29,4.29,0,0,1,5.55-3.74A4.25,4.25,0,0,1,45.41,37a4.57,4.57,0,0,1-.13,1.92l.74.14A1.35,1.35,0,0,0,47.58,38l.21-1.13a1,1,0,0,0-.8-1.26h0l.14-.75a4.09,4.09,0,0,0-2.7-4.6l-3.16-1.07-3.06-3.8a4,4,0,0,0-2.3-1.19l-8.28-1.54A3.24,3.24,0,0,0,24.24,24l-1.32,1.7-2.58-.48a2.56,2.56,0,0,0-3,2l-.47,2.56s-.54.08-.58.31L16,32.11A1.34,1.34,0,0,0,17,33.67Zm14.8-7.8,3.8.71a2.68,2.68,0,0,1,1.49.81l1.75,2.39-7.51-1.4Zm-6.46,0a2,2,0,0,1,2-.79l3.47.65-.46,2.51-5.91-1.1Z"/><path class="cls-2" d="M43.06,39.65c.79.29,1.36-.55,1.47-1.55a3.17,3.17,0,1,0-6.3-.68c-.13,1.24,1.47,3.11,1.47,3.11H15.76v.87H48.24V39.65Zm-2.92-2a1.24,1.24,0,0,1,1.38-1.11,1.25,1.25,0,1,1-1.38,1.11Z"/></g></svg>