<svg id="ASSETS" xmlns="http://www.w3.org/2000/svg" height="64px" width="64px" viewBox="0 0 64 64"><defs><style>.cls-1{fill:#d52b1e;}.cls-2{fill:#fff;}</style></defs><title>braking_solid_red</title><circle class="cls-1" cx="31.99" cy="32.01" r="27.78"/><path class="cls-2" d="M22.34,31.08A3.14,3.14,0,1,0,25,34.65,3.13,3.13,0,0,0,22.34,31.08Zm.75,3.29a1.24,1.24,0,1,1-1-1.41A1.24,1.24,0,0,1,23.09,34.37Z"/><path class="cls-2" d="M17.48,33.84l.16,0a3.58,3.58,0,0,1,.06-.49,4.15,4.15,0,0,1,8.19,0,4.36,4.36,0,0,1-.1,1.9l11.51,2a3.12,3.12,0,0,1,.05-.49,4.15,4.15,0,0,1,8.19,0,4.36,4.36,0,0,1-.1,1.9l1.05.18c.67.11,1.1-.47,1.21-1.14l.19-1.12a.93.93,0,0,0-.81-1.23h0l.12-.75A4,4,0,0,0,44.46,30l-3.15-1-3.08-3.7a4.08,4.08,0,0,0-2.3-1.15l-8.21-1.39A3.22,3.22,0,0,0,24.4,24.2l-1.28,1.7-2.53-.43a2.55,2.55,0,0,0-2.94,2.06l-.43,2.53s-.53.1-.56.32l-.33,1.93A1.45,1.45,0,0,0,17.48,33.84ZM31.91,25l3.77.64a2.63,2.63,0,0,1,1.48.77l1.78,2.34-7.45-1.26Zm-6.39.06a1.92,1.92,0,0,1,1.95-.81l3.44.58-.42,2.49-5.86-1Z"/><path class="cls-2" d="M43.22,40.28a3.13,3.13,0,1,0-3.32,0l-24.07,0v1l32.32,0v-1Zm-2.89-2.71a1.24,1.24,0,1,1,1.09,1.37A1.25,1.25,0,0,1,40.33,37.57Z"/></svg>