<svg id="ASSETS" xmlns="http://www.w3.org/2000/svg" height="64px" width="64px" viewBox="0 0 64 64"><defs><style>.cls-1{fill:#ffc425;}.cls-2{fill:#fff;}</style></defs><title>breaking_solid_yellow</title><circle class="cls-1" cx="32" cy="32" r="28.09"/><path class="cls-2" d="M22.29,30.59a3.17,3.17,0,1,0,2.65,3.61A3.16,3.16,0,0,0,22.29,30.59Zm.76,3.32A1.25,1.25,0,1,1,22,32.48,1.27,1.27,0,0,1,23.05,33.91Z"/><path class="cls-2" d="M17.38,33.38l.16,0a3.67,3.67,0,0,1,.06-.5,4.19,4.19,0,0,1,8.28,0,4.44,4.44,0,0,1-.1,1.92l11.63,2s0-.34.06-.49a4.19,4.19,0,0,1,8.28,0,4.46,4.46,0,0,1-.1,1.92l1.06.18c.68.11,1.11-.47,1.23-1.15l.19-1.13a1,1,0,0,0-.82-1.25h0l.13-.76a4.07,4.07,0,0,0-2.77-4.54l-3.18-1-3.12-3.74A4.08,4.08,0,0,0,36,23.59l-8.29-1.41a3.26,3.26,0,0,0-3.36,1.44l-1.29,1.72-2.57-.43a2.59,2.59,0,0,0-3,2.09l-.43,2.56s-.54.09-.58.32l-.33,1.95A1.49,1.49,0,0,0,17.38,33.38ZM32,24.45l3.81.65a2.7,2.7,0,0,1,1.5.78l1.79,2.37L31.54,27Zm-6.46.07a1.94,1.94,0,0,1,2-.82l3.48.58-.43,2.52-5.92-1Z"/><path class="cls-2" d="M43.41,39.88a3.16,3.16,0,0,0-1.34-5.82,3.16,3.16,0,0,0-2,5.82H15.71v1l32.68,0v-1Zm-2.92-2.73a1.25,1.25,0,0,1,1.38-1.1,1.25,1.25,0,1,1-1.38,1.1Z"/></svg>