<svg id="Layer_1" data-name="Layer 1" xmlns="http://www.w3.org/2000/svg" height="64px" width="64px" viewBox="0 0 64 64"><defs><style>.cls-1{fill:#00844d;}.cls-2{fill:#fff;}</style></defs><title>braking_solid_green</title><circle class="cls-1" cx="33.07" cy="32.09" r="32"/><path class="cls-2" d="M21.46,30.39a3.61,3.61,0,1,0,3,4.12A3.61,3.61,0,0,0,21.46,30.39Zm.86,3.78a1.43,1.43,0,1,1-1.19-1.62A1.43,1.43,0,0,1,22.32,34.17Z"/><path class="cls-2" d="M15.86,33.57l.19,0a3.17,3.17,0,0,1,.06-.56,4.78,4.78,0,0,1,9.44,0,5.16,5.16,0,0,1-.12,2.18l13.26,2.25a3.26,3.26,0,0,1,.06-.57,4.78,4.78,0,0,1,9.44,0A5.2,5.2,0,0,1,48.07,39l1.21.2c.77.13,1.26-.54,1.39-1.31l.22-1.29A1.07,1.07,0,0,0,50,35.22h0l.15-.86a4.66,4.66,0,0,0-3.16-5.18L43.32,28l-3.56-4.27a4.63,4.63,0,0,0-2.65-1.32l-9.45-1.6a3.7,3.7,0,0,0-3.83,1.64l-1.47,1.95-2.92-.49a2.94,2.94,0,0,0-3.38,2.38l-.5,2.92s-.61.11-.65.36l-.38,2.22A1.69,1.69,0,0,0,15.86,33.57ZM32.48,23.4l4.34.74a3.08,3.08,0,0,1,1.72.89l2,2.7L32,26.27Zm-7.36.07a2.23,2.23,0,0,1,2.25-.93l4,.67-.48,2.87L24.1,24.94Z"/><path class="cls-2" d="M45.51,41a3.56,3.56,0,0,0,1.68-2.65A3.61,3.61,0,1,0,41.68,41H14v1.16l37.23,0V41Zm-3.32-3.11a1.42,1.42,0,1,1,1.25,1.58A1.43,1.43,0,0,1,42.19,37.87Z"/></svg>