<svg id="Layer_1" data-name="Layer 1" xmlns="http://www.w3.org/2000/svg" viewBox="0 0 64 64"><defs><style>.cls-1{fill:#fff;}.cls-2{fill:#00844d;}</style></defs><title>braking_hollow_green</title><circle class="cls-1" cx="32" cy="32" r="32"/><path class="cls-2" d="M32,0A32,32,0,1,0,64,32,32,32,0,0,0,32,0Zm0,62.08A30.08,30.08,0,1,1,62.08,32,30.11,30.11,0,0,1,32,62.08Z"/><path class="cls-2" d="M20.16,30.11a3.61,3.61,0,1,0,2.95,4.17A3.62,3.62,0,0,0,20.16,30.11Zm.8,3.8a1.43,1.43,0,1,1-1.17-1.65A1.43,1.43,0,0,1,21,33.91Z"/><path class="cls-2" d="M14.51,33.2l.19,0a3.61,3.61,0,0,1,.07-.57,4.78,4.78,0,0,1,9.43.12A5,5,0,0,1,24.05,35l13.22,2.46a3.53,3.53,0,0,1,.07-.56,4.78,4.78,0,0,1,9.44.12,5.28,5.28,0,0,1-.15,2.18l1.2.23c.77.14,1.28-.52,1.42-1.29l.24-1.29a1.08,1.08,0,0,0-.91-1.43h0l.16-.86a4.65,4.65,0,0,0-3.08-5.23l-3.6-1.23-3.48-4.32a4.63,4.63,0,0,0-2.63-1.36l-9.42-1.76a3.71,3.71,0,0,0-3.86,1.58l-1.5,1.93-2.91-.53a2.94,2.94,0,0,0-3.43,2.32l-.54,2.9s-.61.1-.66.36l-.41,2.21A1.68,1.68,0,0,0,14.51,33.2Zm16.78-8.89,4.33.8a3.07,3.07,0,0,1,1.7.92l2,2.73-8.56-1.59Zm-7.35,0a2.22,2.22,0,0,1,2.26-.9l3.95.73L29.62,27,22.89,25.7Z"/><path class="cls-2" d="M44.1,40.89a3.6,3.6,0,1,0-3.83,0l-27.72,0V42l37.24,0V40.9ZM40.77,37.7A1.43,1.43,0,1,1,42,39.27,1.44,1.44,0,0,1,40.77,37.7Z"/></svg>