<svg id="ASSETS" xmlns="http://www.w3.org/2000/svg" viewBox="0 0 64 64"><defs><style>.cls-1{fill:none;stroke:#5f6062;stroke-miterlimit:10;stroke-width:2px;}.cls-2{fill:#5f6062;}</style></defs><title>braking</title><line class="cls-1" x1="3.25" y1="59.37" x2="61.05" y2="59.37"/><path class="cls-2" d="M43.53,52.54a5.8,5.8,0,1,0,7-4.34A5.8,5.8,0,0,0,43.53,52.54Zm3.42.79a2.29,2.29,0,1,1,1.71,2.75A2.3,2.3,0,0,1,47,53.33Z"/><path class="cls-2" d="M7.61,43.27a5.8,5.8,0,1,0,7-4.34A5.81,5.81,0,0,0,7.61,43.27Zm3.41.79a2.29,2.29,0,1,1,1.72,2.75A2.29,2.29,0,0,1,11,44.06Z"/><path class="cls-2" d="M4.18,37.78l-.87,3.51a2.7,2.7,0,0,0,1.9,3l.3.08a5.9,5.9,0,0,1,.18-.9,7.74,7.74,0,0,1,10.37-5.34,7.8,7.8,0,0,1,4.74,6.43A8.26,8.26,0,0,1,20.35,48l20.95,5.2a5.9,5.9,0,0,1,.18-.9,7.67,7.67,0,0,1,15.11,1.09,8.26,8.26,0,0,1-.45,3.49l1.91.48c1.22.3,2.09-.71,2.39-1.93l.51-2a1.72,1.72,0,0,0-1.32-2.38h0L60,49.68A7.45,7.45,0,0,0,55.52,41l-5.66-2.3-5.18-7.27A7.41,7.41,0,0,0,40.6,29L25.66,25.29a6,6,0,0,0-6.33,2.16l-2.59,3-4.62-1.14a4.72,4.72,0,0,0-5.71,3.4L5.27,37.28S4.28,37.38,4.18,37.78ZM33.06,30l6.87,1.71a4.89,4.89,0,0,1,2.64,1.63l2.94,4.57L31.94,34.55Zm-13.6,1.44,1.82-2.21A3.58,3.58,0,0,1,25,28l6.27,1.55L30.13,34.1Z"/></svg>