<svg id="ASSETS" xmlns="http://www.w3.org/2000/svg" height="64px" width="64px" viewBox="0 0 64 64"><defs><style>.cls-1{fill:#d52b1e;}.cls-2{fill:#fff;}</style></defs><title>cornering_solid_red</title><circle class="cls-1" cx="31.82" cy="31.92" r="28.09"/><path class="cls-2" d="M21.05,44.49a2.11,2.11,0,0,0,.78-1.93l-.18-1.43,19-2.44.18,1.43A2.15,2.15,0,0,0,43.23,42l.61-.08a2.15,2.15,0,0,0,1.85-2.39l-.31-2.36h0l-1-8h0a6,6,0,0,0-2-2.32l-3.68-7a4,4,0,0,0-4.07-2.13l-12.49,1.6a4,4,0,0,0-3.41,3.09L17,29.93a5.5,5.5,0,0,0-1.34,2.89h0l1,8s0,.08,0,.12L17,43.19a2.12,2.12,0,0,0,.7,1.3h-2v1.76H48V44.49ZM40.63,30.68a2,2,0,1,1-2.26-1.75A2.06,2.06,0,0,1,40.63,30.68ZM20.7,22.77a2,2,0,0,1,1.7-1.55l12.49-1.6a2,2,0,0,1,2,1.06l2.13,4.09a.53.53,0,0,1-.41.77L20.26,27.9a.54.54,0,0,1-.59-.65Zm.54,8.35a2,2,0,1,1-1.75,2.27A2.06,2.06,0,0,1,21.24,31.12Z"/></svg>