<svg xmlns="http://www.w3.org/2000/svg" height="64px" width="64px" viewBox="0 0 64 64"><defs><style>.cls-1{fill:#fff;}.cls-2{fill:#2685de;}</style></defs><title>cornering_hollow_blue</title><g id="ASSETS2"><circle class="cls-1" cx="32" cy="31.87" r="26.59"/><path class="cls-2" d="M32,6.79A25.09,25.09,0,1,1,6.91,31.88,25.12,25.12,0,0,1,32,6.79m0-3A28.09,28.09,0,1,0,60.09,31.88,28.09,28.09,0,0,0,32,3.79Z"/><path class="cls-2" d="M21.28,44.39a2.1,2.1,0,0,0,.78-1.92L21.88,41,40.8,38.61,41,40a2.12,2.12,0,0,0,2.37,1.83l.62-.08a2.12,2.12,0,0,0,1.83-2.37l-.3-2.35h0l-1-8h0a5.88,5.88,0,0,0-1.95-2.31l-3.66-7a4,4,0,0,0-4-2.12L22.38,19.24A4,4,0,0,0,19,22.32L17.25,29.9a5.61,5.61,0,0,0-1.34,2.87h0l1,8,0,.12.28,2.24a2.12,2.12,0,0,0,.7,1.3h-2v1.74H48.09V44.39ZM40.77,30.64a2,2,0,1,1-2.25-1.75A2,2,0,0,1,40.77,30.64ZM20.94,22.76a2,2,0,0,1,1.69-1.53l12.43-1.6a2,2,0,0,1,2,1.06l2.12,4.06a.54.54,0,0,1-.41.78L20.5,27.88a.54.54,0,0,1-.59-.65Zm.53,8.32a2,2,0,1,1-1.74,2.26A2,2,0,0,1,21.47,31.08Z"/></g></svg>