<svg id="Layer_1" data-name="Layer 1" xmlns="http://www.w3.org/2000/svg" viewBox="0 0 64 64"><defs><style>.cls-1{fill:#fff;}.cls-2{fill:#00844d;}</style></defs><title>cornering_hollow_green</title><circle class="cls-1" cx="32" cy="32" r="32"/><path class="cls-2" d="M32,0A32,32,0,1,0,64,32,32,32,0,0,0,32,0Zm0,62.08A30.08,30.08,0,1,1,62.08,32,30.11,30.11,0,0,1,32,62.08Z"/><path class="cls-2" d="M19.73,46.32a2.41,2.41,0,0,0,.9-2.19l-.21-1.64,21.65-2.78.21,1.64A2.42,2.42,0,0,0,45,43.44l.7-.09a2.42,2.42,0,0,0,2.1-2.71l-.35-2.7h0l-1.17-9.12h0c-.13-.71-1.19-1.76-2.24-2.64l-4.19-8a4.55,4.55,0,0,0-4.64-2.42L21,17.54a4.57,4.57,0,0,0-3.87,3.52l-2,8.67c-.81,1.11-1.61,2.43-1.53,3.29h0l1.17,9.12,0,.13.33,2.56a2.4,2.4,0,0,0,.79,1.49H13.58v2H50.42v-2ZM42,30.58a2.3,2.3,0,1,1-2.58-2A2.35,2.35,0,0,1,42,30.58Zm-22.7-9a2.28,2.28,0,0,1,1.93-1.76L35.51,18a2.28,2.28,0,0,1,2.32,1.21l2.42,4.65a.62.62,0,0,1-.47.89L18.84,27.42a.6.6,0,0,1-.67-.74ZM20,31.09a2.3,2.3,0,1,1-2,2.58A2.35,2.35,0,0,1,20,31.09Z"/></svg>