<svg xmlns="http://www.w3.org/2000/svg" viewBox="0 0 64 64"><defs><style>.cls-1{fill:#fff;}.cls-2{fill:#5f6062;}</style></defs><title>cornering_hollow</title><g id="ASSETS2"><circle class="cls-1" cx="32" cy="32" r="26.59"/><path class="cls-2" d="M32,6.91A25.09,25.09,0,1,1,6.91,32,25.12,25.12,0,0,1,32,6.91m0-3A28.09,28.09,0,1,0,60.09,32,28.09,28.09,0,0,0,32,3.91Z"/><path class="cls-2" d="M21.28,44.51a2.1,2.1,0,0,0,.78-1.92l-.18-1.43L40.8,38.74,41,40.17A2.12,2.12,0,0,0,43.35,42l.62-.08a2.12,2.12,0,0,0,1.83-2.37l-.3-2.36h0l-1-8h0c-.11-.62-1-1.53-1.95-2.3l-3.66-7a4,4,0,0,0-4-2.12l-12.43,1.6A4,4,0,0,0,19,22.44L17.25,30a5.64,5.64,0,0,0-1.34,2.87h0l1,8L17,41l.28,2.24a2.09,2.09,0,0,0,.7,1.3h-2v1.75H48.09V44.51ZM40.77,30.76A2,2,0,1,1,38.52,29,2,2,0,0,1,40.77,30.76ZM20.94,22.89a2,2,0,0,1,1.69-1.54l12.43-1.59a2,2,0,0,1,2,1.06l2.12,4.06a.53.53,0,0,1-.41.77L20.5,28a.53.53,0,0,1-.59-.65Zm.53,8.32a2,2,0,1,1-1.74,2.25A2,2,0,0,1,21.47,31.21Z"/></g></svg>