<svg xmlns="http://www.w3.org/2000/svg" height="64px" width="64px" viewBox="0 0 64 64"><defs><style>.cls-1{fill:#2685de;}.cls-2{fill:#fff;}</style></defs><title>cornering_solid_blue</title><g id="ASSETS2"><circle class="cls-1" cx="32.13" cy="32.12" r="28.09"/><path class="cls-2" d="M21.52,44.51a2.08,2.08,0,0,0,.77-1.9l-.18-1.41,18.72-2.41L41,40.21A2.08,2.08,0,0,0,43.36,42l.61-.08a2.11,2.11,0,0,0,1.82-2.34l-.3-2.34h0l-1-7.88h0c-.11-.62-1-1.52-1.93-2.29l-3.62-6.95a4,4,0,0,0-4-2.1L22.6,19.62a4,4,0,0,0-3.36,3l-1.71,7.51A5.5,5.5,0,0,0,16.2,33h0l1,7.88s0,.08,0,.12l.29,2.21a2.09,2.09,0,0,0,.68,1.29h-2v1.73H48.05V44.51ZM40.81,30.9a2,2,0,0,1-4,.51,2,2,0,1,1,4-.51ZM21.17,23.11a2,2,0,0,1,1.68-1.52L35.16,20a2,2,0,0,1,2,1l2.1,4a.52.52,0,0,1-.4.76L20.74,28.17a.53.53,0,0,1-.58-.64Zm.53,8.23A2,2,0,1,1,20,33.57,2,2,0,0,1,21.7,31.34Z"/></g></svg>