<svg id="ASSETS" xmlns="http://www.w3.org/2000/svg" viewBox="0 0 64 64"><defs><style>.cls-1{fill:#5f6062;}.cls-2{fill:#fff;}</style></defs><title>cornering_solid</title><circle class="cls-1" cx="32" cy="32" r="28.09"/><path class="cls-2" d="M21.23,44.57A2.09,2.09,0,0,0,22,42.65l-.18-1.44,19-2.44L41,40.21a2.13,2.13,0,0,0,2.38,1.84L44,42a2.13,2.13,0,0,0,1.84-2.38l-.3-2.37h0l-1-8h0a6,6,0,0,0-2-2.31l-3.68-7.06a4,4,0,0,0-4.07-2.13l-12.49,1.6a4,4,0,0,0-3.41,3.09L17.18,30a5.68,5.68,0,0,0-1.35,2.89h0l1,8a.5.5,0,0,0,0,.12l.29,2.25a2.07,2.07,0,0,0,.7,1.3h-2v1.76H48.16V44.57ZM40.81,30.76A2,2,0,1,1,38.55,29,2.06,2.06,0,0,1,40.81,30.76ZM20.88,22.85a2,2,0,0,1,1.7-1.55l12.49-1.6a2,2,0,0,1,2,1.07l2.13,4.08a.54.54,0,0,1-.41.78L20.44,28a.54.54,0,0,1-.59-.65Zm.54,8.36a2,2,0,1,1-1.75,2.26A2.06,2.06,0,0,1,21.42,31.21Z"/></svg>