<svg id="ASSETS" xmlns="http://www.w3.org/2000/svg" height="64px" width="64px" viewBox="0 0 64 64"><defs><style>.cls-1{fill:#ffc425;}.cls-2{fill:#fff;}</style></defs><title>cornering_solid_yellow</title><circle class="cls-1" cx="31.81" cy="32" r="28.09"/><path class="cls-2" d="M21,44.57a2.12,2.12,0,0,0,.79-1.93l-.18-1.43,19-2.44.19,1.43A2.12,2.12,0,0,0,43.22,42l.62-.07a2.13,2.13,0,0,0,1.84-2.39l-.3-2.36h0l-1-8h0a6,6,0,0,0-2-2.32l-3.67-7.06a4,4,0,0,0-4.08-2.12l-12.49,1.6a4,4,0,0,0-3.4,3.09L17,30a5.53,5.53,0,0,0-1.35,2.88h0l1,8a.5.5,0,0,0,0,.12L17,43.27a2.11,2.11,0,0,0,.69,1.3h-2v1.76H48V44.57ZM40.63,30.75a2,2,0,1,1-4,.52,2,2,0,0,1,4-.52ZM20.7,22.85a2,2,0,0,1,1.7-1.55l12.49-1.6a2,2,0,0,1,2,1.06l2.12,4.08a.53.53,0,0,1-.4.78L20.26,28a.53.53,0,0,1-.59-.65Zm.53,8.35a2,2,0,1,1-1.74,2.27A2.07,2.07,0,0,1,21.23,31.2Z"/></svg>