<svg id="ASSETS" xmlns="http://www.w3.org/2000/svg" viewBox="0 0 64 64"><defs><style>.cls-1{fill:#5f6062;}.cls-2{fill:none;stroke:#5f6062;stroke-miterlimit:10;stroke-width:2px;}</style></defs><title>cornering</title><path class="cls-1" d="M56.94,27.66h0c-.21-1.15-1.93-2.85-3.62-4.28l-6.79-13A7.41,7.41,0,0,0,39,6.42l-23.07,3a7.4,7.4,0,0,0-6.28,5.7L6.43,29.14C5.12,30.93,3.83,33.07,4,34.46h0l1.9,14.79a1.55,1.55,0,0,0,0,.21l.53,4.15a3.93,3.93,0,0,0,4.4,3.4L12,56.86a3.92,3.92,0,0,0,3.39-4.4L15,49.81l35.1-4.5L50.45,48a3.94,3.94,0,0,0,4.4,3.4L56,51.21a3.94,3.94,0,0,0,3.4-4.4l-.56-4.37h0ZM11.37,24.19l1.89-8.28a3.69,3.69,0,0,1,3.15-2.85l23.06-3a3.72,3.72,0,0,1,3.76,2l3.93,7.54A1,1,0,0,1,46.41,21L12.46,25.39A1,1,0,0,1,11.37,24.19Zm3.84,14.56a3.74,3.74,0,1,1,3.22-4.18A3.8,3.8,0,0,1,15.21,38.75Zm27.45-7.29a3.74,3.74,0,1,1,4.18,3.23A3.8,3.8,0,0,1,42.66,31.46Z"/><line class="cls-2" x1="2.94" y1="57.64" x2="60.87" y2="57.64"/></svg>