<svg id="Layer_1" data-name="Layer 1" xmlns="http://www.w3.org/2000/svg" viewBox="0 0 64 64"><defs><style>.cls-1{fill:#00844d;}.cls-2{fill:#fff;}</style></defs><title>cornering_solid_green</title><circle class="cls-1" cx="32" cy="32.03" r="32"/><path class="cls-2" d="M20,46.79a2.41,2.41,0,0,0,.9-2.19L20.66,43l21.65-2.78.21,1.64a2.43,2.43,0,0,0,2.72,2.1l.7-.1A2.42,2.42,0,0,0,48,41.11l-.35-2.69h0l-1.17-9.13h0c-.13-.72-1.19-1.76-2.24-2.65l-4.18-8a4.57,4.57,0,0,0-4.64-2.42L21.22,18a4.57,4.57,0,0,0-3.87,3.52l-2,8.68c-.81,1.1-1.6,2.42-1.53,3.28h0L15,42.61a.51.51,0,0,0,0,.13l.33,2.57a2.37,2.37,0,0,0,.79,1.48H13.82v2H50.66v-2ZM42.28,31.05a2.3,2.3,0,1,1-2.57-2A2.35,2.35,0,0,1,42.28,31.05Zm-22.7-9a2.29,2.29,0,0,1,1.94-1.76l14.23-1.82a2.3,2.3,0,0,1,2.32,1.21l2.42,4.65a.61.61,0,0,1-.46.89l-21,2.69a.61.61,0,0,1-.67-.74Zm.61,9.53a2.3,2.3,0,1,1-2,2.57A2.35,2.35,0,0,1,20.19,31.57Z"/></svg>