<svg xmlns="http://www.w3.org/2000/svg" viewBox="0 0 64 64"><defs><style>.cls-1{fill:#fff;}.cls-2{fill:#5f6062;}</style></defs><title>intersection_hollow</title><g id="ASSETS2"><path class="cls-1" d="M32,58.44A26.44,26.44,0,1,1,58.59,32,26.55,26.55,0,0,1,32,58.44Z"/><path class="cls-2" d="M32,7.06A24.94,24.94,0,1,1,6.91,32,25,25,0,0,1,32,7.06m0-3A27.94,27.94,0,1,0,60.09,32,28,28,0,0,0,32,4.06Z"/><path class="cls-2" d="M45.81,31.71,40.9,26.83a.41.41,0,0,0-.7.29v2.3H34.6V23.86h2.32a.41.41,0,0,0,.3-.69l-4.93-4.9a.41.41,0,0,0-.58,0l-4.93,4.9a.41.41,0,0,0,.3.69H29.4v5.56H23.8v-2.3a.41.41,0,0,0-.7-.29l-4.91,4.88a.41.41,0,0,0,0,.58l4.91,4.88a.41.41,0,0,0,.7-.29v-2.3h5.6v5.56H27.08a.41.41,0,0,0-.3.69l4.93,4.9a.41.41,0,0,0,.58,0l4.93-4.9a.41.41,0,0,0-.3-.69H34.6V34.58h5.6v2.3a.41.41,0,0,0,.7.29l4.91-4.88A.41.41,0,0,0,45.81,31.71Z"/></g></svg>