<svg id="ASSETS" xmlns="http://www.w3.org/2000/svg" viewBox="0 0 64 64"><defs><style>.cls-1{fill:#5f6062;}</style></defs><title>intersection</title><path class="cls-1" d="M59.87,31.42,50,21.51a.83.83,0,0,0-1.41.59v4.67H37.25V15.49h4.69a.83.83,0,0,0,.59-1.42L32.59,4.13a.83.83,0,0,0-1.18,0l-9.94,9.94a.83.83,0,0,0,.59,1.42h4.69V26.77H15.44V22.1A.83.83,0,0,0,14,21.51l-9.9,9.91a.8.8,0,0,0,0,1.16L14,42.49a.83.83,0,0,0,1.41-.59V37.23H26.75V48.51H22.06a.83.83,0,0,0-.59,1.42l9.94,9.94a.83.83,0,0,0,1.18,0l9.94-9.94a.83.83,0,0,0-.59-1.42H37.25V37.23H48.56V41.9a.83.83,0,0,0,1.41.59l9.9-9.91A.8.8,0,0,0,59.87,31.42Z"/></svg>