<svg id="Layer_1" data-name="Layer 1" xmlns="http://www.w3.org/2000/svg" viewBox="0 0 64 64"><defs><style>.cls-1{fill:#00844d;}.cls-2{fill:#fff;}</style></defs><title>intersection_solid_green</title><circle class="cls-1" cx="32.24" cy="32.03" r="32"/><path class="cls-2" d="M48.1,31.16l-5.63-5.63a.47.47,0,0,0-.81.33v2.66H35.23V22.1H37.9a.47.47,0,0,0,.33-.81l-5.66-5.65a.46.46,0,0,0-.67,0l-5.65,5.65a.47.47,0,0,0,.33.81h2.67v6.42H22.81V25.86a.47.47,0,0,0-.8-.33l-5.63,5.63a.46.46,0,0,0,0,.67L22,37.46a.47.47,0,0,0,.8-.33V34.47h6.44v6.42H26.58a.47.47,0,0,0-.33.81l5.65,5.66a.48.48,0,0,0,.67,0l5.66-5.66a.47.47,0,0,0-.33-.81H35.23V34.47h6.43v2.66a.47.47,0,0,0,.81.33l5.63-5.63A.48.48,0,0,0,48.1,31.16Z"/></svg>