<svg id="ASSETS" xmlns="http://www.w3.org/2000/svg" viewBox="0 0 64 64"><defs><style>.cls-1{fill:#d52b1e;}.cls-2{fill:#fff;}</style></defs><title>interserction_solid_red</title><circle class="cls-1" cx="32" cy="32.94" r="28.09"/><path class="cls-2" d="M45.92,32.65,41,27.71a.42.42,0,0,0-.71.29v2.33H34.62V24.7H37a.42.42,0,0,0,.29-.71l-5-5a.41.41,0,0,0-.58,0l-5,5a.42.42,0,0,0,.29.71h2.35v5.63H23.73V28a.42.42,0,0,0-.71-.29l-4.94,4.94a.42.42,0,0,0,0,.59L23,38.18a.42.42,0,0,0,.71-.29V35.56h5.65v5.63H27a.42.42,0,0,0-.29.71l5,5a.41.41,0,0,0,.58,0l5-5a.42.42,0,0,0-.29-.71H34.62V35.56h5.65v2.33a.42.42,0,0,0,.71.29l4.94-4.94A.42.42,0,0,0,45.92,32.65Z"/></svg>