<svg id="Layer_1" data-name="Layer 1" xmlns="http://www.w3.org/2000/svg" viewBox="0 0 64 64"><defs><style>.cls-1{fill:#ffc425;}.cls-2{fill:#fff;}</style></defs><title>intersection_solid_yellow</title><circle class="cls-1" cx="32" cy="32" r="32"/><path class="cls-2" d="M47.86,31.67,42.23,26a.48.48,0,0,0-.81.33V29H35V22.6h2.67a.47.47,0,0,0,.33-.8l-5.66-5.66a.45.45,0,0,0-.66,0L26,21.8a.47.47,0,0,0,.33.8H29V29H22.58V26.36a.48.48,0,0,0-.81-.33l-5.63,5.64a.45.45,0,0,0,0,.66L21.77,38a.48.48,0,0,0,.81-.33V35H29V41.4H26.34a.47.47,0,0,0-.33.8l5.66,5.66a.45.45,0,0,0,.66,0L38,42.2a.47.47,0,0,0-.33-.8H35V35h6.43v2.66a.48.48,0,0,0,.81.33l5.63-5.64A.45.45,0,0,0,47.86,31.67Z"/></svg>