<svg id="ASSETS" xmlns="http://www.w3.org/2000/svg" viewBox="0 0 64 64"><defs><style>.cls-1{fill:#5f6062;}.cls-2{fill:#fff;}</style></defs><title>intersection_solid</title><circle class="cls-1" cx="32" cy="32" r="28.09"/><path class="cls-2" d="M45.93,31.27l-5-4.95a.41.41,0,0,0-.7.29V29H34.63V23.31H37a.42.42,0,0,0,.29-.71l-5-5a.41.41,0,0,0-.59,0l-5,5a.42.42,0,0,0,.3.71h2.34V29H23.73V26.61a.41.41,0,0,0-.7-.29l-5,4.95a.41.41,0,0,0,0,.58l5,4.95a.41.41,0,0,0,.7-.3V34.17h5.65v5.64H27a.42.42,0,0,0-.3.71l5,5a.42.42,0,0,0,.59,0l5-5a.41.41,0,0,0-.29-.71H34.63V34.17h5.65V36.5a.41.41,0,0,0,.7.3l5-4.95A.41.41,0,0,0,45.93,31.27Z"/></svg>