<svg xmlns="http://www.w3.org/2000/svg" viewBox="0 0 64 64"><defs><style>.cls-1{fill:#fff;}.cls-2{fill:#2685de;}</style></defs><title>interesection_hollow_blue</title><g id="Part_2" data-name="Part 2"><circle class="cls-1" cx="32.12" cy="31.83" r="32"/><path class="cls-2" d="M32.12-.17a32,32,0,1,0,32,32A32,32,0,0,0,32.12-.17Zm0,62.08A30.08,30.08,0,1,1,62.21,31.83,30.12,30.12,0,0,1,32.12,61.91Z"/><path class="cls-2" d="M48,31.5l-5.64-5.63a.47.47,0,0,0-.8.33v2.66H35.11V22.44h2.67a.48.48,0,0,0,.34-.81L32.46,16a.48.48,0,0,0-.67,0l-5.66,5.66a.48.48,0,0,0,.34.81h2.67v6.42H22.7V26.2a.47.47,0,0,0-.8-.33L16.26,31.5a.48.48,0,0,0,0,.67L21.9,37.8a.47.47,0,0,0,.8-.33V34.81h6.44v6.42H26.47a.48.48,0,0,0-.34.81l5.66,5.65a.47.47,0,0,0,.67,0L38.12,42a.48.48,0,0,0-.34-.81H35.11V34.81h6.44v2.66a.47.47,0,0,0,.8.33L48,32.17A.48.48,0,0,0,48,31.5Z"/></g></svg>