<svg xmlns="http://www.w3.org/2000/svg" viewBox="0 0 64 64"><defs><style>.cls-1{fill:#fff;}.cls-2{fill:#f2b719;}.cls-3{fill:#ffc425;}</style></defs><title>intersection_hollow_yellow</title><g id="ASSETS2"><ellipse class="cls-1" cx="31.97" cy="32.03" rx="26.59" ry="26.44"/><path class="cls-2" d="M32,7.09A24.94,24.94,0,1,1,6.88,32,25,25,0,0,1,32,7.09m0-3A27.94,27.94,0,1,0,60.06,32,28,28,0,0,0,32,4.09Z"/><path class="cls-3" d="M45.78,31.74l-4.91-4.87a.41.41,0,0,0-.7.28v2.31h-5.6V23.9h2.32a.41.41,0,0,0,.29-.7l-4.92-4.9a.41.41,0,0,0-.58,0l-4.93,4.9a.41.41,0,0,0,.29.7h2.33v5.56h-5.6V27.15a.41.41,0,0,0-.7-.28l-4.91,4.87a.41.41,0,0,0,0,.58l4.91,4.88a.41.41,0,0,0,.7-.29v-2.3h5.6v5.56H27a.41.41,0,0,0-.29.7l4.93,4.89a.41.41,0,0,0,.58,0l4.92-4.89a.41.41,0,0,0-.29-.7H34.57V34.61h5.6v2.3a.41.41,0,0,0,.7.29l4.91-4.88A.41.41,0,0,0,45.78,31.74Z"/></g></svg>