<svg id="Layer_1" data-name="Layer 1" xmlns="http://www.w3.org/2000/svg" viewBox="0 0 64 64"><defs><style>.cls-1{fill:#fff;}.cls-2{fill:#00844d;}</style></defs><title>intersection_hollow_green</title><circle class="cls-1" cx="32" cy="32" r="32"/><path class="cls-2" d="M32,0A32,32,0,1,0,64,32,32,32,0,0,0,32,0Zm0,62.08A30.08,30.08,0,1,1,62.08,32,30.11,30.11,0,0,1,32,62.08Z"/><path class="cls-2" d="M47.86,31.67,42.23,26a.48.48,0,0,0-.81.33V29H35V22.6h2.67a.47.47,0,0,0,.33-.8l-5.66-5.66a.45.45,0,0,0-.66,0L26,21.8a.47.47,0,0,0,.33.8H29V29H22.58V26.36a.48.48,0,0,0-.81-.33l-5.63,5.64a.45.45,0,0,0,0,.66L21.77,38a.48.48,0,0,0,.81-.33V35H29V41.4H26.34a.47.47,0,0,0-.33.8l5.66,5.66a.45.45,0,0,0,.66,0L38,42.2a.47.47,0,0,0-.33-.8H35V35h6.43v2.66a.48.48,0,0,0,.81.33l5.63-5.64A.45.45,0,0,0,47.86,31.67Z"/></svg>