<svg xmlns="http://www.w3.org/2000/svg" viewBox="0 0 64 64"><defs><style>.cls-1{fill:#fff;}.cls-2{fill:#2685de;}.cls-3{fill:#5f6062;}</style></defs><title>late_night_hollow</title><g id="ASSETS2"><path class="cls-1" d="M32,58.59A26.59,26.59,0,1,1,58.59,32,26.62,26.62,0,0,1,32,58.59Z"/><path class="cls-2" d="M32,6.91A25.09,25.09,0,1,1,6.91,32,25.12,25.12,0,0,1,32,6.91m0-3A28.09,28.09,0,1,0,60.09,32,28.09,28.09,0,0,0,32,3.91Z"/><path class="cls-1" d="M32,58.59A26.59,26.59,0,1,1,58.59,32,26.62,26.62,0,0,1,32,58.59Z"/><path class="cls-3" d="M32,6.91A25.09,25.09,0,1,1,6.91,32,25.12,25.12,0,0,1,32,6.91m0-3A28.09,28.09,0,1,0,60.09,32,28.09,28.09,0,0,0,32,3.91Z"/><path class="cls-3" d="M31.53,45.71A15.86,15.86,0,0,1,18.46,40.9a.86.86,0,0,1,.79-1.45,17.25,17.25,0,0,0,5.4.35A16.91,16.91,0,0,0,39.8,24.63a17.12,17.12,0,0,0-.35-5.38.86.86,0,0,1,1.45-.79,15.87,15.87,0,0,1-9.37,27.25Z"/></g></svg>