<svg id="Layer_1" data-name="Layer 1" xmlns="http://www.w3.org/2000/svg" viewBox="0 0 64 64"><defs><style>.cls-1{fill:#fff;}.cls-2{fill:#00844d;}</style></defs><title>late_night_hollow_green</title><circle class="cls-1" cx="32" cy="32" r="32"/><path class="cls-2" d="M31.43,48.78a18.28,18.28,0,0,1-15.07-5.54,1,1,0,0,1,.91-1.68A19.42,19.42,0,0,0,40.56,18.27a1,1,0,0,1,1.68-.91A18.3,18.3,0,0,1,31.43,48.78Z"/><path class="cls-2" d="M32-.31A32.31,32.31,0,1,0,64.31,32,32.3,32.3,0,0,0,32-.31Zm0,62.69A30.38,30.38,0,1,1,62.38,32,30.42,30.42,0,0,1,32,62.38Z"/></svg>