<svg xmlns="http://www.w3.org/2000/svg" viewBox="0 0 64 64"><defs><style>.cls-1{fill:#fff;}.cls-2{fill:#2685de;}</style></defs><title>late_night_hollow_blue</title><g id="Part_2" data-name="Part 2"><circle class="cls-1" cx="31.72" cy="31.83" r="32"/><path class="cls-2" d="M31.15,48.62a18.3,18.3,0,0,1-15.07-5.55A1,1,0,0,1,17,41.4a19.8,19.8,0,0,0,6.23.4A19.46,19.46,0,0,0,40.29,18.1,1,1,0,0,1,42,17.19,18.31,18.31,0,0,1,31.15,48.62Z"/><path class="cls-2" d="M31.72-.48A32.32,32.32,0,1,0,64,31.83,32.32,32.32,0,0,0,31.72-.48Zm0,62.69A30.38,30.38,0,1,1,62.1,31.83,30.41,30.41,0,0,1,31.72,62.21Z"/></g></svg>