<svg id="Layer_1" data-name="Layer 1" xmlns="http://www.w3.org/2000/svg" viewBox="0 0 64 64"><defs><style>.cls-1{fill:#fff;}.cls-2{fill:#d52b1e;}</style></defs><title>late_night_hollow_red</title><circle class="cls-1" cx="31.76" cy="31.56" r="32"/><path class="cls-2" d="M31.18,48.34A18.27,18.27,0,0,1,16.12,42.8,1,1,0,0,1,17,41.12,19.44,19.44,0,0,0,40.73,24a19.67,19.67,0,0,0-.41-6.21,1,1,0,0,1,1.68-.9A18.3,18.3,0,0,1,31.18,48.34Z"/><path class="cls-2" d="M31.76-.76A32.32,32.32,0,1,0,64.07,31.56,32.32,32.32,0,0,0,31.76-.76Zm0,62.69A30.38,30.38,0,1,1,62.13,31.56,30.41,30.41,0,0,1,31.76,61.93Z"/></svg>