<svg id="Layer_1" data-name="Layer 1" xmlns="http://www.w3.org/2000/svg" viewBox="0 0 64 64"><defs><style>.cls-1{fill:#00844d;}.cls-2{fill:#fff;}</style></defs><title>parking_solid_green</title><path class="cls-1" d="M32,0A32,32,0,1,0,64,32,32,32,0,0,0,32,0Z"/><path class="cls-2" d="M47.39,33.76q-3.72,3.1-10.63,3.11H27.93V52.12H19.12V9.7H37.33q6.3,0,10,3.29t3.75,10.15Q51.12,30.65,47.39,33.76Zm-6.66-15.5a7.24,7.24,0,0,0-4.8-1.44H27.8V29.54h8.13A6.86,6.86,0,0,0,40.73,28q1.71-1.55,1.71-4.92C42.44,20.82,41.87,19.21,40.73,18.26Z"/></svg>