<svg id="Layer_1" data-name="Layer 1" xmlns="http://www.w3.org/2000/svg" viewBox="0 0 64 64"><defs><style>.cls-1{fill:#d52b1e;}.cls-2{fill:#fff;}</style></defs><title>parking_solid_red</title><path class="cls-1" d="M31.76-.44a32,32,0,1,0,32,32A32,32,0,0,0,31.76-.44Z"/><path class="cls-2" d="M44,13.63q-3.73-3.29-10-3.28H15.76V52.77h8.8V37.51H33.4q6.9,0,10.63-3.1t3.73-10.62Q47.76,16.91,44,13.63ZM37.27,28.68a6.77,6.77,0,0,1-4.72,1.52h-8V17.71h8a7.15,7.15,0,0,1,4.72,1.41c1.12.94,1.68,2.52,1.68,4.72S38.39,27.66,37.27,28.68Z"/></svg>