<svg xmlns="http://www.w3.org/2000/svg" viewBox="0 0 64 64"><defs><style>.cls-1{fill:#fff;}.cls-2{fill:#5f6062;}</style></defs><title>parking_lot_hollow</title><g id="ASSETS2"><circle class="cls-1" cx="32" cy="32" r="26.59"/><path class="cls-2" d="M32,6.91A25.09,25.09,0,1,1,6.91,32,25.12,25.12,0,0,1,32,6.91m0-3A28.09,28.09,0,1,0,60.09,32,28.09,28.09,0,0,0,32,3.91Z"/><path class="cls-2" d="M42.65,34.47c-2.16,1.8-5.23,2.7-9.23,2.7H25.76V50.39H18.12V13.61h15.8c3.64,0,6.54.94,8.71,2.84s3.25,4.83,3.25,8.81Q45.88,31.77,42.65,34.47ZM36.78,21.22A6.16,6.16,0,0,0,32.69,20H25.76V30.83h6.93a5.84,5.84,0,0,0,4.09-1.33,5.41,5.41,0,0,0,1.46-4.19C38.24,23.4,37.75,22,36.78,21.22Z"/></g></svg>