<svg id="Layer_1" data-name="Layer 1" xmlns="http://www.w3.org/2000/svg" viewBox="0 0 64 63.84"><defs><style>.cls-1{fill:#fff;}.cls-2{fill:#00844d;}</style></defs><title>parking_hollow_green</title><circle class="cls-1" cx="32" cy="31.88" r="32"/><path class="cls-2" d="M32-.12a32,32,0,1,0,32,32A32,32,0,0,0,32-.12ZM32,62A30.08,30.08,0,1,1,62.08,31.88,30.12,30.12,0,0,1,32,62Z"/><path class="cls-2" d="M44.28,34.72q-3.73,3.12-10.64,3.11H24.81V53.08H16V10.67H34.21q6.3,0,10,3.28T48,24.11Q48,31.61,44.28,34.72ZM37.51,19.44A7.13,7.13,0,0,0,32.79,18h-8V30.52h8A6.8,6.8,0,0,0,37.51,29q1.68-1.53,1.68-4.84C39.19,22,38.63,20.38,37.51,19.44Z"/></svg>