<svg id="ASSETS" xmlns="http://www.w3.org/2000/svg" viewBox="0 0 64 64"><defs><style>.cls-1{fill:#5f6062;}.cls-2{fill:#fff;}</style></defs><title>parking_lot_solid</title><path class="cls-1" d="M32.13,4.12A27.94,27.94,0,1,0,60.06,32.06,27.94,27.94,0,0,0,32.13,4.12Z"/><path class="cls-2" d="M42.84,34.54c-2.16,1.81-5.26,2.72-9.28,2.72H25.85V50.57H18.16v-37h15.9c3.66,0,6.59,1,8.77,2.86s3.26,4.87,3.26,8.87C46.09,29.65,45,32.73,42.84,34.54ZM36.94,21.2A6.25,6.25,0,0,0,32.82,20h-7V30.88h7a5.92,5.92,0,0,0,4.12-1.34,5.42,5.42,0,0,0,1.47-4.22C38.41,23.4,37.92,22,36.94,21.2Z"/></svg>