<svg id="Layer_1" data-name="Layer 1" xmlns="http://www.w3.org/2000/svg" viewBox="0 0 64 64"><defs><style>.cls-1{fill:#ffc425;}.cls-2{fill:#fff;}</style></defs><title>parking_solid_yellow</title><path class="cls-1" d="M32,0A32,32,0,1,0,64,32,32,32,0,0,0,32,0Z"/><path class="cls-2" d="M44.28,34.85Q40.55,38,33.64,38H24.81V53.21H16V10.79H34.21q6.3,0,10,3.28T48,24.23Q48,31.74,44.28,34.85ZM37.51,19.57a7.13,7.13,0,0,0-4.72-1.41h-8V30.65h8a6.75,6.75,0,0,0,4.72-1.53c1.12-1,1.68-2.63,1.68-4.83S38.63,20.51,37.51,19.57Z"/></svg>