<svg id="Layer_1" data-name="Layer 1" xmlns="http://www.w3.org/2000/svg" viewBox="0 0 64 64"><defs><style>.cls-1{fill:#fff;}.cls-2{fill:#d52b1e;}</style></defs><title>parking_hollow_red</title><circle class="cls-1" cx="31.76" cy="31.56" r="32"/><path class="cls-2" d="M31.76-.76A32.32,32.32,0,1,0,64.07,31.56,32.32,32.32,0,0,0,31.76-.76Zm0,62.69A30.38,30.38,0,1,1,62.13,31.56,30.41,30.41,0,0,1,31.76,61.93Zm12.7-47.78q-3.75-3.28-10-3.28H16.21V53.28H25V38h8.83q6.91,0,10.64-3.11t3.73-10.61Q48.21,17.42,44.46,14.15ZM37.72,29.2A6.78,6.78,0,0,1,33,30.72H25V18.23h8a7.17,7.17,0,0,1,4.72,1.41c1.12.94,1.68,2.52,1.68,4.72S38.84,28.18,37.72,29.2Z"/></svg>