<svg id="Layer_1" data-name="Layer 1" xmlns="http://www.w3.org/2000/svg" viewBox="0 0 64 64"><defs><style>.cls-1{fill:#fff;}.cls-2{fill:#ffc425;}</style></defs><title>parking_hollow_yellow</title><circle class="cls-1" cx="32" cy="32" r="32"/><path class="cls-2" d="M32,0A32,32,0,1,0,64,32,32,32,0,0,0,32,0Zm0,62.08A30.08,30.08,0,1,1,62.08,32,30.11,30.11,0,0,1,32,62.08Z"/><path class="cls-2" d="M45.14,36.08q-3.73,3.11-10.64,3.1H25.67V54.44H16.86V12H35.08q6.29,0,10,3.28t3.74,10.16C48.86,30.47,47.62,34,45.14,36.08ZM38.37,20.8a7.12,7.12,0,0,0-4.71-1.41h-8V31.88h8a6.74,6.74,0,0,0,4.71-1.53q1.7-1.53,1.69-4.83T38.37,20.8Z"/></svg>