<svg id="icons" xmlns="http://www.w3.org/2000/svg" viewBox="0 0 100 100"><defs><style>.cls-1{fill:#0096d6;}</style></defs><title>UBI-mobile-car</title><path class="cls-1" d="M77.07,58.7C77,57.51,75.5,55.58,74,53.93L68.84,40A7.53,7.53,0,0,0,61.78,35H57.71c0,.25,0,.5,0,.76a7.69,7.69,0,0,1-.61,3h4.64a3.75,3.75,0,0,1,3.53,2.46l3,8.08a1,1,0,0,1-.94,1.35H32.66a1,1,0,0,1-.94-1.35l3-8.08a3.75,3.75,0,0,1,3.53-2.46h4.64a7.69,7.69,0,0,1-.61-3c0-.26,0-.51,0-.76H38.22A7.53,7.53,0,0,0,31.16,40l-5,13.72c-1.56,1.63-3.13,3.62-3.19,5h0V73.8a1.55,1.55,0,0,0,0,.22v4.25a4,4,0,0,0,4,4h1.17a4,4,0,0,0,4-4V75.56H67.94v2.71a4,4,0,0,0,4,4h1.17a4,4,0,0,0,4-4V73.8h0V58.7ZM33.7,64.46a3.79,3.79,0,1,1,3.78-3.78A3.86,3.86,0,0,1,33.7,64.46Zm32.32,0a3.79,3.79,0,1,1,3.78-3.78A3.86,3.86,0,0,1,66,64.46Z"/><circle class="cls-1" cx="50" cy="35.79" r="3.75"/><path class="cls-1" d="M66,24.45a2,2,0,0,1-1.54-.71,18.78,18.78,0,0,0-28.79,0,2,2,0,1,1-3.06-2.57,22.78,22.78,0,0,1,34.92,0A2,2,0,0,1,66,24.45Z"/><path class="cls-1" d="M58.69,30.53a2,2,0,0,1-1.54-.72,9.33,9.33,0,0,0-14.29,0,2,2,0,1,1-3.06-2.57,13.33,13.33,0,0,1,20.42,0,2,2,0,0,1-1.53,3.29Z"/></svg>