<svg xmlns="http://www.w3.org/2000/svg" viewBox="0 0 64 64"><defs><style>.cls-1{fill:#0096d6;}</style></defs><title>UBI-participation-discount</title><g id="Layer_2" data-name="Layer 2"><g id="icons"><path class="cls-1" d="M42.06,35.82a2.38,2.38,0,1,0,2.37,2.37A2.42,2.42,0,0,0,42.06,35.82Z"/><path class="cls-1" d="M21.76,35.82a2.38,2.38,0,1,0,2.38,2.37A2.41,2.41,0,0,0,21.76,35.82Z"/><path class="cls-1" d="M32,0A32,32,0,1,0,64,32,32,32,0,0,0,32,0ZM21.05,13.36a14.31,14.31,0,0,1,21.93,0,1.26,1.26,0,0,1-.16,1.77,1.3,1.3,0,0,1-.81.29,1.24,1.24,0,0,1-1-.45A11.79,11.79,0,0,0,23,15a1.26,1.26,0,0,1-1.92-1.62Zm11,3.35a5.83,5.83,0,0,0-4.48,2.09,1.26,1.26,0,0,1-1.92-1.62,8.37,8.37,0,0,1,12.82,0A1.26,1.26,0,0,1,38.26,19a1.22,1.22,0,0,1-.81.29,1.25,1.25,0,0,1-1-.45A5.86,5.86,0,0,0,32,16.71Zm2.35,5.86A2.35,2.35,0,1,1,32,20.21,2.35,2.35,0,0,1,34.35,22.57ZM49,46.44h0v2.8a2.5,2.5,0,0,1-2.5,2.5h-.73a2.5,2.5,0,0,1-2.51-2.5v-1.7H20.75v1.7a2.5,2.5,0,0,1-2.51,2.5h-.73a2.5,2.5,0,0,1-2.5-2.5V46.57a.57.57,0,0,1,0-.13V37h0c0-.88,1-2.13,2-3.16l3.17-8.61a4.72,4.72,0,0,1,4.43-3.09h2.56a3.87,3.87,0,0,0,0,.48,4.89,4.89,0,0,0,.38,1.88H24.6A2.35,2.35,0,0,0,22.39,26l-1.87,5.07a.63.63,0,0,0,.59.85H42.89a.63.63,0,0,0,.59-.85L41.61,26a2.35,2.35,0,0,0-2.21-1.55H36.49a4.89,4.89,0,0,0,.38-1.88,3.87,3.87,0,0,0,0-.48H39.4a4.72,4.72,0,0,1,4.43,3.09L47.06,34C48,35,49,36.21,49,37h0Z"/></g></g></svg>