<svg id="Layer_1" data-name="Layer 1" xmlns="http://www.w3.org/2000/svg" viewBox="0 0 54.15 69.25"><defs><style>.cls-1{fill:none;}</style></defs><title>UBI-mobile-car-transparent</title><path class="cls-1" d="M54.14,45.69c-.06-1.18-1.57-3.11-3.09-4.77L45.91,27a7.51,7.51,0,0,0-7-4.92H34.78a6.34,6.34,0,0,1,0,.76,7.64,7.64,0,0,1-.6,3h4.64a3.76,3.76,0,0,1,3.52,2.47l3,8.08a1,1,0,0,1-.94,1.35H9.73a1,1,0,0,1-.94-1.35l3-8.08a3.78,3.78,0,0,1,3.53-2.47h4.64a7.64,7.64,0,0,1-.6-3c0-.26,0-.51,0-.76H15.29a7.51,7.51,0,0,0-7,4.92L3.19,40.66C1.64,42.3.06,44.28,0,45.69H0V60.8C0,60.87,0,61,0,61v4.24a4,4,0,0,0,4,4H5.17a4,4,0,0,0,4-4V62.55H45v2.71a4,4,0,0,0,4,4h1.16a4,4,0,0,0,4-4V60.8h0V45.69ZM10.77,51.46a3.79,3.79,0,0,1,0-7.57,3.79,3.79,0,0,1,0,7.57Zm32.32,0a3.79,3.79,0,1,1,3.78-3.79A3.86,3.86,0,0,1,43.09,51.46Z"/><circle class="cls-1" cx="27.07" cy="22.79" r="3.75"/><path class="cls-1" d="M43,11.45a2,2,0,0,1-1.53-.72,18.8,18.8,0,0,0-28.8,0A2,2,0,1,1,9.63,8.12a22.79,22.79,0,0,1,34.92.05A2,2,0,0,1,44.3,11,2,2,0,0,1,43,11.45Z"/><path class="cls-1" d="M35.76,17.52a2,2,0,0,1-1.53-.71,9.31,9.31,0,0,0-14.29,0,2,2,0,0,1-3.06-2.58,13.31,13.31,0,0,1,20.41,0,2,2,0,0,1-1.53,3.28Z"/></svg>