<svg xmlns="http://www.w3.org/2000/svg" viewBox="0 0 65 65">
  <defs>
    <style>
      .cls-1 {
        fill: #ebebeb;
      }

      .cls-2 {
        fill: #0d96d4;
      }
    </style>
  </defs>
  <g id="group-16" transform="translate(-0.01)">
    <path id="path" class="cls-1" d="M307.19,363.72a32.5,32.5,0,1,0,32.54,32.47,32.5,32.5,0,0,0-32.54-32.47Zm0,63.059a30.559,30.559,0,1,1,30.589-30.589,30.559,30.559,0,0,1-30.589,30.589Z" transform="translate(-274.72 -363.72)"/>
    <g id="Group_6632" data-name="Group 6632" transform="translate(16.556 10.565)">
      <path id="Path_912" data-name="Path 912" class="cls-2" d="M27.68,21.24a2.135,2.135,0,0,0-2.14-2.14,2.173,2.173,0,0,0-2.14,2.14,2.14,2.14,0,0,0,4.28,0Z" transform="translate(-9.907 -8.052)"/>
      <path id="Path_913" data-name="Path 913" class="cls-2" d="M31.251,35.709a6.894,6.894,0,0,0-1.793-2.776l-2.95-8.1A4.378,4.378,0,0,0,22.459,22H20.087v.463A4.226,4.226,0,0,1,19.74,24.2H22.4a2.119,2.119,0,0,1,2.025,1.446l1.735,4.685a.547.547,0,0,1-.521.752H5.569a.54.54,0,0,1-.521-.752l1.735-4.685A2.175,2.175,0,0,1,8.808,24.2h2.661a4.226,4.226,0,0,1-.347-1.735V22H8.75a4.455,4.455,0,0,0-4.107,2.834L1.751,32.759A5.919,5.919,0,0,0-.1,35.651h0V46.93a2.321,2.321,0,0,0,2.314,2.314h.694A2.321,2.321,0,0,0,5.222,46.93V45.369H25.987V46.93A2.321,2.321,0,0,0,28.3,49.244H29a2.321,2.321,0,0,0,2.314-2.314v-2.6h0l-.058-8.619ZM6.2,39.064a2.2,2.2,0,0,1,0-4.4,2.235,2.235,0,0,1,2.2,2.2A2.275,2.275,0,0,1,6.2,39.064Zm18.683,0a2.2,2.2,0,1,1,2.2-2.2A2.275,2.275,0,0,1,24.888,39.064Z" transform="translate(0 -9.275)"/>
      <g id="Group_6632-2" data-name="Group 6632" transform="translate(5.274)">
        <path id="Path_914" data-name="Path 914" class="cls-2" d="M28.747,6.652a1.041,1.041,0,0,1-.868-.4,10.837,10.837,0,0,0-16.659-.058,1.148,1.148,0,0,1-1.735-1.5,13.163,13.163,0,0,1,20.187.058,1.174,1.174,0,0,1-.116,1.62A1.535,1.535,0,0,1,28.747,6.652Z" transform="translate(-9.191)"/>
      </g>
      <g id="Group_6633" data-name="Group 6633" transform="translate(9.497 5.495)">
        <path id="Path_915" data-name="Path 915" class="cls-2" d="M27.66,14.127a1.041,1.041,0,0,1-.868-.4,5.453,5.453,0,0,0-4.165-1.909,5.248,5.248,0,0,0-4.107,1.909,1.148,1.148,0,1,1-1.735-1.5,7.7,7.7,0,0,1,5.9-2.719,7.489,7.489,0,0,1,5.9,2.776,1.174,1.174,0,0,1-.116,1.62A1.582,1.582,0,0,1,27.66,14.127Z" transform="translate(-16.491 -9.5)"/>
      </g>
    </g>
  </g>
</svg>
