<svg xmlns="http://www.w3.org/2000/svg" viewBox="0 0 64.63 64.63"><defs><style>.cls-1{fill:#333;}.cls-2{fill:#fff;}</style></defs><title>hang-up-circle</title><g id="Layer_2" data-name="Layer 2"><g id="icons"><path class="cls-1" d="M55.17,9.46a32.32,32.32,0,1,0,0,45.71A32.34,32.34,0,0,0,55.17,9.46ZM10.83,53.79a30.38,30.38,0,1,1,43,0A30.44,30.44,0,0,1,10.83,53.79Z"/><path class="cls-2" d="M53.79,10.83a30.38,30.38,0,1,0,0,43A30.44,30.44,0,0,0,53.79,10.83ZM51.46,38a1.32,1.32,0,0,1-1.32,1.32H48.36l-1.07,0-5.8-1a1.33,1.33,0,0,1-1.32-1.33V33a1.32,1.32,0,0,1,.88-1.25,16.24,16.24,0,0,0-17.75,0A1.33,1.33,0,0,1,24.19,33v3.89a1.33,1.33,0,0,1-1.32,1.33l-5.82,1-1,0H14.23A1.32,1.32,0,0,1,12.9,38V33a1.83,1.83,0,0,1,0-.21.73.73,0,0,1,.09-.31c1.45-4.52,9.49-8,19.17-8s17.7,3.46,19.18,8a1.14,1.14,0,0,1,.08.33,1.23,1.23,0,0,1,0,.19Z"/><path class="cls-1" d="M51.46,33V38a1.32,1.32,0,0,1-1.32,1.32H48.36l-1.07,0-5.8-1a1.33,1.33,0,0,1-1.32-1.33V33a1.32,1.32,0,0,1,.88-1.25,16.24,16.24,0,0,0-17.75,0A1.33,1.33,0,0,1,24.19,33v3.89a1.33,1.33,0,0,1-1.32,1.33l-5.82,1-1,0H14.23A1.32,1.32,0,0,1,12.9,38V33a1.83,1.83,0,0,1,0-.21.73.73,0,0,1,.09-.31c1.45-4.52,9.49-8,19.17-8s17.7,3.46,19.18,8a1.14,1.14,0,0,1,.08.33A1.23,1.23,0,0,1,51.46,33Z"/></g></g></svg>