<svg id="Layer_1" data-name="Layer 1" xmlns="http://www.w3.org/2000/svg" viewBox="0 0 185.58 188.34"><defs><style>.cls-1{fill:#ebebeb;}.cls-2{fill:#767676;}.cls-3,.cls-4{isolation:isolate;}.cls-4{font-size:20px;fill:#333;font-family:Helvetica-Bold, Helvetica;font-weight:700;}</style></defs><title>Phase 1</title><g id="group-22"><g id="group-21"><g id="Group_4950" data-name="Group 4950"><path id="path" class="cls-1" d="M92.79,188.34A92.82,92.82,0,1,1,185.58,95.5a92.9,92.9,0,0,1-92.79,92.84Zm0-182.58A89.77,89.77,0,1,0,182.58,95.5,89.88,89.88,0,0,0,92.79,5.76Z" transform="translate(0 0)"/><ellipse id="ellipse-2" class="cls-2" cx="92.5" cy="3.6" rx="3.5" ry="3.6"/><g id="Group_6634" data-name="Group 6634"><path id="Path_908" data-name="Path 908" class="cls-1" d="M97.31,54.3a3.74,3.74,0,0,0-3.74-3.74h0a3.8,3.8,0,0,0-3.74,3.74,3.75,3.75,0,1,0,7.5,0Z" transform="translate(0 0)"/><path id="Path_909" data-name="Path 909" class="cls-1" d="M120.91,77.5c-.1-1.21-1.63-3.14-3.14-4.86L112.6,58.46a7.67,7.67,0,0,0-7.09-5h-4.16v.81a7.37,7.37,0,0,1-.6,3h4.66A3.71,3.71,0,0,1,109,59.88l3,8.2a1,1,0,0,1-.53,1.25,1,1,0,0,1-.38.06H75.93a.94.94,0,0,1-1-.9.84.84,0,0,1,.08-.41l3-8.21a3.83,3.83,0,0,1,3.55-2.53h4.66a7.54,7.54,0,0,1-.61-3v-.81H81.5a7.8,7.8,0,0,0-7.19,5L69.24,72.34C67.62,74,66.1,76,66,77.4h0V97.15a4.07,4.07,0,0,0,4,4.06h1.22a4.07,4.07,0,0,0,4-4.06V94.42h36.37v2.73a4.06,4.06,0,0,0,4,4.06H117A4.08,4.08,0,0,0,121,97.15V92.59h0l-.1-15.09ZM77,83.38a3.85,3.85,0,0,1,0-7.7,3.91,3.91,0,0,1,3.85,3.85A4,4,0,0,1,77,83.38Zm32.72,0a3.85,3.85,0,1,1,3.85-3.85h0A4,4,0,0,1,109.76,83.38Z" transform="translate(0 0)"/><g id="Group_6628" data-name="Group 6628"><path id="Path_910" data-name="Path 910" class="cls-1" d="M109.66,42.86a1.83,1.83,0,0,1-1.52-.71A19,19,0,0,0,79,42.05a2,2,0,0,1-3-2.64h0a23,23,0,0,1,32.48-2.79,23.74,23.74,0,0,1,2.87,2.89,2,2,0,0,1-.2,2.84A2.69,2.69,0,0,1,109.66,42.86Z" transform="translate(0 0)"/></g><g id="Group_6629" data-name="Group 6629"><path id="Path_911" data-name="Path 911" class="cls-1" d="M102.37,48.93a1.81,1.81,0,0,1-1.52-.71,9.57,9.57,0,0,0-7.3-3.34,9.18,9.18,0,0,0-7.19,3.35,2,2,0,0,1-3.07-2.59l0,0a13.51,13.51,0,0,1,10.34-4.77A13.13,13.13,0,0,1,104,45.69a2.07,2.07,0,0,1-.2,2.84A2.74,2.74,0,0,1,102.37,48.93Z" transform="translate(0 0)"/></g></g></g></g><g id="RESULTS_EXPECTE" data-name="RESULTS EXPECTE" class="cls-3"><text class="cls-4" transform="translate(26.67 133.21)">Download and</text><text class="cls-4" transform="translate(54.99 157.21)">Register</text></g></g></svg>