<svg id="Layer_1" data-name="Layer 1" xmlns="http://www.w3.org/2000/svg" viewBox="0 0 185.58 188.34"><defs><style>.cls-1{fill:#ebebeb;}.cls-2{fill:#767676;}.cls-3{fill:#0d96d4;}.cls-4,.cls-5{isolation:isolate;}.cls-5{font-size:20px;fill:#333;font-family:Helvetica-Bold, Helvetica;font-weight:700;}.cls-6{letter-spacing:-0.05em;}.cls-7{letter-spacing:-0.02em;}</style></defs><title>Phase 1.1</title><g id="group-22"><g id="group-21"><g id="Group_4950" data-name="Group 4950"><path id="path" class="cls-1" d="M92.79,188.34A92.82,92.82,0,1,1,185.58,95.5a92.9,92.9,0,0,1-92.79,92.84Zm0-182.58A89.77,89.77,0,1,0,182.58,95.5,89.88,89.88,0,0,0,92.79,5.76Z" transform="translate(0 0)"/><ellipse id="ellipse-2" class="cls-2" cx="92.5" cy="3.6" rx="3.5" ry="3.6"/><g id="Group_6634" data-name="Group 6634"><path id="Path_908" data-name="Path 908" class="cls-3" d="M97.31,54.31a3.74,3.74,0,0,0-3.74-3.75h0a3.8,3.8,0,0,0-3.74,3.75,3.75,3.75,0,0,0,7.5,0Z" transform="translate(0 0)"/><path id="Path_909" data-name="Path 909" class="cls-3" d="M120.91,77.5c-.1-1.21-1.63-3.14-3.14-4.86L112.6,58.46a7.65,7.65,0,0,0-7.09-5h-4.16v.81a7.32,7.32,0,0,1-.6,3h4.66A3.72,3.72,0,0,1,109,59.88l3,8.2a1,1,0,0,1-.53,1.25,1,1,0,0,1-.38.07H75.93a1,1,0,0,1-1-.91.84.84,0,0,1,.08-.41l3-8.21a3.83,3.83,0,0,1,3.55-2.53h4.66a7.49,7.49,0,0,1-.61-3V53.5H81.5a7.79,7.79,0,0,0-7.19,5L69.24,72.34C67.62,74,66.1,76,66,77.4h0V97.16a4.07,4.07,0,0,0,4,4h1.22a4.07,4.07,0,0,0,4-4V94.42h36.37v2.74a4.06,4.06,0,0,0,4,4H117a4.07,4.07,0,0,0,4.06-4V92.6h0l-.1-15.1ZM77,83.38a3.85,3.85,0,0,1,0-7.7,3.91,3.91,0,0,1,3.85,3.85A4,4,0,0,1,77,83.38Zm32.72,0a3.85,3.85,0,1,1,3.85-3.85h0A4,4,0,0,1,109.76,83.38Z" transform="translate(0 0)"/><g id="Group_6628" data-name="Group 6628"><path id="Path_910" data-name="Path 910" class="cls-3" d="M109.66,42.86a1.83,1.83,0,0,1-1.52-.71A19,19,0,0,0,79,42.05a2,2,0,0,1-3-2.64h0a23.06,23.06,0,0,1,32.48-2.79,23.74,23.74,0,0,1,2.87,2.89,2,2,0,0,1-.2,2.84A2.69,2.69,0,0,1,109.66,42.86Z" transform="translate(0 0)"/></g><g id="Group_6629" data-name="Group 6629"><path id="Path_911" data-name="Path 911" class="cls-3" d="M102.37,48.93a1.81,1.81,0,0,1-1.52-.71,9.57,9.57,0,0,0-7.3-3.34,9.21,9.21,0,0,0-7.19,3.35,2,2,0,0,1-3.07-2.59l0,0a13.51,13.51,0,0,1,10.34-4.77A13.11,13.11,0,0,1,104,45.7a2.06,2.06,0,0,1-.2,2.83A2.74,2.74,0,0,1,102.37,48.93Z" transform="translate(0 0)"/></g></g></g></g><g id="RESULTS_EXPECTE" data-name="RESULTS EXPECTE" class="cls-4"><text class="cls-5" transform="translate(44.99 133.21)">No Scored</text><text class="cls-5" transform="translate(53.48 157.21)"><tspan class="cls-6">T</tspan><tspan x="11.12" y="0">rips</tspan><tspan class="cls-7" x="47.8" y="0"> </tspan><tspan class="cls-6" x="53.01" y="0">Y</tspan><tspan x="65.25" y="0">et</tspan></text></g></g></svg>