<svg xmlns="http://www.w3.org/2000/svg" viewBox="0 0 64.2 64.21"><defs><style>.cls-1{fill:#333;}</style></defs><title>core-phone</title><g id="Layer_2" data-name="Layer 2"><g id="icons"><path class="cls-1" d="M63.43,51.6,60.9,49.07l-1.56-1.42-9.59-6.84a2.66,2.66,0,0,0-3.76,0L40.5,46.29a2.66,2.66,0,0,0-.51,3,32.42,32.42,0,0,1-25.11-25.1,2.67,2.67,0,0,0,3-.52l5.49-5.49a2.66,2.66,0,0,0,0-3.75l-6.85-9.6L15.13,3.3,12.61.78a2.66,2.66,0,0,0-3.76,0l-4,4-3,3A2.51,2.51,0,0,0,1.66,8a2.46,2.46,0,0,0-.33.59C-3,17.1,3.47,33.35,17.16,47.05s30,20.15,38.44,15.82a2.63,2.63,0,0,0,.57-.31,2.07,2.07,0,0,0,.32-.28l3-3,4-4A2.66,2.66,0,0,0,63.43,51.6Z"/></g></g></svg>