<svg xmlns="http://www.w3.org/2000/svg" viewBox="0 0 64.63 64.63"><defs><style>.cls-1{fill:#333;}.cls-2{fill:#fff;}</style></defs><title>Phone-circle</title><g id="Layer_2" data-name="Layer 2"><g id="icons"><path class="cls-1" d="M32.32,0A32.32,32.32,0,1,0,64.63,32.31,32.32,32.32,0,0,0,32.32,0Zm0,62.69A30.38,30.38,0,1,1,62.69,32.31,30.42,30.42,0,0,1,32.32,62.69Z"/><path class="cls-2" d="M32.32,1.94A30.38,30.38,0,1,0,62.69,32.31,30.41,30.41,0,0,0,32.32,1.94ZM47.9,42.77l-2,2-1.48,1.48-.16.14a1.59,1.59,0,0,1-.29.15c-4.24,2.17-12.36-1.06-19.21-7.91s-10.07-15-7.91-19.2a1.11,1.11,0,0,1,.17-.3,1.83,1.83,0,0,1,.13-.16l1.48-1.47,2-2a1.33,1.33,0,0,1,1.88,0l1.26,1.26.71.78,3.42,4.8a1.32,1.32,0,0,1,0,1.87L25.16,27a1.33,1.33,0,0,1-1.51.25A16.18,16.18,0,0,0,36.19,39.76a1.32,1.32,0,0,1,.26-1.51l2.74-2.75a1.35,1.35,0,0,1,1.88,0l4.79,3.43.78.7L47.9,40.9A1.32,1.32,0,0,1,47.9,42.77Z"/><path class="cls-1" d="M47.9,42.77l-2,2-1.48,1.48-.16.14a1.59,1.59,0,0,1-.29.15c-4.24,2.17-12.36-1.06-19.21-7.91s-10.07-15-7.91-19.2a1.11,1.11,0,0,1,.17-.3,1.83,1.83,0,0,1,.13-.16l1.48-1.47,2-2a1.33,1.33,0,0,1,1.88,0l1.26,1.26.71.78,3.42,4.8a1.32,1.32,0,0,1,0,1.87L25.16,27a1.33,1.33,0,0,1-1.51.25A16.18,16.18,0,0,0,36.19,39.76a1.32,1.32,0,0,1,.26-1.51l2.74-2.75a1.35,1.35,0,0,1,1.88,0l4.79,3.43.78.7L47.9,40.9A1.32,1.32,0,0,1,47.9,42.77Z"/></g></g></svg>