<svg id="Layer_1" data-name="Layer 1" xmlns="http://www.w3.org/2000/svg" viewBox="0 0 64 64"><defs><style>.cls-1{fill:#fff;}.cls-2{fill:#00844d;}</style></defs><title>weekend_hollow_green</title><circle class="cls-1" cx="32" cy="32" r="32"/><path class="cls-2" d="M32-.31A32.31,32.31,0,1,0,64.31,32,32.3,32.3,0,0,0,32-.31Zm0,62.69A30.38,30.38,0,1,1,62.38,32,30.42,30.42,0,0,1,32,62.38ZM21.8,19.71V14.17a.5.5,0,0,1,.5-.5h1.34a.5.5,0,0,1,.49.5v5.54a.45.45,0,0,1-.49.5H22.3A.5.5,0,0,1,21.8,19.71Zm18,0V14.17a.5.5,0,0,1,.49-.5h1.34a.5.5,0,0,1,.5.5v5.54a.47.47,0,0,1-.5.5H40.31A.5.5,0,0,1,39.82,19.71ZM45.56,16H43.8v3.49c0,1.28-1.51,2.32-2.79,2.32s-2.8-1-2.8-2.32V16H25.79v3.49c0,1.28-1.51,2.32-2.8,2.32s-2.79-1-2.79-2.27V16H18.44a2.33,2.33,0,0,0-2.33,2.33V45.45a2.33,2.33,0,0,0,2.33,2.33H45.56a2.33,2.33,0,0,0,2.33-2.33V18.33A2.33,2.33,0,0,0,45.56,16Zm0,28.41a1,1,0,0,1-1,1h-25a1,1,0,0,1-1-1V28a1,1,0,0,1,1-1h25a1,1,0,0,1,1,1Zm-16.22-10V30.32a.63.63,0,0,1,.63-.63h4.12a.64.64,0,0,1,.64.63v4.12a.67.67,0,0,1-.06.28l0,.05-.06.08,0,0,0,0-.07.06a.64.64,0,0,1-.36.11H30A.64.64,0,0,1,29.33,34.44Zm-7.85,0V30.32a.63.63,0,0,1,.63-.63h4.13a.63.63,0,0,1,.63.63v4.12a.67.67,0,0,1-.06.28l0,.05-.05.08s0,0,0,0l0,0-.07.06a.61.61,0,0,1-.35.11H22.11A.64.64,0,0,1,21.48,34.44Zm7.85,7.84V38.15a.63.63,0,0,1,.63-.63h4.12a.64.64,0,0,1,.64.63v4.13a.63.63,0,0,1-.06.27l0,.05-.06.08a.08.08,0,0,1,0,0l0,0-.07,0a.64.64,0,0,1-.36.11H30A.63.63,0,0,1,29.33,42.28Zm-7.85,0V38.15a.63.63,0,0,1,.63-.63h4.13a.63.63,0,0,1,.63.63v4.13a.63.63,0,0,1-.06.27l0,.05a.56.56,0,0,1-.05.08l0,0,0,0a.18.18,0,0,1-.07,0,.61.61,0,0,1-.35.11H22.11A.63.63,0,0,1,21.48,42.28Zm15.69-7.84V30.32a.64.64,0,0,1,.64-.63h4.12a.64.64,0,0,1,.64.63v4.12a.68.68,0,0,1-.07.28l0,.05a.35.35,0,0,1,0,.08l0,0,0,0-.07.06a.66.66,0,0,1-.36.11H37.81A.64.64,0,0,1,37.17,34.44Z"/></svg>