<svg id="Layer_1" data-name="Layer 1" xmlns="http://www.w3.org/2000/svg" viewBox="0 0 64 64"><defs><style>.cls-1{fill:#fff;}.cls-2{fill:#ffc425;}</style></defs><title>weekend_hollow_yellow</title><ellipse class="cls-1" cx="31.92" cy="32" rx="31.77" ry="31.66"/><path class="cls-2" d="M31.92,0A32,32,0,1,0,64,32,32,32,0,0,0,31.92,0Zm0,62A30.05,30.05,0,1,1,62.08,32,30.14,30.14,0,0,1,31.92,62.05ZM21.79,19.84V14.36a.5.5,0,0,1,.5-.49h1.32a.49.49,0,0,1,.49.49v5.48c0,.3-.19.49-.49.49H22.29A.49.49,0,0,1,21.79,19.84Zm17.89,0V14.36a.5.5,0,0,1,.49-.49H41.5a.5.5,0,0,1,.49.49v5.48a.46.46,0,0,1-.49.49H40.17A.49.49,0,0,1,39.68,19.84Zm5.7-3.67H43.64v3.45c0,1.27-1.5,2.3-2.78,2.3s-2.77-1-2.77-2.3V16.17H25.75v3.45c0,1.27-1.5,2.3-2.78,2.3s-2.77-1-2.77-2.25v-3.5H18.45a2.31,2.31,0,0,0-2.31,2.3V45.3a2.31,2.31,0,0,0,2.31,2.31H45.38a2.3,2.3,0,0,0,2.31-2.31V18.47A2.3,2.3,0,0,0,45.38,16.17Zm0,28.1a1,1,0,0,1-1,1H19.49a1,1,0,0,1-1-1V28a1,1,0,0,1,1-1H44.34a1,1,0,0,1,1,1ZM29.26,34.42V30.34a.63.63,0,0,1,.63-.63H34a.63.63,0,0,1,.63.63v4.08a.64.64,0,0,1-.07.27s0,0,0,.05l-.06.08s0,0,0,0l0,0-.07.06A.68.68,0,0,1,34,35h-4.1A.63.63,0,0,1,29.26,34.42Zm-7.79,0V30.34a.63.63,0,0,1,.63-.63h4.09a.64.64,0,0,1,.64.63v4.08a.64.64,0,0,1-.07.27l0,.05a.35.35,0,0,1-.05.08l0,0,0,0-.07.06a.69.69,0,0,1-.36.1H22.1A.63.63,0,0,1,21.47,34.42Zm7.79,7.75V38.09a.63.63,0,0,1,.63-.63H34a.63.63,0,0,1,.63.63v4.08a.64.64,0,0,1-.07.27s0,0,0,.05l-.06.07a.1.1,0,0,1,0,0l0,0-.07.06a.68.68,0,0,1-.35.1h-4.1A.63.63,0,0,1,29.26,42.17Zm-7.79,0V38.09a.63.63,0,0,1,.63-.63h4.09a.64.64,0,0,1,.64.63v4.08a.64.64,0,0,1-.07.27l0,.05a.18.18,0,0,1-.05.07.1.1,0,0,1,0,0l0,0-.07.06a.69.69,0,0,1-.36.1H22.1A.63.63,0,0,1,21.47,42.17Zm15.58-7.75V30.34a.64.64,0,0,1,.64-.63h4.09a.63.63,0,0,1,.63.63v4.08a.63.63,0,0,1-.06.27l0,.05-.06.08s0,0,0,0l0,0-.07.06a.68.68,0,0,1-.35.1H37.69A.63.63,0,0,1,37.05,34.42Z"/></svg>