<svg xmlns="http://www.w3.org/2000/svg" viewBox="0 0 64 64"><defs><style>.cls-1{fill:#fff;}.cls-2{fill:#2685de;}</style></defs><title>weekend_hollow_blue</title><g id="Part_2" data-name="Part 2"><circle class="cls-1" cx="32.25" cy="31.83" r="32"/><path class="cls-2" d="M32.25-.48A32.32,32.32,0,1,0,64.56,31.83,32.31,32.31,0,0,0,32.25-.48Zm0,62.69A30.38,30.38,0,1,1,62.63,31.83,30.42,30.42,0,0,1,32.25,62.21ZM22.05,19.55V14a.5.5,0,0,1,.5-.49h1.34a.49.49,0,0,1,.49.49v5.55c.05.29-.2.49-.49.49H22.55A.5.5,0,0,1,22.05,19.55Zm18,0V14a.5.5,0,0,1,.49-.49H41.9a.49.49,0,0,1,.5.49v5.55a.47.47,0,0,1-.5.49H40.56A.5.5,0,0,1,40.07,19.55Zm5.74-3.72H44.05v3.49c0,1.29-1.51,2.33-2.79,2.33s-2.8-1-2.8-2.33V15.83H26v3.49c0,1.29-1.51,2.33-2.8,2.33s-2.79-1-2.79-2.28V15.83H18.69a2.33,2.33,0,0,0-2.33,2.33V45.28a2.33,2.33,0,0,0,2.33,2.33H45.81a2.33,2.33,0,0,0,2.33-2.33V18.16A2.33,2.33,0,0,0,45.81,15.83Zm0,28.41a1,1,0,0,1-1,1h-25a1,1,0,0,1-1-1V27.78a1,1,0,0,1,1-1h25a1,1,0,0,1,1,1Zm-16.22-10V30.15a.63.63,0,0,1,.63-.63h4.12a.64.64,0,0,1,.64.63v4.13a.63.63,0,0,1-.06.27l0,.05-.06.08,0,0,0,0-.07,0a.64.64,0,0,1-.36.11H30.21A.63.63,0,0,1,29.58,34.28Zm-7.85,0V30.15a.63.63,0,0,1,.63-.63h4.13a.63.63,0,0,1,.63.63v4.13a.63.63,0,0,1-.06.27l0,.05a.56.56,0,0,1-.05.08s0,0,0,0l0,0-.07,0a.61.61,0,0,1-.35.11H22.36A.63.63,0,0,1,21.73,34.28Zm7.85,7.83V38a.64.64,0,0,1,.63-.64h4.12A.64.64,0,0,1,35,38v4.12a.6.6,0,0,1-.06.27l0,.06-.06.07,0,.05,0,0-.07.06a.72.72,0,0,1-.36.1H30.21A.63.63,0,0,1,29.58,42.11Zm-7.85,0V38a.64.64,0,0,1,.63-.64h4.13a.64.64,0,0,1,.63.64v4.12a.6.6,0,0,1-.06.27l0,.06-.05.07,0,.05,0,0-.07.06a.68.68,0,0,1-.35.1H22.36A.63.63,0,0,1,21.73,42.11Zm15.69-7.83V30.15a.64.64,0,0,1,.64-.63h4.12a.64.64,0,0,1,.64.63v4.13a.64.64,0,0,1-.07.27l0,.05a.22.22,0,0,1,0,.08l0,0,0,0-.07,0a.66.66,0,0,1-.36.11H38.06A.64.64,0,0,1,37.42,34.28Z"/></g></svg>