<svg id="Layer_1" data-name="Layer 1" xmlns="http://www.w3.org/2000/svg" viewBox="0 0 64 64"><defs><style>.cls-1{fill:#ffc425;}.cls-2{fill:#fff;}.cls-3{fill:none;stroke:#ffc425;stroke-miterlimit:10;}</style></defs><title>weekend_solid_yellow</title><circle class="cls-1" cx="32" cy="32" r="32"/><path class="cls-2" d="M20.62,20.58V14.39a.55.55,0,0,1,.55-.55h1.5a.55.55,0,0,1,.55.55v6.19a.5.5,0,0,1-.55.55h-1.5A.55.55,0,0,1,20.62,20.58Z"/><path class="cls-2" d="M40.73,20.58V14.39a.55.55,0,0,1,.55-.55h1.49a.55.55,0,0,1,.55.55v6.19a.52.52,0,0,1-.55.55H41.28A.55.55,0,0,1,40.73,20.58Z"/><path class="cls-2" d="M47.13,18.16h-2v3.51c0,1.3-1.68,2.35-3.12,2.35S38.93,23,38.93,21.67V18.16H25.07v3.51C25.07,23,23.38,24,22,24s-3.12-1-3.12-2.3V18.16h-2a2.48,2.48,0,0,0-2.6,2.35V47.82a2.48,2.48,0,0,0,2.6,2.34H47.13a2.48,2.48,0,0,0,2.6-2.34V20.51A2.48,2.48,0,0,0,47.13,18.16Z"/><path class="cls-3" d="M47.21,46.49a1.15,1.15,0,0,1-1.13,1.17L18.14,48A1.15,1.15,0,0,1,17,46.8l-.19-18.54a1.15,1.15,0,0,1,1.14-1.17l27.92-.29A1.15,1.15,0,0,1,47,28Z"/><path class="cls-1" d="M29,35v-4.6a.7.7,0,0,1,.71-.7h4.59a.7.7,0,0,1,.71.7V35a.64.64,0,0,1-.07.31l0,.06-.06.08,0,0,0,0-.08.06a.68.68,0,0,1-.4.12H29.73A.71.71,0,0,1,29,35Z"/><path class="cls-2" d="M38.78,35.81V32.74a.47.47,0,0,1,.47-.47h3.06a.48.48,0,0,1,.48.47v3.07a.46.46,0,0,1,0,.2l0,0,0,.06,0,0,0,0-.05,0a.5.5,0,0,1-.27.08H39.25A.47.47,0,0,1,38.78,35.81Z"/><path class="cls-1" d="M29,43.74l0-4.6a.7.7,0,0,1,.71-.7l4.6,0a.71.71,0,0,1,.71.71l0,4.6a.64.64,0,0,1-.07.31l0,.06-.06.08,0,.05,0,0-.08.07a.78.78,0,0,1-.4.12l-4.6,0A.71.71,0,0,1,29,43.74Z"/><path class="cls-1" d="M20.26,44.17v-4.6a.71.71,0,0,1,.71-.71h4.6a.71.71,0,0,1,.71.71v4.6a.73.73,0,0,1-.07.3l0,.06a.24.24,0,0,1-.06.09l0,.05,0,0-.08.06a.67.67,0,0,1-.39.12H21A.7.7,0,0,1,20.26,44.17Z"/><path class="cls-1" d="M37.77,35v-4.6a.71.71,0,0,1,.71-.71h4.6a.7.7,0,0,1,.7.71V35a.82.82,0,0,1-.07.31.21.21,0,0,1,0,.06l-.06.08,0,.05,0,0a.27.27,0,0,1-.08.07.75.75,0,0,1-.39.12h-4.6A.71.71,0,0,1,37.77,35Z"/><path class="cls-1" d="M20,35v-4.6a.7.7,0,0,1,.71-.7h4.59a.7.7,0,0,1,.71.7V35a.64.64,0,0,1-.07.31l0,.06-.06.08,0,0,0,0-.08.06a.68.68,0,0,1-.4.12H20.73A.71.71,0,0,1,20,35Z"/></svg>