<svg id="ASSETS" xmlns="http://www.w3.org/2000/svg" viewBox="0 0 64 64"><defs><style>.cls-1,.cls-2{fill:#606162;}.cls-2{stroke:#fff;stroke-miterlimit:10;}.cls-3{fill:#fff;}</style></defs><title>weekend</title><path class="cls-1" d="M14.27,13.79V4.62a.84.84,0,0,1,.86-.81h2.33a.84.84,0,0,1,.86.81v9.17c.08.49-.35.82-.86.82H15.13A.85.85,0,0,1,14.27,13.79Z"/><path class="cls-1" d="M45.6,13.79V4.62a.84.84,0,0,1,.86-.81h2.32a.84.84,0,0,1,.86.81v9.17a.79.79,0,0,1-.86.82H46.46A.84.84,0,0,1,45.6,13.79Z"/><path class="cls-1" d="M55.58,7.65H52.52v5.77c0,2.13-2.62,3.85-4.86,3.85s-4.86-1.72-4.86-3.85V7.65H21.2v5.77c0,2.13-2.62,3.85-4.86,3.85s-4.86-1.64-4.86-3.77V7.65H8.42a4,4,0,0,0-4,3.85V56.35a4,4,0,0,0,4,3.85H55.58a4,4,0,0,0,4-3.85V11.5A4,4,0,0,0,55.58,7.65Z"/><path class="cls-2" d="M55.55,54.63a1.75,1.75,0,0,1-1.79,1.7H10.24a1.75,1.75,0,0,1-1.79-1.7V27.41a1.76,1.76,0,0,1,1.8-1.72h43.5a1.76,1.76,0,0,1,1.8,1.72Z"/><path class="cls-3" d="M27.35,38.15V31.33a1.08,1.08,0,0,1,1.11-1h7.16a1.08,1.08,0,0,1,1.11,1v6.82a1,1,0,0,1-.11.45.41.41,0,0,0,0,.09.64.64,0,0,1-.1.13l-.07.07,0,0-.12.09a1.18,1.18,0,0,1-.62.18H28.46A1.08,1.08,0,0,1,27.35,38.15Z"/><path class="cls-3" d="M13.71,38.15V31.33a1.07,1.07,0,0,1,1.1-1H22a1.07,1.07,0,0,1,1.1,1v6.82a1,1,0,0,1-.11.45.41.41,0,0,1,0,.09.6.6,0,0,1-.09.13l-.07.07s0,0,0,0L22.6,39a1.18,1.18,0,0,1-.62.18H14.81A1.07,1.07,0,0,1,13.71,38.15Z"/><path class="cls-3" d="M27.35,51.1V44.29a1.08,1.08,0,0,1,1.11-1h7.16a1.08,1.08,0,0,1,1.11,1V51.1a1,1,0,0,1-.11.46.41.41,0,0,0,0,.09l-.1.12-.07.07,0,0-.12.09a1.1,1.1,0,0,1-.62.18H28.46A1.08,1.08,0,0,1,27.35,51.1Z"/><path class="cls-3" d="M13.71,51.1V44.29a1.07,1.07,0,0,1,1.1-1H22a1.07,1.07,0,0,1,1.1,1V51.1a1,1,0,0,1-.11.46.41.41,0,0,1,0,.09.94.94,0,0,1-.09.12l-.07.07,0,0L22.6,52a1.1,1.1,0,0,1-.62.18H14.81A1.07,1.07,0,0,1,13.71,51.1Z"/><path class="cls-3" d="M41,38.15V31.33a1.07,1.07,0,0,1,1.1-1h7.16a1.08,1.08,0,0,1,1.11,1v6.82a1,1,0,0,1-.11.45l0,.09-.09.13-.07.07,0,0-.13.09a1.16,1.16,0,0,1-.62.18H42.1A1.07,1.07,0,0,1,41,38.15Z"/></svg>