<svg xmlns="http://www.w3.org/2000/svg" viewBox="0 0 64 64"><defs><style>.cls-1{fill:#fff;}.cls-2{fill:#5f6062;}</style></defs><title>weekend_hollow</title><g id="ASSETS2"><circle class="cls-1" cx="32" cy="32" r="26.59"/><path class="cls-2" d="M32,6.91A25.09,25.09,0,1,1,6.91,32,25.12,25.12,0,0,1,32,6.91m0-3A28.09,28.09,0,1,0,60.09,32,28.09,28.09,0,0,0,32,3.91Z"/><path class="cls-2" d="M23.33,22.4V17.59c.05-.26.26-.43.48-.76H25c.25.33.43.55.1.76V22.4c.37.25.15.42-.1.5H23.81A.71.71,0,0,1,23.33,22.4Zm15.6,0V17.59c.07-.26.28-.43.49-.76h1.16c.26.33.43.55.09.76V22.4c.34.25.17.42-.09.5H39.42A.78.78,0,0,1,38.93,22.4Zm4.92-3H42.4v3c0,1.12-1.4,2-2.6,2s-2.6-.9-2.6-2v-3H26.8v3c0,1.12-1.4,2-2.6,2s-2.6-.86-2.6-2V19.43H20.15a2,2,0,0,0-2,2v23.7a2,2,0,0,0,2,2h23.7a2,2,0,0,0,2-2V21.45A2,2,0,0,0,43.85,19.43Zm-.61,25.14H21.62a.89.89,0,0,1-.89-.89V29a.9.9,0,0,1,.9-.9H43.24a.9.9,0,0,1,.9.9V43.68A.89.89,0,0,1,43.24,44.57Zm-13-9.22V32.12a.54.54,0,0,1,.55-.55h3.23a.55.55,0,0,1,.55.55v3.27a.54.54,0,0,1-.05.22s0,0,0,0,0,.05-.05.06l0,0,0,0,0,0a.5.5,0,0,1-.29.09H30.82A.55.55,0,0,1,30.27,35.35Zm-6.94,0V32.12a.55.55,0,0,1,.55-.55h3.24a.55.55,0,0,1,.55.55v3.27a.54.54,0,0,1-.05.22l0,0a.15.15,0,0,1,0,.06l0,0,0,0-.06,0a.47.47,0,0,1-.28.09H23.88A.55.55,0,0,1,23.33,35.35Zm6.94,6.07V38.19a.55.55,0,0,1,.55-.56h3.23a.56.56,0,0,1,.55.56v3.27a.54.54,0,0,1-.05.22s0,0,0,0l-.05.06,0,0,0,0,0,0a.5.5,0,0,1-.29.09H30.82A.55.55,0,0,1,30.27,41.42Zm-6.94,0V38.19a.56.56,0,0,1,.55-.56h3.24a.56.56,0,0,1,.55.56v3.27a.54.54,0,0,1-.05.22l0,0,0,.06,0,0,0,0-.06,0a.47.47,0,0,1-.28.09H23.88A.55.55,0,0,1,23.33,41.42ZM37.2,35.35V32.12a.55.55,0,0,1,.55-.55H41a.55.55,0,0,1,.56.55v3.27a.43.43,0,0,1-.06.22.05.05,0,0,1,0,0,.15.15,0,0,1,0,.06l0,0,0,0-.06,0a.48.48,0,0,1-.29.09H37.75A.55.55,0,0,1,37.2,35.35Z"/></g></svg>