<svg id="Layer_1" data-name="Layer 1" xmlns="http://www.w3.org/2000/svg" viewBox="0 0 64 64"><defs><style>.cls-1{fill:#00844d;}.cls-2{fill:#fff;}.cls-3{fill:none;stroke:#00844d;stroke-miterlimit:10;}</style></defs><title>weekend_solid_green</title><circle class="cls-1" cx="31.89" cy="32.03" r="32"/><path class="cls-2" d="M20.51,19.6V13.42a.56.56,0,0,1,.56-.55h1.49a.55.55,0,0,1,.55.55V19.6a.5.5,0,0,1-.55.56H21.07A.56.56,0,0,1,20.51,19.6Z"/><path class="cls-2" d="M40.62,19.6V13.42a.55.55,0,0,1,.55-.55h1.49a.55.55,0,0,1,.55.55V19.6a.52.52,0,0,1-.55.56H41.17A.56.56,0,0,1,40.62,19.6Z"/><path class="cls-2" d="M47,17.19h-2V20.7c0,1.3-1.68,2.35-3.12,2.35S38.83,22,38.83,20.7V17.19H25V20.7c0,1.3-1.69,2.35-3.12,2.35s-3.12-1-3.12-2.3V17.19h-2a2.48,2.48,0,0,0-2.6,2.34V46.85a2.48,2.48,0,0,0,2.6,2.34H47a2.48,2.48,0,0,0,2.59-2.34V19.53A2.48,2.48,0,0,0,47,17.19Z"/><path class="cls-3" d="M47.1,45.52A1.15,1.15,0,0,1,46,46.69L18,47a1.17,1.17,0,0,1-1.16-1.15l-.19-18.54a1.15,1.15,0,0,1,1.14-1.17l27.93-.29A1.15,1.15,0,0,1,46.91,27Z"/><path class="cls-1" d="M28.91,34v-4.6a.71.71,0,0,1,.71-.71h4.6a.7.7,0,0,1,.7.71V34a.64.64,0,0,1-.07.31l0,.06-.06.08,0,0,0,0-.08.06a.67.67,0,0,1-.39.12h-4.6A.71.71,0,0,1,28.91,34Z"/><path class="cls-2" d="M38.67,34.84V31.77a.47.47,0,0,1,.47-.47H42.2a.47.47,0,0,1,.48.47v3.07a.46.46,0,0,1,0,.2s0,0,0,0l0,.06,0,0,0,0-.05,0a.5.5,0,0,1-.27.08H39.14A.47.47,0,0,1,38.67,34.84Z"/><path class="cls-1" d="M28.9,42.77l0-4.6a.71.71,0,0,1,.71-.71l4.6,0a.71.71,0,0,1,.71.71l0,4.6a.67.67,0,0,1-.07.31l0,.06-.06.08,0,0,0,0-.08.07a.69.69,0,0,1-.4.11l-4.6,0A.7.7,0,0,1,28.9,42.77Z"/><path class="cls-1" d="M20.15,43.19V38.6a.71.71,0,0,1,.71-.71h4.6a.71.71,0,0,1,.71.71v4.59a.78.78,0,0,1-.07.31l0,.06a.41.41,0,0,1,0,.09s0,0-.05.05l0,0-.08.06a.7.7,0,0,1-.4.12h-4.6A.71.71,0,0,1,20.15,43.19Z"/><path class="cls-1" d="M37.66,34v-4.6a.71.71,0,0,1,.71-.71H43a.71.71,0,0,1,.71.71v4.6a.73.73,0,0,1-.07.3l0,.06-.06.09-.05,0,0,0-.09.06a.65.65,0,0,1-.39.12h-4.6A.71.71,0,0,1,37.66,34Z"/><path class="cls-1" d="M19.91,34v-4.6a.71.71,0,0,1,.71-.71h4.6a.7.7,0,0,1,.7.71V34a.64.64,0,0,1-.07.31l0,.06-.06.08,0,0,0,0-.08.06a.67.67,0,0,1-.39.12h-4.6A.71.71,0,0,1,19.91,34Z"/></svg>