<svg id="Layer_1" data-name="Layer 1" xmlns="http://www.w3.org/2000/svg" viewBox="0 0 64 64"><defs><style>.cls-1{fill:#d52b1e;}.cls-2{fill:#fff;}.cls-3{fill:none;stroke:#d52b1e;stroke-miterlimit:10;}</style></defs><title>weekend_solid_red</title><circle class="cls-1" cx="31.76" cy="31.56" r="32"/><path class="cls-2" d="M20.38,20.13V14a.56.56,0,0,1,.55-.56h1.49A.56.56,0,0,1,23,14v6.18c.05.33-.22.55-.56.55H20.93A.55.55,0,0,1,20.38,20.13Z"/><path class="cls-2" d="M40.49,20.13V14a.55.55,0,0,1,.55-.56h1.49a.56.56,0,0,1,.55.56v6.18a.52.52,0,0,1-.55.55H41A.55.55,0,0,1,40.49,20.13Z"/><path class="cls-2" d="M46.89,17.72h-2v3.51c0,1.3-1.68,2.34-3.12,2.34s-3.12-1-3.12-2.34V17.72H24.82v3.51c0,1.3-1.68,2.34-3.11,2.34s-3.12-1-3.12-2.29V17.72h-2A2.48,2.48,0,0,0,14,20.06V47.38a2.48,2.48,0,0,0,2.59,2.34H46.89a2.48,2.48,0,0,0,2.6-2.34V20.06A2.48,2.48,0,0,0,46.89,17.72Z"/><path class="cls-3" d="M47,46.05a1.15,1.15,0,0,1-1.13,1.17l-27.94.29a1.15,1.15,0,0,1-1.16-1.15l-.19-18.54a1.16,1.16,0,0,1,1.14-1.18l27.92-.28a1.16,1.16,0,0,1,1.17,1.15Z"/><path class="cls-1" d="M28.78,34.57V30a.7.7,0,0,1,.7-.71h4.6a.71.71,0,0,1,.71.71v4.6a.67.67,0,0,1-.07.31l0,.06-.06.08a.12.12,0,0,1-.05,0l0,0-.08.07a.75.75,0,0,1-.4.12h-4.6A.7.7,0,0,1,28.78,34.57Z"/><path class="cls-2" d="M38.54,35.36V32.3a.47.47,0,0,1,.47-.47h3.06a.47.47,0,0,1,.47.47v3.06a.46.46,0,0,1,0,.21l0,0,0,0,0,0h0l0,0a.5.5,0,0,1-.27.08H39A.48.48,0,0,1,38.54,35.36Z"/><path class="cls-1" d="M28.76,43.3l0-4.6A.71.71,0,0,1,29.5,38l4.6,0a.7.7,0,0,1,.7.71l0,4.6a.73.73,0,0,1-.07.3l0,.06-.06.09,0,0,0,0-.08.06a.67.67,0,0,1-.39.12l-4.6,0A.71.71,0,0,1,28.76,43.3Z"/><path class="cls-1" d="M20,43.72v-4.6a.71.71,0,0,1,.71-.71h4.6a.7.7,0,0,1,.7.71v4.6A.64.64,0,0,1,26,44l0,.06-.06.08,0,0,0,0-.08.06a.67.67,0,0,1-.39.12h-4.6A.71.71,0,0,1,20,43.72Z"/><path class="cls-1" d="M37.53,34.57V30a.7.7,0,0,1,.71-.71h4.6a.7.7,0,0,1,.7.71v4.59a.78.78,0,0,1-.07.31l0,.06-.06.09,0,0,0,0-.08.06a.67.67,0,0,1-.39.12h-4.6A.72.72,0,0,1,37.53,34.57Z"/><path class="cls-1" d="M19.78,34.57V30a.7.7,0,0,1,.7-.71h4.6a.71.71,0,0,1,.71.71v4.6a.67.67,0,0,1-.07.31l0,.06-.06.08a.12.12,0,0,1-.05,0l0,0-.08.07a.75.75,0,0,1-.4.12h-4.6A.7.7,0,0,1,19.78,34.57Z"/></svg>