<svg id="ASSETS" xmlns="http://www.w3.org/2000/svg" viewBox="0 0 64 64"><defs><style>.cls-1{fill:#5f6062;}.cls-2{fill:#fff;}.cls-3{fill:none;stroke:#5f6062;stroke-miterlimit:10;}</style></defs><title>weekend_solid</title><circle class="cls-1" cx="32" cy="32" r="28.09"/><path class="cls-2" d="M22,22V16.54a.49.49,0,0,1,.48-.49h1.31a.49.49,0,0,1,.48.49V22c.05.29-.19.48-.48.48H22.5A.48.48,0,0,1,22,22Z"/><path class="cls-2" d="M39.66,22V16.54a.5.5,0,0,1,.49-.49h1.31a.49.49,0,0,1,.48.49V22a.45.45,0,0,1-.48.48H40.15A.49.49,0,0,1,39.66,22Z"/><path class="cls-2" d="M45.29,19.85H43.56v3.08c0,1.14-1.47,2.06-2.73,2.06s-2.74-.92-2.74-2.06V19.85H25.92v3.08c0,1.14-1.48,2.06-2.74,2.06s-2.74-.88-2.74-2V19.85H18.72a2.18,2.18,0,0,0-2.28,2.06v24a2.18,2.18,0,0,0,2.28,2.06H45.29a2.18,2.18,0,0,0,2.28-2.06v-24A2.18,2.18,0,0,0,45.29,19.85Z"/><path class="cls-3" d="M45.36,44.72a1,1,0,0,1-1,1L19.84,46a1,1,0,0,1-1-1l-.17-16.27a1,1,0,0,1,1-1l24.51-.25a1,1,0,0,1,1,1Z"/><path class="cls-1" d="M29.38,34.64v-4A.63.63,0,0,1,30,30h4a.63.63,0,0,1,.63.62v4a.6.6,0,0,1-.07.27.08.08,0,0,1,0,.05l-.06.08,0,0,0,0-.07.06a.68.68,0,0,1-.35.1H30A.62.62,0,0,1,29.38,34.64Z"/><path class="cls-2" d="M38,35.34V32.65a.41.41,0,0,1,.42-.41h2.69a.41.41,0,0,1,.41.41v2.69a.39.39,0,0,1,0,.18l0,0,0,.05,0,0v0l-.05,0a.39.39,0,0,1-.23.07H38.37A.41.41,0,0,1,38,35.34Z"/><path class="cls-1" d="M29.37,42.3l0-4a.61.61,0,0,1,.62-.61l4,0a.62.62,0,0,1,.62.62l0,4a.6.6,0,0,1-.07.27l0,0a.18.18,0,0,1-.05.07l0,.05,0,0-.07.05A.61.61,0,0,1,34,43l-4,0A.63.63,0,0,1,29.37,42.3Z"/><path class="cls-1" d="M21.7,42.68v-4a.62.62,0,0,1,.62-.62h4a.62.62,0,0,1,.62.62v4a.66.66,0,0,1-.06.27l0,0-.05.07,0,0,0,0-.08,0a.55.55,0,0,1-.34.11h-4A.62.62,0,0,1,21.7,42.68Z"/><path class="cls-1" d="M37.07,34.64v-4A.63.63,0,0,1,37.7,30h4a.62.62,0,0,1,.62.62v4a.66.66,0,0,1-.06.27l0,0,0,.07,0,.05,0,0-.08,0a.55.55,0,0,1-.34.11h-4A.62.62,0,0,1,37.07,34.64Z"/><path class="cls-1" d="M21.48,34.64v-4a.63.63,0,0,1,.63-.62h4a.63.63,0,0,1,.63.62v4a.6.6,0,0,1-.07.27.08.08,0,0,1,0,.05l-.06.08s0,0,0,0l0,0-.07.06a.68.68,0,0,1-.35.1h-4A.62.62,0,0,1,21.48,34.64Z"/></svg>