<svg height="64.628" viewBox="0 0 64.628 64.628" width="64.628" xmlns="http://www.w3.org/2000/svg"><g fill="#5f6062"><path d="m32.314 0c-17.847 0-32.314 14.467-32.314 32.314s14.467 32.314 32.314 32.314 32.314-14.468 32.314-32.314-14.468-32.314-32.314-32.314zm0 62.689c-16.749 0-30.375-13.626-30.375-30.375s13.626-30.375 30.375-30.375 30.375 13.626 30.375 30.375-13.626 30.375-30.375 30.375z"/><path d="m40.999 32.476c.076.087.146.142.217.183h.005l.141.045.141-.045h.005c.071-.041.146-.096.221-.183 0 0 4.207-4.73 4.631-8.829.022-.21.04-.425.04-.644 0-2.897-2.271-5.245-5.074-5.245-2.8 0-5.072 2.349-5.072 5.245 0 .224.019.439.044.654.432 4.094 4.701 8.819 4.701 8.819zm.326-12.846c1.799 0 3.262 1.513 3.262 3.373s-1.463 3.377-3.262 3.377c-1.797 0-3.259-1.517-3.259-3.377s1.462-3.373 3.259-3.373z"/><path d="m49.543 28.925c-.255-.24-1.999-.091-1.999-.091s-.01.037-.038.091c-.059.113-.197.302-.478.373-.116.029-.677.058-1.415.075-1.587 3.21-3.933 5.243-3.933 5.243-.086.1-.172.164-.254.211h-.005l-.162.053-.161-.053h-.005c-.082-.047-.162-.111-.25-.211 0 0-3.64-3.434-4.963-7.579-.872-.22-2.057-.672-2.057-.672h-15.011s-.032.329-.086.615c-.005.027-.011.052-.016.078-.025.12-.055.226-.088.286-.021.039-.045.059-.069.05-.022-.007-.055-.026-.093-.05-.229-.146-.696-.53-.784-.31-.028.07-.065.217-.013.346.139.344.528.796.528 1.094v5.094c0 .201.13.343.293.477.296.244.702.459.636.945-.002.011-.002.022-.003.034-.049.573.657 1.174 1.146 1.582.145.121.272.226.353.307.151.15.363.416.583.672.308.358.629.696.81.666.309-.051.876-.257 1.238.154.301.344 1.68.687 2.368.761h.396c.392-.052 1.413-.193 2.011 0 .22.072.383.188.435.371.061.213.172.42.297.608.299.448.683.782.683.782s.258-.412.412-.721c.012-.023.028-.044.046-.061.087-.084.241-.092.415 0 .265.139.577.507.777 1.193.041.138.095.267.161.388.227.424.582.748.908.978.417.294.788.434.788.434s0-.181.003-.434c.004-.286.012-.663.029-.978.005-.104.012-.201.02-.286.052-.566 1.754-1.081 2.063-1.132.31-.051 2.373.875 2.373.566 0-.259.328-.482.708-.73.073-.047.147-.095.221-.144.164-.109.367-.012.562.144.358.287.694.775.727.576.052-.309 1.032-.154 1.134.206.061.213.14.514.183.8.031.199.045.39.024.538-.015.101.053.264.16.441.274.454.812 1.008.924.897.068-.068.146-.455.177-.897.024-.332.02-.694-.034-.978-.038-.198-.1-.357-.195-.44-.183-.16-.326-.636-.391-1.142-.044-.342-.054-.696-.016-.978.031-.239.096-.425.202-.504.162-.121.738-.568 1.343-1.078.383-.323.778-.671 1.086-.978.447-.444.715-.803.511-.877-.333-.121-.381-.35-.343-.705.027-.249.095-.559.137-.941.001-.013.003-.024.005-.037.116-.857.721.175.975-.992.053-.245.192-.437.374-.59.696-.582 2.037-.584 1.792-.747-.076-.051-.13-.132-.162-.231-.101-.304.005-.771.317-1.004.16-.119.481-.339.803-.577.511-.379 1.026-.808.899-.966-.002-.007-.007-.011-.012-.015z"/></g></svg>