<svg height="64.628" viewBox="0 0 64.628 64.628" width="64.628" xmlns="http://www.w3.org/2000/svg"><g clip-rule="evenodd" fill="#5f6062" fill-rule="evenodd"><path d="m32.314 0c-17.847 0-32.314 14.467-32.314 32.314 0 17.846 14.467 32.314 32.314 32.314s32.314-14.468 32.314-32.314c0-17.847-14.468-32.314-32.314-32.314zm0 62.689c-16.749 0-30.375-13.626-30.375-30.375s13.626-30.375 30.375-30.375 30.375 13.626 30.375 30.375-13.626 30.375-30.375 30.375z"/><path d="m44.062 32.411c-4.904 0-8.88 3.975-8.88 8.88 0 4.904 3.975 8.88 8.88 8.88s8.88-3.975 8.88-8.88-3.975-8.88-8.88-8.88zm3.759 12.809c-.302.302-.79.302-1.092 0l-3.408-3.408v-6.639c0-.426.346-.772.772-.772s.772.346.772.772v5.68c0 .205.081.401.226.546l2.73 2.73c.302.3.302.789 0 1.091z"/><path d="m37.235 33.03c-.684-.937-1.046-2.029-1.214-3.117.323-.372.639-.764.941-1.174 1.928.623 4.237.805 6.216-.645-2.725-2.755-.538-6.132-2.504-12.217-1.674-5.173-8.531-4.919-9.416-3.101-3.637-1.299-6.381.44-7.391 5.92-1.161 6.294 1.089 6.959-1.635 9.712 2.092 1.208 4.009.913 5.672.245.328.447.669.876 1.02 1.279-.338 2.179-1.466 4.371-4.394 5.297-2.233.705-4.844 1.4-6.388 2.96-1.217 1.233-.407 9.369-.407 9.369h9.218 8.416c-1.276-1.764-2.03-3.93-2.03-6.269.002-3.318 1.519-6.29 3.896-8.259z"/></g></svg>