<svg height="64.628" viewBox="0 0 64.628 64.628" width="64.628" xmlns="http://www.w3.org/2000/svg"><g fill="#5f6062"><path d="m32.314 0c-17.847 0-32.314 14.467-32.314 32.314 0 17.846 14.467 32.314 32.314 32.314s32.314-14.468 32.314-32.314c0-17.847-14.468-32.314-32.314-32.314zm0 62.689c-16.749 0-30.375-13.626-30.375-30.375s13.626-30.375 30.375-30.375 30.375 13.626 30.375 30.375-13.626 30.375-30.375 30.375z"/><path d="m24.743 26.529h-6.548c-.326 0-.61.118-.847.351-.237.234-.357.513-.357.834v11.757c0 .32.12.598.357.833.239.234.521.352.847.352h6.548c.327 0 .609-.118.847-.352.239-.235.357-.513.357-.833v-11.757c0-.321-.118-.6-.357-.834-.238-.233-.519-.351-.847-.351z"/><path d="m46.848 24.352c-.173-.042-.347-.065-.519-.072-.163-.016-.325-.018-.485-.006-.025-.004-.051-.008-.078-.008h-7.435l2.462-6.554c.376-1.002-.003-2.131-.909-2.702-1.054-.665-2.448-.349-3.113.705l-5.392 8.551h-.004l-3.566 2.082c-.433.253-.699.716-.699 1.217v11.682c0 .675.478 1.255 1.14 1.383l7.028 1.366c.148.029.298.043.448.043h7.231v-.001c.018 0 .037-.002.055-.003 1.315.113 2.551-.745 2.869-2.068.2-.832-.007-1.666-.492-2.294.718-.339 1.282-.988 1.482-1.819.2-.832-.007-1.666-.492-2.294.718-.339 1.282-.988 1.482-1.819.2-.832-.007-1.666-.492-2.294.718-.339 1.282-.988 1.482-1.819.353-1.458-.545-2.925-2.003-3.276z"/></g></svg>