<svg height="64.628" viewBox="0 0 64.628 64.628" width="64.628" xmlns="http://www.w3.org/2000/svg"><g fill="#5f6062"><path d="m32.314 0c-17.847 0-32.314 14.467-32.314 32.314 0 17.846 14.467 32.314 32.314 32.314s32.314-14.468 32.314-32.314c0-17.847-14.468-32.314-32.314-32.314zm0 62.689c-16.749 0-30.375-13.626-30.375-30.375s13.626-30.375 30.375-30.375 30.375 13.626 30.375 30.375-13.626 30.375-30.375 30.375z"/><path d="m47.923 24.546v.988c0 1.441-1.173 2.612-2.615 2.612h-11.409c-1.442 0-2.615-1.172-2.615-2.612v-10.464c0-1.236.864-2.274 2.021-2.544.013-.262.065-.515.109-.77l-.226-.2c-.484-.427-1.21-.427-1.694 0l-18.135 15.985c-.531.468-.582 1.277-.114 1.808s1.278.582 1.808.114l1.482-1.307v15.558c0 .772.626 1.398 1.398 1.398h28.782c.772 0 1.398-.626 1.398-1.398v-15.584l1.512 1.333c.244.215.546.32.847.32.355 0 .708-.147.962-.434.468-.531.417-1.34-.114-1.808zm-19.144 17.517c0 .385-.312.696-.696.696h-5.641c-.385 0-.696-.312-.696-.696v-13.395c0-.385.312-.696.696-.696h5.641c.385 0 .696.312.696.696z"/><path d="m36.512 12.832c0-1.678 1.368-3.04 3.048-3.04h.078c1.683 0 3.049 1.365 3.049 3.04v.013h1.604v-.002-.013c0-1.239-.484-2.403-1.362-3.279s-2.046-1.356-3.289-1.356h-.078c-1.242 0-2.41.483-3.289 1.358-.878.876-1.362 2.04-1.362 3.279v.013h1.6v-.013z"/><path d="m32.899 15.07v10.464c0 .551.448.997 1 .997h11.408c.552 0 1-.447 1-.997v-10.464c0-.55-.448-.997-1-.997h-11.408c-.552 0-1 .447-1 .997zm5.015 3.12c.326-.584.948-.986 1.66-.995.74-.01 1.384.395 1.716.995.152.275.24.592.24.927 0 .778-.462 1.448-1.128 1.751v2.226c0 .275-.224.499-.5.499h-.6c-.276 0-.5-.223-.5-.499v-2.226c-.672-.305-1.138-.986-1.128-1.773.004-.327.09-.636.24-.905z"/></g></svg>