<svg enable-background="new 0 0 64.6 64.6" viewBox="0 0 64.6 64.6" xmlns="http://www.w3.org/2000/svg"><path d="m32.3 0c-17.8 0-32.3 14.5-32.3 32.3s14.5 32.3 32.3 32.3 32.3-14.4 32.3-32.3-14.4-32.3-32.3-32.3zm0 62.7c-16.7 0-30.4-13.6-30.4-30.4s13.7-30.3 30.4-30.3 30.4 13.6 30.4 30.4-13.6 30.3-30.4 30.3z"/><path d="m48.5 27.5-3.5-9.4c-.7-2-2.6-3.3-4.7-3.3h-15.8c-2.1 0-4 1.3-4.7 3.3l-3.4 9.2c-1 1.1-2.1 2.4-2.1 3.4v10.1.1 2.8c0 1.5 1.2 2.7 2.7 2.7h.8c1.5 0 2.7-1.2 2.7-2.7v-1.8h24.1v1.8c0 1.5 1.2 2.7 2.7 2.7h.8c1.5 0 2.7-1.2 2.7-2.7v-3-10c-.3-.8-1.3-2.1-2.3-3.2zm-28.4-3.1 2-5.4c.4-1 1.3-1.7 2.4-1.7h15.8c1.1 0 2 .7 2.4 1.7l2 5.4c.2.4-.2.9-.6.9h-23.3c-.5 0-.8-.5-.7-.9zm1.4 10.2c-1.4 0-2.5-1.2-2.5-2.5 0-1.4 1.2-2.5 2.5-2.5 1.4 0 2.5 1.2 2.5 2.5s-1.2 2.5-2.5 2.5zm21.7 0c-1.4 0-2.5-1.2-2.5-2.5 0-1.4 1.2-2.5 2.5-2.5 1.4 0 2.5 1.2 2.5 2.5s-1.2 2.5-2.5 2.5z"/></svg>