<svg height="64.628" viewBox="0 0 64.628 64.628" width="64.628" xmlns="http://www.w3.org/2000/svg"><g fill="#5f6062"><path d="m32.314 0c-17.847 0-32.314 14.467-32.314 32.314s14.467 32.314 32.314 32.314 32.314-14.468 32.314-32.314-14.468-32.314-32.314-32.314zm0 62.689c-16.749 0-30.375-13.626-30.375-30.375s13.626-30.375 30.375-30.375 30.375 13.626 30.375 30.375-13.626 30.375-30.375 30.375z"/><path d="m37.081 32.619c-.688-.942-1.052-2.04-1.22-3.134.325-.374.642-.768.946-1.18 1.939.626 4.261.81 6.252-.648-2.741-2.77-.541-6.167-2.518-12.286-1.683-5.202-8.579-4.947-9.469-3.119-3.658-1.306-6.417.442-7.433 5.954-1.167 6.33 1.096 6.998-1.644 9.767 2.104 1.215 4.032.918 5.704.246.33.449.672.881 1.026 1.286-.34 2.191-1.475 4.396-4.418 5.327-2.246.709-4.872 1.408-6.424 2.977-1.224 1.24-.409 9.422-.409 9.422h9.27 8.463c-1.283-1.774-2.041-3.953-2.041-6.305-.001-3.339 1.524-6.328 3.915-8.307z"/><path d="m43.947 31.997c-4.931 0-8.928 3.997-8.928 8.928s3.997 8.928 8.928 8.928 8.928-3.997 8.928-8.928-3.997-8.928-8.928-8.928zm-1.605 15.458c-2.477-.609-4.418-2.593-4.964-5.094.315-.077.643-.119.981-.119 2.276 0 4.129 1.852 4.129 4.129-.001.376-.052.739-.146 1.084zm1.605-4.68c-1.02 0-1.85-.83-1.85-1.85s.83-1.849 1.85-1.849 1.85.83 1.85 1.849-.83 1.85-1.85 1.85zm1.605 4.68c-.094-.346-.145-.709-.145-1.084 0-2.276 1.852-4.129 4.129-4.129.338 0 .666.042.981.119-.547 2.501-2.488 4.486-4.965 5.094zm-1.605-10.211c-2.436 0-4.693.779-6.536 2.101.713-2.948 3.372-5.144 6.536-5.144s5.823 2.196 6.536 5.144c-1.843-1.321-4.1-2.101-6.536-2.101z"/></g></svg>