<svg height="64.628" viewBox="0 0 64.628 64.628" width="64.628" xmlns="http://www.w3.org/2000/svg"><g fill="#5f6062"><path d="m32.314 0c-17.847 0-32.314 14.467-32.314 32.314 0 17.846 14.467 32.314 32.314 32.314s32.314-14.468 32.314-32.314c0-17.847-14.468-32.314-32.314-32.314zm0 62.689c-16.749 0-30.375-13.626-30.375-30.375s13.626-30.375 30.375-30.375 30.375 13.626 30.375 30.375-13.626 30.375-30.375 30.375z"/><circle cx="32.354" cy="44.024" r="2.486"/><path d="m32.314 15.598c-2.706 0-5.25 1.054-7.164 2.967s-2.967 4.458-2.967 7.164c0 1.143.927 2.07 2.07 2.07s2.07-.927 2.07-2.07c0-3.303 2.687-5.99 5.99-5.99s5.99 2.687 5.99 5.99c0 2.593-1.653 4.88-4.113 5.691l-.081.029c-.091.034-.909.35-1.735.927-1.784 1.248-2.146 2.654-2.131 3.624v1.943c0 1.143.927 2.07 2.07 2.07s2.07-.927 2.07-2.07v-1.864c.176-.219.707-.563 1.162-.746 1.984-.667 3.689-1.914 4.934-3.608 1.285-1.748 1.964-3.821 1.964-5.996 0-2.706-1.054-5.25-2.967-7.164-1.912-1.913-4.456-2.967-7.162-2.967z"/></g></svg>