<svg enable-background="new 0 0 64.6 64.6" viewBox="0 0 64.6 64.6" xmlns="http://www.w3.org/2000/svg"><path d="m32.3 0c-17.8 0-32.3 14.5-32.3 32.3s14.5 32.3 32.3 32.3 32.3-14.4 32.3-32.3-14.4-32.3-32.3-32.3zm0 62.7c-16.7 0-30.4-13.6-30.4-30.4s13.7-30.3 30.4-30.3 30.4 13.6 30.4 30.3-13.6 30.4-30.4 30.4z"/><path d="m52 27.1v-2.2c0-1-.8-1.7-1.7-1.7h-14.9l-9.7-4.3.6-1.8c.2-.6.8-1.1 1.5-1.1h3.7v-1.1h-4.2c-1.7 0-3.1 1.1-3.7 2.6l-2.6 7.8c-.8-.3-1.7-.4-2.6-.4-4.8 0-8.7 3.9-8.7 8.7s3.9 8.7 8.7 8.7 8.7-3.9 8.7-8.7c0-3.1-1.6-5.8-4-7.3l1.6-4.8 1.1 4.6 7.6 8.3h4.1c.4 4.4 4.1 7.9 8.7 7.9 4.8 0 8.7-3.9 8.7-8.7.1-2.6-1.1-4.9-2.9-6.5zm-27.8 6.5c0 3.2-2.6 5.8-5.8 5.8s-5.8-2.6-5.8-5.8 2.6-5.8 5.8-5.8c.6 0 1.1.1 1.6.2l-.9 2.8c-.2-.1-.5-.1-.7-.1-1.6 0-2.9 1.3-2.9 2.9s1.3 2.9 2.9 2.9 2.9-1.3 2.9-2.9c0-.5-.1-.9-.3-1.3l1.1-3.2c1.3 1.1 2.1 2.7 2.1 4.5zm13.6-1.9c-.3 0-.7-.1-1-.1-.2-1.5-1.5-2.7-3.1-2.7-.8 0-1.4.3-2 .7-.4-.2-.7-.5-.9-.7l-1.1-1.1h10.2c-1.1 1.1-1.8 2.4-2.1 3.9zm8.4 7.7c-2.9 0-5.4-2.2-5.8-5h3c.3 1.2 1.5 2.1 2.8 2.1s2.5-.9 2.8-2.1h1.9v-2h-2c-.5-1-1.5-1.7-2.6-1.7-1.2 0-2.2.7-2.6 1.7h-3c.6-2.6 2.9-4.6 5.7-4.6 3.2 0 5.8 2.6 5.8 5.8-.1 3.2-2.8 5.8-6 5.8z"/><path d="m21.3 19.7v-1.3c0-.9-.8-1.7-1.7-1.7h-2.2v4.7h2.2c.9 0 1.7-.8 1.7-1.7z"/></svg>