<svg height="64.628" viewBox="0 0 64.628 64.628" width="64.628" xmlns="http://www.w3.org/2000/svg"><g fill="#5f6062"><path d="m32.314 0c-17.847 0-32.314 14.467-32.314 32.314 0 17.846 14.467 32.314 32.314 32.314s32.314-14.468 32.314-32.314c0-17.847-14.468-32.314-32.314-32.314zm0 62.689c-16.749 0-30.375-13.626-30.375-30.375s13.626-30.375 30.375-30.375 30.375 13.626 30.375 30.375-13.626 30.375-30.375 30.375z"/><path d="m47.967 30.495c-1.43.792-3.058 1.27-4.788 1.339.604.468 1.004 1.196 1.004 1.993 0 1.358-1.165 2.523-2.523 2.523-1.36 0-2.525-1.165-2.525-2.523 0-.941.557-1.787 1.35-2.22-2.746-.584-5.109-2.211-6.655-4.446h-14.416c-.465 0-.788-.463-.627-.899l1.983-5.391c.363-.986 1.302-1.641 2.352-1.641h8.938c.146-.875.397-1.715.74-2.506h-9.678c-2.1 0-3.978 1.31-4.703 3.281l-3.366 9.147c-1.036 1.088-2.085 2.413-2.124 3.355h-.004v10.072c0 .05.003.099.01.148v2.829c0 1.467 1.189 2.657 2.657 2.657h.779c1.467 0 2.657-1.189 2.657-2.657v-1.807h23.915v1.807c0 1.467 1.189 2.657 2.657 2.657h.779c1.467 0 2.657-1.189 2.657-2.657v-2.976-10.072h-.006c-.029-.522-.474-1.257-1.063-2.013zm-27.859 5.854c-1.359 0-2.523-1.165-2.523-2.523 0-1.36 1.164-2.524 2.523-2.524 1.36 0 2.523 1.164 2.523 2.524 0 1.358-1.162 2.523-2.523 2.523z"/><path d="m42.739 12.053c-4.951 0-8.964 4.013-8.964 8.964s4.013 8.964 8.964 8.964 8.964-4.013 8.964-8.964c-.001-4.951-4.014-8.964-8.964-8.964zm5.508 6.394-6.426 6.475c-.155.156-.366.244-.586.244h-.006c-.222-.001-.434-.092-.588-.252l-3.126-3.237c-.317-.328-.308-.851.021-1.167.328-.317.851-.308 1.167.02l2.54 2.631 5.832-5.877c.321-.324.844-.326 1.168-.004.323.321.325.843.004 1.167z"/></g></svg>