<svg enable-background="new 0 0 64.6 64.6" viewBox="0 0 64.6 64.6" xmlns="http://www.w3.org/2000/svg"><path d="m32.3 0c-17.8 0-32.3 14.5-32.3 32.3s14.5 32.3 32.3 32.3 32.3-14.4 32.3-32.3c0-17.8-14.4-32.3-32.3-32.3zm0 62.7c-16.7 0-30.4-13.6-30.4-30.4s13.7-30.3 30.4-30.3 30.4 13.6 30.4 30.3-13.6 30.4-30.4 30.4z"/><path d="m45.8 23.6v-8.5c0-.4-.3-.7-.7-.7h-3.3c-.4 0-.7.3-.7.7v4.4l-8-7c-.5-.4-1.2-.4-1.7 0l-18.1 16c-.5.5-.6 1.3-.1 1.8s1.3.6 1.8.1l1.5-1.3v14.2c0 .8.6 1.4 1.4 1.4h17.7l1.1-2.4-2.2-7.4 5.8-4.1-2.7-5.8 4.6 5.8-5.6 4.4 2.4 6.9-1 2.6h8.6c.8 0 1.4-.6 1.4-1.4v-14.3l1.5 1.3c.2.2.5.3.8.3.4 0 .7-.1 1-.4.5-.5.4-1.3-.1-1.8zm-17 17.9c0 .4-.3.7-.7.7h-5.6c-.4 0-.7-.3-.7-.7v-12c0-.4.3-.7.7-.7h5.6c.4 0 .7.3.7.7z"/><path d="m15.1 47c0 .7.6 1.2 1.2 1.2h20.7l1.1-2.5h-21.8c-.7.1-1.2.6-1.2 1.3z"/><path d="m48.2 45.8h-7.7l-1 2.5h8.7c.7 0 1.2-.6 1.2-1.2s-.6-1.3-1.2-1.3z"/></svg>