<svg height="64.628" viewBox="0 0 64.628 64.628" width="64.628" xmlns="http://www.w3.org/2000/svg"><g clip-rule="evenodd" fill="#5f6062" fill-rule="evenodd"><path d="m32.314 0c-17.847 0-32.314 14.467-32.314 32.314s14.467 32.314 32.314 32.314 32.314-14.468 32.314-32.314-14.468-32.314-32.314-32.314zm0 62.689c-16.749 0-30.375-13.626-30.375-30.375s13.626-30.375 30.375-30.375 30.375 13.626 30.375 30.375-13.626 30.375-30.375 30.375z"/><path d="m43.838 34.961c-4.919-8.406-17.783 4.075 0 14.111 17.786-10.036 4.923-22.517 0-14.111z"/><path d="m33.135 35.7c.061-.233.133-.461.214-.683-.011-.006-.016-.009-.016-.009l-.025-3.053s1.187-.916 1.556-3.78c.746.218 1.528-1.112 1.567-1.81.042-.673-.1-2.537-1.006-2.35.181-1.408.319-2.671.251-3.338-.234-2.455-2.648-5.034-6.355-5.034-3.704 0-6.115 2.578-6.355 5.034-.061.668.073 1.93.257 3.338-.908-.187-1.053 1.676-1.014 2.35.047.699.824 2.028 1.57 1.81.371 2.864 1.562 3.78 1.562 3.78l-.031 3.053s-.754.458-3.931 1.782c-3.179 1.322-5.514 2.249-6.47 3.741-.861 1.335-.601 6.062-.601 6.062h22.949c-1.151-1.101-2.086-2.251-2.799-3.443-1.883-3.152-1.759-5.791-1.323-7.45z"/><path d="m37.524 20.496c.061.615.01 1.452-.111 2.545.954 1.151.895 3.038.871 3.433-.039.672-.322 1.437-.777 2.1-.296.432-.639.776-1.012 1.023-.197.856-.46 1.542-.734 2.085 1.111-.854 2.455-1.347 3.871-1.347 1.126 0 2.241.324 3.225.937.346.216.675.465.986.748.33-.298.678-.559 1.042-.781-.195-.061-.389-.121-.58-.18.003-.002.007-.005.011-.007-.034-.011-.068-.021-.102-.032-2.546-.804-3.518-2.712-3.809-4.604.28-.322.553-.662.814-1.016 1.669.539 3.669.697 5.383-.558-2.36-2.385-.466-5.309-2.168-10.578-1.449-4.479-7.387-4.259-8.152-2.685-2.411-.861-4.369-.18-5.547 2.316 1.614.247 3.1.915 4.285 1.944 1.425 1.237 2.338 2.935 2.504 4.657z"/></g></svg>