<svg height="64.628" viewBox="0 0 64.628 64.628" width="64.628" xmlns="http://www.w3.org/2000/svg"><g fill="#5f6062"><path d="m32.314 0c-17.847 0-32.314 14.467-32.314 32.314s14.467 32.314 32.314 32.314 32.314-14.468 32.314-32.314-14.468-32.314-32.314-32.314zm0 62.689c-16.749 0-30.375-13.626-30.375-30.375s13.626-30.375 30.375-30.375 30.375 13.626 30.375 30.375-13.626 30.375-30.375 30.375z"/><path d="m47.799 16.489h-30.971c-1.263 0-2.287 1.024-2.287 2.287v23.093c0 1.263 1.024 2.287 2.287 2.287h30.971c1.263 0 2.287-1.024 2.287-2.287v-23.093c.001-1.263-1.023-2.287-2.287-2.287zm-18.638 17.857c0 .544-.458 1.002-1.002 1.002h-8.047c-.544 0-1.002-.458-1.002-1.002v-8.047c0-.544.458-1.002 1.002-1.002h8.047c.544 0 1.002.458 1.002 1.002zm15.141-1.983h-9.535c-.589 0-1.067-.478-1.067-1.067s.478-1.067 1.067-1.067h9.535c.589 0 1.067.478 1.067 1.067s-.478 1.067-1.067 1.067zm0-4.98h-9.535c-.589 0-1.067-.478-1.067-1.067s.478-1.067 1.067-1.067h9.535c.589 0 1.067.478 1.067 1.067 0 .59-.478 1.067-1.067 1.067z"/></g></svg>