<svg height="64.628" viewBox="0 0 64.628 64.628" width="64.628" xmlns="http://www.w3.org/2000/svg"><g fill="#5f6062"><path d="m32.314 0c-17.847 0-32.314 14.467-32.314 32.314s14.467 32.314 32.314 32.314 32.314-14.468 32.314-32.314-14.468-32.314-32.314-32.314zm0 62.689c-16.749 0-30.375-13.626-30.375-30.375s13.626-30.375 30.375-30.375 30.375 13.626 30.375 30.375-13.626 30.375-30.375 30.375z"/><path d="m37.22 32.438-.02-2.423s1.364-1.052 1.788-4.342c.857.25 1.755-1.277 1.8-2.079.048-.773-.115-2.914-1.155-2.699.208-1.617.366-3.068.289-3.835-.269-2.821-3.042-5.783-7.3-5.783-4.256 0-7.025 2.962-7.301 5.783-.071.767.083 2.218.295 3.835-1.043-.215-1.21 1.926-1.165 2.699.054.802.947 2.33 1.804 2.079.427 3.29 1.794 4.342 1.794 4.342l-.036 3.508s-.867.526-4.515 2.047c-3.652 1.518-6.335 2.584-7.432 4.297-.989 1.534-.69 6.964-.69 6.964h19.944c-1.24-1.744-1.969-3.875-1.969-6.173-.001-3.303 1.506-6.26 3.869-8.22z"/><path d="m44.028 31.777c-4.905 0-8.881 3.976-8.881 8.881s3.976 8.88 8.881 8.88 8.88-3.976 8.88-8.88c.001-4.905-3.975-8.881-8.88-8.881zm-1.596 15.376c-2.463-.606-4.394-2.58-4.937-5.067.313-.076.639-.118.975-.118 2.264 0 4.107 1.842 4.107 4.107-.001.373-.052.734-.145 1.078zm1.596-4.656c-1.014 0-1.84-.825-1.84-1.84 0-1.014.825-1.84 1.84-1.84 1.014 0 1.84.825 1.84 1.84s-.825 1.84-1.84 1.84zm1.597 4.656c-.094-.344-.145-.705-.145-1.078 0-2.264 1.842-4.107 4.107-4.107.336 0 .663.041.975.118-.543 2.487-2.474 4.461-4.937 5.067zm-1.597-10.157c-2.423 0-4.668.775-6.501 2.09.709-2.932 3.354-5.117 6.501-5.117s5.792 2.185 6.501 5.117c-1.833-1.315-4.078-2.09-6.501-2.09z"/></g></svg>