<svg enable-background="new 0 0 64.6 64.6" viewBox="0 0 64.6 64.6" xmlns="http://www.w3.org/2000/svg"><path d="m32.3 0c-17.8 0-32.3 14.5-32.3 32.3s14.5 32.3 32.3 32.3 32.3-14.5 32.3-32.3-14.4-32.3-32.3-32.3zm0 62.7c-16.7 0-30.4-13.6-30.4-30.4s13.7-30.4 30.4-30.4 30.4 13.6 30.4 30.4-13.6 30.4-30.4 30.4zm-10.2-41.4v-5.5c0-.3.2-.5.5-.5h1.4c.3 0 .5.2.5.5v5.5c0 .3-.2.5-.5.5h-1.3c-.4 0-.6-.2-.6-.5zm18.5.5h1.3c.3 0 .5-.2.5-.5v-5.5c0-.2-.2-.5-.5-.5h-1.3c-.2 0-.5.2-.5.5v5.5c0 .3.2.5.5.5zm7.6-1.8v27c0 1.3-1 2.3-2.3 2.3h-27c-1.3 0-2.3-1-2.3-2.3v-27c0-1.3 1-2.3 2.3-2.3h1.8v3.5c0 1.3 1.5 2.3 2.8 2.3s2.8-1 2.8-2.3v-3.5h12.4v3.5c0 1.3 1.5 2.3 2.8 2.3s2.8-1 2.8-2.3v-3.5h1.8c1-.1 2.1 1 2.1 2.3zm-2.4 8.5h-27v17.8c0 .4.3.7.7.7h25.6c.4 0 .7-.3.7-.7zm-15.5 7.7h4.1c.1 0 .3 0 .4-.1 0 0 0 0 .1-.1s0 0 .1-.1c0 0 0 0 0-.1s.1-.2.1-.3v-4.1c0-.3-.3-.6-.6-.6h-4.1c-.3 0-.6.3-.6.6v4.1c-.2.4.1.7.5.7zm-7.8 0h4.1c.1 0 .3 0 .4-.1 0 0 0 0 .1-.1s0 0 .1-.1c0 0 0 0 0-.1s.1-.2.1-.3v-4.1c0-.3-.3-.6-.6-.6h-4.1c-.3 0-.6.3-.6.6v4.1c-.2.4.1.7.5.7zm15.6 0h4.1c.1 0 .3 0 .4-.1 0 0 0 0 .1-.1s0 0 .1-.1c0 0 0 0 0-.1s.1-.2.1-.3v-4.1c0-.3-.3-.6-.6-.6h-4.1c-.3 0-.6.3-.6.6v4.1c-.1.4.2.7.5.7zm-7.8 7.8h4.1c.1 0 .3 0 .4-.1 0 0 0 0 .1-.1s0 0 .1-.1c0 0 0 0 0-.1s.1-.2.1-.3v-4.1c0-.3-.3-.6-.6-.6h-4.1c-.3 0-.6.3-.6.6v4.1c-.2.4.1.7.5.7zm-7.8 0h4.1c.1 0 .3 0 .4-.1 0 0 0 0 .1-.1s0 0 .1-.1c0 0 0 0 0-.1s.1-.2.1-.3v-4.1c0-.3-.3-.6-.6-.6h-4.1c-.3 0-.6.3-.6.6v4.1c-.2.4.1.7.5.7z"/></svg>