<svg height="64.628" viewBox="0 0 64.628 64.628" width="64.628" xmlns="http://www.w3.org/2000/svg"><g clip-rule="evenodd" fill="#5f6062" fill-rule="evenodd"><path d="m32.314 0c-17.847 0-32.314 14.467-32.314 32.314s14.467 32.314 32.314 32.314 32.314-14.468 32.314-32.314-14.468-32.314-32.314-32.314zm0 62.689c-16.749 0-30.375-13.626-30.375-30.375s13.626-30.375 30.375-30.375 30.375 13.626 30.375 30.375-13.626 30.375-30.375 30.375z"/><path d="m24.993 37.704c-.217.107-.452-.109-.363-.334l1.299-3.272c-.457.283-.979.526-1.577.715-2.243.708-4.867 1.407-6.417 2.974-1.223 1.239-.409 9.412-.409 9.412h9.261 4.184l-2.632-10.543z"/><path d="m35.895 29.47c.325-.373.642-.768.945-1.179 1.937.626 4.257.809 6.245-.648-2.738-2.768-.54-6.16-2.516-12.274-1.682-5.197-8.571-4.942-9.459-3.115-3.654-1.305-6.411.442-7.425 5.948-1.166 6.324 1.095 6.991-1.643 9.758 2.102 1.214 4.028.917 5.699.246.33.449.672.88 1.025 1.285-.144.925-.43 1.853-.934 2.686l4.482 7.39 4.5-7.421c-.496-.831-.778-1.755-.919-2.676z"/><path d="m40.421 34.858c.004-.003.008-.006.012-.008-.04-.012-.08-.025-.119-.037-.639-.202-1.193-.464-1.672-.773l1.322 3.33c.089.225-.146.441-.363.334l-3.315-1.039-2.63 10.533h4.184 9.261s.814-8.174-.409-9.412c-1.517-1.533-4.061-2.235-6.271-2.928z"/></g></svg>