<svg enable-background="new 0 0 64.6 64.6" viewBox="0 0 64.6 64.6" xmlns="http://www.w3.org/2000/svg"><path d="m32.3 0c-17.8 0-32.3 14.5-32.3 32.3s14.5 32.3 32.3 32.3 32.3-14.5 32.3-32.3-14.4-32.3-32.3-32.3zm0 62.7c-16.7 0-30.4-13.6-30.4-30.4s13.7-30.4 30.4-30.4 30.4 13.6 30.4 30.4-13.6 30.4-30.4 30.4z" fill="#5f6062"/><path d="m29.6 35.6s-1.9.5-5.5 2-6.3 2.6-7.4 4.3c-1 1.5-.7 6.9-.7 6.9h34s.3-5.4-.7-6.9c-1.1-1.7-3.5-2.8-7.1-4.3s-5.5-2-5.5-2-1.6 1.2-3.7 1.2-3.4-1.2-3.4-1.2zm10.5-10.9c.2-1.6.4-3 .3-3.8-.3-2.8-3-5.7-7.2-5.7s-7 2.9-7.2 5.7c-.1.8.1 2.2.3 3.8l.6 4.7c.4 3.3 4.5 5.9 6.1 5.9 1.7 0 6-2.6 6.5-5.9z" fill="#5d5d5d"/></svg>