<svg height="64.628" viewBox="0 0 64.628 64.628" width="64.628" xmlns="http://www.w3.org/2000/svg"><g fill="#5f6062"><path d="m32.314 0c-17.847 0-32.314 14.467-32.314 32.314s14.467 32.314 32.314 32.314 32.314-14.468 32.314-32.314-14.468-32.314-32.314-32.314zm0 62.689c-16.749 0-30.375-13.626-30.375-30.375s13.626-30.375 30.375-30.375 30.375 13.626 30.375 30.375-13.626 30.375-30.375 30.375z"/><path d="m47.705 16.489h-30.877c-1.259 0-2.28 1.021-2.28 2.28v23.023c0 1.259 1.021 2.28 2.28 2.28h30.877c1.259 0 2.28-1.021 2.28-2.28v-23.023c0-1.259-1.021-2.28-2.28-2.28zm-4.527 23.169h-5.204c-1.331 0-2.42-1.089-2.42-2.421 0-1.331 1.089-2.421 2.42-2.421h5.204c1.331 0 2.421 1.089 2.421 2.421-.001 1.332-1.09 2.421-2.421 2.421zm5.692-12.363c0 .176-.144.319-.319.319h-32.55c-.176 0-.319-.144-.319-.319v-5.43c0-.176.144-.319.319-.319h32.55c.176 0 .319.144.319.319z"/></g></svg>