<svg enable-background="new 0 0 64.628 64.628" height="64.628" viewBox="0 0 64.628 64.628" width="64.628" xmlns="http://www.w3.org/2000/svg"><g fill="#5f6062"><path d="m32.314 0c-17.847 0-32.314 14.467-32.314 32.314s14.467 32.314 32.314 32.314 32.314-14.468 32.314-32.314-14.468-32.314-32.314-32.314zm0 62.689c-16.749 0-30.375-13.626-30.375-30.375s13.626-30.375 30.375-30.375 30.375 13.626 30.375 30.375-13.626 30.375-30.375 30.375z"/><path d="m46.875 29.905c-1.104 0-1.999.895-1.999 1.999v10.666c0 .52-.421.941-.941.941h-22.037c-.52 0-.941-.421-.941-.941v-22.036c0-.52.421-.941.941-.941h10.665c1.104 0 1.999-.895 1.999-1.999s-.895-1.999-1.999-1.999h-14.664c-.52 0-.941.421-.941.941v30.034c0 .52.421.941.941.941h30.034c.52 0 .941-.421.941-.941v-14.665c0-1.105-.895-2-1.999-2z"/><path d="m50.313 13.241h-10.988c-1.169 0-2.117.948-2.117 2.117s.948 2.117 2.117 2.117h4.701l-9.916 9.915c-.827.827-.827 2.167 0 2.994s2.167.827 2.994 0l9.916-9.916v4.701c0 1.169.948 2.117 2.117 2.117s2.117-.948 2.117-2.117v-10.988c0-.519-.422-.94-.941-.94z"/></g></svg>