<svg height="64.628" viewBox="0 0 64.628 64.628" width="64.628" xmlns="http://www.w3.org/2000/svg"><g fill="#5f6062"><path d="m32.314 0c-17.847 0-32.314 14.467-32.314 32.314s14.467 32.314 32.314 32.314 32.314-14.468 32.314-32.314-14.468-32.314-32.314-32.314zm0 62.689c-16.749 0-30.375-13.626-30.375-30.375s13.626-30.375 30.375-30.375 30.375 13.626 30.375 30.375-13.626 30.375-30.375 30.375z"/><path d="m38.149 16.271c-5.638 0-10.208 4.572-10.208 10.208 0 1.692.419 3.283 1.145 4.689l-12.607 12.606c-.133.133-.208.313-.208.501v3.136c0 .522.423.945.945.945h3.138c.188 0 .368-.075.501-.208l1.044-1.044c.133-.133.208-.313.208-.501v-1.913c0-.391.317-.709.708-.709h1.498c.391 0 .709-.317.709-.709v-1.503c0-.391.317-.709.708-.709h1.918c.188 0 .368-.075.501-.207l5.313-5.312c1.405.729 2.995 1.147 4.688 1.147 5.635 0 10.208-4.572 10.208-10.21-.001-5.636-4.574-10.208-10.209-10.207zm2.856 10.695c-1.846 0-3.343-1.497-3.343-3.342 0-1.846 1.497-3.342 3.343-3.342 1.844 0 3.342 1.496 3.342 3.341-.001 1.846-1.499 3.343-3.342 3.343z"/></g></svg>