<svg height="64.628" viewBox="0 0 64.628 64.628" width="64.628" xmlns="http://www.w3.org/2000/svg"><g fill="#5f6062"><path d="m32.314 0c-17.847 0-32.314 14.467-32.314 32.314 0 17.846 14.467 32.314 32.314 32.314s32.314-14.468 32.314-32.314c0-17.847-14.468-32.314-32.314-32.314zm0 62.689c-16.749 0-30.375-13.626-30.375-30.375s13.626-30.375 30.375-30.375 30.375 13.626 30.375 30.375-13.626 30.375-30.375 30.375z"/><path d="m46.139 34.259c-1.169 0-2.117.948-2.117 2.117v3.451h-23.416v-3.451c0-1.169-.948-2.117-2.117-2.117s-2.117.948-2.117 2.117v6.744c0 .52.421.941.941.941h30.001c.52 0 .941-.421.941-.941v-6.744c.001-1.169-.947-2.117-2.116-2.117z"/><path d="m31.681 35.75c.367.367.963.367 1.331 0l7.77-7.769c.827-.827.827-2.167 0-2.994s-2.167-.827-2.994 0l-3.324 3.324v-14.023c0-1.169-.948-2.117-2.117-2.117s-2.117.948-2.117 2.117v14.023l-3.324-3.324c-.827-.827-2.167-.827-2.994 0s-.827 2.167 0 2.994z"/></g></svg>