<svg height="64.628" viewBox="0 0 64.628 64.628" width="64.628" xmlns="http://www.w3.org/2000/svg"><g fill="#5f6062"><path d="m32.314 0c-17.847 0-32.314 14.467-32.314 32.314s14.467 32.314 32.314 32.314 32.314-14.468 32.314-32.314-14.468-32.314-32.314-32.314zm0 62.689c-16.749 0-30.375-13.626-30.375-30.375s13.626-30.375 30.375-30.375 30.375 13.626 30.375 30.375-13.626 30.375-30.375 30.375z"/><path d="m33.079 36.309c.53-2.016 1.808-3.645 3.441-4.563-.363-.723-.582-1.5-.701-2.276.324-.373.64-.766.943-1.177 1.933.625 4.249.807 6.234-.647-2.733-2.763-.539-6.149-2.511-12.252-1.679-5.188-8.555-4.933-9.442-3.11-3.647-1.302-6.399.441-7.412 5.937-1.164 6.312 1.093 6.979-1.64 9.74 2.098 1.212 4.02.916 5.689.246.329.448.671.879 1.023 1.283-.339 2.185-1.471 4.383-4.406 5.312-2.239.707-4.858 1.404-6.406 2.968-1.221 1.236-.408 9.396-.408 9.396h9.244 10.419c-1.123-1.085-2.038-2.215-2.739-3.387-1.889-3.16-1.765-5.806-1.328-7.47z"/><path d="m43.812 35.567c-4.933-8.43-17.833 4.086 0 14.151 17.837-10.064 4.937-22.58 0-14.151z"/></g></svg>