<svg height="64.628" viewBox="0 0 64.628 64.628" width="64.628" xmlns="http://www.w3.org/2000/svg"><g fill="#5f6062"><path d="m32.314 0c-17.847 0-32.314 14.467-32.314 32.314 0 17.846 14.467 32.314 32.314 32.314s32.314-14.468 32.314-32.314c0-17.847-14.468-32.314-32.314-32.314zm0 62.689c-16.749 0-30.375-13.626-30.375-30.375s13.626-30.375 30.375-30.375 30.375 13.626 30.375 30.375-13.626 30.375-30.375 30.375z"/><path d="m44.568 13.902h-24.976c-1.439 0-2.606 1.167-2.606 2.606v30.209c0 1.439 1.167 2.606 2.606 2.606h24.977c1.439 0 2.606-1.167 2.606-2.606v-30.209c0-1.44-1.167-2.606-2.607-2.606zm-19.784 10.748h13.167c.576 0 1.042.467 1.042 1.042s-.467 1.042-1.042 1.042h-13.167c-.576 0-1.042-.467-1.042-1.042s.467-1.042 1.042-1.042zm10.562 14.23h-10.562c-.576 0-1.042-.467-1.042-1.042 0-.576.467-1.042 1.042-1.042h10.561c.576 0 1.042.467 1.042 1.042.001.575-.466 1.042-1.041 1.042zm5.733-6.098h-16.295c-.576 0-1.042-.467-1.042-1.042s.467-1.043 1.042-1.043h16.295c.576 0 1.042.467 1.042 1.043s-.466 1.042-1.042 1.042z"/></g></svg>