<svg enable-background="new 0 0 64.6 64.6" viewBox="0 0 64.6 64.6" xmlns="http://www.w3.org/2000/svg"><path d="m32.3 0c-17.8 0-32.3 14.5-32.3 32.3s14.5 32.3 32.3 32.3 32.3-14.4 32.3-32.3-14.4-32.3-32.3-32.3zm0 62.7c-16.7 0-30.4-13.6-30.4-30.4s13.7-30.3 30.4-30.3 30.4 13.6 30.4 30.3-13.6 30.4-30.4 30.4z"/><path d="m45.8 22.8v-8.5c0-.4-.3-.7-.7-.7h-3.3c-.4 0-.7.3-.7.7v4.4l-8-7c-.5-.4-1.2-.4-1.7 0l-18.1 16c-.5.5-.6 1.3-.1 1.8s1.3.6 1.8.1l1.5-1.3v15.5c0 .8.6 1.4 1.4 1.4h28.7c.8 0 1.4-.6 1.4-1.4v-15.6l1.5 1.3c.2.2.5.3.8.3.4 0 .7-.1 1-.4.5-.5.4-1.3-.1-1.8zm-17 19.5c0 .2-.2.4-.4.4h-6.1c-.2 0-.4-.2-.4-.4v-13.8c0-.2.2-.4.4-.4h6c.2 0 .4.2.4.4zm14.2-6c0 .2-.2.4-.4.4h-8c-.2 0-.4-.2-.4-.4v-7.8c0-.2.2-.4.4-.4h8c.2 0 .4.2.4.4z"/></svg>