<svg height="64.628" viewBox="0 0 64.628 64.628" width="64.628" xmlns="http://www.w3.org/2000/svg"><g fill="#5f6062"><path d="m32.314 0c-17.847 0-32.314 14.467-32.314 32.314s14.467 32.314 32.314 32.314 32.314-14.468 32.314-32.314-14.468-32.314-32.314-32.314zm0 62.689c-16.749 0-30.375-13.626-30.375-30.375s13.626-30.375 30.375-30.375 30.375 13.626 30.375 30.375-13.626 30.375-30.375 30.375z"/><path d="m26.907 14.954c-.847-.847-2.221-.847-3.069 0l-.176.176c-.847.847-.847 2.221 0 3.069l13.313 13.313c.424.424.424 1.111 0 1.534l-13.314 13.314c-.847.847-.847 2.221 0 3.069l.176.176c.847.847 2.221.847 3.069 0l16.558-16.558c.424-.424.424-1.111 0-1.534z"/></g></svg>