<svg height="64.628" viewBox="0 0 64.628 64.628" width="64.628" xmlns="http://www.w3.org/2000/svg"><g fill="#5f6062"><path d="m32.314 0c-17.847 0-32.314 14.467-32.314 32.314s14.467 32.314 32.314 32.314 32.314-14.468 32.314-32.314-14.468-32.314-32.314-32.314zm0 62.689c-16.749 0-30.375-13.626-30.375-30.375s13.626-30.375 30.375-30.375 30.375 13.626 30.375 30.375-13.626 30.375-30.375 30.375z"/><path d="m32.762 16.271c-6.011 0-10.888 5.041-10.888 11.26 0 .481.04.941.095 1.404.929 8.788 10.092 18.932 10.092 18.932.163.186.314.304.467.393h.01l.302.097.303-.097h.01c.152-.089.313-.207.475-.393 0 0 9.031-10.153 9.941-18.953.046-.451.085-.912.085-1.383 0-6.219-4.876-11.26-10.892-11.26zm0 18.509c-3.857 0-6.997-3.256-6.997-7.249s3.14-7.241 6.997-7.241c3.862 0 7.002 3.248 7.002 7.241 0 3.994-3.14 7.249-7.002 7.249z"/></g></svg>