<svg height="64.628" viewBox="0 0 64.628 64.628" width="64.628" xmlns="http://www.w3.org/2000/svg"><g fill="#5f6062"><path d="m32.314 0c-17.847 0-32.314 14.467-32.314 32.314s14.467 32.314 32.314 32.314 32.314-14.468 32.314-32.314-14.468-32.314-32.314-32.314zm0 62.689c-16.749 0-30.375-13.626-30.375-30.375s13.626-30.375 30.375-30.375 30.375 13.626 30.375 30.375-13.626 30.375-30.375 30.375z"/><path d="m41.738 36.243c-3.645-1.52-4.514-2.047-4.514-2.047l-.029-3.507s1.363-1.052 1.787-4.341c.856.25 1.755-1.277 1.8-2.079.048-.773-.115-2.913-1.155-2.698.209-1.617.366-3.067.289-3.834-.269-2.82-3.041-5.781-7.299-5.781-4.255 0-7.023 2.961-7.299 5.781-.071.767.083 2.217.295 3.834-1.043-.215-1.209 1.925-1.165 2.698.055.802.946 2.329 1.803 2.079.426 3.289 1.794 4.341 1.794 4.341l-.036 3.507s-.866.526-4.514 2.047c-3.651 1.518-6.333 2.583-7.43 4.296-.988 1.534-.69 6.962-.69 6.962h34.236s.292-5.428-.687-6.962c-1.1-1.713-3.535-2.778-7.186-4.296z"/></g></svg>