<svg height="64.628" viewBox="0 0 64.628 64.628" width="64.628" xmlns="http://www.w3.org/2000/svg"><g fill="#5f6062"><path d="m32.314 0c-17.847 0-32.314 14.467-32.314 32.314s14.467 32.314 32.314 32.314 32.314-14.468 32.314-32.314-14.468-32.314-32.314-32.314zm0 62.689c-16.749 0-30.375-13.626-30.375-30.375s13.626-30.375 30.375-30.375 30.375 13.626 30.375 30.375-13.626 30.375-30.375 30.375z"/><path d="m45.242 13.902h-25.144c-1.449 0-2.624 1.175-2.624 2.624v30.412c0 1.449 1.175 2.624 2.624 2.624h25.145c1.449 0 2.624-1.175 2.624-2.624v-30.413c-.001-1.449-1.176-2.623-2.625-2.623zm-4.562 24.097c0 .58-.47 1.05-1.05 1.05h-9.583c-.58 0-1.049-.47-1.049-1.05s.47-1.05 1.049-1.05h9.583c.58 0 1.05.47 1.05 1.05zm0-6.14c0 .58-.47 1.05-1.05 1.05h-9.583c-.58 0-1.049-.47-1.049-1.05s.47-1.05 1.049-1.05h9.583c.58.001 1.05.471 1.05 1.05zm0-6.087c0 .58-.47 1.05-1.05 1.05h-9.583c-.58 0-1.049-.47-1.049-1.05s.47-1.05 1.049-1.05h9.583c.58.001 1.05.471 1.05 1.05zm-13.794-.032c0 .713-.578 1.291-1.291 1.291s-1.291-.578-1.291-1.291.578-1.291 1.291-1.291 1.291.578 1.291 1.291zm0 6.14c0 .713-.578 1.291-1.291 1.291s-1.291-.578-1.291-1.291.578-1.291 1.291-1.291 1.291.578 1.291 1.291zm0 6.192c0 .713-.578 1.291-1.291 1.291s-1.291-.578-1.291-1.291.578-1.291 1.291-1.291 1.291.578 1.291 1.291z"/></g></svg>