<svg viewBox="0 0 64 64" xmlns="http://www.w3.org/2000/svg"><path d="m32 3.42a28.58 28.58 0 1 1 -28.58 28.58 28.57 28.57 0 0 1 28.58-28.58m0-3.42a32 32 0 1 0 32 32 32 32 0 0 0 -32-32z" fill="#ffc425"/><circle cx="32" cy="32" fill="#ffffff" r="30"/><path d="m50.18 32.05c-.06-.8-1.08-2.11-2.1-3.24l-3.51-9.46a5.07 5.07 0 0 0 -4.76-3.35h-16a5 5 0 0 0 -4.76 3.35l-3.4 9.3c-1.08 1.13-2.1 2.43-2.16 3.4v13.32a2.72 2.72 0 0 0 2.72 2.72h.79a2.72 2.72 0 0 0 2.73-2.72v-1.82h24.33v1.82a2.72 2.72 0 0 0 2.72 2.72h.68a2.72 2.72 0 0 0 2.72-2.72v-3zm-30.78-6.36 2-5.49a2.5 2.5 0 0 1 2.38-1.64h16a2.54 2.54 0 0 1 2.38 1.64l2 5.5a.66.66 0 0 1 -.39.86.64.64 0 0 1 -.24.05h-23.53a.67.67 0 0 1 -.67-.67.74.74 0 0 1 .07-.25zm1.36 10.31a2.55 2.55 0 0 1 -.15-5.1h.15a2.55 2.55 0 0 1 .14 5.1zm19.33-2.6a2.55 2.55 0 1 1 2.55 2.6 2.61 2.61 0 0 1 -2.55-2.6z" fill="#ffc425"/></svg>