<svg enable-background="new 0 0 64.6 64.6" viewBox="0 0 64.6 64.6" xmlns="http://www.w3.org/2000/svg"><path d="m32.3 0c-17.8 0-32.3 14.5-32.3 32.3s14.5 32.3 32.3 32.3 32.3-14.4 32.3-32.3-14.4-32.3-32.3-32.3zm0 62.7c-16.7 0-30.4-13.6-30.4-30.4s13.7-30.3 30.4-30.3 30.4 13.6 30.4 30.3-13.6 30.4-30.4 30.4z"/><path d="m47 23.9c-.3.3-.5.5-.9.7-1.2.9-2.7 1.3-4.4 1.3-1.2 0-2.5-.2-3.8-.6-.4.6-1 1.4-1.4 2.4-.3.7-1.1 1.2-1.9 1.2-.9 0-1.8-.5-2.3-1.2-.4-.6-.5-1.3-.2-1.9.4-.9.8-1.7 1.4-2.4l-.2-2.1c-.3-3.5.8-5.9 2.4-7.4l-2.4-2.1c-.5-.4-1.2-.4-1.7 0l-18.2 15.8c-.5.5-.6 1.3-.1 1.8s1.3.6 1.8.1l1.5-1.3v15.5c0 .8.6 1.4 1.4 1.4h28.7c.8 0 1.4-.6 1.4-1.4v-15.5l1.5 1.3c.2.2.5.3.8.3.4 0 .7-.1 1-.4.5-.5.4-1.3-.1-1.8zm-18.2 18.2c0 .4-.3.7-.7.7h-5.6c-.4 0-.7-.3-.7-.7v-13.4c0-.4.3-.7.7-.7h5.6c.4 0 .7.3.7.7z"/><path d="m38.4 13.6c-3.9 2.3-3.7 6-3.6 7.4 5.1-6 12.7-5.7 12.7-5.7s-10.8 3.7-14 11.1c-.2.6 1.2 1.3 1.5.7 1-2.1 2.3-3.6 2.3-3.6 2 .7 5.5 1.6 7.9-.1 3.3-2.3 2.9-7.3 7.6-9.8 1.1-.7-9.1-3.1-14.4 0z"/></svg>