<svg height="64.628" viewBox="0 0 64.628 64.628" width="64.628" xmlns="http://www.w3.org/2000/svg"><g fill="#5f6062"><path d="m32.314 0c-17.847 0-32.314 14.467-32.314 32.314 0 17.846 14.467 32.314 32.314 32.314s32.314-14.468 32.314-32.314c0-17.847-14.468-32.314-32.314-32.314zm0 62.689c-16.749 0-30.375-13.626-30.375-30.375s13.626-30.375 30.375-30.375 30.375 13.626 30.375 30.375-13.626 30.375-30.375 30.375z"/><path d="m37.227 32.478-.02-2.424s1.364-1.053 1.788-4.344c.857.251 1.756-1.277 1.801-2.08.048-.774-.115-2.915-1.156-2.7.209-1.618.366-3.069.289-3.836-.269-2.822-3.043-5.784-7.303-5.784-4.257 0-7.027 2.963-7.303 5.784-.071.767.083 2.218.295 3.836-1.043-.215-1.21 1.926-1.165 2.7.055.803.947 2.331 1.804 2.08.427 3.291 1.795 4.344 1.795 4.344l-.036 3.509s-.867.527-4.517 2.048c-3.653 1.519-6.337 2.584-7.435 4.299-.989 1.534-.69 6.966-.69 6.966h19.951c-1.24-1.745-1.97-3.876-1.97-6.175.001-3.304 1.508-6.262 3.872-8.223z"/><path d="m44.038 31.853c-4.887 0-8.848 3.961-8.848 8.847 0 4.887 3.961 8.848 8.848 8.848 4.886 0 8.848-3.961 8.848-8.848-.001-4.886-3.962-8.847-8.848-8.847zm3.745 12.762c-.3.301-.787.301-1.088 0l-3.395-3.395v-6.615c0-.425.344-.769.769-.769s.769.344.769.769v5.659c0 .204.081.4.225.544l2.72 2.72c.301.3.301.787 0 1.087z"/></g></svg>