<svg height="64.628" viewBox="0 0 64.628 64.628" width="64.628" xmlns="http://www.w3.org/2000/svg"><path clip-rule="evenodd" d="m32.314 0c-17.847 0-32.314 14.467-32.314 32.314s14.467 32.314 32.314 32.314 32.314-14.468 32.314-32.314-14.468-32.314-32.314-32.314zm0 1.939c16.749 0 30.375 13.626 30.375 30.375 0 7.591-2.8 14.539-7.422 19.868l-.006-.001c.003-.004.007-.008.011-.012-1.881-1.791-5.03-3.152-9.356-4.951-5.292-2.208-6.554-2.972-6.554-2.972l-.042-5.092s1.98-1.528 2.595-6.303c1.243.364 2.548-1.854 2.613-3.018.07-1.122-.167-4.23-1.677-3.918.303-2.348.531-4.453.419-5.567-.391-4.095-4.416-8.394-10.597-8.394-6.177 0-10.197 4.299-10.598 8.394-.102 1.113.121 3.219.428 5.567-1.514-.312-1.756 2.795-1.691 3.918.079 1.165 1.374 3.382 2.618 3.018.619 4.775 2.604 6.303 2.604 6.303l-.052 5.092s-1.258.764-6.554 2.972c-4.49 1.867-7.964 3.264-9.893 5.158-4.723-5.356-7.598-12.378-7.598-20.064.002-16.747 13.628-30.373 30.377-30.373zm-22.777 50.439c.005.006.01.011.015.017-.005-.006-.01-.012-.015-.017z" fill="#5f6062" fill-rule="evenodd"/></svg>