<svg enable-background="new 0 0 64.6 64.6" viewBox="0 0 64.6 64.6" xmlns="http://www.w3.org/2000/svg"><path d="m32.3 0c-17.8 0-32.3 14.5-32.3 32.3s14.5 32.3 32.3 32.3 32.3-14.4 32.3-32.3c0-17.8-14.4-32.3-32.3-32.3zm0 62.7c-16.7 0-30.4-13.6-30.4-30.4s13.7-30.3 30.4-30.3 30.4 13.6 30.4 30.3-13.6 30.4-30.4 30.4z"/><path d="m48 24.6c-.6 1-1.4 1.9-2.4 2.6l-.9.6c-1.2.7-2.7 1.1-4.2 1.1-1.7 0-3.3-.5-4.6-1.3l-.3-.3c-2.2-1.6-3.7-4.1-3.7-7 0 0 0 0 0-.1 0 0 0 0 0-.1s0-.3 0-.4c0-2.4 1-4.8 2.7-6.8l-1.5-1.3c-.5-.4-1.2-.4-1.7 0l-18.1 16c-.5.5-.6 1.3-.1 1.8s1.3.6 1.8.1l1.5-1.3v15.5c0 .8.6 1.4 1.4 1.4h28.7c.8 0 1.4-.6 1.4-1.4v-15.6l1.5 1.3c.2.2.5.3.8.3.4 0 .7-.1 1-.4.5-.5.4-1.3-.1-1.8zm-19.2 17.4c0 .4-.3.7-.7.7h-5.6c-.4 0-.7-.3-.7-.7v-13.4c0-.4.3-.7.7-.7h5.6c.4 0 .7.3.7.7z"/><path d="m33.6 20.1c0 2 .8 3.8 2.2 5.1.2-.2.3-.4.5-.5 2.8-3 3.4-7.9 3.4-7.9 2.8 2.1 2.8 6.1 2.8 5.9 0-.3 2.4-4.5 2.3-3.5-.1.8-.8 2.7.7 6.1 1.4-1.3 2.2-3.1 2.2-5.1 0-.4 0-.9-.1-1.3-.2-.9-.5-1.9-1.2-3-2.7-4.6-1.7-5.9-1.6-6.9s-2.3 2.2-2.3 2.5 0-2.7-2.8-4.8c0 0-.5 3.9-3.4 6.9-1.7 1.8-2.7 4-2.7 6.2z"/></svg>