<svg height="64.628" viewBox="0 0 64.628 64.628" width="64.628" xmlns="http://www.w3.org/2000/svg"><g fill="#5f6062"><path d="m32.314 0c-17.847 0-32.314 14.467-32.314 32.314 0 17.846 14.467 32.314 32.314 32.314s32.314-14.468 32.314-32.314c0-17.847-14.468-32.314-32.314-32.314zm0 62.689c-16.749 0-30.375-13.626-30.375-30.375s13.626-30.375 30.375-30.375 30.375 13.626 30.375 30.375-13.626 30.375-30.375 30.375z"/><path d="m48.226 16.438h-26.874c-1.242 0-2.249 1.007-2.249 2.249v.225h-2.105c-1.343 0-2.432 1.089-2.432 2.432v22.238c0 1.863 1.51 3.374 3.374 3.374h8.664 21.623c1.242 0 2.249-1.007 2.249-2.249v-26.02c-.001-1.242-1.008-2.249-2.25-2.249zm-29.282 26.226c0 .584-.473 1.057-1.057 1.057s-1.057-.473-1.057-1.057v-20.051c0-.584.473-1.057 1.057-1.057s1.057.473 1.057 1.057zm4.872-17.635c0-.581.476-1.057 1.057-1.057h7.727c.582 0 1.057.476 1.057 1.057v6.6c0 .581-.476 1.057-1.057 1.057h-7.727c-.581 0-1.057-.476-1.057-1.057zm20.3 13.767h-19.295c-.594 0-1.075-.473-1.075-1.057s.481-1.057 1.075-1.057h19.296c.594 0 1.075.473 1.075 1.057s-.482 1.057-1.076 1.057zm.019-6.344h-6.27c-.584 0-1.057-.473-1.057-1.057s.473-1.057 1.057-1.057h6.27c.584 0 1.057.473 1.057 1.057s-.473 1.057-1.057 1.057zm0-6.343h-6.27c-.584 0-1.057-.473-1.057-1.057s.473-1.057 1.057-1.057h6.27c.584 0 1.057.473 1.057 1.057s-.473 1.057-1.057 1.057z"/></g></svg>