<svg height="64.53" viewBox="0 0 64.53 64.53" width="64.53" xmlns="http://www.w3.org/2000/svg"><g fill="#5f6062"><path d="m57.255 0h-49.98c-4.011 0-7.275 3.264-7.275 7.275v49.979c0 4.012 3.264 7.275 7.275 7.275h49.979c4.012 0 7.275-3.264 7.275-7.275v-49.979c.001-4.011-3.263-7.275-7.274-7.275zm5.377 57.255c0 2.965-2.413 5.378-5.378 5.378h-49.979c-2.965 0-5.378-2.413-5.378-5.378v-49.98c0-2.965 2.413-5.378 5.378-5.378h49.979c2.965 0 5.378 2.413 5.378 5.378z"/><path d="m45.531 20.295-16.961 20.096c-.348.413-.975.438-1.356.056l-7.071-7.105c-.854-.858-2.243-.862-3.101-.007-.859.854-.862 2.243-.008 3.101l10.446 10.495c.381.383 1.008.357 1.357-.056l20.046-23.752c.781-.926.664-2.309-.261-3.09-.926-.781-2.31-.663-3.091.262z"/></g></svg>