<svg enable-background="new 0 0 64.6 64.6" viewBox="0 0 64.6 64.6" xmlns="http://www.w3.org/2000/svg"><g fill="#5f6062"><path d="m55.2 9.5c-12.7-12.7-33.1-12.7-45.7 0s-12.6 33.1 0 45.7 33.1 12.6 45.7 0 12.6-33.1 0-45.7zm-44.4 44.3c-11.8-11.9-11.8-31.1 0-43s31.1-11.8 43 0 11.8 31.1 0 43-31.1 11.8-43 0z"/><path d="m54 32.3c0-1.3-1-2.3-2.3-2.3h-17v-17c0-1.3-1.1-2.4-2.4-2.4s-2.3 1.1-2.3 2.4v17h-17c-1.3 0-2.4 1.1-2.4 2.4s1.1 2.4 2.4 2.4h17v17c0 1.2 1 2.2 2.3 2.2s2.4-1.1 2.4-2.4v-17h17c1.3.1 2.3-1 2.3-2.3z"/></g></svg>