<svg enable-background="new 0 0 64.6 64.6" viewBox="0 0 64.6 64.6" xmlns="http://www.w3.org/2000/svg"><path d="m32.3 0c-17.8 0-32.3 14.5-32.3 32.3s14.5 32.3 32.3 32.3 32.3-14.4 32.3-32.3-14.4-32.3-32.3-32.3zm0 62.7c-16.7 0-30.4-13.6-30.4-30.4s13.7-30.3 30.4-30.3 30.4 13.6 30.4 30.4-13.6 30.3-30.4 30.3z"/><path d="m47.5 28.9-2.4-6.4v1c0 3.1-2.5 5.6-5.6 5.6-1.9 0-3.6-1-4.7-2.5h-15.7c-.5 0-.8-.5-.6-.9l2-5.5c.4-1 1.3-1.7 2.4-1.7h6.7l.2-1.3c.1-.4.1-.9.2-1.3h-7.2c-2.2 0-4.1 1.3-4.8 3.4l-3.5 9.4c-1.1 1.1-2.1 2.5-2.2 3.5v10.4.2 2.9c0 1.5 1.2 2.7 2.7 2.7h.8c1.5 0 2.7-1.2 2.7-2.7v-1.9h24.8v1.9c0 1.5 1.2 2.7 2.7 2.7h.8c1.5 0 2.7-1.2 2.7-2.7v-3.1-10.5c0-.8-1-2.1-2-3.2zm-27.7 7.2c-1.4 0-2.6-1.2-2.6-2.6s1.2-2.6 2.6-2.6 2.6 1.2 2.6 2.6-1.2 2.6-2.6 2.6zm22.2 0c-1.4 0-2.6-1.2-2.6-2.6s1.2-2.6 2.6-2.6 2.6 1.2 2.6 2.6-1.2 2.6-2.6 2.6z"/><path d="m43.2 23.5v-4.7c0-.6-.5-1.1-1.1-1.1s-1.1.5-1.1 1.1v4.7c0 .8-.7 1.5-1.5 1.5s-1.5-.7-1.5-1.5c0-.6-.5-1.1-1.1-1.1s-1.1.5-1.1 1.1c0 2.1 1.7 3.7 3.7 3.7s3.7-1.7 3.7-3.7z"/><path d="m43.2 8.4v-.7c0-.6-.5-1.1-1.1-1.1s-1.1.5-1.1 1.1v.7c-4.8.5-8.6 4.2-9.3 9 .8-.6 1.9-.9 3-.9 1.5 0 2.8.6 3.7 1.6.9-1 2.2-1.6 3.7-1.6s2.8.6 3.7 1.6c.9-1 2.2-1.6 3.7-1.6 1.1 0 2.1.3 3 .9-.7-4.7-4.5-8.5-9.3-9z"/></svg>