<svg height="64.628" viewBox="0 0 64.628 64.628" width="64.628" xmlns="http://www.w3.org/2000/svg"><g fill="#5f6062"><path d="m32.314 0c-17.847 0-32.314 14.467-32.314 32.314 0 17.846 14.467 32.314 32.314 32.314s32.314-14.468 32.314-32.314c0-17.847-14.468-32.314-32.314-32.314zm0 62.689c-16.749 0-30.375-13.626-30.375-30.375s13.626-30.375 30.375-30.375 30.375 13.626 30.375 30.375-13.626 30.375-30.375 30.375z"/><path d="m48.85 31.048h-6.13c.946.373 1.643 1.311 1.643 2.366 0 1.366-1.171 2.537-2.537 2.537-1.368 0-2.54-1.171-2.54-2.537 0-1.056.698-1.993 1.645-2.366h-2.779c-1.646 0-2.984-1.337-2.984-2.982v-1.356h-15.716c-.468 0-.792-.465-.631-.904l1.995-5.422c.365-.991 1.309-1.65 2.366-1.65h11.987v-2.325c0-.066.003-.131.007-.195h-11.995c-2.113 0-4.001 1.317-4.731 3.3l-3.385 9.2c-1.042 1.094-2.097 2.427-2.137 3.374h-.004v10.13c0 .05.003.1.01.148v2.845c0 1.476 1.196 2.672 2.672 2.672h.784c1.476 0 2.672-1.196 2.672-2.672v-1.817h24.054v1.817c0 1.476 1.196 2.672 2.672 2.672h.784c1.476 0 2.672-1.196 2.672-2.672v-2.993-10.13h-.004c-.017-.292-.163-.65-.39-1.04zm-28.7 4.903c-1.367 0-2.537-1.171-2.537-2.537 0-1.368 1.17-2.538 2.537-2.538 1.368 0 2.537 1.17 2.537 2.538 0 1.366-1.169 2.537-2.537 2.537z"/><path d="m41.063 13.915c0-1.869 1.524-3.386 3.396-3.386h.087c1.875 0 3.397 1.52 3.397 3.386v.015h1.787v-.002-.015c0-1.38-.539-2.677-1.518-3.653s-2.28-1.511-3.664-1.511h-.087c-1.384 0-2.685.538-3.664 1.513-.979.976-1.517 2.273-1.517 3.653v.015h1.783z"/><path d="m50.862 15.297h-12.709c-.615 0-1.114.498-1.114 1.111v11.658c0 .614.499 1.111 1.114 1.111h12.709c.615 0 1.115-.498 1.115-1.111v-11.658c0-.613-.5-1.111-1.115-1.111zm-5.464 7.571v2.48c0 .307-.249.556-.557.556h-.668c-.308 0-.557-.249-.557-.556v-2.48c-.749-.34-1.268-1.098-1.257-1.975.005-.365.101-.709.268-1.009.363-.651 1.056-1.098 1.849-1.109.825-.011 1.542.44 1.912 1.109.169.307.268.66.268 1.033-.001.866-.516 1.613-1.258 1.951z"/></g></svg>