<svg height="64.628" viewBox="0 0 64.628 64.628" width="64.628" xmlns="http://www.w3.org/2000/svg"><g fill="#5f6062"><path d="m32.314 0c-17.847 0-32.314 14.467-32.314 32.314s14.467 32.314 32.314 32.314 32.314-14.468 32.314-32.314-14.468-32.314-32.314-32.314zm0 62.689c-16.749 0-30.375-13.626-30.375-30.375s13.626-30.375 30.375-30.375 30.375 13.626 30.375 30.375-13.626 30.375-30.375 30.375z"/><path d="m43.985 24.869c1.551-2.31.962-3.732-1.767-4.267.55-2.728-.538-3.816-3.265-3.266-.535-2.731-1.957-3.319-4.265-1.768-1.538-2.317-3.078-2.317-4.616 0-2.308-1.552-3.73-.963-4.266 1.768-2.726-.55-3.814.538-3.264 3.266-2.729.535-3.318 1.957-1.767 4.267-2.317 1.539-2.317 3.079 0 4.618-1.551 2.309-.962 3.732 1.767 4.267-.512 2.54.416 3.64 2.747 3.336v12.974c0 .617.717.957 1.194.566 1.524-1.249 4.088-3.357 5.145-4.266.274-.235.678-.235.952 0 1.057.908 3.621 3.017 5.145 4.266.477.391 1.194.051 1.194-.566v-12.916c.01-.046.025-.081.034-.129 2.726.551 3.815-.538 3.265-3.265 2.729-.535 3.318-1.958 1.767-4.267 2.316-1.539 2.316-3.078 0-4.618zm-11.596 12.257c-5.492 0-9.944-4.452-9.944-9.944s4.452-9.944 9.944-9.944 9.944 4.452 9.944 9.944c0 5.491-4.452 9.944-9.944 9.944z"/><path d="m32.377 19.04c-4.508 0-8.176 3.668-8.176 8.176s3.668 8.176 8.176 8.176 8.176-3.668 8.176-8.176c0-4.509-3.668-8.176-8.176-8.176zm4.14 6.417-4.492 4.77c-.148.14-.371.234-.569.234s-.421-.094-.569-.234l-2.587-2.372c-.322-.304-.322-.772 0-1.075.322-.304.817-.304 1.14 0l2.016 1.834 3.922-4.255c.322-.303.818-.303 1.139 0 .322.304.322.795 0 1.098z"/></g></svg>