<svg height="64.628" viewBox="0 0 64.628 64.628" width="64.628" xmlns="http://www.w3.org/2000/svg"><g fill="#5f6062"><path d="m32.314 0c-17.847 0-32.314 14.467-32.314 32.314s14.467 32.314 32.314 32.314 32.314-14.468 32.314-32.314-14.468-32.314-32.314-32.314zm0 62.689c-16.749 0-30.375-13.626-30.375-30.375s13.626-30.375 30.375-30.375 30.375 13.626 30.375 30.375-13.626 30.375-30.375 30.375z"/><path d="m48.756 24.768-2.867-7.792c-.606-1.648-2.176-2.743-3.933-2.743h-13.14c-1.756 0-3.326 1.095-3.933 2.743l-.323.884h2.232l.059-.159c.303-.824 1.088-1.372 1.966-1.372h13.14c.878 0 1.663.548 1.966 1.372l1.658 4.507c.134.365-.136.752-.524.752h-3.311l1.408 3.827c.337-.229.738-.364 1.162-.364 1.135 0 2.109.973 2.109 2.11 0 .866-.567 1.637-1.339 1.955.136.197.256.386.359.569 0 0 .52.857.52 1.63v7.146c.406.447.993.728 1.645.728h.651c1.227 0 2.221-.994 2.221-2.221v-2.488-8.421h-.004c-.036-.664-.876-1.739-1.722-2.663z"/><path d="m42.61 30.024-2.867-7.792c-.607-1.648-2.176-2.743-3.933-2.743h-13.14c-1.756 0-3.326 1.095-3.933 2.743l-2.814 7.648c-.866.91-1.743 2.018-1.776 2.805h-.003v8.421c0 .042.003.083.008.123v2.365c0 1.227.995 2.221 2.221 2.221h.651c1.227 0 2.221-.994 2.221-2.221v-1.511h19.996v1.511c0 1.227.995 2.221 2.221 2.221h.651c1.227 0 2.221-.994 2.221-2.221v-2.488-8.421h-.004c-.035-.662-.874-1.737-1.72-2.661zm-23.564-2.561 1.658-4.507c.303-.824 1.088-1.372 1.966-1.372h13.14c.878 0 1.663.548 1.966 1.372l1.658 4.507c.134.365-.136.752-.524.752h-19.34c-.388 0-.658-.387-.524-.752zm1.105 8.434c-1.136 0-2.109-.974-2.109-2.109 0-1.137.973-2.11 2.109-2.11 1.137 0 2.109.973 2.109 2.11 0 1.135-.972 2.109-2.109 2.109zm18.019 0c-1.137 0-2.111-.974-2.111-2.109 0-1.137.974-2.11 2.111-2.11 1.135 0 2.109.973 2.109 2.11 0 1.135-.974 2.109-2.109 2.109z"/></g></svg>