<svg enable-background="new 0 0 64.628 64.628" height="64.628" viewBox="0 0 64.628 64.628" width="64.628" xmlns="http://www.w3.org/2000/svg"><path clip-rule="evenodd" d="m32.314 0c-17.847 0-32.314 14.467-32.314 32.314s14.467 32.314 32.314 32.314 32.314-14.468 32.314-32.314-14.468-32.314-32.314-32.314zm21.95 53.277c-.121-1.595-.382-2.886-.875-3.385-2.167-2.189-5.801-3.192-8.958-4.182.006-.004.012-.008.018-.012-.057-.018-.114-.036-.17-.053-4.218-1.333-5.83-4.494-6.312-7.63.463-.533.916-1.096 1.35-1.684 2.767.894 6.08 1.155 8.92-.925-3.91-3.953-.772-8.799-3.594-17.531-2.402-7.423-12.241-7.058-13.51-4.45-5.219-1.863-9.156.631-10.605 8.495-1.665 9.032 1.563 9.986-2.346 13.937 3.002 1.734 5.752 1.31 8.139.351.471.641.96 1.257 1.464 1.835-.485 3.126-2.104 6.272-6.305 7.601-3.204 1.011-6.951 2.009-9.166 4.247-.594.602-.851 2.352-.932 4.397.003.003.006.005.008.008l-.003.003c-.002-.002-.004-.003-.006-.005 0-.002 0-.003 0-.005-5.81-5.536-9.444-13.335-9.444-21.975 0-16.749 13.626-30.375 30.375-30.375s30.375 13.626 30.375 30.375c.002 8.124-3.21 15.507-8.423 20.963z" fill="#5f6062" fill-rule="evenodd"/></svg>