<svg enable-background="new 0 0 64.3 64.3" viewBox="0 0 64.3 64.3" xmlns="http://www.w3.org/2000/svg"><path d="m14.4 32.2c0-1.1.9-2 2-2h15.4l-3.8-3.6c-.8-.8-.8-2 0-2.8s2.1-.8 2.8 0l7.6 7.6c.5.5.5 1.3 0 1.8l-7.6 7.6c-.8.8-2.1.8-2.8 0-.8-.8-.8-2.1 0-2.9l3.6-3.7h-15.2c-1.2 0-2-1-2-2zm31.8 15.4c0 1-.4 1.6-1.4 1.6h-22.2c-1.1 0-2-.9-2-2s.9-2 2-2h18.9c.6 0 .7-.3.7-.8v-24.2c0-.6-.1-1.1-.7-1.1h-18.9c-1.1 0-2-.9-2-2s.9-2 2-2h22.2c1 0 1.4.9 1.4 1.8zm-14-47.7c-17.8 0-32.3 14.5-32.3 32.3s14.5 32.3 32.3 32.3 32.3-14.4 32.3-32.3-14.4-32.3-32.3-32.3zm0 62.7c-16.8 0-30.4-13.6-30.4-30.4s13.6-30.3 30.4-30.3 30.4 13.6 30.4 30.4-13.6 30.3-30.4 30.3z"/></svg>