<svg height="64.628" viewBox="0 0 64.628 64.628" width="64.628" xmlns="http://www.w3.org/2000/svg"><g fill="#5f6062"><path d="m32.314 0c-17.847 0-32.314 14.467-32.314 32.314s14.467 32.314 32.314 32.314 32.314-14.468 32.314-32.314-14.468-32.314-32.314-32.314zm0 62.689c-16.749 0-30.375-13.626-30.375-30.375s13.626-30.375 30.375-30.375 30.375 13.626 30.375 30.375-13.626 30.375-30.375 30.375z"/><path d="m24.562 20.594h16.051c.525 0 .95-.425.95-.95v-.034c0-.525-.425-.95-.95-.95h-16.051c-.524 0-.95.425-.95.95v.034c0 .525.425.95.95.95z"/><path d="m41.8 22.793h-18.426c-.525 0-.95.425-.95.95v.034c0 .525.425.95.95.95h18.426c.525 0 .95-.425.95-.95v-.034c0-.525-.425-.95-.95-.95z"/><path d="m45.372 15.941c-.28-1.035-1.219-1.754-2.292-1.754h-20.985c-1.072 0-2.012.719-2.292 1.754l-3.209 11.863c-.077.283-.115.575-.115.868v1.652 12.757 1.9c0 .787.638 1.425 1.425 1.425h1.9 25.57 1.9c.787 0 1.425-.638 1.425-1.425v-1.9-12.757-1.652c0-.293-.039-.585-.115-.868zm-6.974 20.641h-11.503c-.849 0-1.537-.688-1.537-1.537s.688-1.537 1.537-1.537h11.503c.849 0 1.537.688 1.537 1.537.001.849-.688 1.537-1.537 1.537zm6.974-9.582h-6.548l-.633.683c-.18.194-.432.304-.697.304h-9.697c-.264 0-.517-.11-.697-.304l-.631-.683h-6.667c-.187 0-.37.016-.549.046l2.604-9.625c.14-.518.61-.877 1.146-.877h19.495c.343 0 .644.23.733.561l2.689 9.941c-.178-.03-.361-.046-.548-.046z"/></g></svg>