<svg enable-background="new 0 0 64.6 64.6" viewBox="0 0 64.6 64.6" xmlns="http://www.w3.org/2000/svg"><path d="m42.4 49.1h-22.2c-1 0-1.9-.4-1.9-1.3v-30.7c0-1 .9-2 1.9-2h22.2c1.1 0 2 .9 2 2s-.9 2-2 2h-18.9c-.6 0-1.2.8-1.2 1.3v24.1c0 .6.6.6 1.2.6h18.9c1.1 0 2 .9 2 2s-.9 2-2 2zm7.9-15.8-7.6 7.6c-.8.8-2.1.8-2.8 0s-.8-2.2 0-3l3.6-3.8h-15.4c-1.1 0-2-.9-2-2s.9-2 2-2h15.4l-3.7-3.5c-.8-.8-.8-2 0-2.8s2.1-.7 2.8 0l7.6 7.6c.6.6.6 1.4.1 1.9zm-18-33.3c-17.8 0-32.3 14.5-32.3 32.3s14.5 32.3 32.3 32.3 32.3-14.4 32.3-32.3-14.4-32.3-32.3-32.3zm0 62.7c-16.7 0-30.4-13.6-30.4-30.4s13.7-30.3 30.4-30.3 30.4 13.6 30.4 30.4-13.6 30.3-30.4 30.3z"/></svg>