<svg height="64.628" viewBox="0 0 64.628 64.628" width="64.628" xmlns="http://www.w3.org/2000/svg"><g fill="#5f6062"><path d="m32.314 0c-17.847 0-32.314 14.467-32.314 32.314s14.467 32.314 32.314 32.314 32.314-14.468 32.314-32.314-14.468-32.314-32.314-32.314zm0 62.689c-16.749 0-30.375-13.626-30.375-30.375s13.626-30.375 30.375-30.375 30.375 13.626 30.375 30.375-13.626 30.375-30.375 30.375z"/><path d="m15.822 38.195v1.284c0 .368.299.667.667.667h31.65c.368 0 .667-.298.667-.667v-1.284c0-.368-.298-.667-.667-.667h-31.65c-.368 0-.667.298-.667.667z"/><path d="m49.448 41.455h-34.268c-.368 0-.667.298-.667.667v1.284c0 .368.299.667.667.667h34.268c.368 0 .667-.298.667-.667v-1.284c0-.369-.299-.667-.667-.667z"/><path d="m17.814 34.197-.031.012c-.393.154-.652.534-.652.956 0 .567.46 1.027 1.027 1.027h4.221c.567 0 1.027-.46 1.027-1.027 0-.423-.259-.802-.652-.956l-.031-.012c-.393-.154-.652-.534-.652-.956v-4.934c0-.423.259-.802.652-.956l.031-.012c.393-.154.652-.534.652-.956 0-.567-.46-1.027-1.027-1.027h-4.221c-.567 0-1.027.46-1.027 1.027 0 .423.259.802.652.956l.031.012c.393.154.652.534.652.956v4.934c0 .423-.259.802-.652.956z"/><path d="m29.833 34.197-.031.012c-.394.154-.652.534-.652.956 0 .567.46 1.027 1.027 1.027h4.221c.567 0 1.027-.46 1.027-1.027 0-.423-.259-.802-.652-.956l-.031-.012c-.394-.154-.652-.534-.652-.956v-4.934c0-.423.259-.802.652-.956l.031-.012c.394-.154.652-.534.652-.956 0-.567-.46-1.027-1.027-1.027h-4.221c-.567 0-1.027.46-1.027 1.027 0 .423.259.802.652.956l.031.012c.394.154.652.534.652.956v4.934c0 .423-.259.802-.652.956z"/><path d="m41.904 34.197-.031.012c-.393.154-.652.534-.652.956 0 .567.46 1.027 1.027 1.027h4.221c.567 0 1.027-.46 1.027-1.027 0-.423-.259-.802-.652-.956l-.031-.012c-.393-.154-.652-.534-.652-.956v-4.934c0-.423.259-.802.652-.956l.031-.012c.393-.154.652-.534.652-.956 0-.567-.46-1.027-1.027-1.027h-4.221c-.567 0-1.027.46-1.027 1.027 0 .423.259.802.652.956l.031.012c.393.154.652.534.652.956v4.934c.001.423-.258.802-.652.956z"/><path d="m15.613 24.021h33.402c.578 0 1.047-.469 1.047-1.047v-.525c0-.028.003-.056.006-.084.023-.209-.073-.431-.314-.535l-17.26-5.673c-.132-.057-.282-.057-.414 0l-17.113 5.657c-.043.014-.085.031-.123.054-.115.07-.186.171-.22.282-.037.072-.058.153-.058.24v.583c0 .579.468 1.048 1.047 1.048z"/></g></svg>