<svg enable-background="new 0 0 64.53 64.53" height="64.53" viewBox="0 0 64.53 64.53" width="64.53" xmlns="http://www.w3.org/2000/svg"><path d="m57.255 64.53h-49.98c-4.011 0-7.275-3.264-7.275-7.275v-49.98c0-4.011 3.264-7.275 7.275-7.275h49.979c4.012 0 7.275 3.264 7.275 7.275v49.979c.001 4.012-3.263 7.276-7.274 7.276zm-49.98-62.632c-2.965 0-5.378 2.413-5.378 5.378v49.979c0 2.965 2.413 5.378 5.378 5.378h49.979c2.965 0 5.378-2.413 5.378-5.378v-49.98c0-2.965-2.413-5.378-5.378-5.378h-49.979z" fill="#5f6062"/></svg>