<svg height="64.628" viewBox="0 0 64.628 64.628" width="64.628" xmlns="http://www.w3.org/2000/svg"><g fill="#5f6062"><path d="m32.314 0c-17.847 0-32.314 14.467-32.314 32.314 0 17.846 14.467 32.314 32.314 32.314s32.314-14.468 32.314-32.314c0-17.847-14.468-32.314-32.314-32.314zm0 62.689c-16.749 0-30.375-13.626-30.375-30.375s13.626-30.375 30.375-30.375 30.375 13.626 30.375 30.375-13.626 30.375-30.375 30.375z"/><path d="m42.729 12.045c-4.956 0-8.973 4.017-8.973 8.973s4.017 8.973 8.973 8.973 8.973-4.017 8.973-8.973-4.017-8.973-8.973-8.973zm-.001 1.412c.555 0 1.005.45 1.005 1.005s-.45 1.005-1.005 1.005-1.005-.45-1.005-1.005.45-1.005 1.005-1.005zm-6.189 9.611c-.555 0-1.005-.45-1.005-1.005s.45-1.005 1.005-1.005 1.005.45 1.005 1.005-.45 1.005-1.005 1.005zm1.415-4.909c-.555 0-1.005-.45-1.005-1.005s.45-1.005 1.005-1.005 1.005.45 1.005 1.005c.001.555-.449 1.005-1.005 1.005zm9.559-.534-3.042 2.77c.035.133.054.272.054.416 0 .902-.731 1.633-1.633 1.633s-1.634-.731-1.634-1.633.731-1.633 1.634-1.633c.173 0 .34.027.497.077l3.066-2.792c.321-.292.818-.269 1.111.052.291.32.268.818-.053 1.11zm2.464 4.438c0 .555-.45 1.005-1.005 1.005s-1.005-.45-1.005-1.005.45-1.005 1.005-1.005 1.005.45 1.005 1.005z"/><path d="m48.001 30.444c-1.432.793-3.06 1.271-4.793 1.34.604.468 1.004 1.197 1.004 1.995 0 1.359-1.166 2.525-2.525 2.525-1.362 0-2.527-1.166-2.527-2.525 0-.941.558-1.789 1.352-2.222-2.748-.584-5.114-2.213-6.662-4.45h-14.43c-.465 0-.788-.463-.628-.9l1.985-5.396c.363-.987 1.303-1.642 2.354-1.642h8.946c.146-.876.397-1.716.74-2.508h-9.687c-2.103 0-3.982 1.311-4.708 3.284l-3.369 9.156c-1.037 1.089-2.087 2.416-2.126 3.358h-.004v10.081c0 .05.003.099.01.148v2.831c0 1.469 1.19 2.659 2.659 2.659h.78c1.469 0 2.659-1.191 2.659-2.659v-1.809h23.938v1.809c0 1.469 1.19 2.659 2.659 2.659h.78c1.469 0 2.659-1.191 2.659-2.659v-2.979-10.081h-.004c-.027-.522-.473-1.258-1.062-2.015zm-27.886 5.86c-1.36 0-2.525-1.166-2.525-2.525 0-1.362 1.165-2.526 2.525-2.526 1.362 0 2.525 1.165 2.525 2.526 0 1.359-1.163 2.525-2.525 2.525z"/></g></svg>