<svg enable-background="new 0 0 64.6 64.6" viewBox="0 0 64.6 64.6" xmlns="http://www.w3.org/2000/svg"><path d="m32.3 0c-17.8 0-32.3 14.5-32.3 32.3s14.5 32.3 32.3 32.3 32.3-14.5 32.3-32.3-14.4-32.3-32.3-32.3zm0 62.7c-16.7 0-30.4-13.6-30.4-30.4s13.7-30.4 30.4-30.4 30.4 13.6 30.4 30.4-13.6 30.4-30.4 30.4zm17.9-40c0-4.6-3.7-8.3-8.3-8.3-.1 0-.3 0-.4 0s-.1 0-.2 0c-.2 0-.4 0-.6.1-.1 0-.2 0-.3 0-.3 0-.5.1-.8.2h-.1c-1.3.4-2.5 1.1-3.5 2.1-.1.1-.2.2-.2.3-.1.1-.2.2-.3.3s-.1.2-.2.3c-.2.1-.3.2-.3.3-.1.1-.1.2-.2.3s-.2.2-.2.4c-.1.1-.1.2-.2.3s-.1.3-.2.4-.1.2-.1.4c0 .1-.1.3-.1.4 0 .2-.1.3-.1.5 0 .1-.1.2-.1.3 0 .2-.1.4-.1.6v.3.9.8.3c0 .2 0 .4.1.5 0 .1.1.2.1.3 0 .2.1.3.1.5 0 .1.1.2.1.3s.1.3.2.4c0 .1.1.2.1.3.1.1.1.3.2.4s.1.2.2.3.1.2.2.4c.1.1.1.2.2.3s.2.2.2.3c.1.1.2.2.2.3s.1.1.1.2c1.1 1.1 2.4 2 4 2.4h.2c.2.1.5.1.7.2h.3c.3 0 .7.1 1 .1h.3c1.2 0 2.3-.3 3.3-.8.1 0 .1-.1.2-.1.1-.1.2-.1.3-.2s.2-.1.3-.2.2-.1.3-.2.2-.2.3-.2c.1-.1.2-.2.3-.2.1-.1.2-.2.3-.3s.2-.2.3-.3c0 0 .1-.1.1-.1 1.5-1.6 2.3-3.6 2.3-5.8zm-12.9-.7s.1 0 0 0c.2 0 .2-.1.3-.1h.2.1c.1 0 .2.1.3.2l2.4 2.4 5.4-5.5c.1-.1.2-.1.3-.2h.1.2.2.1c.1 0 .2.1.3.2.3.3.3.8 0 1.1l-6 6c-.1.1-.3.2-.5.2s-.4-.1-.5-.2l-2.9-3c-.3-.3-.3-.8 0-1.1-.2.1-.1.1 0 0zm0 14.4c-.4 0-.7-.3-.7-.7v-4.4c0-.1 0-.2.1-.3.4.3.9.5 1.3.7 1.2.5 2.5.8 3.8.8h.4v3.3c0 .1 0 .2-.1.3v.1s0 .1-.1.1 0 0-.1.1-.2.1-.4.1h-4.2zm-3.3 3.2v4.4c0 .1 0 .2-.1.3v.1s0 .1-.1.1 0 0-.1.1-.2.1-.4.1h-4.3c-.4 0-.7-.3-.7-.7v-4.4c0-.4.3-.7.7-.7h4.4c.3.1.6.4.6.7zm0-3.9c0 .1 0 .2-.1.3v.1s0 .1-.1.1 0 0-.1.1-.2.1-.4.1h-4.3c-.4 0-.7-.3-.7-.7v-4.4c0-.4.3-.7.7-.7h4.4c.4 0 .7.3.7.7v4.4zm-8.2 0c0 .1 0 .2-.1.3v.1s0 .1-.1.1 0 0-.1.1-.2.1-.4.1h-4.4c-.4 0-.7-.3-.7-.7v-4.4c0-.4.3-.7.7-.7h4.4c.4 0 .7.3.7.7zm0 3.9v4.4c0 .1 0 .2-.1.3v.1s0 .1-.1.1 0 0-.1.1-.2.1-.4.1h-4.4c-.4 0-.7-.3-.7-.7v-4.4c0-.4.3-.7.7-.7h4.4c.4.1.7.4.7.7zm19.9-7.9c.8-.3 1.6-.8 2.2-1.3v17.5c0 1.4-1.1 2.5-2.5 2.5h-28.5c-1.4 0-2.5-1.1-2.5-2.5v-28.7c0-1.4 1.1-2.5 2.5-2.5h1.9v3.7c0 1.4 1.6 2.4 2.9 2.4 1.4 0 2.9-1.1 2.9-2.5v-3.7h9.4c-.5.6-.9 1.3-1.2 2.1-.5 1.2-.8 2.5-.8 3.8s.3 2.6.8 3.8c.3.6.6 1.2 1 1.8h-17v18.8c0 .4.3.7.7.7h27.2c.4 0 .7-.3.7-.7v-15.1c.2 0 .2-.1.3-.1zm-25.3-11v-5.9c0-.3.3-.5.5-.5h1.4c.3 0 .5.3.5.5v5.9c.1.3-.2.5-.5.5h-1.4c-.3 0-.5-.3-.5-.5z"/></svg>