<svg height="64.628" viewBox="0 0 64.628 64.628" width="64.628" xmlns="http://www.w3.org/2000/svg"><g fill="#5f6062"><path d="m32.314 0c-17.847 0-32.314 14.467-32.314 32.314 0 17.846 14.467 32.314 32.314 32.314s32.314-14.468 32.314-32.314c0-17.847-14.468-32.314-32.314-32.314zm0 62.689c-16.749 0-30.375-13.626-30.375-30.375s13.626-30.375 30.375-30.375 30.375 13.626 30.375 30.375-13.626 30.375-30.375 30.375z"/><path d="m33.318 36.801c.577-2.195 2.053-3.925 3.908-4.76l-.011-1.349s1.365-1.053 1.789-4.345c.857.251 1.756-1.278 1.801-2.081.048-.774-.115-2.916-1.156-2.701.209-1.618.366-3.07.289-3.838-.269-2.823-3.044-5.787-7.306-5.787-4.259 0-7.03 2.964-7.306 5.787-.071.768.084 2.219.295 3.838-1.044-.215-1.211 1.927-1.166 2.701.055.803.947 2.331 1.805 2.081.427 3.292 1.795 4.345 1.795 4.345l-.036 3.51s-.867.527-4.518 2.049c-3.654 1.519-6.339 2.585-7.437 4.3-.989 1.535-.691 6.968-.691 6.968h21.966c-1.113-1.073-2.019-2.192-2.713-3.352-1.862-3.115-1.739-5.725-1.308-7.366z"/><path d="m43.903 36.07c-4.865-8.313-17.587 4.03 0 13.956 17.59-9.926 4.869-22.269 0-13.956z"/></g></svg>