<svg height="64.628" viewBox="0 0 64.628 64.628" width="64.628" xmlns="http://www.w3.org/2000/svg"><g fill="#5f6062"><path d="m32.314 0c-17.847 0-32.314 14.467-32.314 32.314s14.467 32.314 32.314 32.314 32.314-14.468 32.314-32.314-14.468-32.314-32.314-32.314zm0 62.689c-16.749 0-30.375-13.626-30.375-30.375s13.626-30.375 30.375-30.375 30.375 13.626 30.375 30.375-13.626 30.375-30.375 30.375z"/><path d="m48.272 26.284-10.406-1.512-4.654-9.429c-.368-.745-1.429-.745-1.797 0l-4.654 9.429-10.406 1.512c-.822.119-1.15 1.129-.555 1.709l7.53 7.34-1.778 10.364c-.14.818.719 1.442 1.453 1.056l9.307-4.893 9.307 4.893c.735.386 1.594-.238 1.453-1.056l-1.778-10.364 7.53-7.34c.598-.58.27-1.59-.552-1.709z"/></g></svg>