<svg height="64.628" viewBox="0 0 64.628 64.628" width="64.628" xmlns="http://www.w3.org/2000/svg"><g fill="#5f6062"><path d="m32.314 0c-17.847 0-32.314 14.467-32.314 32.314s14.467 32.314 32.314 32.314 32.314-14.468 32.314-32.314-14.468-32.314-32.314-32.314zm0 62.689c-16.749 0-30.375-13.626-30.375-30.375s13.626-30.375 30.375-30.375 30.375 13.626 30.375 30.375-13.626 30.375-30.375 30.375z"/><path d="m47.304 28.81-.821-2.232c-1.118.488-2.384.735-3.78.735-1.361 0-2.826-.231-4.369-.688h-.054c-.486.672-1.12 1.64-1.64 2.739-.405.858-1.268 1.392-2.25 1.392-1.035 0-2.111-.576-2.676-1.433-.461-.699-.546-1.52-.232-2.253.064-.149.132-.298.201-.446h-12.205c-.469 0-.795-.467-.633-.908l2.003-5.444c.366-.995 1.314-1.657 2.375-1.657h9.627c.07-.448.172-.916.318-1.396.119-.391.26-.769.423-1.135h-10.369c-2.121 0-4.017 1.323-4.75 3.313l-3.399 9.237c-1.046 1.098-2.105 2.437-2.145 3.387h-.004v10.171c0 .05.004.1.01.149v2.856c0 1.482 1.201 2.683 2.683 2.683h.787c1.482 0 2.683-1.201 2.683-2.683v-1.825h24.15v1.825c0 1.482 1.201 2.683 2.683 2.683h.787c1.482 0 2.683-1.201 2.683-2.683v-3.005-10.168h-.004c-.047-.8-1.06-2.098-2.082-3.214zm-27.125 7.094c-1.372 0-2.547-1.176-2.547-2.547 0-1.374 1.175-2.549 2.547-2.549 1.374 0 2.547 1.175 2.547 2.549 0 1.37-1.174 2.547-2.547 2.547zm21.763 0c-1.373 0-2.55-1.176-2.55-2.547 0-1.374 1.176-2.549 2.55-2.549 1.371 0 2.547 1.175 2.547 2.549 0 1.37-1.176 2.547-2.547 2.547z"/><path d="m38.801 13.132c-4.556 2.627-4.295 6.905-4.138 8.488 5.885-6.927 14.686-6.591 14.686-6.591s-12.477 4.253-16.141 12.781c-.288.674 1.359 1.549 1.735.752 1.122-2.371 2.685-4.15 2.685-4.15 2.307.853 6.297 1.853 9.125-.125 3.758-2.627 3.373-8.451 8.735-11.287 1.254-.662-10.512-3.43-16.687.132z"/></g></svg>