<svg height="64.628" viewBox="0 0 64.628 64.628" width="64.628" xmlns="http://www.w3.org/2000/svg"><g clip-rule="evenodd" fill="#5f6062" fill-rule="evenodd"><path d="m32.314 0c-17.847 0-32.314 14.467-32.314 32.314s14.467 32.314 32.314 32.314 32.314-14.468 32.314-32.314-14.468-32.314-32.314-32.314zm0 62.689c-16.749 0-30.375-13.626-30.375-30.375s13.626-30.375 30.375-30.375 30.375 13.626 30.375 30.375-13.626 30.375-30.375 30.375z"/><path d="m40.715 36.009c.004-.003.008-.006.012-.008-.039-.012-.078-.025-.117-.037-2.905-.918-4.016-3.095-4.347-5.255.319-.367.631-.755.929-1.16 1.905.616 4.188.796 6.144-.637-2.693-2.722-.532-6.06-2.475-12.074-1.654-5.112-8.431-4.861-9.305-3.065-3.594-1.283-6.306.434-7.304 5.851-1.147 6.221 1.077 6.878-1.616 9.599 2.067 1.194 3.962.903 5.606.242.325.441.661.866 1.008 1.264-.334 2.153-1.449 4.32-4.342 5.235-2.207.696-4.788 1.384-6.313 2.925-1.203 1.218-.402 9.259-.402 9.259h9.11 10.874 9.11s.8-8.041-.402-9.259c-1.493-1.508-3.996-2.199-6.17-2.88z"/></g></svg>