<?xml version="1.0" encoding="utf-8"?>
<!-- Generator: Adobe Illustrator 18.1.0, SVG Export Plug-In . SVG Version: 6.00 Build 0)  -->
<svg version="1.1" xmlns="http://www.w3.org/2000/svg" xmlns:xlink="http://www.w3.org/1999/xlink" x="0px" y="0px"
	 viewBox="0 0 180 180" enable-background="new 0 0 180 180" xml:space="preserve">
<g id="Layer_2">
</g>
<g id="Layer_1">
	<g>
		<circle fill="#E05A34" cx="89.4" cy="103.2" r="70"/>
		<g>
			<defs>
				<path id="SVGID_1_" d="M159.4,103.2c0,38.7-31.3,70-70,70s-70-31.3-70-70C19.4,64.5,50.7,3,89.4,3S159.4,64.5,159.4,103.2z"/>
			</defs>
			<clipPath id="SVGID_2_">
				<use xlink:href="#SVGID_1_"  overflow="visible"/>
			</clipPath>
			<g clip-path="url(#SVGID_2_)">
				<path fill="#7EC364" d="M80.4,122.4"/>
				<path fill="#F3D5B4" d="M123.8,76.9c-4.3,24.5-15.3,52.9-34.1,52.9c-18.9,0-28.6-23.8-34.1-52.9c-4.9-25.6,15.3-42.6,34.1-42.6
					C108.6,34.3,128.4,51.2,123.8,76.9z"/>
				<path fill="#ECCEB0" d="M89.2,34.4c18.9,0,40.7,16.8,36.1,42.4c-4.3,24.5-17.1,53.1-36,53.1"/>
				<path fill="#982020" d="M120,71.7c0,0-9.5-2.7-17.3-2.4c0,0-5.1-0.1-11.3,3.8v2.6c0,0,1.6,4.9,2.7,6.2c0.5,0.5,1.3,0.7,1.9,1
					c0.8,0.3,1.7,0.6,2.6,0.8c1.3,0.3,2.6,0.5,4,0.6c2.2,0.2,4.2,0.3,6.3-0.4c1.5-0.4,2.9-1,4.2-1.7c1.3-0.7,2.6-1.5,3.7-2.5
					c0.6-0.5,1.2-1.1,1.7-1.8c0.3-0.3,0.5-0.7,0.7-1c0.2-0.3,0.3-0.8,0.6-1.1l2.5-2.3v-3.2L120,71.7z M114.5,76.8
					c-0.7,5.3-7.3,6.2-7.3,6.2c-1.9,0.3-4.1,0.1-6-0.2c-1.6-0.2-3.2-0.5-4.7-1c-0.5-0.1-0.9-0.3-1.3-0.4c-0.6-0.2-0.7-0.7-0.9-1.3
					c-0.2-0.5-0.4-1-0.6-1.5c-0.3-0.6-0.5-1.3-0.8-1.9c-1.3-3.3,2.4-4.6,2.4-4.6c8.3-3.9,17.8-0.4,17.8-0.4
					C115.1,72.5,114.7,75.3,114.5,76.8z"/>
				<path fill="#982020" d="M55.6,70.3v3.2l2.5,2.3c0.2,0.2,0.4,0.8,0.6,1.1c0.2,0.4,0.5,0.7,0.7,1c0.5,0.6,1.1,1.2,1.7,1.8
					c1.1,1,2.4,1.8,3.7,2.5c1.3,0.7,2.8,1.3,4.2,1.7c2.1,0.6,4.1,0.5,6.3,0.4c1.3-0.1,2.7-0.3,4-0.6c0.9-0.2,1.7-0.4,2.6-0.8
					c0.6-0.2,1.5-0.5,1.9-1c1.1-1.3,2.7-6.2,2.7-6.2v-2.6c-6.2-3.9-11.3-3.8-11.3-3.8c-7.9-0.3-17.3,2.4-17.3,2.4L55.6,70.3z
					 M64.8,71.9c0,0,9.5-3.5,17.8,0.4c0,0,3.7,1.2,2.4,4.6c-0.3,0.6-0.5,1.3-0.8,1.9c-0.2,0.5-0.4,1-0.6,1.5
					c-0.2,0.5-0.2,1.1-0.9,1.3c-0.4,0.1-0.9,0.3-1.3,0.4c-1.6,0.4-3.1,0.7-4.7,1c-1.9,0.3-4.1,0.5-6,0.2c0,0-6.6-1-7.3-6.2
					C63.2,75.3,62.9,72.5,64.8,71.9z"/>
				<path fill="#982020" d="M86.3,75.1l-1.1-1.5c1.3-0.9,4.5-2.1,7.4,0l-1.1,1.5C89,73.2,86.3,75.1,86.3,75.1z"/>
				<path fill="#A98C71" d="M78.6,78.9c-0.4,0-0.8-0.2-1-0.5c-0.8-0.8-1.5-1.2-2.3-1.2c-1.4,0-2.6,1.2-2.6,1.2
					c-0.5,0.6-1.4,0.6-2,0.1c-0.6-0.5-0.6-1.4-0.1-2c0.2-0.2,2-2.1,4.6-2.1c1.6,0,3.1,0.7,4.4,2.1c0.5,0.6,0.5,1.4-0.1,2
					C79.3,78.8,78.9,78.9,78.6,78.9z"/>
				<path fill="#A98C71" d="M105.9,78.9c-0.4,0-0.7-0.2-1-0.5c-0.8-0.8-1.5-1.2-2.3-1.2c0,0,0,0,0,0c-1.4,0-2.6,1.2-2.6,1.2
					c-0.5,0.6-1.4,0.6-2,0.1c-0.6-0.5-0.6-1.4-0.1-2c0.2-0.2,2-2.1,4.6-2.1l0,0c1.6,0,3.1,0.7,4.4,2.1c0.5,0.6,0.5,1.4-0.1,2
					C106.6,78.8,106.3,78.9,105.9,78.9z"/>
				<path fill="none" stroke="#333333" stroke-miterlimit="10" d="M88.6,51.6"/>
				<path fill="#333333" d="M91.2,126.4"/>
				<path fill="#80673E" d="M81,149.3c0,0-40.1-11.4-45.9-56.5c0,0-5.4-75.5,54.1-77.3c0,0,0.1,32.7,0.1,32.8
					c-1.1,2.1-0.2,0.7-1.6,2.6c-1.6,2.3-2.4,4.9-3.4,7.4C82,64.2,78,67.9,71.7,68.9c0,0,5.2-6.3,4.2-10c-2.3,4.3-4.8,9.3-9.6,10.9
					c-0.1,0-0.2,0.1-0.2,0.1c-9.1,2.8-5.2,19-4.1,25.7c0.7,4.2,1.9,8.4,3.6,12.3c1.7,3.9,4.1,7.4,6.7,10.8c1.3,1.8,2.8,3.3,4.5,4.8
					c1.6,1.3,3.9,2.7,6,2.8C82.7,126.3,85.2,141.8,81,149.3z"/>
				<path fill="#704D21" d="M89.2,15.5c21.7,0.2,30.2,7,38.9,19.1c16.4,22.8,21.3,55.3,9,81c-3.6,7.6-8.1,15.8-13.7,22.1
					c-3.3,3.8-7.7,7-12.8,8c-5.5,1.1-10.9-1.6-16.4-1.4c0.3-4.1,3-18.8,3-18.8c3.2-1.7,6.3-4.3,8.8-6.9c6-6.4,9.4-14.8,10.8-23.4
					c0.5-3,0.9-8.3,1.5-13.3c3.8-32.2-12.3-39.9-12.3-39.9c-2.7-1.7-6.5-1.1-6.5-1.1c-7.1,1.7-10.4,7.4-10.4,7.4"/>
				<path fill="#FFFFFF" d="M77.7,101c0,0,10.6,12,25.9-1.1c0,0-9.9-1-14.4,0.9C89.3,100.9,83,98.9,77.7,101z"/>
				<path fill="#F9F9F9" d="M70.1,199.7c0,0,14.2,1.8,42.1-6.1l1.6-44.1l-15.3-0.5l-9.4,13.2l-9-12.6l-5.8-0.3l-3.6,41.3"/>
				<circle fill="#F3D5B4" cx="89.4" cy="87.7" r="3"/>
				<path fill="#F3D5B4" d="M97.5,140.1c-1-2-1.2-4.4-1.1-6.6c0.1-3.2,0.7-6.5,1.6-9.7H81.4c0.9,3.1,1.5,6.4,1.6,9.7
					c0.1,2.2-0.1,4.6-1.1,6.6c-2,4-6.7,2.7-9.8,4.8c0,0,3.5,22.3,17.4,22.3c11.9,0,17.9-22.3,17.9-22.3
					C104.2,142.8,99.5,144.1,97.5,140.1z"/>
				<path fill="#ECCEB0" d="M98.1,123.9c-0.9,3.1-1.5,6.4-1.6,9.7c-0.1,2.2,0.1,4.6,1.1,6.6c2,4,6.7,2.7,9.8,4.8
					c0,0-4.6,21.8-17.9,22v-43.1"/>
				<path fill="#CFBEA3" d="M83.7,148.2c0-0.2,1.2,51.6,1.2,51.6c-13.5,6-26.7,3.5-36.1-6.5c2-9.9,7.4-37.8,7.9-41.1
					c0.7-4.8,6.9-9.2,10-9.8c1.9-0.4,7.9,0,7.9,0l3.9,4.3C78.5,146.7,81,148.2,83.7,148.2z"/>
				<path fill="#CFBEA3" d="M95.7,148.6c2.7,0.8,2.7-0.5,4.1-1.5c1.4-1.1,2.5-2,4.1-2.8c1.5-0.8,3.4-2,5.1-1.9
					c0.7,0.1,1.4,0.3,2,0.6c4.8,2.1,11.9,3.9,13.4,9.7c0.9,3.5,5.8,35.6,7.1,44.2c0,0-14,1.8-17.4,3c-4.3,1.6-11.3-1.8-22.2-0.9"/>
				<circle fill="#E4DEC2" cx="98" cy="151.6" r="1.2"/>
				<circle fill="#E4DEC2" cx="81.4" cy="150.9" r="1.2"/>
			</g>
		</g>
	</g>
</g>
</svg>
