<svg xmlns="http://www.w3.org/2000/svg" xmlns:xlink="http://www.w3.org/1999/xlink" viewBox="0 0 140 168.2"><defs><clipPath id="clip-path" transform="translate(0 -4.74)"><path d="M140,91.94a70,70,0,1,1-140,0C0,53.28,31.34,0,70,0S140,53.28,140,91.94Z" fill="none"/></clipPath><pattern id="black_shaved" data-name="black shaved" width="7.93" height="5.68" patternTransform="translate(25.54 -10.36) scale(0.84 1)" patternUnits="userSpaceOnUse" viewBox="0 0 7.93 5.68"><rect width="7.93" height="5.68" fill="none"/><circle cx="4.16" cy="0.15" r="0.15" fill="#333"/><circle cx="0.68" cy="3.39" r="0.15" fill="#333"/><circle cx="5.56" cy="0.34" r="0.15" fill="#333"/><circle cx="0.15" cy="1.56" r="0.15" fill="#333"/><circle cx="7.2" cy="4.5" r="0.15" fill="#333"/><circle cx="1.6" cy="1.12" r="0.15" fill="#333"/><circle cx="2.28" cy="0.43" r="0.15" fill="#333"/><circle cx="0.18" cy="0.17" r="0.15" fill="#333"/><circle cx="3.39" cy="0.43" r="0.15" fill="#333"/><circle cx="3.86" cy="0.56" r="0.15" fill="#333"/><circle cx="3.48" cy="1.59" r="0.15" fill="#333"/><circle cx="2.42" cy="1.45" r="0.15" fill="#333"/><circle cx="0.92" cy="1.45" r="0.15" fill="#333"/><circle cx="1.41" cy="2.22" r="0.15" fill="#333"/><circle cx="3.05" cy="3.24" r="0.15" fill="#333"/><circle cx="2.89" cy="3.74" r="0.15" fill="#333"/><circle cx="3.56" cy="3.65" r="0.15" fill="#333"/><circle cx="4.35" cy="2.61" r="0.15" fill="#333"/><circle cx="5.46" cy="1.79" r="0.15" fill="#333"/><circle cx="4.31" cy="1.55" r="0.15" fill="#333"/><circle cx="4.79" cy="0.72" r="0.15" fill="#333"/><circle cx="6.24" cy="0.97" r="0.15" fill="#333"/><circle cx="7.01" cy="2.03" r="0.15" fill="#333"/><circle cx="5.51" cy="2.61" r="0.15" fill="#333"/><circle cx="5.93" cy="2.1" r="0.15" fill="#333"/><circle cx="7.62" cy="1.81" r="0.15" fill="#333"/><circle cx="4.79" cy="3.29" r="0.15" fill="#333"/><circle cx="6.43" cy="5.42" r="0.15" fill="#333"/><circle cx="6.86" cy="3.62" r="0.15" fill="#333"/><circle cx="5.32" cy="3.62" r="0.15" fill="#333"/><circle cx="4.02" cy="3.62" r="0.15" fill="#333"/><circle cx="3" cy="2.27" r="0.15" fill="#333"/><circle cx="1.99" cy="2.8" r="0.15" fill="#333"/><circle cx="0.73" cy="2.61" r="0.15" fill="#333"/><circle cx="1.46" cy="3.53" r="0.15" fill="#333"/><circle cx="2.37" cy="3.96" r="0.15" fill="#333"/><circle cx="1.39" cy="4.66" r="0.15" fill="#333"/><circle cx="1.97" cy="5" r="0.15" fill="#333"/><circle cx="2.41" cy="4.9" r="0.15" fill="#333"/><circle cx="0.87" cy="5.1" r="0.15" fill="#333"/><circle cx="1.24" cy="5.05" r="0.15" fill="#333"/><circle cx="0.58" cy="4.32" r="0.15" fill="#333"/><circle cx="0.43" cy="0.56" r="0.15" fill="#333"/><circle cx="1.5" cy="0.56" r="0.15" fill="#333"/><circle cx="3.04" cy="1.04" r="0.15" fill="#333"/><circle cx="2.65" cy="0.65" r="0.15" fill="#333"/><circle cx="4.01" cy="1.04" r="0.15" fill="#333"/><circle cx="7.44" cy="0.32" r="0.15" fill="#333"/><circle cx="6.95" cy="1.23" r="0.15" fill="#333"/><circle cx="7.73" cy="5.24" r="0.15" fill="#333"/><circle cx="3.28" cy="5.39" r="0.15" fill="#333"/><circle cx="1.83" cy="5.48" r="0.15" fill="#333"/><circle cx="1.54" cy="4.08" r="0.15" fill="#333"/><circle cx="2.61" cy="2.88" r="0.15" fill="#333"/><circle cx="3.72" cy="2.2" r="0.15" fill="#333"/><circle cx="4.88" cy="1.96" r="0.15" fill="#333"/><circle cx="6.42" cy="1.81" r="0.15" fill="#333"/><circle cx="5.6" cy="0.94" r="0.15" fill="#333"/><circle cx="6.61" cy="0.51" r="0.15" fill="#333"/><circle cx="7.19" cy="0.85" r="0.15" fill="#333"/><circle cx="7.68" cy="1.09" r="0.15" fill="#333"/><circle cx="7.63" cy="3.94" r="0.15" fill="#333"/><circle cx="7.77" cy="4.86" r="0.15" fill="#333"/><circle cx="7.24" cy="5.53" r="0.15" fill="#333"/><circle cx="6.81" cy="4.86" r="0.15" fill="#333"/><circle cx="6.52" cy="3.99" r="0.15" fill="#333"/><circle cx="5.75" cy="3.94" r="0.15" fill="#333"/><circle cx="5.12" cy="4.28" r="0.15" fill="#333"/><circle cx="5.79" cy="4.94" r="0.15" fill="#333"/><circle cx="4" cy="4.57" r="0.15" fill="#333"/><circle cx="2.84" cy="4.48" r="0.15" fill="#333"/><circle cx="2.16" cy="3.41" r="0.15" fill="#333"/><circle cx="2.16" cy="2.01" r="0.15" fill="#333"/><circle cx="2.94" cy="1.81" r="0.15" fill="#333"/><circle cx="0.86" cy="0.17" r="0.15" fill="#333"/><circle cx="0.23" cy="2.88" r="0.15" fill="#333"/><circle cx="0.67" cy="2.1" r="0.15" fill="#333"/><circle cx="5.4" cy="5.43" r="0.15" fill="#333"/><circle cx="2.65" cy="5.53" r="0.15" fill="#333"/><circle cx="0.47" cy="5.39" r="0.15" fill="#333"/><circle cx="1.15" cy="4.18" r="0.15" fill="#333"/><circle cx="1.2" cy="2.92" r="0.15" fill="#333"/><circle cx="1.54" cy="1.76" r="0.15" fill="#333"/><circle cx="6.8" cy="2.83" r="0.15" fill="#333"/><circle cx="5.01" cy="1.43" r="0.15" fill="#333"/><circle cx="4.92" cy="0.32" r="0.15" fill="#333"/><circle cx="2.21" cy="1.04" r="0.15" fill="#333"/><circle cx="0.81" cy="0.94" r="0.15" fill="#333"/><circle cx="0.23" cy="3.74" r="0.15" fill="#333"/><circle cx="1.25" cy="5.53" r="0.15" fill="#333"/><circle cx="2.07" cy="4.47" r="0.15" fill="#333"/><circle cx="4.14" cy="5.48" r="0.15" fill="#333"/><circle cx="4.87" cy="5.43" r="0.15" fill="#333"/><circle cx="3.81" cy="5.24" r="0.15" fill="#333"/><circle cx="4.43" cy="5.19" r="0.15" fill="#333"/><circle cx="5.21" cy="4.95" r="0.15" fill="#333"/><circle cx="4.34" cy="3.36" r="0.15" fill="#333"/><circle cx="5.5" cy="3.26" r="0.15" fill="#333"/><circle cx="6.41" cy="3.6" r="0.15" fill="#333"/><circle cx="4.29" cy="2.15" r="0.15" fill="#333"/><circle cx="5.06" cy="2.68" r="0.15" fill="#333"/><circle cx="3.48" cy="4.73" r="0.15" fill="#333"/><circle cx="3.39" cy="4.01" r="0.15" fill="#333"/><circle cx="4.45" cy="4.15" r="0.15" fill="#333"/><circle cx="4.79" cy="4.97" r="0.15" fill="#333"/><circle cx="6.09" cy="4.59" r="0.15" fill="#333"/><circle cx="6.09" cy="3.14" r="0.15" fill="#333"/><circle cx="7.35" cy="3.14" r="0.15" fill="#333"/><circle cx="3.68" cy="2.99" r="0.15" fill="#333"/><circle cx="6.24" cy="2.46" r="0.15" fill="#333"/><circle cx="7.73" cy="2.41" r="0.15" fill="#333"/></pattern><pattern id="black_shaved-3" data-name="black shaved" width="7.93" height="5.68" patternTransform="matrix(-0.82, 0, 0, 1, -18.29, -10.03)" patternUnits="userSpaceOnUse" viewBox="0 0 7.93 5.68"><rect width="7.93" height="5.68" fill="none"/><circle cx="4.16" cy="0.15" r="0.15" fill="#333"/><circle cx="0.68" cy="3.39" r="0.15" fill="#333"/><circle cx="5.56" cy="0.34" r="0.15" fill="#333"/><circle cx="0.15" cy="1.56" r="0.15" fill="#333"/><circle cx="7.2" cy="4.5" r="0.15" fill="#333"/><circle cx="1.6" cy="1.12" r="0.15" fill="#333"/><circle cx="2.28" cy="0.43" r="0.15" fill="#333"/><circle cx="0.18" cy="0.17" r="0.15" fill="#333"/><circle cx="3.39" cy="0.43" r="0.15" fill="#333"/><circle cx="3.86" cy="0.56" r="0.15" fill="#333"/><circle cx="3.48" cy="1.59" r="0.15" fill="#333"/><circle cx="2.42" cy="1.45" r="0.15" fill="#333"/><circle cx="0.92" cy="1.45" r="0.15" fill="#333"/><circle cx="1.41" cy="2.22" r="0.15" fill="#333"/><circle cx="3.05" cy="3.24" r="0.15" fill="#333"/><circle cx="2.89" cy="3.74" r="0.15" fill="#333"/><circle cx="3.56" cy="3.65" r="0.15" fill="#333"/><circle cx="4.35" cy="2.61" r="0.15" fill="#333"/><circle cx="5.46" cy="1.79" r="0.15" fill="#333"/><circle cx="4.31" cy="1.55" r="0.15" fill="#333"/><circle cx="4.79" cy="0.72" r="0.15" fill="#333"/><circle cx="6.24" cy="0.97" r="0.15" fill="#333"/><circle cx="7.01" cy="2.03" r="0.15" fill="#333"/><circle cx="5.51" cy="2.61" r="0.15" fill="#333"/><circle cx="5.93" cy="2.1" r="0.15" fill="#333"/><circle cx="7.62" cy="1.81" r="0.15" fill="#333"/><circle cx="4.79" cy="3.29" r="0.15" fill="#333"/><circle cx="6.43" cy="5.42" r="0.15" fill="#333"/><circle cx="6.86" cy="3.62" r="0.15" fill="#333"/><circle cx="5.32" cy="3.62" r="0.15" fill="#333"/><circle cx="4.02" cy="3.62" r="0.15" fill="#333"/><circle cx="3" cy="2.27" r="0.15" fill="#333"/><circle cx="1.99" cy="2.8" r="0.15" fill="#333"/><circle cx="0.73" cy="2.61" r="0.15" fill="#333"/><circle cx="1.46" cy="3.53" r="0.15" fill="#333"/><circle cx="2.37" cy="3.96" r="0.15" fill="#333"/><circle cx="1.39" cy="4.66" r="0.15" fill="#333"/><circle cx="1.97" cy="5" r="0.15" fill="#333"/><circle cx="2.41" cy="4.9" r="0.15" fill="#333"/><circle cx="0.87" cy="5.1" r="0.15" fill="#333"/><circle cx="1.24" cy="5.05" r="0.15" fill="#333"/><circle cx="0.58" cy="4.32" r="0.15" fill="#333"/><circle cx="0.43" cy="0.56" r="0.15" fill="#333"/><circle cx="1.5" cy="0.56" r="0.15" fill="#333"/><circle cx="3.04" cy="1.04" r="0.15" fill="#333"/><circle cx="2.65" cy="0.65" r="0.15" fill="#333"/><circle cx="4.01" cy="1.04" r="0.15" fill="#333"/><circle cx="7.44" cy="0.32" r="0.15" fill="#333"/><circle cx="6.95" cy="1.23" r="0.15" fill="#333"/><circle cx="7.73" cy="5.24" r="0.15" fill="#333"/><circle cx="3.28" cy="5.39" r="0.15" fill="#333"/><circle cx="1.83" cy="5.48" r="0.15" fill="#333"/><circle cx="1.54" cy="4.08" r="0.15" fill="#333"/><circle cx="2.61" cy="2.88" r="0.15" fill="#333"/><circle cx="3.72" cy="2.2" r="0.15" fill="#333"/><circle cx="4.88" cy="1.96" r="0.15" fill="#333"/><circle cx="6.42" cy="1.81" r="0.15" fill="#333"/><circle cx="5.6" cy="0.94" r="0.15" fill="#333"/><circle cx="6.61" cy="0.51" r="0.15" fill="#333"/><circle cx="7.19" cy="0.85" r="0.15" fill="#333"/><circle cx="7.68" cy="1.09" r="0.15" fill="#333"/><circle cx="7.63" cy="3.94" r="0.15" fill="#333"/><circle cx="7.77" cy="4.86" r="0.15" fill="#333"/><circle cx="7.24" cy="5.53" r="0.15" fill="#333"/><circle cx="6.81" cy="4.86" r="0.15" fill="#333"/><circle cx="6.52" cy="3.99" r="0.15" fill="#333"/><circle cx="5.75" cy="3.94" r="0.15" fill="#333"/><circle cx="5.12" cy="4.28" r="0.15" fill="#333"/><circle cx="5.79" cy="4.94" r="0.15" fill="#333"/><circle cx="4" cy="4.57" r="0.15" fill="#333"/><circle cx="2.84" cy="4.48" r="0.15" fill="#333"/><circle cx="2.16" cy="3.41" r="0.15" fill="#333"/><circle cx="2.16" cy="2.01" r="0.15" fill="#333"/><circle cx="2.94" cy="1.81" r="0.15" fill="#333"/><circle cx="0.86" cy="0.17" r="0.15" fill="#333"/><circle cx="0.23" cy="2.88" r="0.15" fill="#333"/><circle cx="0.67" cy="2.1" r="0.15" fill="#333"/><circle cx="5.4" cy="5.43" r="0.15" fill="#333"/><circle cx="2.65" cy="5.53" r="0.15" fill="#333"/><circle cx="0.47" cy="5.39" r="0.15" fill="#333"/><circle cx="1.15" cy="4.18" r="0.15" fill="#333"/><circle cx="1.2" cy="2.92" r="0.15" fill="#333"/><circle cx="1.54" cy="1.76" r="0.15" fill="#333"/><circle cx="6.8" cy="2.83" r="0.15" fill="#333"/><circle cx="5.01" cy="1.43" r="0.15" fill="#333"/><circle cx="4.92" cy="0.32" r="0.15" fill="#333"/><circle cx="2.21" cy="1.04" r="0.15" fill="#333"/><circle cx="0.81" cy="0.94" r="0.15" fill="#333"/><circle cx="0.23" cy="3.74" r="0.15" fill="#333"/><circle cx="1.25" cy="5.53" r="0.15" fill="#333"/><circle cx="2.07" cy="4.47" r="0.15" fill="#333"/><circle cx="4.14" cy="5.48" r="0.15" fill="#333"/><circle cx="4.87" cy="5.43" r="0.15" fill="#333"/><circle cx="3.81" cy="5.24" r="0.15" fill="#333"/><circle cx="4.43" cy="5.19" r="0.15" fill="#333"/><circle cx="5.21" cy="4.95" r="0.15" fill="#333"/><circle cx="4.34" cy="3.36" r="0.15" fill="#333"/><circle cx="5.5" cy="3.26" r="0.15" fill="#333"/><circle cx="6.41" cy="3.6" r="0.15" fill="#333"/><circle cx="4.29" cy="2.15" r="0.15" fill="#333"/><circle cx="5.06" cy="2.68" r="0.15" fill="#333"/><circle cx="3.48" cy="4.73" r="0.15" fill="#333"/><circle cx="3.39" cy="4.01" r="0.15" fill="#333"/><circle cx="4.45" cy="4.15" r="0.15" fill="#333"/><circle cx="4.79" cy="4.97" r="0.15" fill="#333"/><circle cx="6.09" cy="4.59" r="0.15" fill="#333"/><circle cx="6.09" cy="3.14" r="0.15" fill="#333"/><circle cx="7.35" cy="3.14" r="0.15" fill="#333"/><circle cx="3.68" cy="2.99" r="0.15" fill="#333"/><circle cx="6.24" cy="2.46" r="0.15" fill="#333"/><circle cx="7.73" cy="2.41" r="0.15" fill="#333"/></pattern><pattern id="black_shaved-5" data-name="black shaved" width="7.93" height="5.68" patternTransform="translate(29.27 -10.6) scale(0.81 1)" patternUnits="userSpaceOnUse" viewBox="0 0 7.93 5.68"><rect width="7.93" height="5.68" fill="none"/><circle cx="4.16" cy="0.15" r="0.15" fill="#333"/><circle cx="0.68" cy="3.39" r="0.15" fill="#333"/><circle cx="5.56" cy="0.34" r="0.15" fill="#333"/><circle cx="0.15" cy="1.56" r="0.15" fill="#333"/><circle cx="7.2" cy="4.5" r="0.15" fill="#333"/><circle cx="1.6" cy="1.12" r="0.15" fill="#333"/><circle cx="2.28" cy="0.43" r="0.15" fill="#333"/><circle cx="0.18" cy="0.17" r="0.15" fill="#333"/><circle cx="3.39" cy="0.43" r="0.15" fill="#333"/><circle cx="3.86" cy="0.56" r="0.15" fill="#333"/><circle cx="3.48" cy="1.59" r="0.15" fill="#333"/><circle cx="2.42" cy="1.45" r="0.15" fill="#333"/><circle cx="0.92" cy="1.45" r="0.15" fill="#333"/><circle cx="1.41" cy="2.22" r="0.15" fill="#333"/><circle cx="3.05" cy="3.24" r="0.15" fill="#333"/><circle cx="2.89" cy="3.74" r="0.15" fill="#333"/><circle cx="3.56" cy="3.65" r="0.15" fill="#333"/><circle cx="4.35" cy="2.61" r="0.15" fill="#333"/><circle cx="5.46" cy="1.79" r="0.15" fill="#333"/><circle cx="4.31" cy="1.55" r="0.15" fill="#333"/><circle cx="4.79" cy="0.72" r="0.15" fill="#333"/><circle cx="6.24" cy="0.97" r="0.15" fill="#333"/><circle cx="7.01" cy="2.03" r="0.15" fill="#333"/><circle cx="5.51" cy="2.61" r="0.15" fill="#333"/><circle cx="5.93" cy="2.1" r="0.15" fill="#333"/><circle cx="7.62" cy="1.81" r="0.15" fill="#333"/><circle cx="4.79" cy="3.29" r="0.15" fill="#333"/><circle cx="6.43" cy="5.42" r="0.15" fill="#333"/><circle cx="6.86" cy="3.62" r="0.15" fill="#333"/><circle cx="5.32" cy="3.62" r="0.15" fill="#333"/><circle cx="4.02" cy="3.62" r="0.15" fill="#333"/><circle cx="3" cy="2.27" r="0.15" fill="#333"/><circle cx="1.99" cy="2.8" r="0.15" fill="#333"/><circle cx="0.73" cy="2.61" r="0.15" fill="#333"/><circle cx="1.46" cy="3.53" r="0.15" fill="#333"/><circle cx="2.37" cy="3.96" r="0.15" fill="#333"/><circle cx="1.39" cy="4.66" r="0.15" fill="#333"/><circle cx="1.97" cy="5" r="0.15" fill="#333"/><circle cx="2.41" cy="4.9" r="0.15" fill="#333"/><circle cx="0.87" cy="5.1" r="0.15" fill="#333"/><circle cx="1.24" cy="5.05" r="0.15" fill="#333"/><circle cx="0.58" cy="4.32" r="0.15" fill="#333"/><circle cx="0.43" cy="0.56" r="0.15" fill="#333"/><circle cx="1.5" cy="0.56" r="0.15" fill="#333"/><circle cx="3.04" cy="1.04" r="0.15" fill="#333"/><circle cx="2.65" cy="0.65" r="0.15" fill="#333"/><circle cx="4.01" cy="1.04" r="0.15" fill="#333"/><circle cx="7.44" cy="0.32" r="0.15" fill="#333"/><circle cx="6.95" cy="1.23" r="0.15" fill="#333"/><circle cx="7.73" cy="5.24" r="0.15" fill="#333"/><circle cx="3.28" cy="5.39" r="0.15" fill="#333"/><circle cx="1.83" cy="5.48" r="0.15" fill="#333"/><circle cx="1.54" cy="4.08" r="0.15" fill="#333"/><circle cx="2.61" cy="2.88" r="0.15" fill="#333"/><circle cx="3.72" cy="2.2" r="0.15" fill="#333"/><circle cx="4.88" cy="1.96" r="0.15" fill="#333"/><circle cx="6.42" cy="1.81" r="0.15" fill="#333"/><circle cx="5.6" cy="0.94" r="0.15" fill="#333"/><circle cx="6.61" cy="0.51" r="0.15" fill="#333"/><circle cx="7.19" cy="0.85" r="0.15" fill="#333"/><circle cx="7.68" cy="1.09" r="0.15" fill="#333"/><circle cx="7.63" cy="3.94" r="0.15" fill="#333"/><circle cx="7.77" cy="4.86" r="0.15" fill="#333"/><circle cx="7.24" cy="5.53" r="0.15" fill="#333"/><circle cx="6.81" cy="4.86" r="0.15" fill="#333"/><circle cx="6.52" cy="3.99" r="0.15" fill="#333"/><circle cx="5.75" cy="3.94" r="0.15" fill="#333"/><circle cx="5.12" cy="4.28" r="0.15" fill="#333"/><circle cx="5.79" cy="4.94" r="0.15" fill="#333"/><circle cx="4" cy="4.57" r="0.15" fill="#333"/><circle cx="2.84" cy="4.48" r="0.15" fill="#333"/><circle cx="2.16" cy="3.41" r="0.15" fill="#333"/><circle cx="2.16" cy="2.01" r="0.15" fill="#333"/><circle cx="2.94" cy="1.81" r="0.15" fill="#333"/><circle cx="0.86" cy="0.17" r="0.15" fill="#333"/><circle cx="0.23" cy="2.88" r="0.15" fill="#333"/><circle cx="0.67" cy="2.1" r="0.15" fill="#333"/><circle cx="5.4" cy="5.43" r="0.15" fill="#333"/><circle cx="2.65" cy="5.53" r="0.15" fill="#333"/><circle cx="0.47" cy="5.39" r="0.15" fill="#333"/><circle cx="1.15" cy="4.18" r="0.15" fill="#333"/><circle cx="1.2" cy="2.92" r="0.15" fill="#333"/><circle cx="1.54" cy="1.76" r="0.15" fill="#333"/><circle cx="6.8" cy="2.83" r="0.15" fill="#333"/><circle cx="5.01" cy="1.43" r="0.15" fill="#333"/><circle cx="4.92" cy="0.32" r="0.15" fill="#333"/><circle cx="2.21" cy="1.04" r="0.15" fill="#333"/><circle cx="0.81" cy="0.94" r="0.15" fill="#333"/><circle cx="0.23" cy="3.74" r="0.15" fill="#333"/><circle cx="1.25" cy="5.53" r="0.15" fill="#333"/><circle cx="2.07" cy="4.47" r="0.15" fill="#333"/><circle cx="4.14" cy="5.48" r="0.15" fill="#333"/><circle cx="4.87" cy="5.43" r="0.15" fill="#333"/><circle cx="3.81" cy="5.24" r="0.15" fill="#333"/><circle cx="4.43" cy="5.19" r="0.15" fill="#333"/><circle cx="5.21" cy="4.95" r="0.15" fill="#333"/><circle cx="4.34" cy="3.36" r="0.15" fill="#333"/><circle cx="5.5" cy="3.26" r="0.15" fill="#333"/><circle cx="6.41" cy="3.6" r="0.15" fill="#333"/><circle cx="4.29" cy="2.15" r="0.15" fill="#333"/><circle cx="5.06" cy="2.68" r="0.15" fill="#333"/><circle cx="3.48" cy="4.73" r="0.15" fill="#333"/><circle cx="3.39" cy="4.01" r="0.15" fill="#333"/><circle cx="4.45" cy="4.15" r="0.15" fill="#333"/><circle cx="4.79" cy="4.97" r="0.15" fill="#333"/><circle cx="6.09" cy="4.59" r="0.15" fill="#333"/><circle cx="6.09" cy="3.14" r="0.15" fill="#333"/><circle cx="7.35" cy="3.14" r="0.15" fill="#333"/><circle cx="3.68" cy="2.99" r="0.15" fill="#333"/><circle cx="6.24" cy="2.46" r="0.15" fill="#333"/><circle cx="7.73" cy="2.41" r="0.15" fill="#333"/></pattern><pattern id="black_shaved-7" data-name="black shaved" width="7.93" height="5.68" patternTransform="matrix(-0.81, 0, 0, 1, -1.97, -10.6)" patternUnits="userSpaceOnUse" viewBox="0 0 7.93 5.68"><rect width="7.93" height="5.68" fill="none"/><circle cx="4.16" cy="0.15" r="0.15" fill="#333"/><circle cx="0.68" cy="3.39" r="0.15" fill="#333"/><circle cx="5.56" cy="0.34" r="0.15" fill="#333"/><circle cx="0.15" cy="1.56" r="0.15" fill="#333"/><circle cx="7.2" cy="4.5" r="0.15" fill="#333"/><circle cx="1.6" cy="1.12" r="0.15" fill="#333"/><circle cx="2.28" cy="0.43" r="0.15" fill="#333"/><circle cx="0.18" cy="0.17" r="0.15" fill="#333"/><circle cx="3.39" cy="0.43" r="0.15" fill="#333"/><circle cx="3.86" cy="0.56" r="0.15" fill="#333"/><circle cx="3.48" cy="1.59" r="0.15" fill="#333"/><circle cx="2.42" cy="1.45" r="0.15" fill="#333"/><circle cx="0.92" cy="1.45" r="0.15" fill="#333"/><circle cx="1.41" cy="2.22" r="0.15" fill="#333"/><circle cx="3.05" cy="3.24" r="0.15" fill="#333"/><circle cx="2.89" cy="3.74" r="0.15" fill="#333"/><circle cx="3.56" cy="3.65" r="0.15" fill="#333"/><circle cx="4.35" cy="2.61" r="0.15" fill="#333"/><circle cx="5.46" cy="1.79" r="0.15" fill="#333"/><circle cx="4.31" cy="1.55" r="0.15" fill="#333"/><circle cx="4.79" cy="0.72" r="0.15" fill="#333"/><circle cx="6.24" cy="0.97" r="0.15" fill="#333"/><circle cx="7.01" cy="2.03" r="0.15" fill="#333"/><circle cx="5.51" cy="2.61" r="0.15" fill="#333"/><circle cx="5.93" cy="2.1" r="0.15" fill="#333"/><circle cx="7.62" cy="1.81" r="0.15" fill="#333"/><circle cx="4.79" cy="3.29" r="0.15" fill="#333"/><circle cx="6.43" cy="5.42" r="0.15" fill="#333"/><circle cx="6.86" cy="3.62" r="0.15" fill="#333"/><circle cx="5.32" cy="3.62" r="0.15" fill="#333"/><circle cx="4.02" cy="3.62" r="0.15" fill="#333"/><circle cx="3" cy="2.27" r="0.15" fill="#333"/><circle cx="1.99" cy="2.8" r="0.15" fill="#333"/><circle cx="0.73" cy="2.61" r="0.15" fill="#333"/><circle cx="1.46" cy="3.53" r="0.15" fill="#333"/><circle cx="2.37" cy="3.96" r="0.15" fill="#333"/><circle cx="1.39" cy="4.66" r="0.15" fill="#333"/><circle cx="1.97" cy="5" r="0.15" fill="#333"/><circle cx="2.41" cy="4.9" r="0.15" fill="#333"/><circle cx="0.87" cy="5.1" r="0.15" fill="#333"/><circle cx="1.24" cy="5.05" r="0.15" fill="#333"/><circle cx="0.58" cy="4.32" r="0.15" fill="#333"/><circle cx="0.43" cy="0.56" r="0.15" fill="#333"/><circle cx="1.5" cy="0.56" r="0.15" fill="#333"/><circle cx="3.04" cy="1.04" r="0.15" fill="#333"/><circle cx="2.65" cy="0.65" r="0.15" fill="#333"/><circle cx="4.01" cy="1.04" r="0.15" fill="#333"/><circle cx="7.44" cy="0.32" r="0.15" fill="#333"/><circle cx="6.95" cy="1.23" r="0.15" fill="#333"/><circle cx="7.73" cy="5.24" r="0.15" fill="#333"/><circle cx="3.28" cy="5.39" r="0.15" fill="#333"/><circle cx="1.83" cy="5.48" r="0.15" fill="#333"/><circle cx="1.54" cy="4.08" r="0.15" fill="#333"/><circle cx="2.61" cy="2.88" r="0.15" fill="#333"/><circle cx="3.72" cy="2.2" r="0.15" fill="#333"/><circle cx="4.88" cy="1.96" r="0.15" fill="#333"/><circle cx="6.42" cy="1.81" r="0.15" fill="#333"/><circle cx="5.6" cy="0.94" r="0.15" fill="#333"/><circle cx="6.61" cy="0.51" r="0.15" fill="#333"/><circle cx="7.19" cy="0.85" r="0.15" fill="#333"/><circle cx="7.68" cy="1.09" r="0.15" fill="#333"/><circle cx="7.63" cy="3.94" r="0.15" fill="#333"/><circle cx="7.77" cy="4.86" r="0.15" fill="#333"/><circle cx="7.24" cy="5.53" r="0.15" fill="#333"/><circle cx="6.81" cy="4.86" r="0.15" fill="#333"/><circle cx="6.52" cy="3.99" r="0.15" fill="#333"/><circle cx="5.75" cy="3.94" r="0.15" fill="#333"/><circle cx="5.12" cy="4.28" r="0.15" fill="#333"/><circle cx="5.79" cy="4.94" r="0.15" fill="#333"/><circle cx="4" cy="4.57" r="0.15" fill="#333"/><circle cx="2.84" cy="4.48" r="0.15" fill="#333"/><circle cx="2.16" cy="3.41" r="0.15" fill="#333"/><circle cx="2.16" cy="2.01" r="0.15" fill="#333"/><circle cx="2.94" cy="1.81" r="0.15" fill="#333"/><circle cx="0.86" cy="0.17" r="0.15" fill="#333"/><circle cx="0.23" cy="2.88" r="0.15" fill="#333"/><circle cx="0.67" cy="2.1" r="0.15" fill="#333"/><circle cx="5.4" cy="5.43" r="0.15" fill="#333"/><circle cx="2.65" cy="5.53" r="0.15" fill="#333"/><circle cx="0.47" cy="5.39" r="0.15" fill="#333"/><circle cx="1.15" cy="4.18" r="0.15" fill="#333"/><circle cx="1.2" cy="2.92" r="0.15" fill="#333"/><circle cx="1.54" cy="1.76" r="0.15" fill="#333"/><circle cx="6.8" cy="2.83" r="0.15" fill="#333"/><circle cx="5.01" cy="1.43" r="0.15" fill="#333"/><circle cx="4.92" cy="0.32" r="0.15" fill="#333"/><circle cx="2.21" cy="1.04" r="0.15" fill="#333"/><circle cx="0.81" cy="0.94" r="0.15" fill="#333"/><circle cx="0.23" cy="3.74" r="0.15" fill="#333"/><circle cx="1.25" cy="5.53" r="0.15" fill="#333"/><circle cx="2.07" cy="4.47" r="0.15" fill="#333"/><circle cx="4.14" cy="5.48" r="0.15" fill="#333"/><circle cx="4.87" cy="5.43" r="0.15" fill="#333"/><circle cx="3.81" cy="5.24" r="0.15" fill="#333"/><circle cx="4.43" cy="5.19" r="0.15" fill="#333"/><circle cx="5.21" cy="4.95" r="0.15" fill="#333"/><circle cx="4.34" cy="3.36" r="0.15" fill="#333"/><circle cx="5.5" cy="3.26" r="0.15" fill="#333"/><circle cx="6.41" cy="3.6" r="0.15" fill="#333"/><circle cx="4.29" cy="2.15" r="0.15" fill="#333"/><circle cx="5.06" cy="2.68" r="0.15" fill="#333"/><circle cx="3.48" cy="4.73" r="0.15" fill="#333"/><circle cx="3.39" cy="4.01" r="0.15" fill="#333"/><circle cx="4.45" cy="4.15" r="0.15" fill="#333"/><circle cx="4.79" cy="4.97" r="0.15" fill="#333"/><circle cx="6.09" cy="4.59" r="0.15" fill="#333"/><circle cx="6.09" cy="3.14" r="0.15" fill="#333"/><circle cx="7.35" cy="3.14" r="0.15" fill="#333"/><circle cx="3.68" cy="2.99" r="0.15" fill="#333"/><circle cx="6.24" cy="2.46" r="0.15" fill="#333"/><circle cx="7.73" cy="2.41" r="0.15" fill="#333"/></pattern></defs><title>Asset 1</title><g id="Layer_2" data-name="Layer 2"><g id="OLD_TEAM_MEMBERS" data-name="OLD TEAM MEMBERS"><circle cx="70" cy="87.2" r="70" fill="#109cd7"/></g><g id="eyes_nose_mouth" data-name="eyes nose mouth"><g clip-path="url(#clip-path)"><path d="M50.21,156.18H70V111.38s-3.22-4.57-17.64-7.24Z" transform="translate(0 -4.74)" fill="#ac7a56"/><path d="M89.76,156.54H70V111.73s3.22-4.57,17.64-7.24Z" transform="translate(0 -4.74)" fill="#a6714a"/><path d="M70,141.6C55.89,139.46,51.9,118,51.9,118c-.25-.46-5.67.3-6.23.34a29.69,29.69,0,0,0-9.24,2c-5.33,2.13-10.72,4.92-14.32,9.54a83.47,83.47,0,0,0-10.16,18.58c-2.2,5.69-3.39,16-3.39,16.51,0,5.11,30.64,7.83,61.32,8h.25c30.68-.16,61.35-2.88,61.32-8,0-.51-1.2-10.82-3.39-16.51a83.47,83.47,0,0,0-10.16-18.58c-3.59-4.62-9-7.42-14.32-9.54a29.69,29.69,0,0,0-9.24-2c-.56,0-6-.8-6.23-.34,0,0-4,21.46-18.1,23.6" transform="translate(0 -4.74)" fill="#373737"/><path d="M70,111.87a36,36,0,0,0,13.66-2.81A37.54,37.54,0,0,0,97,99.42c2.09-2.51,3-5.85,3.62-9a44.28,44.28,0,0,0,.73-5.09c1.4,0,2.57-.37,3.13-1.67.74-1.7.15-3.51.65-5.28.24-.86.69-1.65.92-2.51a9.57,9.57,0,0,0,.24-2.73c-.07-3.36-.58-6.69-.51-10.05,0-1.87.45-3.72.13-5.58A1.65,1.65,0,0,0,104.11,56a2.36,2.36,0,0,0-2,1.46,13.56,13.56,0,0,0,.75-2.33q.9-3,1.53-6.11a50.84,50.84,0,0,0,.9-17.71,24.81,24.81,0,0,0-2.79-8.52,19.87,19.87,0,0,0-10-9.08A30.65,30.65,0,0,0,82,12.2c-3.69-.05-8.37-.2-12.08-.1" transform="translate(0 -4.74)" fill="#ac7a56"/><path d="M70.4,111.87a36,36,0,0,1-13.66-2.81,37.54,37.54,0,0,1-13.36-9.64c-2.09-2.51-3-5.85-3.62-9A44.28,44.28,0,0,1,39,85.34c-1.4,0-2.57-.37-3.13-1.67-.74-1.7-.15-3.51-.65-5.28-.24-.86-.69-1.65-.92-2.51a9.57,9.57,0,0,1-.24-2.73c.07-3.36.58-6.69.51-10.05,0-1.87-.45-3.72-.13-5.58A1.65,1.65,0,0,1,36.24,56a2.36,2.36,0,0,1,2,1.46,13.56,13.56,0,0,1-.75-2.33q-.9-3-1.53-6.11A50.84,50.84,0,0,1,35,31.33a24.81,24.81,0,0,1,2.79-8.52,19.87,19.87,0,0,1,10-9.08A30.65,30.65,0,0,1,58.31,12.2c3.69-.05,8.37-.2,12.08-.1" transform="translate(0 -4.74)" fill="#ac7a56"/><path d="M70,111.87a36,36,0,0,0,13.66-2.81A37.54,37.54,0,0,0,97,99.42c2.09-2.51,3-5.85,3.62-9a44.28,44.28,0,0,0,.73-5.09c1.4,0,2.57-.37,3.13-1.67.74-1.7.15-3.51.65-5.28.24-.86.69-1.65.92-2.51a9.57,9.57,0,0,0,.24-2.73c-.07-3.36-.58-6.69-.51-10.05,0-1.87.45-3.72.13-5.58A1.65,1.65,0,0,0,104.11,56a2.36,2.36,0,0,0-2,1.46,13.56,13.56,0,0,0,.75-2.33q.9-3,1.53-6.11a50.84,50.84,0,0,0,.9-17.71,24.81,24.81,0,0,0-2.79-8.52,19.87,19.87,0,0,0-10-9.08A30.65,30.65,0,0,0,82,12.2c-3.69-.05-8.37-.2-12.08-.1" transform="translate(0 -4.74)" fill="#a6714a"/><path d="M70,96.09s6.64-1.37,11.73,1.25c0,0,18.82-21.12,19.46-31.06,1.42,7.69.26,19.31.26,19.31a42.85,42.85,0,0,1-.76,5.09c-.69,3.13-1.59,6.47-3.75,9a38.88,38.88,0,0,1-13.84,9.64A33.24,33.24,0,0,1,70,112.12" transform="translate(0 -4.74)" opacity="0.05" fill="url(#black_shaved)"/><path d="M70.08,96.42S63.56,95,58.56,97.67c0,0-18.47-21.12-19.11-31.06-1.4,7.69-.25,19.31-.25,19.31A43.59,43.59,0,0,0,39.94,91c.68,3.13,1.56,6.47,3.68,9a38.17,38.17,0,0,0,13.58,9.64,32.13,32.13,0,0,0,12.87,2.81" transform="translate(0 -4.74)" opacity="0.05" fill="url(#black_shaved-3)"/><path d="M70,79.59c7.56.34,12.34,8.16,12.34,8.16H70.12" transform="translate(0 -4.74)" opacity="0.1" fill="url(#black_shaved-5)"/><path d="M70,79.59c-7.56.34-12.34,8.16-12.34,8.16H69.8" transform="translate(0 -4.74)" opacity="0.1" fill="url(#black_shaved-7)"/><path d="M70,4.74" transform="translate(0 -4.74)" fill="none" stroke="#333" stroke-miterlimit="10"/><path d="M70,25.27a43.41,43.41,0,0,1,10.23,1.09c7.8,1.71,14.58,5.9,17.74,13.46,2.76,6.59,2.79,14.09,2.51,21.06-.07,1.84.3,5.71-.71,7.38L101.07,66c2.1-10.7,6.5-21.35,5.42-32.42-.77-7.92-3.91-15.64-10.07-20.88-7.27-6.19-17.18-8-26.46-8" transform="translate(0 -4.74)" fill="#333"/><path d="M70.08,25.27a43.41,43.41,0,0,0-10.23,1.09c-7.8,1.71-14.58,5.9-17.74,13.46-2.76,6.59-2.79,14.09-2.51,21.06.07,1.84-.3,5.71.71,7.38L39,66c-2.1-10.7-6.5-21.35-5.42-32.42.77-7.92,3.91-15.64,10.07-20.88,7.27-6.19,17.18-8,26.46-8" transform="translate(0 -4.74)" fill="#333"/><path d="M70,4.74" transform="translate(0 -4.74)" fill="none" stroke="#333" stroke-miterlimit="10"/><path d="M71.72,29S53.8,33.67,51.17,41.67c0,0-2-5.17,1-6.33a10.26,10.26,0,0,0-5,5S47,35.4,49.84,34.17c0,0-7,1.67-8.17,9,0,0-8.5-19.17,10.67-27.33C52.34,15.83,72.72,12.5,71.72,29Z" transform="translate(0 -4.74)" fill="#333"/><path d="M84.87,23.72S68.7,27.92,64.32,36.39c0,0-2-5.17,1-6.33a10.26,10.26,0,0,0-5,5s-.17-4.94,2.67-6.17c0,0-7.81,3.2-9,10.54,0,0-7.69-20.7,11.48-28.87C65.49,10.55,85.87,7.22,84.87,23.72Z" transform="translate(0 -4.74)" fill="#333"/><path d="M91.57,20.91s-1.09,9.68-5.06,11.64c0,0,2.84.64,3.22-1a5.4,5.4,0,0,1-2.23,3s2.58-.28,3-1.85a6,6,0,0,1-4.08,4.92S97,40.61,99.87,30C99.87,30,100.09,19.16,91.57,20.91Z" transform="translate(0 -4.74)" fill="#333"/><path d="M78.91,16.06S80,25.74,76.53,28.52c0,0,2.91,0,2.92-1.68a5.4,5.4,0,0,1-1.52,3.39s3.56-1,3.64-2.65a4.72,4.72,0,0,1-1,4.33s12.83-.56,13.33-9.17C93.91,22.76,86.83,12.48,78.91,16.06Z" transform="translate(0 -4.74)" fill="#333"/><path d="M96.41,31.92s.5,11.33-3.83,11.83c0,0,4.69,1.83,5.68-11Z" transform="translate(0 -4.74)" fill="#333"/><path d="M52,60.54s3.74-4.08,7.48,0" transform="translate(0 -4.74)" fill="none" stroke="#69462c" stroke-linecap="round" stroke-linejoin="round" stroke-width="3"/><path d="M73.35,76a3.72,3.72,0,0,1-3.59,3.56,3.58,3.58,0,0,1,0-7.11A3.72,3.72,0,0,1,73.35,76Z" transform="translate(0 -4.74)" fill="#ac7a56"/><path d="M82.29,60.54s3.74-4.08,7.48,0" transform="translate(0 -4.74)" fill="none" stroke="#69462c" stroke-linecap="round" stroke-linejoin="round" stroke-width="3"/><path d="M82.3,87.79c-13.61,15.49-24.68,0-24.68,0S82.25,87.72,82.3,87.79Z" transform="translate(0 -4.74)" fill="#fff"/></g></g></g></svg>