<?xml version="1.0" encoding="utf-8"?>
<!-- Generator: Adobe Illustrator 19.2.1, SVG Export Plug-In . SVG Version: 6.00 Build 0)  -->
<svg version="1.1" id="Layer_1" xmlns="http://www.w3.org/2000/svg" xmlns:xlink="http://www.w3.org/1999/xlink" x="0px" y="0px"
	 viewBox="0 0 180 180" style="enable-background:new 0 0 180 180;" xml:space="preserve">
<style type="text/css">
	.st0{fill:#109ED9;}
	.st1{clip-path:url(#SVGID_2_);}
	.st2{fill:#333333;}
	.st3{fill:#191818;}
	.st4{fill:#F3D5B4;}
	.st5{fill:#ECCEB0;stroke:#D5BA9D;stroke-miterlimit:10;}
	.st6{fill:#231F20;stroke:#231F20;stroke-width:3;stroke-miterlimit:10;}
	.st7{fill:none;stroke:#A98C71;stroke-width:3;stroke-linecap:round;stroke-linejoin:round;stroke-miterlimit:10;}
	.st8{fill:#FFFFFF;}
	.st9{fill:#ED483B;}
	.st10{fill:#F38681;}
	.st11{fill:#EFEFEF;}
	.st12{fill:#929497;stroke:url(#SVGID_3_);stroke-miterlimit:10;}
	.st13{fill:#929497;stroke:url(#SVGID_4_);stroke-miterlimit:10;}
	.st14{fill:#929497;stroke:url(#SVGID_5_);stroke-miterlimit:10;}
	.st15{fill:#929497;stroke:url(#SVGID_6_);stroke-miterlimit:10;}
	.st16{fill:#929497;stroke:url(#SVGID_7_);stroke-miterlimit:10;}
	.st17{fill:#929497;stroke:url(#SVGID_8_);stroke-miterlimit:10;}
	.st18{fill:#929497;stroke:url(#SVGID_9_);stroke-miterlimit:10;}
	.st19{fill:#929497;stroke:url(#SVGID_10_);stroke-miterlimit:10;}
</style>
<g id="Layer_2">
</g>
<g>
	<circle class="st0" cx="90" cy="103" r="70"/>
	<g>
		<g>
			<defs>
				<path id="SVGID_1_" d="M160,103c0,38.7-31.3,70-70,70s-70-31.3-70-70S51.3-4.7,90-4.7C128.6-4.7,160,64.3,160,103z"/>
			</defs>
			<clipPath id="SVGID_2_">
				<use xlink:href="#SVGID_1_"  style="overflow:visible;"/>
			</clipPath>
			<g class="st1">
				<ellipse class="st2" cx="89.6" cy="67.4" rx="32.6" ry="37"/>
				<path class="st2" d="M128.5,116.3c-9.1,17-12.7,14-39.2,14l-0.5-4.4c-22.9,5.6-36.4,12.1-41.1-12.6c-2.4-12.7-5.8-51.5-5.8-51.5
					c0-26.2,21.5-46.3,48.1-46.3l0,0c26.6,0,48.1,20,48.1,46.3L128.5,116.3z"/>
				<path class="st3" d="M90.6,131.5c26.6,0,36.6,4.8,41.7-21.9c2.2-11.4,4.7-35.7,5.6-47.3c2.1-25.9-22.2-47.1-47.7-46.7
					L90.6,131.5z"/>
				<path class="st4" d="M128.1,83.8c-1.7,10.8-24.3,23-27.8,33.3c-6.8,20.4,3,36.1-11.4,36.1c-13.8,0-29.8-23.4-9.7-33.6
					c10.3-5.2-27.2-22-29.5-35.8C44,50.2,67.2,27.9,88.8,27.9C110.5,27.9,133.3,50.1,128.1,83.8z"/>
				<path class="st5" d="M89.7,30c21.7,0,44.5,18.4,39.2,46.3c-2,10.5-22.9,28.7-29.1,41.6c-2.3,4.8,8.3,11.2,7.8,15.1
					c-1.4,11.7-8.1,19.4-18,19.4"/>
				<path class="st2" d="M99.5,124.5c3.4,0.1,4.8,1.7,4.8,1.7s5.7-1.8,5.7-2.9c-0.1-1.9,1-0.3,3.9,0.7c4,1.5-12.6-6.2-12.6-6.2
					c-2.5-3.2,18.9-12,22-16.6c5.9-8.6,9.6-30.3,8-45.9c-0.8-7.5-1-9.7-9.6-20.5c-1.5-1.9-1.5-4.3-5.1-6.8c-1.8-1.2-7.3-4.9-9.4-5.3
					c-13.1-2.8-16.8-3.3-16.8-3.3S80,18.2,69.5,20.7c-5.2,1.2-10.2,9-12.9,13.6c-2,3.4-4,4.8-4.9,8.6c-2.8,11.3-5.7,35.5-0.8,46.3
					c4.4,9.8,11.1,27.5,15.6,38.4c1,2.5,4,3.6,10.5,1c5.1-0.6-1.4,0.2-2-0.2l0.3,0.6c0,0-1.7,0.1,0,0.1c4.5,0,0.8-0.8,6-0.6
					c2.1,0.1,1.1-7.9,1.1-7.9s0.5-9.6-0.7-11.4c-1.6-2.3-6.2-3-8.5-4.6c-2.5-1.7-3-1.6-4.8-4c-4.1-5.7-5.9-14.4-7-18.6
					c-1-4.1-1.4-12.4-0.7-16.7c0.6-3.5-1.8,7.9,0.3-0.7c0.4-1.6,0.1-3.6-0.2-6.4c-0.1-1.6-0.1-2.7,1.3-2.9
					c33.4-6.6,19.9-2.1,50.9-15c3.4-1.4,3.6,6.2,3.6,10.4c0,3.7,1.4,7.7,1.9,14.7c0.3,5-0.2,20.2-1.1,25.1
					c-0.7,3.7-5.7,10.2-7.6,11.8c-9,7.3-8.5,3.4-10.9,7c0,0-4,15.4-0.1,18.6c2.9,2.4,1.9,1.2,5.7,2.7"/>
				<path class="st6" d="M117.3,111.8"/>
				<path class="st7" d="M73.2,66.5c0,0,3.7-4.1,7.5,0"/>
				<path class="st4" d="M93.2,76.1c0,1.8-1.6,3.2-3.2,3.2s-2.9-1.4-2.9-3.2c0-1.8,1.3-3.2,2.9-3.2S93.2,74.3,93.2,76.1z"/>
				<path class="st8" d="M102.1,89.6c0,3-2.9,7.9-6.3,8.6l-4.5,0.5l-4.7-0.5c-3-0.6-7.3-5.6-7.3-8.6"/>
				<path class="st9" d="M118,139.3c-1-3.8-5.4-6-8.5-6.8c-0.3-0.1-0.9-0.2-0.9-0.2l-13.8,6.2c0,0-4,9.8-5.2,13.9
					c-1.6,5.7-0.6,12.9,0,18.4c0.1,0,0.4,3.5,0.5,3.5c11.9,0.7,22.8-3,32.3-8.1C121.4,159.1,118.7,142.2,118,139.3z"/>
				<path class="st7" d="M99.8,66.5c0,0,3.7-4.1,7.5,0"/>
				<path class="st5" d="M97,134.3"/>
				<path class="st9" d="M90,174c0.1,0,0.7,0.1,0.8,0.1l-1.1-21.7c0,0,21-15.6,0.4-14.6c-5.6,0.3-19.9-7.4-19.9-7.4H70
					c0,0-0.2-0.1-1.8,0.3c-2.5,0.6-6.8,3.2-7.4,7.2c-0.4,2.8-4.1,19.2-5.8,27.3C69.4,173.4,77.8,174,90,174z"/>
				<path class="st10" d="M60.6,139.4c0,0,29.7,11.5,57.8,1.5l0.7,3.7c0,0-18.9,9.2-59.3-1.2L60.6,139.4z"/>
				<path class="st10" d="M57,155.6c0,0,36,11.5,64,1.5l0.7,4.4c0,0-24.9,11.7-65.6-1.7L57,155.6z"/>
				<path class="st10" d="M58.7,148c0,0,33,10.6,61,0.6l0.9,4.8c0,0-22.4,9.7-62.8-0.7L58.7,148z"/>
				<path class="st3" d="M115.8,37.6c0,0-12.4,16.2-29.6,16.2c0,0,10.7,1,25.8-18.4"/>
				<circle class="st11" cx="83.9" cy="139.5" r="1.6"/>
				<circle class="st11" cx="86.1" cy="142" r="1.6"/>
				<circle class="st11" cx="97" cy="139.5" r="1.6"/>
				<circle class="st11" cx="99.3" cy="137" r="1.6"/>
				
					<linearGradient id="SVGID_3_" gradientUnits="userSpaceOnUse" x1="78.3313" y1="46.6" x2="82.4866" y2="46.6" gradientTransform="matrix(1 0 0 -1 0 180)">
					<stop  offset="0" style="stop-color:#2D2A2D"/>
					<stop  offset="0.1501" style="stop-color:#4F4D4F;stop-opacity:0.8499"/>
					<stop  offset="0.4461" style="stop-color:#8C8B8D;stop-opacity:0.5539"/>
					<stop  offset="0.6967" style="stop-color:#B9B9BB;stop-opacity:0.3033"/>
					<stop  offset="0.889" style="stop-color:#D5D5D7;stop-opacity:0.111"/>
					<stop  offset="1" style="stop-color:#DFE0E1;stop-opacity:0"/>
				</linearGradient>
				<circle class="st12" cx="80.4" cy="133.4" r="1.6"/>
				
					<linearGradient id="SVGID_4_" gradientUnits="userSpaceOnUse" x1="76.0793" y1="49.5" x2="80.2356" y2="49.5" gradientTransform="matrix(1 0 0 -1 0 180)">
					<stop  offset="0" style="stop-color:#2D2A2D"/>
					<stop  offset="0.1501" style="stop-color:#4F4D4F;stop-opacity:0.8499"/>
					<stop  offset="0.4461" style="stop-color:#8C8B8D;stop-opacity:0.5539"/>
					<stop  offset="0.6967" style="stop-color:#B9B9BB;stop-opacity:0.3033"/>
					<stop  offset="0.889" style="stop-color:#D5D5D7;stop-opacity:0.111"/>
					<stop  offset="1" style="stop-color:#DFE0E1;stop-opacity:0"/>
				</linearGradient>
				<circle class="st13" cx="78.2" cy="130.5" r="1.6"/>
				
					<linearGradient id="SVGID_5_" gradientUnits="userSpaceOnUse" x1="79.9441" y1="43.4" x2="84.0998" y2="43.4" gradientTransform="matrix(1 0 0 -1 0 180)">
					<stop  offset="0" style="stop-color:#2D2A2D"/>
					<stop  offset="0.1501" style="stop-color:#4F4D4F;stop-opacity:0.8499"/>
					<stop  offset="0.4461" style="stop-color:#8C8B8D;stop-opacity:0.5539"/>
					<stop  offset="0.6967" style="stop-color:#B9B9BB;stop-opacity:0.3033"/>
					<stop  offset="0.889" style="stop-color:#D5D5D7;stop-opacity:0.111"/>
					<stop  offset="1" style="stop-color:#DFE0E1;stop-opacity:0"/>
				</linearGradient>
				<circle class="st14" cx="82" cy="136.6" r="1.6"/>
				
					<linearGradient id="SVGID_6_" gradientUnits="userSpaceOnUse" x1="86.3118" y1="35.1" x2="90.4675" y2="35.1" gradientTransform="matrix(1 0 0 -1 0 180)">
					<stop  offset="0" style="stop-color:#2D2A2D"/>
					<stop  offset="0.1501" style="stop-color:#4F4D4F;stop-opacity:0.8499"/>
					<stop  offset="0.4461" style="stop-color:#8C8B8D;stop-opacity:0.5539"/>
					<stop  offset="0.6967" style="stop-color:#B9B9BB;stop-opacity:0.3033"/>
					<stop  offset="0.889" style="stop-color:#D5D5D7;stop-opacity:0.111"/>
					<stop  offset="1" style="stop-color:#DFE0E1;stop-opacity:0"/>
				</linearGradient>
				<circle class="st15" cx="88.4" cy="144.9" r="1.6"/>
				
					<linearGradient id="SVGID_7_" gradientUnits="userSpaceOnUse" x1="99.718" y1="45.6" x2="103.8743" y2="45.6" gradientTransform="matrix(1 0 0 -1 0 180)">
					<stop  offset="0" style="stop-color:#2D2A2D"/>
					<stop  offset="0.1501" style="stop-color:#4F4D4F;stop-opacity:0.8499"/>
					<stop  offset="0.4461" style="stop-color:#8C8B8D;stop-opacity:0.5539"/>
					<stop  offset="0.6967" style="stop-color:#B9B9BB;stop-opacity:0.3033"/>
					<stop  offset="0.889" style="stop-color:#D5D5D7;stop-opacity:0.111"/>
					<stop  offset="1" style="stop-color:#DFE0E1;stop-opacity:0"/>
				</linearGradient>
				<circle class="st16" cx="101.8" cy="134.4" r="1.6"/>
				
					<linearGradient id="SVGID_8_" gradientUnits="userSpaceOnUse" x1="101.8176" y1="48.5" x2="105.9739" y2="48.5" gradientTransform="matrix(1 0 0 -1 0 180)">
					<stop  offset="0" style="stop-color:#2D2A2D"/>
					<stop  offset="0.1501" style="stop-color:#4F4D4F;stop-opacity:0.8499"/>
					<stop  offset="0.4461" style="stop-color:#8C8B8D;stop-opacity:0.5539"/>
					<stop  offset="0.6967" style="stop-color:#B9B9BB;stop-opacity:0.3033"/>
					<stop  offset="0.889" style="stop-color:#D5D5D7;stop-opacity:0.111"/>
					<stop  offset="1" style="stop-color:#DFE0E1;stop-opacity:0"/>
				</linearGradient>
				<circle class="st17" cx="103.9" cy="131.5" r="1.6"/>
				
					<linearGradient id="SVGID_9_" gradientUnits="userSpaceOnUse" x1="92.428" y1="38.5" x2="96.5842" y2="38.5" gradientTransform="matrix(1 0 0 -1 0 180)">
					<stop  offset="0" style="stop-color:#2D2A2D"/>
					<stop  offset="0.1501" style="stop-color:#4F4D4F;stop-opacity:0.8499"/>
					<stop  offset="0.4461" style="stop-color:#8C8B8D;stop-opacity:0.5539"/>
					<stop  offset="0.6967" style="stop-color:#B9B9BB;stop-opacity:0.3033"/>
					<stop  offset="0.889" style="stop-color:#D5D5D7;stop-opacity:0.111"/>
					<stop  offset="1" style="stop-color:#DFE0E1;stop-opacity:0"/>
				</linearGradient>
				<circle class="st18" cx="94.5" cy="141.5" r="1.6"/>
				
					<linearGradient id="SVGID_10_" gradientUnits="userSpaceOnUse" x1="89.8923" y1="35.7" x2="94.0481" y2="35.7" gradientTransform="matrix(1 0 0 -1 0 180)">
					<stop  offset="0" style="stop-color:#2D2A2D"/>
					<stop  offset="0.1501" style="stop-color:#4F4D4F;stop-opacity:0.8499"/>
					<stop  offset="0.4461" style="stop-color:#8C8B8D;stop-opacity:0.5539"/>
					<stop  offset="0.6967" style="stop-color:#B9B9BB;stop-opacity:0.3033"/>
					<stop  offset="0.889" style="stop-color:#D5D5D7;stop-opacity:0.111"/>
					<stop  offset="1" style="stop-color:#DFE0E1;stop-opacity:0"/>
				</linearGradient>
				<circle class="st19" cx="92" cy="144.3" r="1.6"/>
				<path class="st3" d="M104.6,130.8c-4.6-0.6-6.6-3-7.1-4c-2.2-4.5,1-17.4,1-17.4c2.4-3.6,2.2,0.1,11.2-7.1
					c1.9-1.6,6.7-7.9,7.4-11.6c0.9-4.9,1.5-20.2,1.1-25.1c-0.5-7-1.8-10.9-1.8-14.6c-0.1-4.2-0.1-11.5-3.5-10.1
					c-15.5,6.5-17.7,7.2-22.3,8.6L90.3,21v-4.7c0,0,4.1,3.6,17.2,6.5c2.1,0.5,7.7,4.1,9.4,5.3c3.6,2.5,3.6,4.9,5.1,6.8
					c8.6,10.8,8.8,13,9.6,20.5c1.6,15.6-2.1,37.3-8,45.9c-3.2,4.6-24.5,13.4-22,16.6c0,0,20.1,7.4,16.1,5.9
					c-2.9-1.1-3.5,1.4-3.4,3.3c0.1,1.1-10-1.3-10-1.3s6.8,5.8,3.4,5.7"/>
				<path class="st3" d="M119.6,33.9c0,0-6.9,17-21.8,21c0,0,9.5-1.7,18-22"/>
			</g>
		</g>
	</g>
</g>
</svg>
