<svg id="people" xmlns="http://www.w3.org/2000/svg" xmlns:xlink="http://www.w3.org/1999/xlink" viewBox="0 0 200 200"><defs><style>.cls-1{fill:none;}.cls-2{fill:#109cd7;}.cls-3{clip-path:url(#clip-path);}.cls-4{fill:#d6a271;}.cls-5{fill:#d19463;}.cls-6{fill:#7b7354;}.cls-7{fill:#362f0d;}.cls-8{fill:#6f6348;}.cls-9{fill:#fff;}</style><clipPath id="clip-path"><path class="cls-1" d="M172.93,108.93a70,70,0,1,1-140,0c0-38.66,31.34-94.43,70-94.43S172.93,70.27,172.93,108.93Z"/></clipPath></defs><title>c-frank</title><circle class="cls-2" cx="102.93" cy="108.93" r="70"/><g class="cls-3"><path class="cls-4" d="M89.59,118.91s-6.78,35.45-12.33,43.46h25V121s-2.16.38-12.64-2.09"/><path class="cls-5" d="M114.86,118.91s6.78,35.45,12.33,43.46h-25V121s2.16,0.38,12.64-2.09"/><path class="cls-6" d="M118.81,137.77c0.23-.46,5.48.21,6,0.25a24.48,24.48,0,0,1,8.33,2c4.81,2.13,9.67,4.93,12.91,9.57a86.92,86.92,0,0,1,9.16,18.62c2,5.7,3.06,16,3.06,16.55,0,10.25-110.59,10.9-110.64.65,1.44-7.79,4.93-16.23,7.54-23.63,2.75-7.78,6.39-14.66,13.52-18.28a82.2,82.2,0,0,1,16.7-6.73l16.94,11.6Z"/><path class="cls-5" d="M101.87,125.75c16,0,28.48-15.41,29.91-29.33,0,0.43,2.54-1.16,2.78-1.4,2-2,1.31-5.14,2.25-7.5a17.25,17.25,0,0,0,1.36-9.44c-0.38-2,2.51-4.57,1.56-6.67a2,2,0,0,0-1.41-1,15.67,15.67,0,0,0-5.26.13c0.25,0-.55-9.8-0.61-10.44-0.44-4.87-.82-10.15-2.81-14.71a24.41,24.41,0,0,0-9.38-10.55c-5.54-3.48-12-4.33-18.53-4.33"/><path class="cls-4" d="M102,125.75c-16,0-28.48-15.41-29.91-29.33,0,0.43-2.54-1.16-2.78-1.4-2-2-1.31-5.14-2.25-7.5a17.25,17.25,0,0,1-1.36-9.44c0.38-2-2.51-4.57-1.56-6.67a2,2,0,0,1,1.41-1,15.67,15.67,0,0,1,5.26.13c-0.25,0,.55-9.8.61-10.44,0.44-4.87.82-10.15,2.81-14.71a24.41,24.41,0,0,1,9.38-10.55c5.54-3.48,12-4.33,18.53-4.33"/><path class="cls-7" d="M138.44,64.17A102.11,102.11,0,0,0,135.5,49c-4.37-15-16.76-26.88-32.89-27.37A34.92,34.92,0,0,0,86.2,25.14C71.09,32.52,66.6,51,65.44,66.37c-0.17,2.2-.12,4.75,1.58,6.16,0.89,0.73,2.14,1.06,2.75,2a4.23,4.23,0,0,1,.48,1.89c1,10.41.38,21.3,4.66,30.84,2.16,4.81,5.44,9,8.7,13.15l8.63,11,0.21-2.54a13.7,13.7,0,0,0,9.48,7.15,13.71,13.71,0,0,0,9.5-7.15l0.21,2.54,8.73-11.14c3.29-4.2,6.61-8.45,8.75-13.33,4.18-9.51,3.49-20.32,4.55-30.65a4,4,0,0,1,.54-1.92,7.67,7.67,0,0,1,2.16-1.55C138.93,71.05,138.85,67.28,138.44,64.17ZM130,97.37c-1.36,6.94-4,13.9-9.34,18.77-4.61,4.19-17.06,2.9-17.06-8.48a4.36,4.36,0,0,1-3,0c0,11.38-12.45,12.67-17.06,8.48-5.36-4.87-8-11.83-9.34-18.77a98.88,98.88,0,0,1-1.66-21.58c0.11-4.16-.23-9.48,2-13.19,0-6.53-.55-13.82,5.4-18.1A32,32,0,0,1,102.16,39h0.09a31.22,31.22,0,0,1,22,5.48c5.95,4.28,5.4,11.57,5.4,18.1,2.19,3.71,1.85,9,2,13.19A98.88,98.88,0,0,1,130,97.37Z"/><path class="cls-8" d="M92.14,79.57A1.58,1.58,0,0,1,91,79.06a3.62,3.62,0,0,0-2.62-1.4h0a4.7,4.7,0,0,0-2.94,1.41,1.59,1.59,0,0,1-2.33-2.15,7.74,7.74,0,0,1,5.27-2.43,6.67,6.67,0,0,1,5,2.43A1.59,1.59,0,0,1,92.14,79.57Z"/><path class="cls-8" d="M120.66,79.55a1.58,1.58,0,0,1-1.17-.51,3.62,3.62,0,0,0-2.64-1.4,4.75,4.75,0,0,0-2.93,1.4,1.59,1.59,0,0,1-2.34-2.14,7.74,7.74,0,0,1,5.27-2.43,6.67,6.67,0,0,1,5,2.43A1.59,1.59,0,0,1,120.66,79.55Z"/><circle class="cls-4" cx="102.51" cy="90.21" r="3.17"/><path class="cls-9" d="M88.77,101.68s7.22,7,14.27,6.41c0,0,5.64-.46,13.21-6.41,0,0-4.32-1.1-13.92.37C102.33,102,93.17,100.3,88.77,101.68Z"/><path class="cls-7" d="M88.39,114.87c-2.29-4.05-2.64-7.75-2-9.93,1-3.48,3.48-3.78,6.47-3.62,1.7,0.09,9.25,1.93,9.25-2.44,0-5.4-12.28-2.17-15.6-.19C82,101.38,83.14,107,85,110.82A15.24,15.24,0,0,0,88.39,114.87Z"/><path class="cls-7" d="M115.79,114.87c2.29-4.05,2.64-7.75,2-9.93-1-3.48-3.48-3.78-6.47-3.62-1.7.09-9.25,1.93-9.25-2.44,0-5.4,12.28-2.17,15.6-.19,4.51,2.69,3.35,8.26,1.44,12.13A15.24,15.24,0,0,1,115.79,114.87Z"/></g></svg>