<?xml version="1.0" encoding="utf-8"?>
<!-- Generator: Adobe Illustrator 18.1.1, SVG Export Plug-In . SVG Version: 6.00 Build 0)  -->
<svg version="1.1" id="Layer_1" xmlns="http://www.w3.org/2000/svg" xmlns:xlink="http://www.w3.org/1999/xlink" x="0px" y="0px"
	 viewBox="0 0 512 512" enable-background="new 0 0 512 512" xml:space="preserve">
<g id="Layer_2">
</g>
<g id="Layer_1_1_">
	<g>
		<circle fill="#FFCD0A" cx="254.9" cy="293.3" r="199.1"/>
		<g>
			<g>
				<g>
					<defs>
						<path id="SVGID_1_" d="M454,293.3c0,110.1-89,199.1-199.1,199.1s-199.1-89-199.1-199.1s87-272.8,197.1-272.8
							S454,183.5,454,293.3z"/>
					</defs>
					<clipPath id="SVGID_2_">
						<use xlink:href="#SVGID_1_"  overflow="visible"/>
					</clipPath>
					<g clip-path="url(#SVGID_2_)">
						<path fill="#434344" d="M250.6,157.3l-3.7,323.1c-0.9,0-1.7-0.3-2.8,0c-43,10.5-74.8-4.6-107.2-21.9
							c-5.1-1.7-13.9-36.4-13.9-57.5V170.7c0-69.4,44.1-121.7,112.9-125.7l17.4-0.6L250.6,157.3"/>
						<path fill="#30302F" d="M367.8,458.8c8.2-17.4,14.2-37.3,14.2-58.3V170.4c0-69.4-50.6-125.7-112.9-125.7h-16.2l5.1,435.2
							c0.9,0,1.7,0,2.8,0C299.8,479.9,335.4,476.2,367.8,458.8z"/>
						<path fill="#DBB093" d="M362.1,235.8c-14.2,91.3-50.1,197.4-111.5,197.4c-61.7,0-93.3-88.7-111.5-197.4
							c-15.9-95.6,50.1-158.7,111.5-158.7C312.3,77.1,377.2,139.9,362.1,235.8z"/>
						<path fill="#CC9F81" d="M252.2,82.8c61.7,0,126.6,52.3,111.5,131.7c-14.2,75.9-50.1,216.5-111.5,216.5"/>
						<path fill="#434344" d="M203.4,105.8c27.9-27,38.1-7.7,51.8-10c27-4.3,49.8-4.8,65.4,12.8c6.8,7.7,16.8,28.2,16.8,28.2
							s-4.3,27.3-2.8,47.2c0.9,14.2-1.1,56.6-1.1,56.6s-11.1,35.6-16.8,39.8c-25.6,20.8-31.3,17.9-38.1,28.2c0,0-14.5,47.5-3.4,56.6
							c8.2,6.8,33.8,8.2,41.2,10.2c7.1,2,11.7,19.6,16.5,25.3c4.6,5.7,13.4,29.6,15.4,48.1c24.7-10.2,2.6,1.7,22.2-15.9
							c-3.1-21.9,2-64,1.4-70.8c-2-28.2,7.1-76.8,4.6-105c-2.6-28.2-1.7-86.8-4.6-114.9c-2-21.3-0.6-23.3-25-54
							c-4.3-5.4-8-8.8-18.2-15.9c-5.1-3.4-19.6-15.9-25.6-17.4c-37.3-8-48.4-9.1-48.4-9.1s-29,3.1-59.2,10.2
							c-14.8,3.4-37.3,21.3-44.9,34.4c-5.7,9.7-11.4,10.2-13.9,21.3c-8,32.1-8.8,118.9-12.5,152.2c-3.1,30.4,12.5,106.4,10.5,136.8
							c-0.6,7.7-10.2,8.5-3.7,26.7c20.8,21-1.1,8,26.7,19.9l13.9-58c0,0,8.2-12.2,13.1-15.6c10.2-7.4,37-0.3,46.1-9.1
							c4.3-4,2.8-23.6,2.8-23.6s0-27.3-3.4-32.4c-4.6-6.5-27.6-11.4-34.1-15.9c-7.1-4.8-12.2-16.2-16.2-23.6
							c-5.1-9.7-10.2-35.6-10.2-35.6s1.1-37.5,3.1-49.8c1.7-10,1.1-31.6,12.5-54C184.3,130,197.7,111.2,203.4,105.8z"/>
						<path fill="#30302F" d="M253.7,45.2c0,0,0.6-4,48.4,8.5c6,1.4,24.2,10.8,29,14.2c10.5,7.1,10.2,9.7,14.5,15.1
							c24.5,30.7,27,36.1,29.3,57.5c2.8,28.2,4.6,84.8,6.8,113.2c2.6,28.2-2.6,90.2-0.6,118.3c0.6,6.5-15.1,68.3-11.9,90.2
							c-24.5,12.8,1.4,11.4-23,21.6c-2-18.8-9.7-76.8-13.9-82.5c-4.6-6-9.1-23.3-16.5-25.3c-7.4-2-33-3.4-41.2-10.2
							c-10.8-9.1,3.4-56.6,3.4-56.6c6.8-10.2,12.8-7.4,38.1-28.2c5.4-4.6,16.8-39.8,16.8-39.8s2.3-42.7,1.1-56.6
							c-1.4-19.9-1.7-26.7-1.7-26.7s2-22.2-15.6-41c-21.3-23-26.7-26.7-63.1-19.9"/>
						<path fill="#CC9F81" d="M350.4,218.5c-7.7,21-7.7,21-17.1,21c-9.4,0-17.1-9.4-17.1-21c0-11.7,7.7-21,17.1-21
							c4.8,0,12.2,0,15.4,3.7C351.6,204.8,352.4,212.8,350.4,218.5z"/>
						<path fill="#231F20" stroke="#231F20" stroke-width="3" stroke-miterlimit="10" d="M331.7,315.7"/>
						<path fill="#DBB093" d="M150.5,211.6c7.7,21,7.7,21,17.1,21c9.4,0,17.1-9.4,17.1-21s-7.7-21-17.1-21c-4.8,0-12.2,0-15.4,3.7
							C149,198.3,148.5,206.2,150.5,211.6z"/>
						
							<path fill="none" stroke="#95755C" stroke-width="3" stroke-linecap="round" stroke-linejoin="round" stroke-miterlimit="10" d="
							M206.2,186.9c0,0,10.5-11.7,21.3,0"/>
						<path fill="none" stroke="#231F20" stroke-width="3" stroke-miterlimit="10" d="M239.5,205.4c0,7.7-6.3,13.7-13.7,13.7h-30.7
							c-7.7,0-13.7-6.3-13.7-13.7l-5.1-29.3c0-7.7,6.3-13.7,13.7-13.7h41c7.7,0,13.7,6.3,13.7,13.7L239.5,205.4z"/>
						<path fill="none" stroke="#231F20" stroke-width="3" stroke-miterlimit="10" d="M242.9,172c13.1-10,20.3-1.6,22.2,0"/>
						<path fill="#DBB093" d="M263.1,213.9c0,5.1-4.6,9.1-9.1,9.1c-4.6,0-8.2-4-8.2-9.1c0-5.1,3.7-9.1,8.2-9.1
							C258.3,204.8,263.1,209.1,263.1,213.9z"/>
						<path fill="#FFFFFF" d="M283,248.3c0,9.7-8.2,25.6-17.6,27.9l-12.5,1.7l-13.1-1.7c-8.2-2-20.5-18.2-20.5-27.9"/>
						<path fill="#30A048" d="M256,499.5c37,3.4,63.4-9.1,91-21c-2.3-15.1-6.8-46.1-9.4-60.9c-2-12.2-2.8-26.7-11.4-36.4
							c-9.4-10.8-27.6-9.7-40.1-10.8l-23.9,19.3c0,0-6,29.6-9.1,41.2c0,0-8.8-43.2-10.8-43.5c-15.6-2.8-21-18.2-21-18.2
							c-0.3-0.9-13.7,0-15.4,0c-7.1-0.3-14.8-0.3-21.3,3.1c-5.7,3.1-10.2,8.8-12.8,14.8c-5.4,13.1-6.3,29.6-9.1,43.5
							c-0.9,4-10.8,40.1-8.5,41.5c30.4,20.5,58.3,29.6,96.7,25.9L256,499.5z"/>
						<circle fill="#70C06C" cx="192" cy="382.9" r="2.8"/>
						<circle fill="#70C06C" cx="182.6" cy="390.8" r="2.8"/>
						<circle fill="#70C06C" cx="182.6" cy="409.9" r="2.8"/>
						<circle fill="#70C06C" cx="192" cy="396.5" r="2.8"/>
						<circle fill="#70C06C" cx="205.1" cy="404.2" r="2.8"/>
						<circle fill="#70C06C" cx="217" cy="396.5" r="2.8"/>
						<circle fill="#70C06C" cx="205.1" cy="381.7" r="2.8"/>
						
							<path fill="none" stroke="#95755C" stroke-width="3" stroke-linecap="round" stroke-linejoin="round" stroke-miterlimit="10" d="
							M281.6,186.9c0,0,10.5-11.7,21.3,0"/>
						<circle fill="#70C06C" cx="283" cy="393.7" r="2.8"/>
						<circle fill="#70C06C" cx="273.4" cy="407" r="2.8"/>
						<circle fill="#70C06C" cx="292.4" cy="407" r="2.8"/>
						<circle fill="#70C06C" cx="192" cy="459.7" r="2.8"/>
						<circle fill="#70C06C" cx="207.9" cy="459.7" r="2.8"/>
						<circle fill="#70C06C" cx="194.8" cy="421.5" r="2.8"/>
						<circle fill="#70C06C" cx="203.9" cy="431.8" r="2.8"/>
						<circle fill="#70C06C" cx="173.8" cy="442.3" r="2.8"/>
						<circle fill="#70C06C" cx="176.6" cy="424.4" r="2.8"/>
						<circle fill="#70C06C" cx="186" cy="446" r="2.8"/>
						<circle fill="#70C06C" cx="285.9" cy="459.7" r="2.8"/>
						<circle fill="#70C06C" cx="301.2" cy="442.3" r="2.8"/>
						<circle fill="#70C06C" cx="297.5" cy="426.1" r="2.8"/>
						<circle fill="#70C06C" cx="315.7" cy="433.2" r="2.8"/>
						<circle fill="#70C06C" cx="278.5" cy="428.9" r="2.8"/>
						<circle fill="#70C06C" cx="263.1" cy="439.5" r="2.8"/>
						<circle fill="#70C06C" cx="267.7" cy="456.8" r="2.8"/>
						<circle fill="#70C06C" cx="310.3" cy="384.6" r="2.8"/>
						<circle fill="#70C06C" cx="300.7" cy="392.5" r="2.8"/>
						<circle fill="#70C06C" cx="331.7" cy="450.3" r="2.8"/>
						<circle fill="#70C06C" cx="307.5" cy="404.2" r="2.8"/>
						<circle fill="#70C06C" cx="326.3" cy="418.7" r="2.8"/>
						<circle fill="#70C06C" cx="313.2" cy="417" r="2.8"/>
						<circle fill="#70C06C" cx="322" cy="392.5" r="2.8"/>
						<circle fill="#70C06C" cx="229.3" cy="412.2" r="2.8"/>
						<circle fill="#70C06C" cx="214.2" cy="418.7" r="2.8"/>
						<circle fill="#70C06C" cx="222.4" cy="443.2" r="2.8"/>
						<circle fill="#70C06C" cx="229.3" cy="425.8" r="2.8"/>
						<circle fill="#70C06C" cx="238.4" cy="443.2" r="2.8"/>
						<circle fill="#70C06C" cx="227.6" cy="456.8" r="2.8"/>
						<circle fill="#70C06C" cx="240.9" cy="420.4" r="2.8"/>
						<circle fill="#70C06C" cx="240.9" cy="472.5" r="2.8"/>
						<circle fill="#70C06C" cx="308.9" cy="459.7" r="2.8"/>
						
							<line opacity="0.7" fill="none" stroke="#22783C" stroke-width="2" stroke-linecap="round" stroke-linejoin="round" stroke-miterlimit="10" enable-background="new    " x1="242.1" y1="389.4" x2="254.3" y2="450.8"/>
						
							<line opacity="0.7" fill="none" stroke="#22783C" stroke-width="2" stroke-linecap="round" stroke-linejoin="round" stroke-miterlimit="10" enable-background="new    " x1="264.5" y1="389.1" x2="250.6" y2="433.2"/>
						<g>
							<path fill="#434344" d="M174.9,128.6c-29,82.5,24.7,127.1,24.7,127.1s-32.7-41.5-27.6-82.2"/>
						</g>
						<path fill="#231F20" d="M170.7,172.7c0,0.3,0.6,0.9,1.1,0.9h5.1c0.6,0,0.3-0.3,0.3-0.9l8.2-10.5c0-0.3-0.6-0.9-1.1-0.9
							l-13.4,1.1c-0.6,0-1.1,0.3-1.1,0.9L170.7,172.7z"/>
						<g>
							<path fill="#30302F" d="M330,162.1c16.5,54.6-12.2,83.3-12.2,83.3s17.4-27,14.2-53.8"/>
						</g>
						<path fill="#231F20" d="M339.1,172.7c0,0.3-0.6,0.9-1.1,0.9h-5.4c-0.6,0-0.3-0.3-0.3-0.9l-8.2-10.5c0-0.3,0.6-0.9,1.1-0.9
							l13.4,1.1c0.6,0,1.1,0.3,1.1,0.9L339.1,172.7z"/>
						<path fill="none" stroke="#231F20" stroke-width="3" stroke-miterlimit="10" d="M328.5,205.4c0,7.7-6.3,13.7-13.7,13.7h-30.7
							c-7.7,0-13.7-6.3-13.7-13.7l-5.1-29.3c0-7.7,6.3-13.7,13.7-13.7h41c7.7,0,13.7,6.3,13.7,13.7L328.5,205.4z"/>
						<path fill="none" stroke="#231F20" stroke-width="3" stroke-miterlimit="10" d="M243.8,175.5"/>
					</g>
				</g>
			</g>
		</g>
	</g>
</g>
</svg>
