<?xml version="1.0" encoding="utf-8"?>
<!-- Generator: Adobe Illustrator 18.1.0, SVG Export Plug-In . SVG Version: 6.00 Build 0)  -->
<svg version="1.1" id="Layer_1" xmlns="http://www.w3.org/2000/svg" xmlns:xlink="http://www.w3.org/1999/xlink" x="0px" y="0px"
	 viewBox="0 0 180 180" enable-background="new 0 0 180 180" xml:space="preserve">
<g id="Layer_2">
</g>
<g>
	<circle fill="#109ED9" cx="89.9" cy="102.6" r="70"/>
	<g>
		<defs>
			<path id="SVGID_1_" d="M159.9,102.6c0,38.7-31.3,70-70,70s-70-31.3-70-70c0-38.7,31.3-115.3,70-115.3S159.9,63.9,159.9,102.6z"/>
		</defs>
		<clipPath id="SVGID_2_">
			<use xlink:href="#SVGID_1_"  overflow="visible"/>
		</clipPath>
		<g clip-path="url(#SVGID_2_)">
			<path fill="#AE7A56" d="M79,114.9c0,0,0.3,5.5-2.8,15.7L91,148.2l10.8-18.3c0,0-5.1-5.3-4.7-14.6L79,114.9z"/>
			<path fill="#A8714A" d="M90.9,147.2l10.4-12.6l0.3-5.8c0,0-1.9-5.3-1.6-14.6l-10.9-0.3l0,33.6L90.9,147.2z"/>
			<path fill="#BD7F53" d="M89.1,119.2"/>
			<path fill="#814E29" d="M89.1,119.2c15.7,0,26.1-16,30.6-29.2c0.7-2,1.3-4.1,1.7-6.3c2.2-1,3.5-3.7,4.4-5.8
				c0.5-1.2,0.8-2.5,1.1-3.7c0.1-0.7,0.2-1.5,0.4-2.3c0.2-0.7,0.4-1.4,0.7-2.1c0.3-0.8,0.6-1.6,0.9-2.4c0.3-0.7,0.7-1.4,1-2.1
				c0.6-1.4,1.4-3.7,0-4.9c-0.4-0.3-0.9-0.5-1.4-0.6c-0.2,0-0.4-0.1-0.7-0.1c-0.6,0-1.1,0.2-1.6,0.5c-0.4,0.2-0.8,0.4-1.3,0.6
				c-0.6,0.3-1.1,0.6-1.7,0.8c0.6-1.8,1.1-3.6,1.5-5.5c0.4-1.7,0.7-3.3,0.9-5c0.2-1.5,0.3-3.1,0.3-4.6c0-1.4-0.1-2.8-0.3-4.2
				c-0.2-1.3-0.4-2.6-0.7-3.8c-0.3-1.2-0.7-2.3-1.1-3.4c-0.4-1.1-0.9-2.1-1.5-3.1c-0.5-1-1.2-1.9-1.8-2.8c-0.6-0.9-1.3-1.7-2.1-2.4
				c-0.7-0.8-1.5-1.5-2.3-2.1c-0.8-0.7-1.6-1.3-2.4-1.9c-0.8-0.6-1.6-1.1-2.5-1.6c-0.8-0.5-1.6-0.9-2.5-1.4
				c-0.8-0.4-1.6-0.8-2.5-1.1c-0.8-0.3-1.6-0.6-2.4-0.9c-0.7-0.3-1.5-0.5-2.2-0.8c-0.7-0.2-1.3-0.4-2-0.6c-0.6-0.2-1.2-0.3-1.8-0.4
				c-0.5-0.1-1-0.2-1.5-0.3c-0.4-0.1-0.7-0.1-1.1-0.2c-1.7-0.3-3.4-0.3-5.1-0.3c-0.4,0-0.8,0-1.2,0c-1.6,0-3.3,0.1-4.9,0.2
				c-0.6,0-1.2,0.1-1.7,0.2c-0.4,0.1-0.8,0.1-1.2,0.2c-0.5,0.1-1.1,0.2-1.6,0.4c-0.6,0.2-1.2,0.3-1.9,0.5c-0.7,0.2-1.4,0.4-2.1,0.6
				c-0.8,0.3-1.5,0.5-2.3,0.8c-0.8,0.3-1.6,0.7-2.4,1c-0.8,0.4-1.7,0.8-2.5,1.2c-0.8,0.5-1.7,0.9-2.5,1.5c-0.8,0.5-1.7,1.1-2.4,1.7
				c-0.8,0.6-1.6,1.3-2.3,2c-0.8,0.7-1.5,1.5-2.2,2.3c-0.7,0.8-1.4,1.7-2,2.6c-0.6,0.9-1.2,1.9-1.7,2.9c-0.5,1-1,2.1-1.4,3.2
				c-0.4,1.2-0.7,2.4-1,3.6c-0.3,1.3-0.4,2.6-0.5,4c-0.1,1.5-0.1,2.9-0.1,4.4c0.1,1.6,0.2,3.2,0.5,4.8c0.3,1.8,0.7,3.5,1.1,5.2
				c0.3,1.1,0.6,2.3,1,3.4c-0.6-0.3-1.1-0.6-1.7-0.8c-0.4-0.2-0.8-0.4-1.3-0.6c-0.6-0.3-1-0.5-1.6-0.5c-0.2,0-0.4,0-0.7,0.1
				c-0.5,0.1-1,0.3-1.4,0.6c-1.4,1.2-0.6,3.5,0,4.9c0.3,0.7,0.7,1.4,1,2.1c0.3,0.8,0.6,1.6,0.9,2.4c0.3,0.7,0.5,1.4,0.7,2.1
				c0.2,0.7,0.2,1.5,0.4,2.3c0.2,1.3,0.6,2.5,1.1,3.7c0.8,2.1,2.2,4.9,4.4,5.8c0.4,2.1,1,4.2,1.7,6.3
				C63,103.2,73.5,119.2,89.1,119.2"/>
			<path fill="#8E6240" d="M89.1,15L89.1,15c-1.7,0-5.4,0.2-5.4,0.2S41.6,20,55,61.6c-0.6-0.3-1.1-0.6-1.7-0.8
				c-0.4-0.2-0.8-0.4-1.3-0.6c-0.6-0.3-1-0.5-1.6-0.5c-0.2,0-0.4,0-0.7,0.1c-0.5,0.1-1,0.3-1.4,0.6c-1.4,1.2-0.6,3.5,0,4.9
				c0.3,0.7,0.7,1.4,1,2.1c0.3,0.8,0.6,1.6,0.9,2.4c0.3,0.7,0.5,1.4,0.7,2.1c0.2,0.7,0.2,1.5,0.4,2.3c0.2,1.3,0.6,2.5,1.1,3.7
				c0.8,2.1,2.2,4.9,4.4,5.8c0.4,2.1,1,4.2,1.7,6.3c4.5,13.3,14.9,29.2,30.6,29.2"/>
			<path fill="#BD7F53" d="M89.2,119.2"/>
			<path fill="none" stroke="#EABE95" stroke-width="0.25" stroke-miterlimit="10" d="M78.2,89.8"/>
			<path fill="none" stroke="#EABE95" stroke-width="0.25" stroke-miterlimit="10" d="M117.7,90"/>
			<path fill="#362013" d="M77.8,62.5c-0.4,0-0.8-0.2-1.1-0.5c-0.8-0.9-1.6-1.3-2.5-1.3c-1.5,0-2.8,1.3-2.8,1.3
				c-0.6,0.6-1.5,0.7-2.1,0.1c-0.6-0.6-0.7-1.5-0.1-2.1c0.2-0.2,2.2-2.3,5-2.3c1.7,0,3.3,0.8,4.7,2.3c0.6,0.6,0.5,1.6-0.1,2.1
				C78.6,62.4,78.2,62.5,77.8,62.5z"/>
			<path fill="#362013" d="M106.7,62.5c-0.4,0-0.8-0.2-1.1-0.5c-0.8-0.9-1.6-1.3-2.5-1.3c-1.5,0-2.8,1.3-2.8,1.3
				c-0.6,0.6-1.5,0.7-2.1,0.1c-0.6-0.6-0.7-1.5-0.1-2.1c0.2-0.2,2.2-2.3,5-2.3c1.7,0,3.3,0.8,4.7,2.3c0.6,0.6,0.5,1.6-0.1,2.1
				C107.5,62.4,107.1,62.5,106.7,62.5z"/>
			<circle fill="#8E6240" cx="89.4" cy="75.4" r="3"/>
			<path fill="#FFFFFF" d="M74.5,88.7c0,0,7.2,6.4,14.4,7.5c0,0,8.6-0.2,12.6-7.6c0,0-9.9,0.5-12.4,1.1L74.5,88.7z"/>
			<path fill="#8E6240" d="M77.2,113.2c0,0-6.4,33.5-11.7,41.1h23.6v-39.1C89.2,115.1,87.2,115.5,77.2,113.2"/>
			<path fill="#814E29" d="M101.2,113.2c0,0,6.4,33.5,11.7,41.1H89.2v-39.1C89.2,115.1,91.2,115.5,101.2,113.2"/>
			<path fill="#83382B" d="M89.4,147.3L73.8,127c-5.2,1.2-10.5,3.3-15.3,5.5c-6.5,3-9.9,8.6-12.4,15.1c-2.4,6.1-5.6,13-6.9,19.5
				c0,8.4,101.4,7.9,101.3-0.5c0-0.4-1-8.9-2.8-13.6c-1.8-4.7-5.2-11.3-8.4-15.3c-3-3.8-7.4-6.1-11.8-7.9c-2.6-1-4.9-1.4-7.6-1.6
				c-0.5,0-4.9-0.7-5.1-0.3"/>
			<linearGradient id="SVGID_3_" gradientUnits="userSpaceOnUse" x1="55.19" y1="83.6741" x2="54.3685" y2="80.1417">
				<stop  offset="0" style="stop-color:#B6A9D2"/>
				<stop  offset="0.5" style="stop-color:#E2DBED"/>
				<stop  offset="1" style="stop-color:#FFFFFF"/>
			</linearGradient>
			<circle fill="url(#SVGID_3_)" cx="54.7" cy="81.7" r="1.8"/>
			<linearGradient id="SVGID_4_" gradientUnits="userSpaceOnUse" x1="124.0596" y1="83.6741" x2="123.2381" y2="80.1417">
				<stop  offset="0" style="stop-color:#B6A9D2"/>
				<stop  offset="0.5" style="stop-color:#E2DBED"/>
				<stop  offset="1" style="stop-color:#FFFFFF"/>
			</linearGradient>
			<circle fill="url(#SVGID_4_)" cx="123.6" cy="81.7" r="1.8"/>
			<path fill="#333333" d="M89.1,15c-3.4-0.2-9.6,0.6-10.1,0.7c-8.5,2-17.8,7.3-22.6,14.9c-3.6,5.7-4.4,12.9-3.9,19.5
				c0.3,3.5,0.9,7.1,2,10.4l0.3,0.9l1.4,0.6l0.5,11.1l0.9-19.5c0,0-1.1-5.2,2.2-6.9l4.2-2.3c0,0-3.6-2.6-3.6-2.7
				c-1.2-0.9,1.1-7.1,1.7-8.2c3.6-7.5,13-10.4,20.7-11c0.5,0,4-0.3,6.2-0.3L89.1,15z"/>
			<path fill="#333333" d="M89.1,15c3.4-0.2,9.6,0.6,10.1,0.7c8.5,2,17.8,7.3,22.6,14.9c3.6,5.7,4.4,12.9,3.9,19.5
				c-0.3,3.5-0.9,7.1-2,10.4l-0.3,0.9l-1.4,0.6l-0.5,11.1l-0.9-19.5c0,0,1.1-5.2-2.2-6.9l-4.2-2.3c0,0,3.6-2.6,3.6-2.7
				c1.2-0.9-1.1-7.1-1.7-8.2c-3.6-7.5-13-10.4-20.7-11c-0.5,0-4-0.3-6.2-0.3L89.1,15z"/>
			<path fill="#333333" d="M56.7,73.2c0.8,3.9,1.6,8.1,3.4,11.7c0.3,0.6,0.6,1.3,1,1.8c0.6,0.8,1.5,1,2.3,1.5c2,1.2,3.5,3,4.4,5.1
				c0.4,1.1,0.7,2.3,1.4,3.2c0.7,0.9,2.1,1.5,3.1,0.9c0.8-0.5,1-1.6,0.7-2.6c-0.3-0.9-0.9-1.7-1.5-2.4c-0.6-0.7-1.3-1.4-1.6-2.3
				c-0.9-2.6,1.3-4,3.1-5.2c2.1-1.3,4.6-2.2,6.9-2.9c2.9-0.9,6-1.5,9.3-1.9v4.1c-4.1,0-7.9,0.7-11.5,2c-1.3,0.5-5.4,1.7-5.5,3.4
				c-0.1,1.1,1.4,2.3,2.1,3.1c3.4,3.6-0.4,7.4,0.4,11.5c0.6,3.1,3,5.6,5.8,7.1c1.6,0.9,3.2,1.3,4.9,1.5c1.7,0.2,3,0.4,3.9,0.4
				c0,0,0,5.9,0,5.9c-13.4,0-21.3-8.9-26-18.9c0,0-4.5-7-6.3-16.6C56.8,83.8,56.3,79.9,56.7,73.2z"/>
			<path fill="#333333" d="M121.5,73.2c-0.8,3.9-1.6,8.1-3.4,11.7c-0.3,0.6-0.6,1.3-1,1.8c-0.6,0.8-1.5,1-2.3,1.5
				c-2,1.2-3.5,3-4.4,5.1c-0.4,1.1-0.7,2.3-1.4,3.2c-0.7,0.9-2.1,1.5-3.1,0.9c-0.8-0.5-1-1.6-0.7-2.6c0.3-0.9,0.9-1.7,1.5-2.4
				c0.6-0.7,1.3-1.4,1.6-2.3c0.9-2.6-1.3-4-3.1-5.2c-2.1-1.3-4.6-2.2-6.9-2.9c-2.9-0.9-6-1.5-9.3-1.9v4.1c4.1,0,7.9,0.7,11.5,2
				c1.3,0.5,5.4,1.7,5.5,3.4c0.1,1.1-1.4,2.3-2.1,3.1c-3.4,3.6,0.4,7.4-0.4,11.5c-0.6,3.1-3,5.6-5.8,7.1c-1.6,0.9-3.2,1.2-4.9,1.5
				c-0.7,0.1-3.1,0.4-3.9,0.4c0,0,0,5.9,0,5.9c13.4,0,21.3-8.9,26-18.9c0,0,4.5-7,6.3-16.6C121.4,83.8,122,79.9,121.5,73.2z"/>
		</g>
	</g>
</g>
</svg>
