<svg xmlns="http://www.w3.org/2000/svg" xmlns:xlink="http://www.w3.org/1999/xlink" viewBox="0 0 140 160.61"><defs><clipPath id="clip-path" transform="translate(0 -3.89)"><path d="M140,89.46a70,70,0,1,1-140,0C0,50.8,31.58,0,70.24,0S140,50.8,140,89.46Z" fill="none"/></clipPath><linearGradient id="linear-gradient" x1="70.03" y1="119.69" x2="69.33" y2="116.69" gradientUnits="userSpaceOnUse"><stop offset="0" stop-color="#b4a7d0"/><stop offset="0.5" stop-color="#e0d9eb"/><stop offset="1" stop-color="#fff"/></linearGradient></defs><title>Asset 2</title><g id="Layer_2" data-name="Layer 2"><g id="neck"><circle cx="70" cy="85.57" r="70" fill="#7ec164"/><g clip-path="url(#clip-path)"><path d="M70.16,164.5s.22-159.95,0-160a32.44,32.44,0,0,0-17.9,1.59C28.39,16.46,23.28,40.16,24.16,63v53.15c0,12.83-1.36,26,8.3,35.89,9.09,9.27,23,11.94,35.44,12.4Z" transform="translate(0 -3.89)" fill="#feeabf"/><path d="M69.84,164.5s-.22-159.95,0-160a32.44,32.44,0,0,1,17.9,1.59c23.88,10.36,29,34.07,28.1,56.91v53.15c0,12.83,1.36,26-8.3,35.89-9.09,9.27-23,11.94-35.44,12.4Z" transform="translate(0 -3.89)" fill="#fdd694"/><path d="M59.46,121.66c2.33-.83,4-4,4-4,0-4.45-.1-8.94-.58-13.37-.15-1.41-.14-3.79-1-5-1.79-2.45-4.9-3.49-7.28-5.23a31.94,31.94,0,0,1-6.39-6.39,35.24,35.24,0,0,1-7-17.46A88.65,88.65,0,0,1,41,52.58s19.81-3.44,28.79-7.19v81.13S63,126.94,59.46,121.66Z" transform="translate(0 -3.89)" fill="#f7d6b5"/><rect x="60.18" y="118.32" width="9.69" height="11.27" fill="#f7d6b5"/><rect x="69.81" y="117.32" width="9.88" height="12.27" fill="#eecfb1"/><path d="M69.79,45.39s17.67-8,24.24-16c5.43,12.66,7,27.12,5.55,40.81a35.24,35.24,0,0,1-7,17.46,31.94,31.94,0,0,1-6.39,6.39c-2.38,1.74-5.49,2.78-7.28,5.23-.89,1.22-.88,3.6-1,5-.48,4.43-.55,8.92-.58,13.37,0,0,1.67,3.17,4,4-6.7,5.76-11.42,4.85-11.42,4.85l-.08-81.13" transform="translate(0 -3.89)" fill="#eecfb1"/><line x1="63.23" y1="113.99" x2="69.87" y2="118.32" fill="none" stroke="#c6c6c6" stroke-miterlimit="10" stroke-width="0.5"/><line x1="77.48" y1="113.99" x2="70.15" y2="118.19" fill="none" stroke="#c6c6c6" stroke-miterlimit="10" stroke-width="0.5"/><rect x="68.39" y="116.78" width="2.51" height="2.51" fill="url(#linear-gradient)"/><path d="M62.13,82.44H78.29s-1.94,8.78-7.67,9.37C70.62,91.81,63.44,92.4,62.13,82.44Z" transform="translate(0 -3.89)" fill="#fff"/><path d="M54.19,68.06c7.87.59,12.56-6.5,12.56-11.51,0-5.42-7.16-9.12-14.78-9.12-5.56,0-10.67.62-12.42,3,0,0-3.88,5.49,4,12.79C43.51,63.19,48.48,68.39,54.19,68.06Z" transform="translate(0 -3.89)" fill="#4d5052"/><path d="M86.48,68.06c-7.87.59-12.56-6.5-12.56-11.51,0-5.42,7.16-9.12,14.78-9.12,5.56,0,10.67.62,12.42,3,0,0,3.88,5.49-4,12.79C97.16,63.19,92.18,68.39,86.48,68.06Z" transform="translate(0 -3.89)" fill="#4d5052"/><rect x="64.16" y="51.11" width="10.5" height="3.5" fill="#4d5052"/><circle cx="69.83" cy="68.61" r="3" fill="#f1d3b2"/><path d="M36.51,154.25l4.75-25.75s2.59-10.42,21.92-10.84l6.65,9.54-.12,36.94Z" transform="translate(0 -3.89)"/><path d="M105.16,154.31l-4.93-25.75s-2.69-10.42-22.76-10.84l-7.64,9.48-.22,37.11Z" transform="translate(0 -3.89)"/></g></g></g></svg>