<?xml version="1.0" encoding="utf-8"?>
<!-- Generator: Adobe Illustrator 18.1.0, SVG Export Plug-In . SVG Version: 6.00 Build 0)  -->
<svg version="1.1" xmlns="http://www.w3.org/2000/svg" xmlns:xlink="http://www.w3.org/1999/xlink" x="0px" y="0px"
	 viewBox="0 0 180 180" enable-background="new 0 0 180 180" xml:space="preserve">
<g id="Layer_2">
</g>
<g id="Layer_1">
	<circle fill="#D2D3D3" cx="89.7" cy="102.9" r="70"/>
	<g>
		<defs>
			<path id="SVGID_1_" d="M159.7,102.9c0,38.7-31.3,70-70,70c-38.7,0-70-31.3-70-70s31.3-117,70-117
				C128.3-14.1,159.7,64.3,159.7,102.9z"/>
		</defs>
		<clipPath id="SVGID_2_">
			<use xlink:href="#SVGID_1_"  overflow="visible"/>
		</clipPath>
		<g clip-path="url(#SVGID_2_)">
			<circle fill="#707171" cx="100.7" cy="165.4" r="1"/>
			<path fill="#C9A865" d="M125.2,66.4c0,22.2-13.6,30.8-35.5,30.8l0,0c-21.9,0-36.5-15.5-36.5-37.6L52.5,52c0-5.5-1.4-6.5,0.6-11.3
				c2.2-5.3,6.7-9.6,10.9-13.4c7.1-6.6,12.8-10.8,23.2-10.8l2.6-0.3c4.6,0,8.8,4.3,14.6,0c4.6-3.4,7.2,8.2,10.7,8.6
				c1.3,0.1,5.2,10.4,6.4,5c0.9-3.9,3,6.7,4.6,10.4c2.1,4.9,0.9,8.2,0.9,14L125.2,66.4z"/>
			<path fill="#B6904D" d="M89.7,16.2c4.6,0,8.8,4.3,14.6,0c4.6-3.4,7.2,8.2,10.7,8.6c1.3,0.1,5.2,10.4,6.4,5
				c0.9-3.9,3,6.7,4.6,10.4c2.1,4.9,0.9,8.7,0.9,14.4l-1.8,12.2c0,22.2-13.6,30.8-35.5,30.8"/>
			<path fill="#F3D5B4" d="M119.8,71.8c0,16.9-6.6,45.1-22.2,45.1l-17.9,0.1c-15.7,0-22.8-28.2-22.8-45.1l0,0
				c0-3.3-0.2-10.5,0.3-17.3c0.2-3.4,6.6-7.3,7.2-9.9c0.6-2.7-0.3-6.8,0.9-7.7c9-6.4,13.1-10.7,22.7-10.7h6.8
				c6.7,0.3,17.7,8.4,17.9,10.1c0.3,1.9,3,7.4,3.8,8.1c5.4,5.4,3.2,6.2,3.8,9.5C121.4,61,119.8,62.6,119.8,71.8L119.8,71.8z"/>
			<path fill="#ECCEB0" d="M128,79.9C124.7,91,124.7,91,120.6,91c-4.1,0-7.3-5-7.3-11.1c0-6.2,3.3-11.1,7.3-11.1c2,0,5.2,0,6.6,2
				C128.5,72.8,128.8,77,128,79.9z"/>
			<path fill="#ECCEB0" d="M89.7,26h5.3c6.7,0.3,17.7,8.4,17.9,10.1c0.3,1.9,3,7.4,3.8,8.1c5.4,5.4,3.2,6.2,3.8,9.5
				c1.2,7-0.4,8.5-0.4,17.8l0,0c0,16.9-6.6,45.1-22.2,45.1l-7.8,0"/>
			<path fill="#231F20" stroke="#231F20" stroke-width="3" stroke-miterlimit="10" d="M117.3,112.5"/>
			<path fill="none" stroke="#997457" stroke-width="3" stroke-linecap="round" stroke-linejoin="round" stroke-miterlimit="10" d="
				M73.3,67.2c0,0,3.7-4.1,7.5,0"/>
			<path fill="#FFFFFF" d="M102.1,90.3c0,2.5-3.2,6.7-6.9,7.3L90.3,98l-5.1-0.4c-3.2-0.5-8-4.7-8-7.3"/>
			<path fill="none" stroke="#997457" stroke-width="3" stroke-linecap="round" stroke-linejoin="round" stroke-miterlimit="10" d="
				M99.8,67.2c0,0,3.7-4.1,7.5,0"/>
			<path fill="#F3D5B4" d="M50.8,79.3C54.1,90,54.1,90,58.3,90c4.1,0,7.5-4.8,7.5-10.7c0-5.9-3.3-10.7-7.5-10.7
				c-2.1,0-5.3,0-6.7,1.9C50.2,72.4,49.9,76.5,50.8,79.3z"/>
			<path fill="#ECCEB0" stroke="#D5BA9D" stroke-miterlimit="10" d="M97,135"/>
			<path fill="#F3D5B4" d="M78.6,116.5c0,0,2.5,6.8-2.8,16.2l15,17.2l10.8-18.3c0,0-5.1-5.3-4.7-14.6L78.6,116.5z"/>
			<path fill="#F3D5B4" d="M92.5,76.8c0,1.8-1.6,3.2-3.2,3.2c-1.6,0-2.9-1.4-2.9-3.2c0-1.8,1.3-3.2,2.9-3.2
				C90.9,73.6,92.5,75,92.5,76.8z"/>
			<path fill="#ECCEB0" d="M90.8,149l10.8-18.3c-2.3,0.1-4.3-7.8-1.5-15.3l-10.2,0.2"/>
			<path fill="#3693A9" d="M92.2,173.9c11.5,0.6,28-4.5,36.9-9.3c-1-7.1-6.4-24.1-7.1-27c-1-3.8-8.4-4.9-11.5-5.5
				c-1.6-0.3-8-0.8-8-0.8L89,139.4c-0.8-0.7-1.8-1.2-3.1-1.7c-5.4-1.9-7.4-6.4-7.4-6.4l-3.7,0.1c0,0-4.9-0.4-6.5,0
				c-2.5,0.6-11.3,2.8-11.9,6.8c-0.4,2.8-4,15.4-5.6,23.7c14.4,8.1,26.7,11.8,39,11.8L92.2,173.9z"/>
			<radialGradient id="SVGID_3_" cx="105.3992" cy="67.5158" r="10.6261" gradientUnits="userSpaceOnUse">
				<stop  offset="0" style="stop-color:#E5E2DF"/>
				<stop  offset="0" style="stop-color:#F1EFEE"/>
				<stop  offset="0" style="stop-color:#FFFFFF"/>
				<stop  offset="0.1247" style="stop-color:#F0F1F1"/>
				<stop  offset="0.3627" style="stop-color:#C9CBCC"/>
				<stop  offset="0.5225" style="stop-color:#ACAEB0"/>
				<stop  offset="0.6029" style="stop-color:#A2A5A7"/>
				<stop  offset="0.7382" style="stop-color:#888D90"/>
				<stop  offset="0.9108" style="stop-color:#5E6769"/>
				<stop  offset="1" style="stop-color:#455053"/>
			</radialGradient>
			<path fill="none" stroke="url(#SVGID_3_)" stroke-miterlimit="10" d="M115.6,71.6c0,2.1-2.2,3.8-4.8,3.8H100
				c-2.7,0-4.8-1.7-4.8-3.8l-1.8-8.1c0-2.1,2.2-3.8,4.8-3.8h14.4c2.7,0,4.8,1.7,4.8,3.8L115.6,71.6z"/>
			<radialGradient id="SVGID_4_" cx="74.0892" cy="67.5158" r="10.6258" gradientUnits="userSpaceOnUse">
				<stop  offset="0" style="stop-color:#E5E2DF"/>
				<stop  offset="0" style="stop-color:#F1EFEE"/>
				<stop  offset="0" style="stop-color:#FFFFFF"/>
				<stop  offset="0.1247" style="stop-color:#F0F1F1"/>
				<stop  offset="0.3627" style="stop-color:#C9CBCC"/>
				<stop  offset="0.5225" style="stop-color:#ACAEB0"/>
				<stop  offset="0.6029" style="stop-color:#A2A5A7"/>
				<stop  offset="0.7382" style="stop-color:#888D90"/>
				<stop  offset="0.9108" style="stop-color:#5E6769"/>
				<stop  offset="1" style="stop-color:#455053"/>
			</radialGradient>
			<path fill="none" stroke="url(#SVGID_4_)" stroke-miterlimit="10" d="M84.3,71.6c0,2.1-2.2,3.8-4.8,3.8H68.7
				c-2.7,0-4.8-1.7-4.8-3.8l-1.8-8.1c0-2.1,2.2-3.8,4.8-3.8h14.4c2.7,0,4.8,1.7,4.8,3.8L84.3,71.6z"/>
			<path fill="#424243" d="M119.3,63.3c0,0.2-0.2,0.3-0.4,0.3H117c-0.2,0-0.1-0.1-0.1-0.3l-2.9-3.7c0-0.1,0.2-0.3,0.4-0.3l4.7,0.4
				c0.2,0,0.4,0.1,0.4,0.3L119.3,63.3z"/>
			<path fill="none" stroke="#424243" stroke-width="3" stroke-linecap="round" stroke-linejoin="round" stroke-miterlimit="10" d="
				M86.2,62.9c4.2-3.2,6.5-0.5,7.2,0"/>
			<path fill="#424243" d="M60.1,63.3c0,0.2,0.2,0.3,0.4,0.3h1.8c0.2,0,0.1-0.1,0.1-0.3l2.9-3.7c0-0.1-0.2-0.3-0.4-0.3l-4.7,0.4
				c-0.2,0-0.4,0.1-0.4,0.3L60.1,63.3z"/>
			<path fill="#F9F9F9" stroke="#CECECD" stroke-miterlimit="10" d="M79.6,133.9c0,0,7.5,8,18.1,0.2v6C87.1,148,79.6,140,79.6,140
				V133.9z"/>
			<path fill="#3693A9" d="M97.9,123.6v17.6c0,0,5.4-3.9,9.3,0V125C107.2,125,102.2,120.7,97.9,123.6z"/>
			<path fill="#3693A9" d="M81,123.8l0,19c0,0-5.3-5.4-9.3-1.4v-16.1C71.7,125.3,76.7,121,81,123.8z"/>
			
				<line fill="none" stroke="#424243" stroke-width="2" stroke-linecap="round" stroke-linejoin="round" stroke-miterlimit="10" x1="119.5" y1="61.6" x2="124.9" y2="58.6"/>
			
				<line fill="none" stroke="#424243" stroke-width="2" stroke-linecap="round" stroke-linejoin="round" stroke-miterlimit="10" x1="59.6" y1="60.2" x2="53.7" y2="58.5"/>
			<circle fill="#D5B7A3" cx="116.1" cy="78.5" r="0.6"/>
			<circle fill="#D5B7A3" cx="116.5" cy="80.9" r="0.6"/>
			<circle fill="#D5B7A3" cx="106.6" cy="79.4" r="0.6"/>
			<circle fill="#D5B7A3" cx="113.2" cy="77.8" r="0.6"/>
			<circle fill="#D5B7A3" cx="114" cy="82" r="0.6"/>
			<circle fill="#D5B7A3" cx="114.2" cy="84.3" r="0.6"/>
			<circle fill="#D5B7A3" cx="110" cy="83.1" r="0.6"/>
			<circle fill="#D5B7A3" cx="110.5" cy="80.2" r="0.6"/>
			<circle fill="#D5B7A3" cx="106.4" cy="83.4" r="0.6"/>
			<circle fill="#D5B7A3" cx="63.2" cy="83.5" r="0.6"/>
			<circle fill="#D5B7A3" cx="62.8" cy="81.1" r="0.6"/>
			<circle fill="#D5B7A3" cx="72.8" cy="82.6" r="0.6"/>
			<circle fill="#D5B7A3" cx="66.1" cy="84.1" r="0.6"/>
			<circle fill="#D5B7A3" cx="65.4" cy="80" r="0.6"/>
			<circle fill="#D5B7A3" cx="65.1" cy="77.7" r="0.6"/>
			<circle fill="#D5B7A3" cx="69.4" cy="78.8" r="0.6"/>
			<circle fill="#D5B7A3" cx="68.9" cy="81.7" r="0.6"/>
			<circle fill="#D5B7A3" cx="72.9" cy="78.6" r="0.6"/>
		</g>
	</g>
</g>
</svg>
