<?xml version="1.0" encoding="utf-8"?>
<!-- Generator: Adobe Illustrator 18.1.0, SVG Export Plug-In . SVG Version: 6.00 Build 0)  -->
<svg version="1.1" id="Layer_1" xmlns="http://www.w3.org/2000/svg" xmlns:xlink="http://www.w3.org/1999/xlink" x="0px" y="0px"
	 viewBox="0 0 180 180" enable-background="new 0 0 180 180" xml:space="preserve">
<g id="Layer_2">
</g>
<g>
	<circle fill="#109ED9" cx="90" cy="102.6" r="70"/>
	<g>
		<defs>
			<path id="SVGID_1_" d="M160,102.6c0,38.7-31.3,70-70,70c-38.7,0-70-31.3-70-70C20,63.9,51.3,6.4,90,6.4
				C128.7,6.4,160,63.9,160,102.6z"/>
		</defs>
		<clipPath id="SVGID_2_">
			<use xlink:href="#SVGID_1_"  overflow="visible"/>
		</clipPath>
		<g clip-path="url(#SVGID_2_)">
			<path fill="#333333" d="M124.9,70.2c0,20.7-13.7,32-34.4,32l0,0c-20.7,0-35.9-10.4-35.9-31.2l-1.7-16.7
				c0-20.7,16.8-35.6,37.6-35.6l0,0c20.7,0,35.9,13.2,35.9,33.9L124.9,70.2z"/>
			<path fill="#D39663" d="M128.9,80.4c-3.3,11.1-3.3,11.1-7.3,11.1c-4.1,0-7.3-5-7.3-11.1s3.3-11.1,7.3-11.1c2,0,5.2,0,6.6,2
				C129.5,73.3,129.8,77.5,128.9,80.4z"/>
			<path fill="#D8A471" d="M120.8,72.4c0,16.9-6.6,45.1-22.2,45.1l-17.9,0.1c-15.7,0-22.8-28.2-22.8-45.1l0,0
				c0-6.6,1.9-19.4,4.6-24.8c5.4-10.7,16.9-6.8,26.4-6.8h6.8c2,0,0.6,1.1,2.4,1.5c4.8,1.1,15.9,4.5,18.3,8.8
				C120.1,57.6,120.8,63.1,120.8,72.4L120.8,72.4z"/>
			<path fill="#231F20" stroke="#231F20" stroke-width="3" stroke-miterlimit="10" d="M118.3,113.1"/>
			<path fill="none" stroke="#69462C" stroke-width="3" stroke-linecap="round" stroke-linejoin="round" stroke-miterlimit="10" d="
				M74.2,67.7c0,0,3.7-4.1,7.5,0"/>
			<path fill="#D39663" d="M90,40.7l4.1-1.1c4.2-1.1,9.5-0.5,11.3-0.8c6.9-1.5,8.6,2.7,11,7.1c3.6,6.4,4.4,17.2,4.4,26.5l0,0
				c0,16.9-6.6,45.1-22.2,45.1l-9.3,0"/>
			<path fill="#D8A471" d="M93.5,77.3c0,1.8-1.6,3.2-3.2,3.2c-1.6,0-2.9-1.4-2.9-3.2c0-1.8,1.3-3.2,2.9-3.2
				C91.9,74.1,93.5,75.6,93.5,77.3z"/>
			<path fill="#FFFFFF" d="M103.1,90.9c0,2.5-3.2,6.7-6.9,7.3l-4.9,0.4l-5.1-0.4c-3.2-0.5-8-4.7-8-7.3"/>
			<path fill="none" stroke="#69462C" stroke-width="3" stroke-linecap="round" stroke-linejoin="round" stroke-miterlimit="10" d="
				M100.8,67.7c0,0,3.7-4.1,7.5,0"/>
			<path fill="#D8A471" d="M51.7,79.8c3.3,10.7,3.3,10.7,7.5,10.7s7.5-4.8,7.5-10.7c0-5.9-3.3-10.7-7.5-10.7c-2.1,0-5.3,0-6.7,1.9
				C51.2,73,50.9,77,51.7,79.8z"/>
			<path fill="#ECCEB0" stroke="#D5BA9D" stroke-miterlimit="10" d="M98,135.6"/>
			<path fill="#D8A471" d="M79,117c0,0,0.3,5.5-2.8,15.7l14.8,17.7l10.8-18.3c0,0-5.1-5.3-4.7-14.6L79,117z"/>
			<path fill="#333333" d="M56.4,29.1c0,0,6.4,2.9,7.2,7.2l-1.8,2.5C61.8,38.7,60.4,31.2,56.4,29.1z"/>
			<path fill="#333333" d="M58.4,27.9c0,0,4.4,3.6,4,7l-1.9,1.6C60.5,36.5,61,30.4,58.4,27.9z"/>
			<path fill="#D39663" d="M89,152.3l12.4-15.6l0.6-3.8c0,0-2.2-7.2-1.9-16.5L89.3,116"/>
			<path fill="#333333" d="M63.6,23.4c0,0,6.4,2.9,7.2,7.2L69,33C69,33,67.6,25.5,63.6,23.4z"/>
			<path fill="#333333" d="M66.6,20.4c0,0,6.4,2.9,7.2,7.2l-1.8,2.5C71.9,30.1,70.5,22.6,66.6,20.4z"/>
			<path fill="#333333" d="M71.7,20.4c0,0,6.4,2.9,7.2,7.2l-1.8,2.5C77.1,30.1,75.6,22.6,71.7,20.4z"/>
			<path fill="#333333" d="M75.2,16c0,0,5.5,4.4,5.1,8.7l-2.4,2C78,26.7,78.5,19.1,75.2,16z"/>
			<path fill="#333333" d="M82.6,15.3c0,0,4.2,5.7,2.7,9.8l-2.8,1.3C82.5,26.3,85,19.1,82.6,15.3z"/>
			<path fill="#333333" d="M84.7,14.6c0,0,4.2,5.7,2.7,9.8l-2.8,1.3C84.6,25.7,87,18.4,84.7,14.6z"/>
			<path fill="#333333" d="M88.5,14.6c0,0,4.2,5.7,2.7,9.8l-2.8,1.3C88.4,25.7,90.9,18.4,88.5,14.6z"/>
			<g opacity="0.5">
				<circle opacity="0.6" fill="#8D7566" cx="84.2" cy="85.8" r="0.6"/>
				<circle opacity="0.6" fill="#8D7566" cx="83.6" cy="87.8" r="0.6"/>
				<circle opacity="0.6" fill="#8D7566" cx="79.7" cy="89.1" r="0.6"/>
				<circle opacity="0.6" fill="#8D7566" cx="86.4" cy="86" r="0.6"/>
				<circle opacity="0.6" fill="#8D7566" cx="85.1" cy="88.8" r="0.6"/>
				<circle opacity="0.6" fill="#8D7566" cx="91.5" cy="88.8" r="0.6"/>
				<circle opacity="0.6" fill="#8D7566" cx="94.1" cy="89" r="0.6"/>
				<circle opacity="0.6" fill="#8D7566" cx="87.4" cy="88.3" r="0.6"/>
				<circle opacity="0.6" fill="#8D7566" cx="81.8" cy="86.5" r="0.6"/>
				<circle opacity="0.6" fill="#8D7566" cx="95.4" cy="87.8" r="0.6"/>
				<circle opacity="0.6" fill="#8D7566" cx="93.7" cy="87" r="0.6"/>
				<circle opacity="0.6" fill="#8D7566" cx="97.9" cy="88.6" r="0.6"/>
				<circle opacity="0.6" fill="#8D7566" cx="91.3" cy="86" r="0.6"/>
				<circle opacity="0.6" fill="#8D7566" cx="93.8" cy="85.1" r="0.6"/>
				<circle opacity="0.6" fill="#8D7566" cx="87.9" cy="84.6" r="0.6"/>
				<circle opacity="0.6" fill="#8D7566" cx="84.5" cy="84" r="0.6"/>
				<circle opacity="0.6" fill="#8D7566" cx="80.6" cy="86.4" r="0.6"/>
				<circle opacity="0.6" fill="#8D7566" cx="98.3" cy="85.7" r="0.6"/>
				<circle opacity="0.6" fill="#8D7566" cx="100.3" cy="88.5" r="0.6"/>
				<circle opacity="0.6" fill="#8D7566" cx="96.7" cy="86.6" r="0.6"/>
			</g>
			<path fill="#333333" d="M74.4,18.4c0,0,4.4,3.6,4,7"/>
			<path fill="#333333" d="M96.6,15c0,0,4.4,3.6,4,7"/>
			<path fill="#55672E" d="M132.2,164.6c-0.6-4.2-2.2-8.2-3.7-12.2c-1.6-4-2.7-9-5.3-12.4c-2.5-3.2-6.3-5.2-10-6.7
				c-2.2-0.9-4.1-1.2-6.5-1.4c-0.4,0-4.2-0.6-4.4-0.2l-3.5,6.3c0,0-5.1,8.4-8.2,12l-14.5-19c-4.4,1-8.9,2.8-13,4.7
				c-5.5,2.5-8.4,7.3-10.5,12.8c-2,5.2-3.8,10.6-4.9,16c6.3,5.3,14.8,7,22.7,9.1c4.3,1.1,9.3,0.9,13.7,1.2c3.4,0.2,6.5,0.6,10.4,0.5
				c3.9-0.1,6.6-0.5,10.5-0.6c3.5-0.1,7.3-1.6,10.7-2.3c3.2-0.6,6.3-1.6,9.2-2.9c1.4-0.6,2.7-1.4,3.9-2.2
				C129.4,166.9,132.3,165.1,132.2,164.6z"/>
			<path fill="#333333" d="M112.2,20.8c0,0-4.6,2-5.1,5.1l1.3,1.8C108.4,27.6,109.4,22.3,112.2,20.8z"/>
			<path fill="#333333" d="M110.2,18.7c0,0-4.6,2-5.1,5.1l1.3,1.8C106.4,25.5,107.4,20.2,110.2,18.7z"/>
			<path fill="#333333" d="M106.5,18.7c0,0-4.6,2-5.1,5.1l1.3,1.8C102.7,25.5,103.8,20.2,106.5,18.7z"/>
			<path fill="#333333" d="M104.1,15.6c0,0-3.9,3.1-3.6,6.2l1.7,1.4C102.1,23.2,101.7,17.8,104.1,15.6z"/>
			<path fill="#333333" d="M97.4,14.6c0,0-3,4-1.9,6.9l2,0.9C97.4,22.4,95.7,17.3,97.4,14.6z"/>
			<path fill="#333333" d="M94,14.6c0,0-3,4-1.9,6.9l2,0.9C94.1,22.4,92.4,17.3,94,14.6z"/>
			<path fill="#333333" d="M104.6,17.3c0,0-3.1,2.5-2.8,5"/>
			<path fill="#333333" d="M116.9,21.4c0,0-4.6,2-5.1,5.1l1.3,1.8C113.1,28.2,114.1,22.9,116.9,21.4z"/>
			<path fill="#333333" d="M118.7,24c0,0-4.6,2-5.1,5.1l1.3,1.8C114.9,30.9,115.9,25.6,118.7,24z"/>
			<path fill="#333333" d="M121,29.4c0,0-5,0.4-6.5,3.1l0.6,2.1C115.1,34.6,117.8,29.9,121,29.4z"/>
			<path fill="#333333" d="M118.9,26.5c0,0-4.6,2-5.1,5.1l1.3,1.8C115.1,33.4,116.1,28.1,118.9,26.5z"/>
			<path fill="#333333" d="M60.1,27.5c0,0,5.5-1.4,8,1"/>
			<path fill="#333333" d="M74,18.4c0,0-1.1,4.9,1,7.1l2.2,0C77.2,25.5,73.6,21.5,74,18.4z"/>
			<path fill="#333333" d="M71.1,18.8c0,0-1.1,4.9,1,7.1l2.2,0C74.3,25.9,70.7,21.9,71.1,18.8z"/>
			<path fill="#333333" d="M69,21.7c0,0-1.1,4.9,1,7.1l2.2,0C72.2,28.8,68.5,24.8,69,21.7z"/>
			<path fill="#333333" d="M65,21.8c0,0,0.1,5,2.8,6.6l2.1-0.5C69.9,27.9,65.3,25,65,21.8z"/>
			<path fill="#333333" d="M60.2,26.6c0,0,1.4,4.8,4.4,5.7l1.9-1C66.5,31.2,61.3,29.5,60.2,26.6z"/>
			<path fill="#333333" d="M66.7,22.4c0,0,0.2,4,2.3,5.3"/>
			<path fill="#333333" d="M77.3,15c0,0-1.1,4.9,1,7.1l2.2,0C80.5,22.1,76.9,18.1,77.3,15z"/>
			<path fill="#333333" d="M80.5,15.1c0,0-1.1,4.9,1,7.1l2.2,0C83.7,22.3,80.1,18.3,80.5,15.1z"/>
			<polygon opacity="0.6" fill="#2D351A" points="90.8,162.6 68.3,134.7 69.1,134 90.8,161 111.4,133.1 112.2,133.7 			"/>
		</g>
	</g>
</g>
</svg>
