<?xml version="1.0" encoding="utf-8"?>
<!-- Generator: Adobe Illustrator 18.1.0, SVG Export Plug-In . SVG Version: 6.00 Build 0)  -->
<svg version="1.1" id="Layer_1" xmlns="http://www.w3.org/2000/svg" xmlns:xlink="http://www.w3.org/1999/xlink" x="0px" y="0px"
	 viewBox="0 0 180 180" enable-background="new 0 0 180 180" xml:space="preserve">
<g id="Layer_2">
</g>
<g>
	<circle fill="#D2D3D3" cx="90.2" cy="102.6" r="70"/>
	<g>
		<defs>
			<path id="SVGID_1_" d="M160.3,102.6c0,38.7-31.3,70-70,70c-38.7,0-70-31.3-70-70c0-38.7,31.3-100.7,70-100.7
				C129,1.9,160.3,63.9,160.3,102.6z"/>
		</defs>
		<clipPath id="SVGID_2_">
			<use xlink:href="#SVGID_1_"  overflow="visible"/>
		</clipPath>
		<g clip-path="url(#SVGID_2_)">
			<path fill="#333333" d="M136.5,67.9c0,28.9-20.7,52.4-46.2,52.4c-25.5,0-46.2-23.5-46.2-52.4c0-28.9,20.3-52.8,45.7-52.8
				C115.4,15.1,136.5,38.9,136.5,67.9z"/>
			<path fill="#191818" d="M91.2,15.1c25.5,0,45.3,23.8,45.3,52.8c0,28.9-20.7,52.4-46.2,52.4"/>
			<path fill="#D8A471" d="M128.8,84.3c-1.7,10.8-24.3,23-27.8,33.3c-6.8,20.4,3,36.1-11.4,36.1c-13.8,0-12.2-17-9.7-33.6
				c1.7-11.4-27.2-22-29.5-35.8c-5.6-33.6,17.6-55.8,39.2-55.8C111.2,28.4,134,50.6,128.8,84.3z"/>
			<path fill="#D39663" d="M90.3,30.5c21.7,0,44.5,18.4,39.2,46.3c-2,10.5-22.9,28.7-29.1,41.6c-2.3,4.8,4,8.6,3.5,12.5
				c-1.4,11.7-3.8,21.9-13.7,21.9"/>
			<path fill="#231F20" stroke="#231F20" stroke-width="3" stroke-miterlimit="10" d="M118,112.3"/>
			<path fill="none" stroke="#816145" stroke-width="3" stroke-linecap="round" stroke-linejoin="round" stroke-miterlimit="10" d="
				M73.9,67c0,0,3.7-4.1,7.5,0"/>
			<path fill="#D8A471" d="M93.9,76.6c0,1.8-1.6,3.2-3.2,3.2c-1.6,0-2.9-1.4-2.9-3.2c0-1.8,1.3-3.2,2.9-3.2
				C92.3,73.4,93.9,74.8,93.9,76.6z"/>
			<path fill="#FFFFFF" d="M102.8,90.1c0,2.5-3.2,6.7-6.9,7.3L91,97.8l-5.1-0.4c-3.2-0.5-8-4.7-8-7.3"/>
			<path fill="#EE823A" d="M124.1,171.8c-1-7.1-4.6-29.1-5.4-32c-1-3.8-5.3-6.3-8.5-6.8c-1.6-0.3-8-1.6-8-1.6l-8.7,7.1
				c0,0-2.1,10.4-3.2,14.5c0,0,0.2-5.5-3.8-15.3c-2.1-5.2-7.4-6.4-7.4-6.4l-3.7,0.1c0,0-4.9-0.4-6.5,0c-2.5,0.6-6.8,3.2-7.4,7.2
				c-0.4,2.8-5.8,25.5-7.5,33.7C54,172.1,86.9,190.1,124.1,171.8z"/>
			<path fill="none" stroke="#816145" stroke-width="3" stroke-linecap="round" stroke-linejoin="round" stroke-miterlimit="10" d="
				M100.4,67c0,0,3.7-4.1,7.5,0"/>
			<path fill="#333333" d="M106.3,130.7l5.1,0.4c0,0-3.6-3.1-3.6-4.2c-0.1-1.9,2-0.2,4.9,0.9c4,1.5-10.8-9.4-10.8-9.4
				c-2.5-3.2,18.9-12,22-16.6c5.9-8.6,9.6-30.3,8-45.9c-0.8-7.5-1-9.7-9.6-20.5c-1.5-1.9-1.5-4.3-5.1-6.8c-1.8-1.2-7.3-4.9-9.4-5.3
				C94.6,20.4,90.9,20,90.9,20S80.5,18.8,70,21.3c-5.2,1.2-10.2,9-12.9,13.6c-2,3.4-4,4.8-4.9,8.6c-2.8,11.3-5.7,35.5-0.8,46.3
				c4.4,9.8,22.8,15.3,27.3,26.2c1,2.5-9.4,5.7-7.2,12.1c5.1-0.6,4.9-1.4,1.8,2.3l1.4-0.5c0,0-1.9,4.8-0.2,3.6
				c3.6-2.6,4.5-0.8,7.8-3.9c1.5-1.4,1-8.3,1-8.3s0-9.6-1.2-11.4c-1.6-2.3-9.7-4-12-5.6c-2.5-1.7-4.3-5.7-5.7-8.3
				c-1.8-3.4-3.6-12.5-3.6-12.5s0.4-13.2,1.1-17.5c0.6-3.5-3.3,2.1,0.7-5.9c0,0,1.9-6.8,1.7-9.7C64.1,49,62.8,52,64,51.4
				c21.1-10.5,5.6-10.5,42.4-12.5c3.7-0.2,9.3,8.6,10.6,12.5c1.2,3.5,1.4,7.7,1.9,14.7c0.3,5,0.5,15-0.4,19.9
				c-0.7,3.7-3.9,12.5-5.9,14c-9,7.3-11,6.3-13.4,9.9c0,0-5.1,16.7-1.2,19.9c2.9,2.4,7.9,3.1,10.6,3.8"/>
			<path fill="#D8A471" d="M54.3,75.7c2.7,7.4,2.7,7.4,6,7.4c3.3,0,6-3.3,6-7.4c0-4.1-2.7-7.4-6-7.4c-1.7,0-4.3,0-5.4,1.3
				C53.9,71,53.6,73.8,54.3,75.7z"/>
			<path fill="#191818" d="M108.5,133.7c-2.6-0.7-7.7-0.4-10.5-2.8c-4.1-3.4,1.2-20.9,1.2-20.9c2.4-3.6,3.9-2.8,12.9-10.1
				c1.9-1.6,5.6-9.2,6.2-12.9c0.9-4.9,0.9-15,0.6-19.9c-0.5-7-0.7-11.2-1.9-14.7c-1.3-3.9-7-12.7-10.6-12.5
				c-7.8,0.4-12.1-0.3-16.1,0l-0.1-20l0.1-4.7c0,0,4.2,3.3,17.3,6.2c2.1,0.5,7.7,4.1,9.4,5.3c3.7,2.5,5.5,7.7,7,9.6
				c8.6,10.8,8.8,13,9.6,20.5c1.6,15.6-3,36.4-8.9,45c-3.2,4.6-24.7,13.9-22.2,17.1c0,0,14.4,10.5,10.4,9c-2.9-1.1-5-2.6-4.9-0.7
				c0.1,1.1,3.3,3.9,3.3,3.9l-4.5,0.3"/>
			<path fill="#D39663" d="M124.6,75.9c-2.7,7.4-2.7,7.4-6,7.4s-6-3.3-6-7.4c0-4.1,2.7-7.4,6-7.4c1.7,0,4.3,0,5.4,1.3
				C125.1,71.2,125.3,74,124.6,75.9z"/>
			<path fill="#ECCEB0" stroke="#D5BA9D" stroke-miterlimit="10" d="M97.7,134.8"/>
			<polygon fill="#D22527" points="59.8,81.6 58.9,81.3 58.1,81.9 58.1,80.9 57.2,80.3 58.2,80 58.5,79 59.1,79.9 60.1,79.8 
				59.5,80.6 			"/>
			<polygon fill="#D22527" points="121.4,81.6 120.5,81.3 119.6,81.9 119.7,80.9 118.8,80.3 119.8,80 120.1,79 120.7,79.9 
				121.7,79.8 121.1,80.6 			"/>
		</g>
	</g>
</g>
</svg>
