<?xml version="1.0" encoding="utf-8"?>
<!-- Generator: Adobe Illustrator 18.1.0, SVG Export Plug-In . SVG Version: 6.00 Build 0)  -->
<svg version="1.1" id="Layer_1" xmlns="http://www.w3.org/2000/svg" xmlns:xlink="http://www.w3.org/1999/xlink" x="0px" y="0px"
	 viewBox="0 0 180 180" enable-background="new 0 0 180 180" xml:space="preserve">
<g id="Layer_2">
</g>
<circle fill="#D2D3D3" cx="90.3" cy="102.6" r="70"/>
<g>
	<defs>
		<path id="SVGID_1_" d="M160.3,102.6c0,38.7-31.3,70-70,70c-38.7,0-70-31.3-70-70s31.3-97.5,70-97.5
			C128.9,5.1,160.3,63.9,160.3,102.6z"/>
	</defs>
	<clipPath id="SVGID_2_">
		<use xlink:href="#SVGID_1_"  overflow="visible"/>
	</clipPath>
	<g clip-path="url(#SVGID_2_)">
		<path fill="#DAB358" d="M88.4,54.7l-9.3,68.4c-0.3,0-2.5-0.4-2.8-0.6c-16.9-12.7-12.6,17.9-25.6,10.2c3.7-2.6-7.2,4-7.2-3.5
			l-0.1-69.7c0-24.4,17.7-44.5,39.6-44.5l5.7,0L88.4,54.7"/>
		<path fill="#B68B32" d="M125.5,131.8c2.9-6.1,5.7-2.9,5.7-10.3l2.7-62.1c0-24.4-17.8-44.2-40-44.2h-5.6l-1.9,124.5
			c0.3,0,13.5,3.7,18.4,0.6C116.3,132.7,114.2,137.8,125.5,131.8z"/>
		<path fill="#F3D5B4" d="M127.2,83.6c-5,32.1-17.6,69.4-39.2,69.4c-21.7,0-32.8-31.2-39.2-69.4C43.1,50,66.3,27.8,88,27.8
			C109.6,27.8,132.4,49.9,127.2,83.6z"/>
		<path fill="#ECCEB0" d="M88.8,29.8c21.7,0,44.5,18.4,39.2,46.3c-5,26.7-17.6,76.1-39.2,76.1"/>
		<path fill="#DAB358" d="M111,132.2c-3.6-2.6-13-0.1-16.2-3.2c-1.5-1.4-1-8.3-1-8.3s0-9.6,1.2-11.4c1.6-2.3,9-4,11.3-5.6
			c2.5-1.7,4.3-5.7,5.7-8.3c1.8-3.4,3.6-12.5,3.6-12.5s0.3-13.2-0.4-17.5c-0.6-3.5,3.4,4.4-0.6-3.5c0,0,5.6,0,2.2-1.2
			c-8.2-2.7-3.2-12.1-7.7-17.6c-5.1-6.3-14-11.5-30.1-8.7c-2,0.4-8.9,3.4-11.3,5.8c-2.6,2.6-7.6,20.8-7.6,20.8s-0.4,0.5-0.9,7.5
			c-0.3,5-1.7,11.9-0.9,16.8c0.7,3.7,3.9,12.5,5.9,14c9,7.3,11,6.3,13.4,9.9c0,0,5.1,16.7,1.2,19.9c-2.9,2.4-11.9,2.9-14.5,3.6
			c-2.5,0.7,1.6-2.1,0,0c-1.6,2,0.7-6.6,0,0c-3.9-4.4,9.5-3.1-11.7,0.6c-2.5,0.3,1.7-2.3,1.2-3c-0.8-1.2-3.8,0.5-3.7-0.9
			c0.2-2.5-1.6-4.2-1.6-6.8c0-7.9,2.6-14.3-2.4-33c-2.6-9.6,0-29.9,1-39.8c0.7-7.5-1.5-6.7,7-20.2c1.5-2.4,4.1-5.3,7.8-7.8
			c1.8-1.2,8.6-3.6,10.7-4.2c8.3-2.3,13.4-1.9,13.4-1.9s13.8-1.1,23.5,3.6c5.4,2.6,10.4,6.5,13.1,11.2c2,3.4,4,5.8,4.9,9.6
			c2.8,11.3,5.6,35,4.3,46.6c-1.6,14.2-11.6,30.5-9.7,38.4c0.5,2.2-1.4-1.6-1.9,0.6c-0.3,1.6-1-4.1,0-2.2c0.7,1.5-0.4,4-0.3,5.6
			l-1.2-0.9l0.9-4l-2.8,2.5L111,132.2"/>
		<path fill="#B68B32" d="M111.2,132c-3.6-2.6-13.1,0.3-16.4-2.8c-1.5-1.4-0.8-8.8-0.8-8.8s0-9.6,1.2-11.4c1.6-2.3,9-4,11.3-5.6
			c2.5-1.7,4.3-5.7,5.7-8.3c1.8-3.4,3.6-12.5,3.6-12.5s0.3-13.2-0.4-17.5c-0.6-3.5,3.4,4.4-0.6-3.5c0,0,5.6,0,2.2-1.2
			c-8.2-2.7-3.2-12.1-7.7-17.6c-4-5-10.6-9.4-21.3-9.5L88,15.1c3.9,0.1,14.3,0.4,22.1,4.2c5.4,2.6,10.4,6.5,13.1,11.2
			c2,3.4,4,5.8,4.9,9.6c2.8,11.3,5.6,35,4.3,46.6c-1.6,14.2-4.3,35.6-2.4,43.5c0.5,2.2-1.5-2.4-1.9-0.2c-0.3,1.6-1.7-1-0.7,1
			c0.7,1.5-0.8-1.8-0.7-0.2l-4.7,0.2l-0.4,0.1l-4-0.1L111.2,132"/>
		<path fill="#F3D5B4" d="M92.6,82.4c0,1.8-1.6,3.2-3.2,3.2c-1.6,0-2.9-1.4-2.9-3.2c0-1.8,1.3-3.2,2.9-3.2
			C90.9,79.2,92.6,80.6,92.6,82.4z"/>
		<path fill="#FFFFFF" d="M96.9,92.9c0,2.5-2.1,6.6-4.5,7.2l-3.2,0.4l-3.4-0.4c-2.1-0.5-5.3-4.7-5.3-7.2"/>
		<path fill="#212B5E" d="M93.5,153.4c0,0-3.5,0-4.2-0.1c-5.5-1-6.4-1.4-7.9-2.8c-0.9-0.8-3.2-3.5-3.2-3.5s-9.9-16.2-11.5-15.9
			c-2.5,0.6-7.7,4.1-8.2,8.1c-0.4,2.8-3.3,17.8-4.9,25.9C63.8,170,78,173,90.3,173"/>
		<path fill="#212B5E" d="M85.7,153.2c0,0,2.4-0.3,3.1-0.4c5.5-1,7-1.6,8.6-3c0.9-0.8,3-3.1,3.8-4.2c2.8-3.7,9.7-15.1,11.3-14.7
			c2.5,0.6,7.7,4.1,8.2,8.1c0.4,2.8,3.1,18.5,4.8,26.6c-10.4,4.9-23.9,11.2-36.1,11.2"/>
		<path fill="none" stroke="#A98C71" stroke-width="3" stroke-linecap="round" stroke-linejoin="round" stroke-miterlimit="10" d="
			M71.6,71.2c0,0,3.7-4.1,7.5,0"/>
		<path fill="none" stroke="#A98C71" stroke-width="3" stroke-linecap="round" stroke-linejoin="round" stroke-miterlimit="10" d="
			M98.1,71.2c0,0,3.7-4.1,7.5,0"/>
		<path fill="#ECCEB0" d="M121.6,85c-2.7,8.5-2.7,8.5-6,8.5c-3.3,0-6-3.8-6-8.5c0-4.7,2.7-8.5,6-8.5c1.7,0,4.3,0,5.4,1.5
			C122.1,79.6,122.3,82.8,121.6,85z"/>
		<path fill="#F3D5B4" d="M52,82.3c2.7,8.5,2.7,8.5,6,8.5c3.3,0,6-3.8,6-8.5c0-4.7-2.7-8.5-6-8.5c-1.7,0-4.3,0-5.4,1.5
			C51.6,76.9,51.3,80.1,52,82.3z"/>
		<circle fill="#FFFFFF" cx="116.5" cy="90.2" r="1.2"/>
		<circle fill="#FFFFFF" cx="57.2" cy="87.6" r="1.2"/>
		<path fill="none" stroke="#DAB358" stroke-linecap="round" stroke-linejoin="round" stroke-miterlimit="10" d="M66.7,34.2
			c0,0,31.7-16.5,49.8,20.1c0,0,6.1,11,8.3,5.3"/>
		<path fill="none" stroke="#DAB358" stroke-width="2" stroke-linecap="round" stroke-linejoin="round" stroke-miterlimit="10" d="
			M69,27.9c0,0,31.7-16.5,49.8,20.1c0,0,6.1,11,8.3,5.3"/>
		<path fill="none" stroke="#DAB358" stroke-width="2" stroke-linecap="round" stroke-linejoin="round" stroke-miterlimit="10" d="
			M60.1,132"/>
		<circle fill="#7D7D7D" cx="76.9" cy="132" r="0.2"/>
		<circle fill="#7D7D7D" cx="76.5" cy="131" r="0.2"/>
		<circle fill="#7D7D7D" cx="77.3" cy="132.9" r="0.2"/>
		<circle fill="#7D7D7D" cx="78" cy="133.7" r="0.2"/>
		<circle fill="#7D7D7D" cx="78.7" cy="134.4" r="0.2"/>
		<circle fill="#7D7D7D" cx="79.4" cy="135.3" r="0.2"/>
		<circle fill="#7D7D7D" cx="80.1" cy="136" r="0.2"/>
		<circle fill="#7D7D7D" cx="80.8" cy="136.7" r="0.2"/>
		<circle fill="#7D7D7D" cx="99" cy="131.3" r="0.2"/>
		<circle fill="#7D7D7D" cx="100" cy="130.9" r="0.2"/>
		<circle fill="#7D7D7D" cx="98.1" cy="131.8" r="0.2"/>
		<circle fill="#7D7D7D" cx="97.3" cy="132.5" r="0.2"/>
		<circle fill="#7D7D7D" cx="96.6" cy="133.2" r="0.2"/>
		<circle fill="#7D7D7D" cx="95.7" cy="133.9" r="0.2"/>
		<circle fill="#7D7D7D" cx="95" cy="134.6" r="0.2"/>
		<circle fill="#7D7D7D" cx="94.3" cy="135.3" r="0.2"/>
		<circle fill="#7D7D7D" cx="81.5" cy="137.6" r="0.2"/>
		<circle fill="#7D7D7D" cx="82.3" cy="138.4" r="0.2"/>
		<circle fill="#7D7D7D" cx="83" cy="139.3" r="0.2"/>
		<circle fill="#7D7D7D" cx="83.5" cy="140.1" r="0.2"/>
		<circle fill="#7D7D7D" cx="84.3" cy="140.8" r="0.2"/>
		<circle fill="#7D7D7D" cx="93.8" cy="136" r="0.2"/>
		<circle fill="#7D7D7D" cx="93.1" cy="136.7" r="0.2"/>
		<circle fill="#7D7D7D" cx="92.7" cy="137.6" r="0.2"/>
		<circle fill="#7D7D7D" cx="91.9" cy="138.4" r="0.2"/>
		<circle fill="#7D7D7D" cx="91.2" cy="139.1" r="0.2"/>
		<circle fill="#7D7D7D" cx="90.6" cy="140.1" r="0.2"/>
		<circle fill="#7D7D7D" cx="90.1" cy="141" r="0.2"/>
		<circle fill="#7D7D7D" cx="85" cy="141.5" r="0.2"/>
		<circle fill="#7D7D7D" cx="85.7" cy="142.4" r="0.2"/>
		<circle fill="#7D7D7D" cx="86.4" cy="143.1" r="0.2"/>
		<circle fill="#7D7D7D" cx="89.6" cy="141.9" r="0.2"/>
		<circle fill="#7D7D7D" cx="89" cy="142.8" r="0.2"/>
		<circle fill="#7D7D7D" cx="88.5" cy="143.8" r="0.2"/>
		<circle fill="#7D7D7D" cx="87.4" cy="143.7" r="0.2"/>
		<circle fill="#FFFFFF" cx="88.2" cy="144.1" r="1.3"/>
		<path fill="#B58C30" d="M131.9,113c0,0,1.2,9.8,6.7,4.8c0,0-4.5,9.1-10-2.6"/>
		<path fill="#B58C30" d="M129.3,113.5c0,11.4,14.4,13.1,18.3,9.6c0,0-20.8,14.8-26.3,3.1"/>
		<path fill="#DAB358" d="M47.9,119.1c0,0-10.8,13.6-13.6,12.1c0,0,30.6,10.2,41.1-3.4"/>
		<path fill="#DAB358" d="M44.5,114.9c0,0-5.5,10.3-10.6,4.9c0,0,9.2,11.2,15.6-0.1"/>
		<path fill="#B58C30" d="M132.1,127c0,0,2.7,7.1,7,7.2c0,0-34.6,5.3-41.1-6.5"/>
		<path fill="#BE9643" d="M71.4,35.1c0,0,25.2-12.3,40.7,8.4l1.3,0.6c-12.9-25.2-42-12.9-42-12.9"/>
		<path fill="#BE9643" d="M76.6,27.8c0,0,19.4-7.3,31.3,5l1,0.4c-9.9-15-32.3-7.7-32.3-7.7"/>
	</g>
</g>
</svg>
