<?xml version="1.0" encoding="utf-8"?>
<!-- Generator: Adobe Illustrator 18.1.0, SVG Export Plug-In . SVG Version: 6.00 Build 0)  -->
<svg version="1.1" id="Layer_1" xmlns="http://www.w3.org/2000/svg" xmlns:xlink="http://www.w3.org/1999/xlink" x="0px" y="0px"
	 viewBox="0 0 180 180" enable-background="new 0 0 180 180" xml:space="preserve">
<pattern  y="180" width="81.4" height="72" patternUnits="userSpaceOnUse" id="Scotch_Rule_5" viewBox="0 -72 81.4 72" overflow="visible">
	<g>
		<polygon fill="none" points="0,-72 81.4,-72 81.4,0 0,0 		"/>
		<line fill="none" stroke="#231F20" stroke-width="0.3" x1="40.7" y1="0" x2="40.7" y2="-72"/>
		<line fill="none" stroke="#231F20" stroke-width="0.3" x1="13.6" y1="0" x2="13.6" y2="-72"/>
		<line fill="none" stroke="#231F20" stroke-width="0.3" x1="67.8" y1="0" x2="67.8" y2="-72"/>
		<line fill="none" stroke="#231F20" stroke-width="3.2" x1="44.8" y1="0" x2="44.8" y2="-72"/>
		<line fill="none" stroke="#231F20" stroke-width="3.2" x1="17.7" y1="0" x2="17.7" y2="-72"/>
		<line fill="none" stroke="#231F20" stroke-width="3.2" x1="71.9" y1="0" x2="71.9" y2="-72"/>
		<line fill="none" stroke="#231F20" stroke-width="0.3" x1="48.9" y1="0" x2="48.9" y2="-72"/>
		<line fill="none" stroke="#231F20" stroke-width="0.3" x1="21.8" y1="0" x2="21.8" y2="-72"/>
		<line fill="none" stroke="#231F20" stroke-width="0.3" x1="76" y1="0" x2="76" y2="-72"/>
		<line fill="none" stroke="#231F20" stroke-width="3.2" x1="36.6" y1="0" x2="36.6" y2="-72"/>
		<line fill="none" stroke="#231F20" stroke-width="3.2" x1="9.4" y1="0" x2="9.4" y2="-72"/>
		<line fill="none" stroke="#231F20" stroke-width="3.2" x1="63.7" y1="0" x2="63.7" y2="-72"/>
		<line fill="none" stroke="#231F20" stroke-width="0.3" x1="5.3" y1="0" x2="5.3" y2="-72"/>
		<line fill="none" stroke="#231F20" stroke-width="0.3" x1="32.4" y1="0" x2="32.4" y2="-72"/>
		<line fill="none" stroke="#231F20" stroke-width="0.3" x1="59.6" y1="0" x2="59.6" y2="-72"/>
	</g>
</pattern>
<pattern  y="180" width="12.8" height="11.1" patternUnits="userSpaceOnUse" id="stubble" viewBox="0 -11.1 12.8 11.1" overflow="visible">
	<g>
		<polygon fill="none" points="0,-11.1 12.8,-11.1 12.8,0 0,0 		"/>
		<g opacity="0.5">
			<path opacity="0.6" fill="#8D7566" d="M3.3-2.3c0,0.2-0.2,0.4-0.4,0.4c-0.2,0-0.4-0.2-0.4-0.4c0-0.2,0.2-0.4,0.4-0.4
				C3.2-2.6,3.3-2.5,3.3-2.3z"/>
			<path opacity="0.6" fill="#8D7566" d="M3-1.1c0,0.2-0.2,0.4-0.4,0.4c-0.2,0-0.4-0.2-0.4-0.4c0-0.2,0.2-0.4,0.4-0.4
				C2.8-1.5,3-1.3,3-1.1z"/>
			<path opacity="0.6" fill="#8D7566" d="M0.7-0.4C0.7-0.2,0.6,0,0.4,0C0.2,0,0-0.2,0-0.4c0-0.2,0.2-0.4,0.4-0.4
				C0.6-0.7,0.7-0.6,0.7-0.4z"/>
			<path opacity="0.6" fill="#8D7566" d="M4.6-2.1c0,0.2-0.2,0.4-0.4,0.4c-0.2,0-0.4-0.2-0.4-0.4c0-0.2,0.2-0.4,0.4-0.4
				C4.5-2.5,4.6-2.3,4.6-2.1z"/>
			<path opacity="0.6" fill="#8D7566" d="M3.9-0.5c0,0.2-0.2,0.4-0.4,0.4c-0.2,0-0.4-0.2-0.4-0.4c0-0.2,0.2-0.4,0.4-0.4
				C3.7-0.9,3.9-0.7,3.9-0.5z"/>
			<path opacity="0.6" fill="#8D7566" d="M7.6-0.5c0,0.2-0.2,0.4-0.4,0.4S6.9-0.3,6.9-0.5c0-0.2,0.2-0.4,0.4-0.4S7.6-0.7,7.6-0.5z"
				/>
			<path opacity="0.6" fill="#8D7566" d="M9.1-0.4c0,0.2-0.2,0.4-0.4,0.4c-0.2,0-0.4-0.2-0.4-0.4c0-0.2,0.2-0.4,0.4-0.4
				C9-0.8,9.1-0.6,9.1-0.4z"/>
			<path opacity="0.6" fill="#8D7566" d="M5.2-0.8c0,0.2-0.2,0.4-0.4,0.4c-0.2,0-0.4-0.2-0.4-0.4c0-0.2,0.2-0.4,0.4-0.4
				C5.1-1.2,5.2-1,5.2-0.8z"/>
			<path opacity="0.6" fill="#8D7566" d="M1.9-1.9c0,0.2-0.2,0.3-0.3,0.3c-0.2,0-0.3-0.2-0.3-0.3c0-0.2,0.2-0.3,0.3-0.3
				C1.7-2.2,1.9-2.1,1.9-1.9z"/>
			<path opacity="0.6" fill="#8D7566" d="M9.2-1.1c0,0.2,0.2,0.4,0.4,0.4c0.2,0,0.4-0.2,0.4-0.4c0-0.2-0.2-0.4-0.4-0.4
				C9.4-1.5,9.2-1.3,9.2-1.1z"/>
			<path opacity="0.6" fill="#8D7566" d="M8.2-1.6c0,0.2,0.2,0.4,0.4,0.4c0.2,0,0.4-0.2,0.4-0.4C8.9-1.8,8.7-2,8.5-2
				C8.4-2,8.2-1.8,8.2-1.6z"/>
			<path opacity="0.6" fill="#8D7566" d="M10.7-0.6c0,0.2,0.2,0.4,0.4,0.4c0.2,0,0.4-0.2,0.4-0.4C11.4-0.8,11.2-1,11-1
				C10.8-1,10.7-0.8,10.7-0.6z"/>
			<path opacity="0.6" fill="#8D7566" d="M6.8-2.1c0,0.2,0.2,0.4,0.4,0.4c0.2,0,0.4-0.2,0.4-0.4c0-0.2-0.2-0.4-0.4-0.4
				C7-2.5,6.8-2.3,6.8-2.1z"/>
			<path opacity="0.6" fill="#8D7566" d="M8.3-2.7c0,0.2,0.2,0.4,0.4,0.4C8.8-2.3,9-2.5,9-2.7C9-2.9,8.8-3,8.6-3
				C8.4-3,8.3-2.9,8.3-2.7z"/>
			<path opacity="0.6" fill="#8D7566" d="M4.8-3c0,0.2,0.2,0.4,0.4,0.4S5.5-2.8,5.5-3c0-0.2-0.2-0.4-0.4-0.4S4.8-3.2,4.8-3z"/>
			<path opacity="0.6" fill="#8D7566" d="M2.8-3.3C2.8-3.1,3-3,3.2-3c0.2,0,0.4-0.2,0.4-0.4c0-0.2-0.2-0.4-0.4-0.4
				C3-3.7,2.8-3.5,2.8-3.3z"/>
			<path opacity="0.6" fill="#8D7566" d="M0.5-1.9c0,0.2,0.2,0.4,0.4,0.4s0.4-0.2,0.4-0.4c0-0.2-0.2-0.4-0.4-0.4S0.5-2.1,0.5-1.9z"
				/>
			<path opacity="0.6" fill="#8D7566" d="M10.9-2.3c0,0.2,0.2,0.4,0.4,0.4c0.2,0,0.4-0.2,0.4-0.4c0-0.2-0.2-0.4-0.4-0.4
				C11.1-2.7,10.9-2.5,10.9-2.3z"/>
			<path opacity="0.6" fill="#8D7566" d="M12.1-0.7c0,0.2,0.2,0.4,0.4,0.4c0.2,0,0.4-0.2,0.4-0.4c0-0.2-0.2-0.4-0.4-0.4
				C12.3-1,12.1-0.9,12.1-0.7z"/>
			<path opacity="0.6" fill="#8D7566" d="M10.1-1.6c0.1,0.1,0.4,0.1,0.5,0c0.1-0.1,0.1-0.4,0-0.5c-0.1-0.1-0.4-0.1-0.5,0
				C10-1.9,10-1.7,10.1-1.6z"/>
		</g>
		<g opacity="0.5">
			<path opacity="0.6" fill="#8D7566" d="M3.3-6c0,0.2-0.2,0.4-0.4,0.4C2.8-5.6,2.6-5.8,2.6-6c0-0.2,0.2-0.4,0.4-0.4
				C3.2-6.3,3.3-6.2,3.3-6z"/>
			<path opacity="0.6" fill="#8D7566" d="M3-4.8c0,0.2-0.2,0.4-0.4,0.4c-0.2,0-0.4-0.2-0.4-0.4c0-0.2,0.2-0.4,0.4-0.4
				C2.8-5.2,3-5,3-4.8z"/>
			<path opacity="0.6" fill="#8D7566" d="M0.7-4.1c0,0.2-0.2,0.4-0.4,0.4C0.2-3.7,0-3.9,0-4.1c0-0.2,0.2-0.4,0.4-0.4
				C0.6-4.4,0.7-4.3,0.7-4.1z"/>
			<path opacity="0.6" fill="#8D7566" d="M4.6-5.8c0,0.2-0.2,0.4-0.4,0.4c-0.2,0-0.4-0.2-0.4-0.4c0-0.2,0.2-0.4,0.4-0.4
				C4.5-6.2,4.6-6,4.6-5.8z"/>
			<path opacity="0.6" fill="#8D7566" d="M3.9-4.2c0,0.2-0.2,0.4-0.4,0.4C3.3-3.8,3.2-4,3.2-4.2c0-0.2,0.2-0.4,0.4-0.4
				C3.7-4.6,3.9-4.4,3.9-4.2z"/>
			<path opacity="0.6" fill="#8D7566" d="M7.6-4.2c0,0.2-0.2,0.4-0.4,0.4S6.9-4,6.9-4.2c0-0.2,0.2-0.4,0.4-0.4S7.6-4.4,7.6-4.2z"/>
			<path opacity="0.6" fill="#8D7566" d="M9.1-4.1c0,0.2-0.2,0.4-0.4,0.4c-0.2,0-0.4-0.2-0.4-0.4c0-0.2,0.2-0.4,0.4-0.4
				C9-4.5,9.1-4.3,9.1-4.1z"/>
			<path opacity="0.6" fill="#8D7566" d="M5.2-4.5c0,0.2-0.2,0.4-0.4,0.4c-0.2,0-0.4-0.2-0.4-0.4c0-0.2,0.2-0.4,0.4-0.4
				C5.1-4.9,5.2-4.7,5.2-4.5z"/>
			<path opacity="0.6" fill="#8D7566" d="M1.9-5.6c0,0.2-0.2,0.3-0.3,0.3c-0.2,0-0.3-0.2-0.3-0.3c0-0.2,0.2-0.3,0.3-0.3
				C1.7-5.9,1.9-5.8,1.9-5.6z"/>
			<path opacity="0.6" fill="#8D7566" d="M9.2-4.8c0,0.2,0.2,0.4,0.4,0.4c0.2,0,0.4-0.2,0.4-0.4C10-5,9.8-5.2,9.6-5.2
				C9.4-5.2,9.2-5,9.2-4.8z"/>
			<path opacity="0.6" fill="#8D7566" d="M8.2-5.3c0,0.2,0.2,0.4,0.4,0.4c0.2,0,0.4-0.2,0.4-0.4c0-0.2-0.2-0.4-0.4-0.4
				C8.4-5.6,8.2-5.5,8.2-5.3z"/>
			<path opacity="0.6" fill="#8D7566" d="M10.7-4.3C10.7-4.1,10.8-4,11-4c0.2,0,0.4-0.2,0.4-0.4c0-0.2-0.2-0.4-0.4-0.4
				C10.8-4.7,10.7-4.5,10.7-4.3z"/>
			<path opacity="0.6" fill="#8D7566" d="M6.8-5.8c0,0.2,0.2,0.4,0.4,0.4c0.2,0,0.4-0.2,0.4-0.4c0-0.2-0.2-0.4-0.4-0.4
				C7-6.2,6.8-6,6.8-5.8z"/>
			<path opacity="0.6" fill="#8D7566" d="M8.3-6.4C8.3-6.2,8.4-6,8.6-6C8.8-6,9-6.2,9-6.4c0-0.2-0.2-0.4-0.4-0.4
				C8.4-6.7,8.3-6.6,8.3-6.4z"/>
			<path opacity="0.6" fill="#8D7566" d="M4.8-6.7c0,0.2,0.2,0.4,0.4,0.4s0.4-0.2,0.4-0.4c0-0.2-0.2-0.4-0.4-0.4S4.8-6.9,4.8-6.7z"
				/>
			<path opacity="0.6" fill="#8D7566" d="M2.8-7c0,0.2,0.2,0.4,0.4,0.4c0.2,0,0.4-0.2,0.4-0.4c0-0.2-0.2-0.4-0.4-0.4
				C3-7.4,2.8-7.2,2.8-7z"/>
			<path opacity="0.6" fill="#8D7566" d="M0.5-5.6c0,0.2,0.2,0.4,0.4,0.4s0.4-0.2,0.4-0.4C1.2-5.8,1-6,0.8-6S0.5-5.8,0.5-5.6z"/>
			<path opacity="0.6" fill="#8D7566" d="M10.9-6c0,0.2,0.2,0.4,0.4,0.4c0.2,0,0.4-0.2,0.4-0.4c0-0.2-0.2-0.4-0.4-0.4
				C11.1-6.4,10.9-6.2,10.9-6z"/>
			<path opacity="0.6" fill="#8D7566" d="M12.1-4.4c0,0.2,0.2,0.4,0.4,0.4c0.2,0,0.4-0.2,0.4-0.4c0-0.2-0.2-0.4-0.4-0.4
				C12.3-4.7,12.1-4.6,12.1-4.4z"/>
			<path opacity="0.6" fill="#8D7566" d="M10.1-5.2c0.1,0.1,0.4,0.1,0.5,0c0.1-0.1,0.1-0.4,0-0.5c-0.1-0.1-0.4-0.1-0.5,0
				C10-5.6,10-5.4,10.1-5.2z"/>
		</g>
		<g opacity="0.5">
			<path opacity="0.6" fill="#8D7566" d="M3.3-9.7c0,0.2-0.2,0.4-0.4,0.4c-0.2,0-0.4-0.2-0.4-0.4C2.6-9.9,2.8-10,3-10
				C3.2-10,3.3-9.9,3.3-9.7z"/>
			<path opacity="0.6" fill="#8D7566" d="M3-8.5c0,0.2-0.2,0.4-0.4,0.4c-0.2,0-0.4-0.2-0.4-0.4c0-0.2,0.2-0.4,0.4-0.4
				C2.8-8.9,3-8.7,3-8.5z"/>
			<path opacity="0.6" fill="#8D7566" d="M0.7-7.8c0,0.2-0.2,0.4-0.4,0.4C0.2-7.4,0-7.6,0-7.8C0-8,0.2-8.1,0.4-8.1
				C0.6-8.1,0.7-8,0.7-7.8z"/>
			<path opacity="0.6" fill="#8D7566" d="M4.6-9.5c0,0.2-0.2,0.4-0.4,0.4c-0.2,0-0.4-0.2-0.4-0.4c0-0.2,0.2-0.4,0.4-0.4
				C4.5-9.9,4.6-9.7,4.6-9.5z"/>
			<path opacity="0.6" fill="#8D7566" d="M3.9-7.9c0,0.2-0.2,0.4-0.4,0.4c-0.2,0-0.4-0.2-0.4-0.4c0-0.2,0.2-0.4,0.4-0.4
				C3.7-8.2,3.9-8.1,3.9-7.9z"/>
			<path opacity="0.6" fill="#8D7566" d="M7.6-7.9c0,0.2-0.2,0.4-0.4,0.4S6.9-7.7,6.9-7.9c0-0.2,0.2-0.4,0.4-0.4S7.6-8.1,7.6-7.9z"
				/>
			<path opacity="0.6" fill="#8D7566" d="M9.1-7.8c0,0.2-0.2,0.4-0.4,0.4c-0.2,0-0.4-0.2-0.4-0.4c0-0.2,0.2-0.4,0.4-0.4
				C9-8.2,9.1-8,9.1-7.8z"/>
			<path opacity="0.6" fill="#8D7566" d="M5.2-8.2c0,0.2-0.2,0.4-0.4,0.4C4.7-7.9,4.5-8,4.5-8.2c0-0.2,0.2-0.4,0.4-0.4
				C5.1-8.6,5.2-8.4,5.2-8.2z"/>
			<path opacity="0.6" fill="#8D7566" d="M1.9-9.3c0,0.2-0.2,0.3-0.3,0.3c-0.2,0-0.3-0.2-0.3-0.3c0-0.2,0.2-0.3,0.3-0.3
				C1.7-9.6,1.9-9.5,1.9-9.3z"/>
			<path opacity="0.6" fill="#8D7566" d="M9.2-8.5c0,0.2,0.2,0.4,0.4,0.4c0.2,0,0.4-0.2,0.4-0.4c0-0.2-0.2-0.4-0.4-0.4
				C9.4-8.9,9.2-8.7,9.2-8.5z"/>
			<path opacity="0.6" fill="#8D7566" d="M8.2-9c0,0.2,0.2,0.4,0.4,0.4c0.2,0,0.4-0.2,0.4-0.4c0-0.2-0.2-0.4-0.4-0.4
				C8.4-9.3,8.2-9.2,8.2-9z"/>
			<path opacity="0.6" fill="#8D7566" d="M10.7-8c0,0.2,0.2,0.4,0.4,0.4c0.2,0,0.4-0.2,0.4-0.4c0-0.2-0.2-0.4-0.4-0.4
				C10.8-8.4,10.7-8.2,10.7-8z"/>
			<path opacity="0.6" fill="#8D7566" d="M6.8-9.5c0,0.2,0.2,0.4,0.4,0.4c0.2,0,0.4-0.2,0.4-0.4c0-0.2-0.2-0.4-0.4-0.4
				C7-9.9,6.8-9.7,6.8-9.5z"/>
			<path opacity="0.6" fill="#8D7566" d="M8.3-10.1c0,0.2,0.2,0.4,0.4,0.4C8.8-9.7,9-9.9,9-10.1c0-0.2-0.2-0.4-0.4-0.4
				C8.4-10.4,8.3-10.3,8.3-10.1z"/>
			<path opacity="0.6" fill="#8D7566" d="M4.8-10.4C4.8-10.2,5-10,5.2-10s0.4-0.2,0.4-0.4c0-0.2-0.2-0.4-0.4-0.4S4.8-10.6,4.8-10.4z
				"/>
			<path opacity="0.6" fill="#8D7566" d="M2.8-10.7c0,0.2,0.2,0.4,0.4,0.4c0.2,0,0.4-0.2,0.4-0.4c0-0.2-0.2-0.4-0.4-0.4
				C3-11.1,2.8-10.9,2.8-10.7z"/>
			<path opacity="0.6" fill="#8D7566" d="M0.5-9.3C0.5-9.1,0.7-9,0.8-9s0.4-0.2,0.4-0.4c0-0.2-0.2-0.4-0.4-0.4S0.5-9.5,0.5-9.3z"/>
			<path opacity="0.6" fill="#8D7566" d="M10.9-9.7c0,0.2,0.2,0.4,0.4,0.4c0.2,0,0.4-0.2,0.4-0.4c0-0.2-0.2-0.4-0.4-0.4
				C11.1-10.1,10.9-9.9,10.9-9.7z"/>
			<path opacity="0.6" fill="#8D7566" d="M12.1-8.1c0,0.2,0.2,0.4,0.4,0.4c0.2,0,0.4-0.2,0.4-0.4c0-0.2-0.2-0.4-0.4-0.4
				C12.3-8.4,12.1-8.3,12.1-8.1z"/>
			<path opacity="0.6" fill="#8D7566" d="M10.1-8.9c0.1,0.1,0.4,0.1,0.5,0c0.1-0.1,0.1-0.4,0-0.5c-0.1-0.1-0.4-0.1-0.5,0
				C10-9.3,10-9.1,10.1-8.9z"/>
		</g>
	</g>
</pattern>
<g id="Layer_2">
</g>
<g>
	<circle fill="#109ED9" cx="90.1" cy="102.9" r="70"/>
	<path fill="#BD7F53" d="M97.4,120"/>
	<path fill="#BD7F53" d="M97.5,120"/>
	<g>
		<defs>
			<path id="SVGID_4_" d="M160.1,102.9c0,38.7-31.3,70-70,70s-70-31.3-70-70c0-38.7,31.3-112.7,70-112.7S160.1,64.3,160.1,102.9z"/>
		</defs>
		<clipPath id="SVGID_1_">
			<use xlink:href="#SVGID_4_"  overflow="visible"/>
		</clipPath>
		<g clip-path="url(#SVGID_1_)">
			<path fill="#D8A471" d="M75.4,142.6h15.8v-36.5H79.6C79.6,106.1,78.3,128.8,75.4,142.6z"/>
			<path fill="#D39663" d="M107,142.8H91.1v-36.5h11.7C102.8,106.3,104,129,107,142.8z"/>
			<path fill="#D39663" d="M91.2,114.6c0,0,18.7-0.8,25.8-13.8c0,0,5-7.8,7.2-21.7c-0.2,1,0.8,1.4,1.7,1.4c1,0,2-0.5,2.5-1.5
				c0.6-1.2,0-2.1-0.2-3.3c-0.3-1.4-0.3-2.9-0.2-4.3c0.2-2.9,1-5.7,1.5-8.6c0.4-2.1,0.5-4.7-0.4-6.7c-0.4-1-1.1-1.8-2.2-2
				c-1.5-0.3-2.7,1.1-3.2,2.3c0,0,2.3-18.3-5.8-27.7c0,0-12.8-14-26.7-13.5h0c-13.8-0.5-26.7,13.5-26.7,13.5
				c-8.2,9.3-5.8,27.7-5.8,27.7c-0.6-1.2-1.7-2.6-3.2-2.3c-1.1,0.2-1.8,1-2.2,2c-0.9,2-0.8,4.6-0.4,6.7c0.6,2.8,1.3,5.7,1.5,8.6
				c0.1,1.4,0.1,2.9-0.2,4.3C54,77,53.4,77.9,54,79.1c0.5,0.9,1.5,1.5,2.5,1.5c0.8,0,1.8-0.4,1.7-1.4c2.2,13.8,7.2,21.7,7.2,21.7
				C72.5,113.8,91.2,114.6,91.2,114.6"/>
			<path fill="#D8A471" d="M91.2,114.6c0,0-18.7-0.8-25.8-13.8c0,0-5-7.8-7.2-21.7c0.2,1-0.8,1.4-1.7,1.4c-1,0-2-0.5-2.5-1.5
				c-0.6-1.2,0-2.1,0.2-3.3c0.3-1.4,0.3-2.9,0.2-4.3c-0.2-2.9-1-5.7-1.5-8.6c-0.4-2.1-0.5-4.7,0.4-6.7c0.4-1,1.1-1.8,2.2-2
				c1.5-0.3,2.7,1.1,3.2,2.3c0,0-2.3-18.3,5.8-27.7c0,0,12.8-14,26.7-13.5h0L91.2,114.6"/>
			<pattern  id="SVGID_2_" xlink:href="#stubble" patternTransform="matrix(1 0 0 1 -5.7278 8.9686)">
			</pattern>
			<path opacity="0.8" fill="url(#SVGID_2_)" d="M91.2,15.6l-0.1,13.1c8.9-0.6,20.4,1.6,20.4,1.6c5.5,6.2,3.5,14.7,3.5,14.7
				l6.1,19.3l0.7,12.6V64.3l-0.1-3.9c-0.1-3,2-3.9,2-3.9s2.3-18.3-5.8-27.7c0,0-12.8-13.9-26.7-13.4L91.2,15.6z"/>
			<pattern  id="SVGID_3_" xlink:href="#stubble" patternTransform="matrix(1 0 0 1 -5.7278 8.9686)">
			</pattern>
			<path opacity="0.4" fill="url(#SVGID_3_)" d="M91.2,15.6l0.1,13.1c-8.9-0.4-20.4,1.6-20.4,1.6c-5.5,6.2-3.5,14.7-3.5,14.7
				l-6.1,19.3L60.5,77V64.3l0.1-3.9c0.1-3-2-3.9-2-3.9s-2.3-18.3,5.8-27.7c0,0,12.8-13.9,26.7-13.4L91.2,15.6z"/>
			<circle fill="#D8A471" cx="91.2" cy="74.7" r="3"/>
			<pattern  id="SVGID_5_" xlink:href="#stubble" patternTransform="matrix(1 0 0 1 -5.7278 8.9686)">
			</pattern>
			<path fill="url(#SVGID_5_)" d="M90.9,114.8c0,0-18.6-1-25.8-14c0,0-5-7.8-7.2-21.7c0,0,13.1-4.4,17.2,3c0,0,9-7.4,16.1-4.1"/>
			<pattern  id="SVGID_6_" xlink:href="#stubble" patternTransform="matrix(-1 -4.489700e-11 -4.489700e-11 1 -16208.1973 8.2186)">
			</pattern>
			<path opacity="0.8" fill="url(#SVGID_6_)" d="M91.2,114.9c0,0,18.6-1,25.8-14c0,0,5-7.8,7.2-21.7c0,0-13.1-4.4-17.2,3
				c0,0-9-7.4-16.1-4.1"/>
			<path fill="#FFFFFF" d="M78.8,86.1c0,0,5.7,5.5,12,5.5c0,0,5.4,1,11.2-5.5c0,0-1.7-1.1-10.9-0.1C91.2,86,85.8,84.7,78.8,86.1z"/>
			<g opacity="0.3">
				<image overflow="visible" width="85" height="86" xlink:href="C4991B1A98B928B9.png"  transform="matrix(1 0 0 1 29.3333 30)">
				</image>
			</g>
			<g opacity="0.6">
				<image overflow="visible" width="85" height="86" xlink:href="C4991B1A98B928BB.png"  transform="matrix(1 0 0 1 69.3333 30)">
				</image>
			</g>
			<path fill="#69462C" d="M81.3,61.5c-0.4,0-0.8-0.2-1.1-0.5c-0.8-0.9-1.6-1.3-2.5-1.3c0,0,0,0,0,0c-1.5,0-2.8,1.3-2.8,1.3
				c-0.6,0.6-1.5,0.6-2.1,0.1c-0.6-0.6-0.6-1.5-0.1-2.1c0.2-0.2,2.2-2.3,5-2.3c1.7,0,3.3,0.8,4.7,2.3c0.6,0.6,0.5,1.6-0.1,2.1
				C82,61.3,81.7,61.5,81.3,61.5z"/>
			<path fill="#69462C" d="M107.8,61.5c-0.4,0-0.8-0.2-1.1-0.5c-0.8-0.9-1.6-1.3-2.5-1.3c-1.5,0-2.8,1.3-2.8,1.3
				c-0.6,0.6-1.5,0.7-2.1,0.1c-0.6-0.6-0.7-1.5-0.1-2.1c0.2-0.2,2.2-2.3,5-2.3c1.7,0,3.3,0.8,4.7,2.3c0.6,0.6,0.5,1.6-0.1,2.1
				C108.5,61.3,108.2,61.5,107.8,61.5z"/>
			<path fill="#D6CEC7" d="M91.2,137.7l13.1-20.8c0,0,24.4-2.7,39.8,10.4c0,0,18.5,17.4,26.2,44.1L93,174h-3.7l-77.4-2.6
				c7.7-26.6,26.2-44.1,26.2-44.1c15.5-13.1,40.2-10.4,40.2-10.4l12.8,20.8H91.2z"/>
			<pattern  id="SVGID_7_" xlink:href="#Scotch_Rule_5" patternTransform="matrix(1 0 0 1 2.1584 36.7807)">
			</pattern>
			<path opacity="0.6" fill="url(#SVGID_7_)" d="M91.2,137.7l13.1-20.8c0,0,24.4-2.7,39.8,10.4c0,0,18.5,17.4,26.2,44.1L93,176.6
				l-3.7-0.7l-77.4-4.5c7.7-26.6,26.2-44.1,26.2-44.1c15.5-13.1,40.2-10.4,40.2-10.4l12.8,20.8H91.2z"/>
		</g>
	</g>
</g>
</svg>
