<?xml version="1.0" encoding="utf-8"?>
<!-- Generator: Adobe Illustrator 21.1.0, SVG Export Plug-In . SVG Version: 6.00 Build 0)  -->
<svg version="1.1" id="Layer_1" xmlns="http://www.w3.org/2000/svg" xmlns:xlink="http://www.w3.org/1999/xlink" x="0px" y="0px"
	 viewBox="0 0 180 180" style="enable-background:new 0 0 180 180;" xml:space="preserve">
<style type="text/css">
	.st0{opacity:0.29;fill:#FFFFFF;stroke:#CCCCCC;stroke-miterlimit:10;}
	.st1{fill:#88CADD;}
	.st2{fill:#E65124;}
	.st3{fill:#D32D27;}
	.st4{fill:#253D85;}
	.st5{fill:#BFE4EC;}
	.st6{fill:#0C94D2;}
	.st7{fill:#333333;}
</style>
<circle class="st0" cx="89.7" cy="102.9" r="70"/>
<g>
	<path class="st1" d="M117.8,104.1l-1.9-1.1l-12.5,7.2c0.3,0.6,0.6,1.1,0.9,1.7c3,6,3.7,12.6,2.4,18.8c12.9,4.3,27.4-0.9,34.4-13.1
		L117.8,104.1z"/>
	<path class="st2" d="M104.3,111.8c-0.3-0.6-0.6-1.1-0.9-1.7l-12.8,7.4l-12.5,7.2l-1.9,1.1l-23.3,13.4c8,14,25.9,18.8,39.8,10.7
		c7.5-4.3,12.4-11.5,14-19.3C108,124.5,107.3,117.9,104.3,111.8z"/>
	<path class="st3" d="M76.2,110.3c-6.7-0.4-12.8-3.1-17.5-7.3c-10.1,9-12.9,24.2-5.9,36.3l23.3-13.4l1.9-1.1l0-14.4
		C77.4,110.3,76.8,110.3,76.2,110.3z"/>
	<path class="st4" d="M78.1,52l0,26.9l0,2.2l12.5,7.2c0.3-0.6,0.7-1.1,1-1.6c3.7-5.6,9.1-9.5,15.1-11.5C103.9,62,92.2,52,78.1,52z"
		/>
	<path class="st5" d="M130.4,77.7c-7.5-4.3-16.1-5-23.7-2.4c-6,2-11.4,5.9-15.1,11.5c-0.4,0.5-0.7,1.1-1,1.6l12.8,7.4l12.5,7.2
		l1.9,1.1l23.3,13.5C149.1,103.6,144.4,85.7,130.4,77.7z"/>
	<path class="st6" d="M48.9,81.1c0,8.7,3.8,16.4,9.8,21.8c4.7,4.2,10.8,6.9,17.5,7.3c0.6,0,1.3,0.1,1.9,0.1l0-14.8l0-14.4l0-2.2
		l0-26.9C62,52,49,65,48.9,81.1z"/>
	<path class="st7" d="M103.4,110.1c0.3,0.6,0.6,1.1,0.9,1.7l13.5-7.8l-1.9-1.1L103.4,110.1z"/>
	<path class="st7" d="M78.1,110.3c-0.7,0-1.3,0-1.9-0.1v15.6l1.9-1.1L78.1,110.3z"/>
	<path class="st7" d="M90.6,88.3c0.3-0.6,0.7-1.1,1-1.6l-13.5-7.8l0,2.2L90.6,88.3z"/>
</g>
</svg>
