<svg xmlns="http://www.w3.org/2000/svg" xmlns:xlink="http://www.w3.org/1999/xlink" width="200" height="200" viewBox="0 0 200 200"><defs><clipPath id="a"><path d="M170,108.05a70,70,0,1,1-140,0c0-38.66,31.34-93.27,70-93.27S170,69.39,170,108.05Z" fill="none"/></clipPath></defs><title>suzanne</title><circle cx="100" cy="108.05" r="70" fill="#de5a34"/><g clip-path="url(#a)"><path d="M112.81,145.9c42.48-9,23-80.53,23-80.53,0-45.5-35.75-45-35.75-45h0s-35.75-.5-35.75,45c0,0-19.53,71.55,23,80.53Z" fill="#ece9ea"/><path d="M97.29,28.76S78.82,47.81,105.5,61.29c0,0-14.95,1.47-18.17-22.28,0,0-8.21,15.83,3.22,23.74,0,0-5.57,3.22-7.62-9.09,0,0-.29,7.62,4.69,11.72,0,0-11.14-3.22-8.79-22.28" fill="#ece9ea"/><path d="M100,149.49c58.94-.54,35.79-84.12,35.79-84.12,0-45.5-35.75-45-35.75-45h0" fill="#d7d7db"/><path d="M108.14,127.64a13.76,13.76,0,0,1-1.1-6.56,37.37,37.37,0,0,1,1.63-9.65H92a37.37,37.37,0,0,1,1.63,9.65,13.76,13.76,0,0,1-1.1,6.56c-2,4-6.7,2.66-9.83,4.85,0,0,3.49,22.3,17.36,22.3,11.93,0,17.95-22.3,17.95-22.3C114.85,130.29,110.14,131.6,108.14,127.64Z" fill="#f1d3b2"/><path d="M108.67,111.42a37.37,37.37,0,0,0-1.63,9.65,13.76,13.76,0,0,0,1.1,6.56c2,4,6.7,2.66,9.83,4.85,0,0-4.62,21.8-17.94,22V111.44" fill="#eaccae"/><path d="M99.92,140.11a62.15,62.15,0,0,0-3.24-8.53L88,124.51s-6.35,1.35-8,1.64c-3.15.56-7.45,3-8.45,6.85-.77,2.91-5.76,38-6.78,45.07h70.34c-1-7.07-6-42.16-6.78-45.07-1-3.83-5.31-6.28-8.45-6.85-1.61-.29-8-1.64-8-1.64l-8.67,7.08a62.15,62.15,0,0,0-3.24,8.53Z"/><path d="M100,113.35c21.26,0,26.9-23.73,26.9-23.73,3.51,1.86,3.3-5.37,3.3-5.37l2.89-8c3.3-10.11-3.51-4.54-3.51-4.54S126.48,29.74,100,29.74,70.4,71.66,70.4,71.66s-6.81-5.57-3.51,4.54l2.89,8s-.21,7.22,3.3,5.37C73.08,89.62,78.72,113.35,100,113.35Z" fill="#f1d3b2"/><path d="M100,113.35c21.26,0,26.9-23.73,26.9-23.73,3.51,1.86,3.3-5.37,3.3-5.37l2.89-8c3.3-10.11-3.51-4.54-3.51-4.54S126.48,29.74,100,29.74" fill="#eaccae"/><path d="M71.23,57.37s19.25,5.25,57.5,0c0,0-4.5-32.75-29.88-29.87C98.86,27.49,74,29.12,71.23,57.37Z" fill="#ece9ea"/><path d="M99.91,59.68a240.83,240.83,0,0,0,28.83-2.31s-4.38-31.84-28.82-30" fill="#d7d7db"/><circle cx="99.98" cy="82.12" r="3" fill="#f1d3b2"/><path d="M91.09,73.92a1.39,1.39,0,0,1-1-.45,3.17,3.17,0,0,0-2.31-1.23,4.16,4.16,0,0,0-2.57,1.23,1.39,1.39,0,1,1-2-1.88,6.78,6.78,0,0,1,4.62-2.13,5.85,5.85,0,0,1,4.36,2.13,1.39,1.39,0,0,1-1,2.33Z" fill="#89b9c4"/><path d="M116.38,73.92a1.39,1.39,0,0,1-1-.45,3.17,3.17,0,0,0-2.3-1.23h0a4.12,4.12,0,0,0-2.57,1.24,1.39,1.39,0,0,1-2-1.88A6.78,6.78,0,0,1,113,69.46h0a5.85,5.85,0,0,1,4.36,2.13,1.39,1.39,0,0,1-1,2.33Z" fill="#89b9c4"/><path d="M100.24,98.79c4.22,0,10.55-4.71,10.55-4.71-1.43-.35-2.88-.67-4.33-.93-2.39-.43-4.49,0-6.87,0s-4.48-.47-6.87,0c-1.45.26-2.9.58-4.33.93,0,0,6.33,4.71,10.55,4.71Z" fill="#fff"/><path d="M126,69.86A4.69,4.69,0,0,0,124.21,68a11.81,11.81,0,0,0-3.55-1.4,23,23,0,0,0-13.46.65,14.94,14.94,0,0,0-2.25,1c-.26.15-1.94,1.05-1.9,1.37a9.14,9.14,0,0,0,1.89,4.17c2.37,3.08,6.23,4.25,10,4.29,3.55,0,7-.61,9.36-3.57a8,8,0,0,0,1.84-3.92A1.66,1.66,0,0,0,126,69.86Zm-1.67,3.76a9.34,9.34,0,0,1-5.74,3.77c-4.23.88-9.73.1-12.78-3.18a8.46,8.46,0,0,1-2.25-4.35c0-.13.74-.6.85-.67,4.24-2.93,10.29-3.25,15.17-2.28a13.42,13.42,0,0,1,3.83,1.26c.82.45,2,1.26,2.17,2.28S124.87,72.81,124.31,73.61Z" fill="#473434"/><rect x="125.82" y="69.66" width="3.61" height="1.21" transform="translate(-5.17 10.33) rotate(-4.54)" fill="#473434"/><path d="M74.08,70.65a8,8,0,0,0,1.84,3.92c2.33,3,5.82,3.6,9.36,3.57,3.76,0,7.62-1.21,10-4.29a9.14,9.14,0,0,0,1.89-4.17c0-.32-1.64-1.22-1.9-1.37a14.94,14.94,0,0,0-2.25-1,23,23,0,0,0-13.46-.65A11.81,11.81,0,0,0,76,68a4.69,4.69,0,0,0-1.78,1.81A1.66,1.66,0,0,0,74.08,70.65Zm.56-.21c.13-1,1.35-1.83,2.17-2.28a13.42,13.42,0,0,1,3.83-1.26c4.88-1,10.93-.65,15.17,2.28.11.08.87.55.85.67a8.46,8.46,0,0,1-2.25,4.35c-3,3.28-8.55,4.06-12.78,3.18a9.34,9.34,0,0,1-5.74-3.77C75.34,72.81,74.51,71.45,74.64,70.44Z" fill="#473434"/><rect x="70.55" y="69.65" width="3.84" height="1.21" transform="translate(139.15 146.03) rotate(-175.46)" fill="#473434"/><path d="M103,70.18a.5.5,0,0,1-.23-.05,6.09,6.09,0,0,0-5.41,0,.5.5,0,0,1-.48-.88,7.11,7.11,0,0,1,6.35,0,.5.5,0,0,1-.23.95Z" fill="#473434"/></g></svg>