<svg id="Layer_1" data-name="Layer 1" xmlns="http://www.w3.org/2000/svg" xmlns:xlink="http://www.w3.org/1999/xlink" viewBox="0 0 150 150"><defs><style>.cls-1,.cls-12,.cls-7{fill:none;}.cls-2{fill:#8bcce1;}.cls-3{clip-path:url(#clip-path);}.cls-4{fill:#fff;}.cls-5{fill:#ff4040;}.cls-6{fill:#e1eccf;}.cls-7{stroke:#ff4040;stroke-width:2.49px;opacity:0.7;isolation:isolate;}.cls-12,.cls-7{stroke-linecap:round;stroke-linejoin:round;}.cls-8{fill:#332b26;}.cls-9{fill:#d7ae8a;}.cls-10{fill:#e3ba91;}.cls-11{fill:#563b2b;}.cls-12{stroke:#442614;stroke-width:2.61px;}.cls-13{fill:#e6bc93;}</style><clipPath id="clip-path"><path class="cls-1" d="M135.1,87.95a60.1,60.1,0,1,1-120.2,0c0-33.19,26.91-86,60.1-86S135.1,54.76,135.1,87.95Z"/></clipPath></defs><title>Artboard 1</title><g id="Layer_2" data-name="Layer 2"><g id="Layer_1-2" data-name="Layer 1-2"><circle class="cls-2" cx="75" cy="87.95" r="60.1"/><g class="cls-3"><path class="cls-4" d="M83.73,69.54c0,3.22-2.72,8.46-5.82,9.22l-4.14.54-4.33-.54c-2.75-.62-6.79-6-6.79-9.22"/><path class="cls-5" d="M74.82,152.87c12.28,1.09,21.07-3,30.22-7-.72-5-.3-15.25-1.1-20.24-.65-4.05-1-8.83-3.81-12.1C97,110,88.93,110.35,84.78,110l-8,6.44s-2,9.83-3.06,13.7c0,0-3-14.35-3.62-14.47-5.22-1-7-6.06-7-6.08-.11-.26-4.54,0-5.07,0-2.4-.12-6.88-.09-9,1.08a9.87,9.87,0,0,0-4.21,4.92c-1.82,4.31-2.09,9.83-3,14.43-.27,1.31-1.59,13.29-.86,13.78,10.08,6.84,19.32,9.8,32.11,8.62Z"/><circle class="cls-6" cx="73.41" cy="146.13" r="0.93"/><line class="cls-7" x1="70.16" y1="116.37" x2="74.25" y2="136.72"/><line class="cls-7" x1="77.62" y1="116.29" x2="73.01" y2="130.9"/><circle class="cls-6" cx="73.5" cy="137.03" r="0.93"/><path class="cls-8" d="M64.8,5.56a3,3,0,0,1-1.75.85C59.3,6.89,46.71,10.15,39.9,32.1c-8.17,26.42-18,73.9,34.52,79.72.12.35,12.72-5.47,12.4,4.58A22.36,22.36,0,0,1,85,126.15c-1.94,4-2.11,4.28-2.94,5.38-1.23,1.63-3.6,3.88-2.6,4.21,0,0,24,.9,33.72-13.15,5.24-7.57,3.64-16.54.5-52.49-.68-7.76.37-48.92-21.45-60.75C75.13-2.28,67,3.34,64.8,5.56Z"/><path class="cls-9" d="M84.56,111.23c-2-.7-5-3.37-5-3.37a105.19,105.19,0,0,1,.53-11.73c.18-1.23.09-3.33.88-4.38,1.58-2.19,4.29-3.06,6.39-4.55A28.31,28.31,0,0,0,93,81.6c3.41-4.38,3.52-9.8,4.13-15.32,1.09-7.17-.35-18-1.42-22.92a51.82,51.82,0,0,0-3.25-10c-5.93-12.92-15.1-14.25-18.26-14.57L74,128.29S81.5,115.78,84.56,111.23Z"/><path class="cls-10" d="M74.31,18.81a20.93,20.93,0,0,0-8.82.88,19.12,19.12,0,0,0-9.43,6.73c-1.77,2.17-2.66,3-3.45,4.93C48.14,42.27,46.84,54.56,48,66.27a31.73,31.73,0,0,0,6.13,15.32,28.31,28.31,0,0,0,5.6,5.6c2.1,1.49,4.81,2.45,6.39,4.55.79,1.05.79,3.15.88,4.38.44,3.85.44,7.79.53,11.73,0,0-.9,2.12-4.4,1.74C66,116.33,74,128.28,74,128.28l.13-109.5"/><path class="cls-4" d="M84.82,70.09c0,2.18-2.76,5.73-5.91,6.24l-4.19.37-4.39-.37c-2.79-.42-6.89-4.06-6.89-6.24"/><path class="cls-11" d="M97.69,45.83c0-.08-.08-.15-.2-.16-1-.11-5.3-.54-10-.55-5.29,0-12.12,1.15-13.31,1.15h-1c-.55,0-2.33-.26-4.61-.54a77.45,77.45,0,0,0-8.66-.66c-3.41,0-6.65.22-8.51.37l-1.49.14a.18.18,0,0,0-.2.16l-.06,2c0,.07.06.13.15.16l.32.08c.48.13.42,6.2,3,7.72,1.52.9,2.87,1.41,8.55,1.42,3.3,0,5.37-.62,7.34-2.5a16,16,0,0,0,2.68-4.54,2.12,2.12,0,0,1,2-1.43h0a2.13,2.13,0,0,1,2,1.43,16.22,16.22,0,0,0,2.67,4.55c2,1.88,4,2.52,7.33,2.53,5.68,0,7-.5,8.56-1.39,2.56-1.51,2.53-7.58,3-7.71l.32-.08a.16.16,0,0,0,.15-.16Zm-27.9,3.6a13.36,13.36,0,0,1-2.17,3.76c-1.51,1.44-3.06,2-5.91,2-5.67,0-6.56-.54-7.59-1.14s-1.45-3.66-1.64-4.82a9,9,0,0,0-.41-1.79c2-.15,4.75-.32,7.64-.32h.19a76.5,76.5,0,0,1,8.46.65l2,.23h.21A3.81,3.81,0,0,0,69.79,49.43Zm25.11-.17c-.19,1.16-.7,4.24-1.66,4.81s-1.9,1.11-7.36,1.11H85.7c-2.89,0-4.44-.52-6-2a13.85,13.85,0,0,1-2.1-3.73A3.81,3.81,0,0,0,76.78,48h.36a90.15,90.15,0,0,1,10.33-.85c3.1,0,6,.2,7.86.35A8.64,8.64,0,0,0,94.9,49.26Z"/><path class="cls-12" d="M58.08,51.95s3.53-3.85,7.07,0"/><path class="cls-12" d="M83.11,51.95s3.53-3.85,7.07,0"/><path class="cls-13" d="M77,60.15a3.17,3.17,0,0,1-3,3,3,3,0,0,1,0-6.06A3.17,3.17,0,0,1,77,60.15Z"/></g></g></g></svg>