<svg height="77" viewBox="0 0 100 77" width="100" xmlns="http://www.w3.org/2000/svg"><g fill="none" fill-rule="evenodd"><path d="m93.1818182.06346154h-85.90909093c-3.48484848 0-6.36363636 2.88653846-6.36363636 6.38076923v64.26346153c0 3.4942308 2.87878788 6.3807692 6.36363636 6.3807692h85.90909093c3.4848485 0 6.3636363-2.8865384 6.3636363-6.3807692v-64.26346153c0-3.49423077-2.8787878-6.38076923-6.3636363-6.38076923z" fill="#ffffff"/><path d="m93.1818182 2.79807692c1.969697 0 3.6363636 1.67115385 3.6363636 3.64615385v64.26346153c0 1.975-1.6666666 3.6461539-3.6363636 3.6461539h-85.90909093c-1.96969697 0-3.63636363-1.6711539-3.63636363-3.6461539v-64.26346153c0-1.975 1.66666666-3.64615385 3.63636363-3.64615385zm0-2.73461538h-85.90909093c-3.48484848 0-6.36363636 2.88653846-6.36363636 6.38076923v64.26346153c0 3.4942308 2.87878788 6.3807692 6.36363636 6.3807692h85.90909093c3.4848485 0 6.3636363-2.8865384 6.3636363-6.3807692v-64.26346153c0-3.49423077-2.8787878-6.38076923-6.3636363-6.38076923z" fill="#5f6062"/><ellipse cx="34.39394" cy="38.803847" fill="#ec2127" rx="23.333333" ry="23.396154"/><path d="m65.606061 15.40769262c-6.0606061 0-11.5151515 2.27884615-15.6060606 6.07692307-.9090909.75961539-1.6666667 1.51923077-2.4242424 2.43076923h4.6969697c.6060606.75961538 1.2121212 1.67115388 1.8181818 2.43076928h-8.3333333c-.4545455.7596153-.909091 1.6711538-1.3636364 2.4307692h10.9090909c.3030303.7596154.7575758 1.6711538 1.0606061 2.4307692h-12.8787879c-.3030303.7596154-.4545455 1.6711539-.6060606 2.4307692h14.2424242c.3030303 1.5192308.4545455 3.1903847.4545455 5.0134616 0 2.5826923-.4545455 5.0134615-1.2121212 7.4442308h-12.8787879c.3030303.9115384.6060606 1.6711538 1.060606 2.4307692h10.9090909c-.4545454.9115384-.9090909 1.6711538-1.3636363 2.4307692h-8.1818182c.6060606.9115385 1.0606061 1.6711539 1.8181818 2.4307692h4.6969697c-.7575757.9115385-1.5151515 1.6711539-2.4242424 2.4307693 4.0909091 3.7980769 9.5454545 6.0769231 15.6060606 6.0769231 12.8787879 0 23.3333333-10.4826924 23.3333333-23.3961539 0-12.6096154-10.4545454-23.09230768-23.3333333-23.09230768z" fill="#faa61b"/><path d="m85.7575762 51.8692311c0-.4557693.3030303-.7596154.7575757-.7596154.4545455 0 .7575758.3038461.7575758.7596154 0 .4557692-.3030303.7596154-.7575758.7596154-.3030303 0-.7575757-.3038462-.7575757-.7596154zm.7575757.6076923c.3030303 0 .6060606-.3038462.6060606-.6076923 0-.3038462-.3030303-.6076923-.6060606-.6076923s-.6060606.3038461-.6060606.6076923c.1515152.3038461.3030303.6076923.6060606.6076923zm0-.3038462h-.1515151v-.6076923h.3030303.1515151l.1515152.1519231s0 .1519231-.1515152.1519231l.1515152.3038461h-.1515152l-.1515151-.3038461h-.1515152zm0-.3038461h.1515152s0 0 0-.1519231 0 0-.1515152 0h-.1515151v.1519231z" fill="#000000"/><g fill="#000000"><path d="m28.9393948 41.38653854h-.6060606c-1.3636364 0-2.1212121.45576923-2.1212121 1.51923076 0 .6076923.3030303.9115385.9090909.9115385 1.0606061 0 1.8181818-1.0634616 1.8181818-2.43076926zm1.8181818 4.25384616h-2.1212121v-1.0634615c-.6060606.7596153-1.5151515 1.2153846-2.5757576 1.2153846-1.3636363 0-2.2727272-1.0634616-2.2727272-2.5826923 0-2.27884619 1.6666666-3.64615388 4.3939394-3.64615388h1.060606c.1515152-.30384616.1515152-.45576924.1515152-.60769231 0-.60769231-.4545455-.91153846-1.6666667-.91153846s-2.2727273.30384615-2.7272727.45576923c0-.15192308.3030303-2.12692308.3030303-2.12692308 1.2121212-.30384615 2.1212121-.45576923 3.030303-.45576923 2.1212121 0 3.3333333.91153846 3.3333333 2.88653846 0 .45576923-.1515151 1.06346154-.1515151 1.975-.3030303 1.21538462-.7575758 4.10192307-.7575758 4.86153847z"/><path d="m22.7272736 45.6403847h-2.57575757l1.51515152-9.11538462-3.33333334 9.11538462h-1.66666666l-.30303031-8.96346155-1.51515151 8.96346155h-2.27272727l1.96969696-11.85000001h3.63636364l.15151515 6.68461539 2.27272727-6.68461539h4.09090912z"/><path d="m68.7878797 41.38653854h-.6060606c-1.3636364 0-2.1212122.45576923-2.1212122 1.51923076 0 .6076923.3030303.9115385.9090909.9115385 1.0606061 0 1.6666667-1.0634616 1.8181819-2.43076926zm1.8181818 4.25384616h-2.1212121v-1.0634615c-.6060606.7596153-1.5151516 1.2153846-2.5757576 1.2153846-1.3636364 0-2.2727273-1.0634616-2.2727273-2.5826923 0-2.27884619 1.6666667-3.64615388 4.3939394-3.64615388h1.0606061c.1515151-.30384616.1515151-.45576924.1515151-.60769231 0-.60769231-.4545454-.91153846-1.6666666-.91153846-1.2121213 0-2.2727273.30384615-2.7272728.45576923 0-.15192308.3030303-2.12692308.3030303-2.12692308 1.2121212-.30384615 2.1212122-.45576923 3.0303031-.45576923 2.1212121 0 3.3333333.91153846 3.3333333 2.88653846 0 .45576923-.1515152 1.06346154-.1515152 1.975-.3030303 1.21538462-.7575757 4.10192307-.7575757 4.86153847z"/><path d="m41.9696978 45.4884616c-.7575757.1519231-1.2121212.3038462-1.8181818.3038462-1.3636363 0-1.9696969-.7596154-1.9696969-2.1269231 0-.4557692.1515151-1.51923078.3030303-2.58269232.1515151-.91153846 1.060606-6.5326923 1.060606-6.5326923h2.5757576l-.3030303 1.51923077h1.5151515l-.3030303 2.27884615h-1.5151515c-.3030303 1.82307692-.7575758 4.1019231-.7575758 4.4057692 0 .4557693.3030303.7596154.9090909.7596154.3030303 0 .4545455 0 .6060607-.1519231z"/><path d="m49.6969706 45.4884616c-.9090909.3038462-1.6666667.4557692-2.5757576.4557692-2.8787879 0-4.2424242-1.5192307-4.2424242-4.25384611 0-3.34230769 1.8181818-5.77307692 4.3939394-5.77307692 2.1212121 0 3.3333333 1.36730769 3.3333333 3.49423077 0 .75961538-.1515152 1.36730769-.3030303 2.43076923h-5c-.1515152 1.36730773.7575757 1.97500003 2.1212121 1.97500003.9090909 0 1.6666667-.1519231 2.5757576-.6076923zm-1.3636364-5.77307691c0-.15192307.3030303-1.67115384-1.2121212-1.67115384-.7575758 0-1.3636364.6076923-1.6666667 1.67115384z"/><path d="m32.2727282 39.10769238c0 1.21538462.6060606 2.12692308 1.9696969 2.73461539 1.0606061.45576923 1.2121212.60769233 1.2121212 1.06346153 0 .6076923-.4545454.9115385-1.5151515.9115385-.7575757 0-1.5151515-.1519231-2.2727273-.4557693 0 0-.3030303 2.1269231-.3030303 2.2788462.6060606.1519231 1.0606061.3038461 2.5757576.3038461 2.7272727 0 3.939394-1.0634615 3.939394-3.1903846 0-1.36730766-.4545455-2.12692305-1.8181819-2.73461535-1.060606-.45576923-1.2121212-.60769231-1.2121212-1.06346154s.4545455-.75961539 1.2121212-.75961539c.4545455 0 1.2121213 0 1.8181819.15192308l.3030303-2.27884615c-.6060606-.15192308-1.6666667-.15192308-2.2727273-.15192308-2.7272727-.15192308-3.6363636 1.36730769-3.6363636 3.19038461z"/><path d="m61.9696978 36.06923085c.7575758 0 1.3636364.15192307 2.2727273.6076923l.4545455-2.5826923c-.3030303-.15192308-1.6666667-1.06346154-2.7272728-1.06346154-1.6666666 0-3.1818181.91153846-4.090909 2.27884615-1.5151516-.45576923-2.1212122.45576923-2.8787879 1.51923077l-.7575758.15192308c0-.30384616.1515152-.60769231.1515152-.91153846h-2.2727273c-.3030303 3.03846153-.9090909 6.07692307-1.3636364 8.96346155l-.1515151.6076923h2.5757576c.4545454-2.7346154.6060606-4.55769232.7575757-5.77307693l.9090909-.45576923c.1515152-.45576923.6060606-.75961539 1.5151515-.75961539-.1515151.60769231-.1515151 1.21538462-.1515151 1.975 0 3.19038465 1.6666667 5.16538465 4.3939394 5.16538465.7575757 0 1.3636363-.1519231 2.2727273-.3038462l.4545454-2.7346154c-.9090909.4557693-1.5151515.6076923-2.1212121.6076923-1.5151515 0-2.4242424-1.0634615-2.4242424-2.88653842 0-2.58269231 1.3636363-4.40576923 3.1818181-4.40576923z"/><path d="m83.4848494 33.79038469-.6060606 3.49423077c-.7575758-.91153846-1.3636364-1.51923077-2.4242425-1.51923077-1.2121212 0-2.4242424.91153846-3.1818181 2.43076923-1.0606061-.15192307-2.1212122-.6076923-2.1212122-.6076923.1515152-.75961539.1515152-1.21538462.1515152-1.51923077h-2.2727273c-.3030303 3.03846153-.9090909 6.07692307-1.3636364 8.96346155l-.1515151.6076923h2.5757576c.3030303-2.2788462.6060606-4.10192308.7575757-5.46923078.9090909-.75961538 1.3636364-1.51923077 2.1212121-1.36730769-.4545454.91153846-.6060606 1.975-.6060606 3.19038462 0 2.43076925 1.2121213 3.94999995 3.0303031 3.94999995.9090909 0 1.6666666-.3038461 2.2727272-1.0634615l-.1515151.9115385h2.4242424l1.969697-11.85000003h-2.4242424zm-3.1818182 9.72307691c-.9090909 0-1.3636364-.6076923-1.3636364-1.82307691 0-1.82307692.7575758-3.19038461 1.969697-3.19038461.9090909 0 1.3636364.6076923 1.3636364 1.82307692 0 1.82307692-.909091 3.1903846-1.969697 3.1903846z"/></g><g fill="#ffffff"><path d="m23.4848494 45.0326924h-2.57575761l1.36363641-9.11538463-3.18181823 9.11538463h-1.66666667l-.3030303-9.11538463-1.51515152 9.11538463h-2.27272727l1.96969697-11.85000001h3.63636364v7.29230769l2.57575757-7.29230769h3.78787881z"/><path d="m29.6969706 40.62692315h-.6060606c-1.3636364 0-2.1212122.45576923-2.1212122 1.51923077 0 .60769228.3030304.91153848.909091.91153848.9090909 0 1.6666666-.91153848 1.8181818-2.43076925zm1.8181818 4.40576925h-2.1212121v-1.0634616c-.6060606.7596154-1.5151515 1.2153847-2.5757576 1.2153847-1.3636364 0-2.2727273-1.0634616-2.2727273-2.5826923 0-2.2788462 1.6666667-3.64615389 4.3939394-3.64615389h1.0606061c.1515151-.30384616.1515151-.45576923.1515151-.60769231 0-.60769231-.4545454-.91153846-1.6666666-.91153846s-2.2727273.30384615-2.7272728.45576923c0-.15192308.3030303-2.12692308.3030303-2.12692308 1.2121213-.30384615 2.1212122-.45576923 3.0303031-.45576923 2.1212121 0 3.3333333.91153846 3.3333333 2.88653846 0 .45576923-.1515151 1.06346154-.1515151 1.975-.3030304 1.06346154-.7575758 4.10192308-.7575758 4.86153848z"/><path d="m65.4545463 33.48653854-.4545454 2.58269231c-.9090909-.45576923-1.5151515-.60769231-2.2727273-.60769231-1.8181818 0-3.1818182 1.82307692-3.1818182 4.40576923 0 1.82307692.9090909 2.88653843 2.4242424 2.88653843.6060607 0 1.3636364-.151923 2.1212122-.60769228l-.4545455 2.58269228c-.9090909.3038462-1.5151515.3038462-2.2727273.3038462-2.7272727 0-4.3939394-1.975-4.3939394-5.16538463 0-4.25384615 2.2727273-7.14038462 5.7575758-7.14038462 1.0606061.15192308 2.2727273.60769231 2.7272727.75961539z"/><path d="m69.5454554 40.62692315h-.6060606c-1.3636363 0-2.1212121.45576923-2.1212121 1.51923077 0 .60769228.3030303.91153848.9090909.91153848.9090909 0 1.6666667-.91153848 1.8181818-2.43076925zm1.8181818 4.40576925h-2.1212121v-1.0634616c-.6060606.7596154-1.5151515 1.2153847-2.5757576 1.2153847-1.3636363 0-2.2727272-1.0634616-2.2727272-2.5826923 0-2.2788462 1.6666666-3.64615389 4.3939394-3.64615389h1.060606c.1515152-.30384616.1515152-.45576923.1515152-.60769231 0-.60769231-.4545455-.91153846-1.6666667-.91153846s-2.2727273.30384615-2.7272727.45576923c0-.15192308.3030303-2.12692308.3030303-2.12692308 1.2121212-.30384615 2.1212121-.45576923 3.030303-.45576923 2.1212121 0 3.3333334.91153846 3.3333334 2.88653846 0 .45576923-.1515152 1.06346154-.1515152 1.975-.3030303 1.06346154-.7575758 4.10192308-.7575758 4.86153848z"/><path d="m42.7272736 44.8807693c-.7575758.1519231-1.2121212.3038462-1.8181818.3038462-1.3636364 0-1.969697-.7596154-1.969697-2.1269231 0-.4557692.1515152-1.51923078.3030303-2.58269232.1515152-.91153846 1.0606061-6.53269231 1.0606061-6.53269231h2.5757576l-.3030303 1.51923077h1.3636363l-.3030303 2.27884615h-1.3636363c-.3030304 1.82307693-.7575758 4.10192308-.7575758 4.40576923 0 .45576928.3030303.75961538.9090909.75961538.3030303 0 .4545455 0 .6060606-.1519231z"/><path d="m50.4545463 44.7288462c-.9090909.3038462-1.6666666.4557693-2.5757575.4557693-2.8787879 0-4.2424243-1.5192308-4.2424243-4.25384619 0-3.34230769 1.8181818-5.77307693 4.3939394-5.77307693 2.1212121 0 3.3333333 1.3673077 3.3333333 3.49423077 0 .75961539-.1515151 1.3673077-.3030303 2.43076923h-5c-.1515151 1.36730772.7575758 1.97500002 2.1212122 1.97500002.9090909 0 1.6666666-.1519231 2.5757575-.6076923zm-1.5151515-5.62115382c0-.15192307.3030303-1.67115384-1.2121212-1.67115384-.7575758 0-1.3636364.60769231-1.6666667 1.67115384z"/><path d="m33.0303039 38.348077c0 1.21538462.6060606 2.12692308 1.969697 2.73461538 1.060606.45576924 1.2121212.60769231 1.2121212 1.06346154 0 .60769228-.4545455.91153848-1.5151515.91153848-.7575758 0-1.5151515-.1519231-2.2727273-.4557692 0 0-.3030303 2.126923-.3030303 2.2788461.6060606.1519231 1.0606061.3038462 2.5757576.3038462 2.7272727 0 3.9393939-1.0634616 3.9393939-3.19038465 0-1.3673077-.4545454-2.12692308-1.8181818-2.73461539-1.0606061-.45576923-1.2121212-.60769231-1.2121212-1.06346154s.4545454-.75961538 1.2121212-.75961538c.4545455 0 1.2121212 0 1.8181818.15192308l.3030303-2.27884616c-.6060606-.15192308-1.6666666-.15192308-2.2727273-.15192308-2.7272727 0-3.6363636 1.51923077-3.6363636 3.19038462z"/><path d="m84.6969706 45.0326924h-2.4242424l.1515151-.9115385c-.7575758.7596154-1.3636364 1.0634616-2.2727273 1.0634616-1.8181818 0-3.030303-1.5192308-3.030303-3.95000004 0-3.19038461 1.8181818-5.925 4.0909091-5.925.9090909 0 1.6666667.45576923 2.4242424 1.36730769l.6060606-3.49423076h2.4242424zm-3.7878788-2.2788462c1.2121212 0 1.969697-1.36730766 1.969697-3.19038458 0-1.21538462-.4545455-1.82307693-1.3636364-1.82307693-1.2121212 0-1.969697 1.36730769-1.969697 3.19038462.1515152 1.21538461.6060606 1.82307689 1.3636364 1.82307689z"/><path d="m73.6363645 35.30961546c-.3030303 3.03846154-.9090909 6.07692308-1.3636363 8.96346154l-.1515152.6076923h2.5757576c.9090909-5.92499999 1.060606-6.98846153 2.5757576-6.83653845.1515151-1.21538462.6060606-2.27884616.9090909-2.73461539-1.0606061-.15192308-1.6666667.30384616-2.4242425 1.51923077 0-.45576923.1515152-.91153846.1515152-1.51923077z"/><path d="m52.7272736 35.30961546c-.3030303 3.03846154-.9090909 6.07692308-1.3636364 8.96346154l-.1515151.6076923h2.5757576c.9090909-5.92499999 1.060606-6.98846153 2.5757575-6.83653845.1515152-1.21538462.6060606-2.27884616.909091-2.73461539-1.0606061-.15192308-1.6666667.30384616-2.4242425 1.51923077 0-.45576923.1515152-.91153846.1515152-1.51923077z"/><path d="m85.7575766 44.273077c0-.4557692.3030303-.7596154.7575758-.7596154.4545454 0 .7575758.3038462.7575758.7596154s-.3030304.7596154-.7575758.7596154c-.3030303 0-.7575758-.4557692-.7575758-.7596154zm.7575758.4557692c.3030303 0 .6060606-.3038461.6060606-.6076923 0-.3038461-.3030303-.6076923-.6060606-.6076923s-.6060606.3038462-.6060606.6076923c.1515151.4557693.3030303.6076923.6060606.6076923zm0-.151923h-.1515152v-.6076924h.3030303.1515152l.1515151.1519231s0 .1519231-.1515151.1519231l.1515151.3038462h-.1515151l-.1515152-.3038462h-.1515151zm0-.4557693h.1515151s0 0 0-.1519231 0 0-.1515151 0h-.1515152v.1519231z"/></g></g></svg>