<svg height="52" viewBox="0 0 66 52" width="66" xmlns="http://www.w3.org/2000/svg"><g fill="none" fill-rule="evenodd"><path d="m61.3 2.5c1.3 0 2.4 1.1 2.4 2.4v42.3c0 1.3-1.1 2.4-2.4 2.4h-56.6c-1.3 0-2.4-1.1-2.4-2.4v-42.3c0-1.3 1.1-2.4 2.4-2.4z" fill="#ffffff"/><g fill="#221f1f"><path d="m9.9 17.5h-2.4v8.2h2.3c1.2 0 2.1-.3 2.9-.9.9-.8 1.5-1.9 1.5-3.2.1-2.4-1.7-4.1-4.3-4.1zm1.9 6.2c-.5.5-1.2.7-2.2.7h-.4v-5.4h.4c1 0 1.7.2 2.2.7.6.5.9 1.3.9 2s-.4 1.5-.9 2z"/><path d="m15.1 17.5h1.6v8.2h-1.6z"/><path d="m20.6 20.7c-1-.4-1.2-.6-1.2-1 0-.5.5-.9 1.2-.9.5 0 .9.2 1.3.7l.8-1.1c-.7-.6-1.5-.9-2.4-.9-1.5 0-2.6 1-2.6 2.4 0 1.1.5 1.7 2 2.3.6.2.9.4 1.1.5.3.2.5.5.5.9 0 .7-.5 1.2-1.2 1.2-.8 0-1.4-.4-1.7-1.1l-1 1c.7 1.1 1.6 1.6 2.8 1.6 1.7 0 2.8-1.1 2.8-2.7-.1-1.7-.6-2.2-2.4-2.9z"/><path d="m23.4 21.6c0 2.4 1.9 4.3 4.3 4.3.7 0 1.3-.1 2-.5v-1.9c-.6.6-1.2.9-1.9.9-1.6 0-2.8-1.2-2.8-2.8s1.2-2.8 2.7-2.8c.8 0 1.3.3 2 .9v-1.9c-.7-.4-1.3-.5-2-.5-2.3 0-4.3 2-4.3 4.3z"/><path d="m42.5 23.1-2.2-5.6h-1.7l3.4 8.5h.9l3.6-8.5h-1.8z"/><path d="m47.2 25.7h4.5v-1.3h-2.9v-2.3h2.8v-1.4h-2.8v-1.8h2.9v-1.4h-4.5z"/><path d="m58.1 20c0-1.5-1.1-2.4-2.9-2.4h-2.4v8.2h1.6v-3.3h.2l2.2 3.3h2l-2.6-3.5c1.2-.3 1.9-1.1 1.9-2.3zm-3.2 1.3h-.5v-2.5h.5c1 0 1.5.4 1.5 1.2 0 .9-.5 1.3-1.5 1.3z"/></g><circle cx="34.7" cy="21.7" fill="#f38020" r="4.4"/><g fill="#221f1f"><path d="m59.1 17.8c0-.1-.1-.2-.3-.2h-.2v.7h.2v-.3l.2.3h.2l-.3-.3c.1 0 .2-.1.2-.2zm-.3.1v-.2c.1 0 .1 0 .1.1s0 .1-.1.1z"/><path d="m58.9 17.3c-.4 0-.6.3-.6.6s.3.6.6.6.6-.3.6-.6-.3-.6-.6-.6zm0 1.2c-.3 0-.5-.2-.5-.5s.2-.5.5-.5.5.2.5.5-.3.5-.5.5z"/></g><path d="m61.3 49.5c1.3 0 2.4-1.1 2.4-2.4v-12.3c-4.4 2.7-17.6 10-38.6 14.7z" fill="#f38020"/><path d="m61.3 2.5c1.3 0 2.4 1.1 2.4 2.4v42.3c0 1.3-1.1 2.4-2.4 2.4h-56.6c-1.3 0-2.4-1.1-2.4-2.4v-42.3c0-1.3 1.1-2.4 2.4-2.4zm0-1.8h-56.6c-2.3 0-4.2 1.9-4.2 4.2v42.3c0 2.3 1.9 4.2 4.2 4.2h56.7c2.3 0 4.2-1.9 4.2-4.2v-42.3c-.1-2.3-1.9-4.2-4.3-4.2z" fill="#5f6062"/></g></svg>