<svg height="78" viewBox="0 0 100 78" width="100" xmlns="http://www.w3.org/2000/svg"><g fill="none" fill-rule="evenodd"><path d="m92.8787879.06346154h-85.75757578c-3.48484848 0-6.36363636 2.88653846-6.36363636 6.38076923v64.26346153c0 3.4942308 2.87878788 6.3807692 6.36363636 6.3807692h85.90909088c3.4848485 0 6.3636364-2.8865384 6.3636364-6.3807692v-64.26346153c-.1515152-3.49423077-2.8787879-6.38076923-6.5151515-6.38076923z" fill="#ffffff"/><path d="m92.8787879 2.79807692c1.9696969 0 3.6363636 1.67115385 3.6363636 3.64615385v64.26346153c0 1.975-1.6666667 3.6461539-3.6363636 3.6461539h-85.75757578c-1.96969697 0-3.63636364-1.6711539-3.63636364-3.6461539v-64.26346153c0-1.975 1.66666667-3.64615385 3.63636364-3.64615385zm0-2.73461538h-85.75757578c-3.48484848 0-6.36363636 2.88653846-6.36363636 6.38076923v64.26346153c0 3.4942308 2.87878788 6.3807692 6.36363636 6.3807692h85.90909088c3.4848485 0 6.3636364-2.8865384 6.3636364-6.3807692v-64.26346153c-.1515152-3.49423077-2.8787879-6.38076923-6.5151515-6.38076923z" fill="#5f6062"/><g fill="#0767b0"><path d="m43.18181782 51.7173076h-6.81818182l4.24242424-26.13076921h6.81818186z"/><path d="m84.0909087 51.7173076h6.2121212l-5.4545454-26.13076921h-5.4545455c-2.5757575 0-3.1818182 1.97499999-3.1818182 1.97499999l-10.1515151 24.15576922h7.1212121l1.3636364-3.95h8.7878788zm-7.4242424-9.2673077 3.6363636-9.7230769 1.969697 9.7230769z"/><path d="m66.6666663 31.81538454.9090909-5.62115385s-3.030303-1.21538461-6.060606-1.21538461c-3.3333334 0-11.3636364 1.51923077-11.3636364 8.65961538 0 6.68461534 9.3939394 6.83653844 9.3939394 10.33076924s-8.4848485 2.8865385-11.2121212.6076923l-.9090909 6.0769231s3.030303 1.5192307 7.7272727 1.5192307 11.6666667-2.4307692 11.6666667-8.9634615c0-6.8365385-9.5454546-7.4442308-9.5454546-10.33076922 0-3.03846154 6.5151515-2.58269231 9.3939394-1.06346154z"/></g><path d="m30.7575757 25.58653839-6.5151515 17.92692311-.7575758-3.95s-1.5151515-4.7096154-6.2121212-8.65961542c-1.060606-.75961539-1.96969696-1.51923077-3.03030302-2.12692308l5.90909092 22.6365385h7.1212121l10.7575758-26.13076927h-7.2727273z" fill="#0767b0"/><path d="m23.4848484 39.7153845-2.2727272-11.84999996s-.3030304-2.43076923-3.1818182-2.43076923h-10.75757579l-.15151515.45576923s5.15151515 1.06346154 10.15151514 5.01346154c4.6969697 3.95000002 6.2121212 8.81153842 6.2121212 8.81153842z" fill="#f9a533"/></g></svg>