<svg height="77" viewBox="0 0 100 77" width="100" xmlns="http://www.w3.org/2000/svg"><g fill="none" fill-rule="evenodd"><path d="m92.8787879.05h-85.75757578c-3.48484848 0-6.36363636 2.85-6.36363636 6.3v63.45c0 3.45 2.87878788 6.3 6.36363636 6.3h85.90909088c3.4848485 0 6.3636364-2.85 6.3636364-6.3v-63.45c-.1515152-3.45-2.8787879-6.3-6.5151515-6.3z" fill="#1a95d0"/><path d="m91.5151515 46.85h-6.969697l-4.6969697-5.25-4.6969696 5.25h-16.969697v-18.15h17.4242424l4.3939394 4.95 4.5454545-4.95h7.1212122l-8.1818182 8.85zm-6.3636363-1.2h3.6363636l-6.969697-8.1 6.969697-7.65h-3.6363636l-5.1515152 5.55-5-5.55h-15.6060606v15.75h15.1515151l5.3030303-6zm-31.2121213 1.2h-5.4545454v-10.05l-4.6969697 10.05h-4.6969697l-4.5454546-10.2v10.2h-9.5454545l-1.6666667-3.75h-7.5757575l-1.6666667 3.75h-5.75757577l8.03030307-18.15h6.3636363l6.3636364 11.7v-11.7h7.5757576l4.6969697 10.5 4.6969697-10.5h7.7272727v18.15zm-4.2424242-1.2h2.8787879v-15.75h-5.6060606l-5.6060606 12.3-5.6060606-12.3h-5.4545455v15.45l-8.3333333-15.45h-4.6969697l-6.969697 15.75h3.030303l1.6666667-3.75h9.2424242l1.6666667 3.75h7.4242424v-15l6.6666667 15h3.030303l6.8181818-14.55v14.55zm23.1818182-2.25h-10.6060606v-4.65h9.2424242v-1.95h-9.2424242v-4.5h11.2121212l4.6969697 5.25zm-9.2424243-1.35h8.7878788l4.0909091-4.5-3.4848485-3.9h-9.2424242v1.95h9.2424242v4.5h-9.3939394zm-40.6060606-2.55h-7.1212121l3.4848485-8.1zm-5-1.35h3.1818182l-1.6666667-3.75z" fill="#ffffff"/></g></svg>