<svg height="12" viewBox="0 0 66 12" width="66" xmlns="http://www.w3.org/2000/svg"><g fill="none" fill-rule="evenodd"><g fill="#221f1f"><path d="m3.4.8h-2.9v10.3h2.9c1.6 0 2.7-.4 3.7-1.2 1.2-1 1.9-2.4 1.9-4-.1-3-2.3-5.1-5.6-5.1zm2.4 7.8c-.6.6-1.5.8-2.7.8h-.5v-6.8h.4c1.3 0 2.1.2 2.7.8.7.6 1.1 1.6 1.1 2.6.1.9-.3 1.9-1 2.6z"/><path d="m9.9.8h2v10.3h-2z"/><path d="m16.8 4.8c-1.2-.4-1.6-.7-1.6-1.3s.6-1.1 1.5-1.1c.6 0 1.1.2 1.6.8l1.1-1.4c-.9-.8-1.9-1.1-3-1.1-1.8 0-3.2 1.3-3.2 2.9 0 1.4.6 2.1 2.5 2.8.8.3 1.2.5 1.4.6.4.3.6.6.6 1.1 0 .8-.7 1.5-1.6 1.5-1 0-1.7-.5-2.2-1.4l-1.3 1.2c.9 1.4 2 2 3.6 2 2.1 0 3.6-1.4 3.6-3.4-.1-1.7-.7-2.4-3-3.2z"/><path d="m20.4 6c0 3 2.4 5.4 5.4 5.4.9 0 1.6-.2 2.5-.6v-2.4c-.8.8-1.5 1.1-2.4 1.1-2 0-3.5-1.5-3.5-3.6 0-2 1.5-3.5 3.4-3.5 1 0 1.7.3 2.5 1.2v-2.4c-.9-.4-1.6-.6-2.5-.6-3 0-5.4 2.4-5.4 5.4z"/><path d="m44.3 7.7-2.8-6.9h-2.2l4.4 10.6h1.1l4.4-10.6h-2.2z"/><path d="m50.1 11.1h5.7v-1.7h-3.7v-2.8h3.6v-1.8h-3.6v-2.2h3.7v-1.8h-5.7z"/><path d="m63.8 3.9c0-1.9-1.3-3-3.6-3h-3v10.3h2v-4.2h.3l2.8 4.1h2.5l-3.2-4.3c1.3-.3 2.2-1.4 2.2-2.9zm-4.1 1.7h-.6v-3.1h.6c1.3 0 1.9.5 1.9 1.5.1 1-.6 1.6-1.9 1.6z"/></g><circle cx="34.5" cy="6" fill="#f38020" r="5.5"/><g fill="#221f1f"><path d="m65 1.2c0-.2-.1-.3-.3-.3h-.3v.9h.2v-.4l.3.4h.3l-.3-.4c.1 0 .1-.1.1-.2zm-.3.1v-.2c.1 0 .2 0 .2.1-.1.1-.1.1-.2.1z"/><path d="m64.7.6c-.4 0-.8.4-.8.8s.4.8.8.8.8-.4.8-.8c0-.5-.3-.8-.8-.8zm0 1.4c-.3 0-.6-.3-.6-.6 0-.4.3-.6.6-.6s.6.3.6.6c.1.3-.2.6-.6.6z"/></g></g></svg>