<svg height="61" viewBox="0 0 100 61" width="100" xmlns="http://www.w3.org/2000/svg"><g fill="none" fill-rule="evenodd"><ellipse cx="30.151515" cy="30.5" fill="#ec2127" rx="29.545455" ry="29.7375"/><path d="m69.8484848.7625c-7.5757575 0-14.5454545 2.8975-19.8484848 7.625-1.0606061.915-2.1212121 1.9825-3.030303 3.2025h6.060606c.7575758 1.0675 1.5151515 1.9825 2.2727273 3.2025h-10.4545455c-.6060606 1.0675-1.2121212 1.9825-1.6666666 3.2025h13.7878788c.4545454 1.0675.9090909 2.135 1.2121212 3.2025h-16.3636364c-.3030303 1.0675-.6060606 2.135-.9090909 3.2025h18.1818182c.4545454 1.9825.6060606 4.1175.6060606 6.2525 0 3.355-.6060606 6.405-1.5151515 9.455h-16.3636364c.3030303 1.0675.7575758 2.135 1.2121212 3.2025h13.7878788c-.4545454 1.0675-1.060606 2.135-1.6666666 3.2025h-10.4545455c.7575758 1.0675 1.3636364 2.135 2.2727273 3.2025h6.060606c-.9090909 1.0675-1.9696969 2.135-3.030303 3.2025 5.3030303 4.7275 12.1212121 7.625 19.8484848 7.625 16.2121213 0 29.5454546-13.2675 29.5454546-29.7375-.1515152-16.775-13.3333333-30.0425-29.5454546-30.0425z" fill="#faa61b"/><path d="m95.3030303 46.97c0-.4575.4545455-.915.9090909-.915.4545455 0 .9090909.4575.9090909.915s-.4545454.915-.9090909.915c-.4545454 0-.9090909-.305-.9090909-.915zm1.0606061.7625c.4545454 0 .7575757-.305.7575757-.7625s-.3030303-.7625-.7575757-.7625c-.4545455 0-.7575758.305-.7575758.7625s.3030303.7625.7575758.7625zm-.1515152-.305h-.1515151v-.915h.3030303.1515151l.1515152.1525c0 .1525 0 .1525-.1515152.1525l.1515152.305h-.1515152l-.1515151-.305h-.1515152zm0-.4575h.1515152s0 0 0-.1525c0 0 0 0 0-.1525h-.1515152-.1515151v.305z" fill="#000000"/><g fill="#000000"><path d="m23.3333338 33.7025h-.7575757c-1.8181819 0-2.7272728.61-2.7272728 1.83 0 .7625.4545455 1.22 1.2121212 1.22 1.2121213 0 2.2727273-1.22 2.2727273-3.05zm2.2727273 5.49h-2.7272727v-1.22c-.7575758 1.0675-1.8181819 1.525-3.3333334 1.525-1.6666666 0-2.8787878-1.3725-2.8787878-3.355 0-3.05 2.1212121-4.7275 5.6060606-4.7275.3030303 0 .7575757 0 1.3636363.1525.1515152-.4575.1515152-.61.1515152-.7625 0-.7625-.6060606-1.0675-2.1212121-1.0675-1.5151516 0-2.8787879.305-3.3333334.61 0-.1525.4545455-2.745.4545455-2.745 1.6666666-.4575 2.5757575-.61 3.7878788-.61 2.7272727 0 4.2424242 1.22 4.2424242 3.66 0 .61-.1515151 1.3725-.3030303 2.44-.1515152 1.3725-.7575758 5.185-.9090909 6.1z"/><path d="m15.4545459 39.1925h-3.1818181l1.8181818-11.59-4.09090912 11.59h-2.27272727l-.15151515-11.59-1.96969697 11.59h-3.03030303l2.57575758-15.0975h4.54545454l.3030303 8.3875 2.72727272-8.3875h5.1515152z"/><path d="m73.7878793 33.7025h-.7575758c-1.8181818 0-2.7272727.61-2.7272727 1.83 0 .7625.4545454 1.22 1.2121212 1.22 1.2121212 0 2.1212121-1.22 2.2727273-3.05zm2.2727272 5.49h-2.7272727v-1.22c-.7575757 1.0675-1.8181818 1.525-3.3333333 1.525-1.6666667 0-2.8787879-1.3725-2.8787879-3.355 0-3.05 2.1212121-4.7275 5.6060606-4.7275.3030303 0 .7575758 0 1.3636364.1525.1515151-.4575.1515151-.61.1515151-.7625 0-.7625-.6060606-1.0675-2.1212121-1.0675s-2.8787879.305-3.3333333.61c0-.1525.4545454-2.745.4545454-2.745 1.6666667-.4575 2.5757576-.61 3.7878788-.61 2.7272727 0 4.2424243 1.22 4.2424243 3.66 0 .61-.1515152 1.3725-.3030303 2.44-.1515152 1.3725-.7575758 5.185-.909091 6.1z"/><path d="m39.8484853 38.8875c-.9090909.305-1.5151515.4575-2.2727272.4575-1.6666667 0-2.5757576-.915-2.5757576-2.745 0-.61.3030303-1.9825.4545454-3.2025.1515152-1.22 1.3636364-8.3875 1.3636364-8.3875h3.1818182l-.3030303 1.83h1.969697l-.4545455 2.8975h-1.969697c-.3030303 2.2875-.9090909 5.185-.9090909 5.6425 0 .61.3030303.915 1.0606061.915.3030303 0 .6060606 0 .9090909-.1525z"/><path d="m49.6969702 38.8875c-1.0606061.305-2.1212121.4575-3.3333334.4575-3.6363636 0-5.4545454-1.83-5.4545454-5.49 0-4.1175 2.4242424-7.32 5.6060606-7.32 2.5757576 0 4.2424242 1.6775 4.2424242 4.4225 0 .915-.1515151 1.83-.4545454 3.05h-6.3636364c0 1.83 1.0606061 2.5925 2.8787879 2.5925 1.2121212 0 2.1212121-.305 3.3333333-.7625zm-1.8181818-7.32c0-.305.3030303-2.135-1.5151516-2.135-1.060606 0-1.6666666.7625-1.9696969 2.135z"/><path d="m27.5757581 30.805c0 1.525.7575757 2.5925 2.4242424 3.355 1.3636363.61 1.5151515.7625 1.5151515 1.3725 0 .7625-.6060606 1.0675-1.8181818 1.0675-.9090909 0-1.8181818-.1525-2.8787879-.4575 0 0-.4545455 2.745-.4545455 2.8975.7575758.1525 1.3636364.305 3.3333334.305 3.3333333 0 5-1.22 5-4.1175 0-1.6775-.6060606-2.745-2.2727273-3.355-1.3636364-.61-1.5151515-.7625-1.5151515-1.3725s.6060606-1.0675 1.5151515-1.0675c.6060606 0 1.5151515 0 2.2727273.1525l.4545454-2.8975c-.7575757-.1525-2.1212121-.305-2.8787878-.305-3.4848485.305-4.6969697 2.135-4.6969697 4.4225z"/><path d="m65.1515156 26.9925c.9090909 0 1.6666667.305 2.8787879.7625l.4545455-3.2025c-.4545455-.1525-2.1212122-1.22-3.4848485-1.22-2.1212121 0-3.939394 1.0675-5.1515152 2.8975-1.8181818-.61-2.5757575.61-3.4848485 1.83l-.7575757.1525c0-.4575.1515151-.7625.1515151-1.22h-2.8787878c-.4545455 3.8125-1.0606061 7.625-1.6666667 11.4375l-.1515152.7625h3.1818182c.6060606-3.5075.7575758-5.795 1.0606061-7.32l1.2121212-.61c.1515152-.61.7575758-.915 1.8181818-.915-.1515151.7625-.3030303 1.6775-.3030303 2.44 0 3.965 2.1212121 6.5575 5.6060606 6.5575.9090909 0 1.6666667-.1525 2.8787879-.4575l.6060606-3.5075c-1.0606061.4575-1.969697.7625-2.7272727.7625-1.8181818 0-3.0303031-1.3725-3.0303031-3.66-.3030303-3.2025 1.5151516-5.49 3.7878788-5.49z"/><path d="m92.2727278 24.095-.7575758 4.4225c-.9090909-1.22-1.8181818-1.9825-3.030303-1.9825-1.6666667 0-3.0303031 1.22-4.0909091 3.05-1.3636364-.305-2.7272727-.7625-2.7272727-.7625.1515151-1.0675.1515151-1.6775.1515151-1.83h-2.8787879c-.4545454 3.8125-1.060606 7.625-1.6666666 11.4375l-.1515152.7625h3.1818182c.4545454-2.8975.7575757-5.185 1.060606-7.015 1.0606061-1.0675 1.6666667-1.83 2.7272728-1.83-.4545455 1.22-.7575758 2.5925-.7575758 3.965 0 3.05 1.5151515 5.0325 3.939394 5.0325 1.2121212 0 2.1212121-.4575 2.8787878-1.3725l-.1515151 1.0675h3.030303l2.4242424-15.0975h-3.1818181zm-3.939394 12.2c-1.060606 0-1.6666666-.7625-1.6666666-2.44 0-2.44 1.060606-4.1175 2.4242424-4.1175 1.060606 0 1.6666666.915 1.6666666 2.44.1515152 2.44-.9090909 4.1175-2.4242424 4.1175z"/></g><g fill="#ffffff"><path d="m16.3636373 38.2775h-3.1818181l1.8181818-11.59-4.09090912 11.59h-2.12121212l-.30303031-11.59-1.96969697 11.59h-3.03030302l2.57575757-15.0975h4.54545455l.15151515 9.3025 3.03030307-9.3025h5z"/><path d="m24.2424252 32.7875h-.7575757c-1.8181819 0-2.7272728.61-2.7272728 1.83 0 .7625.4545455 1.22 1.2121212 1.22 1.2121213 0 2.2727273-1.22 2.2727273-3.05zm2.2727273 5.49h-2.7272727v-1.22c-.7575758 1.0675-1.8181819 1.525-3.3333334 1.525-1.6666666 0-2.8787879-1.3725-2.8787879-3.355 0-3.05 2.1212122-4.7275 5.6060607-4.7275.3030303 0 .7575757 0 1.3636363.1525.1515152-.4575.1515152-.61.1515152-.7625 0-.7625-.6060606-1.0675-2.1212122-1.0675-1.5151515 0-2.8787878.305-3.3333333.61 0-.1525.4545455-2.745.4545455-2.745 1.6666666-.4575 2.5757575-.61 3.7878788-.61 2.7272727 0 4.2424242 1.22 4.2424242 3.66 0 .61-.1515152 1.3725-.3030303 2.44-.1515152 1.3725-.7575758 5.185-.9090909 6.1z"/><path d="m69.5454555 23.6375-.4545454 3.2025c-1.2121213-.61-1.969697-.7625-2.8787879-.7625-2.4242424 0-4.0909091 2.2875-4.0909091 5.6425 0 2.2875 1.0606061 3.66 3.030303 3.66.7575758 0 1.6666667-.305 2.7272727-.7625l-.6060606 3.355c-1.2121212.305-1.9696969.4575-2.8787878.4575-3.4848485 0-5.6060606-2.44-5.6060606-6.5575 0-5.3375 3.030303-9.15 7.2727272-9.15 1.3636364.1525 3.0303031.7625 3.4848485.915z"/><path d="m74.6969707 32.7875h-.7575758c-1.8181818 0-2.7272727.61-2.7272727 1.83 0 .7625.4545454 1.22 1.2121212 1.22 1.2121212 0 2.1212121-1.22 2.2727273-3.05zm2.2727272 5.49h-2.7272727v-1.22c-.7575757 1.0675-1.8181818 1.525-3.3333333 1.525-1.6666667 0-2.8787879-1.3725-2.8787879-3.355 0-3.05 2.1212121-4.7275 5.6060606-4.7275.3030303 0 .7575758 0 1.3636364.1525.1515151-.4575.1515151-.61.1515151-.7625 0-.7625-.6060606-1.0675-2.1212121-1.0675s-2.8787879.305-3.3333333.61c0-.1525.4545454-2.745.4545454-2.745 1.6666667-.4575 2.5757576-.61 3.7878788-.61 2.7272727 0 4.2424243 1.22 4.2424243 3.66 0 .61-.1515152 1.3725-.3030304 2.44-.1515151 1.3725-.7575757 5.185-.9090909 6.1z"/><path d="m40.7575767 38.125c-.9090909.305-1.5151515.4575-2.2727272.4575-1.6666667 0-2.5757576-.915-2.5757576-2.745 0-.61.3030303-1.9825.4545454-3.2025.1515152-1.22 1.3636364-8.3875 1.3636364-8.3875h3.1818182l-.3030303 1.83h1.6666666l-.4545454 2.8975h-1.6666667c-.3030303 2.2875-.9090909 5.185-.9090909 5.6425 0 .61.3030303.915 1.0606061.915.3030303 0 .6060606 0 .9090909-.1525z"/><path d="m50.6060616 37.9725c-1.0606061.305-2.1212121.4575-3.3333334.4575-3.6363636 0-5.4545454-1.83-5.4545454-5.49 0-4.1175 2.4242424-7.32 5.6060606-7.32 2.5757576 0 4.2424242 1.6775 4.2424242 4.4225 0 .915-.1515151 1.83-.4545454 3.05h-6.3636364c-.1515151 1.83.9090909 2.5925 2.7272727 2.5925 1.2121213 0 2.1212122-.305 3.3333334-.7625zm-1.8181818-7.32c0-.305.3030303-2.135-1.5151516-2.135-1.060606 0-1.6666666.7625-1.9696969 2.135z"/><path d="m28.4848495 29.89c0 1.525.7575757 2.5925 2.4242424 3.355 1.3636363.61 1.5151515.7625 1.5151515 1.3725 0 .7625-.6060606 1.0675-1.8181818 1.0675-.9090909 0-1.8181818-.1525-2.8787879-.4575 0 0-.4545455 2.745-.4545455 2.8975.7575758.1525 1.3636364.305 3.3333334.305 3.3333333 0 5-1.22 5-4.1175 0-1.6775-.6060606-2.745-2.2727273-3.355-1.3636364-.61-1.5151515-.7625-1.5151515-1.3725s.6060606-1.0675 1.5151515-1.0675c.6060606 0 1.5151515 0 2.2727273.1525l.4545454-2.8975c-.7575757-.1525-2.1212121-.305-2.8787878-.305-3.4848485.305-4.6969697 2.135-4.6969697 4.4225z"/><path d="m93.9393949 38.2775h-3.030303l.1515151-1.0675c-.9090909.915-1.8181818 1.3725-2.8787878 1.3725-2.2727273 0-3.939394-1.9825-3.939394-5.0325 0-4.1175 2.4242424-7.4725 5.1515152-7.4725 1.2121212 0 2.1212121.4575 3.030303 1.6775l.7575758-4.4225h3.1818181zm-4.6969697-2.8975c1.5151515 0 2.5757576-1.6775 2.5757576-4.1175 0-1.525-.6060606-2.44-1.6666667-2.44-1.5151515 0-2.4242424 1.6775-2.4242424 4.1175-.1515152 1.6775.4545455 2.44 1.5151515 2.44z"/><path d="m79.8484858 26.0775c-.4545454 3.8125-1.060606 7.625-1.6666666 11.4375l-.1515152.7625h3.1818182c1.2121212-7.4725 1.3636363-8.9975 3.1818182-8.6925.3030303-1.525.7575757-2.8975 1.2121212-3.5075-1.3636364-.305-2.1212121.4575-3.0303031 1.9825.1515152-.61.1515152-1.22.1515152-1.83h-2.8787879z"/><path d="m53.4848495 26.0775c-.4545455 3.8125-1.0606061 7.625-1.6666667 11.4375l-.1515152.7625h3.1818182c1.2121212-7.4725 1.3636364-8.9975 3.1818182-8.6925.3030303-1.525.7575758-2.8975 1.2121212-3.5075-1.3636364-.305-2.1212121.4575-3.030303 1.9825.1515151-.61.1515151-1.22.1515151-1.83h-2.8787878z"/><path d="m95.3030313 37.3625c0-.4575.4545454-.915.9090909-.915.4545454 0 .9090909.4575.9090909.915s-.4545455.915-.9090909.915c-.4545455 0-.9090909-.4575-.9090909-.915zm1.060606.61c.4545455 0 .7575758-.305.7575758-.7625s-.3030303-.7625-.7575758-.7625c-.4545454 0-.7575757.305-.7575757.7625s.3030303.7625.7575757.7625zm-.1515151-.305h-.1515152v-.915h.3030303.1515152l.1515151.1525c0 .1525 0 .1525-.1515151.1525l.1515151.305h-.1515151l-.1515152-.305h-.1515151zm0-.4575h.3030303s0 0 0-.1525c0 0 0 0 0-.1525h-.1515152-.1515151z"/></g></g></svg>