<svg height="33" viewBox="0 0 100 33" width="100" xmlns="http://www.w3.org/2000/svg"><g fill="none" fill-rule="evenodd"><g fill="#0767b0"><path d="m43.33333348 31.8h-8.03030302l4.99999999-30.6h8.18181815z"/><path d="m91.818182 31.8h7.4242424l-6.5151515-30.6h-6.3636364c-3.030303 0-3.7878788 2.25-3.7878788 2.25l-11.9696969 28.35h8.3333333l1.6666667-4.5h10.3030303zm-8.7878788-10.8 4.2424242-11.4 2.4242424 11.4z"/><path d="m71.2121214 8.55 1.2121212-6.6s-3.4848485-1.35-7.2727273-1.35c-3.9393939 0-13.4848485 1.8-13.4848485 10.2 0 7.95 11.0606061 7.95 11.0606061 12.15s-10 3.45-13.3333334.75l-1.2121212 6.9s3.6363637 1.8 9.0909091 1.8c5.4545455 0 13.7878788-2.85 13.7878788-10.5 0-7.95-11.2121212-8.7-11.2121212-12.15.1515152-3.6 8.030303-3.15 11.3636364-1.2z"/></g><path d="m28.6363636 1.2-7.7272727 21-.9090909-4.5s-1.8181818-5.55-7.4242424-10.05c-1.2121212-.9-2.4242424-1.65-3.48484851-2.4l6.96969701 26.55h8.3333333l12.8787879-30.6z" fill="#0767b0"/><path d="m20.1515152 17.7-2.7272728-13.8s-.3030303-2.7-3.7878788-2.7h-12.72727269l-.15151515.45s6.06060606 1.2 11.96969694 6c5.4545455 4.5 7.4242425 10.05 7.4242425 10.05z" fill="#f9a533"/></g></svg>