<?xml version="1.0" encoding="utf-8"?>
<!-- Generator: Adobe Illustrator 19.2.1, SVG Export Plug-In . SVG Version: 6.00 Build 0)  -->
<svg version="1.1" xmlns="http://www.w3.org/2000/svg" xmlns:xlink="http://www.w3.org/1999/xlink" x="0px" y="0px"
	 viewBox="0 0 6447.6 1541.6" style="enable-background:new 0 0 6447.6 1541.6;" xml:space="preserve">
<style type="text/css">
	.st0{fill:#D32D27;}
	.st1{fill:#88CADD;}
	.st2{fill:#253D85;}
	.st3{fill:#676767;}
	.st4{fill:#0C94D2;}
	.st5{fill:#E65124;}
	.st6{fill:#BFE4EC;}
	.st7{fill:#002F87;}
	.st8{fill:#E2231A;}
	.st9{fill:#B3B2B3;}
</style>
<g id="Layer_1">
</g>
<g id="Layer_2">
	<rect x="2558" y="4.4" width="26.6" height="1489.1"/>
	<path d="M3416.1,1074.5l27.1-17.6l3.8-1031c-8.9,0-18.4-0.4-27.1-0.9L3416.1,1074.5z"/>
	<g>
		<path d="M3990.7,694.9L3071.2,1297c4.9,7.4,9.5,15,13.9,22.6l934.7-612.2L3990.7,694.9z"/>
		<path d="M4386,865.3c3.6-8.1,7.4-16.2,11.3-24l-954.1-411.6v28.9L4386,865.3z"/>
	</g>
	<g>
		<g>
			<g>
				<path d="M4760.6,321c107.6,0,170.4,66,170.4,179.6c0,113.9-62.5,179.9-170.4,179.9h-118.3V321H4760.6z M4676.4,649.7h82.2
					c88.4,0,137.8-53.3,137.8-148.7c0-95.7-49.3-149-137.8-149h-82.2V649.7z"/>
				<path d="M4978.4,337c0-12.5,10.2-22.4,22.4-22.4s22.2,10,22.2,22.4c0,12-10,22.2-22.2,22.2S4978.4,348.9,4978.4,337z
					 M4984.3,412.2h32.9v268.3h-32.9V412.2z"/>
				<path d="M5078.8,705.2h34.4c6.5,23.9,35.6,39.9,75.7,39.9c49.8,0,83-25.7,83-67v-54.6h-0.7c-14.9,34.6-49.3,58.3-92.2,58.3
					c-67.5,0-113.4-54.8-113.4-136c0-82,45.8-136.5,114.1-136.5c42.8,0,77.5,23.4,93.2,58.6h0.5v-55.6h31.4v263.3
					c0,61.5-46.1,98.4-117.9,98.4C5127.6,774,5085.5,746.3,5078.8,705.2z M5271.9,545.8c0-63.5-35.4-107.1-87.2-107.1
					c-51.3,0-85.5,42.9-85.5,107.1c0,64,34.1,106.4,85.5,106.4C5236.5,652.1,5271.9,608.8,5271.9,545.8z"/>
				<path d="M5360.6,337c0-12.5,10.2-22.4,22.4-22.4s22.2,10,22.2,22.4c0,12-10,22.2-22.2,22.2S5360.6,348.9,5360.6,337z
					 M5366.6,412.2h32.9v268.3h-32.9V412.2z"/>
				<path d="M5508.6,347.9v64.3h53.1v27.7h-53.1v173.4c0,27.9,11,39.9,35.9,39.9c3.5,0,16.4-0.7,18.4-1v28.2
					c-3.5,1-17.9,1.7-24.9,1.7c-44.3,0-62.3-19.2-62.3-67.5V439.9h-38.4v-27.7h38.4v-64.3H5508.6z"/>
				<path d="M5595.6,605.8c0-45.8,34.4-72.5,98.7-77l82.5-5.5v-22.9c0-39.1-24.7-61.8-68-61.8c-37.4,0-63.5,19.2-69.5,51.1h-31.6
					c2.7-47.1,45.1-80.5,101.4-80.5c61.5,0,100.6,34.4,100.6,88.4v182.9h-31.4v-51.3h-0.7c-14.4,32.6-50.8,54.3-91.9,54.3
					C5632,683.5,5595.6,652.1,5595.6,605.8z M5776.7,579.6V550l-78.5,5.5c-45.1,3-69,20.4-69,50.6c0,28.9,25.4,48.6,62.8,48.6
					C5740.1,654.6,5776.7,622,5776.7,579.6z"/>
				<path d="M5869.9,305.3h32.9v375.2h-32.9V305.3z"/>
				<path d="M4658.9,1093.2c3.7,43.1,44.3,72.5,100.7,72.5c53.8,0,92.4-29.4,92.4-69.8c0-33.6-23.2-53.6-76.5-67l-44.6-11.5
					c-66.5-16.9-96.2-45.1-96.2-92.4c0-58,52.3-99.4,123.1-99.4c70,0,121.3,41.4,123.3,98.4H4847c-3.2-40.6-39.1-67.5-90.2-67.5
					c-49.8,0-86.7,27.7-86.7,67.3c0,30.9,22.4,49.1,75.2,62.5l38.9,10c72.2,18.2,102.7,45.8,102.7,95.9c0,63-50.8,104.4-130.3,104.4
					c-75.3,0-128.1-41.6-131.8-103.4H4658.9z"/>
				<path d="M5155.2,1114.9c-8,45.8-52.1,79-110.4,79c-74.2,0-121.6-52.1-121.6-136.5c0-83.2,47.3-137.8,119.6-137.8
					c70.5,0,115.9,51.1,115.9,130.8v14.4h-201.3v1.7c0,60.8,34.9,98.2,88.2,98.2c40.4,0,69-20.4,77-49.8H5155.2z M4957.4,1037.9
					h166.9c-0.5-53.3-33.4-89.2-82-89.2C4994.3,948.7,4960.4,984.6,4957.4,1037.9z"/>
				<path d="M5204.6,922.5h30.9v47.6h1c9.2-31.9,34.6-50.6,68-50.6c8.7,0,16.7,1.5,20.9,2.7v32.6c-4.5-2-14-3.7-25.4-3.7
					c-38.1,0-62.5,29.9-62.5,73.2v166.4h-32.9V922.5z"/>
				<path d="M5472.2,1190.9h-34.9l-100.1-268.3h34.6l82.5,233.2h0.7l82.7-233.2h34.4L5472.2,1190.9z"/>
				<path d="M5602.5,847.3c0-12.5,10.2-22.4,22.4-22.4s22.2,10,22.2,22.4c0,12-10,22.2-22.2,22.2S5602.5,859.3,5602.5,847.3z
					 M5608.5,922.5h32.9v268.3h-32.9V922.5z"/>
				<path d="M5888.1,1007c-6.5-32.9-34.6-58.1-77.5-58.1c-52.6,0-87.2,42.4-87.2,107.6c0,66.5,34.9,107.6,87.4,107.6
					c41.1,0,69.8-20.9,77.5-56.1h32.6c-7.7,50.6-50.8,85.7-110.1,85.7c-73,0-121.1-52.6-121.1-137.3c0-83,47.8-137,120.6-137
					c62.8,0,103.9,40.1,110.4,87.4H5888.1z"/>
				<path d="M6182.4,1114.9c-8,45.8-52.1,79-110.4,79c-74.2,0-121.6-52.1-121.6-136.5c0-83.2,47.3-137.8,119.6-137.8
					c70.5,0,115.9,51.1,115.9,130.8v14.4h-201.3v1.7c0,60.8,34.9,98.2,88.2,98.2c40.4,0,69-20.4,77-49.8H6182.4z M5984.5,1037.9
					h166.9c-0.5-53.3-33.4-89.2-82-89.2C6021.4,948.7,5987.5,984.6,5984.5,1037.9z"/>
				<path d="M6322.6,919.5c54.3,0,93.7,32.4,96.4,78.5h-31.6c-3.2-30.4-27.9-50.6-65.8-50.6c-35.9,0-62.8,18.4-62.8,45.6
					c0,21.9,15.9,34.6,50.1,43.1l41.1,10c53.8,13.5,74.2,32.9,74.2,71c0,45.3-43.1,76.7-103.4,76.7c-57.6,0-98.9-32.9-102.7-78.5
					h33.4c4,30.7,30.6,50.8,71.2,50.8c40.1,0,68-18.4,68-46.8c0-22.7-13.7-35.1-50.1-44.1l-45.3-11.5c-46.3-11.7-69.3-33.6-69.3-69
					C6226.2,950.4,6267.3,919.5,6322.6,919.5z"/>
			</g>
			<path class="st0" d="M3456.1,630.5c-83.5,0.1-168.5,23.7-243.3,73.2c-203.6,134.6-259.6,408.7-125,612.3l368.3-243V630.5z"/>
			<g>
				<path class="st1" d="M4010.9,706.1l-372.5,246.3c45.5,66.5,109.6,121.4,189,155.8c224,96.9,484.1-6.2,581-230.2L4010.9,706.1z"
					/>
			</g>
			<path class="st2" d="M3898.3,466.7c0.3-244.1-198.2-442.1-442.2-442.4v442.3L3862,641.8C3885.3,588.1,3898.3,528.9,3898.3,466.7z
				"/>
			<g>
				<path class="st3" d="M3428.6,1090.8l27.5-17.8v-165c-9,0-18.6-0.4-27.5-0.9V1090.8z"/>
				<g>
					<path class="st3" d="M4010.9,706.1l-185.7,122.8c5,7.5,9.6,15.2,14.1,22.9l201.1-133L4010.9,706.1z"/>
					<path class="st3" d="M3597.1,527.4c3.6-8.2,7.5-16.4,11.5-24.3l-152.5-65.7v29.3L3597.1,527.4z"/>
				</g>
			</g>
		</g>
		<path class="st4" d="M3456.1,908.1c-244.1-0.3-441.8-198.3-441.6-442.4S3212,24,3456.1,24.3V908.1z"/>
		<path class="st5" d="M3825.1,828.7c134.6,203.6,78.6,477.7-125,612.3s-477.7,78.6-612.3-125L3825.1,828.7z"/>
		<path class="st6" d="M3597.1,527.4c96.9-224,357.1-327.3,581.1-230.4c224,96.9,327.1,357,230.2,581L3597.1,527.4z"/>
	</g>
	<g>
		<g>
			<path class="st7" d="M2160,169.7c-61.9-107.1-377.3-49.5-803.7,146.8l-7.2,3.3l6.3,4.9c21.5,16.5,41.1,33.9,58.3,51.7l2.3,2.4
				l3-1.3c318-134.1,553.2-169.3,599.1-89.8c55.4,95.9-164.3,336.9-534.3,585.8l-4.7,3.1l10.7,11.5l3.4-2.2
				C1955.6,585,2229.8,290.5,2160,169.7z"/>
			<path class="st7" d="M671.8,1291.2c-239.5,83.5-405,94.4-442.6,29.3c-33.2-57.4,34.2-171.4,184.7-312.9l5.6-5.2l-41.9-15.9
				c-1.9-0.8-35.9-15.4-35.9-15.4l-2.9-1.2l-2.4,2.1C148.4,1144.9,68,1280.4,110,1353.3c49.4,85.6,256.6,68,568.4-48.3l5.8-2.2
				l-9-12.9L671.8,1291.2z"/>
		</g>
		<path class="st8" d="M781.2,144.9c-411,0-745.3,207.6-745.3,462.8c0,255.2,334.3,462.8,745.3,462.8s745.3-207.6,745.3-462.8
			C1526.6,352.5,1192.2,144.9,781.2,144.9z M652.8,789.2c6.9,0,171.2,0,178,0c1.8,6.7,59.6,213.9,62.6,224.5
			c-37.1,4.7-74.8,7.5-112.2,7.5c-63.4,0-126-7-186.4-20.3C597.5,991.4,650.9,795.9,652.8,789.2z M670.7,723.6
			c3-10.9,62.3-227.7,70.2-256.7c8.1,28.9,68.5,245.7,71.6,256.7C801.4,723.6,681.8,723.6,670.7,723.6z M742.2,195.2
			c-3.4,12.5-134.7,488.9-142.4,516.9c-8.1-27.8-131-449.6-133.4-457.8C549.7,219.8,644.8,199.4,742.2,195.2z M808.8,194.9
			c97.9,3,193.7,22.1,277.9,55.6c-2.3,8.2-119.1,432.6-126.9,461.2C951.4,683.1,812.4,207.4,808.8,194.9z M1030.9,723.6
			c3-10.9,61.9-227.6,69.8-256.6c8.1,29,68.5,245.7,71.6,256.6C1161.1,723.6,1042,723.6,1030.9,723.6z M998.3,843.6
			c0.6-2.3,13.1-48.2,14.8-54.4c6.9,0,170.6,0,177.5,0c1.8,6.4,27.2,97.7,29,104c-52.1,37.1-112.9,66.8-180.9,88.5
			C1036,972.5,999,846.1,998.3,843.6z M1337.3,772.7c-5.8-19.8-128-438.2-135.1-462.3c118.2,77.8,186.2,185.3,186.2,297.3
			C1388.4,665,1370.8,720.4,1337.3,772.7z M522,981.2c-98-31.6-181.8-80.2-242.9-141.2c1.3-4.9,12.3-44.8,13.9-50.7
			c6.9,0,169.5,0,176.4,0C471.3,795.8,518.2,967.1,522,981.2z M311,723.6c3-10.9,62.2-227.3,70.2-256.5
			c8,29.2,67.3,245.6,70.3,256.5C440.4,723.6,322.1,723.6,311,723.6z M348.5,318.3c-6.7,24.4-119,431.9-124.6,452.3
			c-32.7-51.7-49.9-106.4-49.9-163C174,498.4,236.2,396.2,348.5,318.3z"/>
	</g>
	<rect x="2560" y="-0.4" class="st9" width="26" height="1510"/>
</g>
</svg>
