<?xml version="1.0" encoding="utf-8"?>
<!-- Generator: Adobe Illustrator 19.1.0, SVG Export Plug-In . SVG Version: 6.00 Build 0)  -->
<svg version="1.1" id="icons" xmlns="http://www.w3.org/2000/svg" xmlns:xlink="http://www.w3.org/1999/xlink" x="0px" y="0px"
	 viewBox="0 0 100 100" enable-background="new 0 0 100 100" xml:space="preserve">
<g>
	<path fill="#5F6062" d="M52.1,70.8c0-2.8,0.6-5.4,1.6-7.8H37c-1.1,0-1.9-0.9-1.9-1.9c0-1.1,0.9-1.9,1.9-1.9h19
		c3.5-4.7,9.2-7.8,15.6-7.8c2.3,0,4.5,0.4,6.6,1.1V21.9c0-2.6-2.1-4.8-4.8-4.8H27.5c-2.6,0-4.8,2.1-4.8,4.8v55.5
		c0,2.6,2.1,4.8,4.8,4.8h28.3C53.5,79,52.1,75.1,52.1,70.8z M37,36.9h24.2c1.1,0,1.9,0.9,1.9,1.9c0,1.1-0.9,1.9-1.9,1.9H37
		c-1.1,0-1.9-0.9-1.9-1.9C35.1,37.8,36,36.9,37,36.9z M37,48H67c1.1,0,1.9,0.9,1.9,1.9c0,1.1-0.9,1.9-1.9,1.9H37
		c-1.1,0-1.9-0.9-1.9-1.9C35.1,48.9,36,48,37,48z"/>
	<path fill="#5F6062" d="M71.6,54.8c-8.9,0-16.1,7.2-16.1,16.1s7.2,16.1,16.1,16.1c8.9,0,16.1-7.2,16.1-16.1S80.5,54.8,71.6,54.8z
		 M78.8,72.2H64.4c-0.8,0-1.4-0.6-1.4-1.4l0,0c0-0.8,0.6-1.4,1.4-1.4h14.4c0.8,0,1.4,0.6,1.4,1.4l0,0C80.2,71.6,79.6,72.2,78.8,72.2
		z"/>
</g>
</svg>
