<?xml version="1.0" encoding="utf-8"?>
<!-- Generator: Adobe Illustrator 19.1.0, SVG Export Plug-In . SVG Version: 6.00 Build 0)  -->
<svg version="1.1" id="icons" xmlns="http://www.w3.org/2000/svg" xmlns:xlink="http://www.w3.org/1999/xlink" x="0px" y="0px"
	 viewBox="0 0 100 100" enable-background="new 0 0 100 100" xml:space="preserve">
<g>
	<path fill="#5F6062" d="M53.6,76c-3.4-5.7-3.2-10.6-2.4-13.6c1-3.7,3.3-6.6,6.3-8.3c-0.7-1.3-1.1-2.7-1.3-4.1
		c0.6-0.7,1.2-1.4,1.7-2.1c3.5,1.1,7.7,1.5,11.3-1.2c-5-5-1-11.2-4.6-22.3c-3.1-9.4-15.5-9-17.2-5.7c-6.6-2.4-11.6,0.8-13.5,10.8
		c-2.1,11.5,2,12.7-3,17.7c3.8,2.2,7.3,1.7,10.3,0.4c0.6,0.8,1.2,1.6,1.9,2.3c-0.6,4-2.7,8-8,9.7c-4.1,1.3-8.8,2.6-11.6,5.4
		c-2.2,2.2-0.7,17.1-0.7,17.1h16.8h18.9C56.5,80.2,54.9,78.1,53.6,76z"/>
	<path fill="#5F6062" d="M70.7,86.8c-32.4-18.3-9-41,0-25.7C79.7,45.7,103.1,68.5,70.7,86.8z"/>
</g>
</svg>
