<?xml version="1.0" encoding="utf-8"?>
<!-- Generator: Adobe Illustrator 19.1.0, SVG Export Plug-In . SVG Version: 6.00 Build 0)  -->
<svg version="1.1" id="icons" xmlns="http://www.w3.org/2000/svg" xmlns:xlink="http://www.w3.org/1999/xlink" x="0px" y="0px"
	 viewBox="0 0 100 100" enable-background="new 0 0 100 100" xml:space="preserve">
<g>
	<path fill="#5F6062" d="M28.1,57.1c-4.1,0-7.4,3.3-7.4,7.4S24,72,28.1,72s7.4-3.3,7.4-7.4S32.2,57.1,28.1,57.1z M28.1,67.5
		c-1.6,0-2.9-1.3-2.9-2.9c0-1.6,1.3-2.9,2.9-2.9c1.6,0,2.9,1.3,2.9,2.9C31,66.2,29.7,67.5,28.1,67.5z"/>
	<g>
		<path fill="#5F6062" d="M86.9,57.1V44.5L85,39.9c-1.2-2.9-4-4.8-7.2-4.8H50.2c-2.1,0-4.2,0.7-5.8,1.9l-8.7,7.5h-13
			c-3.8,0-6.8,3-6.8,6.8v5.8h-0.5c-1.6,0-2.9,1.3-2.9,2.9v2.7c0,1.6,1.3,2.9,2.9,2.9h2.9c0-0.4-0.1-0.7-0.1-1.1
			c0-5.4,4.4-9.9,9.9-9.9s9.9,4.4,9.9,9.9c0,0.4,0,0.7-0.1,1.1h27c0-0.4-0.1-0.7-0.1-1.1c0-5.4,4.4-9.9,9.9-9.9
			c5.4,0,9.9,4.4,9.9,9.9c0,0.4,0,0.7-0.1,1.1h0.4c1.6,0,2.9-1.3,2.9-2.9v-4.6C87.9,57.6,87.4,57.1,86.9,57.1z M62.1,44.5H41.3
			l5.1-4.8c1.1-0.8,2.4-1.3,3.8-1.3h12V44.5z M65.1,44.5v-6.1h12.7c1.8,0,3.4,1.1,4,2.7l1.4,3.4H65.1z"/>
	</g>
	<path fill="#5F6062" d="M74.7,57.1c-4.1,0-7.4,3.3-7.4,7.4s3.3,7.4,7.4,7.4c4.1,0,7.4-3.3,7.4-7.4S78.8,57.1,74.7,57.1z M74.7,67.5
		c-1.6,0-2.9-1.3-2.9-2.9c0-1.6,1.3-2.9,2.9-2.9c1.6,0,2.9,1.3,2.9,2.9C77.7,66.2,76.4,67.5,74.7,67.5z"/>
</g>
</svg>
