<?xml version="1.0" encoding="utf-8"?>
<!-- Generator: Adobe Illustrator 19.1.0, SVG Export Plug-In . SVG Version: 6.00 Build 0)  -->
<svg version="1.1" id="icons" xmlns="http://www.w3.org/2000/svg" xmlns:xlink="http://www.w3.org/1999/xlink" x="0px" y="0px"
	 viewBox="0 0 100 100" enable-background="new 0 0 100 100" xml:space="preserve">
<path fill="#5F6062" d="M78.6,50.1c0-0.1,0-0.2,0-0.3c0-0.2,0-0.4,0-0.7c0-0.3,0-0.7,0-1c0-0.1,0-0.3,0-0.4c-0.2-3.1-0.9-6.1-2.1-9
	c-1.4-3.4-3.5-6.5-6.1-9.1c-2.6-2.6-5.7-4.7-9.1-6.1c-3.5-1.5-7.3-2.2-11.1-2.2c-3.9,0-7.6,0.8-11.1,2.2c-3.4,1.4-6.5,3.5-9.1,6.1
	c-2.6,2.6-4.7,5.7-6.1,9.1c-1.5,3.5-2.2,7.2-2.2,11l-7.8,0c-1.2,0-1.8,1.4-0.9,2.3l11.3,11.3c0.5,0.5,1.4,0.5,1.9,0L37.3,52
	c0.8-0.8,0.2-2.3-0.9-2.3l-7.8,0c0-4.3,1.3-8.4,3.7-11.9c0.1,0,0.1-0.1,0.2-0.1l1.5-1.7c3.8-4.3,9-6.9,14.7-7.3
	c5.7-0.4,11.3,1.5,15.6,5.2c4.3,3.8,6.9,9,7.3,14.7c0,0.3,0,0.5,0,0.8c0,0.1,0,0.2,0,0.3c0,5.8-2.2,11.2-6.3,15.3
	c-4.1,4.1-9.4,6.3-15.2,6.3l-2.2,0c-0.2,0-0.4,0-0.5,0.1c-4.2-0.5-8.1-2.3-11.3-5.1l-1.6-1.4c-0.7-0.6-1.6-1-2.6-0.9
	c-1.9,0.1-3.4,1.8-3.3,3.7c0.1,0.8,0.4,1.6,1,2.2c0.1,0.1,0.1,0.2,0.2,0.3l1.7,1.5c2.9,2.5,6.2,4.4,9.8,5.6
	c3.5,1.2,7.2,1.6,10.9,1.4c3.7-0.3,7.3-1.2,10.6-2.8c3.4-1.7,6.5-4,9-6.9c2.5-2.9,4.4-6.2,5.6-9.8C78.2,56.1,78.6,53.1,78.6,50.1z"
	/>
</svg>
