<?xml version="1.0" encoding="utf-8"?>
<!-- Generator: Adobe Illustrator 19.1.0, SVG Export Plug-In . SVG Version: 6.00 Build 0)  -->
<svg version="1.1" id="icons" xmlns="http://www.w3.org/2000/svg" xmlns:xlink="http://www.w3.org/1999/xlink" x="0px" y="0px"
	 viewBox="0 0 100 100" enable-background="new 0 0 100 100" xml:space="preserve">
<g>
	<path fill="#5F6062" d="M77.9,41.7c-0.5,0.5-1,1-1.7,1.4c-2.3,1.6-5.2,2.5-8.5,2.5c-2.3,0-4.7-0.4-7.3-1.2
		c-0.8,1.1-1.9,2.7-2.7,4.6c-0.7,1.4-2.1,2.3-3.7,2.3c-1.7,0-3.5-0.9-4.4-2.4c-0.8-1.1-0.9-2.5-0.4-3.7c0.7-1.6,1.6-3.2,2.6-4.7
		l-0.4-4.1C50.7,29.7,53,25.3,56,22.3l-4.6-4c-0.9-0.8-2.3-0.8-3.2,0L13.6,48.8c-1,0.9-1.1,2.4-0.2,3.4c0.9,1,2.4,1.1,3.4,0.2
		l2.8-2.5v29.7c0,1.5,1.2,2.7,2.7,2.7h54.9c1.5,0,2.7-1.2,2.7-2.7V49.9l2.9,2.5c0.5,0.4,1,0.6,1.6,0.6c0.7,0,1.4-0.3,1.8-0.8
		c0.9-1,0.8-2.6-0.2-3.4L77.9,41.7z M43,76.5c0,0.7-0.6,1.3-1.3,1.3H30.9c-0.7,0-1.3-0.6-1.3-1.3V50.9c0-0.7,0.6-1.3,1.3-1.3h10.8
		c0.7,0,1.3,0.6,1.3,1.3V76.5z"/>
	<path fill="#5F6062" d="M61.3,22.1c-7.5,4.4-7.1,11.4-6.9,14.1c9.7-11.5,24.3-10.9,24.3-10.9s-20.7,7-26.7,21.2
		c-0.5,1.1,2.3,2.6,2.9,1.2c1.9-3.9,4.4-6.9,4.4-6.9c3.8,1.4,10.4,3.1,15.1-0.2c6.2-4.4,5.6-14,14.5-18.7
		C91,20.8,71.5,16.2,61.3,22.1z"/>
</g>
</svg>
