<?xml version="1.0" encoding="utf-8"?>
<!-- Generator: Adobe Illustrator 19.1.0, SVG Export Plug-In . SVG Version: 6.00 Build 0)  -->
<svg version="1.1" id="icons" xmlns="http://www.w3.org/2000/svg" xmlns:xlink="http://www.w3.org/1999/xlink" x="0px" y="0px"
	 viewBox="0 0 100 100" enable-background="new 0 0 100 100" xml:space="preserve">
<g>
	<path fill="#5F6062" d="M50,49c-1.7,0-3,1.4-3,3v19.5c0,2.7-2.2,4.9-4.9,4.9c-2.7,0-4.9-2.2-4.9-4.9c0-1.7-1.4-3-3-3s-3,1.4-3,3
		c0,6.1,4.9,11,11,11s11-4.9,11-11V52C53.1,50.3,51.7,49,50,49z"/>
	<path fill="#5F6062" d="M53.1,19.9v-1.7c0-1.7-1.4-3-3-3s-3,1.4-3,3v1.7c-14.7,1.4-26.4,12.8-28.4,27.3c2.5-1.8,5.6-2.9,9-2.9
		c4.4,0,8.4,1.8,11.2,4.8c2.8-2.9,6.8-4.8,11.2-4.8c4.4,0,8.4,1.8,11.2,4.8c2.8-2.9,6.8-4.8,11.2-4.8c3.4,0,6.5,1.1,9,2.9
		C79.5,32.7,67.7,21.4,53.1,19.9z"/>
</g>
</svg>
