<?xml version="1.0" encoding="utf-8"?>
<!-- Generator: Adobe Illustrator 19.1.0, SVG Export Plug-In . SVG Version: 6.00 Build 0)  -->
<svg version="1.1" id="icons" xmlns="http://www.w3.org/2000/svg" xmlns:xlink="http://www.w3.org/1999/xlink" x="0px" y="0px"
	 viewBox="0 0 100 100" enable-background="new 0 0 100 100" xml:space="preserve">
<path fill="#5F6062" d="M80.4,20.5H28c-2.4,0-4.4,2-4.4,4.4v0.4h-4.1c-2.6,0-4.7,2.1-4.7,4.7v43.4c0,3.6,2.9,6.6,6.6,6.6h16.9l0,0
	h42.2c2.4,0,4.4-2,4.4-4.4V24.9C84.8,22.4,82.8,20.5,80.4,20.5z M23.3,71.6c0,1.1-0.9,2.1-2.1,2.1h0c-1.1,0-2.1-0.9-2.1-2.1V32.5
	c0-1.1,0.9-2.1,2.1-2.1h0c1.1,0,2.1,0.9,2.1,2.1V71.6z M32.8,37.2c0-1.1,0.9-2.1,2.1-2.1h15.1c1.1,0,2.1,0.9,2.1,2.1v12.9
	c0,1.1-0.9,2.1-2.1,2.1H34.9c-1.1,0-2.1-0.9-2.1-2.1V37.2z M72.4,64.1H34.8c-1.2,0-2.1-0.9-2.1-2.1c0-1.1,0.9-2.1,2.1-2.1h37.6
	c1.2,0,2.1,0.9,2.1,2.1C74.5,63.2,73.6,64.1,72.4,64.1z M72.4,51.7H60.2c-1.1,0-2.1-0.9-2.1-2.1c0-1.1,0.9-2.1,2.1-2.1h12.2
	c1.1,0,2.1,0.9,2.1,2.1C74.5,50.8,73.6,51.7,72.4,51.7z M72.4,39.3H60.2c-1.1,0-2.1-0.9-2.1-2.1c0-1.1,0.9-2.1,2.1-2.1h12.2
	c1.1,0,2.1,0.9,2.1,2.1C74.5,38.4,73.6,39.3,72.4,39.3z"/>
</svg>
