<?xml version="1.0" encoding="utf-8"?>
<!-- Generator: Adobe Illustrator 19.1.0, SVG Export Plug-In . SVG Version: 6.00 Build 0)  -->
<svg version="1.1" xmlns="http://www.w3.org/2000/svg" xmlns:xlink="http://www.w3.org/1999/xlink" x="0px" y="0px"
	 viewBox="0 0 100 100" enable-background="new 0 0 100 100" xml:space="preserve">
<g id="grid" display="none">
</g>
<g id="icons">
	<path fill="#5F6062" d="M70.1,58.5c-3.1,0-6,1.3-8.1,3.3l-22.2-11c0-0.3,0-0.6,0-0.9c0-0.5,0-1-0.1-1.5L62,37.2
		c2.1,2,4.9,3.3,8.1,3.3c6.3,0,11.5-5.1,11.5-11.5s-5.1-11.5-11.5-11.5c-6.3,0-11.5,5.1-11.5,11.5c0,0.3,0,0.6,0,1L36,41.2
		c-2-1.8-4.7-2.9-7.7-2.9c-6.3,0-11.5,5.1-11.5,11.5S22,61.3,28.3,61.3c3.2,0,6-1.3,8.1-3.3l22.2,11c0,0.3,0,0.6,0,1
		c0,6.3,5.1,11.5,11.5,11.5c6.3,0,11.5-5.1,11.5-11.5S76.4,58.5,70.1,58.5z"/>
</g>
</svg>
