<?xml version="1.0" encoding="utf-8"?>
<!-- Generator: Adobe Illustrator 19.1.0, SVG Export Plug-In . SVG Version: 6.00 Build 0)  -->
<svg version="1.1" xmlns="http://www.w3.org/2000/svg" xmlns:xlink="http://www.w3.org/1999/xlink" x="0px" y="0px"
	 viewBox="0 0 100 100" enable-background="new 0 0 100 100" xml:space="preserve">
<g id="grid" display="none">
	<g display="inline">
		
			<line opacity="0.35" fill-rule="evenodd" clip-rule="evenodd" fill="none" stroke="#666666" stroke-width="0.5" x1="87" y1="7.4" x2="87" y2="92.6"/>
		
			<line opacity="0.35" fill-rule="evenodd" clip-rule="evenodd" fill="none" stroke="#666666" stroke-width="0.5" x1="7.4" y1="87" x2="92.6" y2="87"/>
		
			<line opacity="0.35" fill-rule="evenodd" clip-rule="evenodd" fill="none" stroke="#666666" stroke-width="0.5" x1="92.6" y1="7.4" x2="7.4" y2="92.6"/>
		
			<line opacity="0.35" fill-rule="evenodd" clip-rule="evenodd" fill="none" stroke="#666666" stroke-width="0.5" x1="92.6" y1="50" x2="7.4" y2="50"/>
		
			<line opacity="0.35" fill-rule="evenodd" clip-rule="evenodd" fill="none" stroke="#666666" stroke-width="0.5" x1="50" y1="7.4" x2="50" y2="92.6"/>
		
			<line opacity="0.35" fill-rule="evenodd" clip-rule="evenodd" fill="none" stroke="#666666" stroke-width="0.5" x1="92.6" y1="34.2" x2="7.4" y2="34.2"/>
		
			<line opacity="0.35" fill-rule="evenodd" clip-rule="evenodd" fill="none" stroke="#666666" stroke-width="0.5" x1="92.6" y1="65.8" x2="7.4" y2="65.8"/>
		
			<line opacity="0.35" fill-rule="evenodd" clip-rule="evenodd" fill="none" stroke="#666666" stroke-width="0.5" x1="34.2" y1="7.4" x2="34.2" y2="92.6"/>
		
			<line opacity="0.35" fill-rule="evenodd" clip-rule="evenodd" fill="none" stroke="#666666" stroke-width="0.5" x1="65.8" y1="7.4" x2="65.8" y2="92.6"/>
		
			<line opacity="0.35" fill-rule="evenodd" clip-rule="evenodd" fill="none" stroke="#666666" stroke-width="0.5" x1="13" y1="7.4" x2="13" y2="92.6"/>
		
			<line opacity="0.35" fill-rule="evenodd" clip-rule="evenodd" fill="none" stroke="#666666" stroke-width="0.5" x1="7.4" y1="13" x2="92.6" y2="13"/>
		
			<line opacity="0.35" fill-rule="evenodd" clip-rule="evenodd" fill="none" stroke="#666666" stroke-width="0.5" x1="7.4" y1="7.4" x2="92.6" y2="92.6"/>
		
			<rect x="17.8" y="17.8" fill-rule="evenodd" clip-rule="evenodd" fill="none" stroke="#FF0000" stroke-width="0.5" width="64.5" height="64.5"/>
		
			<rect x="22.5" y="13" fill-rule="evenodd" clip-rule="evenodd" fill="none" stroke="#FF0000" stroke-width="0.5" width="55" height="74"/>
		
			<rect x="13" y="22.5" fill-rule="evenodd" clip-rule="evenodd" fill="none" stroke="#FF0000" stroke-width="0.5" width="74" height="55"/>
		
			<rect x="22.5" y="13" fill-rule="evenodd" clip-rule="evenodd" fill="none" stroke="#FF0000" stroke-width="0.5" width="55" height="74"/>
	</g>
</g>
<g id="icons">
	<path fill="#5F6062" d="M72.9,60.7c0.1-0.1,0.1-0.3,0.2-0.4c0-0.1,0-0.1,0.1-0.2c0-0.1,0.1-0.2,0.1-0.3c0-0.1,0.1-0.2,0.1-0.3
		c0-0.1,0-0.1,0.1-0.2c0.1-0.1,0.1-0.3,0.2-0.4c0,0,0,0,0,0c0.4-1.1,0.7-2.2,1-3.3l6.9-1.4c0.5-0.1,0.8-0.5,0.8-1v-5.9
		c0-0.5-0.3-0.9-0.8-1l-6.9-1.4c-0.2-1.1-0.6-2.2-1-3.3c0,0,0,0,0,0c-0.1-0.1-0.1-0.3-0.2-0.4c0-0.1,0-0.1-0.1-0.2
		c0-0.1-0.1-0.2-0.1-0.3c0-0.1-0.1-0.2-0.1-0.3c0-0.1,0-0.1-0.1-0.2C73,40,73,39.9,72.9,39.7c0,0,0,0,0,0c-0.5-1-1-2-1.7-3l3.9-5.9
		c0.3-0.4,0.2-0.9-0.1-1.3l-4.2-4.2c-0.3-0.3-0.9-0.4-1.3-0.1l-5.9,3.9c-1-0.6-2-1.2-3-1.7c0,0,0,0,0,0c-0.1-0.1-0.3-0.1-0.4-0.2
		c-0.1,0-0.1,0-0.2-0.1c-0.1,0-0.2-0.1-0.3-0.1c-0.1,0-0.2-0.1-0.3-0.1c-0.1,0-0.1,0-0.2-0.1c-0.1-0.1-0.3-0.1-0.4-0.2c0,0,0,0,0,0
		c-1.1-0.4-2.2-0.7-3.3-1L54,18.8c-0.1-0.5-0.5-0.8-1-0.8h-5.9c-0.5,0-0.9,0.3-1,0.8l-1.4,6.9c-1.1,0.2-2.2,0.6-3.3,1c0,0,0,0,0,0
		c-0.1,0.1-0.3,0.1-0.4,0.2c-0.1,0-0.1,0-0.2,0.1c-0.1,0-0.2,0.1-0.3,0.1c-0.1,0-0.2,0.1-0.3,0.1c-0.1,0-0.1,0-0.2,0.1
		c-0.1,0.1-0.3,0.1-0.4,0.2c0,0,0,0,0,0c-1,0.5-2,1-3,1.7l-5.9-3.9c-0.4-0.3-0.9-0.2-1.3,0.1l-4.2,4.2c-0.3,0.3-0.4,0.9-0.1,1.3
		l3.9,5.9c-0.6,1-1.2,2-1.7,3c0,0,0,0,0,0c-0.1,0.1-0.1,0.3-0.2,0.4c0,0.1,0,0.1-0.1,0.2c0,0.1-0.1,0.2-0.1,0.3
		c0,0.1-0.1,0.2-0.1,0.3c0,0.1,0,0.1-0.1,0.2c-0.1,0.1-0.1,0.3-0.2,0.4c0,0,0,0,0,0c-0.4,1.1-0.7,2.2-1,3.3l-6.9,1.4
		c-0.5,0.1-0.8,0.5-0.8,1v5.9c0,0.5,0.3,0.9,0.8,1l6.9,1.4c0.2,1.1,0.6,2.2,1,3.3c0,0,0,0,0,0c0.1,0.1,0.1,0.3,0.2,0.4
		c0,0.1,0,0.1,0.1,0.2c0,0.1,0.1,0.2,0.1,0.3c0,0.1,0.1,0.2,0.1,0.3c0,0.1,0,0.1,0.1,0.2c0.1,0.1,0.1,0.3,0.2,0.4c0,0,0,0,0,0
		c0.5,1,1,2,1.7,3L25,69.7c-0.3,0.4-0.2,0.9,0.1,1.3l4.2,4.2c0.3,0.3,0.9,0.4,1.3,0.1l5.9-3.9c1,0.6,2,1.2,3,1.7c0,0,0,0,0,0
		c0.1,0.1,0.3,0.1,0.4,0.2c0.1,0,0.1,0,0.2,0.1c0.1,0,0.2,0.1,0.3,0.1c0.1,0,0.2,0.1,0.3,0.1c0.1,0,0.1,0,0.2,0.1
		c0.1,0.1,0.3,0.1,0.4,0.2c0,0,0,0,0,0c1.1,0.4,2.2,0.7,3.3,1l1.4,6.9c0.1,0.5,0.5,0.8,1,0.8H53c0.5,0,0.9-0.3,1-0.8l1.4-6.9
		c1.1-0.2,2.2-0.6,3.3-1c0,0,0,0,0,0c0.1-0.1,0.3-0.1,0.4-0.2c0.1,0,0.1,0,0.2-0.1c0.1,0,0.2-0.1,0.3-0.1c0.1,0,0.2-0.1,0.3-0.1
		c0.1,0,0.1,0,0.2-0.1c0.1-0.1,0.3-0.1,0.4-0.2c0,0,0,0,0,0c1-0.5,2-1,3-1.7l5.9,3.9c0.4,0.3,0.9,0.2,1.3-0.1l4.2-4.2
		c0.3-0.3,0.4-0.9,0.1-1.3l-3.9-5.9C71.9,62.8,72.4,61.8,72.9,60.7C72.9,60.7,72.9,60.7,72.9,60.7z M62.7,50.2
		c0,6.9-5.6,12.6-12.6,12.6s-12.6-5.6-12.6-12.6s5.6-12.6,12.6-12.6S62.7,43.3,62.7,50.2z"/>
</g>
</svg>
