<?xml version="1.0" encoding="utf-8"?>
<!-- Generator: Adobe Illustrator 19.1.0, SVG Export Plug-In . SVG Version: 6.00 Build 0)  -->
<svg version="1.1" id="icons" xmlns="http://www.w3.org/2000/svg" xmlns:xlink="http://www.w3.org/1999/xlink" x="0px" y="0px"
	 viewBox="0 0 100 100" enable-background="new 0 0 100 100" xml:space="preserve">
<g>
	<g>
		<path fill="#FFFFFF" d="M78.3,24.7H21.7c-2.3,0-4.2,1.9-4.2,4.2v42.3c0,2.3,1.9,4.2,4.2,4.2h56.7c2.3,0,4.2-1.9,4.2-4.2V28.9
			C82.5,26.6,80.7,24.7,78.3,24.7z"/>
		<path fill="#5F6062" d="M78.3,26.5c1.3,0,2.4,1.1,2.4,2.4v42.3c0,1.3-1.1,2.4-2.4,2.4H21.7c-1.3,0-2.4-1.1-2.4-2.4V28.9
			c0-1.3,1.1-2.4,2.4-2.4H78.3 M78.3,24.7H21.7c-2.3,0-4.2,1.9-4.2,4.2v42.3c0,2.3,1.9,4.2,4.2,4.2h56.7c2.3,0,4.2-1.9,4.2-4.2V28.9
			C82.5,26.6,80.7,24.7,78.3,24.7L78.3,24.7z"/>
	</g>
	<g>
		<g>
			<polygon fill="#0767B0" points="45.5,58.7 41,58.7 43.8,41.5 48.3,41.5 			"/>
			<path fill="#0767B0" d="M72.5,58.7h4.1L73,41.5h-3.6c-1.7,0-2.1,1.3-2.1,1.3l-6.7,15.9h4.7l0.9-2.6H72L72.5,58.7z M67.6,52.6
				l2.4-6.4l1.3,6.4H67.6z"/>
			<path fill="#0767B0" d="M61,45.6l0.6-3.7c0,0-2-0.8-4-0.8c-2.2,0-7.5,1-7.5,5.7c0,4.4,6.2,4.5,6.2,6.8c0,2.3-5.6,1.9-7.4,0.4
				L48.3,58c0,0,2,1,5.1,1c3.1,0,7.7-1.6,7.7-5.9c0-4.5-6.3-4.9-6.3-6.8C54.8,44.3,59.1,44.6,61,45.6z"/>
		</g>
		<g>
			<path fill="#0767B0" d="M37.3,41.5L33,53.3l-0.5-2.6l0,0l0,0c0,0-1-3.1-4.1-5.7c-0.7-0.5-1.3-1-2-1.4l3.9,14.9H35l7.1-17.2H37.3z
				"/>
		</g>
		<path fill="#F9A533" d="M32.5,50.8L31,43c0,0-0.2-1.6-2.1-1.6h-7.1l-0.1,0.3c0,0,3.4,0.7,6.7,3.3C31.5,47.6,32.5,50.8,32.5,50.8z"
			/>
	</g>
</g>
</svg>
