<?xml version="1.0" encoding="utf-8"?>
<!-- Generator: Adobe Illustrator 19.1.0, SVG Export Plug-In . SVG Version: 6.00 Build 0)  -->
<svg version="1.1" id="icons" xmlns="http://www.w3.org/2000/svg" xmlns:xlink="http://www.w3.org/1999/xlink" x="0px" y="0px"
	 viewBox="0 0 100 100" enable-background="new 0 0 100 100" xml:space="preserve">
<g id="Layer_3_3_">
	<path fill="#5F6062" d="M49.3,73.6l-5.8,5.8c-3.1,3.1-7.2,4.6-11.3,4.6c-4.1,0-8.1-1.5-11.3-4.6c-3-3-4.7-7-4.7-11.2
		c0-4.2,1.7-8.2,4.7-11.2l12.6-12.5c7.8-7.8,16.8-8.9,22.9-2.8c1.6,1.6,1.6,4.3,0,5.9c-1.6,1.6-4.3,1.6-5.9,0
		c-3.6-3.5-8.5,0.2-11.1,2.9L26.8,63c-1.4,1.4-2.2,3.3-2.2,5.3c0,2,0.8,3.9,2.2,5.3c3,2.9,7.8,2.9,10.7,0l5.8-5.8
		c1.6-1.6,4.3-1.6,5.9,0C50.9,69.4,50.9,72,49.3,73.6z M79.1,44L65.7,57.4c-4.2,4.1-8.5,6.2-12.7,6.2c-3.4,0-6.6-1.4-9.4-4.2
		c-1.6-1.6-1.6-4.3,0-5.9c1.6-1.6,4.3-1.6,5.9,0c1.2,1.2,4.1,4.1,10.2-2l13.4-13.3c1.4-1.4,2.2-3.3,2.2-5.3s-0.8-3.9-2.2-5.3
		c-2.7-2.7-6.8-4-9.9-0.8l-7.1,7.1c-1.6,1.6-4.3,1.6-5.9,0c-1.6-1.6-1.6-4.3,0-5.9l7.1-7.1c6.1-6,15.2-5.7,21.7,0.8
		c3,3,4.7,7,4.7,11.2C83.8,37,82.1,41,79.1,44z"/>
</g>
</svg>
