<?xml version="1.0" encoding="utf-8"?>
<!-- Generator: Adobe Illustrator 19.1.0, SVG Export Plug-In . SVG Version: 6.00 Build 0)  -->
<svg version="1.1" id="icons" xmlns="http://www.w3.org/2000/svg" xmlns:xlink="http://www.w3.org/1999/xlink" x="0px" y="0px"
	 viewBox="0 0 100 100" enable-background="new 0 0 100 100" xml:space="preserve">
<g>
	<path fill="#5F6062" d="M77.8,45.5h-56c-2.5,0-4.5,2-4.5,4.5v0c0,2.5,2,4.5,4.5,4.5h56c2.5,0,4.5-2,4.5-4.5v0
		C82.3,47.5,80.3,45.5,77.8,45.5z"/>
	<path fill="#5F6062" d="M77.8,24.7h-56c-2.5,0-4.5,2-4.5,4.5v0c0,2.5,2,4.5,4.5,4.5h56c2.5,0,4.5-2,4.5-4.5v0
		C82.3,26.7,80.3,24.7,77.8,24.7z"/>
	<path fill="#5F6062" d="M77.8,66.3h-56c-2.5,0-4.5,2-4.5,4.5v0c0,2.5,2,4.5,4.5,4.5h56c2.5,0,4.5-2,4.5-4.5v0
		C82.3,68.3,80.3,66.3,77.8,66.3z"/>
</g>
</svg>
