<?xml version="1.0" encoding="utf-8"?>
<!-- Generator: Adobe Illustrator 19.1.0, SVG Export Plug-In . SVG Version: 6.00 Build 0)  -->
<svg version="1.1" id="icons" xmlns="http://www.w3.org/2000/svg" xmlns:xlink="http://www.w3.org/1999/xlink" x="0px" y="0px"
	 viewBox="0 0 100 100" enable-background="new 0 0 100 100" xml:space="preserve">
<path fill="#5F6062" d="M86.4,52.2c-0.5,0.5-1.2,0.8-1.8,0.8c-0.6,0-1.1-0.2-1.6-0.6l-2.9-2.5v29.7c0,1.5-1.2,2.7-2.7,2.7H22.5
	c-1.5,0-2.7-1.2-2.7-2.7V50l-2.8,2.5c-1,0.9-2.6,0.8-3.4-0.2c-0.9-1-0.8-2.6,0.2-3.4l34.6-30.5c0.9-0.8,2.3-0.8,3.2,0l15.3,13.4
	v-8.4c0-0.7,0.6-1.3,1.3-1.3h6.2c0.7,0,1.3,0.6,1.3,1.3v16.2l10.4,9.2C87.2,49.7,87.3,51.2,86.4,52.2z M70.3,65.6V50.3
	c0-0.4-0.3-0.7-0.7-0.7H54c-0.4,0-0.7,0.3-0.7,0.7v15.3c0,0.4,0.3,0.7,0.7,0.7h15.6C70,66.3,70.3,65.9,70.3,65.6z M42.5,49.6h-12
	c-0.4,0-0.7,0.3-0.7,0.7v26.8c0,0.4,0.3,0.7,0.7,0.7h12c0.4,0,0.7-0.3,0.7-0.7V50.3C43.2,49.9,42.9,49.6,42.5,49.6z"/>
</svg>
