<?xml version="1.0" encoding="utf-8"?>
<!-- Generator: Adobe Illustrator 19.1.0, SVG Export Plug-In . SVG Version: 6.00 Build 0)  -->
<svg version="1.1" id="icons" xmlns="http://www.w3.org/2000/svg" xmlns:xlink="http://www.w3.org/1999/xlink" x="0px" y="0px"
	 viewBox="0 0 100 100" enable-background="new 0 0 100 100" xml:space="preserve">
<path fill="#5F6062" d="M76.4,65c-2.8-2.8-7.5-4.1-11.5-5.4c0,0,0,0,0,0c-0.1,0-0.1,0-0.2-0.1c-5.4-1.7-7.5-5.8-8.1-9.8
	c0.6-0.7,1.2-1.4,1.7-2.2c3.6,1.1,7.8,1.5,11.5-1.2c-5-5.1-1-11.3-4.6-22.5c-3.1-9.5-15.7-9.1-17.4-5.7C41.1,15.7,36,18.9,34.2,29
	c-2.1,11.6,2,12.8-3,17.9c3.9,2.2,7.4,1.7,10.5,0.5c0.6,0.8,1.2,1.6,1.9,2.4c-0.6,4-2.7,8.1-8.1,9.8c-4.1,1.3-8.9,2.6-11.8,5.5
	c-2.2,2.3-0.8,17.3-0.8,17.3h17h20.3h17C77.2,82.3,78.7,67.3,76.4,65z"/>
</svg>
