<?xml version="1.0" encoding="utf-8"?>
<!-- Generator: Adobe Illustrator 19.1.0, SVG Export Plug-In . SVG Version: 6.00 Build 0)  -->
<svg version="1.1" id="icons" xmlns="http://www.w3.org/2000/svg" xmlns:xlink="http://www.w3.org/1999/xlink" x="0px" y="0px"
	 viewBox="0 0 100 100" enable-background="new 0 0 100 100" xml:space="preserve">
<g>
	<path fill="#5F6062" d="M51.8,71c0-2.8,0.6-5.4,1.6-7.8H36.7c-1.1,0-1.9-0.9-1.9-1.9c0-1.1,0.9-1.9,1.9-1.9h18.9
		c3.5-4.7,9.2-7.8,15.5-7.8c2.3,0,4.5,0.4,6.6,1.1V22.2c0-2.6-2.1-4.8-4.8-4.8H27.2c-2.6,0-4.8,2.1-4.8,4.8v55.3
		c0,2.6,2.1,4.8,4.8,4.8h28.3C53.1,79.1,51.8,75.2,51.8,71z M36.7,37.1h24.1c1.1,0,1.9,0.9,1.9,1.9c0,1.1-0.9,1.9-1.9,1.9H36.7
		c-1.1,0-1.9-0.9-1.9-1.9C34.8,38,35.6,37.1,36.7,37.1z M36.7,48.2h29.8c1.1,0,1.9,0.9,1.9,1.9c0,1.1-0.9,1.9-1.9,1.9H36.7
		c-1.1,0-1.9-0.9-1.9-1.9C34.8,49,35.6,48.2,36.7,48.2z"/>
	<path fill="#5F6062" d="M71.1,54.9c-8.9,0-16,7.2-16,16c0,8.9,7.2,16,16,16c8.9,0,16-7.2,16-16C87.2,62.1,80,54.9,71.1,54.9z
		 M77.9,78.1L77.9,78.1c-0.5,0.5-1.4,0.5-2,0l-6.2-6.2h0v-12c0-0.8,0.6-1.4,1.4-1.4l0,0c0.8,0,1.4,0.6,1.4,1.4v10.8l5.3,5.3
		C78.5,76.6,78.5,77.5,77.9,78.1z"/>
</g>
</svg>
