<?xml version="1.0" encoding="utf-8"?>
<!-- Generator: Adobe Illustrator 19.1.0, SVG Export Plug-In . SVG Version: 6.00 Build 0)  -->
<svg version="1.1" id="icons" xmlns="http://www.w3.org/2000/svg" xmlns:xlink="http://www.w3.org/1999/xlink" x="0px" y="0px"
	 width="100px" height="100px" viewBox="-345 563 100 100" style="enable-background:new -345 563 100 100;" xml:space="preserve">
<style type="text/css">
	.st0{fill:#333;}
</style>
<path class="st0" d="M-264.2,581.7L-264.2,581.7c-1.9-1.9-4.9-1.9-6.8,0l-24.5,24.5l-24.5-24.5c-1.9-1.9-4.9-1.9-6.8,0l0,0
	c-1.9,1.9-1.9,4.9,0,6.8l24.5,24.5l-24.5,24.5c-1.9,1.9-1.9,4.9,0,6.8l0,0c1.9,1.9,4.9,1.9,6.8,0l24.5-24.5l24.5,24.5
	c1.9,1.9,4.9,1.9,6.8,0l0,0c1.9-1.9,1.9-4.9,0-6.8l-24.5-24.5l24.5-24.5C-262.3,586.6-262.3,583.6-264.2,581.7z"/>
</svg>
