<?xml version="1.0" encoding="utf-8"?>
<!-- Generator: Adobe Illustrator 19.1.0, SVG Export Plug-In . SVG Version: 6.00 Build 0)  -->
<svg version="1.1" id="icons" xmlns="http://www.w3.org/2000/svg" xmlns:xlink="http://www.w3.org/1999/xlink" x="0px" y="0px"
	 viewBox="0 0 100 100" enable-background="new 0 0 100 100" xml:space="preserve">
<g>
	<path fill="#5F6062" d="M27.1,40c0-0.2-1-3.6-1.1-4.1c-0.1,0.5-1,3.9-1.1,4.1C25.1,40,27,40,27.1,40z"/>
	<path fill="#5F6062" d="M22.8,38.2c0,0.9,0.3,1.8,0.8,2.6c0.1-0.3,1.8-6.8,1.9-7.2C23.8,34.8,22.8,36.4,22.8,38.2z"/>
	<path fill="#5F6062" d="M30.5,40c0.2,0,2,0,2.2,0c0-0.2-1-3.6-1.1-4.1C31.5,36.4,30.6,39.9,30.5,40z"/>
	<path fill="#5F6062" d="M38.3,40c0-0.2-1-3.6-1.1-4.1c-0.1,0.5-1,3.9-1.1,4.1C36.3,40,38.1,40,38.3,40z"/>
	<path fill="#5F6062" d="M31.6,31.6c-1.5,0.1-3,0.4-4.3,0.9c0,0.1,1.9,6.8,2.1,7.3C29.6,39.4,31.6,31.8,31.6,31.6z"/>
	<path fill="#5F6062" d="M79.8,23.5H20.2c-2.4,0-4.4,2-4.4,4.4v44.5c0,2.4,2,4.4,4.4,4.4h59.7c2.4,0,4.4-2,4.4-4.4V27.9
		C84.2,25.5,82.3,23.5,79.8,23.5z M43.3,42.6L43.3,42.6l-0.2-0.1l0.1-0.1c5.7-4,9.1-7.8,8.3-9.3c-0.7-1.3-4.3-0.7-9.2,1.4
		c1,1.1,1.6,2.4,1.6,3.7c0,4.1-5.2,7.4-11.6,7.4c-2.1,0-4-0.4-5.7-1c-2.3,2.2-3.3,4-2.8,5c0.6,1,3.1,0.9,6.9-0.5l0.1,0l0.1,0.2
		l-0.1,0c-4.8,1.8-8,2.1-8.8,0.8c-0.6-1.2,0.6-3.3,3.4-6c-2.8-1.3-4.6-3.5-4.6-5.9c0-4.1,5.2-7.4,11.6-7.4c3.6,0,6.8,1.1,8.9,2.7
		c6.6-3.1,11.5-4,12.4-2.3C54.7,33.1,50.4,37.8,43.3,42.6z M74.5,66.4H56.1c-1.1,0-2.1-0.9-2.1-2.1c0-1.1,0.9-2.1,2.1-2.1h18.3
		c1.1,0,2.1,0.9,2.1,2.1C76.5,65.5,75.6,66.4,74.5,66.4z M74.5,56.8H56.1c-1.1,0-2.1-0.9-2.1-2.1c0-1.1,0.9-2.1,2.1-2.1h18.3
		c1.1,0,2.1,0.9,2.1,2.1C76.5,55.9,75.6,56.8,74.5,56.8z"/>
	<path fill="#5F6062" d="M38.8,33.4c0.1,0.4,2,7,2.1,7.4c0.5-0.8,0.8-1.7,0.8-2.6C41.7,36.4,40.6,34.7,38.8,33.4z"/>
	<path fill="#5F6062" d="M35.8,41.1c0,0.1-0.2,0.8-0.2,0.9c0,0,0.6,2.1,0.6,2.2c1.1-0.3,2-0.8,2.8-1.4c0-0.1-0.4-1.6-0.4-1.7
		C38.5,41.1,35.9,41.1,35.8,41.1z"/>
	<path fill="#5F6062" d="M24.7,41.1c0,0.1-0.2,0.7-0.2,0.8c0.9,1,2.2,1.7,3.8,2.2c-0.1-0.2-0.8-3-0.8-3.1
		C27.3,41.1,24.8,41.1,24.7,41.1z"/>
	<path fill="#5F6062" d="M30.3,41.1c0,0.1-0.9,3.2-0.9,3.4c0.9,0.2,1.9,0.3,2.9,0.3c0.6,0,1.2,0,1.7-0.1c0-0.2-0.9-3.5-1-3.6
		C32.9,41.1,30.4,41.1,30.3,41.1z"/>
	<path fill="#5F6062" d="M32.7,31.6c0.1,0.2,2.2,7.8,2.3,8.2c0.1-0.5,1.9-7.2,2-7.3C35.7,32,34.2,31.7,32.7,31.6z"/>
</g>
</svg>
