<?xml version="1.0" encoding="utf-8"?>
<!-- Generator: Adobe Illustrator 19.1.0, SVG Export Plug-In . SVG Version: 6.00 Build 0)  -->
<svg version="1.1" id="icons" xmlns="http://www.w3.org/2000/svg" xmlns:xlink="http://www.w3.org/1999/xlink" x="0px" y="0px"
	 viewBox="0 0 100 100" enable-background="new 0 0 100 100" xml:space="preserve">
<path id="path-1_17_" fill="#5F6062" d="M81.6,48.3c-0.7,0.5-1.4,1-1.7,1.2c-0.7,0.5-0.9,1.5-0.7,2.1c0.1,0.2,0.2,0.4,0.3,0.5
	c0.5,0.3-2.3,0.4-3.8,1.6c-0.4,0.3-0.7,0.7-0.8,1.3c-0.5,2.5-1.8,0.3-2.1,2.1c0,0,0,0.1,0,0.1c-0.1,0.8-0.2,1.5-0.3,2
	c-0.1,0.8,0,1.2,0.7,1.5c0.4,0.2-0.1,0.9-1.1,1.9c-0.7,0.7-1.5,1.4-2.3,2.1c-1.3,1.1-2.5,2-2.9,2.3c-0.2,0.2-0.4,0.6-0.4,1.1
	c-0.1,0.6-0.1,1.4,0,2.1c0.1,1.1,0.4,2.1,0.8,2.4c0.2,0.2,0.3,0.5,0.4,0.9c0.1,0.6,0.1,1.4,0.1,2.1c-0.1,0.9-0.2,1.8-0.4,1.9
	c-0.2,0.2-1.4-0.9-2-1.9c-0.2-0.4-0.4-0.7-0.3-0.9c0-0.3,0-0.7-0.1-1.1c-0.1-0.6-0.3-1.2-0.4-1.7c-0.2-0.8-2.3-1.1-2.4-0.4
	c-0.1,0.4-0.8-0.6-1.5-1.2c-0.4-0.3-0.8-0.5-1.2-0.3c-0.2,0.1-0.3,0.2-0.5,0.3c-0.8,0.5-1.5,1-1.5,1.6c0,0.7-4.4-1.3-5-1.2
	c-0.7,0.1-4.3,1.2-4.4,2.4c0,0.2,0,0.4,0,0.6c0,0.7-0.1,1.5-0.1,2.1c0,0.5,0,0.9,0,0.9s-0.8-0.3-1.7-0.9c-0.7-0.5-1.4-1.2-1.9-2.1
	c-0.1-0.3-0.3-0.5-0.3-0.8c-0.4-1.5-1.1-2.2-1.7-2.5c-0.4-0.2-0.7-0.2-0.9,0c0,0-0.1,0.1-0.1,0.1c-0.3,0.7-0.9,1.5-0.9,1.5
	S40,71,39.4,70.1c-0.3-0.4-0.5-0.8-0.6-1.3c-0.1-0.4-0.5-0.6-0.9-0.8c-1.3-0.4-3.4-0.1-4.3,0h-0.8c-1.5-0.2-4.4-0.9-5-1.6
	c-0.8-0.9-2-0.4-2.6-0.3c-0.4,0.1-1.1-0.7-1.7-1.4c-0.5-0.5-0.9-1.1-1.2-1.4c-0.2-0.2-0.4-0.4-0.7-0.7c-1-0.9-2.5-2.1-2.4-3.4
	c0,0,0,0,0-0.1c0.1-1-0.7-1.5-1.3-2c-0.3-0.3-0.6-0.6-0.6-1V45.3c0-0.6-0.8-1.6-1.1-2.3c-0.1-0.3,0-0.6,0-0.7
	c0.2-0.5,1.2,0.3,1.7,0.7c0.1,0.1,0.2,0.1,0.2,0.1c0.1,0,0.1,0,0.1-0.1c0.1-0.1,0.1-0.4,0.2-0.6c0-0.1,0-0.1,0-0.2
	c0.1-0.6,0.2-1.3,0.2-1.3h31.9c0,0,2.5,1,4.4,1.4c2.8,8.8,10.5,16.1,10.5,16.1c0.2,0.2,0.4,0.3,0.5,0.4h0l0.3,0.1l0.3-0.1h0
	c0.2-0.1,0.4-0.2,0.5-0.4c0,0,5-4.3,8.4-11.1c1.6,0,2.8-0.1,3-0.2c0.6-0.1,0.9-0.6,1-0.8c0.1-0.1,0.1-0.2,0.1-0.2s3.7-0.3,4.2,0.2
	c0,0,0,0,0,0C83.8,46.6,82.7,47.5,81.6,48.3z M66.9,53.8c-0.2,0.2-0.3,0.3-0.5,0.4h0l-0.3,0.1l-0.3-0.1h0c-0.2-0.1-0.3-0.2-0.5-0.4
	c0,0-9.1-10-10-18.7c-0.1-0.5-0.1-0.9-0.1-1.4c0-6.2,4.8-11.1,10.8-11.1c6,0,10.8,5,10.8,11.1c0,0.5,0,0.9-0.1,1.4
	C75.9,43.8,66.9,53.8,66.9,53.8z M66.1,26.5c-3.8,0-6.9,3.2-6.9,7.2c0,4,3.1,7.2,6.9,7.2c3.8,0,6.9-3.2,6.9-7.2
	C73,29.7,69.9,26.5,66.1,26.5z"/>
</svg>
