<?xml version="1.0" encoding="utf-8"?>
<!-- Generator: Adobe Illustrator 19.1.0, SVG Export Plug-In . SVG Version: 6.00 Build 0)  -->
<svg version="1.1" id="icons" xmlns="http://www.w3.org/2000/svg" xmlns:xlink="http://www.w3.org/1999/xlink" x="0px" y="0px"
	 viewBox="0 0 100 100" enable-background="new 0 0 100 100" xml:space="preserve">
<g>
	<path fill="#5F6062" d="M85.8,39.9C85.8,39.9,85.8,39.9,85.8,39.9c-0.6-0.6-4.4-0.2-4.4-0.2s0,0.1-0.1,0.2
		c-0.1,0.3-0.4,0.7-1.1,0.8C79.3,41,66.3,41.2,66,40.3c-0.1-0.2-0.2-0.3-0.3-0.4c-0.6-0.5-1.9-0.3-1.9-0.3s-0.1,0.1-0.3,0.3
		c-0.4,0.4-1,1.1-1.6,1.3c-0.6,0.2-0.8-0.6-0.7-1.3c0-0.2,0.1-0.4,0.1-0.5c0.2-0.5-1.4-2.1-2.6-3c-0.5-0.4-1-0.6-1.4-0.5
		c-1,0.3-6.4-1.7-6.4-1.7H32.4H18c0,0-0.1,0.7-0.2,1.4c0,0.1,0,0.1,0,0.2c-0.1,0.3-0.1,0.5-0.2,0.6c0,0.1-0.1,0.1-0.2,0.1
		c0,0-0.1-0.1-0.2-0.1c-0.5-0.3-1.5-1.2-1.7-0.7c-0.1,0.2,0,0.4,0.1,0.7c0.3,0.8,1,1.8,1,2.5c0,0.1,0,0.5,0,1c0,0.6,0,1.3,0,2.2
		c0,1.1,0,2.3,0,3.5c0,0.8,0,1.5,0,2.2c0,1.2,0,2.1,0,2.4c0,0.4,0.3,0.8,0.6,1.1c0.7,0.5,1.5,1,1.4,2.1c0,0,0,0,0,0.1
		c-0.1,1.3,1.4,2.6,2.5,3.5c0.3,0.3,0.6,0.5,0.8,0.7c0.3,0.3,0.8,0.9,1.3,1.5c0.7,0.8,1.4,1.5,1.8,1.5c0.7-0.1,1.9-0.6,2.7,0.3
		c0.7,0.8,3.7,1.5,5.2,1.7h0.9c0.9-0.1,3.1-0.4,4.4,0c0.5,0.2,0.8,0.4,1,0.8c0.1,0.5,0.4,0.9,0.7,1.3c0.7,1,1.5,1.7,1.5,1.7
		s0.6-0.9,0.9-1.6c0-0.1,0.1-0.1,0.1-0.1c0.2-0.2,0.5-0.2,0.9,0c0.6,0.3,1.3,1.1,1.7,2.6c0.1,0.3,0.2,0.6,0.4,0.9
		c0.5,0.9,1.3,1.7,2,2.2c0.9,0.6,1.7,1,1.7,1s0-0.4,0-1c0-0.6,0-1.5,0.1-2.2c0-0.2,0-0.4,0-0.6c0.1-1.3,3.9-2.4,4.6-2.5
		c0.7-0.1,5.2,1.9,5.2,1.3c0-0.6,0.7-1.1,1.6-1.6c0.2-0.1,0.3-0.2,0.5-0.3c0.4-0.2,0.8,0,1.2,0.3c0.8,0.6,1.5,1.7,1.6,1.3
		c0.1-0.7,2.3-0.3,2.5,0.5c0.1,0.5,0.3,1.1,0.4,1.8c0.1,0.4,0.1,0.9,0.1,1.2c0,0.2,0.1,0.6,0.4,1c0.6,1,1.8,2.2,2,2
		c0.2-0.1,0.3-1,0.4-2c0.1-0.7,0-1.5-0.1-2.2c-0.1-0.4-0.2-0.8-0.4-1c-0.4-0.4-0.7-1.4-0.9-2.5c-0.1-0.8-0.1-1.5,0-2.2
		c0.1-0.5,0.2-0.9,0.4-1.1c0.4-0.3,1.6-1.3,3-2.4c0.8-0.7,1.7-1.5,2.4-2.2c1-1,1.6-1.8,1.1-1.9c-0.7-0.3-0.8-0.8-0.8-1.6
		c0.1-0.6,0.2-1.2,0.3-2.1c0,0,0-0.1,0-0.1c0.3-1.9,1.6,0.4,2.2-2.2c0.1-0.5,0.4-1,0.8-1.3c1.5-1.3,4.5-1.3,4-1.7
		c-0.2-0.1-0.3-0.3-0.4-0.5c-0.2-0.7,0-1.7,0.7-2.2c0.4-0.3,1.1-0.7,1.8-1.3C85,41.2,86.1,40.3,85.8,39.9z"/>
</g>
</svg>
