<?xml version="1.0" encoding="utf-8"?>
<!-- Generator: Adobe Illustrator 19.1.0, SVG Export Plug-In . SVG Version: 6.00 Build 0)  -->
<svg version="1.1" id="Layer_1" xmlns="http://www.w3.org/2000/svg" xmlns:xlink="http://www.w3.org/1999/xlink" x="0px" y="0px"
	 width="100px" height="100px" viewBox="0 0 100 100" enable-background="new 0 0 100 100" xml:space="preserve">
<g>
	<path id="path-1_2_" fill="#010101" d="M70.9,83.1h-40c-1.9,0-3.5-1.6-3.5-3.5V42.9c0-1.9,1.6-3.5,3.5-3.5h40
		c1.9,0,3.5,1.6,3.5,3.5v36.7C74.5,81.6,72.9,83.1,70.9,83.1z M56.8,53.8c-1.2-2.1-3.4-3.5-6-3.5c-2.5,0-4.7,1.4-5.8,3.5
		c-0.5,0.9-0.8,2-0.8,3.2c0,2.8,1.6,5.2,4,6.2v7.8c0,1,0.8,1.8,1.8,1.8H52c1,0,1.8-0.8,1.8-1.8v-7.8c2.3-1.1,4-3.4,4-6.1
		C57.7,55.9,57.4,54.8,56.8,53.8z M61.7,35c0-5.9-4.8-10.7-10.7-10.7h-0.3c-5.9,0-10.7,4.8-10.7,10.7v0h-5.6v0
		c0-4.3,1.7-8.4,4.8-11.5c3.1-3.1,7.2-4.8,11.5-4.8H51c4.4,0,8.5,1.7,11.5,4.8c3.1,3.1,4.8,7.2,4.8,11.5v0v0L61.7,35L61.7,35z"/>
</g>
</svg>
