<?xml version="1.0" encoding="utf-8"?>
<!-- Generator: Adobe Illustrator 19.1.0, SVG Export Plug-In . SVG Version: 6.00 Build 0)  -->
<svg version="1.1" id="icons" xmlns="http://www.w3.org/2000/svg" xmlns:xlink="http://www.w3.org/1999/xlink" x="0px" y="0px"
	 viewBox="0 0 100 100" enable-background="new 0 0 100 100" xml:space="preserve">
<path fill="#5F6062" d="M58,48l-0.1,0l-3.8-1.1V26.8c1.9,0.5,3.6,1.4,5.1,2.5c2.2,1.8,3.4,4,3.4,6.4c0,2.3,1.8,4.1,4.1,4.1
	c2.3,0,4.1-1.8,4.1-4.1c0-2.5-0.6-4.9-1.8-7.2c-1.1-2.1-2.6-4-4.6-5.6c-2.9-2.3-6.4-3.9-10.2-4.6v-2.1c0-2.3-1.8-4.1-4.1-4.1
	c-2.3,0-4.1,1.8-4.1,4.1v2.1c-3.8,0.7-7.4,2.2-10.2,4.6c-2,1.6-3.5,3.5-4.6,5.6c-1.2,2.3-1.8,4.7-1.8,7.2c0,7.2,5,13.6,12.7,16.3
	l0.1,0l3.8,1.1v20.2c-1.9-0.5-3.6-1.4-5.1-2.5c-2.2-1.8-3.4-4-3.4-6.4c0-2.3-1.8-4.1-4.1-4.1s-4.1,1.8-4.1,4.1
	c0,2.5,0.6,4.9,1.8,7.2c1.1,2.1,2.6,4,4.6,5.6c2.9,2.3,6.4,3.9,10.2,4.6v2.1c0,2.3,1.8,4.1,4.1,4.1c2.3,0,4.1-1.8,4.1-4.1v-2.1
	c3.8-0.7,7.4-2.2,10.2-4.6c2-1.6,3.5-3.5,4.6-5.6c1.2-2.3,1.8-4.7,1.8-7.2C70.7,57.2,65.7,50.8,58,48z M44.6,44.3
	c-4.3-1.6-7.1-4.9-7.1-8.5c0-2.4,1.2-4.7,3.4-6.4c1.4-1.2,3.2-2,5.1-2.5v17.8L44.6,44.3z M59.2,70.8c-1.4,1.2-3.2,2-5.1,2.5V55.5
	l1.3,0.4c4.3,1.6,7.1,4.9,7.1,8.5C62.5,66.7,61.3,69,59.2,70.8z"/>
</svg>
