<?xml version="1.0" encoding="utf-8"?>
<!-- Generator: Adobe Illustrator 19.1.0, SVG Export Plug-In . SVG Version: 6.00 Build 0)  -->
<svg version="1.1" id="icons" xmlns="http://www.w3.org/2000/svg" xmlns:xlink="http://www.w3.org/1999/xlink" x="0px" y="0px"
	 viewBox="0 0 100 100" enable-background="new 0 0 100 100" xml:space="preserve">
<g>
	<path fill="#5F6062" d="M73.2,47.9L73.2,47.9c-2.2,0-4,1.8-4,4v19.1c0,1.9-1.5,3.4-3.4,3.4H29.1c-1.9,0-3.4-1.5-3.4-3.4V34.2
		c0-1.9,1.5-3.4,3.4-3.4h19.1c2.2,0,4-1.8,4-4v0c0-2.2-1.8-4-4-4H21.1c-1.9,0-3.4,1.5-3.4,3.4v52.6c0,1.9,1.5,3.4,3.4,3.4h52.6
		c1.9,0,3.4-1.5,3.4-3.4v-27C77.2,49.7,75.4,47.9,73.2,47.9z"/>
	<path fill="#5F6062" d="M83.7,14.4l-21.7,0c-2.3,0-4.2,1.9-4.2,4.2v0c0,2.3,1.9,4.2,4.2,4.2l9.3,0L51.6,42.5
		c-1.6,1.6-1.6,4.3,0,5.9l0,0c1.6,1.6,4.3,1.6,5.9,0l19.6-19.6v9.3c0,2.3,1.9,4.2,4.2,4.2h0c2.3,0,4.2-1.9,4.2-4.2V16.3
		C85.6,15.3,84.7,14.4,83.7,14.4z"/>
</g>
</svg>
