<?xml version="1.0" encoding="utf-8"?>
<!-- Generator: Adobe Illustrator 19.1.0, SVG Export Plug-In . SVG Version: 6.00 Build 0)  -->
<svg version="1.1" id="icons" xmlns="http://www.w3.org/2000/svg" xmlns:xlink="http://www.w3.org/1999/xlink" x="0px" y="0px"
	 viewBox="0 0 100 100" enable-background="new 0 0 100 100" xml:space="preserve">
<g>
	<g>
		<path fill="#5F6062" d="M72.1,15.2H29.7c-2.2,0-4,1.8-4,4v59.7c0,2.2,1.8,4,4,4h42.4c2.2,0,4-1.8,4-4V19.2
			C76.2,17,74.3,15.2,72.1,15.2z M51,79.9c-1.4,0-2.6-1.2-2.6-2.6s1.2-2.6,2.6-2.6s2.6,1.2,2.6,2.6S52.5,79.9,51,79.9z M69.6,70
			c0,0.9-0.7,1.6-1.6,1.6H33.8c-0.9,0-1.6-0.7-1.6-1.6V23.3c0-0.9,0.7-1.6,1.6-1.6H68c0.9,0,1.6,0.7,1.6,1.6V70z"/>
	</g>
</g>
</svg>
