<?xml version="1.0" encoding="utf-8"?>
<!-- Generator: Adobe Illustrator 19.1.0, SVG Export Plug-In . SVG Version: 6.00 Build 0)  -->
<svg version="1.1" id="icons" xmlns="http://www.w3.org/2000/svg" xmlns:xlink="http://www.w3.org/1999/xlink" x="0px" y="0px"
	 viewBox="0 0 100 100" enable-background="new 0 0 100 100" xml:space="preserve">
<g>
	<path fill="#5F6062" d="M86.9,48.9l-6.4-5.7c-1.2,2-2.7,3.7-4.6,5.1l-1.7,1.1c-2.4,1.3-5.2,2.1-8.1,2.1c-3.3,0-6.3-1-8.9-2.6
		l-0.6-0.4c-4.3-3-7.2-8-7.2-13.7c0,0,0-0.1,0-0.1c0,0,0-0.1,0-0.1c0-0.3,0-0.5,0-0.8c0-4.6,1.9-9.3,5.3-13.3l-3-2.6
		c-0.9-0.8-2.3-0.8-3.3,0L13.4,48.9c-1,0.9-1.1,2.5-0.2,3.5c0.9,1,2.5,1.1,3.5,0.2l2.9-2.5v30.1c0,1.5,1.2,2.7,2.7,2.7H78
		c1.5,0,2.7-1.2,2.7-2.7V50l2.9,2.6c0.5,0.4,1.1,0.6,1.6,0.6c0.7,0,1.4-0.3,1.9-0.8C88,51.3,87.9,49.8,86.9,48.9z M43.3,77
		c0,0.7-0.6,1.3-1.3,1.3H31c-0.7,0-1.3-0.6-1.3-1.3V51.1c0-0.7,0.6-1.3,1.3-1.3h10.9c0.7,0,1.3,0.6,1.3,1.3V77z"/>
	<path fill="#5F6062" d="M56.8,44.5c0.3-0.4,0.6-0.7,0.9-1.1c5.5-5.9,6.5-15.4,6.5-15.4c5.4,4.1,5.4,11.9,5.4,11.3
		c0-0.6,4.6-8.6,4.4-6.8c-0.2,1.6-1.6,5.1,1.4,11.9c2.6-2.5,4.3-6,4.3-9.9c0-0.8-0.1-1.7-0.2-2.5c-0.3-1.7-1-3.7-2.3-5.8
		c-5.2-9-3.3-11.4-3.1-13.3c0.2-1.8-4.4,4.2-4.4,4.8c0,0.6,0-5.2-5.4-9.3c0,0-1,7.5-6.5,13.4c-3.3,3.5-5.2,7.7-5.2,12
		c0,0.2,0,0.5,0,0.7C52.6,38.5,54.2,42,56.8,44.5z"/>
</g>
</svg>
