<?xml version="1.0" encoding="utf-8"?>
<!-- Generator: Adobe Illustrator 19.1.0, SVG Export Plug-In . SVG Version: 6.00 Build 0)  -->
<svg version="1.1" id="icons" xmlns="http://www.w3.org/2000/svg" xmlns:xlink="http://www.w3.org/1999/xlink" x="0px" y="0px"
	 viewBox="0 0 100 100" enable-background="new 0 0 100 100" xml:space="preserve">
<g>
	<g>
		<g>
			<path fill="#00529A" d="M81.6,32c-1.9-3.3-11.5-1.5-24.5,4.5l-0.2,0.1l0.2,0.1c0.7,0.5,1.3,1,1.8,1.6l0.1,0.1l0.1,0
				c9.7-4.1,16.9-5.2,18.3-2.7c1.7,2.9-5,10.3-16.3,17.9l-0.1,0.1l0.3,0.3l0.1-0.1C75.4,44.6,83.7,35.6,81.6,32z"/>
			<path fill="#00529A" d="M36.2,66.1C28.9,68.7,23.9,69,22.8,67c-1-1.7,1-5.2,5.6-9.5l0.2-0.2l-1.3-0.5c-0.1,0-1.1-0.5-1.1-0.5
				l-0.1,0L26,56.4c-5.7,5.3-8.2,9.4-6.9,11.6c1.5,2.6,7.8,2.1,17.3-1.5l0.2-0.1l-0.3-0.4L36.2,66.1z"/>
		</g>
		<path fill="#ED1C2E" d="M39.6,31.2c-12.5,0-22.7,6.3-22.7,14.1c0,7.8,10.2,14.1,22.7,14.1c12.5,0,22.7-6.3,22.7-14.1
			C62.3,37.5,52.1,31.2,39.6,31.2z M35.7,50.8c0.2,0,5.2,0,5.4,0c0.1,0.2,1.8,6.5,1.9,6.8c-1.1,0.1-2.3,0.2-3.4,0.2
			c-1.9,0-3.8-0.2-5.7-0.6C34,57,35.6,51,35.7,50.8z M36.2,48.8c0.1-0.3,1.9-6.9,2.1-7.8c0.2,0.9,2.1,7.5,2.2,7.8
			C40.2,48.8,36.5,48.8,36.2,48.8z M38.4,32.7c-0.1,0.4-4.1,14.9-4.3,15.8c-0.2-0.8-4-13.7-4.1-14C32.5,33.5,35.4,32.9,38.4,32.7z
			 M40.4,32.7c3,0.1,5.9,0.7,8.5,1.7c-0.1,0.3-3.6,13.2-3.9,14.1C44.8,47.6,40.5,33.1,40.4,32.7z M47.2,48.8
			c0.1-0.3,1.9-6.9,2.1-7.8c0.2,0.9,2.1,7.5,2.2,7.8C51.1,48.8,47.5,48.8,47.2,48.8z M46.2,52.5c0-0.1,0.4-1.5,0.5-1.7
			c0.2,0,5.2,0,5.4,0c0.1,0.2,0.8,3,0.9,3.2c-1.6,1.1-3.4,2-5.5,2.7C47.3,56.4,46.2,52.6,46.2,52.5z M56.5,50.3
			c-0.2-0.6-3.9-13.4-4.1-14.1c3.6,2.4,5.7,5.6,5.7,9.1C58.1,47.1,57.5,48.7,56.5,50.3z M31.7,56.7c-3-1-5.5-2.4-7.4-4.3
			c0-0.1,0.4-1.4,0.4-1.5c0.2,0,5.2,0,5.4,0C30.1,51,31.6,56.3,31.7,56.7z M25.2,48.8c0.1-0.3,1.9-6.9,2.1-7.8
			c0.2,0.9,2.1,7.5,2.1,7.8C29.2,48.8,25.6,48.8,25.2,48.8z M26.4,36.5c-0.2,0.7-3.6,13.2-3.8,13.8c-1-1.6-1.5-3.2-1.5-5
			C21.1,42,23,38.9,26.4,36.5z"/>
	</g>
</g>
</svg>
