
<svg xmlns="http://www.w3.org/2000/svg" x="0px" y="0px" width="65.1px" height="61.412px" viewBox="0 0 65.1 61.412">

	<circle fill="#5F6062" cx="4.318" cy="57.093" r="4.318"/>
	<path fill="#5F6062" d="M60.782,52.776h-42.07c-2.385,0-4.318,1.933-4.318,4.318c0,2.385,1.933,4.318,4.318,4.318h42.07
		c2.385,0,4.318-1.933,4.318-4.318C65.1,54.709,63.167,52.776,60.782,52.776z"/>
	<circle fill="#5F6062" cx="4.318" cy="39.821" r="4.318"/>
	<path fill="#5F6062" d="M60.782,35.503h-42.07c-2.385,0-4.318,1.933-4.318,4.318s1.933,4.318,4.318,4.318h42.07
		c2.385,0,4.318-1.933,4.318-4.318S63.167,35.503,60.782,35.503z"/>
	<path fill="#5F6062" d="M4.318,17.272C1.933,17.272,0,19.205,0,21.59v0c0,2.385,1.933,4.318,4.318,4.318
		c2.385,0,4.318-1.933,4.318-4.318v0C8.636,19.205,6.703,17.272,4.318,17.272z"/>
	<path fill="#5F6062" d="M60.782,17.272h-42.07c-2.385,0-4.318,1.933-4.318,4.318v0c0,2.385,1.933,4.318,4.318,4.318h42.07
		c2.385,0,4.318-1.933,4.318-4.318v0C65.1,19.205,63.167,17.272,60.782,17.272z"/>
	<circle fill="#5F6062" cx="4.318" cy="4.318" r="4.318"/>
	<path fill="#5F6062" d="M18.711,8.636h42.07c2.385,0,4.318-1.933,4.318-4.318C65.1,1.933,63.167,0,60.782,0h-42.07
		c-2.385,0-4.318,1.933-4.318,4.318C14.393,6.703,16.326,8.636,18.711,8.636z"/>
</svg>
