<?xml version="1.0" encoding="utf-8"?>
<!-- Generator: Adobe Illustrator 19.1.0, SVG Export Plug-In . SVG Version: 6.00 Build 0)  -->
<svg version="1.1" id="icons" xmlns="http://www.w3.org/2000/svg" xmlns:xlink="http://www.w3.org/1999/xlink" x="0px" y="0px"
	 viewBox="0 0 100 100" enable-background="new 0 0 100 100" xml:space="preserve">
<g id="Layer_3_2_">
	<path fill="#5F6062" d="M53.7,82.3h-7.5c-2.2,0-4.1-1.8-4.1-4.1h15.6C57.8,80.5,56,82.3,53.7,82.3z M59.1,75.9H40.9
		c-1.1,0-2-0.9-2-2c0-1.1,0.9-2,2-2h18.2c1.1,0,2,0.9,2,2C61.1,75,60.2,75.9,59.1,75.9z M59.1,69.5H40.9c-1.1,0-2-0.9-2-2
		c0-1.1,0.9-2,2-2h18.2c1.1,0,2,0.9,2,2C61.1,68.6,60.2,69.5,59.1,69.5z M61.3,61.1c0,1.1-0.9,2-2,2H40.7c-1.1,0-2-0.9-2-2l0,0
		c-1.2-11.9-8.8-13.2-8.8-24.2c0-11.1,9-20.1,20.1-20.1c11.1,0,20.1,9,20.1,20.1C70.1,47.8,62.6,49.1,61.3,61.1z"/>
</g>
</svg>
