<?xml version="1.0" encoding="utf-8"?>
<!-- Generator: Adobe Illustrator 19.1.0, SVG Export Plug-In . SVG Version: 6.00 Build 0)  -->
<svg version="1.1" xmlns="http://www.w3.org/2000/svg" xmlns:xlink="http://www.w3.org/1999/xlink" x="0px" y="0px"
	 viewBox="0 0 100 100" enable-background="new 0 0 100 100" xml:space="preserve">
<g id="grid" display="none">
	<g display="inline">
		
			<line opacity="0.35" fill-rule="evenodd" clip-rule="evenodd" fill="none" stroke="#666666" stroke-width="0.5" x1="87" y1="7.4" x2="87" y2="92.6"/>
		
			<line opacity="0.35" fill-rule="evenodd" clip-rule="evenodd" fill="none" stroke="#666666" stroke-width="0.5" x1="7.4" y1="87" x2="92.6" y2="87"/>
		
			<line opacity="0.35" fill-rule="evenodd" clip-rule="evenodd" fill="none" stroke="#666666" stroke-width="0.5" x1="92.6" y1="7.4" x2="7.4" y2="92.6"/>
		
			<line opacity="0.35" fill-rule="evenodd" clip-rule="evenodd" fill="none" stroke="#666666" stroke-width="0.5" x1="92.6" y1="50" x2="7.4" y2="50"/>
		
			<line opacity="0.35" fill-rule="evenodd" clip-rule="evenodd" fill="none" stroke="#666666" stroke-width="0.5" x1="50" y1="7.4" x2="50" y2="92.6"/>
		
			<line opacity="0.35" fill-rule="evenodd" clip-rule="evenodd" fill="none" stroke="#666666" stroke-width="0.5" x1="92.6" y1="34.2" x2="7.4" y2="34.2"/>
		
			<line opacity="0.35" fill-rule="evenodd" clip-rule="evenodd" fill="none" stroke="#666666" stroke-width="0.5" x1="92.6" y1="65.8" x2="7.4" y2="65.8"/>
		
			<line opacity="0.35" fill-rule="evenodd" clip-rule="evenodd" fill="none" stroke="#666666" stroke-width="0.5" x1="34.2" y1="7.4" x2="34.2" y2="92.6"/>
		
			<line opacity="0.35" fill-rule="evenodd" clip-rule="evenodd" fill="none" stroke="#666666" stroke-width="0.5" x1="65.8" y1="7.4" x2="65.8" y2="92.6"/>
		
			<line opacity="0.35" fill-rule="evenodd" clip-rule="evenodd" fill="none" stroke="#666666" stroke-width="0.5" x1="13" y1="7.4" x2="13" y2="92.6"/>
		
			<line opacity="0.35" fill-rule="evenodd" clip-rule="evenodd" fill="none" stroke="#666666" stroke-width="0.5" x1="7.4" y1="13" x2="92.6" y2="13"/>
		
			<line opacity="0.35" fill-rule="evenodd" clip-rule="evenodd" fill="none" stroke="#666666" stroke-width="0.5" x1="7.4" y1="7.4" x2="92.6" y2="92.6"/>
		
			<rect x="17.8" y="17.8" fill-rule="evenodd" clip-rule="evenodd" fill="none" stroke="#FF0000" stroke-width="0.5" width="64.5" height="64.5"/>
		
			<rect x="22.5" y="13" fill-rule="evenodd" clip-rule="evenodd" fill="none" stroke="#FF0000" stroke-width="0.5" width="55" height="74"/>
		
			<rect x="13" y="22.5" fill-rule="evenodd" clip-rule="evenodd" fill="none" stroke="#FF0000" stroke-width="0.5" width="74" height="55"/>
		
			<rect x="22.5" y="13" fill-rule="evenodd" clip-rule="evenodd" fill="none" stroke="#FF0000" stroke-width="0.5" width="55" height="74"/>
	</g>
</g>
<g id="icons">
	<g>
		<path fill="#5F6062" d="M34.2,32.5v1.6h31.5v-1.6c0-1.8-1.5-3.3-3.3-3.3h-1.6c-1.8,0-3.3-1.5-3.3-3.3v-5.4c0-4.1-3.3-7.4-7.4-7.4
			s-7.4,3.3-7.4,7.4v5.4c0,1.8-1.5,3.3-3.3,3.3h-1.7C35.7,29.2,34.2,30.7,34.2,32.5z M50,15.7c1.9,0,3.4,1.5,3.4,3.4
			c0,1.9-1.5,3.4-3.4,3.4c-1.9,0-3.4-1.5-3.4-3.4C46.5,17.2,48.1,15.7,50,15.7z"/>
		<path fill="#5F6062" d="M54.7,60.3H37.6c-1.1,0-1.9-0.9-1.9-1.9c0-1.1,0.9-1.9,1.9-1.9H58c3.4-3.1,8-4.9,12.9-4.9
			c1.6,0,3.1,0.2,4.5,0.5V26.9c0-2.4-2-4.4-4.4-4.4H60.7v1.7c0,0.9,0.7,1.6,1.6,1.6h0c3.7,0,6.7,3,6.7,6.7v4.9H30.9v-4.9
			c0-3.7,3-6.7,6.7-6.7h0c0.9,0,1.6-0.7,1.6-1.6v-1.7H28.9c-2.4,0-4.4,2-4.4,4.4v51c0,2.4,2,4.4,4.4,4.4h26.3
			c-2.3-3.2-3.6-7.1-3.6-11.3C51.6,67,52.7,63.4,54.7,60.3z M37.6,47h24.7c1.1,0,1.9,0.9,1.9,1.9c0,1.1-0.9,1.9-1.9,1.9H37.6
			c-1.1,0-1.9-0.9-1.9-1.9C35.7,47.9,36.5,47,37.6,47z"/>
		<path fill="#5F6062" d="M70.9,54.9c-8.9,0-16.1,7.2-16.1,16.1S62.1,87,70.9,87C79.8,87,87,79.8,87,71S79.8,54.9,70.9,54.9z
			 M80.8,66.4L69.3,78c-0.3,0.3-0.7,0.4-1,0.4l0,0c-0.4,0-0.8-0.2-1.1-0.5l-5.6-5.8c-0.6-0.6-0.6-1.5,0-2.1c0.6-0.6,1.5-0.6,2.1,0
			l4.5,4.7l10.4-10.5c0.6-0.6,1.5-0.6,2.1,0C81.4,64.9,81.4,65.8,80.8,66.4z"/>
	</g>
</g>
</svg>
