<?xml version="1.0" encoding="utf-8"?>
<!-- Generator: Adobe Illustrator 19.1.0, SVG Export Plug-In . SVG Version: 6.00 Build 0)  -->
<svg version="1.1" id="icons" xmlns="http://www.w3.org/2000/svg" xmlns:xlink="http://www.w3.org/1999/xlink" x="0px" y="0px"
	 viewBox="0 0 100 100" enable-background="new 0 0 100 100" xml:space="preserve">
<g>
	<path fill="#5F6062" d="M33.5,44.3H20.2c-0.7,0-1.2,0.2-1.7,0.7c-0.5,0.5-0.7,1-0.7,1.7v23.9c0,0.7,0.2,1.2,0.7,1.7
		c0.5,0.5,1.1,0.7,1.7,0.7h13.3c0.7,0,1.2-0.2,1.7-0.7c0.5-0.5,0.7-1,0.7-1.7V46.7c0-0.7-0.2-1.2-0.7-1.7
		C34.8,44.5,34.2,44.3,33.5,44.3z"/>
	<path fill="#5F6062" d="M78.5,39.9c-0.4-0.1-0.7-0.1-1.1-0.1c-0.3,0-0.7,0-1,0c-0.1,0-0.1,0-0.2,0H61.2l5-13.3c0.8-2,0-4.3-1.9-5.5
		v0c-2.1-1.4-5-0.7-6.3,1.4L47,39.7h0l-7.3,4.2c-0.9,0.5-1.4,1.5-1.4,2.5v23.8c0,1.4,1,2.6,2.3,2.8L55,75.8c0.3,0.1,0.6,0.1,0.9,0.1
		h14.7l0,0c0,0,0.1,0,0.1,0c2.7,0.2,5.2-1.5,5.8-4.2c0.4-1.7,0-3.4-1-4.7c1.5-0.7,2.6-2,3-3.7c0.4-1.7,0-3.4-1-4.7
		c1.5-0.7,2.6-2,3-3.7c0.4-1.7,0-3.4-1-4.7c1.5-0.7,2.6-2,3-3.7C83.3,43.6,81.5,40.6,78.5,39.9z"/>
</g>
</svg>
