<?xml version="1.0" encoding="utf-8"?>
<!-- Generator: Adobe Illustrator 19.1.0, SVG Export Plug-In . SVG Version: 6.00 Build 0)  -->
<svg version="1.1" id="icons" xmlns="http://www.w3.org/2000/svg" xmlns:xlink="http://www.w3.org/1999/xlink" x="0px" y="0px"
	 viewBox="0 0 100 100" enable-background="new 0 0 100 100" xml:space="preserve">
<g>
	<path fill="#5F6062" d="M28.1,57.4c-4,0-7.3,3.3-7.3,7.3s3.3,7.3,7.3,7.3s7.3-3.3,7.3-7.3S32.1,57.4,28.1,57.4z M28.1,67.6
		c-1.6,0-2.9-1.3-2.9-2.9c0-1.6,1.3-2.9,2.9-2.9c1.6,0,2.9,1.3,2.9,2.9C31,66.3,29.7,67.6,28.1,67.6z"/>
	<g>
		<path fill="#5F6062" d="M85.9,56.7v-9c0-1.6-1.3-2.9-2.9-2.9H57.3l0-7.9c-0.1-0.9-0.9-1.6-1.9-1.6h-9.7c-2.4,0-4.7,0.9-6.4,2.5
			l-7.8,7.1h-9.8c-3.7,0-6.7,3-6.7,6.7v5.2c-1.3,0-2.3,1-2.3,2.3v3.3c0,1.3,1,2.3,2.3,2.3h3.4c0.1-5.3,4.4-9.5,9.7-9.5
			s9.6,4.3,9.7,9.5h24.3c0.1-5.3,4.4-9.5,9.7-9.5s9.6,4.3,9.7,9.5h2.9c1.6,0,2.9-1.3,2.9-2.9V58C87.2,57.3,86.6,56.7,85.9,56.7z
			 M36.5,44.8l5.1-4.6c1.1-1,2.6-1.6,4.2-1.6h8.5l0.1,6.2H36.5z"/>
	</g>
	<path fill="#5F6062" d="M71.7,57.4c-4,0-7.3,3.3-7.3,7.3s3.3,7.3,7.3,7.3s7.3-3.3,7.3-7.3S75.8,57.4,71.7,57.4z M71.7,67.6
		c-1.6,0-2.9-1.3-2.9-2.9c0-1.6,1.3-2.9,2.9-2.9c1.6,0,2.9,1.3,2.9,2.9C74.6,66.3,73.3,67.6,71.7,67.6z"/>
</g>
</svg>
