<?xml version="1.0" encoding="utf-8"?>
<!-- Generator: Adobe Illustrator 19.1.0, SVG Export Plug-In . SVG Version: 6.00 Build 0)  -->
<svg version="1.1" xmlns="http://www.w3.org/2000/svg" xmlns:xlink="http://www.w3.org/1999/xlink" x="0px" y="0px"
	 viewBox="0 0 100 100" enable-background="new 0 0 100 100" xml:space="preserve">
<g id="grid" display="none">
</g>
<g id="icons">
	<g>
		<path fill="#5F6062" d="M56.4,17.9H37.9v-3.8c0-0.5-0.4-1-1-1H26.8c-0.5,0-1,0.4-1,1v3.8h-4.2c-0.9,0-1.7,0.5-2.1,1.3l-4.1,8.1
			h47.3l-4.1-8.1C58.2,18.4,57.3,17.9,56.4,17.9z"/>
		<path fill="#5F6062" d="M15.3,80.1c0,1.3,1.1,2.4,2.4,2.4h15.7V68.6c0-0.5,0.4-1,1-1h9.2c0.5,0,1,0.4,1,1v13.9h18.1V30.8H15.3
			V80.1z M48.4,38.9c0-0.5,0.4-0.8,0.8-0.8h8.1c0.5,0,0.8,0.4,0.8,0.8v6.6c0,0.5-0.4,0.8-0.8,0.8h-8.1c-0.5,0-0.8-0.4-0.8-0.8V38.9z
			 M48.4,53.7c0-0.5,0.4-0.8,0.8-0.8h8.1c0.5,0,0.8,0.4,0.8,0.8v6.6c0,0.5-0.4,0.8-0.8,0.8h-8.1c-0.5,0-0.8-0.4-0.8-0.8V53.7z
			 M48.4,68.5c0-0.5,0.4-0.8,0.8-0.8h8.1c0.5,0,0.8,0.4,0.8,0.8v6.6c0,0.5-0.4,0.8-0.8,0.8h-8.1c-0.5,0-0.8-0.4-0.8-0.8V68.5z
			 M34.1,38.9c0-0.5,0.4-0.8,0.8-0.8H43c0.5,0,0.8,0.4,0.8,0.8v6.6c0,0.5-0.4,0.8-0.8,0.8H35c-0.5,0-0.8-0.4-0.8-0.8V38.9z
			 M34.1,53.7c0-0.5,0.4-0.8,0.8-0.8H43c0.5,0,0.8,0.4,0.8,0.8v6.6c0,0.5-0.4,0.8-0.8,0.8H35c-0.5,0-0.8-0.4-0.8-0.8V53.7z
			 M19.8,38.9c0-0.5,0.4-0.8,0.8-0.8h8.1c0.5,0,0.8,0.4,0.8,0.8v6.6c0,0.5-0.4,0.8-0.8,0.8h-8.1c-0.5,0-0.8-0.4-0.8-0.8V38.9z
			 M19.8,53.7c0-0.5,0.4-0.8,0.8-0.8h8.1c0.5,0,0.8,0.4,0.8,0.8v6.6c0,0.5-0.4,0.8-0.8,0.8h-8.1c-0.5,0-0.8-0.4-0.8-0.8V53.7z
			 M19.8,68.5c0-0.5,0.4-0.8,0.8-0.8h8.1c0.5,0,0.8,0.4,0.8,0.8v6.6c0,0.5-0.4,0.8-0.8,0.8h-8.1c-0.5,0-0.8-0.4-0.8-0.8V68.5z"/>
		<path fill="#5F6062" d="M82.2,41c-0.4-0.9-1.3-1.4-2.3-1.4H66.3v6.3h18.3L82.2,41z"/>
		<path fill="#5F6062" d="M66.3,82.5h15.8c1.4,0,2.6-1.1,2.6-2.6V48.2H66.3V82.5z M70.6,53.6c0-0.5,0.4-0.8,0.8-0.8h8.2
			c0.5,0,0.8,0.4,0.8,0.8v6.7c0,0.5-0.4,0.8-0.8,0.8h-8.2c-0.5,0-0.8-0.4-0.8-0.8V53.6z M70.6,68.5c0-0.5,0.4-0.8,0.8-0.8h8.2
			c0.5,0,0.8,0.4,0.8,0.8v6.7c0,0.5-0.4,0.8-0.8,0.8h-8.2c-0.5,0-0.8-0.4-0.8-0.8V68.5z"/>
	</g>
</g>
</svg>
