<?xml version="1.0" encoding="utf-8"?>
<!-- Generator: Adobe Illustrator 19.1.0, SVG Export Plug-In . SVG Version: 6.00 Build 0)  -->
<svg version="1.1" id="icons" xmlns="http://www.w3.org/2000/svg" xmlns:xlink="http://www.w3.org/1999/xlink" x="0px" y="0px"
	 viewBox="0 0 100 100" enable-background="new 0 0 100 100" xml:space="preserve">
<g>
	<path fill="#5F6062" d="M41.4,51.1L41.4,51.1c-2.4,0.6-4.9-0.9-5.5-3.3L29,20.5c-0.6-2.4,0.9-4.9,3.3-5.5l0,0
		c2.4-0.6,4.9,0.9,5.5,3.3l6.9,27.3C45.3,48.1,43.8,50.5,41.4,51.1z"/>
	<circle fill="#5F6062" cx="67.3" cy="83.9" r="3.5"/>
	<circle fill="#5F6062" cx="38.1" cy="83.9" r="3.5"/>
	<path fill="#5F6062" d="M29.6,38.8c1-0.2,2,0.3,2.2,1.3l3.8,14.8c0.2,0.8,1,1.4,1.8,1.4h1.9c0.7-1.5,2.2-2.5,4-2.5h23
		c2.4,0,4.4,2,4.4,4.4v0c0,2.4-2,4.4-4.4,4.4H54.9v8.7l14.2,3.8c1.1,0.3,1.8,1.4,1.5,2.5c-0.3,1.1-1.4,1.8-2.5,1.5L52.7,75
		l-14.9,4.1c-0.2,0.1-0.4,0.1-0.6,0.1c-0.9,0-1.7-0.6-2-1.5c-0.3-1.1,0.3-2.3,1.5-2.6l13.8-3.8v-8.7h-7.2c-1.8,0-3.4-1.1-4.1-2.7
		h-4.6c-0.9,0-1.6-0.6-1.8-1.4L28.3,41C28.1,40.1,28.7,39.1,29.6,38.8z"/>
</g>
</svg>
