<?xml version="1.0" encoding="utf-8"?>
<!-- Generator: Adobe Illustrator 19.1.0, SVG Export Plug-In . SVG Version: 6.00 Build 0)  -->
<svg version="1.1" id="icons" xmlns="http://www.w3.org/2000/svg" xmlns:xlink="http://www.w3.org/1999/xlink" x="0px" y="0px"
	 width="100px" height="100px" viewBox="0 0 100 100" style="enable-background:new 0 0 100 100;" xml:space="preserve">
<style type="text/css">
	.st0{fill:#FFFFFF;}
</style>
<path class="st0" d="M80.8,18.7L80.8,18.7c-1.9-1.9-4.9-1.9-6.8,0L49.5,43.2L25,18.7c-1.9-1.9-4.9-1.9-6.8,0l0,0
	c-1.9,1.9-1.9,4.9,0,6.8L42.7,50L18.2,74.5c-1.9,1.9-1.9,4.9,0,6.8l0,0c1.9,1.9,4.9,1.9,6.8,0l24.5-24.5L74,81.3
	c1.9,1.9,4.9,1.9,6.8,0l0,0c1.9-1.9,1.9-4.9,0-6.8L56.3,50l24.5-24.5C82.7,23.6,82.7,20.6,80.8,18.7z"/>
</svg>
