<?xml version="1.0" encoding="utf-8"?>
<!-- Generator: Adobe Illustrator 18.1.1, SVG Export Plug-In . SVG Version: 6.00 Build 0)  -->
<svg version="1.1" id="icons" xmlns="http://www.w3.org/2000/svg" xmlns:xlink="http://www.w3.org/1999/xlink" x="0px" y="0px"
	 viewBox="0 0 100 100" enable-background="new 0 0 100 100" xml:space="preserve">
<path opacity="0.6" d="M79,25.9H21c-1.8,0-3.2,1.4-3.2,3.2v32.1c0,1.8,1.4,3.2,3.2,3.2H47v4.9h-9.4c-1.8,0-3.2,1.4-3.2,3.2v2.1
	c0,0.3,0.2,0.5,0.5,0.5h30.3c0.3,0,0.5-0.2,0.5-0.5v-2.1c0-1.8-1.4-3.2-3.2-3.2h-9.4v-4.9H79c1.8,0,3.2-1.4,3.2-3.2V29.1
	C82.2,27.3,80.8,25.9,79,25.9z M75.8,56.6c0,0.8-0.6,1.4-1.4,1.4H25.6c-0.8,0-1.4-0.6-1.4-1.4V33.7c0-0.8,0.6-1.4,1.4-1.4h48.8
	c0.8,0,1.4,0.6,1.4,1.4V56.6z"/>
</svg>
