<?xml version="1.0" encoding="utf-8"?>
<!-- Generator: Adobe Illustrator 19.1.0, SVG Export Plug-In . SVG Version: 6.00 Build 0)  -->
<svg version="1.1" id="icons" xmlns="http://www.w3.org/2000/svg" xmlns:xlink="http://www.w3.org/1999/xlink" x="0px" y="0px"
	 viewBox="0 0 100 100" enable-background="new 0 0 100 100" xml:space="preserve">
<path fill="#5F6062" d="M50,16.3c-12.4,0-22.4,10.4-22.4,23.1c0,1,0.1,1.9,0.2,2.9c1.9,18.1,20.7,38.9,20.7,38.9
	c0.3,0.4,0.6,0.6,1,0.8h0l0.6,0.2l0.6-0.2h0c0.3-0.2,0.6-0.4,1-0.8c0,0,18.6-20.9,20.4-39c0.1-0.9,0.2-1.9,0.2-2.8
	C72.4,26.7,62.4,16.3,50,16.3z M50,54.4c-7.9,0-14.4-6.7-14.4-14.9c0-8.2,6.5-14.9,14.4-14.9c7.9,0,14.4,6.7,14.4,14.9
	C64.4,47.7,57.9,54.4,50,54.4z"/>
</svg>
