<?xml version="1.0" encoding="utf-8"?>
<!-- Generator: Adobe Illustrator 19.1.0, SVG Export Plug-In . SVG Version: 6.00 Build 0)  -->
<svg version="1.1" id="icons" xmlns="http://www.w3.org/2000/svg" xmlns:xlink="http://www.w3.org/1999/xlink" x="0px" y="0px"
	 viewBox="0 0 100 100" enable-background="new 0 0 100 100" xml:space="preserve">
<path fill="#5F6062" d="M79.8,22.4H20.2c-2.4,0-4.4,2-4.4,4.4v44.5c0,2.4,2,4.4,4.4,4.4h59.7c2.4,0,4.4-2,4.4-4.4V26.9
	C84.2,24.4,82.3,22.4,79.8,22.4z M43.9,56.9c0,1-0.9,1.9-1.9,1.9H26.5c-1,0-1.9-0.9-1.9-1.9V41.3c0-1,0.9-1.9,1.9-1.9H42
	c1,0,1.9,0.9,1.9,1.9V56.9z M54.7,48.9h18.4c1.1,0,2.1,0.9,2.1,2.1c0,1.1-0.9,2.1-2.1,2.1H54.7c-1.1,0-2.1-0.9-2.1-2.1
	C52.7,49.8,53.6,48.9,54.7,48.9z M54.7,39.3h18.4c1.1,0,2.1,0.9,2.1,2.1c0,1.1-0.9,2.1-2.1,2.1H54.7c-1.1,0-2.1-0.9-2.1-2.1
	C52.7,40.2,53.6,39.3,54.7,39.3z"/>
</svg>
