<?xml version="1.0" encoding="utf-8"?>
<!-- Generator: Adobe Illustrator 19.1.0, SVG Export Plug-In . SVG Version: 6.00 Build 0)  -->
<svg version="1.1" id="icons" xmlns="http://www.w3.org/2000/svg" xmlns:xlink="http://www.w3.org/1999/xlink" x="0px" y="0px"
	 viewBox="0 0 100 100" enable-background="new 0 0 100 100" xml:space="preserve">
<g>
	<path fill="#5F6062" d="M71.9,36.5c2.9-4.3,1.8-6.9-3.3-7.9c1-5-1-7-6-6c-1-5-3.6-6.1-7.9-3.3c-2.8-4.3-5.7-4.3-8.5,0
		c-4.3-2.9-6.9-1.8-7.9,3.3c-5-1-7,1-6,6c-5,1-6.1,3.6-3.3,7.9c-4.3,2.8-4.3,5.7,0,8.5c-2.9,4.3-1.8,6.9,3.3,7.9
		c-0.9,4.7,0.8,6.7,5.1,6.2V83c0,1.1,1.3,1.8,2.2,1c2.8-2.3,7.5-6.2,9.5-7.9c0.5-0.4,1.3-0.4,1.8,0c1.9,1.7,6.7,5.6,9.5,7.9
		c0.9,0.7,2.2,0.1,2.2-1V59.1c0-0.1,0-0.1,0.1-0.2c5,1,7-1,6-6c5-1,6.1-3.6,3.3-7.9C76.1,42.2,76.1,39.3,71.9,36.5z M50.5,59.1
		c-10.1,0-18.3-8.2-18.3-18.3c0-10.1,8.2-18.3,18.3-18.3c10.1,0,18.3,8.2,18.3,18.3C68.8,50.9,60.6,59.1,50.5,59.1z"/>
	<path fill="#5F6062" d="M50.5,25.7c-8.3,0-15.1,6.8-15.1,15.1c0,8.3,6.8,15.1,15.1,15.1c8.3,0,15.1-6.8,15.1-15.1
		C65.5,32.5,58.8,25.7,50.5,25.7z M58.1,37.6l-8.3,8.8c-0.3,0.3-0.7,0.4-1,0.4c-0.4,0-0.8-0.2-1-0.4L42.9,42c-0.6-0.6-0.6-1.4,0-2
		c0.6-0.6,1.5-0.6,2.1,0l3.7,3.4l7.2-7.8c0.6-0.6,1.5-0.6,2.1,0C58.7,36.1,58.7,37,58.1,37.6z"/>
</g>
</svg>
