<?xml version="1.0" encoding="utf-8"?>
<!-- Generator: Adobe Illustrator 19.1.0, SVG Export Plug-In . SVG Version: 6.00 Build 0)  -->
<svg version="1.1" id="icons" xmlns="http://www.w3.org/2000/svg" xmlns:xlink="http://www.w3.org/1999/xlink" x="0px" y="0px"
	 viewBox="0 0 100 100" enable-background="new 0 0 100 100" xml:space="preserve">
<g>
	<path fill="#5F6062" d="M51.8,71.1c0-2.8,0.6-5.4,1.6-7.8H36.8c-1.1,0-1.9-0.9-1.9-1.9c0-1.1,0.9-1.9,1.9-1.9h18.9
		c3.5-4.7,9.1-7.8,15.5-7.8c2.3,0,4.5,0.4,6.5,1.1V22.5c0-2.6-2.1-4.8-4.8-4.8H27.3c-2.6,0-4.8,2.1-4.8,4.8v55.1
		c0,2.6,2.1,4.8,4.8,4.8h28.2C53.1,79.2,51.8,75.3,51.8,71.1z M36.8,37.3h24c1.1,0,1.9,0.9,1.9,1.9c0,1.1-0.9,1.9-1.9,1.9h-24
		c-1.1,0-1.9-0.9-1.9-1.9C34.9,38.2,35.7,37.3,36.8,37.3z M36.8,48.4h29.7c1.1,0,1.9,0.9,1.9,1.9c0,1.1-0.9,1.9-1.9,1.9H36.8
		c-1.1,0-1.9-0.9-1.9-1.9C34.9,49.2,35.7,48.4,36.8,48.4z"/>
	<g>
		<path fill="#5F6062" d="M71.1,55.1c-8.8,0-15.9,7.1-15.9,15.9c0,8.8,7.1,15.9,15.9,15.9C79.9,87,87,79.9,87,71.1
			C87,62.2,79.9,55.1,71.1,55.1z M79.6,70.9c0,0.8-0.6,1.4-1.4,1.4h-5.8v5.8c0,0.8-0.6,1.4-1.4,1.4h0c-0.8,0-1.4-0.6-1.4-1.4v-5.8
			h-5.8c-0.8,0-1.4-0.6-1.4-1.4v0c0-0.8,0.6-1.4,1.4-1.4h5.8v-5.8c0-0.8,0.6-1.4,1.4-1.4h0c0.8,0,1.4,0.6,1.4,1.4v5.8h5.8
			C79,69.5,79.6,70.1,79.6,70.9L79.6,70.9z"/>
	</g>
</g>
</svg>
