<?xml version="1.0" encoding="utf-8"?>
<!-- Generator: Adobe Illustrator 19.1.0, SVG Export Plug-In . SVG Version: 6.00 Build 0)  -->
<svg version="1.1" xmlns="http://www.w3.org/2000/svg" xmlns:xlink="http://www.w3.org/1999/xlink" x="0px" y="0px"
	 viewBox="0 0 100 100" enable-background="new 0 0 100 100" xml:space="preserve">
<g id="grid" display="none">
	<g display="inline">
		
			<line opacity="0.35" fill-rule="evenodd" clip-rule="evenodd" fill="none" stroke="#666666" stroke-width="0.5" x1="87" y1="7.4" x2="87" y2="92.6"/>
		
			<line opacity="0.35" fill-rule="evenodd" clip-rule="evenodd" fill="none" stroke="#666666" stroke-width="0.5" x1="7.4" y1="87" x2="92.6" y2="87"/>
		
			<line opacity="0.35" fill-rule="evenodd" clip-rule="evenodd" fill="none" stroke="#666666" stroke-width="0.5" x1="92.6" y1="7.4" x2="7.4" y2="92.6"/>
		
			<line opacity="0.35" fill-rule="evenodd" clip-rule="evenodd" fill="none" stroke="#666666" stroke-width="0.5" x1="92.6" y1="50" x2="7.4" y2="50"/>
		
			<line opacity="0.35" fill-rule="evenodd" clip-rule="evenodd" fill="none" stroke="#666666" stroke-width="0.5" x1="50" y1="7.4" x2="50" y2="92.6"/>
		
			<line opacity="0.35" fill-rule="evenodd" clip-rule="evenodd" fill="none" stroke="#666666" stroke-width="0.5" x1="92.6" y1="34.2" x2="7.4" y2="34.2"/>
		
			<line opacity="0.35" fill-rule="evenodd" clip-rule="evenodd" fill="none" stroke="#666666" stroke-width="0.5" x1="92.6" y1="65.8" x2="7.4" y2="65.8"/>
		
			<line opacity="0.35" fill-rule="evenodd" clip-rule="evenodd" fill="none" stroke="#666666" stroke-width="0.5" x1="34.2" y1="7.4" x2="34.2" y2="92.6"/>
		
			<line opacity="0.35" fill-rule="evenodd" clip-rule="evenodd" fill="none" stroke="#666666" stroke-width="0.5" x1="65.8" y1="7.4" x2="65.8" y2="92.6"/>
		
			<line opacity="0.35" fill-rule="evenodd" clip-rule="evenodd" fill="none" stroke="#666666" stroke-width="0.5" x1="13" y1="7.4" x2="13" y2="92.6"/>
		
			<line opacity="0.35" fill-rule="evenodd" clip-rule="evenodd" fill="none" stroke="#666666" stroke-width="0.5" x1="7.4" y1="13" x2="92.6" y2="13"/>
		
			<line opacity="0.35" fill-rule="evenodd" clip-rule="evenodd" fill="none" stroke="#666666" stroke-width="0.5" x1="7.4" y1="7.4" x2="92.6" y2="92.6"/>
		
			<rect x="17.8" y="17.8" fill-rule="evenodd" clip-rule="evenodd" fill="none" stroke="#FF0000" stroke-width="0.5" width="64.5" height="64.5"/>
		
			<rect x="22.5" y="13" fill-rule="evenodd" clip-rule="evenodd" fill="none" stroke="#FF0000" stroke-width="0.5" width="55" height="74"/>
		
			<rect x="13" y="22.5" fill-rule="evenodd" clip-rule="evenodd" fill="none" stroke="#FF0000" stroke-width="0.5" width="74" height="55"/>
		
			<rect x="22.5" y="13" fill-rule="evenodd" clip-rule="evenodd" fill="none" stroke="#FF0000" stroke-width="0.5" width="55" height="74"/>
	</g>
</g>
<g id="icons">
	<g>
		<path fill="#5F6062" d="M72,49c-0.8,0-1.5,0.1-2.2,0.2c-0.8-3.6-4-6.4-7.9-6.4c-0.2,0-0.4,0-0.6,0c-1.1-6.8-6.9-12-14-12
			c-6.3,0-11.7,4.1-13.5,9.9c-0.5-0.1-1-0.1-1.5-0.1c-7.8,0-14.2,6.3-14.2,14.2c0,7.7,6.1,13.9,13.7,14.1v0h5.8v-2.7
			c-1.6-0.1-2.9-1.1-3.5-2.5c-0.6-1.5-0.3-3.3,0.9-4.5l8-8c0.8-0.8,1.8-1.2,2.9-1.2c1.1,0,2.1,0.4,2.9,1.2l8,8
			c1.2,1.2,1.5,3,0.9,4.5c-0.6,1.5-2,2.4-3.5,2.5V69h17.8v0C77.6,69,82,64.5,82,59C82,53.5,77.5,49,72,49z"/>
		<path fill="#5F6062" d="M54.6,61.6l-8-8c-0.3-0.3-0.9-0.3-1.2,0l-8,8c-0.5,0.5-0.2,1.4,0.6,1.4h3v10.9c0,0.5,0.4,0.8,0.8,0.8h8.4
			c0.5,0,0.8-0.4,0.8-0.8V63h3C54.7,63,55.1,62.1,54.6,61.6z"/>
	</g>
</g>
</svg>
