<?xml version="1.0" encoding="utf-8"?>
<!-- Generator: Adobe Illustrator 19.1.0, SVG Export Plug-In . SVG Version: 6.00 Build 0)  -->
<svg version="1.1" xmlns="http://www.w3.org/2000/svg" xmlns:xlink="http://www.w3.org/1999/xlink" x="0px" y="0px"
	 viewBox="0 0 100 100" enable-background="new 0 0 100 100" xml:space="preserve">
<g id="grid" display="none">
</g>
<g id="icons">
	<path fill="#5F6062" d="M75.9,48.6L64.6,37.2c-0.6-0.6-1.6-0.2-1.6,0.7v5.9c-4.8,0-9.4,1.4-13.3,4.1V31h5.6c0.8,0,1.3-1,0.7-1.6
		L44.6,18c-0.4-0.4-1-0.4-1.3,0L31.9,29.4C31.3,30,31.7,31,32.6,31h5.6v48.8c0,1.3,1.1,2.4,2.4,2.4h6.7c1.3,0,2.4-1.1,2.4-2.4V68.1
		h0c0-3.6,1.4-6.9,4-9.5c2.5-2.5,5.8-3.9,9.3-3.9v5.9c0,0.8,1,1.3,1.6,0.7l11.4-11.4C76.3,49.6,76.3,49,75.9,48.6z"/>
</g>
</svg>
