<?xml version="1.0" encoding="utf-8"?>
<!-- Generator: Adobe Illustrator 19.1.0, SVG Export Plug-In . SVG Version: 6.00 Build 0)  -->
<svg version="1.1" xmlns="http://www.w3.org/2000/svg" xmlns:xlink="http://www.w3.org/1999/xlink" x="0px" y="0px"
	 viewBox="0 0 100 100" enable-background="new 0 0 100 100" xml:space="preserve">
<g id="grid" display="none">
</g>
<g id="icons">
	<g>
		<path fill="#5F6062" d="M49.1,71.1c0-6,2.7-11.3,7-14.9l0-4.4c0,0,2.5-1.9,3.2-7.9c1.5,0.5,3.2-2.3,3.3-3.8
			c0.1-1.4-0.2-5.3-2.1-4.9c0.4-2.9,0.7-5.5,0.5-6.9C60.5,23.3,55.5,18,47.8,18c-7.7,0-12.7,5.4-13.2,10.5c-0.1,1.4,0.2,4,0.5,6.9
			C33.3,35,33,38.8,33,40.2c0.1,1.5,1.7,4.2,3.3,3.8c0.8,5.9,3.2,7.9,3.2,7.9l-0.1,6.3c0,0-1.6,1-8.2,3.7
			c-6.6,2.7-11.5,4.7-13.4,7.8c-1.8,2.8-1.2,12.6-1.2,12.6h36.1C50.5,79.1,49.1,75.2,49.1,71.1z"/>
		<g>
			<path fill="#5F6062" d="M68.4,55.2c-8.8,0-15.9,7.1-15.9,15.9S59.7,87,68.4,87s15.9-7.1,15.9-15.9S77.2,55.2,68.4,55.2z M77,70.9
				c0,0.8-0.6,1.4-1.4,1.4h-5.7v5.7c0,0.8-0.6,1.4-1.4,1.4h0c-0.8,0-1.4-0.6-1.4-1.4v-5.7h-5.7c-0.8,0-1.4-0.6-1.4-1.4v0
				c0-0.8,0.6-1.4,1.4-1.4h5.7v-5.7c0-0.8,0.6-1.4,1.4-1.4h0c0.8,0,1.4,0.6,1.4,1.4v5.7h5.7C76.3,69.6,77,70.2,77,70.9L77,70.9z"/>
		</g>
	</g>
</g>
</svg>
