<?xml version="1.0" encoding="utf-8"?>
<!-- Generator: Adobe Illustrator 19.1.0, SVG Export Plug-In . SVG Version: 6.00 Build 0)  -->
<svg version="1.1" xmlns="http://www.w3.org/2000/svg" xmlns:xlink="http://www.w3.org/1999/xlink" x="0px" y="0px"
	 viewBox="0 0 100 100" enable-background="new 0 0 100 100" xml:space="preserve">
<g id="grid" display="none">
</g>
<g id="icons">
	<g id="icons_1_">
		<g>
			<path fill="#5F6062" d="M74.7,18.5H33.4c-2.1,0-3.7,1.7-3.7,3.7l0,0c0,2.1,1.7,3.7,3.7,3.7h35.2c1.1,0,1.9,0.9,1.9,1.9v44.8
				c0,1.1-0.9,1.9-1.9,1.9H33.5c-2.1,0-3.7,1.7-3.7,3.7l0,0c0,2.1,1.7,3.7,3.7,3.7h41.3c1.8,0,3.2-1.5,3.2-3.2v-57
				C78,20,76.6,18.5,74.7,18.5z"/>
			<path fill="#5F6062" d="M43.8,60.7c-1.5,1.5-1.5,3.8,0,5.3l0,0c1.5,1.5,3.8,1.5,5.3,0l14.1-14.1c0.9-0.9,0.9-2.4,0-3.3L49,34.4
				c-1.5-1.5-3.8-1.5-5.3,0l0,0c-1.5,1.5-1.5,3.8,0,5.3l6.8,6.8H21.8c-2.1,0-3.7,1.7-3.7,3.7l0,0c0,2.1,1.7,3.7,3.7,3.7h28.6
				L43.8,60.7z"/>
		</g>
	</g>
</g>
</svg>
