<?xml version="1.0" encoding="utf-8"?>
<!-- Generator: Adobe Illustrator 19.2.0, SVG Export Plug-In . SVG Version: 6.00 Build 0)  -->
<svg version="1.1" id="Layer_1" xmlns="http://www.w3.org/2000/svg" xmlns:xlink="http://www.w3.org/1999/xlink" x="0px" y="0px"
	 viewBox="0 0 200 200" enable-background="new 0 0 200 200" xml:space="preserve">
<g>
	<path fill="#3B77AD" d="M78,80.5H67.1l14.4-22.9l-13.7-22H79l8,14.6l8.2-14.6H106L92.3,57.3l14.6,23.2H95.5L87,65.2L78,80.5z"/>
</g>
<g>
	<path fill="#36557C" d="M41.2,35.7h9.3v26.9c0,3,0.4,5.2,1.1,6.6c1.1,2.5,3.5,3.7,7.2,3.7s6.1-1.2,7.2-3.7c0.7-1.4,1.1-3.6,1.1-6.6
		V35.7h9.3v26.9c0,4.7-0.7,8.3-2.2,10.9c-2.7,4.8-7.8,7.1-15.4,7.1s-12.7-2.4-15.4-7.1c-1.4-2.6-2.2-6.2-2.2-10.9V35.7z"/>
</g>
<path fill="#FFFFFF" d="M170.9,105.7c0,0-0.3-5-12.4-21.1c0,0-4.4-4.7-4-24.8c0,0-0.7-16.9-4.9-21.5l0,0
	c-8.2-24.7-40.3-41-76.8-37.4c-25.5,2.4-47,14-58.7,29.5C3.5,43.3-2,63.2,0.7,84.6C1.3,90,2.5,95.1,4,99.9l0,0l0,0
	c1.8,5.6,4.1,10.8,6.8,15.5v0.1l0.1,0.1c2.6,4.4,5.5,8.3,8.7,11.8l0,0c0,0,21.1,26.2,21.1,38c0,11.7-7.4,33.9-7.4,33.9h72.4l7-21.8
	c0,0,0-7.4,14.4-6.4l16.4,2c0,0,7.2,0.6,8.9-5.7c0.1-0.2,0.1-0.5,0.2-0.7c1.3-7,1-11.4,0-14.1c-0.8-3.9,1.7-6.6,6.7-11.4
	c0,0,4-4.7-3.7-6.7c0,0,6-4,7.7-7.4c0,0-0.3,0-1.7-3.7l-4.4-10.7l0.7-1.7h7.7C165.9,111,171.9,110.4,170.9,105.7z M114.1,85.5
	L114.1,85.5c-4.3,6.2-11.4,10.3-19.5,10.3c-1.5,0-2.9-0.1-4.3-0.4c-4.6,5.1-11.2,8.3-18.5,8.3c-3.3,6-10.3,13.9-25.3,21.4l-4.7-3.8
	c0,0,7.9-5.1,12.5-11.4c-1.7,0.4-3.4,0.6-5.2,0.6c-12.2,0-22.2-9.9-22.2-22.2c0-0.3,0-0.6,0-1c-8.5-2.7-14.6-10.6-14.6-19.9
	c0-8.4,4.9-15.6,12-18.9C24.6,36.2,33.6,26,45.5,24c4.4-5.1,10.8-8.3,18-8.3c3.9,0,7.6,1,10.9,2.7c3-1.7,6.6-2.7,10.3-2.7
	c5.4,0,10.2,2,14,5.3c1-0.1,2-0.2,3-0.2c5.5,0,10.6,2,14.5,5.3c15.5,1,27.8,13.9,27.8,29.7C143.9,72.2,130.6,85.5,114.1,85.5z"/>
</svg>