<?xml version="1.0" encoding="utf-8"?>
<!-- Generator: Adobe Illustrator 19.2.0, SVG Export Plug-In . SVG Version: 6.00 Build 0)  -->
<svg version="1.1" id="Layer_1" xmlns="http://www.w3.org/2000/svg" xmlns:xlink="http://www.w3.org/1999/xlink" x="0px" y="0px"
	 viewBox="0 0 200 200" enable-background="new 0 0 200 200" xml:space="preserve">
<circle fill="#FFFFFF" cx="74" cy="25.1" r="12.2"/>
<circle fill="#FFFFFF" cx="174.2" cy="45.2" r="12.2"/>
<circle fill="#FFFFFF" cx="160.1" cy="119.4" r="12.2"/>
<circle fill="#FFFFFF" cx="40.8" cy="168.3" r="12.2"/>
<circle fill="#FFFFFF" cx="24.8" cy="82" r="12.2"/>
<path fill="#FFFFFF" d="M102.4,90.8c0-0.3,0-0.6,0-0.9c-0.1-1.2,0.5-2.3,1.6-2.8l53.6-28.4c1.5-0.8,2-2.6,1.2-4.1v-0.1
	c-0.8-1.5-2.6-2-4.1-1.2l-53.8,28.5c-1,0.5-2.2,0.5-3.2-0.2c-1.2-0.9-2.7-1.5-4.2-1.8c-1.2-0.2-2.1-1.1-2.4-2.2L83,45
	c-0.4-1.6-2-2.6-3.7-2.2h-0.1c-1.6,0.4-2.6,2-2.2,3.7l8.1,32.7c0.3,1.1-0.1,2.3-1,3.1c-0.9,0.7-1.7,1.6-2.3,2.6
	c-0.6,1-1.8,1.5-2.9,1.4l-40.6-5c-1.7-0.2-3.2,1-3.4,2.6V84c-0.2,1.7,1,3.2,2.6,3.4l40.5,5c1.2,0.1,2.1,1,2.5,2.1
	c0.4,1.2,1,2.2,1.7,3.2c0.8,1,0.8,2.4,0.1,3.5l-31.6,47.2c-0.9,1.4-0.6,3.3,0.8,4.2h0.1c1.4,0.9,3.3,0.6,4.2-0.8l32.3-48.2
	c0.6-0.9,1.5-1.4,2.6-1.3c0.2,0,0.3,0,0.5,0c2.4,0,4.6-0.7,6.4-2c0.8-0.6,1.9-0.7,2.8-0.3l38.4,15.6c1.5,0.6,3.3-0.1,3.9-1.7v-0.1
	c0.6-1.5-0.1-3.3-1.7-3.9L104.1,95c-1.2-0.5-2-1.7-1.9-3C102.4,91.4,102.4,91.1,102.4,90.8z"/>
<path fill="#F06572" d="M159.8,144.2c-13.7,0-24.8-11.1-24.8-24.8s11.1-24.8,24.8-24.8s24.8,11.1,24.8,24.8
	C184.7,133.1,173.5,144.2,159.8,144.2z M159.8,108.9c-5.8,0-10.5,4.7-10.5,10.5s4.7,10.5,10.5,10.5s10.5-4.7,10.5-10.5
	C170.3,113.6,165.6,108.9,159.8,108.9z"/>
<path fill="#3B77AD" d="M174.2,69.7c-13.7,0-24.8-11.1-24.8-24.8s11.1-24.8,24.8-24.8S199,31.2,199,44.9S187.9,69.7,174.2,69.7z
	 M174.2,34.4c-5.8,0-10.5,4.7-10.5,10.5s4.7,10.5,10.5,10.5s10.5-4.7,10.5-10.5S180,34.4,174.2,34.4z"/>
<path fill="#A1D5E5" d="M73.8,49.6C60.1,49.6,49,38.5,49,24.8S60.1,0,73.8,0s24.8,11.1,24.8,24.8C98.6,38.5,87.5,49.6,73.8,49.6z
	 M73.8,14.3c-5.8,0-10.5,4.7-10.5,10.5S68,35.3,73.8,35.3s10.5-4.7,10.5-10.5S79.6,14.3,73.8,14.3z"/>
<path fill="#FEDF6E" d="M40.8,193.1C27.2,193.1,16,182,16,168.3s11.1-24.8,24.8-24.8s24.8,11.1,24.8,24.8
	C65.7,182,54.5,193.1,40.8,193.1z M40.8,157.8c-5.8,0-10.5,4.7-10.5,10.5s4.7,10.5,10.5,10.5s10.5-4.7,10.5-10.5
	C51.4,162.5,46.6,157.8,40.8,157.8z"/>
<path fill="#36557C" d="M24.8,106.9C11.1,106.9,0,95.7,0,82s11.1-24.8,24.8-24.8S49.6,68.4,49.6,82C49.6,95.7,38.5,106.9,24.8,106.9
	z M24.8,71.5c-5.8,0-10.5,4.7-10.5,10.5S19,92.5,24.8,92.5S35.3,87.8,35.3,82S30.6,71.5,24.8,71.5z"/>
</svg>
