<?xml version="1.0" encoding="utf-8"?>
<!-- Generator: Adobe Illustrator 19.2.0, SVG Export Plug-In . SVG Version: 6.00 Build 0)  -->
<svg version="1.1" id="Layer_1" xmlns="http://www.w3.org/2000/svg" xmlns:xlink="http://www.w3.org/1999/xlink" x="0px" y="0px"
	 viewBox="0 0 200 200" enable-background="new 0 0 200 200" xml:space="preserve">
<g>
	<path fill="#FFFFFF" d="M197.1,158.4H190v-4h7.1c1.1,0,2-0.9,2-2s-0.9-2-2-2H190v-5.3h-11.7c-4.8,0-8.6,3.6-9.1,8.3h-59.4h-0.1
		h-0.5c-8.1,0.1-15.9,4-20.8,10.8c-0.1,0.1-0.2,0.1-0.2,0.2c-3.6,5.4-9.7,9-16.7,9c-10.9,0-19.7-8.7-20-19.5c0-4.2,1.3-7.4,1.3-7.4
		c1.5-4.9,13.9-13.7,17.3-19.9c8.6-0.1,16.4-3.8,21.8-9.8c1.7,0.3,3.4,0.5,5.1,0.5c9.5,0,17.9-4.8,22.9-12.2h0.1
		c19.3,0,35-15.7,35-35c0-18.6-14.4-33.7-32.7-34.9c-4.6-3.9-10.6-6.2-17.1-6.2c-1.2,0-2.3,0.1-3.5,0.2C97.4,25.3,91.6,23,85.3,23
		c-4.4,0-8.5,1.1-12.1,3.1c-3.8-2-8.2-3.1-12.8-3.1c-8.5,0-16.1,3.8-21.2,9.7c-14,2.3-24.7,14.3-25,28.9C5.8,65.6,0,74.1,0,83.9
		c0,11,7.2,20.3,17.2,23.4c0,0.4,0,0.8,0,1.1c0,14.4,11.7,26.1,26.1,26.1c2.1,0,4.1-0.3,6.1-0.7c-1,7.7-2.1,10.2-3,12.5
		c0,0-2.3,6.1,0,14.1l0,0c3.1,11,13.2,19,25.1,19c8.7,0,16.4-4.3,21.1-10.8c0.1-0.1,0.2-0.2,0.3-0.3c3.7-5.6,9.9-8.8,16.4-8.9h0.5
		h16.5h42.9c0.3,4.8,4.3,8.5,9.1,8.5H190v-5.5h7.1c1.1,0,2-0.9,2-2S198.3,158.4,197.1,158.4z"/>
	<g id="icons_11_">
		<path fill="#FEDF6E" d="M66.7,104.4c0.1-0.1,0.1-0.2,0.2-0.3c0-0.1,0-0.1,0.1-0.2c0-0.1,0.1-0.2,0.1-0.2c0-0.1,0.1-0.2,0.1-0.2
			c0-0.1,0-0.1,0.1-0.2s0.1-0.2,0.2-0.3l0,0c0.3-0.9,0.5-1.7,0.8-2.6l5.3-1.1c0.4-0.1,0.6-0.4,0.6-0.8V94c0-0.4-0.2-0.7-0.6-0.8
			l-5.3-1.1c-0.2-0.9-0.5-1.7-0.8-2.6l0,0c-0.1-0.1-0.1-0.2-0.2-0.3c0-0.1,0-0.1-0.1-0.2c0-0.1-0.1-0.2-0.1-0.2
			c0-0.1-0.1-0.2-0.1-0.2c0-0.1,0-0.1-0.1-0.2c-0.1-0.2-0.1-0.2-0.2-0.4l0,0c-0.4-0.8-0.8-1.5-1.3-2.3l3-4.6c0.2-0.3,0.2-0.7-0.1-1
			L65,77c-0.2-0.2-0.7-0.3-1-0.1l-4.6,3c-0.8-0.5-1.5-0.9-2.3-1.3l0,0c-0.1-0.1-0.2-0.1-0.3-0.2c-0.1,0-0.1,0-0.2-0.1
			c-0.1,0-0.2-0.1-0.2-0.1c-0.1,0-0.2-0.1-0.2-0.1c-0.1,0-0.1,0-0.2-0.1c-0.1-0.1-0.2-0.1-0.3-0.2l0,0c-0.9-0.3-1.7-0.5-2.6-0.8
			l-1-5c-0.1-0.4-0.4-0.6-0.8-0.6h-4.6c-0.4,0-0.7,0.2-0.8,0.6l-1.1,5.3c-0.9,0.2-1.7,0.5-2.6,0.8l0,0c-0.1,0.1-0.2,0.1-0.3,0.2
			c-0.1,0-0.1,0-0.2,0.1c-0.1,0-0.2,0.1-0.2,0.1l-0.2,0.1c0,0-0.1,0-0.2,0.1c-0.1,0.1-0.2,0.1-0.3,0.2l0,0c-0.8,0.4-1.5,0.8-2.3,1.3
			L34,77c-0.3-0.2-0.7-0.2-1,0.1l-3.2,3.2c-0.2,0.2-0.3,0.7-0.1,1l3,4.6c-0.5,0.8-0.9,1.5-1.3,2.3l0,0c-0.1,0.1-0.1,0.2-0.2,0.3
			c0,0.1,0,0.1-0.1,0.2c0,0.1-0.1,0.2-0.1,0.2c0,0.1-0.1,0.2-0.1,0.2c0,0.1,0,0.1-0.1,0.2s-0.1,0.2-0.2,0.3l0,0
			c-0.3,0.9-0.5,1.7-0.8,2.6l-5.3,1.1c-0.4,0.1-0.6,0.4-0.6,0.8v4.6c0,0.4,0.2,0.7,0.6,0.8l5.3,1.1c0.2,0.9,0.5,1.7,0.8,2.6l0,0
			c0.1,0.1,0.1,0.2,0.2,0.3c0,0.1,0,0.1,0.1,0.2c0,0.1,0.1,0.2,0.1,0.2c0,0.1,0.1,0.2,0.1,0.2c0,0.1,0,0.1,0.1,0.2s0.1,0.2,0.2,0.3
			l0,0c0.4,0.8,0.8,1.5,1.3,2.3l-3.1,4.6c-0.2,0.3-0.2,0.7,0.1,1l3.2,3.2c0.2,0.2,0.7,0.3,1,0.1l4.6-3c0.8,0.5,1.5,0.9,2.3,1.3l0,0
			c0.1,0.1,0.2,0.1,0.3,0.2c0.1,0,0.1,0,0.2,0.1c0.1,0,0.2,0.1,0.2,0.1l0.2,0.1c0,0,0.1,0,0.2,0.1c0.1,0.1,0.2,0.1,0.3,0.2l0,0
			c0.9,0.3,1.7,0.5,2.6,0.8l1.1,5.3c0.1,0.4,0.4,0.6,0.8,0.6h4.6c0.4,0,0.7-0.2,0.8-0.6l1.1-5.3c0.9-0.2,1.7-0.5,2.6-0.8l0,0
			c0.1-0.1,0.2-0.1,0.3-0.2c0.1,0,0.1,0,0.2-0.1c0.1,0,0.2-0.1,0.2-0.1l0.2-0.1c0,0,0.1,0,0.2-0.1c0.1-0.1,0.2-0.1,0.3-0.2l0,0
			c0.8-0.4,1.5-0.8,2.3-1.3l4.6,3c0.3,0.2,0.7,0.2,1-0.1l3.2-3.2c0.2-0.2,0.3-0.7,0.1-1l-3-4.6C65.9,106,66.3,105.3,66.7,104.4
			L66.7,104.4z M58.8,96.3c0,5.3-4.3,9.7-9.7,9.7s-9.7-4.3-9.7-9.7s4.3-9.7,9.7-9.7S58.8,91,58.8,96.3z"/>
	</g>
	<g id="icons_10_">
		<path fill="#F06572" d="M131,86.6c0.1-0.1,0.2-0.2,0.3-0.3c0-0.1,0-0.1,0.1-0.1c0-0.1,0.1-0.1,0.2-0.2c0-0.1,0.1-0.1,0.2-0.2
			c0-0.1,0-0.1,0.1-0.1s0.2-0.2,0.3-0.3l0,0c0.6-0.8,1.1-1.7,1.7-2.6l6.2,0.5c0.4,0,0.8-0.2,0.9-0.7l1.4-5c0.1-0.4,0-0.8-0.4-1
			l-5.5-2.9c0.1-1,0-2,0-3l0,0c-0.1-0.1,0-0.3-0.1-0.4c0-0.1,0-0.1,0-0.2s0-0.2,0-0.3c0-0.1,0-0.2,0-0.3s0-0.1,0-0.2
			c0-0.2,0-0.3,0-0.5l0,0c-0.2-1-0.4-1.9-0.7-3l4.7-4.1c0.4-0.3,0.4-0.7,0.2-1.1L138,56c-0.2-0.3-0.7-0.6-1.1-0.4l-6,1.9
			c-0.7-0.8-1.4-1.5-2.1-2.2l0,0c-0.1-0.1-0.2-0.2-0.3-0.3c-0.1,0-0.1,0-0.1-0.1c-0.1,0-0.1-0.1-0.2-0.2c-0.1,0-0.1-0.1-0.2-0.2
			c-0.1,0-0.1,0-0.1-0.1c-0.1-0.1-0.2-0.2-0.3-0.3l0,0c-0.8-0.6-1.7-1.1-2.6-1.7l0.4-6.1c0-0.4-0.2-0.8-0.7-0.9l-5-1.4
			c-0.4-0.1-0.8,0-1,0.4l-2.9,5.5c-1-0.1-2,0-3,0l0,0c-0.1,0.1-0.3,0-0.4,0.1c-0.1,0-0.1,0-0.2,0s-0.2,0-0.3,0c-0.1,0-0.2,0-0.3,0
			c-0.1,0-0.1,0-0.2,0c-0.1,0.1-0.3,0-0.4,0.1l0,0c-1,0.2-1.9,0.4-3,0.7l-4.1-4.7c-0.3-0.4-0.7-0.4-1.1-0.2l-4.6,2.6
			c-0.3,0.2-0.6,0.7-0.4,1.1l1.9,6c-0.8,0.7-1.5,1.4-2.2,2.1l0,0c-0.1,0.1-0.2,0.2-0.3,0.3c0,0.1,0,0.1-0.1,0.1
			c0,0.1-0.1,0.1-0.2,0.2c0,0.1-0.1,0.1-0.2,0.2s0,0.1-0.1,0.1c-0.1,0.1-0.2,0.2-0.3,0.3l0,0c-0.6,0.8-1.1,1.7-1.7,2.6L88.4,61
			c-0.4,0-0.8,0.2-0.9,0.7l-1.4,5c-0.1,0.4,0,0.8,0.4,1l5.5,2.9c-0.1,1,0,2,0,3l0,0c0.1,0.1,0,0.3,0.1,0.4c0,0.1,0,0.1,0,0.2
			c0,0.1,0,0.2,0,0.3s0,0.2,0,0.3c0,0.1,0,0.1,0,0.2c0.1,0.1,0,0.3,0.1,0.4l0,0c0.2,1,0.4,1.9,0.7,3L88,82.5
			c-0.4,0.3-0.4,0.7-0.2,1.1l2.6,4.6c0.2,0.3,0.7,0.6,1.1,0.4l6-1.9c0.7,0.8,1.4,1.5,2.1,2.2l0,0c0.1,0.1,0.2,0.2,0.3,0.3
			c0.1,0,0.1,0,0.1,0.1c0.1,0,0.1,0.1,0.2,0.2c0.1,0,0.1,0.1,0.2,0.2c0.1,0,0.1,0,0.1,0.1c0.1,0.1,0.2,0.2,0.3,0.3l0,0
			c0.8,0.6,1.7,1.1,2.6,1.7l-0.5,6.2c0,0.4,0.2,0.8,0.7,0.9l5.1,1.5c0.4,0.1,0.8,0,1-0.4l2.9-5.5c1,0.1,2,0,3,0l0,0
			c0.1-0.1,0.3,0,0.4-0.1c0.1,0,0.1,0,0.2,0s0.2,0,0.3,0c0.1,0,0.2,0,0.3,0c0.1,0,0.1,0,0.2,0c0.1-0.1,0.3,0,0.4-0.1l0,0
			c1-0.2,1.9-0.4,3-0.7l4.1,4.7c0.3,0.4,0.7,0.4,1.1,0.2l4.6-2.6c0.3-0.2,0.6-0.7,0.4-1.1l-1.9-6C129.7,88.2,130.4,87.4,131,86.6
			L131,86.6z M124.9,75.2c-1.7,5.9-7.8,9.3-13.8,7.7c-5.9-1.7-9.3-7.8-7.7-13.8c1.7-5.9,7.8-9.3,13.8-7.7
			C123.2,63.2,126.6,69.4,124.9,75.2z"/>
	</g>
	<g id="icons_9_">
		<path fill="#A1D5E5" d="M46.6,61.8c0-0.1,0-0.1,0-0.2c0,0,0,0,0-0.1v-0.1v-0.1c0,0,0,0,0-0.1s0-0.1,0-0.2l0,0c0-0.5,0-1,0-1.5
			l2.7-1.4c0.2-0.1,0.3-0.3,0.2-0.5l-0.7-2.4c-0.1-0.2-0.2-0.3-0.5-0.3l-3,0.3c-0.2-0.4-0.5-0.8-0.8-1.2l0,0c-0.1,0-0.1-0.1-0.1-0.1
			s0,0-0.1-0.1l-0.1-0.1l-0.1-0.1c0,0,0,0-0.1-0.1c-0.1-0.1-0.1-0.1-0.1-0.2l0,0c-0.3-0.4-0.7-0.7-1.1-1l0.9-2.9
			c0.1-0.2,0-0.4-0.2-0.5l-2.2-1.2c-0.2-0.1-0.4-0.1-0.5,0.1l-2,2.3c-0.5-0.1-1-0.3-1.4-0.3l0,0c-0.1,0-0.1,0-0.2,0c0,0,0,0-0.1,0
			H37h-0.1c0,0,0,0-0.1,0s-0.1,0-0.2,0l0,0c-0.5,0-1,0-1.5,0l-1.4-2.6c-0.1-0.2-0.3-0.3-0.5-0.2l-2.4,0.7c-0.2,0.1-0.3,0.2-0.3,0.5
			l0.3,3c-0.4,0.2-0.8,0.5-1.2,0.8l0,0c0,0.1-0.1,0.1-0.1,0.1s0,0-0.1,0.1l-0.1,0.1l-0.1,0.1c0,0,0,0-0.1,0.1c0,0.1-0.1,0.1-0.1,0.1
			l0,0c-0.4,0.3-0.7,0.7-1,1.1l-3-1.4c-0.2-0.1-0.4,0-0.5,0.2l-1.2,2.2c-0.1,0.2-0.1,0.4,0.1,0.5l2.3,2c-0.1,0.5-0.3,1-0.3,1.4l0,0
			c0,0.1,0,0.1,0,0.2c0,0,0,0,0,0.1V59v0.1c0,0,0,0,0,0.1s0,0.1,0,0.2l0,0c0,0.5,0,1,0,1.5l-2.7,1.4c-0.2,0.1-0.3,0.3-0.2,0.5
			l0.7,2.4c0.1,0.2,0.2,0.3,0.5,0.3l3-0.3c0.2,0.4,0.5,0.8,0.8,1.2l0,0c0.1,0,0.1,0.1,0.1,0.1s0,0,0.1,0.1l0.1,0.1l0.1,0.1
			c0,0,0,0,0.1,0.1c0.1,0,0.1,0.1,0.1,0.1l0,0c0.3,0.4,0.7,0.7,1.1,1l-0.9,3c-0.1,0.2,0,0.4,0.2,0.5l2.2,1.2
			c0.2,0.1,0.4,0.1,0.5-0.1l2-2.3c0.5,0.1,1,0.3,1.4,0.3l0,0c0.1,0,0.1,0,0.2,0c0,0,0,0,0.1,0H35h0.1c0,0,0,0,0.1,0s0.1,0,0.2,0l0,0
			c0.5,0,1,0,1.5,0l1.4,2.7c0.1,0.2,0.3,0.3,0.5,0.2l2.5-0.7c0.2-0.1,0.3-0.2,0.3-0.5l-0.3-3c0.4-0.2,0.8-0.5,1.2-0.8l0,0
			c0-0.1,0.1-0.1,0.1-0.1s0,0,0.1-0.1l0.1-0.1l0.1-0.1c0,0,0,0,0.1-0.1c0-0.1,0.1-0.1,0.1-0.1l0,0c0.4-0.3,0.7-0.7,1-1.1l2.9,0.9
			c0.2,0.1,0.4,0,0.5-0.2l1.2-2.2c0.1-0.2,0.1-0.4-0.1-0.5l-2.3-2C46.5,62.8,46.6,62.3,46.6,61.8L46.6,61.8z M41.2,58.7
			c0.8,2.8-0.8,5.9-3.7,6.7s-5.9-0.8-6.7-3.7c-0.8-2.9,0.8-5.9,3.7-6.7C37.3,54.2,40.3,55.8,41.2,58.7z"/>
	</g>
	<g id="icons_8_">
		<path fill="#36557C" d="M76.5,70.7c0.1,0,0.1-0.1,0.2-0.1c0,0,0,0,0.1-0.1l0.1-0.1l0.1-0.1c0,0,0,0,0.1-0.1c0.1,0,0.1-0.1,0.2-0.1
			l0,0c0.5-0.4,0.9-0.8,1.3-1.2l3.4,1.2c0.2,0.1,0.5,0,0.6-0.2l1.6-2.6c0.1-0.2,0.1-0.5-0.1-0.7l-2.7-2.4c0.2-0.5,0.3-1.1,0.4-1.7
			l0,0c0-0.1,0-0.2,0-0.2s0,0,0-0.1c0,0,0-0.1,0-0.2c0,0,0-0.1,0-0.2s0,0,0-0.1s0-0.2,0-0.3l0,0c0-0.6,0.1-1.1,0-1.8l3.3-1.6
			c0.2-0.1,0.3-0.3,0.3-0.6l-0.7-3c-0.1-0.2-0.3-0.4-0.5-0.4l-3.6,0.2c-0.3-0.5-0.6-1.1-0.9-1.5l0,0c0-0.1-0.1-0.1-0.1-0.2
			c0,0,0,0-0.1-0.1l-0.1-0.1l-0.1-0.1c0,0,0,0-0.1-0.1c0-0.1-0.1-0.1-0.1-0.2l0,0c-0.4-0.5-0.8-0.9-1.2-1.3l1.1-3.4
			c0.1-0.2,0-0.5-0.2-0.6L76.2,45c-0.2-0.1-0.5-0.1-0.7,0.1l-2.4,2.7c-0.5-0.2-1.1-0.3-1.7-0.4l0,0c-0.1,0-0.2,0-0.2,0s0,0-0.1,0
			c0,0-0.1,0-0.2,0c0,0-0.1,0-0.2,0c0,0,0,0-0.1,0s-0.2,0-0.2,0l0,0c-0.6,0-1.1-0.1-1.8,0L67,44.1c-0.1-0.2-0.3-0.3-0.6-0.3l-3,0.7
			C63.2,44.6,63,44.8,63,45l0.2,3.6c-0.5,0.3-1.1,0.6-1.5,0.9l0,0c-0.1,0-0.1,0.1-0.2,0.1c0,0,0,0-0.1,0.1l-0.1,0.1l-0.1,0.1
			c0,0,0,0-0.1,0.1c-0.1,0-0.1,0.1-0.2,0.1l0,0c-0.5,0.4-0.9,0.8-1.3,1.2L56.4,50c-0.2-0.1-0.5,0-0.6,0.2l-1.6,2.6
			c-0.1,0.2-0.1,0.5,0.1,0.7l2.7,2.4c-0.2,0.5-0.3,1.1-0.4,1.7l0,0c0,0.1,0,0.2,0,0.2s0,0,0,0.1c0,0,0,0.1,0,0.2s0,0.1,0,0.2
			c0,0,0,0,0,0.1s0,0.2,0,0.2l0,0c0,0.6-0.1,1.1,0,1.8L53,62c-0.2,0.1-0.3,0.3-0.3,0.6l0.7,3c0.1,0.2,0.3,0.4,0.5,0.4l3.6-0.2
			c0.3,0.5,0.6,1.1,0.9,1.5l0,0c0,0.1,0.1,0.1,0.1,0.2c0,0,0,0,0.1,0.1l0.1,0.1l0.1,0.1c0,0,0,0,0.1,0.1c0,0.1,0.1,0.1,0.1,0.2l0,0
			c0.4,0.5,0.8,0.9,1.2,1.3L59,72.8c-0.1,0.2,0,0.5,0.2,0.6l2.6,1.6c0.2,0.1,0.5,0.1,0.7-0.1l2.4-2.7c0.5,0.2,1.1,0.3,1.7,0.4l0,0
			c0.1,0,0.2,0,0.2,0s0,0,0.1,0c0,0,0.1,0,0.2,0s0.1,0,0.2,0c0,0,0,0,0.1,0s0.2,0,0.2,0l0,0c0.6,0,1.1,0.1,1.8,0l1.6,3.3
			c0.1,0.2,0.3,0.3,0.6,0.3l3-0.7c0.2-0.1,0.4-0.3,0.4-0.5l-0.2-3.6C75.5,71.3,76,71,76.5,70.7L76.5,70.7z M74.8,63.3
			c-1.8,3-5.8,4.1-8.9,2.2c-3.1-1.8-4.1-5.8-2.2-8.9c1.8-3.1,5.8-4.1,8.9-2.2C75.6,56.3,76.6,60.3,74.8,63.3z"/>
	</g>
</g>
</svg>
