<?xml version="1.0" encoding="utf-8"?>
<!-- Generator: Adobe Illustrator 19.2.0, SVG Export Plug-In . SVG Version: 6.00 Build 0)  -->
<svg version="1.1" id="Layer_1" xmlns="http://www.w3.org/2000/svg" xmlns:xlink="http://www.w3.org/1999/xlink" x="0px" y="0px"
	 viewBox="0 0 200 200" enable-background="new 0 0 200 200" xml:space="preserve">
<g>
	<circle fill="#FFFFFF" cx="99.8" cy="100" r="53.6"/>
	<g>
		<path fill="#D8D8D8" d="M99.8,151.2c15.9,0,30.1-7,39.7-18.2c-0.3-1.8-0.7-3.4-1.3-4.3c-2.6-4-8.3-6.5-16.9-10
			c-8.6-3.6-10.6-4.8-10.6-4.8l-0.1-8.2c0,0,3.2-2.5,4.1-10.1c2,0.6,4.1-3,4.2-4.9c0.1-1.8-0.3-6.8-2.7-6.4c0.5-3.8,0.9-7.2,0.7-9
			c-0.7-6.6-7.1-13.5-17-13.5c-9.9,0-16.5,6.9-17,13.5c-0.2,1.8,0.2,5.2,0.7,9c-2.4-0.5-2.8,4.5-2.7,6.4c0.1,1.8,2.2,5.5,4.2,4.9
			c1,7.7,4.2,10.1,4.2,10.1l-0.1,8.2c0,0-2,1.3-10.6,4.8c-8.6,3.6-14.8,6.1-17.4,10c-0.6,1-1,2.4-1.3,4.2
			C69.7,144.1,83.9,151.2,99.8,151.2z"/>
	</g>
	<path fill="#A1D5E5" d="M87.3,49.6c3.4-0.9,7-1.4,10.7-1.5l25.8-15.3l-28-18.2c-2.7,0.1-5.5,0.3-8.1,0.8l-3.3,16.7L87.3,49.6z"/>
	<path fill="#36557C" d="M157.7,123.9l-8.5-9.3c-1.1,3.6-2.6,7-4.4,10.2l0.9,28.7l28.5-12.5c1.3-2.4,2.5-4.8,3.6-7.3L157.7,123.9z"
		/>
	<path fill="#FEDF6E" d="M62.8,135.7c-2.5-2.6-4.8-5.5-6.7-8.4l-25.6-14.3l-2.5,32.7c1.5,2.3,3.1,4.5,4.7,6.7l11-15.5L62.8,135.7z"
		/>
	<path fill="#A1D5E5" d="M56,127.3c-5-7.9-7.9-17.4-7.9-27.5c0-24.2,16.7-44.5,39.2-50.1l17.4-16.8L87.7,15.5
		c-41.3,5.9-73,41.4-73,84.3c0,16.9,4.9,32.6,13.4,45.8l6.7-24.4L56,127.3z"/>
	<path fill="#36557C" d="M98,48.2c0.6,0,1.2-0.1,1.8-0.1c28.5,0,51.6,23.1,51.6,51.6c0,5.2-0.8,10.2-2.2,14.9l5.1,24.2l23.5-5.1
		c4.5-10.4,7.1-21.9,7.1-33.9c0-47-38-85.1-85-85.1c-1.4,0-2.6,0-3.9,0.1L113.8,33L98,48.2z"/>
	<path fill="#FEDF6E" d="M144.9,124.9c-8.8,15.8-25.7,26.5-45.1,26.5c-14.5,0-27.6-6-37-15.7L39.2,129l-6.4,23.2
		c15.6,19.9,39.8,32.7,67,32.7c32.1,0,59.9-17.7,74.5-43.8l-24.7,5.5L144.9,124.9z"/>
</g>
</svg>
