<?xml version="1.0" encoding="utf-8"?>
<!-- Generator: Adobe Illustrator 19.2.0, SVG Export Plug-In . SVG Version: 6.00 Build 0)  -->
<svg version="1.1" id="Layer_1" xmlns="http://www.w3.org/2000/svg" xmlns:xlink="http://www.w3.org/1999/xlink" x="0px" y="0px"
	 viewBox="0 0 200 200" enable-background="new 0 0 200 200" xml:space="preserve">
<g>
	<circle fill="#FFFFFF" cx="84.8" cy="84.8" r="55.7"/>
	
		<rect x="134" y="122.7" transform="matrix(0.7071 -0.7071 0.7071 0.7071 -58.3912 141.0381)" fill="#DDDDDD" width="14" height="36.5"/>
	<path fill="#36557C" d="M134.6,134.6c27.5-27.5,27.5-72.2,0-99.7l-14.9,15c19.3,19.3,19.3,50.6,0,69.9
		C126.4,126.4,125.9,125.9,134.6,134.6z"/>
	<path fill="#FEDF6E" d="M34.9,34.9c-27.5,27.5-27.5,72.2,0,99.7l15-14.9c-19.3-19.3-19.3-50.6,0-69.9
		C43.3,43.3,43.6,43.6,34.9,34.9z"/>
	<path fill="#F06572" d="M34.9,134.6c27.5,27.5,72.2,27.5,99.7,0l-14.9-14.9c-19.3,19.3-50.6,19.3-69.9,0
		C43.3,126.4,43.6,125.9,34.9,134.6z"/>
	<path fill="#A1D5E5" d="M134.6,34.9c-27.5-27.5-72.2-27.5-99.7,0l15,15c19.3-19.3,50.6-19.3,69.9,0
		C126.4,43.3,125.9,43.6,134.6,34.9z"/>
	<path fill="#FFFFFF" d="M183.4,174.9l-8.5,8.5c-2.6,2.6-6.8,2.6-9.4,0l-30.8-30.8c-2.6-2.6-2.6-6.8,0-9.4l8.5-8.5
		c2.6-2.6,6.8-2.6,9.4,0l30.8,30.8C186,168.1,186,172.3,183.4,174.9z"/>
</g>
</svg>