<svg id="Layer_1" data-name="Layer 1" xmlns="http://www.w3.org/2000/svg" viewBox="0 0 1024 535"><defs><style>.cls-1{fill:#263b86;}.cls-2,.cls-5{fill:#fff;}.cls-2,.cls-3,.cls-4,.cls-7,.cls-9{isolation:isolate;}.cls-3{fill:#015399;}.cls-3,.cls-4{opacity:0.8;}.cls-4{fill:#87cade;}.cls-6{fill:none;stroke:#263b86;stroke-miterlimit:10;stroke-width:2px;}.cls-7,.cls-9{opacity:0.8;}.cls-8,.cls-9{fill:#eb2030;}</style></defs><title>dpl-hero</title><rect class="cls-1" x="0.09" width="1024" height="535"/><rect class="cls-2" x="301.55" y="78.67" width="423.9" height="376"/><rect class="cls-3" x="301.55" y="78.67" width="86.45" height="376"/><rect class="cls-4" x="387.55" y="78.67" width="338.55" height="376"/><rect class="cls-5" x="408.32" y="103.17" width="297" height="327.73"/><rect class="cls-6" x="431.82" y="123.17" width="250" height="30" rx="4" ry="4"/><g class="cls-7"><rect class="cls-8" x="660.64" y="133.17" width="10" height="10" rx="5" ry="5"/></g><rect class="cls-1" x="441.82" y="138.67" width="180" height="6"/><rect class="cls-1" x="441.82" y="131.67" width="55" height="2"/><rect class="cls-9" x="502.44" y="343.67" width="75" height="2"/><rect class="cls-6" x="431.82" y="265.17" width="250" height="30" rx="4" ry="4"/><rect class="cls-1" x="441.82" y="280.67" width="180" height="6"/><rect class="cls-1" x="441.82" y="273.67" width="55" height="2"/><rect class="cls-1" x="441.82" y="343.67" width="55" height="2"/><rect class="cls-1" x="583.05" y="343.67" width="55" height="2"/><rect class="cls-9" x="497.81" y="156.33" width="184.19" height="47.99" rx="4" ry="4"/><rect class="cls-8" x="509.89" y="171.33" width="144" height="6"/><rect class="cls-8" x="509.89" y="182.33" width="144" height="6"/><rect class="cls-9" x="499.47" y="350.67" width="118.46" height="47.99" rx="4" ry="4"/><rect class="cls-8" x="511.55" y="365.67" width="94.67" height="6"/><rect class="cls-8" x="511.55" y="376.67" width="94.67" height="6"/></svg>