<svg id="Layer_1" data-name="Layer 1" xmlns="http://www.w3.org/2000/svg" viewBox="0 0 1024 535"><defs><style>.cls-1{fill:#263b86;}.cls-2,.cls-5{fill:#fff;}.cls-2,.cls-3,.cls-4,.cls-6{isolation:isolate;}.cls-3{fill:#015399;}.cls-3,.cls-4{opacity:0.8;}.cls-4{fill:#87cade;}.cls-6{fill:#eb2030;opacity:0.8;}</style></defs><title>dpl-hero</title><rect class="cls-1" x="0.09" width="1024" height="535"/><rect class="cls-2" x="301.55" y="78.67" width="423.9" height="376"/><rect class="cls-3" x="301.55" y="78.67" width="86.45" height="376"/><rect class="cls-4" x="387.55" y="78.67" width="338.55" height="376"/><rect class="cls-5" x="408.25" y="98.67" width="297" height="266.2"/><rect class="cls-3" x="428.25" y="118.67" width="79.26" height="69.42"/><rect class="cls-6" x="452.88" y="128.37" width="30" height="8" rx="4" ry="4"/><rect class="cls-1" x="435.55" y="166.7" width="64.67" height="6"/><rect class="cls-1" x="440.38" y="159.7" width="55" height="2"/><rect class="cls-3" x="516.75" y="118.67" width="79.26" height="69.42"/><rect class="cls-6" x="541.38" y="128.37" width="30" height="8" rx="4" ry="4"/><rect class="cls-1" x="524.05" y="166.7" width="64.67" height="6"/><rect class="cls-1" x="528.88" y="159.7" width="55" height="2"/><rect class="cls-3" x="605.25" y="118.67" width="79.26" height="69.42"/><rect class="cls-1" x="612.55" y="166.7" width="64.67" height="6"/><rect class="cls-1" x="617.38" y="159.7" width="55" height="2"/><rect class="cls-3" x="428.25" y="195.43" width="79.26" height="69.42"/><rect class="cls-1" x="435.55" y="243.46" width="64.67" height="6"/><rect class="cls-1" x="440.38" y="236.46" width="55" height="2"/><rect class="cls-4" x="428.25" y="272.67" width="79.26" height="69.42"/><rect class="cls-6" x="428.25" y="272.67" width="55" height="2"/><rect class="cls-4" x="516.75" y="272.67" width="79.26" height="69.42"/><rect class="cls-6" x="516.75" y="272.67" width="40" height="2"/><rect class="cls-4" x="605.25" y="272.67" width="79.26" height="69.42"/><rect class="cls-6" x="605.25" y="272.67" width="20" height="2"/><rect class="cls-3" x="516.75" y="195.43" width="79.26" height="69.42"/><rect class="cls-1" x="524.05" y="243.46" width="64.67" height="6"/><rect class="cls-1" x="528.88" y="236.46" width="55" height="2"/><rect class="cls-3" x="605.25" y="195.43" width="79.26" height="69.42"/><rect class="cls-1" x="612.55" y="243.46" width="64.67" height="6"/><rect class="cls-1" x="617.38" y="236.46" width="55" height="2"/></svg>