<svg id="Layer_1" data-name="Layer 1" xmlns="http://www.w3.org/2000/svg" xmlns:xlink="http://www.w3.org/1999/xlink" viewBox="0 0 1024 535"><defs><style>.cls-1{fill:none;}.cls-2{fill:#263b86;}.cls-3,.cls-6{fill:#fff;}.cls-10,.cls-3,.cls-4,.cls-5,.cls-9{isolation:isolate;}.cls-4{fill:#015399;}.cls-4,.cls-5{opacity:0.8;}.cls-5{fill:#87cade;}.cls-7{clip-path:url(#clip-path);}.cls-8,.cls-9{fill:#eb2030;}.cls-10,.cls-9{opacity:0.8;}.cls-11{clip-path:url(#clip-path-2);}</style><clipPath id="clip-path"><rect class="cls-1" x="408.32" y="103.17" width="297" height="179.01"/></clipPath><clipPath id="clip-path-2"><rect class="cls-1" x="408.32" y="302.67" width="297" height="126.18"/></clipPath></defs><title>dpl-hero</title><rect class="cls-2" x="0.09" width="1024" height="535"/><rect class="cls-3" x="301.55" y="78.67" width="423.9" height="376"/><rect class="cls-4" x="301.55" y="78.67" width="86.45" height="376"/><rect class="cls-5" x="387.55" y="78.67" width="338.55" height="376"/><rect class="cls-6" x="408.32" y="103.17" width="297" height="179.01"/><rect class="cls-6" x="408.32" y="302.67" width="297" height="126.18"/><g class="cls-7"><circle class="cls-8" cx="496.68" cy="187.99" r="15.5"/><circle class="cls-8" cx="574.84" cy="161.61" r="15.5"/><circle class="cls-8" cx="651.99" cy="126.66" r="15.5"/><path class="cls-9" d="M704.57,96.53c-13.46-3.45-23.36,7.1-35.91,20.43l-2.77,2.93A15.4,15.4,0,0,1,644.24,140c-13.39,10.23-30.33,18.71-53.91,20.86h-0.06c0,0.25.07,0.49,0.07,0.74a15.46,15.46,0,0,1-30.1,5c-8.82,2.1-17.58,4.36-24.33,6.12l-6,1.55c-7.32,1.87-13.92,3.71-20,5.78a15.32,15.32,0,0,1,2.25,7.92,15.49,15.49,0,0,1-29.65,6.27c-10.76,8.4-20.32,20.45-30.85,39.39-7.42,13.35-15.3,20.12-23.41,20.12H427.8c-10.13-.33-17.31-11.06-20-15.78v46H705.28V96.74Z"/><g class="cls-10"><path class="cls-8" d="M407.76,231.12V238c2.69,4.73,10.06,15.5,20.18,15.83h0.48c8.12,0,16-6.77,23.41-20.12,23.1-41.56,41.57-50,78.22-59.36l6-1.55c15.4-4,41.19-10.67,54.42-11.88,40.47-3.7,61.47-26,78.33-43.9,12.56-13.33,23-23.86,36.44-20.42l0-3.08c-15.23-3.89-25.44,7.25-38.7,21.34-16.5,17.52-37,39.34-76.33,42.92-13.49,1.24-39.42,8-54.92,12l-6,1.54c-37.56,9.59-56.5,18.24-80.2,60.88-6.95,12.5-14,18.75-21,18.5-10.8-.35-18.35-16-18.43-16.18Z"/><polygon class="cls-8" points="407.79 237.98 407.79 237.98 407.78 237.95 407.79 237.98"/></g></g><g class="cls-11"><path class="cls-9" d="M419.53,431.23v-83c0-.77,1.48-1.4,3.32-1.4h2.21c1.83,0,3.32.63,3.32,1.4v83"/><path class="cls-9" d="M440.54,445.59V348.48c0-.9,1.34-1.63,3-1.63h2c1.66,0,3,.73,3,1.63v97.11"/><path class="cls-9" d="M461.13,441.34V325.92c0-1.07,1.34-1.94,3-1.94h2c1.66,0,3,.87,3,1.94V441.34"/><path class="cls-9" d="M593.09,452.51v-83c0-.77-1.48-1.4-3.32-1.4h-2.21c-1.83,0-3.32.63-3.32,1.4v83"/><path class="cls-9" d="M510.73,452.51v-83c0-.77-1.48-1.4-3.32-1.4h-2.21c-1.83,0-3.32.63-3.32,1.4v83"/><path class="cls-9" d="M572.08,431.23V334.12c0-.9-1.34-1.63-3-1.63h-2c-1.66,0-3,.73-3,1.63v97.11"/><path class="cls-9" d="M613.26,438.15V341c0-.9-1.34-1.63-3-1.63h-2c-1.66,0-3,.73-3,1.63v97.11"/><path class="cls-9" d="M654.44,472.72V375.61c0-.9-1.34-1.63-3-1.63h-2c-1.66,0-3,.73-3,1.63v97.11"/><path class="cls-9" d="M675,438.68V341.57c0-.9-1.34-1.63-3-1.63h-2c-1.66,0-3,.73-3,1.63v97.11"/><path class="cls-9" d="M695.62,508.89V411.78c0-.9-1.34-1.63-3-1.63h-2c-1.66,0-3,.73-3,1.63v97.11"/><path class="cls-9" d="M489.72,445.06V348c0-.9-1.34-1.63-3-1.63h-2c-1.66,0-3,.73-3,1.63v97.11"/><path class="cls-9" d="M551.49,431.23v-107c0-1-1.34-1.8-3-1.8h-2c-1.66,0-3,.81-3,1.8v107"/><path class="cls-9" d="M530.9,453.57v-107c0-1-1.34-1.8-3-1.8h-2c-1.66,0-3,.81-3,1.8v107"/><path class="cls-9" d="M633.85,431.23V309c0-1.14-1.34-2.06-3-2.06h-2c-1.66,0-3,.92-3,2.06V431.23"/></g></svg>