<svg id="Layer_1" data-name="Layer 1" xmlns="http://www.w3.org/2000/svg" viewBox="0 0 1024 535"><defs><style>.cls-1{fill:#263b86;}.cls-2,.cls-5,.cls-6{fill:#fff;}.cls-2,.cls-3,.cls-4,.cls-6,.cls-7,.cls-8,.cls-9{isolation:isolate;}.cls-3{fill:#015399;}.cls-3,.cls-4{opacity:0.8;}.cls-4{fill:#87cade;}.cls-6,.cls-7{stroke:#eb2030;stroke-miterlimit:10;}.cls-6{stroke-width:2px;}.cls-6,.cls-7,.cls-8,.cls-9{opacity:0.8;}.cls-7{fill:none;}.cls-10,.cls-8{fill:#eb2030;}</style></defs><title>dpl-hero</title><rect class="cls-1" x="0.09" width="1024" height="535"/><rect class="cls-2" x="301.55" y="78.67" width="423.9" height="376"/><rect class="cls-3" x="301.55" y="78.67" width="86.45" height="376"/><rect class="cls-4" x="387.55" y="78.67" width="338.55" height="376"/><rect class="cls-5" x="408.25" y="98.67" width="297" height="260.12"/><rect class="cls-6" x="431.75" y="128.67" width="250" height="30" rx="4" ry="4"/><rect class="cls-6" x="431.75" y="200" width="250" height="30" rx="4" ry="4"/><line class="cls-7" x1="509.33" y1="134" x2="509.33" y2="154"/><rect class="cls-8" x="430.33" y="231.67" width="251.33" height="96.67" rx="4" ry="4"/><g class="cls-9"><rect class="cls-10" x="660.57" y="210" width="10" height="10"/></g><rect class="cls-10" x="468.08" y="251.67" width="180" height="6"/><rect class="cls-10" x="468.08" y="276.33" width="180" height="6"/><rect class="cls-10" x="468.08" y="303.67" width="180" height="6"/><rect class="cls-1" x="441.75" y="144.17" width="64.67" height="6"/><rect class="cls-1" x="441.75" y="137.17" width="55" height="2"/><rect class="cls-1" x="441.75" y="215.5" width="180" height="6"/><rect class="cls-1" x="441.75" y="208.5" width="55" height="2"/></svg>