<?xml version="1.0" encoding="utf-8"?>
<!-- Generator: Adobe Illustrator 19.2.0, SVG Export Plug-In . SVG Version: 6.00 Build 0)  -->
<svg version="1.1" id="Layer_1" xmlns="http://www.w3.org/2000/svg" xmlns:xlink="http://www.w3.org/1999/xlink" x="0px" y="0px"
	 viewBox="0 0 200 200" enable-background="new 0 0 200 200" xml:space="preserve">
<g>
	<path opacity="0.53" fill="#88CBDF" d="M96.6,73L96.6,73c-1.1,0-2.2,0.5-2.9,1.3c-1.7,2.1-4.4,3.5-7.4,3.5
		c-7.3,0-12.6-8.2-7.3-15.9c0.2-0.3,0.5-0.6,0.9-0.9c5.3-3.7,10.8-2.3,13.7,1.3c0.7,0.9,1.8,1.4,2.9,1.4h0c1.8,0,3.3-1.3,3.6-2.9V36
		v0h-24c-2.1,0-3.7-1.7-3.7-3.7v0c0-1.1,0.5-2.2,1.4-2.9c3.6-2.9,5-8.5,1.3-13.7c-0.2-0.3-0.5-0.6-0.9-0.9c-7.7-5.3-15.9,0-15.9,7.3
		c0,3,1.4,5.6,3.5,7.4c0.9,0.7,1.3,1.8,1.3,2.9v0c0,2.1-1.7,3.7-3.7,3.7H36.5v0v24c0,2.1-1.7,3.7-3.7,3.7h0c-1.1,0-2.2-0.5-2.9-1.4
		c-2.9-3.6-8.5-5-13.7-1.3c-0.3,0.2-0.6,0.5-0.9,0.9c-5.3,7.7,0,15.9,7.3,15.9c3,0,5.6-1.4,7.4-3.5c0.7-0.9,1.8-1.3,2.9-1.3h0
		c2.1,0,3.7,1.7,3.7,3.7v23.1v0h23.1c2.1,0,3.7,1.7,3.7,3.7v0c0,1.1-0.5,2.2-1.4,2.9c-3.6,2.9-5,8.5-1.3,13.7
		c0.2,0.3,0.5,0.6,0.9,0.9c7.7,5.3,15.9,0,15.9-7.3c0-3-1.4-5.6-3.5-7.4c-0.9-0.7-1.3-1.8-1.3-2.9v0c0-2.1,1.7-3.7,3.7-3.7h24v0
		V75.9C99.9,74.2,98.4,73,96.6,73z"/>
	<path fill="#36557C" d="M100.4,59.9c0,2.1-1.7,3.7-3.7,3.7h0c-1.1,0-2.2-0.5-2.9-1.4c-2.9-3.6-8.5-5-13.7-1.3
		c-0.3,0.2-0.6,0.5-0.9,0.9c-5.3,7.7,0,15.9,7.3,15.9c3,0,5.6-1.4,7.4-3.5c0.7-0.9,1.8-1.3,2.9-1.3h0c2.1,0,3.7,1.7,3.7,3.7v23.1h0
		h23.5c1.8-0.2,3.3-1.8,3.3-3.7v0c0-1.1-0.5-2.2-1.3-2.9c-2.1-1.7-3.5-4.4-3.5-7.4c0-7.3,8.2-12.6,15.9-7.3c0.3,0.2,0.6,0.5,0.9,0.9
		c3.7,5.3,2.3,10.8-1.3,13.7c-0.9,0.7-1.4,1.8-1.4,2.9v0c0,1.9,1.4,3.4,3.3,3.7h24.5h0V76.6c0-2.1,1.7-3.7,3.7-3.7h0
		c1.1,0,2.2,0.5,2.9,1.4c2.9,3.6,8.5,5,13.7,1.3c0.3-0.2,0.6-0.5,0.9-0.9c5.3-7.7,0-15.9-7.3-15.9c-3,0-5.6,1.4-7.4,3.5
		c-0.7,0.9-1.8,1.3-2.9,1.3h0c-2.1,0-3.7-1.7-3.7-3.7v-24h0h-23.9c-1.7,0.4-2.9,1.9-2.9,3.6v0c0,1.1,0.5,2.2,1.3,2.9
		c2.1,1.7,3.5,4.4,3.5,7.4c0,7.3-8.2,12.6-15.9,7.3c-0.3-0.2-0.6-0.5-0.9-0.9c-3.7-5.3-2.3-10.8,1.3-13.7c0.9-0.7,1.4-1.8,1.4-2.9v0
		c0-1.8-1.3-3.3-2.9-3.6h-24.8h0V59.9z"/>
	<path fill="#F06572" d="M140.2,99.8c-2.1,0-3.7-1.7-3.7-3.7v0c0-1.1,0.5-2.2,1.4-2.9c3.6-2.9,5-8.5,1.3-13.7
		c-0.2-0.3-0.5-0.6-0.9-0.9c-7.7-5.3-15.9,0-15.9,7.3c0,3,1.4,5.6,3.5,7.4c0.9,0.7,1.3,1.8,1.3,2.9v0c0,2.1-1.7,3.7-3.7,3.7h-23.1v0
		v23.5c0.2,1.8,1.8,3.3,3.7,3.3h0c1.1,0,2.2-0.5,2.9-1.3c1.7-2.1,4.4-3.5,7.4-3.5c7.3,0,12.6,8.2,7.3,15.9c-0.2,0.3-0.5,0.6-0.9,0.9
		c-5.3,3.7-10.8,2.3-13.7-1.3c-0.7-0.9-1.8-1.4-2.9-1.4h0c-1.9,0-3.4,1.4-3.7,3.3v24.5v0h23.1c2.1,0,3.7,1.7,3.7,3.7v0
		c0,1.1-0.5,2.2-1.4,2.9c-3.6,2.9-5,8.5-1.3,13.7c0.2,0.3,0.5,0.6,0.9,0.9c7.7,5.3,15.9,0,15.9-7.3c0-3-1.4-5.6-3.5-7.4
		c-0.9-0.7-1.3-1.8-1.3-2.9v0c0-2.1,1.7-3.7,3.7-3.7h24v0v-23.9c-0.4-1.7-1.9-2.9-3.6-2.9h0c-1.1,0-2.2,0.5-2.9,1.3
		c-1.7,2.1-4.4,3.5-7.4,3.5c-7.3,0-12.6-8.2-7.3-15.9c0.2-0.3,0.5-0.6,0.9-0.9c5.3-3.7,10.8-2.3,13.7,1.3c0.7,0.9,1.8,1.4,2.9,1.4h0
		c1.8,0,3.3-1.3,3.6-2.9V99.8v0H140.2z"/>
	<path fill="#FEDF6E" d="M100.4,139.5c0-2.1,1.7-3.7,3.7-3.7h0c1.1,0,2.2,0.5,2.9,1.4c2.9,3.6,8.5,5,13.7,1.3
		c0.3-0.2,0.6-0.5,0.9-0.9c5.3-7.7,0-15.9-7.3-15.9c-3,0-5.6,1.4-7.4,3.5c-0.7,0.9-1.8,1.3-2.9,1.3h0c-2.1,0-3.7-1.7-3.7-3.7V99.8h0
		H75.8c-1.8,0.2-3.3,1.8-3.3,3.7v0c0,1.1,0.5,2.2,1.3,2.9c2.1,1.7,3.5,4.4,3.5,7.4c0,7.3-8.2,12.6-15.9,7.3
		c-0.3-0.2-0.6-0.5-0.9-0.9c-3.7-5.3-2.3-10.8,1.3-13.7c0.9-0.7,1.4-1.8,1.4-2.9v0c0-1.9-1.4-3.4-3.3-3.7H36.7h0v23.1
		c0,2.1-1.7,3.7-3.7,3.7h0c-1.1,0-2.2-0.5-2.9-1.4c-2.9-3.6-8.5-5-13.7-1.3c-0.3,0.2-0.6,0.5-0.9,0.9c-5.3,7.7,0,15.9,7.3,15.9
		c3,0,5.6-1.4,7.4-3.5c0.7-0.9,1.8-1.3,2.9-1.3h0c2.1,0,3.7,1.7,3.7,3.7v24h0h23.9c1.7-0.4,2.9-1.9,2.9-3.6v0c0-1.1-0.5-2.2-1.3-2.9
		c-2.1-1.7-3.5-4.4-3.5-7.4c0-7.3,8.2-12.6,15.9-7.3c0.3,0.2,0.6,0.5,0.9,0.9c3.7,5.3,2.3,10.8-1.3,13.7c-0.9,0.7-1.4,1.8-1.4,2.9v0
		c0,1.8,1.3,3.3,2.9,3.6h24.8h0V139.5z"/>
</g>
</svg>
