<svg id="Layer_1" data-name="Layer 1" xmlns="http://www.w3.org/2000/svg" viewBox="0 0 1024 535"><defs><style>.cls-1{fill:#263b86;}.cls-2,.cls-5{fill:#fff;}.cls-2,.cls-3,.cls-4,.cls-6,.cls-7,.cls-8{isolation:isolate;}.cls-3{fill:#015399;}.cls-3,.cls-4{opacity:0.8;}.cls-4{fill:#87cade;}.cls-6{fill:none;stroke:#eb2030;stroke-miterlimit:10;stroke-width:2px;}.cls-6,.cls-7,.cls-8{opacity:0.8;}.cls-7,.cls-9{fill:#eb2030;}</style></defs><title>dpl-hero</title><rect class="cls-1" x="0.09" width="1024" height="535"/><rect class="cls-2" x="301.55" y="78.67" width="423.9" height="376"/><rect class="cls-3" x="301.55" y="78.67" width="86.45" height="376"/><rect class="cls-4" x="387.55" y="78.67" width="338.55" height="376"/><rect class="cls-5" x="408.25" y="120.35" width="297" height="256.76"/><rect class="cls-5" x="408.25" y="79.11" width="297" height="20"/><rect class="cls-6" x="448.75" y="285.11" width="100" height="30" rx="4" ry="4"/><rect class="cls-7" x="564.75" y="285.11" width="100" height="30" rx="4" ry="4"/><rect class="cls-7" x="540" y="151" width="50" height="30" rx="15" ry="15"/><rect class="cls-7" x="560" y="151" width="30" height="30" rx="15" ry="15"/><g class="cls-8"><rect class="cls-9" x="685.21" y="414.18" width="30" height="30"/></g><circle class="cls-7" cx="538.32" cy="361.33" r="5"/><circle class="cls-6" cx="556.75" cy="361.33" r="5"/><circle class="cls-6" cx="575.19" cy="361.33" r="5"/><path class="cls-7" d="M631.67,210.75h-142a5,5,0,0,0-5,5v22a5,5,0,0,0,5,5h142a5,5,0,0,0,5-5v-22A5,5,0,0,0,631.67,210.75Zm-145,27v-22a3,3,0,0,1,3-3h45.65v28H489.67A3,3,0,0,1,486.67,237.75Zm148,0a3,3,0,0,1-3,3H585.44v-28h46.23a3,3,0,0,1,3,3v22Z"/><rect class="cls-7" x="314.77" y="90.24" width="60" height="2"/><rect class="cls-7" x="314.77" y="101.47" width="50" height="2"/><rect class="cls-7" x="314.77" y="112.7" width="40" height="2"/><rect class="cls-7" x="314.77" y="123.92" width="30" height="2"/></svg>