<svg id="Layer_1" data-name="Layer 1" xmlns="http://www.w3.org/2000/svg" viewBox="0 0 1024 535"><defs><style>.cls-1{fill:#263b86;}.cls-2,.cls-5{fill:#fff;}.cls-2,.cls-3,.cls-4,.cls-8{isolation:isolate;}.cls-3{fill:#015399;}.cls-3,.cls-4{opacity:0.8;}.cls-4{fill:#87cade;}.cls-6,.cls-7{fill:none;stroke:#263b86;stroke-miterlimit:10;}.cls-6{stroke-width:2px;}.cls-8{fill:#eb2030;opacity:0.8;}</style></defs><title>dpl-hero</title><rect class="cls-1" x="0.09" width="1024" height="535"/><rect class="cls-2" x="301.55" y="78.67" width="423.9" height="376"/><rect class="cls-3" x="301.55" y="78.67" width="86.45" height="376"/><rect class="cls-4" x="387.55" y="78.67" width="338.55" height="376"/><rect class="cls-5" x="408.32" y="103.17" width="297" height="291.03"/><rect class="cls-6" x="431.82" y="149.18" width="250" height="30" rx="4" ry="4"/><line class="cls-7" x1="534.41" y1="154.51" x2="534.41" y2="174.51"/><rect class="cls-8" x="466.82" y="164.68" width="64.67" height="6"/><rect class="cls-8" x="466.82" y="157.68" width="55" height="2"/><path class="cls-8" d="M456.36,169.25l-2.14-2.14,0,0a6.31,6.31,0,1,0-2,2l0,0,2.14,2.14A1.38,1.38,0,0,0,456.36,169.25Zm-12.09-5.56a4.58,4.58,0,1,1,4.58,4.58A4.58,4.58,0,0,1,444.27,163.7Z"/><rect class="cls-1" x="431.08" y="200.67" width="206.47" height="6"/><rect class="cls-1" x="431.08" y="227.6" width="185" height="6"/><rect class="cls-1" x="431.08" y="281.47" width="220" height="6"/><rect class="cls-1" x="431.08" y="308.4" width="125" height="6"/><rect class="cls-1" x="431.08" y="335.33" width="170" height="6"/><rect class="cls-1" x="431.08" y="254.53" width="165" height="6"/></svg>