<svg id="Layer_1" data-name="Layer 1" xmlns="http://www.w3.org/2000/svg" xmlns:xlink="http://www.w3.org/1999/xlink" viewBox="0 0 1024 535"><defs><style>.cls-1,.cls-12,.cls-13{fill:none;}.cls-2{fill:#263b86;}.cls-3,.cls-6{fill:#fff;}.cls-11,.cls-13,.cls-3,.cls-4,.cls-5{isolation:isolate;}.cls-14,.cls-4{fill:#015399;}.cls-13,.cls-4,.cls-5{opacity:0.8;}.cls-5{fill:#87cade;}.cls-7{fill:#eb2030;}.cls-8{fill:#f16274;}.cls-9{clip-path:url(#clip-path);}.cls-10{fill:#ededed;}.cls-11{opacity:0.8;}.cls-12{stroke:#eb2030;stroke-dasharray:3.04 3.04;}.cls-12,.cls-13{stroke-miterlimit:10;}.cls-13{stroke:#015399;}</style><clipPath id="clip-path"><rect class="cls-1" x="338.32" y="103.17" width="297" height="179.01"/></clipPath></defs><title>dpl-hero_transitions</title><rect class="cls-2" x="-69.91" width="1024" height="535"/><rect class="cls-3" x="231.55" y="78.67" width="423.9" height="376"/><rect class="cls-4" x="231.55" y="78.67" width="86.45" height="376"/><rect class="cls-5" x="317.55" y="78.67" width="338.55" height="376"/><rect class="cls-6" x="338.32" y="101.17" width="297" height="179.01"/><rect class="cls-6" x="500.32" y="302.67" width="135" height="126.18"/><rect class="cls-6" x="338.32" y="302.67" width="135" height="126.18"/><rect class="cls-7" x="423.28" y="112.93" width="126.87" height="76.16"/><rect class="cls-7" x="423.28" y="191.55" width="126.87" height="76.16"/><polygon class="cls-8" points="562.83 252.91 410.6 252.91 423.28 190.28 550.15 190.28 562.83 252.91"/><g class="cls-9"><path class="cls-6" d="M486.72,149.78A39.31,39.31,0,0,1,526,189.09c0,21.71-17.6,29.16-39.31,29.16s-39.31-7.45-39.31-29.16A39.31,39.31,0,0,1,486.72,149.78Z"/><path class="cls-10" d="M447.41,189.09a39.31,39.31,0,1,1,78.61,0"/><g class="cls-11"><polygon class="cls-7" points="337.79 237.98 337.79 237.98 337.78 237.95 337.79 237.98"/></g></g><circle class="cls-12" cx="363.88" cy="403.01" r="15.5"/><circle class="cls-7" cx="448.02" cy="328.01" r="15.5"/><path class="cls-13" d="M363.88,403s34.67,3,59.41-15.5S448,328,448,328"/><circle class="cls-14" cx="363.88" cy="403.01" r="1.85"/><circle class="cls-14" cx="448.02" cy="328.01" r="1.85"/><circle class="cls-12" cx="610.14" cy="403.01" r="15.5"/><circle class="cls-7" cx="525.99" cy="328.01" r="15.5"/><path class="cls-13" d="M610.14,403s-34.67,3-59.41-15.5S526,328,526,328"/><circle class="cls-14" cx="610.14" cy="403.01" r="1.85"/><circle class="cls-14" cx="525.99" cy="328.01" r="1.85"/></svg>