<?xml version="1.0" encoding="utf-8"?>
<!-- Generator: Adobe Illustrator 19.1.0, SVG Export Plug-In . SVG Version: 6.00 Build 0)  -->
<svg version="1.1" id="Layer_1" xmlns="http://www.w3.org/2000/svg" xmlns:xlink="http://www.w3.org/1999/xlink" x="0px" y="0px"
	 width="127.3px" height="40px" viewBox="-331 593 127.3 40" style="enable-background:new -331 593 127.3 40;"
	 xml:space="preserve">
<g>
	<g>
		<g>
			<path d="M-287.7,603.9c-1-1.7-6-0.8-12.7,2.3l-0.1,0.1l0.1,0.1c0.3,0.3,0.7,0.5,0.9,0.8l0,0l0,0c5-2.1,8.8-2.7,9.5-1.4
				c0.9,1.5-2.6,5.3-8.5,9.3h-0.1l0.2,0.2h0.1C-290.9,610.5-286.6,605.8-287.7,603.9z"/>
			<path d="M-311.2,621.7c-3.8,1.3-6.4,1.5-7,0.5c-0.5-0.9,0.5-2.7,2.9-5l0.1-0.1l-0.7-0.3l-0.6-0.2l0,0l0,0c-3,2.7-4.2,4.9-3.6,6
				c0.8,1.4,4.1,1.1,9-0.8h0.1L-311.2,621.7L-311.2,621.7z"/>
		</g>
		<path d="M-309.5,603.5c-6.5,0-11.8,3.3-11.8,7.3s5.3,7.3,11.8,7.3s11.8-3.3,11.8-7.3S-303,603.5-309.5,603.5z M-311.5,613.7
			c0.1,0,2.7,0,2.8,0c0,0.1,0.9,3.4,1,3.6c-0.6,0.1-1.2,0.1-1.8,0.1c-1,0-2-0.1-3-0.3C-312.4,616.9-311.5,613.8-311.5,613.7z
			 M-311.2,612.7c0-0.2,1-3.6,1.1-4.1c0.1,0.5,1.1,3.9,1.1,4.1C-309.2,612.7-311.1,612.7-311.2,612.7z M-310.1,604.3
			c-0.1,0.2-2.1,7.7-2.3,8.2c-0.1-0.4-2.1-7.1-2.1-7.2C-313.2,604.7-311.6,604.4-310.1,604.3z M-309.1,604.3c1.5,0,3.1,0.4,4.4,0.9
			c0,0.1-1.9,6.8-2,7.3C-306.8,612-309,604.5-309.1,604.3z M-305.5,612.7c0-0.2,1-3.6,1.1-4.1c0.1,0.5,1.1,3.9,1.1,4.1
			C-303.5,612.7-305.4,612.7-305.5,612.7z M-306.1,614.6c0,0,0.2-0.8,0.2-0.9c0.1,0,2.7,0,2.8,0c0,0.1,0.4,1.5,0.5,1.6
			c-0.8,0.6-1.8,1.1-2.9,1.4C-305.5,616.6-306,614.6-306.1,614.6z M-300.7,613.5c-0.1-0.3-2-6.9-2.1-7.3c1.9,1.2,2.9,2.9,2.9,4.7
			C-299.9,611.8-300.2,612.6-300.7,613.5z M-313.6,616.8c-1.6-0.5-2.9-1.3-3.8-2.2c0-0.1,0.2-0.7,0.2-0.8c0.1,0,2.7,0,2.8,0
			C-314.4,613.8-313.7,616.5-313.6,616.8z M-316.9,612.7c0-0.2,1-3.6,1.1-4.1c0.1,0.5,1.1,3.9,1.1,4.1
			C-314.9,612.7-316.8,612.7-316.9,612.7z M-316.3,606.3c-0.1,0.4-1.9,6.8-2,7.2c-0.5-0.8-0.8-1.7-0.8-2.6
			C-319.1,609.1-318.1,607.5-316.3,606.3z"/>
	</g>
	<rect x="-285" y="602.7" width="1" height="22"/>
	<g>
		<g>
			<path d="M-257.3,604.1c2.5,0,3.6,1.9,3.6,4c0,2.1-1.1,4-3.6,4h-3.3v-8H-257.3z M-259.1,605.3v5.6h1.8c1.5,0,2.2-1.2,2.2-2.8
				c0-1.6-0.7-2.8-2.2-2.8C-257.3,605.3-259.1,605.3-259.1,605.3z"/>
			<path d="M-251,605.2h-1.4v-1.1h1.4V605.2z M-251.1,612.1h-1.3V606h1.3V612.1z"/>
			<path d="M-247.1,610.2c-0.3,0-0.7-0.1-1.1-0.2c-0.2,0.1-0.3,0.3-0.3,0.5s0.2,0.5,0.7,0.5h1.7c1.3,0,2.1,0.5,2.1,1.6
				c0,1.2-1,1.9-3,1.9c-2.2,0-2.9-0.6-2.9-1.5c0-0.6,0.3-1,1-1.2l0,0c-0.5-0.1-0.8-0.6-0.8-1c0-0.4,0.2-0.9,0.8-1.1
				c-0.5-0.3-0.7-0.9-0.7-1.6c0-1.3,0.9-2.2,2.6-2.2c0.4,0,0.9,0.1,1.1,0.2h2.2v1h-1.1c0.2,0.3,0.4,0.6,0.4,1.1
				C-244.5,609.6-245.7,610.2-247.1,610.2z M-247.7,612.1c-0.7,0-0.9,0.3-0.9,0.7c0,0.5,0.4,0.7,1.5,0.7c1.2,0,1.6-0.2,1.6-0.8
				c0-0.4-0.3-0.6-0.9-0.6C-246.4,612.1-247.7,612.1-247.7,612.1z M-247.1,609.3c0.8,0,1.2-0.4,1.2-1.2c0-0.8-0.4-1.2-1.2-1.2
				c-0.8,0-1.2,0.4-1.2,1.2C-248.3,608.9-247.9,609.3-247.1,609.3z"/>
			<path d="M-241.4,605.2h-1.4v-1.1h1.4V605.2z M-241.5,612.1h-1.3V606h1.3V612.1z"/>
			<path d="M-239.3,606v-1.4h1.3v1.4h1.9v1h-1.9v3.4c0,0.6,0.2,0.8,0.8,0.8c0.2,0,0.6-0.1,0.9-0.2l0.1,1c-0.4,0.1-0.9,0.2-1.4,0.2
				c-0.9,0-1.8-0.3-1.8-1.6V607h-1.2v-1H-239.3z"/>
			<path d="M-232.9,608.4h1.3V608c0-0.7-0.5-1.1-1.2-1.1c-0.6,0-1.2,0.2-1.3,1h-0.1l-1.1-0.3c0.1-1.5,1.5-1.8,2.6-1.8
				c1.4,0,2.5,0.6,2.5,2.3v3.9h-1.2v-1l0,0c-0.3,0.6-1,1-2,1c-1.1,0-2-0.6-2-1.9C-235.5,608.8-234.2,608.4-232.9,608.4z
				 M-231.6,609.3h-1.2c-0.8,0-1.3,0.2-1.3,0.9c0,0.6,0.4,0.9,1,0.9c0.7,0,1.5-0.4,1.5-1.3V609.3z"/>
			<path d="M-228.8,612.1v-8h1.3v8H-228.8z"/>
			<path d="M-256.2,620.7c0-1.9-4.6-0.4-4.6-3.2c0-1.3,1.1-2,2.6-2s2.7,0.6,2.8,2.1l-0.7,0.1h-0.1c-0.1-1.1-1-1.5-2-1.5
				s-1.7,0.4-1.7,1.3c0,1.9,4.6,0.4,4.6,3.1c0,1.7-1.4,2.3-2.8,2.3c-1.4,0-2.8-0.5-2.8-2.1l0.7-0.2h0.1c0.1,1.2,1,1.5,2.1,1.5
				C-257.2,622.2-256.2,621.9-256.2,620.7z"/>
			<path d="M-249.8,619.4h-3.5v2.6h4.2v0.7h-5v-7.2h5v0.7h-4.2v2.3h3.5V619.4z"/>
			<path d="M-244.1,619.7l1.5,3.1v0.1h-0.9l-1.5-3c-0.2,0-0.3,0-0.5,0h-1.5v3h-0.8v-7.2h2.8c1.4,0,2.5,0.5,2.5,2.1
				C-242.5,618.9-243.2,619.5-244.1,619.7z M-247,619.1h2c1,0,1.6-0.4,1.6-1.3c0-0.9-0.6-1.3-1.6-1.3h-2V619.1z"/>
			<path d="M-236.5,615.6h0.9l-2.8,7.2h-1l-2.8-7.2h0.9l2.4,6.3l0,0L-236.5,615.6z"/>
			<path d="M-233.9,615.6v7.2h-0.8v-7.2C-234.7,615.6-233.9,615.6-233.9,615.6z"/>
			<path d="M-229.3,622.9c-1.8,0-3.3-1.2-3.3-3.7s1.5-3.7,3.3-3.7c1.6,0,2.9,0.7,3,2.4l-0.8,0.1c-0.2-1.2-1-1.8-2.3-1.8
				s-2.4,0.9-2.4,2.9s1.2,3,2.5,3c1.3,0,2.2-0.7,2.3-1.8l0.8,0.1C-226.3,622.2-227.7,622.9-229.3,622.9L-229.3,622.9z"/>
			<path d="M-220.7,619.4h-3.5v2.6h4.2v0.7h-5v-7.2h5v0.7h-4.2v2.3h3.5V619.4z"/>
			<path d="M-214.5,620.7c0-1.9-4.6-0.4-4.6-3.2c0-1.3,1.1-2,2.6-2s2.7,0.6,2.8,2.1l-0.7,0.1h-0.1c-0.1-1.1-1-1.5-2-1.5
				s-1.7,0.4-1.7,1.3c0,1.9,4.6,0.4,4.6,3.1c0,1.7-1.4,2.3-2.8,2.3s-2.8-0.5-2.8-2.1l0.7-0.2h0.1c0.1,1.2,1,1.5,2.1,1.5
				C-215.5,622.2-214.5,621.9-214.5,620.7z"/>
		</g>
	</g>
</g>
<path d="M-261.3,605c0-1.2-0.5-2.3-1.3-3.1l0,0c0.5-0.2,0.8-0.7,0.8-1.2c0-0.8-0.6-1.4-1.4-1.4c-0.1,0-0.1,0-0.2,0
	c0-0.2,0-0.3,0-0.5c0-1.4-1.2-2.6-2.6-2.6s-2.6,1.2-2.6,2.6c0,0.2,0,0.5,0.1,0.7c-0.5-0.2-1-0.4-1.5-0.4c-1.8,0-3.3,1.5-3.3,3.3
	c0,0.2,0,0.4,0.1,0.5c0-0.2,0-0.3-0.1-0.5h-3.7c-0.5,0-0.9,0.4-0.9,0.9v19.3c0,0.5,0.4,0.9,0.9,0.9h12c0.5,0,0.9-0.4,0.9-0.9V609
	l0,0C-262.5,608.4-261.3,606.8-261.3,605z M-262.4,600.7c0,0.4-0.3,0.8-0.8,0.8c-0.4,0-0.8-0.3-0.8-0.8c0-0.4,0.3-0.8,0.8-0.8
	S-262.4,600.3-262.4,600.7z M-262.8,602L-262.8,602L-262.8,602z M-263.7,602L-263.7,602L-263.7,602z M-264.1,601.7L-264.1,601.7
	L-264.1,601.7z M-264.4,600.2L-264.4,600.2L-264.4,600.2z M-264.2,599.8L-264.2,599.8L-264.2,599.8z M-263.8,599.5L-263.8,599.5
	L-263.8,599.5z M-265.9,597.1c1,0,1.8,0.8,1.8,1.8s-0.8,1.8-1.8,1.8s-1.8-0.8-1.8-1.8S-266.9,597.1-265.9,597.1z M-269.9,600
	c1.4,0,2.6,1.2,2.6,2.6c0,1.4-1.2,2.6-2.6,2.6s-2.6-1.2-2.6-2.6C-272.5,601.2-271.3,600-269.9,600z M-270.7,623
	c-0.5,0-0.9-0.4-0.9-0.9s0.4-0.9,0.9-0.9s0.9,0.4,0.9,0.9S-270.2,623-270.7,623z M-265,619c0,0.3-0.2,0.5-0.5,0.5h-10.9
	c-0.3,0-0.5-0.2-0.5-0.5v-15c0-0.3,0.2-0.5,0.5-0.5h3.4c0.4,1.4,1.7,2.4,3.2,2.4c0,0,0,0,0.1,0c0.4,2,2.1,3.4,4.2,3.4
	c0.2,0,0.4,0,0.6-0.1v9.8H-265z M-265.6,608.4c-1.6,0-3-1.1-3.3-2.7l0,0c1.4-0.4,2.4-1.7,2.4-3.2c0-0.3,0-0.5-0.1-0.8
	c0.3-0.1,0.7-0.2,1-0.2c1.9,0,3.4,1.5,3.4,3.4C-262.2,606.9-263.7,608.4-265.6,608.4z M-269.8,605.9c0.2,0,0.3,0,0.5,0
	C-269.5,605.9-269.7,605.9-269.8,605.9z"/>
</svg>
