<?xml version="1.0" encoding="utf-8"?>
<!-- Generator: Adobe Illustrator 19.2.1, SVG Export Plug-In . SVG Version: 6.00 Build 0)  -->
<svg version="1.1" id="Layer_1" xmlns="http://www.w3.org/2000/svg" xmlns:xlink="http://www.w3.org/1999/xlink" x="0px" y="0px"
	 viewBox="0 0 650 150" enable-background="new 0 0 650 150" xml:space="preserve">
<g>
	<rect fill="#5590BC" width="135" height="150"/>
	<text transform="matrix(1 0 0 1 13.2998 98.6459)"><tspan x="0" y="0" fill="#FFFFFF" font-family="'Helvetica-Bold'" font-size="74.5812px">C</tspan><tspan x="53.9" y="0" fill="#FFFFFF" font-family="'Helvetica-Bold'" font-size="37.2906px">s</tspan></text>
	<text transform="matrix(1 0 0 1 16.2993 130.829)" fill="#FFFFFF" font-family="'Helvetica-Bold'" font-size="18px">Consistency</text>
	<text transform="matrix(1 0 0 1 18.2993 28.2649)" fill="#FFFFFF" font-family="'Helvetica-Bold'" font-size="18px">55</text>
</g>
<g>
	<rect x="257.5" fill="#F06572" width="135" height="150"/>
	<text transform="matrix(1 0 0 1 270.1245 98.6459)"><tspan x="0" y="0" fill="#FFFFFF" font-family="'Helvetica-Bold'" font-size="74.5812px">G</tspan><tspan x="58" y="0" fill="#FFFFFF" font-family="'Helvetica-Bold'" font-size="37.2906px">d</tspan></text>
	<text transform="matrix(1 0 0 1 272.1241 130.829)" fill="#FFFFFF" font-family="'Helvetica-Bold'" font-size="16px">Guidance</text>
	<text transform="matrix(1 0 0 1 272.1241 28.2649)" fill="#FFFFFF" font-family="'Helvetica-Bold'" font-size="18px">64</text>
</g>
<g>
	<rect x="515" fill="#36557C" width="135" height="150"/>
	<text transform="matrix(1 0 0 1 528.0781 98.6459)"><tspan x="0" y="0" fill="#FFFFFF" font-family="'Helvetica-Bold'" font-size="74.5812px">R</tspan><tspan x="53.9" y="0" fill="#FFFFFF" font-family="'Helvetica-Bold'" font-size="37.2906px">s</tspan></text>
	<text transform="matrix(1 0 0 1 531.0771 130.829)" fill="#FFFFFF" font-family="'Helvetica-Bold'" font-size="16px">Resemblance</text>
	<text transform="matrix(1 0 0 1 531.0771 28.2649)" fill="#FFFFFF" font-family="'Helvetica-Bold'" font-size="18px">104</text>
</g>
</svg>
