<?xml version="1.0" encoding="utf-8"?>
<!-- Generator: Adobe Illustrator 19.2.0, SVG Export Plug-In . SVG Version: 6.00 Build 0)  -->
<svg version="1.1" id="Layer_1" xmlns="http://www.w3.org/2000/svg" xmlns:xlink="http://www.w3.org/1999/xlink" x="0px" y="0px"
	 viewBox="0 0 590.3 125" enable-background="new 0 0 590.3 125" xml:space="preserve">
<rect x="7" opacity="0.8" fill="#00529A" width="100" height="125"/>
<rect x="17" y="9.8" fill="none" width="90" height="16.3"/>
<text transform="matrix(1 0 0 1 16.997 22.6849)" fill="#FFFFFF" font-family="'HelveticaNeue-Medium'" font-size="18px">01</text>
<rect x="7" y="103.8" fill="none" width="99.3" height="16.3"/>
<text transform="matrix(1 0 0 1 22.4277 112.4012)" fill="#FFFFFF" font-family="'HelveticaNeue-Medium'" font-size="12px">Consistency</text>
<rect x="157" opacity="0.8" fill="#87CADE" width="100" height="125"/>
<rect x="307" opacity="0.7" fill="#EC1C2E" width="100" height="125"/>
<rect x="167" y="9.8" fill="none" width="90" height="16.3"/>
<text transform="matrix(1 0 0 1 166.997 22.6849)" fill="#FFFFFF" font-family="'HelveticaNeue-Medium'" font-size="18px">02</text>
<rect x="317" y="9.8" fill="none" width="90" height="16.3"/>
<text transform="matrix(1 0 0 1 316.997 22.6849)" fill="#FFFFFF" font-family="'HelveticaNeue-Medium'" font-size="18px">03</text>
<rect x="7" y="43.8" fill="none" width="100" height="46.7"/>
<text transform="matrix(1 0 0 1 25.9726 79.5326)" fill="#FFFFFF" font-family="'HelveticaNeue-Medium'" font-size="50px">Cy</text>
<rect x="157" y="43.8" fill="none" width="100" height="46.7"/>
<text transform="matrix(1 0 0 1 172.7475 79.5326)" fill="#FFFFFF" font-family="'HelveticaNeue-Medium'" font-size="50px">Gd</text>
<rect x="307" y="43.8" fill="none" width="100" height="46.7"/>
<text transform="matrix(1 0 0 1 325.497 79.5326)" fill="#FFFFFF" font-family="'HelveticaNeue-Medium'" font-size="50px">Re</text>
<rect x="157" y="103.8" fill="none" width="99.3" height="16.3"/>
<text transform="matrix(1 0 0 1 180.102 112.4012)" fill="#FFFFFF" font-family="'HelveticaNeue-Medium'" font-size="12px">Guidance</text>
<rect x="307" y="103.8" fill="none" width="99.3" height="16.3"/>
<text transform="matrix(1 0 0 1 318.8696 112.4012)" fill="#FFFFFF" font-family="'HelveticaNeue-Medium'" font-size="12px">Resemblance</text>
<g>
	<circle opacity="0.8" fill="#00529A" cx="524.6" cy="39.4" r="39.2"/>
	<circle opacity="0.8" fill="#87CADE" cx="498.1" cy="85.8" r="39.2"/>
	<circle opacity="0.7" fill="#EC1C2E" cx="551.2" cy="85.8" r="39.2"/>
</g>
</svg>
