<?xml version="1.0" encoding="utf-8"?>
<!-- Generator: Adobe Illustrator 19.2.0, SVG Export Plug-In . SVG Version: 6.00 Build 0)  -->
<svg version="1.1" id="Layer_1" xmlns="http://www.w3.org/2000/svg" xmlns:xlink="http://www.w3.org/1999/xlink" x="0px" y="0px"
	 viewBox="0 0 950 150" enable-background="new 0 0 950 150" xml:space="preserve">
<path opacity="0.6" d="M95.6,81.7c-0.6,0.7-1.5,1.1-2.4,1.1c-0.7,0-1.5-0.3-2.1-0.8l-3.8-3.3v38.7c0,1.9-1.6,3.5-3.5,3.5H12.4
	c-1.9,0-3.5-1.6-3.5-3.5V78.8L5.3,82C4,83.2,2,83,0.8,81.7c-1.2-1.3-1-3.3,0.3-4.5l45-39.7c1.2-1.1,3-1.1,4.2,0l19.9,17.5V44.1
	c0-1,0.8-1.7,1.7-1.7H80c1,0,1.7,0.8,1.7,1.7v21.1l13.6,12C96.6,78.4,96.7,80.4,95.6,81.7z M74.6,98.2V80c0-1-0.8-1.7-1.7-1.7H54.2
	c-1,0-1.7,0.8-1.7,1.7v18.2c0,1,0.8,1.7,1.7,1.7h18.6C73.8,100,74.6,99.2,74.6,98.2z M37.6,78.3h-14c-1,0-1.7,0.8-1.7,1.7v33.2
	c0,1,0.8,1.7,1.7,1.7h14c1,0,1.7-0.8,1.7-1.7V80C39.3,79.1,38.6,78.3,37.6,78.3z"/>
<path opacity="0.6" d="M304.4,82.7L304.4,82.7c-0.1-1.9-2.6-5-5-7.7l-8.3-22.6c-1.8-4.8-6.3-8-11.4-8h-38.2c-5.1,0-9.7,3.2-11.4,8
	l-8.2,22.2c-2.5,2.6-5.1,5.9-5.2,8.1h0v24.5c0,0.1,0,0.2,0,0.4v6.9c0,3.6,2.9,6.5,6.5,6.5h1.9c3.6,0,6.5-2.9,6.5-6.5V110h58.1v4.4
	c0,3.6,2.9,6.5,6.5,6.5h1.9c3.6,0,6.5-2.9,6.5-6.5v-7.2v0V82.7z M230.9,67.5l4.8-13.1c0.9-2.4,3.2-4,5.7-4h38.2c2.6,0,4.8,1.6,5.7,4
	l4.8,13.1c0.4,1.1-0.4,2.2-1.5,2.2h-56.2C231.3,69.7,230.6,68.6,230.9,67.5z M234.2,92c-3.3,0-6.1-2.8-6.1-6.1
	c0-3.3,2.8-6.1,6.1-6.1c3.3,0,6.1,2.8,6.1,6.1C240.3,89.2,237.5,92,234.2,92z M280.4,85.9c0-3.3,2.8-6.1,6.1-6.1
	c3.3,0,6.1,2.8,6.1,6.1c0,3.3-2.8,6.1-6.1,6.1C283.2,92,280.4,89.2,280.4,85.9z"/>
<g opacity="0.6">
	<path d="M524.8,74.9l-5.6-15.1v2.4c0,7.3-6,13.3-13.3,13.3c-4.6,0-8.6-2.3-11-5.8h-37.1c-1.1,0-1.9-1.1-1.5-2.2l4.8-13.1
		c0.9-2.4,3.2-4,5.7-4h15.9l0.4-3.1c0.1-1,0.3-2,0.6-3h-16.9c-5.1,0-9.7,3.2-11.4,8l-8.2,22.2c-2.5,2.6-5.1,5.9-5.2,8.1h0v24.5
		c0,0.1,0,0.2,0,0.4v6.9c0,3.6,2.9,6.5,6.5,6.5h1.9c3.6,0,6.5-2.9,6.5-6.5V110H515v4.4c0,3.6,2.9,6.5,6.5,6.5h1.9
		c3.6,0,6.5-2.9,6.5-6.5v-7.2v0V82.7h0C529.7,80.8,527.2,77.6,524.8,74.9z M459.5,92c-3.3,0-6.1-2.8-6.1-6.1c0-3.3,2.8-6.1,6.1-6.1
		c3.3,0,6.1,2.8,6.1,6.1C465.6,89.2,462.8,92,459.5,92z M511.9,92c-3.3,0-6.1-2.8-6.1-6.1c0-3.3,2.8-6.1,6.1-6.1
		c3.3,0,6.1,2.8,6.1,6.1C518,89.2,515.2,92,511.9,92z"/>
	<path d="M509.5,51.1v11.1c0,2-1.6,3.6-3.6,3.6s-3.6-1.6-3.6-3.6c0-1.4-1.2-2.6-2.6-2.6s-2.6,1.2-2.6,2.6c0,4.8,3.9,8.8,8.8,8.8
		s8.8-3.9,8.8-8.8V51.1c0-1.4-1.2-2.6-2.6-2.6C510.7,48.5,509.5,49.7,509.5,51.1z"/>
	<path d="M503.3,49.5c2.2-2.3,5.3-3.7,8.7-3.7c3.4,0,6.5,1.4,8.7,3.7c2.2-2.3,5.3-3.7,8.7-3.7c2.6,0,5,0.8,7,2.2
		c-1.5-11.2-10.6-20-21.9-21.2V25c0-1.4-1.2-2.6-2.6-2.6c-1.4,0-2.6,1.2-2.6,2.6v1.8c-11.3,1.2-20.4,10-21.9,21.2
		c2-1.4,4.4-2.2,7-2.2C498,45.7,501.1,47.2,503.3,49.5z"/>
</g>
<g opacity="0.6">
	<path d="M736.2,77.1v-4.4c0-1.9-1.6-3.5-3.5-3.5H703l-19.3-8.6l1.2-3.5c0.4-1.3,1.6-2.1,3-2.1h7.4v-2.2H687c-3.3,0-6.3,2.1-7.3,5.2
		l-5.2,15.4c-1.6-0.5-3.3-0.8-5.1-0.8c-9.6,0-17.4,7.8-17.4,17.4s7.8,17.4,17.4,17.4s17.4-7.8,17.4-17.4c0-6.1-3.2-11.5-8-14.6
		l3.3-9.6l2.3,9.2l15.1,16.6h8.1c0.8,8.9,8.2,15.8,17.3,15.8c9.6,0,17.4-7.8,17.4-17.4C742.1,85,739.8,80.3,736.2,77.1z M680.9,90.1
		c0,6.4-5.2,11.6-11.6,11.6s-11.6-5.2-11.6-11.6c0-6.4,5.2-11.6,11.6-11.6c1.1,0,2.2,0.2,3.2,0.5l-1.9,5.5c-0.4-0.1-0.9-0.2-1.4-0.2
		c-3.2,0-5.8,2.6-5.8,5.8c0,3.2,2.6,5.8,5.8,5.8s5.8-2.6,5.8-5.8c0-0.9-0.2-1.8-0.6-2.5l2.2-6.4C679.2,83.4,680.9,86.6,680.9,90.1z
		 M707.8,86.3c-0.7-0.1-1.4-0.2-2-0.3c-0.4-3-3-5.3-6.1-5.3c-1.5,0-2.9,0.5-3.9,1.4c-0.7-0.5-1.3-0.9-1.8-1.3l-2.3-2.3h20.2
		C709.9,80.6,708.5,83.3,707.8,86.3z M724.7,101.7c-5.9,0-10.7-4.4-11.5-10h5.9c0.7,2.4,2.9,4.2,5.6,4.2c2.7,0,4.9-1.8,5.6-4.2h3.7
		v-4h-4c-0.9-2-2.9-3.4-5.2-3.4c-2.3,0-4.3,1.4-5.2,3.4h-6.1c1.1-5.2,5.8-9.1,11.3-9.1c6.4,0,11.6,5.2,11.6,11.6
		C736.3,96.5,731.1,101.7,724.7,101.7z"/>
	<path d="M674.9,62.4v-2.5c0-1.9-1.5-3.4-3.4-3.4h-4.4v9.3h4.4C673.4,65.8,674.9,64.3,674.9,62.4z"/>
</g>
<g opacity="0.6">
	<path d="M903.7,115.3c-0.6,0-1.3-0.1-1.9-0.2c-2-0.4-4-1.4-6.1-2.9c-3.6-2.6-6.6-2.6-10.1,0c-5.6,4.1-10.1,4.1-15.7,0
		c-1-0.8-2-1.3-2.9-1.6c-1.2-0.4-1.9-1.5-1.9-2.8l0,0c0-2,2-3.5,3.9-2.8c1.4,0.5,2.8,1.3,4.2,2.3c3.4,2.5,5.3,2.9,9.2,0
		c1-0.7,2-1.4,3.1-1.9c1-0.5,2-0.8,3.1-1c0.6-0.1,1.2-0.2,1.8-0.2c0.8,0,1.5,0,2.3,0.1c0.5,0.1,1,0.2,1.5,0.3c1.1,0.3,2.1,0.8,3,1.3
		c0.7,0.4,1.3,0.8,1.9,1.3c0.9,0.6,1.8,1.3,2.8,1.7c0.5,0.2,1.1,0.3,1.7,0.4h0.2c0.6,0,1.2-0.1,1.7-0.4c1-0.4,1.9-1,2.8-1.7
		c0.6-0.5,1.2-0.9,1.9-1.3c1-0.6,2-1,3-1.3c0.5-0.1,1-0.3,1.5-0.3c0.8-0.1,1.5-0.1,2.3-0.1c0.6,0,1.2,0.1,1.8,0.2
		c1.1,0.2,2.1,0.5,3.1,1c1.1,0.5,2.1,1.1,3.1,1.9c3.9,2.9,5.8,2.5,9.2,0c1.3-1,2.5-1.7,3.8-2.2c1.9-0.8,4.1,0.6,4.1,2.7v0
		c0,1.2-0.7,2.3-1.8,2.7c-0.8,0.3-1.7,0.9-2.7,1.6c-5.6,4.1-10.1,4.1-15.7,0c-3.6-2.6-6.6-2.6-10.1,0c-2.1,1.6-4.1,2.5-6.1,2.9
		C905,115.2,904.4,115.3,903.7,115.3"/>
	<path d="M901.7,45.6l-23.3,4.7c-2.2,0.4-3.9,2.1-4.4,4.2l-3,11.5l30.7-10.9V45.6z M929.4,50.4l-24.1-4.8v9.6l31.6,10.9l-3-11.5
		C933.4,52.5,931.6,50.8,929.4,50.4z M945.2,75.2l-36.4-13.3c-5.5-2.4-10.4,0-10.4,0L862,75.2c0,0-6,1.7-1.9,6.3
		c3.1,3.4,14.5,15.2,20.3,21.1c0.6-0.3,1.2-0.7,1.8-1.2c1-0.7,2-1.3,3.1-1.8c1-0.5,2-0.8,3.1-1c0.6-0.1,1.2-0.2,1.8-0.2
		c0.8,0,1.5,0,2.3,0.1c0.5,0.1,1,0.2,1.5,0.3c1.1,0.3,2.1,0.8,3,1.3c0.7,0.4,1.3,0.8,1.9,1.3c0.9,0.6,1.8,1.3,2.8,1.7
		c0.5,0.2,1.1,0.3,1.7,0.4h0.2c0.6,0,1.2-0.1,1.7-0.4c1-0.4,1.9-1,2.8-1.7c0.6-0.5,1.2-0.9,1.9-1.3c1-0.6,2-1,3-1.3
		c0.5-0.1,1-0.3,1.5-0.3c0.8-0.1,1.5-0.1,2.3-0.1c0.6,0,1.2,0.1,1.8,0.2c1.1,0.2,2.1,0.5,3.1,1c1.1,0.5,2.1,1.1,3.1,1.8
		c0.7,0.5,1.3,0.9,1.9,1.2c5.7-5.9,17.2-17.7,20.2-21.2C951.2,76.9,945.2,75.2,945.2,75.2z"/>
</g>
</svg>
