<?xml version="1.0" encoding="utf-8"?>
<!-- Generator: Adobe Illustrator 19.1.0, SVG Export Plug-In . SVG Version: 6.00 Build 0)  -->
<svg version="1.1" id="icons" xmlns="http://www.w3.org/2000/svg" xmlns:xlink="http://www.w3.org/1999/xlink" x="0px" y="0px"
	 viewBox="-49 51 100 100" style="enable-background:new -49 51 100 100;" xml:space="preserve">
<style type="text/css">
	.st0{fill:#333333;}
</style>
<path class="st0" d="M32.7,100.9L32.7,100.9c0,2.1-1.7,3.8-3.8,3.8h-47l10.2,10c1.5,1.5,1.5,3.9,0,5.4l0,0c-1.5,1.5-3.9,1.5-5.4,0
	l-17.6-17.6c-0.9-1-0.9-2.5,0-3.4l17.6-17.6c1.5-1.5,3.9-1.5,5.4,0l0,0c1.5,1.5,1.5,3.9,0,5.4l-10.2,10.2h47
	C31,97.1,32.7,98.8,32.7,100.9z"/>
</svg>
