<?xml version="1.0" encoding="utf-8"?>
<!-- Generator: Adobe Illustrator 19.2.0, SVG Export Plug-In . SVG Version: 6.00 Build 0)  -->
<svg version="1.1" id="Layer_1" xmlns="http://www.w3.org/2000/svg" xmlns:xlink="http://www.w3.org/1999/xlink" x="0px" y="0px"
	 viewBox="0 0 944.5 534.8" enable-background="new 0 0 944.5 534.8" xml:space="preserve">
<circle opacity="0.8" fill="#00295E" cx="115" cy="419.9" r="115"/>
<circle opacity="0.8" fill="#00529A" cx="293.1" cy="419.9" r="115"/>
<circle opacity="0.8" fill="#87CADE" cx="471.2" cy="419.9" r="115"/>
<circle opacity="0.7" fill="#FFD200" cx="649.3" cy="419.9" r="115"/>
<circle opacity="0.7" fill="#EC1C2E" cx="827.4" cy="419.9" r="115"/>
<rect x="4.4" y="409.3" fill="none" width="216.6" height="27.2"/>
<text transform="matrix(1 0 0 1 83.7173 422.2676)" fill="#FFFFFF" font-family="'Helvetica'" font-size="18px">Pattern</text>
<rect x="231" y="409.3" fill="none" width="126.6" height="27.2"/>
<text transform="matrix(1 0 0 1 273.3257 422.2676)" fill="#FFFFFF" font-family="'Helvetica'" font-size="18px">App1</text>
<rect x="407.9" y="409.3" fill="none" width="126.6" height="27.2"/>
<text transform="matrix(1 0 0 1 450.1772 422.2676)" fill="#FFFFFF" font-family="'Helvetica'" font-size="18px">App2</text>
<rect x="586" y="409.3" fill="none" width="126.6" height="27.2"/>
<text transform="matrix(1 0 0 1 628.2969 422.2676)" fill="#FFFFFF" font-family="'Helvetica'" font-size="18px">App3</text>
<rect x="768.7" y="409.3" fill="none" width="126.6" height="27.2"/>
<text transform="matrix(1 0 0 1 811.0195 422.2676)" fill="#FFFFFF" font-family="'Helvetica'" font-size="18px">App4</text>
<g opacity="0.8">
	<g>
		<path fill="none" stroke="#00295E" stroke-miterlimit="10" d="M111.6,394.5c0-0.7,0-1.3,0-2"/>
		<path fill="none" stroke="#00295E" stroke-miterlimit="10" stroke-dasharray="3.9774,3.9774" d="M111.8,388.5
			c3.1-47.1,42.2-84.3,90.1-84.3c46.8,0,85.2,35.5,89.8,81.1"/>
		<path fill="none" stroke="#00295E" stroke-miterlimit="10" d="M291.9,387.2c0.1,0.7,0.1,1.3,0.1,2"/>
		<g>
			<polygon fill="#00295E" points="298.1,388.2 285.9,388.6 292.2,394.5 			"/>
		</g>
	</g>
</g>
<g opacity="0.8">
	<g>
		<path fill="none" stroke="#00295E" stroke-miterlimit="10" d="M111.6,394.5c0-0.7,0-1.3,0-2"/>
		<path fill="none" stroke="#00295E" stroke-miterlimit="10" stroke-dasharray="4.0154,4.0154" d="M111.7,388.4
			c3.2-97,82.8-174.6,180.5-174.6c96.6,0,175.5,75.9,180.4,171.3"/>
		<path fill="none" stroke="#00295E" stroke-miterlimit="10" d="M472.7,387.2c0,0.7,0,1.3,0.1,2"/>
		<g>
			<polygon fill="#00295E" points="478.7,388.2 466.6,388.5 472.8,394.5 			"/>
		</g>
	</g>
</g>
<g opacity="0.8">
	<g>
		<path fill="none" stroke="#00295E" stroke-miterlimit="10" d="M111.6,394.5c0-0.7,0-1.3,0-2"/>
		<path fill="none" stroke="#00295E" stroke-miterlimit="10" stroke-dasharray="3.9893,3.9893" d="M111.7,388.5
			C114.9,240.2,236,121,385,121c147.9,0,268.4,117.4,273.3,264.2"/>
		<path fill="none" stroke="#00295E" stroke-miterlimit="10" d="M658.3,387.2c0,0.7,0,1.3,0,2"/>
		<g>
			<polygon fill="#00295E" points="664.4,388.2 652.2,388.5 658.4,394.5 			"/>
		</g>
	</g>
</g>
<g opacity="0.8">
	<g>
		<path fill="none" stroke="#00295E" stroke-miterlimit="10" d="M111.6,394.5c0-0.7,0-1.3,0-2"/>
		<path fill="none" stroke="#00295E" stroke-miterlimit="10" stroke-dasharray="3.9939,3.9939" d="M111.7,388.5
			C114.9,190.9,276,31.8,474.3,31.8c197.2,0,357.7,157.4,362.6,353.5"/>
		<path fill="none" stroke="#00295E" stroke-miterlimit="10" d="M837,387.2c0,0.7,0,1.3,0,2"/>
		<g>
			<polygon fill="#00295E" points="843,388.2 830.8,388.5 837,394.5 			"/>
		</g>
	</g>
</g>
<rect x="330.7" y="2.5" fill="none" width="288.4" height="19.4"/>
<text transform="matrix(1 0 0 1 430.9277 15.4556)" font-family="'Helvetica'" font-size="18px">Reusability</text>
</svg>
