<?xml version="1.0" encoding="utf-8"?>
<!-- Generator: Adobe Illustrator 19.2.0, SVG Export Plug-In . SVG Version: 6.00 Build 0)  -->
<svg version="1.1" id="icons" xmlns="http://www.w3.org/2000/svg" xmlns:xlink="http://www.w3.org/1999/xlink" x="0px" y="0px"
	 viewBox="-255 347 200 200" enable-background="new -255 347 200 200" xml:space="preserve">
<g>
	<path fill="#F2F2F2" d="M-109.6,399.4h-14.1v-8.6c0-4.5-3.7-8.2-8.2-8.2h-46.1c-4.5,0-8.2,3.7-8.2,8.2v8.6h-14.1v-8.6
		c0-12.3,10-22.3,22.3-22.3h46.1c12.3,0,22.3,10,22.3,22.3V399.4z"/>
	<path fill="#A1D5E5" d="M-253.6,410v50h83h33v-62.1h-103.9C-248.2,397.9-253.6,403.3-253.6,410z"/>
	<path fill="#36557C" d="M-56,460v-50c0-6.7-5.4-12.1-12.1-12.1h-69.5V460H-56z"/>
	<path fill="#FEDF6E" d="M-253.6,460v50.8c0,6.7,5.4,12.1,12.1,12.1h70.9V460H-253.6z"/>
	<path fill="#F06572" d="M-170.6,460v62.9h102.5c6.7,0,12.1-5.4,12.1-12.1V460h-81.6H-170.6z"/>
	<rect x="-181" y="448.5" fill="#F2F2F2" width="54.5" height="23.5"/>
	<polygon fill="#F2F2F2" points="-141,479.5 -166.5,479.5 -169.5,460.2 -138,460.2 	"/>
</g>
</svg>
