<?xml version="1.0" encoding="utf-8"?>
<!-- Generator: Adobe Illustrator 19.2.0, SVG Export Plug-In . SVG Version: 6.00 Build 0)  -->
<svg version="1.1" id="icons" xmlns="http://www.w3.org/2000/svg" xmlns:xlink="http://www.w3.org/1999/xlink" x="0px" y="0px"
	 viewBox="-255 347 200 200" enable-background="new -255 347 200 200" xml:space="preserve">
<g>
	<path fill="#002144" d="M-179.4,526.2h-32.3c-4,0-7.3-3.3-7.3-7.3V374.7c0-4,3.3-7.3,7.3-7.3h32.3V526.2z"/>
	<path fill="#00338D" d="M-95.4,527.2l-75.2,19.1c-4.6,1.2-9-2.3-9-7V354.7c0-4.7,4.4-8.1,9-7l75.2,18.4c3.2,0.8,5.5,3.7,5.5,7v147
		C-89.9,523.5-92.2,526.3-95.4,527.2z"/>
	<g>
		<g>
			<ellipse fill="#FFFFFF" cx="-165.2" cy="446.8" rx="5.4" ry="8.8"/>
		</g>
	</g>
	<path fill="#FFFFFF" d="M-113.6,437.5l-32.8-1c-1.2,0-2.2-1-2.2-2.2v-57.4c0-1.4,1.3-2.4,2.6-2.2l32.8,6c1.1,0.2,1.8,1.1,1.8,2.2
		v52.4C-111.3,436.6-112.4,437.6-113.6,437.5z"/>
	<path fill="#FFFFFF" d="M-113.6,456.3l-33.3,1c-1.2,0-2.2,1-2.2,2.2v57.7c0,1.4,1.3,2.5,2.7,2.2l33.3-6.6c1-0.2,1.8-1.1,1.8-2.2
		v-52C-111.3,457.2-112.4,456.2-113.6,456.3z"/>
	<path fill="#FFC425" d="M-116.3,462.7l-26.7,1.8c-0.6,0-1,0.5-1,1.1v43.4c0,0.7,0.6,1.2,1.3,1.1l26.7-4.8c0.5-0.1,0.9-0.6,0.9-1.1
		l0-40.5C-115.1,463.2-115.7,462.7-116.3,462.7z"/>
	<path fill="#D52B1E" d="M-116.4,430.7l-26.5-1.2c-0.6,0-1.1-0.5-1.1-1.1v-45.3c0-0.7,0.6-1.2,1.3-1.1l26.5,4.2
		c0.5,0.1,0.9,0.6,0.9,1.1v42.3C-115.3,430.2-115.8,430.7-116.4,430.7z"/>
</g>
</svg>
