<svg height="64" viewBox="0 0 64 64" width="64" xmlns="http://www.w3.org/2000/svg"><circle cx="32.01" cy="32" fill="#ffc425" r="28.09"/><g fill="#ffffff"><path d="m40.41 23.62a.56.56 0 0 0 -.39-.17.54.54 0 0 0 -.34.12l-8.75 6.43a2.42 2.42 0 0 0 -.45.34 2.24 2.24 0 0 0 0 3.16 2.22 2.22 0 0 0 1.58.65 2.18 2.18 0 0 0 1.58-.65 2.33 2.33 0 0 0 .35-.44l6.46-8.75a.54.54 0 0 0 -.04-.69z"/><path d="m44.55 25.63-.09-.17-.16-.31-.2-.33-.1-.17c-.1-.16-.2-.33-.31-.49a14 14 0 0 0 -4.33-4.16h-.08l-.44-.25-.17-.09-.31-.16a13.91 13.91 0 0 0 -6.36-1.5 14 14 0 1 0 0 28 .88.88 0 0 0 .89-.87v-3.45a.89.89 0 0 0 -1-.87.92.92 0 0 0 -.73.92v2.53a12.33 12.33 0 0 1 -7.16-2.94l2-1.93a.93.93 0 0 0 .13-1.17.88.88 0 0 0 -1.34-.11l-2 2a12.12 12.12 0 0 1 -3-7.2h2.72a.9.9 0 0 0 .91-.73.87.87 0 0 0 -.86-1h-2.8a12.19 12.19 0 0 1 3-7.18l1.91 1.92a.87.87 0 0 0 1.33-.1.91.91 0 0 0 -.08-1.23l-1.92-1.88a12.26 12.26 0 0 1 8-3v7.87l6.87-5.07a1.83 1.83 0 0 1 1.13-.37 1.85 1.85 0 0 1 1.32.54 1.88 1.88 0 0 1 .16 2.46l-5.05 6.86h8.7a.92.92 0 0 0 .92-1 13.89 13.89 0 0 0 -1.5-5.37z"/></g></svg>