<svg viewBox="0 0 64 64" xmlns="http://www.w3.org/2000/svg"><circle cx="31.89" cy="32" fill="#00844d" r="32"/><g fill="#ffffff"><path d="m41.22 22.45a.63.63 0 0 0 -.44-.19.64.64 0 0 0 -.39.14l-10 7.35a2.38 2.38 0 0 0 -.5.4 2.54 2.54 0 1 0 3.6 3.59 2.69 2.69 0 0 0 .39-.5l7.36-10a.62.62 0 0 0 -.02-.79z"/><path d="m45.94 24.75a1.24 1.24 0 0 0 -.1-.2 3.9 3.9 0 0 0 -.19-.35c-.07-.13-.14-.26-.22-.38l-.11-.19c-.12-.19-.23-.37-.36-.56a15.91 15.91 0 0 0 -4.96-4.72l-.08-.05-.5-.29-.19-.11-.36-.18a15.91 15.91 0 0 0 -7.2-1.72 16 16 0 1 0 0 32 1 1 0 0 0 1-1v-4a1 1 0 0 0 -1.17-1 1 1 0 0 0 -.84 1v3a13.93 13.93 0 0 1 -8.11-3.34l2.2-2.2a1.05 1.05 0 0 0 .15-1.33 1 1 0 0 0 -1.53-.13l-2.25 2.25a13.9 13.9 0 0 1 -3.42-8.25h3.1a1 1 0 0 0 1-.84 1 1 0 0 0 -1-1.16h-3.1a13.91 13.91 0 0 1 3.4-8.18l2.19 2.18a1 1 0 0 0 .7.29 1 1 0 0 0 .67-1.75l-2.14-2.14a14 14 0 0 1 9.14-3.4v9l7.82-5.77a2.12 2.12 0 0 1 2.8.19 2.12 2.12 0 0 1 .18 2.79l-5.77 7.79h9.92a1 1 0 0 0 1-1.11 15.79 15.79 0 0 0 -1.67-6.14z"/></g></svg>