<svg height="64" viewBox="0 0 64 64" width="64" xmlns="http://www.w3.org/2000/svg"><circle cx="32" cy="32" fill="#d52b1e" r="28.09"/><g fill="#ffffff"><path d="m40.31 23.7a.57.57 0 0 0 -.72 0l-8.66 6.39a2.36 2.36 0 0 0 -.44.34 2.21 2.21 0 0 0 0 3.12 2.21 2.21 0 0 0 3.13 0 2.07 2.07 0 0 0 .34-.44l6.39-8.64a.55.55 0 0 0 -.04-.77z"/><path d="m44.41 25.7-.09-.17-.16-.3-.16-.34a1.4 1.4 0 0 1 -.1-.16l-.31-.48a13.63 13.63 0 0 0 -4.27-4.08h-.07l-.44-.25-.17-.09-.3-.16a13.94 13.94 0 0 0 -6.34-1.56 13.89 13.89 0 1 0 0 27.77.87.87 0 0 0 .88-.86v-3.44a.87.87 0 0 0 -1-.86.9.9 0 0 0 -.72.9v2.51a12.13 12.13 0 0 1 -7-2.91l1.84-1.91a.9.9 0 0 0 .13-1.15.86.86 0 0 0 -1.32-.11l-1.95 2a12.07 12.07 0 0 1 -3-7.13h2.69a.9.9 0 0 0 .91-.72.87.87 0 0 0 -.86-1h-2.72a12 12 0 0 1 3-7.1l1.89 1.89a.89.89 0 0 0 .62.26.86.86 0 0 0 .66-.31.91.91 0 0 0 -.08-1.21l-1.86-1.86a12.12 12.12 0 0 1 7.94-3v7.78l6.79-5a1.9 1.9 0 0 1 1.13-.38 1.87 1.87 0 0 1 1.3.54 1.84 1.84 0 0 1 .16 2.43l-5 6.8h8.57a.91.91 0 0 0 .91-1 13.75 13.75 0 0 0 -1.5-5.34z"/></g></svg>