<svg height="64" viewBox="0 0 64 64" width="64" xmlns="http://www.w3.org/2000/svg"><path d="m30.41 61a26.59 26.59 0 1 1 26.59-26.56 26.62 26.62 0 0 1 -26.59 26.56z" fill="#ffffff"/><g fill="#d52b1e"><path d="m30.41 9.35a25.09 25.09 0 1 1 -25.09 25.09 25.12 25.12 0 0 1 25.09-25.09m0-3a28.09 28.09 0 1 0 28.09 28.09 28.09 28.09 0 0 0 -28.09-28.09z"/><path d="m38.78 26.08a.55.55 0 0 0 -.73 0l-8.72 6.43a2.12 2.12 0 0 0 -.44.35 2.22 2.22 0 0 0 0 3.14 2.19 2.19 0 0 0 1.57.66 2.23 2.23 0 0 0 1.54-.66 2.07 2.07 0 0 0 .34-.44l6.44-8.71a.54.54 0 0 0 0-.77z"/><path d="m42.91 28.09-.09-.17-.16-.31-.2-.33-.1-.17c-.1-.16-.2-.32-.31-.48a14 14 0 0 0 -4.31-4.11l-.07-.05-.44-.25-.17-.1-.32-.12a13.86 13.86 0 0 0 -6.32-1.51 14 14 0 1 0 0 28 .87.87 0 0 0 .88-.88v-3.52a.88.88 0 0 0 -1-.87.92.92 0 0 0 -.73.92v2.52a12.23 12.23 0 0 1 -7.1-2.93l1.92-1.93a.9.9 0 0 0 .13-1.16.88.88 0 0 0 -1.33-.11l-2 2a12.27 12.27 0 0 1 -3-7.18h2.72a.91.91 0 0 0 .91-.73.87.87 0 0 0 -.87-1h-2.76a12.22 12.22 0 0 1 3-7.15l1.91 1.91a.89.89 0 0 0 .62.25.87.87 0 0 0 .67-.3.92.92 0 0 0 -.08-1.23l-1.88-1.87a12.25 12.25 0 0 1 8-3v7.77l6.83-5a1.88 1.88 0 0 1 1.13-.38 1.86 1.86 0 0 1 1.48 3l-5.06 6.85h8.68a.91.91 0 0 0 .91-1 13.83 13.83 0 0 0 -1.49-5.38z"/></g></svg>