<svg height="64" viewBox="0 0 64 64" width="64" xmlns="http://www.w3.org/2000/svg"><path d="m32.17 58.73a26.59 26.59 0 1 1 26.58-26.59 26.62 26.62 0 0 1 -26.58 26.59z" fill="#ffffff"/><path d="m32.17 7.05a25.09 25.09 0 1 1 -25.09 25.09 25.12 25.12 0 0 1 25.09-25.09m0-3a28.09 28.09 0 1 0 28.08 28.09 28.09 28.09 0 0 0 -28.08-28.09z" fill="#f2b719"/><g fill="#ffc425"><path d="m40.54 23.78a.59.59 0 0 0 -.39-.16.54.54 0 0 0 -.34.12l-8.72 6.43a2.05 2.05 0 0 0 -.45.34 2.23 2.23 0 0 0 0 3.15 2.26 2.26 0 0 0 1.58.65 2.22 2.22 0 0 0 1.57-.65 2.1 2.1 0 0 0 .35-.45l6.44-8.71a.55.55 0 0 0 -.04-.72z"/><path d="m44.67 25.79-.09-.17c0-.1-.11-.2-.17-.3a3.72 3.72 0 0 0 -.19-.34.86.86 0 0 0 -.1-.16c-.1-.17-.2-.33-.31-.49a14 14 0 0 0 -4.31-4.11l-.07-.05-.43-.27-.16-.09-.31-.16a14 14 0 0 0 -6.32-1.51 14 14 0 1 0 0 28 .88.88 0 0 0 .88-.87v-3.48a.87.87 0 0 0 -1-.86.91.91 0 0 0 -.73.91v2.52a12.21 12.21 0 0 1 -7.1-2.93l1.92-1.92a.9.9 0 0 0 .13-1.16.87.87 0 0 0 -1.33-.12l-2 2a12.2 12.2 0 0 1 -2.98-7.23h2.72a.91.91 0 0 0 .91-.73.88.88 0 0 0 -.87-1h-2.76a12.25 12.25 0 0 1 3-7.15l1.84 1.88a.89.89 0 0 0 .62.26.9.9 0 0 0 .67-.31.92.92 0 0 0 -.13-1.2l-1.87-1.87a12.24 12.24 0 0 1 8-3v7.84l6.84-5a1.9 1.9 0 0 1 1.13-.38 1.86 1.86 0 0 1 1.48 3l-5.06 6.85h8.68a.91.91 0 0 0 .91-1 14 14 0 0 0 -1.44-5.4z"/></g></svg>