<svg height="64" viewBox="0 0 64 64" width="64" xmlns="http://www.w3.org/2000/svg"><circle cx="32" cy="32.12" fill="#2685de" r="28.09"/><g fill="#ffffff"><path d="m40.4 23.74a.55.55 0 0 0 -.73 0l-8.75 6.45a2.48 2.48 0 0 0 -.45.35 2.23 2.23 0 0 0 3.16 3.16 2.1 2.1 0 0 0 .35-.45l6.46-8.74a.54.54 0 0 0 -.04-.77z"/><path d="m44.54 25.76-.09-.18-.16-.3a3.79 3.79 0 0 0 -.2-.34l-.09-.16-.32-.49a14.07 14.07 0 0 0 -4.32-4.13h-.08l-.44-.26-.16-.09-.32-.16a14 14 0 0 0 -6.36-1.57 14 14 0 1 0 0 28.08.88.88 0 0 0 .89-.88v-3.48a.88.88 0 0 0 -1-.86.91.91 0 0 0 -.73.91v2.53a12.21 12.21 0 0 1 -7.16-2.94l1.93-1.93a.91.91 0 0 0 .13-1.16.88.88 0 0 0 -1.34-.11l-2 2a12.17 12.17 0 0 1 -3-7.2h2.72a.91.91 0 0 0 .91-.73.88.88 0 0 0 -.86-1h-2.74a12.19 12.19 0 0 1 3-7.17l1.9 1.86a.87.87 0 0 0 .63.26.85.85 0 0 0 .66-.31.91.91 0 0 0 -.08-1.23l-1.86-1.88a12.26 12.26 0 0 1 8-3v7.86l6.87-5.06a1.84 1.84 0 0 1 1.13-.38 1.87 1.87 0 0 1 1.48 3l-5.07 6.87h8.7a.91.91 0 0 0 .92-1 13.84 13.84 0 0 0 -1.49-5.37z"/></g></svg>