<svg viewBox="0 0 64 64" xmlns="http://www.w3.org/2000/svg"><circle cx="32" cy="32.12" fill="#5f6062" r="28.09"/><g fill="#ffffff"><path d="m39.89 23.74a.55.55 0 0 0 -.73 0l-8.75 6.45a2.48 2.48 0 0 0 -.45.35 2.23 2.23 0 0 0 3.16 3.16 2.48 2.48 0 0 0 .35-.45l6.46-8.74a.56.56 0 0 0 -.04-.77z"/><path d="m44 25.76-.09-.18c0-.1-.11-.2-.17-.3a3.72 3.72 0 0 0 -.19-.34 1.4 1.4 0 0 0 -.1-.16c-.1-.17-.2-.33-.31-.49a14 14 0 0 0 -4.33-4.13h-.07l-.44-.26-.17-.09-.31-.16a14.07 14.07 0 0 0 -6.34-1.51 14 14 0 1 0 0 28.08.87.87 0 0 0 .88-.88v-3.54a.87.87 0 0 0 -1-.86.91.91 0 0 0 -.73.91v2.53a12.27 12.27 0 0 1 -7.13-2.94l1.93-1.93a.9.9 0 0 0 .13-1.16.87.87 0 0 0 -1.33-.11l-2 2a12.3 12.3 0 0 1 -3-7.2h2.77a.91.91 0 0 0 .91-.73.88.88 0 0 0 -.87-1h-2.8a12.18 12.18 0 0 1 3-7.17l1.9 1.86a.85.85 0 0 0 .62.26.87.87 0 0 0 .67-.31.91.91 0 0 0 -.08-1.23l-1.88-1.87a12.24 12.24 0 0 1 8-3v7.86l6.86-5.06a1.89 1.89 0 0 1 1.14-.39 1.87 1.87 0 0 1 1.48 3l-5.05 6.87h8.71a.91.91 0 0 0 .92-1 13.84 13.84 0 0 0 -1.53-5.37z"/></g></svg>