<svg viewBox="0 0 64 64" xmlns="http://www.w3.org/2000/svg"><circle cx="32" cy="32" fill="#ffffff" r="32"/><g fill="#00844d"><path d="m32 0a32 32 0 1 0 32 32 32 32 0 0 0 -32-32zm0 62.08a30.08 30.08 0 1 1 30.08-30.08 30.11 30.11 0 0 1 -30.08 30.08z"/><path d="m41.57 22.45a.63.63 0 0 0 -.44-.19.62.62 0 0 0 -.39.14l-10 7.35a2.72 2.72 0 0 0 -.51.4 2.54 2.54 0 1 0 3.6 3.59 2.38 2.38 0 0 0 .4-.5l7.36-10a.63.63 0 0 0 -.02-.79z"/><path d="m46.29 24.75-.1-.2-.19-.35-.22-.38-.11-.19-.36-.56a15.77 15.77 0 0 0 -4.92-4.7l-.08-.05-.53-.32-.19-.11-.35-.18a16 16 0 0 0 -7.24-1.71 16 16 0 1 0 0 32 1 1 0 0 0 1-1v-4a1 1 0 0 0 -1.17-1 1 1 0 0 0 -.83 1v3a14 14 0 0 1 -8.12-3.34l2.2-2.2a1 1 0 0 0 .15-1.33 1 1 0 0 0 -1.51-.13l-2.25 2.25a14 14 0 0 1 -3.47-8.25h3.1a1.05 1.05 0 0 0 1.05-.84 1 1 0 0 0 -1-1.16h-3.15a13.92 13.92 0 0 1 3.41-8.18l2.22 2.18a1 1 0 0 0 .71.29 1 1 0 0 0 .76-.29 1 1 0 0 0 -.1-1.4l-2.13-2.14a13.94 13.94 0 0 1 9.13-3.46v9l7.82-5.77a2.17 2.17 0 0 1 1.3-.44 2.13 2.13 0 0 1 1.69 3.42l-5.81 7.79h10a1.05 1.05 0 0 0 1-1.11 15.79 15.79 0 0 0 -1.71-6.14z"/></g></svg>