<svg height="64" viewBox="0 0 64 64" width="64" xmlns="http://www.w3.org/2000/svg"><path d="m32 58.59a26.59 26.59 0 1 1 26.59-26.59 26.62 26.62 0 0 1 -26.59 26.59z" fill="#ffffff"/><g fill="#2685de"><path d="m32 6.91a25.09 25.09 0 1 1 -25.09 25.09 25.12 25.12 0 0 1 25.09-25.09m0-3a28.09 28.09 0 1 0 28.09 28.09 28.09 28.09 0 0 0 -28.09-28.09z"/><path d="m40.37 23.64a.54.54 0 0 0 -.72 0l-8.73 6.36a2.42 2.42 0 0 0 -.44.35 2.23 2.23 0 0 0 1.57 3.8 2.26 2.26 0 0 0 1.58-.65 2.05 2.05 0 0 0 .34-.45l6.45-8.71a.55.55 0 0 0 -.05-.7z"/><path d="m44.5 25.65a1.3 1.3 0 0 0 -.08-.17l-.17-.31-.19-.33-.1-.17-.31-.48a13.86 13.86 0 0 0 -4.31-4.11h-.07c-.14-.09-.29-.17-.44-.25l-.17-.09-.31-.16a14 14 0 0 0 -6.35-1.58 14 14 0 1 0 0 28 .88.88 0 0 0 .89-.88v-3.47a.88.88 0 0 0 -1-.86.91.91 0 0 0 -.73.91v2.52a12.23 12.23 0 0 1 -7.16-2.93l2-1.93a.9.9 0 0 0 .13-1.15.88.88 0 0 0 -1.34-.12l-2 2a12.14 12.14 0 0 1 -3-7.18h2.71a.91.91 0 0 0 .91-.73.87.87 0 0 0 -.86-1h-2.76a12.1 12.1 0 0 1 3-7.15l1.91 1.91a.88.88 0 0 0 1.3-.1.91.91 0 0 0 -.08-1.23l-1.92-1.87a12.22 12.22 0 0 1 8-3v7.86l6.84-5.05a1.88 1.88 0 0 1 1.16-.38 1.86 1.86 0 0 1 1.47 3l-5.07 6.83h8.68a.92.92 0 0 0 .92-1 13.84 13.84 0 0 0 -1.5-5.35z"/></g></svg>