<svg height="64" viewBox="0 0 64 64" width="64" xmlns="http://www.w3.org/2000/svg"><circle cx="32" cy="32" fill="#ffffff" r="26.59"/><g fill="#2685de"><path d="m32 6.91a25.09 25.09 0 1 1 -25.09 25.09 25.12 25.12 0 0 1 25.09-25.09m0-3a28.09 28.09 0 1 0 28.09 28.09 28.09 28.09 0 0 0 -28.09-28.09z"/><path d="m22.64 31.13a3.17 3.17 0 1 0 2 2.87 3.18 3.18 0 0 0 -2-2.87zm.11 3.17a1.27 1.27 0 0 1 -1.45 1 1.26 1.26 0 0 1 -1-1.45 1.24 1.24 0 0 1 1.44-1 1.26 1.26 0 0 1 1.01 1.45z"/><path d="m17 33.67h.23a2.73 2.73 0 0 1 .07-.49 4.19 4.19 0 0 1 8.28.1 4.55 4.55 0 0 1 -.14 1.92l11.6 2.16a4.29 4.29 0 0 1 5.55-3.74 4.25 4.25 0 0 1 2.82 3.38 4.57 4.57 0 0 1 -.13 1.92l.74.14a1.35 1.35 0 0 0 1.56-1.06l.21-1.13a1 1 0 0 0 -.8-1.26l.14-.75a4.09 4.09 0 0 0 -2.7-4.6l-3.16-1.07-3.06-3.8a4 4 0 0 0 -2.3-1.19l-8.28-1.54a3.24 3.24 0 0 0 -3.39 1.34l-1.32 1.7-2.58-.48a2.56 2.56 0 0 0 -3 2l-.47 2.56s-.54.08-.58.31l-.29 2.02a1.34 1.34 0 0 0 1 1.56zm14.8-7.8 3.8.71a2.68 2.68 0 0 1 1.49.81l1.75 2.39-7.51-1.4zm-6.46 0a2 2 0 0 1 2-.79l3.47.65-.46 2.51-5.91-1.1z"/><path d="m43.06 39.65c.79.29 1.36-.55 1.47-1.55a3.17 3.17 0 1 0 -6.3-.68c-.13 1.24 1.47 3.11 1.47 3.11h-23.94v.87h32.48v-1.75zm-2.92-2a1.24 1.24 0 0 1 1.38-1.11 1.25 1.25 0 1 1 -1.38 1.11z"/></g></svg>