<svg viewBox="0 0 64 64" xmlns="http://www.w3.org/2000/svg"><circle cx="32" cy="32" fill="#5f6062" r="28.09"/><g fill="#ffffff"><path d="m22.47 30.59a3.17 3.17 0 1 0 2.65 3.61 3.17 3.17 0 0 0 -2.65-3.61zm.75 3.32a1.25 1.25 0 1 1 -1-1.43 1.25 1.25 0 0 1 1 1.43z"/><path d="m17.55 33.38h.17a2.6 2.6 0 0 1 .06-.5 4.19 4.19 0 0 1 8.28 0 4.45 4.45 0 0 1 -.06 1.93l11.64 2a2.45 2.45 0 0 1 .06-.5 4.19 4.19 0 0 1 8.28 0 4.44 4.44 0 0 1 -.1 1.92l1.06.18c.68.11 1.11-.47 1.22-1.15l.2-1.13a.94.94 0 0 0 -.82-1.24l.13-.75a4.09 4.09 0 0 0 -2.78-4.55l-3.17-1-3.13-3.75a4.06 4.06 0 0 0 -2.32-1.16l-8.3-1.4a3.25 3.25 0 0 0 -3.36 1.44l-1.29 1.72-2.56-.43a2.57 2.57 0 0 0 -3 2.08l-.44 2.56s-.53.1-.57.32l-.33 1.95a1.47 1.47 0 0 0 1.13 1.46zm14.59-8.92 3.86.64a2.74 2.74 0 0 1 1.51.79l1.79 2.36-7.58-1.25zm-6.45.06a1.94 1.94 0 0 1 2-.82l3.48.59-.43 2.52-5.92-1z"/><path d="m43.58 39.89a3.16 3.16 0 1 0 -3.36 0h-24.33v1h32.68v-1zm-2.92-2.74a1.26 1.26 0 0 1 1.39-1.1 1.25 1.25 0 1 1 -1.39 1.1z"/></g></svg>