<svg height="64" viewBox="0 0 64 64" width="64" xmlns="http://www.w3.org/2000/svg"><circle cx="33.07" cy="32.09" fill="#00844d" r="32"/><g fill="#ffffff"><path d="m21.46 30.39a3.61 3.61 0 1 0 3 4.12 3.61 3.61 0 0 0 -3-4.12zm.86 3.78a1.43 1.43 0 1 1 -1.19-1.62 1.43 1.43 0 0 1 1.19 1.62z"/><path d="m15.86 33.57h.19a3.17 3.17 0 0 1 .06-.56 4.78 4.78 0 0 1 9.44 0 5.16 5.16 0 0 1 -.12 2.18l13.26 2.25a3.26 3.26 0 0 1 .06-.57 4.78 4.78 0 0 1 9.44 0 5.2 5.2 0 0 1 -.12 2.13l1.21.2c.77.13 1.26-.54 1.39-1.31l.22-1.29a1.07 1.07 0 0 0 -.89-1.38l.15-.86a4.66 4.66 0 0 0 -3.16-5.18l-3.67-1.18-3.56-4.27a4.63 4.63 0 0 0 -2.65-1.32l-9.45-1.6a3.7 3.7 0 0 0 -3.83 1.64l-1.47 1.95-2.92-.49a2.94 2.94 0 0 0 -3.38 2.38l-.5 2.92s-.61.11-.65.36l-.38 2.22a1.69 1.69 0 0 0 1.33 1.78zm16.62-10.17 4.34.74a3.08 3.08 0 0 1 1.72.89l2 2.7-8.54-1.46zm-7.36.07a2.23 2.23 0 0 1 2.25-.93l4 .67-.48 2.87-6.79-1.14z"/><path d="m45.51 41a3.56 3.56 0 0 0 1.68-2.65 3.61 3.61 0 1 0 -5.51 2.65h-27.68v1.16h37.23v-1.16zm-3.32-3.11a1.42 1.42 0 1 1 1.25 1.58 1.43 1.43 0 0 1 -1.25-1.6z"/></g></svg>