<svg height="64" viewBox="0 0 64 64" width="64" xmlns="http://www.w3.org/2000/svg"><circle cx="32" cy="32" fill="#2685de" r="28.09"/><g fill="#ffffff"><path d="m22.24 30.81a3.17 3.17 0 1 0 2.65 3.62 3.17 3.17 0 0 0 -2.65-3.62zm.76 3.32a1.25 1.25 0 1 1 -1-1.42 1.25 1.25 0 0 1 1 1.42z"/><path d="m17.32 33.61h.17a2.45 2.45 0 0 1 .06-.49 4.19 4.19 0 0 1 8.28 0 4.45 4.45 0 0 1 -.1 1.92l11.63 2a3.85 3.85 0 0 1 .06-.5 4.2 4.2 0 0 1 8.28 0 4.44 4.44 0 0 1 -.1 1.92l1.06.18c.68.12 1.11-.47 1.22-1.15l.2-1.13a.94.94 0 0 0 -.82-1.24l.13-.76a4.09 4.09 0 0 0 -2.77-4.55l-3.18-1-3.14-3.81a4 4 0 0 0 -2.3-1.18l-8.3-1.41a3.27 3.27 0 0 0 -3.36 1.44l-1.34 1.72-2.56-.43a2.57 2.57 0 0 0 -3 2.08l-.44 2.56s-.53.1-.57.33l-.33 1.94a1.49 1.49 0 0 0 1.22 1.56zm14.59-8.93 3.82.65a2.64 2.64 0 0 1 1.5.78l1.77 2.36-7.51-1.27zm-6.45.06a2 2 0 0 1 2-.82l3.48.59-.46 2.49-5.92-1z"/><path d="m43.36 40.11a3.16 3.16 0 1 0 -3.37 0h-24.33v1h32.68v-1zm-2.93-2.74a1.25 1.25 0 0 1 2.49.29 1.25 1.25 0 0 1 -1.38 1.1 1.27 1.27 0 0 1 -1.11-1.39z"/></g></svg>