<svg viewBox="0 0 64 64" xmlns="http://www.w3.org/2000/svg"><circle cx="32" cy="32" fill="#ffffff" r="32"/><g fill="#00844d"><path d="m32 0a32 32 0 1 0 32 32 32 32 0 0 0 -32-32zm0 62.08a30.08 30.08 0 1 1 30.08-30.08 30.11 30.11 0 0 1 -30.08 30.08z"/><path d="m20.16 30.11a3.61 3.61 0 1 0 2.95 4.17 3.62 3.62 0 0 0 -2.95-4.17zm.8 3.8a1.43 1.43 0 1 1 -1.17-1.65 1.43 1.43 0 0 1 1.21 1.65z"/><path d="m14.51 33.2h.19a3.61 3.61 0 0 1 .07-.57 4.78 4.78 0 0 1 9.43.12 5 5 0 0 1 -.15 2.25l13.22 2.46a3.53 3.53 0 0 1 .07-.56 4.78 4.78 0 0 1 9.44.12 5.28 5.28 0 0 1 -.15 2.18l1.2.23c.77.14 1.28-.52 1.42-1.29l.24-1.29a1.08 1.08 0 0 0 -.91-1.43l.16-.86a4.65 4.65 0 0 0 -3.08-5.23l-3.6-1.23-3.48-4.32a4.63 4.63 0 0 0 -2.63-1.36l-9.42-1.76a3.71 3.71 0 0 0 -3.86 1.58l-1.5 1.93-2.91-.53a2.94 2.94 0 0 0 -3.43 2.32l-.54 2.9s-.61.1-.66.36l-.41 2.21a1.68 1.68 0 0 0 1.29 1.77zm16.78-8.89 4.33.8a3.07 3.07 0 0 1 1.7.92l2 2.73-8.56-1.59zm-7.35 0a2.22 2.22 0 0 1 2.26-.9l3.95.73-.53 2.86-6.73-1.3z"/><path d="m44.1 40.89a3.6 3.6 0 1 0 -3.83 0h-27.72v1.11h37.24v-1.1zm-3.33-3.19a1.43 1.43 0 1 1 1.23 1.57 1.44 1.44 0 0 1 -1.23-1.57z"/></g></svg>