<svg height="64" viewBox="0 0 64 64" width="64" xmlns="http://www.w3.org/2000/svg"><circle cx="31.99" cy="32.01" fill="#d52b1e" r="27.78"/><g fill="#ffffff"><path d="m22.34 31.08a3.14 3.14 0 1 0 2.66 3.57 3.13 3.13 0 0 0 -2.66-3.57zm.75 3.29a1.24 1.24 0 1 1 -1-1.41 1.24 1.24 0 0 1 1 1.41z"/><path d="m17.48 33.84h.16a3.58 3.58 0 0 1 .06-.49 4.15 4.15 0 0 1 8.19 0 4.36 4.36 0 0 1 -.1 1.9l11.51 2a3.12 3.12 0 0 1 .05-.49 4.15 4.15 0 0 1 8.19 0 4.36 4.36 0 0 1 -.1 1.9l1.05.18c.67.11 1.1-.47 1.21-1.14l.19-1.12a.93.93 0 0 0 -.81-1.23l.12-.75a4 4 0 0 0 -2.74-4.6l-3.15-1-3.08-3.7a4.08 4.08 0 0 0 -2.3-1.15l-8.21-1.39a3.22 3.22 0 0 0 -3.32 1.44l-1.28 1.7-2.53-.43a2.55 2.55 0 0 0 -2.94 2.06l-.43 2.53s-.53.1-.56.32l-.33 1.93a1.45 1.45 0 0 0 1.15 1.53zm14.43-8.84 3.77.64a2.63 2.63 0 0 1 1.48.77l1.78 2.34-7.45-1.26zm-6.39.06a1.92 1.92 0 0 1 1.95-.81l3.44.58-.42 2.49-5.86-1z"/><path d="m43.22 40.28a3.13 3.13 0 1 0 -3.32 0h-24.07v1h32.32v-1zm-2.89-2.71a1.24 1.24 0 1 1 1.09 1.37 1.25 1.25 0 0 1 -1.09-1.37z"/></g></svg>