<svg viewBox="0 0 64 64" xmlns="http://www.w3.org/2000/svg"><path d="m3.25 59.37h57.8" fill="none" stroke="#5f6062" stroke-miterlimit="10" stroke-width="2"/><g fill="#5f6062"><path d="m43.53 52.54a5.8 5.8 0 1 0 7-4.34 5.8 5.8 0 0 0 -7 4.34zm3.42.79a2.29 2.29 0 1 1 1.71 2.75 2.3 2.3 0 0 1 -1.66-2.75z"/><path d="m7.61 43.27a5.8 5.8 0 1 0 7-4.34 5.81 5.81 0 0 0 -7 4.34zm3.41.79a2.29 2.29 0 1 1 1.72 2.75 2.29 2.29 0 0 1 -1.74-2.75z"/><path d="m4.18 37.78-.87 3.51a2.7 2.7 0 0 0 1.9 3l.3.08a5.9 5.9 0 0 1 .18-.9 7.74 7.74 0 0 1 10.37-5.34 7.8 7.8 0 0 1 4.74 6.43 8.26 8.26 0 0 1 -.45 3.44l20.95 5.2a5.9 5.9 0 0 1 .18-.9 7.67 7.67 0 0 1 15.11 1.09 8.26 8.26 0 0 1 -.45 3.49l1.91.48c1.22.3 2.09-.71 2.39-1.93l.51-2a1.72 1.72 0 0 0 -1.32-2.38l.37-1.37a7.45 7.45 0 0 0 -4.48-8.68l-5.66-2.3-5.18-7.27a7.41 7.41 0 0 0 -4.08-2.43l-14.94-3.71a6 6 0 0 0 -6.33 2.16l-2.59 3-4.62-1.14a4.72 4.72 0 0 0 -5.71 3.4l-1.14 4.57s-.99.1-1.09.5zm28.88-7.78 6.87 1.71a4.89 4.89 0 0 1 2.64 1.63l2.94 4.57-13.57-3.36zm-13.6 1.44 1.82-2.21a3.58 3.58 0 0 1 3.72-1.23l6.27 1.55-1.14 4.55z"/></g></svg>