<svg height="64" viewBox="0 0 64 64" width="64" xmlns="http://www.w3.org/2000/svg"><circle cx="32" cy="31.87" fill="#ffffff" r="26.59"/><g fill="#2685de"><path d="m32 6.79a25.09 25.09 0 1 1 -25.09 25.09 25.12 25.12 0 0 1 25.09-25.09m0-3a28.09 28.09 0 1 0 28.09 28.09 28.09 28.09 0 0 0 -28.09-28.09z"/><path d="m21.28 44.39a2.1 2.1 0 0 0 .78-1.92l-.18-1.47 18.92-2.39.2 1.39a2.12 2.12 0 0 0 2.37 1.83l.62-.08a2.12 2.12 0 0 0 1.83-2.37l-.3-2.35-1-8a5.88 5.88 0 0 0 -1.95-2.31l-3.66-7a4 4 0 0 0 -4-2.12l-12.53 1.64a4 4 0 0 0 -3.38 3.08l-1.75 7.58a5.61 5.61 0 0 0 -1.34 2.87l1 8v.12l.28 2.24a2.12 2.12 0 0 0 .7 1.3h-2v1.74h32.2v-1.78zm19.49-13.75a2 2 0 1 1 -2.25-1.75 2 2 0 0 1 2.25 1.75zm-19.83-7.88a2 2 0 0 1 1.69-1.53l12.43-1.6a2 2 0 0 1 2 1.06l2.12 4.06a.54.54 0 0 1 -.41.78l-18.27 2.35a.54.54 0 0 1 -.59-.65zm.53 8.32a2 2 0 1 1 -1.74 2.26 2 2 0 0 1 1.74-2.26z"/></g></svg>