<svg viewBox="0 0 64 64" xmlns="http://www.w3.org/2000/svg"><circle cx="32" cy="32" fill="#ffffff" r="32"/><g fill="#00844d"><path d="m32 0a32 32 0 1 0 32 32 32 32 0 0 0 -32-32zm0 62.08a30.08 30.08 0 1 1 30.08-30.08 30.11 30.11 0 0 1 -30.08 30.08z"/><path d="m19.73 46.32a2.41 2.41 0 0 0 .9-2.19l-.21-1.64 21.65-2.78.21 1.64a2.42 2.42 0 0 0 2.72 2.09l.7-.09a2.42 2.42 0 0 0 2.1-2.71l-.35-2.7-1.17-9.12c-.13-.71-1.19-1.76-2.24-2.64l-4.19-8a4.55 4.55 0 0 0 -4.64-2.42l-14.21 1.78a4.57 4.57 0 0 0 -3.87 3.52l-2 8.67c-.81 1.11-1.61 2.43-1.53 3.29l1.17 9.12v.13l.33 2.56a2.4 2.4 0 0 0 .79 1.49h-2.31v2h36.84v-2zm22.27-15.74a2.3 2.3 0 1 1 -2.58-2 2.35 2.35 0 0 1 2.58 2zm-22.7-9a2.28 2.28 0 0 1 1.93-1.76l14.28-1.82a2.28 2.28 0 0 1 2.32 1.21l2.42 4.65a.62.62 0 0 1 -.47.89l-20.94 2.67a.6.6 0 0 1 -.67-.74zm.7 9.51a2.3 2.3 0 1 1 -2 2.58 2.35 2.35 0 0 1 2-2.58z"/></g></svg>