<svg viewBox="0 0 64 64" xmlns="http://www.w3.org/2000/svg"><circle cx="32" cy="32" fill="#5f6062" r="28.09"/><path d="m21.23 44.57a2.09 2.09 0 0 0 .77-1.92l-.18-1.44 19-2.44.18 1.44a2.13 2.13 0 0 0 2.38 1.84l.62-.05a2.13 2.13 0 0 0 1.84-2.38l-.3-2.37-1-8a6 6 0 0 0 -2-2.31l-3.68-7.06a4 4 0 0 0 -4.07-2.13l-12.49 1.6a4 4 0 0 0 -3.41 3.09l-1.71 7.56a5.68 5.68 0 0 0 -1.35 2.89l1 8a.5.5 0 0 0 0 .12l.29 2.25a2.07 2.07 0 0 0 .7 1.3h-2v1.76h32.34v-1.75zm19.58-13.81a2 2 0 1 1 -2.26-1.76 2.06 2.06 0 0 1 2.26 1.76zm-19.93-7.91a2 2 0 0 1 1.7-1.55l12.49-1.6a2 2 0 0 1 2 1.07l2.13 4.08a.54.54 0 0 1 -.41.78l-18.35 2.37a.54.54 0 0 1 -.59-.65zm.54 8.36a2 2 0 1 1 -1.75 2.26 2.06 2.06 0 0 1 1.75-2.26z" fill="#ffffff"/></svg>