<svg height="64" viewBox="0 0 64 64" width="64" xmlns="http://www.w3.org/2000/svg"><circle cx="31.81" cy="32" fill="#ffc425" r="28.09"/><path d="m21 44.57a2.12 2.12 0 0 0 .79-1.93l-.18-1.43 19-2.44.19 1.43a2.12 2.12 0 0 0 2.42 1.8l.62-.07a2.13 2.13 0 0 0 1.84-2.39l-.3-2.36-1-8a6 6 0 0 0 -2-2.32l-3.67-7.06a4 4 0 0 0 -4.08-2.12l-12.49 1.6a4 4 0 0 0 -3.4 3.09l-1.74 7.63a5.53 5.53 0 0 0 -1.35 2.88l1 8a.5.5 0 0 0 0 .12l.35 2.27a2.11 2.11 0 0 0 .69 1.3h-2v1.76h32.31v-1.76zm19.63-13.82a2 2 0 1 1 -4 .52 2 2 0 0 1 4-.52zm-19.93-7.9a2 2 0 0 1 1.7-1.55l12.49-1.6a2 2 0 0 1 2 1.06l2.12 4.08a.53.53 0 0 1 -.4.78l-18.35 2.38a.53.53 0 0 1 -.59-.65zm.53 8.35a2 2 0 1 1 -1.74 2.27 2.07 2.07 0 0 1 1.74-2.27z" fill="#ffffff"/></svg>