<svg viewBox="0 0 64 64" xmlns="http://www.w3.org/2000/svg"><path d="m56.94 27.66c-.21-1.15-1.93-2.85-3.62-4.28l-6.79-13a7.41 7.41 0 0 0 -7.53-3.96l-23.07 3a7.4 7.4 0 0 0 -6.28 5.7l-3.22 14.02c-1.31 1.79-2.6 3.93-2.43 5.32l1.9 14.79a1.55 1.55 0 0 0 0 .21l.53 4.15a3.93 3.93 0 0 0 4.4 3.4l1.17-.15a3.92 3.92 0 0 0 3.39-4.4l-.39-2.65 35.1-4.5.35 2.69a3.94 3.94 0 0 0 4.4 3.4l1.15-.19a3.94 3.94 0 0 0 3.4-4.4l-.56-4.37zm-45.57-3.47 1.89-8.28a3.69 3.69 0 0 1 3.15-2.85l23.06-3a3.72 3.72 0 0 1 3.76 2l3.93 7.54a1 1 0 0 1 -.75 1.4l-33.95 4.39a1 1 0 0 1 -1.09-1.2zm3.84 14.56a3.74 3.74 0 1 1 3.22-4.18 3.8 3.8 0 0 1 -3.22 4.18zm27.45-7.29a3.74 3.74 0 1 1 4.18 3.23 3.8 3.8 0 0 1 -4.18-3.23z" fill="#5f6062"/><path d="m2.94 57.64h57.93" fill="none" stroke="#5f6062" stroke-miterlimit="10" stroke-width="2"/></svg>