<svg viewBox="0 0 64 64" xmlns="http://www.w3.org/2000/svg"><circle cx="32" cy="32" fill="#ffffff" r="26.59"/><g fill="#5f6062"><path d="m32 6.91a25.09 25.09 0 1 1 -25.09 25.09 25.12 25.12 0 0 1 25.09-25.09m0-3a28.09 28.09 0 1 0 28.09 28.09 28.09 28.09 0 0 0 -28.09-28.09z"/><path d="m21.28 44.51a2.1 2.1 0 0 0 .78-1.92l-.18-1.43 18.92-2.42.2 1.43a2.12 2.12 0 0 0 2.35 1.83l.62-.08a2.12 2.12 0 0 0 1.83-2.37l-.3-2.36-1-8c-.11-.62-1-1.53-1.95-2.3l-3.66-7a4 4 0 0 0 -4-2.12l-12.43 1.6a4 4 0 0 0 -3.46 3.07l-1.75 7.56a5.64 5.64 0 0 0 -1.34 2.87l1 8 .09.13.28 2.24a2.09 2.09 0 0 0 .7 1.3h-2v1.75h32.11v-1.78zm19.49-13.75a2 2 0 1 1 -2.25-1.76 2 2 0 0 1 2.25 1.76zm-19.83-7.87a2 2 0 0 1 1.69-1.54l12.43-1.59a2 2 0 0 1 2 1.06l2.12 4.06a.53.53 0 0 1 -.41.77l-18.27 2.35a.53.53 0 0 1 -.59-.65zm.53 8.32a2 2 0 1 1 -1.74 2.25 2 2 0 0 1 1.74-2.25z"/></g></svg>