<svg height="64" viewBox="0 0 64 64" width="64" xmlns="http://www.w3.org/2000/svg"><circle cx="31.82" cy="31.92" fill="#d52b1e" r="28.09"/><path d="m21.05 44.49a2.11 2.11 0 0 0 .78-1.93l-.18-1.43 19-2.44.18 1.43a2.15 2.15 0 0 0 2.4 1.88l.61-.08a2.15 2.15 0 0 0 1.85-2.39l-.31-2.36-1-8a6 6 0 0 0 -2-2.32l-3.68-7a4 4 0 0 0 -4.07-2.13l-12.49 1.6a4 4 0 0 0 -3.41 3.09l-1.73 7.52a5.5 5.5 0 0 0 -1.34 2.89l1 8s0 .08 0 .12l.34 2.25a2.12 2.12 0 0 0 .7 1.3h-2v1.76h32.3v-1.76zm19.58-13.81a2 2 0 1 1 -2.26-1.75 2.06 2.06 0 0 1 2.26 1.75zm-19.93-7.91a2 2 0 0 1 1.7-1.55l12.49-1.6a2 2 0 0 1 2 1.06l2.13 4.09a.53.53 0 0 1 -.41.77l-18.35 2.36a.54.54 0 0 1 -.59-.65zm.54 8.35a2 2 0 1 1 -1.75 2.27 2.06 2.06 0 0 1 1.75-2.27z" fill="#ffffff"/></svg>