<svg height="64" viewBox="0 0 64 64" width="64" xmlns="http://www.w3.org/2000/svg"><circle cx="32.13" cy="32.12" fill="#2685de" r="28.09"/><path d="m21.52 44.51a2.08 2.08 0 0 0 .77-1.9l-.18-1.41 18.72-2.41.17 1.42a2.08 2.08 0 0 0 2.36 1.79l.61-.08a2.11 2.11 0 0 0 1.82-2.34l-.3-2.34-1-7.88c-.11-.62-1-1.52-1.93-2.29l-3.62-6.95a4 4 0 0 0 -4-2.1l-12.34 1.6a4 4 0 0 0 -3.36 3l-1.71 7.51a5.5 5.5 0 0 0 -1.33 2.87l1 7.88s0 .08 0 .12l.29 2.21a2.09 2.09 0 0 0 .68 1.29h-2v1.73h31.88v-1.72zm19.29-13.61a2 2 0 0 1 -4 .51 2 2 0 1 1 4-.51zm-19.64-7.79a2 2 0 0 1 1.68-1.52l12.31-1.59a2 2 0 0 1 2 1l2.1 4a.52.52 0 0 1 -.4.76l-18.12 2.41a.53.53 0 0 1 -.58-.64zm.53 8.23a2 2 0 1 1 -1.7 2.23 2 2 0 0 1 1.7-2.23z" fill="#ffffff"/></svg>