<svg viewBox="0 0 64 64" xmlns="http://www.w3.org/2000/svg"><circle cx="32" cy="32.03" fill="#00844d" r="32"/><path d="m20 46.79a2.41 2.41 0 0 0 .9-2.19l-.24-1.6 21.65-2.78.21 1.64a2.43 2.43 0 0 0 2.72 2.1l.7-.1a2.42 2.42 0 0 0 2.06-2.75l-.35-2.69-1.17-9.13c-.13-.72-1.19-1.76-2.24-2.65l-4.18-8a4.57 4.57 0 0 0 -4.64-2.42l-14.2 1.78a4.57 4.57 0 0 0 -3.87 3.52l-2 8.68c-.81 1.1-1.6 2.42-1.53 3.28l1.18 9.13a.51.51 0 0 0 0 .13l.33 2.57a2.37 2.37 0 0 0 .79 1.48h-2.3v2h36.84v-2zm22.28-15.74a2.3 2.3 0 1 1 -2.57-2 2.35 2.35 0 0 1 2.57 2zm-22.7-9a2.29 2.29 0 0 1 1.94-1.76l14.23-1.82a2.3 2.3 0 0 1 2.32 1.21l2.42 4.65a.61.61 0 0 1 -.46.89l-21 2.69a.61.61 0 0 1 -.67-.74zm.61 9.53a2.3 2.3 0 1 1 -2 2.57 2.35 2.35 0 0 1 2-2.58z" fill="#ffffff"/></svg>