<svg viewBox="0 0 64 64" xmlns="http://www.w3.org/2000/svg"><circle cx="32" cy="32.94" fill="#d52b1e" r="28.09"/><path d="m45.92 32.65-4.92-4.94a.42.42 0 0 0 -.71.29v2.33h-5.67v-5.63h2.38a.42.42 0 0 0 .29-.71l-5-5a.41.41 0 0 0 -.58 0l-5 5a.42.42 0 0 0 .29.71h2.35v5.63h-5.62v-2.33a.42.42 0 0 0 -.71-.29l-4.94 4.94a.42.42 0 0 0 0 .59l4.92 4.94a.42.42 0 0 0 .71-.29v-2.33h5.65v5.63h-2.36a.42.42 0 0 0 -.29.71l5 5a.41.41 0 0 0 .58 0l5-5a.42.42 0 0 0 -.29-.71h-2.38v-5.63h5.65v2.33a.42.42 0 0 0 .71.29l4.94-4.94a.42.42 0 0 0 0-.59z" fill="#ffffff"/></svg>