<svg viewBox="0 0 64 64" xmlns="http://www.w3.org/2000/svg"><circle cx="32.24" cy="32.03" fill="#00844d" r="32"/><path d="m48.1 31.16-5.63-5.63a.47.47 0 0 0 -.81.33v2.66h-6.43v-6.42h2.67a.47.47 0 0 0 .33-.81l-5.66-5.65a.46.46 0 0 0 -.67 0l-5.65 5.65a.47.47 0 0 0 .33.81h2.67v6.42h-6.44v-2.66a.47.47 0 0 0 -.8-.33l-5.63 5.63a.46.46 0 0 0 0 .67l5.62 5.63a.47.47 0 0 0 .8-.33v-2.66h6.44v6.42h-2.66a.47.47 0 0 0 -.33.81l5.65 5.66a.48.48 0 0 0 .67 0l5.66-5.66a.47.47 0 0 0 -.33-.81h-2.67v-6.42h6.43v2.66a.47.47 0 0 0 .81.33l5.63-5.63a.48.48 0 0 0 0-.67z" fill="#ffffff"/></svg>