<svg viewBox="0 0 64 64" xmlns="http://www.w3.org/2000/svg"><circle cx="32" cy="32" fill="#5f6062" r="28.09"/><path d="m45.93 31.27-5-4.95a.41.41 0 0 0 -.7.29v2.39h-5.6v-5.69h2.37a.42.42 0 0 0 .29-.71l-5-5a.41.41 0 0 0 -.59 0l-5 5a.42.42 0 0 0 .3.71h2.34v5.69h-5.61v-2.39a.41.41 0 0 0 -.7-.29l-5 4.95a.41.41 0 0 0 0 .58l5 4.95a.41.41 0 0 0 .7-.3v-2.33h5.65v5.64h-2.38a.42.42 0 0 0 -.3.71l5 5a.42.42 0 0 0 .59 0l5-5a.41.41 0 0 0 -.29-.71h-2.37v-5.64h5.65v2.33a.41.41 0 0 0 .7.3l5-4.95a.41.41 0 0 0 -.05-.58z" fill="#ffffff"/></svg>