<svg viewBox="0 0 64 64" xmlns="http://www.w3.org/2000/svg"><path d="m59.87 31.42-9.87-9.91a.83.83 0 0 0 -1.41.59v4.67h-11.34v-11.28h4.69a.83.83 0 0 0 .59-1.42l-9.94-9.94a.83.83 0 0 0 -1.18 0l-9.94 9.94a.83.83 0 0 0 .59 1.42h4.69v11.28h-11.31v-4.67a.83.83 0 0 0 -1.44-.59l-9.9 9.91a.8.8 0 0 0 0 1.16l9.9 9.91a.83.83 0 0 0 1.41-.59v-4.67h11.34v11.28h-4.69a.83.83 0 0 0 -.59 1.42l9.94 9.94a.83.83 0 0 0 1.18 0l9.94-9.94a.83.83 0 0 0 -.59-1.42h-4.69v-11.28h11.31v4.67a.83.83 0 0 0 1.41.59l9.9-9.91a.8.8 0 0 0 0-1.16z" fill="#5f6062"/></svg>