<svg viewBox="0 0 64 64" xmlns="http://www.w3.org/2000/svg"><circle cx="32" cy="32" fill="#ffffff" r="32"/><g fill="#00844d"><path d="m32 0a32 32 0 1 0 32 32 32 32 0 0 0 -32-32zm0 62.08a30.08 30.08 0 1 1 30.08-30.08 30.11 30.11 0 0 1 -30.08 30.08z"/><path d="m47.86 31.67-5.63-5.67a.48.48 0 0 0 -.81.33v2.67h-6.42v-6.4h2.67a.47.47 0 0 0 .33-.8l-5.66-5.66a.45.45 0 0 0 -.66 0l-5.68 5.66a.47.47 0 0 0 .33.8h2.67v6.4h-6.42v-2.64a.48.48 0 0 0 -.81-.33l-5.63 5.64a.45.45 0 0 0 0 .66l5.63 5.67a.48.48 0 0 0 .81-.33v-2.67h6.42v6.4h-2.66a.47.47 0 0 0 -.33.8l5.66 5.66a.45.45 0 0 0 .66 0l5.67-5.66a.47.47 0 0 0 -.33-.8h-2.67v-6.4h6.43v2.66a.48.48 0 0 0 .81.33l5.63-5.64a.45.45 0 0 0 -.01-.68z"/></g></svg>