<svg viewBox="0 0 64 64" xmlns="http://www.w3.org/2000/svg"><circle cx="32.12" cy="31.83" fill="#ffffff" r="32"/><g fill="#2685de"><path d="m32.12-.17a32 32 0 1 0 32 32 32 32 0 0 0 -32-32zm0 62.08a30.08 30.08 0 1 1 30.09-30.08 30.12 30.12 0 0 1 -30.09 30.08z"/><path d="m48 31.5-5.64-5.63a.47.47 0 0 0 -.8.33v2.66h-6.45v-6.42h2.67a.48.48 0 0 0 .34-.81l-5.66-5.63a.48.48 0 0 0 -.67 0l-5.66 5.66a.48.48 0 0 0 .34.81h2.67v6.42h-6.44v-2.69a.47.47 0 0 0 -.8-.33l-5.64 5.63a.48.48 0 0 0 0 .67l5.64 5.63a.47.47 0 0 0 .8-.33v-2.66h6.44v6.42h-2.67a.48.48 0 0 0 -.34.81l5.66 5.65a.47.47 0 0 0 .67 0l5.66-5.69a.48.48 0 0 0 -.34-.81h-2.67v-6.38h6.44v2.66a.47.47 0 0 0 .8.33l5.65-5.63a.48.48 0 0 0 0-.67z"/></g></svg>