<svg viewBox="0 0 64 64" xmlns="http://www.w3.org/2000/svg"><ellipse cx="32" cy="32" fill="#ffffff" rx="26.59" ry="26.44"/><g fill="#d52b1e"><path d="m32 7.06a24.94 24.94 0 1 1 -25.09 24.94 25 25 0 0 1 25.09-24.94m0-3a27.94 27.94 0 1 0 28.09 27.94 28 28 0 0 0 -28.09-27.94z"/><path d="m45.81 31.71-4.91-4.88a.41.41 0 0 0 -.7.29v2.3h-5.6v-5.56h2.32a.41.41 0 0 0 .3-.69l-4.93-4.9a.41.41 0 0 0 -.58 0l-4.93 4.9a.41.41 0 0 0 .3.69h2.32v5.56h-5.6v-2.3a.41.41 0 0 0 -.7-.29l-4.91 4.88a.41.41 0 0 0 0 .58l4.91 4.88a.41.41 0 0 0 .7-.29v-2.3h5.6v5.56h-2.32a.41.41 0 0 0 -.3.69l4.93 4.9a.41.41 0 0 0 .58 0l4.93-4.9a.41.41 0 0 0 -.3-.69h-2.32v-5.56h5.6v2.3a.41.41 0 0 0 .7.29l4.91-4.88a.41.41 0 0 0 0-.58z"/></g></svg>