<svg viewBox="0 0 64 64" xmlns="http://www.w3.org/2000/svg"><ellipse cx="31.97" cy="32.03" fill="#ffffff" rx="26.59" ry="26.44"/><path d="m32 7.09a24.94 24.94 0 1 1 -25.12 24.91 25 25 0 0 1 25.12-24.91m0-3a27.94 27.94 0 1 0 28.06 27.91 28 28 0 0 0 -28.06-27.91z" fill="#f2b719"/><path d="m45.78 31.74-4.91-4.87a.41.41 0 0 0 -.7.28v2.31h-5.6v-5.56h2.32a.41.41 0 0 0 .29-.7l-4.92-4.9a.41.41 0 0 0 -.58 0l-4.93 4.9a.41.41 0 0 0 .29.7h2.33v5.56h-5.6v-2.31a.41.41 0 0 0 -.7-.28l-4.91 4.87a.41.41 0 0 0 0 .58l4.91 4.88a.41.41 0 0 0 .7-.29v-2.3h5.6v5.56h-2.37a.41.41 0 0 0 -.29.7l4.93 4.89a.41.41 0 0 0 .58 0l4.92-4.89a.41.41 0 0 0 -.29-.7h-2.28v-5.56h5.6v2.3a.41.41 0 0 0 .7.29l4.91-4.88a.41.41 0 0 0 0-.58z" fill="#ffc425"/></svg>