<svg viewBox="0 0 64 64" xmlns="http://www.w3.org/2000/svg"><path d="m32 58.59a26.59 26.59 0 1 1 26.59-26.59 26.62 26.62 0 0 1 -26.59 26.59z" fill="#ffffff"/><path d="m32 6.91a25.09 25.09 0 1 1 -25.09 25.09 25.12 25.12 0 0 1 25.09-25.09m0-3a28.09 28.09 0 1 0 28.09 28.09 28.09 28.09 0 0 0 -28.09-28.09z" fill="#2685de"/><path d="m32 58.59a26.59 26.59 0 1 1 26.59-26.59 26.62 26.62 0 0 1 -26.59 26.59z" fill="#ffffff"/><g fill="#5f6062"><path d="m32 6.91a25.09 25.09 0 1 1 -25.09 25.09 25.12 25.12 0 0 1 25.09-25.09m0-3a28.09 28.09 0 1 0 28.09 28.09 28.09 28.09 0 0 0 -28.09-28.09z"/><path d="m31.53 45.71a15.86 15.86 0 0 1 -13.07-4.81.86.86 0 0 1 .79-1.45 17.25 17.25 0 0 0 5.4.35 16.91 16.91 0 0 0 15.15-15.17 17.12 17.12 0 0 0 -.35-5.38.86.86 0 0 1 1.45-.79 15.87 15.87 0 0 1 -9.37 27.25z"/></g></svg>