<svg viewBox="0 0 64 64" xmlns="http://www.w3.org/2000/svg"><circle cx="31.76" cy="31.56" fill="#ffffff" r="32"/><path d="m31.76-.76a32.32 32.32 0 1 0 32.31 32.32 32.32 32.32 0 0 0 -32.31-32.32zm0 62.69a30.38 30.38 0 1 1 30.37-30.37 30.41 30.41 0 0 1 -30.37 30.37zm12.7-47.78q-3.75-3.28-10-3.28h-18.25v42.41h8.79v-15.28h8.83q6.91 0 10.64-3.11t3.73-10.61q.01-6.86-3.74-10.13zm-6.74 15.05a6.78 6.78 0 0 1 -4.72 1.52h-8v-12.49h8a7.17 7.17 0 0 1 4.72 1.41c1.12.94 1.68 2.52 1.68 4.72s-.56 3.82-1.68 4.84z" fill="#d52b1e"/></svg>