<svg viewBox="0 0 64 63.84" xmlns="http://www.w3.org/2000/svg"><circle cx="32" cy="31.88" fill="#ffffff" r="32"/><g fill="#00844d"><path d="m32-.12a32 32 0 1 0 32 32 32 32 0 0 0 -32-32zm0 62.12a30.08 30.08 0 1 1 30.08-30.12 30.12 30.12 0 0 1 -30.08 30.12z"/><path d="m44.28 34.72q-3.73 3.12-10.64 3.11h-8.83v15.25h-8.81v-42.41h18.21q6.3 0 10 3.28t3.79 10.16q0 7.5-3.72 10.61zm-6.77-15.28a7.13 7.13 0 0 0 -4.72-1.44h-8v12.52h8a6.8 6.8 0 0 0 4.72-1.52q1.68-1.53 1.68-4.84c0-2.16-.56-3.78-1.68-4.72z"/></g></svg>