<svg viewBox="0 0 64 64" xmlns="http://www.w3.org/2000/svg"><circle cx="32" cy="32" fill="#ffffff" r="26.59"/><g fill="#5f6062"><path d="m32 6.91a25.09 25.09 0 1 1 -25.09 25.09 25.12 25.12 0 0 1 25.09-25.09m0-3a28.09 28.09 0 1 0 28.09 28.09 28.09 28.09 0 0 0 -28.09-28.09z"/><path d="m42.65 34.47c-2.16 1.8-5.23 2.7-9.23 2.7h-7.66v13.22h-7.64v-36.78h15.8c3.64 0 6.54.94 8.71 2.84s3.25 4.83 3.25 8.81q0 6.51-3.23 9.21zm-5.87-13.25a6.16 6.16 0 0 0 -4.09-1.22h-6.93v10.83h6.93a5.84 5.84 0 0 0 4.09-1.33 5.41 5.41 0 0 0 1.46-4.19c0-1.91-.49-3.31-1.46-4.09z"/></g></svg>