<svg viewBox="0 0 54.15 69.25" xmlns="http://www.w3.org/2000/svg"><g fill="#cccccc"><path d="m54.14 45.69c-.06-1.18-1.57-3.11-3.09-4.77l-5.14-13.92a7.51 7.51 0 0 0 -7-4.92h-4.13a6.34 6.34 0 0 1 0 .76 7.64 7.64 0 0 1 -.6 3h4.64a3.76 3.76 0 0 1 3.52 2.47l3 8.08a1 1 0 0 1 -.94 1.35h-34.67a1 1 0 0 1 -.94-1.35l3-8.08a3.78 3.78 0 0 1 3.53-2.47h4.64a7.64 7.64 0 0 1 -.6-3c0-.26 0-.51 0-.76h-4.07a7.51 7.51 0 0 0 -7 4.92l-5.1 13.66c-1.55 1.64-3.13 3.62-3.19 5.03v15.11.2 4.24a4 4 0 0 0 4 4h1.17a4 4 0 0 0 4-4v-2.69h35.83v2.71a4 4 0 0 0 4 4h1.16a4 4 0 0 0 4-4v-4.46-15.11zm-43.37 5.77a3.79 3.79 0 0 1 0-7.57 3.79 3.79 0 0 1 0 7.57zm32.32 0a3.79 3.79 0 1 1 3.78-3.79 3.86 3.86 0 0 1 -3.78 3.79z"/><circle cx="27.07" cy="22.79" r="3.75"/><path d="m43 11.45a2 2 0 0 1 -1.53-.72 18.8 18.8 0 0 0 -28.8 0 2 2 0 1 1 -3.04-2.61 22.79 22.79 0 0 1 34.92.05 2 2 0 0 1 -.25 2.83 2 2 0 0 1 -1.3.45z"/><path d="m35.76 17.52a2 2 0 0 1 -1.53-.71 9.31 9.31 0 0 0 -14.29 0 2 2 0 0 1 -3.06-2.58 13.31 13.31 0 0 1 20.41 0 2 2 0 0 1 -1.53 3.28z"/></g></svg>