<svg viewBox="0 0 100 100" xmlns="http://www.w3.org/2000/svg"><g fill="#0096d6"><path d="m77.07 58.7c-.07-1.19-1.57-3.12-3.07-4.77l-5.16-13.93a7.53 7.53 0 0 0 -7.06-5h-4.07v.76a7.69 7.69 0 0 1 -.61 3h4.64a3.75 3.75 0 0 1 3.53 2.46l3 8.08a1 1 0 0 1 -.94 1.35h-34.67a1 1 0 0 1 -.94-1.35l3-8.08a3.75 3.75 0 0 1 3.53-2.46h4.64a7.69 7.69 0 0 1 -.61-3c0-.26 0-.51 0-.76h-4.06a7.53 7.53 0 0 0 -7.06 5l-5 13.72c-1.56 1.63-3.13 3.62-3.19 5v15.08a1.55 1.55 0 0 0 0 .22v4.25a4 4 0 0 0 4 4h1.17a4 4 0 0 0 4-4v-2.71h35.8v2.71a4 4 0 0 0 4 4h1.17a4 4 0 0 0 4-4v-4.47-15.1zm-43.37 5.76a3.79 3.79 0 1 1 3.78-3.78 3.86 3.86 0 0 1 -3.78 3.78zm32.32 0a3.79 3.79 0 1 1 3.78-3.78 3.86 3.86 0 0 1 -3.8 3.78z"/><circle cx="50" cy="35.79" r="3.75"/><path d="m66 24.45a2 2 0 0 1 -1.54-.71 18.78 18.78 0 0 0 -28.79 0 2 2 0 1 1 -3.06-2.57 22.78 22.78 0 0 1 34.92 0 2 2 0 0 1 -1.53 3.28z"/><path d="m58.69 30.53a2 2 0 0 1 -1.54-.72 9.33 9.33 0 0 0 -14.29 0 2 2 0 1 1 -3.06-2.57 13.33 13.33 0 0 1 20.42 0 2 2 0 0 1 -1.53 3.29z"/></g></svg>