<svg viewBox="0 0 64 64" xmlns="http://www.w3.org/2000/svg"><g fill="#0096d6"><path d="m42.06 35.82a2.38 2.38 0 1 0 2.37 2.37 2.42 2.42 0 0 0 -2.37-2.37z"/><path d="m21.76 35.82a2.38 2.38 0 1 0 2.38 2.37 2.41 2.41 0 0 0 -2.38-2.37z"/><path d="m32 0a32 32 0 1 0 32 32 32 32 0 0 0 -32-32zm-10.95 13.36a14.31 14.31 0 0 1 21.93 0 1.26 1.26 0 0 1 -.16 1.77 1.3 1.3 0 0 1 -.81.29 1.24 1.24 0 0 1 -1-.45 11.79 11.79 0 0 0 -18.01.03 1.26 1.26 0 0 1 -1.92-1.62zm11 3.35a5.83 5.83 0 0 0 -4.48 2.09 1.26 1.26 0 0 1 -1.92-1.62 8.37 8.37 0 0 1 12.82 0 1.26 1.26 0 0 1 -.21 1.82 1.22 1.22 0 0 1 -.81.29 1.25 1.25 0 0 1 -1-.45 5.86 5.86 0 0 0 -4.45-2.13zm2.35 5.86a2.35 2.35 0 1 1 -2.4-2.36 2.35 2.35 0 0 1 2.35 2.36zm14.6 23.87v2.8a2.5 2.5 0 0 1 -2.5 2.5h-.73a2.5 2.5 0 0 1 -2.51-2.5v-1.7h-22.51v1.7a2.5 2.5 0 0 1 -2.51 2.5h-.73a2.5 2.5 0 0 1 -2.5-2.5v-2.67a.57.57 0 0 1 0-.13v-9.44c0-.88 1-2.13 2-3.16l3.17-8.61a4.72 4.72 0 0 1 4.43-3.09h2.56a3.87 3.87 0 0 0 0 .48 4.89 4.89 0 0 0 .38 1.88h-2.95a2.35 2.35 0 0 0 -2.21 1.5l-1.87 5.07a.63.63 0 0 0 .59.85h21.78a.63.63 0 0 0 .59-.85l-1.87-5.07a2.35 2.35 0 0 0 -2.21-1.55h-2.91a4.89 4.89 0 0 0 .38-1.88 3.87 3.87 0 0 0 0-.48h2.53a4.72 4.72 0 0 1 4.43 3.09l3.23 8.82c.94 1 1.94 2.21 1.94 3z"/></g></svg>