<svg viewBox="0 0 65 65" xmlns="http://www.w3.org/2000/svg"><path d="m32.46 0a32.5 32.5 0 1 0 32.54 32.47 32.5 32.5 0 0 0 -32.54-32.47zm0 63.059a30.559 30.559 0 1 1 30.589-30.589 30.559 30.559 0 0 1 -30.589 30.589z" fill="#ebebeb"/><g fill="#0d96d4"><path d="m34.319 23.753a2.135 2.135 0 0 0 -2.14-2.14 2.173 2.173 0 0 0 -2.14 2.14 2.14 2.14 0 0 0 4.28 0z"/><path d="m47.797 36.999a6.894 6.894 0 0 0 -1.793-2.776l-2.95-8.1a4.378 4.378 0 0 0 -4.049-2.833h-2.372v.463a4.226 4.226 0 0 1 -.347 1.737h2.66a2.119 2.119 0 0 1 2.025 1.446l1.735 4.685a.547.547 0 0 1 -.521.752h-20.07a.54.54 0 0 1 -.521-.752l1.735-4.685a2.175 2.175 0 0 1 2.025-1.446h2.661a4.226 4.226 0 0 1 -.347-1.735v-.465h-2.372a4.455 4.455 0 0 0 -4.107 2.834l-2.892 7.925a5.919 5.919 0 0 0 -1.851 2.892v11.279a2.321 2.321 0 0 0 2.314 2.314h.694a2.321 2.321 0 0 0 2.314-2.314v-1.561h20.765v1.561a2.321 2.321 0 0 0 2.313 2.314h.7a2.321 2.321 0 0 0 2.314-2.314v-2.6l-.058-8.619zm-25.051 3.355a2.2 2.2 0 0 1 0-4.4 2.235 2.235 0 0 1 2.2 2.2 2.275 2.275 0 0 1 -2.2 2.2zm18.683 0a2.2 2.2 0 1 1 2.2-2.2 2.275 2.275 0 0 1 -2.195 2.2z"/><path d="m41.376 17.217a1.041 1.041 0 0 1 -.868-.4 10.837 10.837 0 0 0 -16.659-.058 1.148 1.148 0 0 1 -1.735-1.5 13.163 13.163 0 0 1 20.187.058 1.174 1.174 0 0 1 -.116 1.62 1.535 1.535 0 0 1 -.809.28z"/><path d="m37.212 20.687a1.041 1.041 0 0 1 -.868-.4 5.453 5.453 0 0 0 -4.165-1.909 5.248 5.248 0 0 0 -4.107 1.909 1.148 1.148 0 1 1 -1.735-1.5 7.7 7.7 0 0 1 5.9-2.719 7.489 7.489 0 0 1 5.9 2.776 1.174 1.174 0 0 1 -.116 1.62 1.582 1.582 0 0 1 -.809.223z"/></g></svg>