<svg viewBox="0 0 185.58 188.34" xmlns="http://www.w3.org/2000/svg"><path d="m92.79 188.34a92.82 92.82 0 1 1 92.79-92.84 92.9 92.9 0 0 1 -92.79 92.84zm0-182.58a89.77 89.77 0 1 0 89.79 89.74 89.88 89.88 0 0 0 -89.79-89.74z" fill="#ebebeb"/><ellipse cx="92.5" cy="3.6" fill="#767676" rx="3.5" ry="3.6"/><g fill="#0d96d4"><path d="m97.31 54.31a3.74 3.74 0 0 0 -3.74-3.75 3.8 3.8 0 0 0 -3.74 3.75 3.75 3.75 0 0 0 7.5 0z"/><path d="m120.91 77.5c-.1-1.21-1.63-3.14-3.14-4.86l-5.17-14.18a7.65 7.65 0 0 0 -7.09-5h-4.16v.81a7.32 7.32 0 0 1 -.6 3h4.66a3.72 3.72 0 0 1 3.59 2.61l3 8.2a1 1 0 0 1 -.53 1.25 1 1 0 0 1 -.38.07h-35.16a1 1 0 0 1 -1-.91.84.84 0 0 1 .08-.41l3-8.21a3.83 3.83 0 0 1 3.55-2.53h4.66a7.49 7.49 0 0 1 -.61-3v-.84h-4.11a7.79 7.79 0 0 0 -7.19 5l-5.07 13.84c-1.62 1.66-3.14 3.66-3.24 5.06v19.76a4.07 4.07 0 0 0 4 4h1.22a4.07 4.07 0 0 0 4-4v-2.74h36.37v2.74a4.06 4.06 0 0 0 4 4h1.41a4.07 4.07 0 0 0 4.06-4v-4.56l-.1-15.1zm-43.91 5.88a3.85 3.85 0 0 1 0-7.7 3.91 3.91 0 0 1 3.85 3.85 4 4 0 0 1 -3.85 3.85zm32.72 0a3.85 3.85 0 1 1 3.85-3.85 4 4 0 0 1 -3.81 3.85z"/><path d="m109.66 42.86a1.83 1.83 0 0 1 -1.52-.71 19 19 0 0 0 -29.14-.1 2 2 0 0 1 -3-2.64 23.06 23.06 0 0 1 32.48-2.79 23.74 23.74 0 0 1 2.87 2.89 2 2 0 0 1 -.2 2.84 2.69 2.69 0 0 1 -1.49.51z"/><path d="m102.37 48.93a1.81 1.81 0 0 1 -1.52-.71 9.57 9.57 0 0 0 -7.3-3.34 9.21 9.21 0 0 0 -7.19 3.35 2 2 0 0 1 -3.07-2.59 13.51 13.51 0 0 1 10.34-4.77 13.11 13.11 0 0 1 10.37 4.83 2.06 2.06 0 0 1 -.2 2.83 2.74 2.74 0 0 1 -1.43.4z"/></g><g fill="#333333" font-family="Helvetica-Bold, Helvetica" font-size="20" font-weight="700"><text transform="translate(44.99 133.21)">No Scored</text><text transform="translate(53.48 157.21)"><tspan letter-spacing="-.05em">T</tspan><tspan x="11.12" y="0">rips</tspan><tspan letter-spacing="-.02em" x="47.8" y="0"/><tspan letter-spacing="-.05em" x="53.01" y="0">Y</tspan><tspan x="65.25" y="0">et</tspan></text></g></svg>