<svg viewBox="0 0 64.63 64.63" xmlns="http://www.w3.org/2000/svg"><path d="m32.32 0a32.32 32.32 0 1 0 32.31 32.31 32.32 32.32 0 0 0 -32.31-32.31zm0 62.69a30.38 30.38 0 1 1 30.37-30.38 30.42 30.42 0 0 1 -30.37 30.38z" fill="#333333"/><path d="m32.32 1.94a30.38 30.38 0 1 0 30.37 30.37 30.41 30.41 0 0 0 -30.37-30.37zm15.58 40.83-2 2-1.48 1.48-.16.14a1.59 1.59 0 0 1 -.29.15c-4.24 2.17-12.36-1.06-19.21-7.91s-10.07-15-7.91-19.2a1.11 1.11 0 0 1 .17-.3 1.83 1.83 0 0 1 .13-.16l1.48-1.47 2-2a1.33 1.33 0 0 1 1.88 0l1.26 1.26.71.78 3.42 4.8a1.32 1.32 0 0 1 0 1.87l-2.74 2.79a1.33 1.33 0 0 1 -1.51.25 16.18 16.18 0 0 0 12.54 12.51 1.32 1.32 0 0 1 .26-1.51l2.74-2.75a1.35 1.35 0 0 1 1.88 0l4.79 3.43.78.7 1.26 1.27a1.32 1.32 0 0 1 0 1.87z" fill="#ffffff"/><path d="m47.9 42.77-2 2-1.48 1.48-.16.14a1.59 1.59 0 0 1 -.29.15c-4.24 2.17-12.36-1.06-19.21-7.91s-10.07-15-7.91-19.2a1.11 1.11 0 0 1 .17-.3 1.83 1.83 0 0 1 .13-.16l1.48-1.47 2-2a1.33 1.33 0 0 1 1.88 0l1.26 1.26.71.78 3.42 4.8a1.32 1.32 0 0 1 0 1.87l-2.74 2.79a1.33 1.33 0 0 1 -1.51.25 16.18 16.18 0 0 0 12.54 12.51 1.32 1.32 0 0 1 .26-1.51l2.74-2.75a1.35 1.35 0 0 1 1.88 0l4.79 3.43.78.7 1.26 1.27a1.32 1.32 0 0 1 0 1.87z" fill="#333333"/></svg>