<svg viewBox="0 0 64.2 64.21" xmlns="http://www.w3.org/2000/svg"><path d="m63.43 51.6-2.53-2.53-1.56-1.42-9.59-6.84a2.66 2.66 0 0 0 -3.76 0l-5.49 5.48a2.66 2.66 0 0 0 -.51 3 32.42 32.42 0 0 1 -25.11-25.1 2.67 2.67 0 0 0 3-.52l5.49-5.49a2.66 2.66 0 0 0 0-3.75l-6.85-9.6-1.39-1.53-2.52-2.52a2.66 2.66 0 0 0 -3.76 0l-4 4-3 3a2.51 2.51 0 0 0 -.19.22 2.46 2.46 0 0 0 -.33.59c-4.33 8.51 2.14 24.76 15.83 38.46s30 20.15 38.44 15.82a2.63 2.63 0 0 0 .57-.31 2.07 2.07 0 0 0 .32-.28l3-3 4-4a2.66 2.66 0 0 0 -.06-3.68z" fill="#333333"/></svg>