<svg viewBox="0 0 185.58 188.34" xmlns="http://www.w3.org/2000/svg"><path d="m92.79 188.34a92.82 92.82 0 1 1 92.79-92.84 92.9 92.9 0 0 1 -92.79 92.84zm0-182.58a89.77 89.77 0 1 0 89.79 89.74 89.88 89.88 0 0 0 -89.79-89.74z" fill="#ebebeb"/><ellipse cx="92.5" cy="3.6" fill="#767676" rx="3.5" ry="3.6"/><g fill="#ebebeb"><path d="m97.31 54.3a3.74 3.74 0 0 0 -3.74-3.74 3.8 3.8 0 0 0 -3.74 3.74 3.75 3.75 0 1 0 7.5 0z"/><path d="m120.91 77.5c-.1-1.21-1.63-3.14-3.14-4.86l-5.17-14.18a7.67 7.67 0 0 0 -7.09-5h-4.16v.81a7.37 7.37 0 0 1 -.6 3h4.66a3.71 3.71 0 0 1 3.59 2.61l3 8.2a1 1 0 0 1 -.53 1.25 1 1 0 0 1 -.38.06h-35.16a.94.94 0 0 1 -1-.9.84.84 0 0 1 .08-.41l3-8.21a3.83 3.83 0 0 1 3.55-2.53h4.66a7.54 7.54 0 0 1 -.61-3v-.81h-4.11a7.8 7.8 0 0 0 -7.19 5l-5.07 13.81c-1.62 1.66-3.14 3.66-3.24 5.06v19.75a4.07 4.07 0 0 0 4 4.06h1.22a4.07 4.07 0 0 0 4-4.06v-2.73h36.37v2.73a4.06 4.06 0 0 0 4 4.06h1.41a4.08 4.08 0 0 0 4-4.06v-4.56l-.1-15.09zm-43.91 5.88a3.85 3.85 0 0 1 0-7.7 3.91 3.91 0 0 1 3.85 3.85 4 4 0 0 1 -3.85 3.85zm32.72 0a3.85 3.85 0 1 1 3.85-3.85 4 4 0 0 1 -3.81 3.85z"/><path d="m109.66 42.86a1.83 1.83 0 0 1 -1.52-.71 19 19 0 0 0 -29.14-.1 2 2 0 0 1 -3-2.64 23 23 0 0 1 32.48-2.79 23.74 23.74 0 0 1 2.87 2.89 2 2 0 0 1 -.2 2.84 2.69 2.69 0 0 1 -1.49.51z"/><path d="m102.37 48.93a1.81 1.81 0 0 1 -1.52-.71 9.57 9.57 0 0 0 -7.3-3.34 9.18 9.18 0 0 0 -7.19 3.35 2 2 0 0 1 -3.07-2.59 13.51 13.51 0 0 1 10.34-4.77 13.13 13.13 0 0 1 10.37 4.82 2.07 2.07 0 0 1 -.2 2.84 2.74 2.74 0 0 1 -1.43.4z"/></g><g fill="#333333" font-family="Helvetica-Bold, Helvetica" font-size="20" font-weight="700"><text transform="translate(26.67 133.21)">Download and</text><text transform="translate(54.99 157.21)">Register</text></g></svg>