<svg viewBox="0 0 64.63 64.63" xmlns="http://www.w3.org/2000/svg"><path d="m55.17 9.46a32.32 32.32 0 1 0 0 45.71 32.34 32.34 0 0 0 0-45.71zm-44.34 44.33a30.38 30.38 0 1 1 43 0 30.44 30.44 0 0 1 -43 0z" fill="#333333"/><path d="m53.79 10.83a30.38 30.38 0 1 0 0 43 30.44 30.44 0 0 0 0-43zm-2.33 27.17a1.32 1.32 0 0 1 -1.32 1.32h-1.78-1.07l-5.8-1a1.33 1.33 0 0 1 -1.32-1.33v-3.99a1.32 1.32 0 0 1 .88-1.25 16.24 16.24 0 0 0 -17.75 0 1.33 1.33 0 0 1 .89 1.25v3.89a1.33 1.33 0 0 1 -1.32 1.33l-5.82 1h-1-1.82a1.32 1.32 0 0 1 -1.33-1.22v-5a1.83 1.83 0 0 1 0-.21.73.73 0 0 1 .09-.31c1.45-4.52 9.49-8 19.17-8s17.7 3.46 19.18 8a1.14 1.14 0 0 1 .08.33 1.23 1.23 0 0 1 0 .19z" fill="#ffffff"/><path d="m51.46 33v5a1.32 1.32 0 0 1 -1.32 1.32h-1.78-1.07l-5.8-1a1.33 1.33 0 0 1 -1.32-1.33v-3.99a1.32 1.32 0 0 1 .88-1.25 16.24 16.24 0 0 0 -17.75 0 1.33 1.33 0 0 1 .89 1.25v3.89a1.33 1.33 0 0 1 -1.32 1.33l-5.82 1h-1-1.82a1.32 1.32 0 0 1 -1.33-1.22v-5a1.83 1.83 0 0 1 0-.21.73.73 0 0 1 .09-.31c1.45-4.52 9.49-8 19.17-8s17.7 3.46 19.18 8a1.14 1.14 0 0 1 .08.33 1.23 1.23 0 0 1 .04.19z" fill="#333333"/></svg>