<svg viewBox="0 0 64 64" xmlns="http://www.w3.org/2000/svg"><ellipse cx="31.92" cy="32" fill="#ffffff" rx="31.77" ry="31.66"/><path d="m31.92 0a32 32 0 1 0 32.08 32 32 32 0 0 0 -32.08-32zm0 62a30.05 30.05 0 1 1 30.16-30 30.14 30.14 0 0 1 -30.16 30.05zm-10.13-42.16v-5.48a.5.5 0 0 1 .5-.49h1.32a.49.49 0 0 1 .49.49v5.48c0 .3-.19.49-.49.49h-1.32a.49.49 0 0 1 -.5-.49zm17.89 0v-5.48a.5.5 0 0 1 .49-.49h1.33a.5.5 0 0 1 .49.49v5.48a.46.46 0 0 1 -.49.49h-1.33a.49.49 0 0 1 -.49-.49zm5.7-3.67h-1.74v3.45c0 1.27-1.5 2.3-2.78 2.3s-2.77-1-2.77-2.3v-3.45h-12.34v3.45c0 1.27-1.5 2.3-2.78 2.3s-2.77-1-2.77-2.25v-3.5h-1.75a2.31 2.31 0 0 0 -2.31 2.3v26.83a2.31 2.31 0 0 0 2.31 2.31h26.93a2.3 2.3 0 0 0 2.31-2.31v-26.83a2.3 2.3 0 0 0 -2.31-2.3zm0 28.1a1 1 0 0 1 -1 1h-24.89a1 1 0 0 1 -1-1v-16.27a1 1 0 0 1 1-1h24.85a1 1 0 0 1 1 1zm-16.12-9.85v-4.08a.63.63 0 0 1 .63-.63h4.11a.63.63 0 0 1 .63.63v4.08a.64.64 0 0 1 -.07.27s0 0 0 .05l-.06.08s0 0 0 0l-.07.06a.68.68 0 0 1 -.43.12h-4.1a.63.63 0 0 1 -.64-.58zm-7.79 0v-4.08a.63.63 0 0 1 .63-.63h4.09a.64.64 0 0 1 .64.63v4.08a.64.64 0 0 1 -.07.27v.05a.35.35 0 0 1 -.05.08l-.07.06a.69.69 0 0 1 -.36.1h-4.18a.63.63 0 0 1 -.63-.56zm7.79 7.75v-4.08a.63.63 0 0 1 .63-.63h4.11a.63.63 0 0 1 .63.63v4.08a.64.64 0 0 1 -.07.27s0 0 0 .05l-.06.07a.1.1 0 0 1 0 0l-.07.06a.68.68 0 0 1 -.35.1h-4.1a.63.63 0 0 1 -.72-.55zm-7.79 0v-4.08a.63.63 0 0 1 .63-.63h4.09a.64.64 0 0 1 .64.63v4.08a.64.64 0 0 1 -.07.27v.05a.18.18 0 0 1 -.05.07.1.1 0 0 1 0 0l-.07.06a.69.69 0 0 1 -.36.1h-4.18a.63.63 0 0 1 -.63-.55zm15.58-7.75v-4.08a.64.64 0 0 1 .64-.63h4.09a.63.63 0 0 1 .63.63v4.08a.63.63 0 0 1 -.06.27v.05l-.06.08s0 0 0 0l-.07.06a.68.68 0 0 1 -.35.1h-4.18a.63.63 0 0 1 -.64-.56z" fill="#ffc425"/></svg>