<svg viewBox="0 0 64 64" xmlns="http://www.w3.org/2000/svg"><circle cx="32" cy="32" fill="#ffffff" r="32"/><path d="m32-.31a32.31 32.31 0 1 0 32.31 32.31 32.3 32.3 0 0 0 -32.31-32.31zm0 62.69a30.38 30.38 0 1 1 30.38-30.38 30.42 30.42 0 0 1 -30.38 30.38zm-10.2-42.67v-5.54a.5.5 0 0 1 .5-.5h1.34a.5.5 0 0 1 .49.5v5.54a.45.45 0 0 1 -.49.5h-1.34a.5.5 0 0 1 -.5-.5zm18 0v-5.54a.5.5 0 0 1 .49-.5h1.34a.5.5 0 0 1 .5.5v5.54a.47.47 0 0 1 -.5.5h-1.32a.5.5 0 0 1 -.49-.5zm5.76-3.71h-1.76v3.49c0 1.28-1.51 2.32-2.79 2.32s-2.8-1-2.8-2.32v-3.49h-12.42v3.49c0 1.28-1.51 2.32-2.8 2.32s-2.79-1-2.79-2.27v-3.54h-1.76a2.33 2.33 0 0 0 -2.33 2.33v27.12a2.33 2.33 0 0 0 2.33 2.33h27.12a2.33 2.33 0 0 0 2.33-2.33v-27.12a2.33 2.33 0 0 0 -2.33-2.33zm0 28.41a1 1 0 0 1 -1 1h-25a1 1 0 0 1 -1-1v-16.41a1 1 0 0 1 1-1h25a1 1 0 0 1 1 1zm-16.22-10v-4.09a.63.63 0 0 1 .63-.63h4.12a.64.64 0 0 1 .64.63v4.12a.67.67 0 0 1 -.06.28v.05l-.06.08-.07.06a.64.64 0 0 1 -.36.11h-4.18a.64.64 0 0 1 -.67-.58zm-7.85 0v-4.09a.63.63 0 0 1 .63-.63h4.13a.63.63 0 0 1 .63.63v4.12a.67.67 0 0 1 -.06.28v.05l-.05.08s0 0 0 0l-.07.06a.61.61 0 0 1 -.35.11h-4.24a.64.64 0 0 1 -.63-.58zm7.85 7.84v-4.1a.63.63 0 0 1 .63-.63h4.12a.64.64 0 0 1 .64.63v4.13a.63.63 0 0 1 -.06.27v.05l-.06.08a.08.08 0 0 1 0 0h-.07a.64.64 0 0 1 -.36.11h-4.18a.63.63 0 0 1 -.67-.51zm-7.85 0v-4.1a.63.63 0 0 1 .63-.63h4.13a.63.63 0 0 1 .63.63v4.13a.63.63 0 0 1 -.06.27v.05a.56.56 0 0 1 -.05.08.18.18 0 0 1 -.07 0 .61.61 0 0 1 -.35.11h-4.24a.63.63 0 0 1 -.63-.51zm15.69-7.84v-4.09a.64.64 0 0 1 .64-.63h4.12a.64.64 0 0 1 .64.63v4.12a.68.68 0 0 1 -.07.28v.05a.35.35 0 0 1 0 .08l-.07.06a.66.66 0 0 1 -.36.11h-4.27a.64.64 0 0 1 -.64-.58z" fill="#00844d"/></svg>