<svg viewBox="0 0 64 64" xmlns="http://www.w3.org/2000/svg"><circle cx="31.76" cy="31.56" fill="#d52b1e" r="32"/><g fill="#ffffff"><path d="m20.38 20.13v-6.13a.56.56 0 0 1 .55-.56h1.49a.56.56 0 0 1 .58.56v6.18c.05.33-.22.55-.56.55h-1.51a.55.55 0 0 1 -.55-.6z"/><path d="m40.49 20.13v-6.13a.55.55 0 0 1 .55-.56h1.49a.56.56 0 0 1 .55.56v6.18a.52.52 0 0 1 -.55.55h-1.53a.55.55 0 0 1 -.51-.6z"/><path d="m46.89 17.72h-2v3.51c0 1.3-1.68 2.34-3.12 2.34s-3.12-1-3.12-2.34v-3.51h-13.83v3.51c0 1.3-1.68 2.34-3.11 2.34s-3.12-1-3.12-2.29v-3.56h-2a2.48 2.48 0 0 0 -2.59 2.34v27.32a2.48 2.48 0 0 0 2.59 2.34h30.3a2.48 2.48 0 0 0 2.6-2.34v-27.32a2.48 2.48 0 0 0 -2.6-2.34z"/></g><path d="m47 46.05a1.15 1.15 0 0 1 -1.13 1.17l-27.94.29a1.15 1.15 0 0 1 -1.16-1.15l-.19-18.54a1.16 1.16 0 0 1 1.14-1.18l27.92-.28a1.16 1.16 0 0 1 1.17 1.15z" fill="none" stroke="#d52b1e" stroke-miterlimit="10"/><path d="m28.78 34.57v-4.57a.7.7 0 0 1 .7-.71h4.6a.71.71 0 0 1 .71.71v4.6a.67.67 0 0 1 -.07.31v.06l-.06.08a.12.12 0 0 1 -.05 0l-.08.07a.75.75 0 0 1 -.4.12h-4.6a.7.7 0 0 1 -.75-.67z" fill="#d52b1e"/><path d="m38.54 35.36v-3.06a.47.47 0 0 1 .47-.47h3.06a.47.47 0 0 1 .47.47v3.06a.46.46 0 0 1 0 .21.5.5 0 0 1 -.27.08h-3.27a.48.48 0 0 1 -.46-.29z" fill="#ffffff"/><g fill="#d52b1e"><path d="m28.76 43.3v-4.6a.71.71 0 0 1 .74-.7h4.6a.7.7 0 0 1 .7.71v4.6a.73.73 0 0 1 -.07.3v.06l-.06.09-.08.06a.67.67 0 0 1 -.39.12h-4.6a.71.71 0 0 1 -.84-.64z"/><path d="m20 43.72v-4.6a.71.71 0 0 1 .71-.71h4.6a.7.7 0 0 1 .7.71v4.6a.64.64 0 0 1 -.01.28v.06l-.06.08-.08.06a.67.67 0 0 1 -.39.12h-4.6a.71.71 0 0 1 -.87-.6z"/><path d="m37.53 34.57v-4.57a.7.7 0 0 1 .71-.71h4.6a.7.7 0 0 1 .7.71v4.59a.78.78 0 0 1 -.07.31v.06l-.06.09-.08.06a.67.67 0 0 1 -.39.12h-4.6a.72.72 0 0 1 -.81-.66z"/><path d="m19.78 34.57v-4.57a.7.7 0 0 1 .7-.71h4.6a.71.71 0 0 1 .71.71v4.6a.67.67 0 0 1 -.07.31v.06l-.06.08a.12.12 0 0 1 -.05 0l-.08.07a.75.75 0 0 1 -.4.12h-4.6a.7.7 0 0 1 -.75-.67z"/></g></svg>