<svg viewBox="0 0 64 64" xmlns="http://www.w3.org/2000/svg"><circle cx="31.89" cy="32.03" fill="#00844d" r="32"/><g fill="#ffffff"><path d="m20.51 19.6v-6.18a.56.56 0 0 1 .56-.55h1.49a.55.55 0 0 1 .55.55v6.18a.5.5 0 0 1 -.55.56h-1.49a.56.56 0 0 1 -.56-.56z"/><path d="m40.62 19.6v-6.18a.55.55 0 0 1 .55-.55h1.49a.55.55 0 0 1 .55.55v6.18a.52.52 0 0 1 -.55.56h-1.49a.56.56 0 0 1 -.55-.56z"/><path d="m47 17.19h-2v3.51c0 1.3-1.68 2.35-3.12 2.35s-3.05-1.05-3.05-2.35v-3.51h-13.83v3.51c0 1.3-1.69 2.35-3.12 2.35s-3.12-1-3.12-2.3v-3.56h-2a2.48 2.48 0 0 0 -2.6 2.34v27.32a2.48 2.48 0 0 0 2.6 2.34h30.24a2.48 2.48 0 0 0 2.59-2.34v-27.32a2.48 2.48 0 0 0 -2.59-2.34z"/></g><path d="m47.1 45.52a1.15 1.15 0 0 1 -1.1 1.17l-28 .31a1.17 1.17 0 0 1 -1.16-1.15l-.19-18.54a1.15 1.15 0 0 1 1.14-1.17l27.93-.29a1.15 1.15 0 0 1 1.19 1.15z" fill="none" stroke="#00844d" stroke-miterlimit="10"/><path d="m28.91 34v-4.6a.71.71 0 0 1 .71-.71h4.6a.7.7 0 0 1 .7.71v4.6a.64.64 0 0 1 -.07.31v.06l-.06.08-.08.06a.67.67 0 0 1 -.39.12h-4.6a.71.71 0 0 1 -.81-.63z" fill="#00844d"/><path d="m38.67 34.84v-3.07a.47.47 0 0 1 .47-.47h3.06a.47.47 0 0 1 .48.47v3.07a.46.46 0 0 1 0 .2s0 0 0 0v.06h-.05a.5.5 0 0 1 -.27.08h-3.22a.47.47 0 0 1 -.47-.34z" fill="#ffffff"/><g fill="#00844d"><path d="m28.9 42.77v-4.6a.71.71 0 0 1 .71-.71h4.6a.71.71 0 0 1 .71.71v4.6a.67.67 0 0 1 -.07.31v.06l-.06.08-.08.07a.69.69 0 0 1 -.4.11h-4.6a.7.7 0 0 1 -.81-.63z"/><path d="m20.15 43.19v-4.59a.71.71 0 0 1 .71-.71h4.6a.71.71 0 0 1 .71.71v4.59a.78.78 0 0 1 -.07.31v.06a.41.41 0 0 1 0 .09s0 0-.05.05l-.08.06a.7.7 0 0 1 -.4.12h-4.6a.71.71 0 0 1 -.82-.69z"/><path d="m37.66 34v-4.6a.71.71 0 0 1 .71-.71h4.63a.71.71 0 0 1 .71.71v4.6a.73.73 0 0 1 -.07.3v.06l-.06.09h-.05l-.09.06a.65.65 0 0 1 -.39.12h-4.6a.71.71 0 0 1 -.79-.63z"/><path d="m19.91 34v-4.6a.71.71 0 0 1 .71-.71h4.6a.7.7 0 0 1 .7.71v4.6a.64.64 0 0 1 -.07.31v.06l-.06.08-.08.06a.67.67 0 0 1 -.39.12h-4.6a.71.71 0 0 1 -.81-.63z"/></g></svg>