<svg viewBox="0 0 64 64" xmlns="http://www.w3.org/2000/svg"><circle cx="32" cy="32" fill="#5f6062" r="28.09"/><g fill="#ffffff"><path d="m22 22v-5.46a.49.49 0 0 1 .48-.49h1.31a.49.49 0 0 1 .48.49v5.46c.05.29-.19.48-.48.48h-1.29a.48.48 0 0 1 -.5-.48z"/><path d="m39.66 22v-5.46a.5.5 0 0 1 .49-.49h1.31a.49.49 0 0 1 .48.49v5.46a.45.45 0 0 1 -.48.48h-1.31a.49.49 0 0 1 -.49-.48z"/><path d="m45.29 19.85h-1.73v3.08c0 1.14-1.47 2.06-2.73 2.06s-2.74-.92-2.74-2.06v-3.08h-12.17v3.08c0 1.14-1.48 2.06-2.74 2.06s-2.74-.88-2.74-2v-3.14h-1.72a2.18 2.18 0 0 0 -2.28 2.06v24a2.18 2.18 0 0 0 2.28 2.06h26.57a2.18 2.18 0 0 0 2.28-2.06v-24a2.18 2.18 0 0 0 -2.28-2.06z"/></g><path d="m45.36 44.72a1 1 0 0 1 -1 1l-24.52.28a1 1 0 0 1 -1-1l-.17-16.27a1 1 0 0 1 1-1l24.51-.25a1 1 0 0 1 1 1z" fill="none" stroke="#5f6062" stroke-miterlimit="10"/><path d="m29.38 34.64v-4a.63.63 0 0 1 .62-.64h4a.63.63 0 0 1 .63.62v4a.6.6 0 0 1 -.07.27.08.08 0 0 1 0 .05l-.06.08-.07.06a.68.68 0 0 1 -.35.1h-4.08a.62.62 0 0 1 -.62-.54z" fill="#5f6062"/><path d="m38 35.34v-2.69a.41.41 0 0 1 .42-.41h2.69a.41.41 0 0 1 .41.41v2.69a.39.39 0 0 1 0 .18v.05h-.05a.39.39 0 0 1 -.23.07h-2.87a.41.41 0 0 1 -.37-.3z" fill="#ffffff"/><g fill="#5f6062"><path d="m29.37 42.3v-4a.61.61 0 0 1 .62-.61h4a.62.62 0 0 1 .62.62v4a.6.6 0 0 1 -.07.27.18.18 0 0 1 -.05.07v.05l-.07.05a.61.61 0 0 1 -.42.25h-4a.63.63 0 0 1 -.63-.7z"/><path d="m21.7 42.68v-4a.62.62 0 0 1 .62-.62h4a.62.62 0 0 1 .62.62v4a.66.66 0 0 1 -.06.27l-.05.07h-.08a.55.55 0 0 1 -.34.11h-4a.62.62 0 0 1 -.71-.45z"/><path d="m37.07 34.64v-4a.63.63 0 0 1 .63-.64h4a.62.62 0 0 1 .62.62v4a.66.66 0 0 1 -.06.27v.07.05h-.08a.55.55 0 0 1 -.34.11h-4a.62.62 0 0 1 -.77-.48z"/><path d="m21.48 34.64v-4a.63.63 0 0 1 .63-.62h4a.63.63 0 0 1 .63.62v4a.6.6 0 0 1 -.07.27.08.08 0 0 1 0 .05l-.06.08s0 0 0 0l-.07.06a.68.68 0 0 1 -.35.1h-4a.62.62 0 0 1 -.71-.56z"/></g></svg>