<svg viewBox="0 0 64 64" xmlns="http://www.w3.org/2000/svg"><circle cx="32" cy="32" fill="#ffffff" r="26.59"/><g fill="#5f6062"><path d="m32 6.91a25.09 25.09 0 1 1 -25.09 25.09 25.12 25.12 0 0 1 25.09-25.09m0-3a28.09 28.09 0 1 0 28.09 28.09 28.09 28.09 0 0 0 -28.09-28.09z"/><path d="m23.33 22.4v-4.81c.05-.26.26-.43.48-.76h1.19c.25.33.43.55.1.76v4.81c.37.25.15.42-.1.5h-1.19a.71.71 0 0 1 -.48-.5zm15.6 0v-4.81c.07-.26.28-.43.49-.76h1.16c.26.33.43.55.09.76v4.81c.34.25.17.42-.09.5h-1.16a.78.78 0 0 1 -.49-.5zm4.92-3h-1.45v3c0 1.12-1.4 2-2.6 2s-2.6-.9-2.6-2v-3h-10.4v3c0 1.12-1.4 2-2.6 2s-2.6-.86-2.6-2v-2.97h-1.45a2 2 0 0 0 -2 2v23.7a2 2 0 0 0 2 2h23.7a2 2 0 0 0 2-2v-23.68a2 2 0 0 0 -2-2.02zm-.61 25.14h-21.62a.89.89 0 0 1 -.89-.89v-14.65a.9.9 0 0 1 .9-.9h21.61a.9.9 0 0 1 .9.9v14.68a.89.89 0 0 1 -.9.89zm-13-9.22v-3.2a.54.54 0 0 1 .55-.55h3.23a.55.55 0 0 1 .55.55v3.27a.54.54 0 0 1 -.05.22s0 0 0 0 0 .05-.05.06a.5.5 0 0 1 -.29.09h-3.36a.55.55 0 0 1 -.55-.41zm-6.94 0v-3.2a.55.55 0 0 1 .55-.55h3.24a.55.55 0 0 1 .55.55v3.27a.54.54 0 0 1 -.05.22.15.15 0 0 1 0 .06h-.06a.47.47 0 0 1 -.28.09h-3.37a.55.55 0 0 1 -.55-.41zm6.94 6.07v-3.2a.55.55 0 0 1 .55-.56h3.23a.56.56 0 0 1 .55.56v3.27a.54.54 0 0 1 -.05.22s0 0 0 0l-.05.06a.5.5 0 0 1 -.29.09h-3.36a.55.55 0 0 1 -.55-.41zm-6.94 0v-3.2a.56.56 0 0 1 .55-.56h3.24a.56.56 0 0 1 .55.56v3.27a.54.54 0 0 1 -.05.22v.06h-.06a.47.47 0 0 1 -.28.09h-3.37a.55.55 0 0 1 -.55-.41zm13.9-6.04v-3.23a.55.55 0 0 1 .55-.55h3.25a.55.55 0 0 1 .56.55v3.27a.43.43 0 0 1 -.06.22.05.05 0 0 1 0 0 .15.15 0 0 1 0 .06h-.06a.48.48 0 0 1 -.29.09h-3.4a.55.55 0 0 1 -.55-.41z"/></g></svg>