<svg viewBox="0 0 64 64" xmlns="http://www.w3.org/2000/svg"><g fill="#606162"><path d="m14.27 13.79v-9.17a.84.84 0 0 1 .86-.81h2.33a.84.84 0 0 1 .86.81v9.17c.08.49-.35.82-.86.82h-2.33a.85.85 0 0 1 -.86-.82z"/><path d="m45.6 13.79v-9.17a.84.84 0 0 1 .86-.81h2.32a.84.84 0 0 1 .86.81v9.17a.79.79 0 0 1 -.86.82h-2.32a.84.84 0 0 1 -.86-.82z"/><path d="m55.58 7.65h-3.06v5.77c0 2.13-2.62 3.85-4.86 3.85s-4.86-1.72-4.86-3.85v-5.77h-21.6v5.77c0 2.13-2.62 3.85-4.86 3.85s-4.86-1.64-4.86-3.77v-5.85h-3.06a4 4 0 0 0 -4 3.85v44.85a4 4 0 0 0 4 3.85h47.16a4 4 0 0 0 4-3.85v-44.85a4 4 0 0 0 -4-3.85z"/><path d="m55.55 54.63a1.75 1.75 0 0 1 -1.79 1.7h-43.52a1.75 1.75 0 0 1 -1.79-1.7v-27.22a1.76 1.76 0 0 1 1.8-1.72h43.5a1.76 1.76 0 0 1 1.8 1.72z" stroke="#ffffff" stroke-miterlimit="10"/></g><g fill="#ffffff"><path d="m27.35 38.15v-6.82a1.08 1.08 0 0 1 1.11-1h7.16a1.08 1.08 0 0 1 1.11 1v6.82a1 1 0 0 1 -.11.45.41.41 0 0 0 0 .09.64.64 0 0 1 -.1.13l-.07.07-.12.09a1.18 1.18 0 0 1 -.62.18h-7.25a1.08 1.08 0 0 1 -1.11-1.01z"/><path d="m13.71 38.15v-6.82a1.07 1.07 0 0 1 1.1-1h7.19a1.07 1.07 0 0 1 1.1 1v6.82a1 1 0 0 1 -.11.45.41.41 0 0 1 0 .09.6.6 0 0 1 -.09.13l-.07.07s0 0 0 0l-.23.11a1.18 1.18 0 0 1 -.62.18h-7.17a1.07 1.07 0 0 1 -1.1-1.03z"/><path d="m27.35 51.1v-6.81a1.08 1.08 0 0 1 1.11-1h7.16a1.08 1.08 0 0 1 1.11 1v6.81a1 1 0 0 1 -.11.46.41.41 0 0 0 0 .09l-.1.12-.07.07-.12.09a1.1 1.1 0 0 1 -.62.18h-7.25a1.08 1.08 0 0 1 -1.11-1.01z"/><path d="m13.71 51.1v-6.81a1.07 1.07 0 0 1 1.1-1h7.19a1.07 1.07 0 0 1 1.1 1v6.81a1 1 0 0 1 -.11.46.41.41 0 0 1 0 .09.94.94 0 0 1 -.09.12l-.07.07-.23.16a1.1 1.1 0 0 1 -.62.18h-7.17a1.07 1.07 0 0 1 -1.1-1.08z"/><path d="m41 38.15v-6.82a1.07 1.07 0 0 1 1.1-1h7.16a1.08 1.08 0 0 1 1.11 1v6.82a1 1 0 0 1 -.11.45v.09l-.09.13-.07.07-.13.09a1.16 1.16 0 0 1 -.62.18h-7.25a1.07 1.07 0 0 1 -1.1-1.01z"/></g></svg>