<svg viewBox="0 0 64 64" xmlns="http://www.w3.org/2000/svg"><circle cx="32.25" cy="31.83" fill="#ffffff" r="32"/><path d="m32.25-.48a32.32 32.32 0 1 0 32.31 32.31 32.31 32.31 0 0 0 -32.31-32.31zm0 62.69a30.38 30.38 0 1 1 30.38-30.38 30.42 30.42 0 0 1 -30.38 30.38zm-10.2-42.66v-5.55a.5.5 0 0 1 .5-.49h1.34a.49.49 0 0 1 .49.49v5.55c.05.29-.2.49-.49.49h-1.34a.5.5 0 0 1 -.5-.49zm18 0v-5.55a.5.5 0 0 1 .49-.49h1.36a.49.49 0 0 1 .5.49v5.55a.47.47 0 0 1 -.5.49h-1.34a.5.5 0 0 1 -.49-.49zm5.74-3.72h-1.74v3.49c0 1.29-1.51 2.33-2.79 2.33s-2.8-1-2.8-2.33v-3.49h-12.46v3.49c0 1.29-1.51 2.33-2.8 2.33s-2.79-1-2.79-2.28v-3.54h-1.72a2.33 2.33 0 0 0 -2.33 2.33v27.12a2.33 2.33 0 0 0 2.33 2.33h27.12a2.33 2.33 0 0 0 2.33-2.33v-27.12a2.33 2.33 0 0 0 -2.33-2.33zm0 28.41a1 1 0 0 1 -1 1h-25a1 1 0 0 1 -1-1v-16.46a1 1 0 0 1 1-1h25a1 1 0 0 1 1 1zm-16.22-10v-4.09a.63.63 0 0 1 .63-.63h4.12a.64.64 0 0 1 .64.63v4.13a.63.63 0 0 1 -.06.27v.05l-.06.08h-.07a.64.64 0 0 1 -.36.11h-4.2a.63.63 0 0 1 -.63-.51zm-7.85 0v-4.09a.63.63 0 0 1 .63-.63h4.13a.63.63 0 0 1 .63.63v4.13a.63.63 0 0 1 -.06.27v.05a.56.56 0 0 1 -.05.08s0 0 0 0h-.07a.61.61 0 0 1 -.35.11h-4.22a.63.63 0 0 1 -.63-.51zm7.85 7.83v-4.07a.64.64 0 0 1 .63-.64h4.12a.64.64 0 0 1 .68.64v4.12a.6.6 0 0 1 -.06.27v.06l-.06.07v.05l-.07.06a.72.72 0 0 1 -.36.1h-4.24a.63.63 0 0 1 -.63-.62zm-7.85 0v-4.07a.64.64 0 0 1 .63-.64h4.13a.64.64 0 0 1 .63.64v4.12a.6.6 0 0 1 -.06.27v.06l-.05.07v.05l-.07.06a.68.68 0 0 1 -.35.1h-4.22a.63.63 0 0 1 -.63-.62zm15.69-7.83v-4.09a.64.64 0 0 1 .64-.63h4.12a.64.64 0 0 1 .64.63v4.13a.64.64 0 0 1 -.07.27v.05a.22.22 0 0 1 0 .08h-.07a.66.66 0 0 1 -.36.11h-4.25a.64.64 0 0 1 -.64-.51z" fill="#2685de"/></svg>