<svg viewBox="0 0 64 64" xmlns="http://www.w3.org/2000/svg"><circle cx="32" cy="32" fill="#ffc425" r="32"/><g fill="#ffffff"><path d="m20.62 20.58v-6.19a.55.55 0 0 1 .55-.55h1.5a.55.55 0 0 1 .55.55v6.19a.5.5 0 0 1 -.55.55h-1.5a.55.55 0 0 1 -.55-.55z"/><path d="m40.73 20.58v-6.19a.55.55 0 0 1 .55-.55h1.49a.55.55 0 0 1 .55.55v6.19a.52.52 0 0 1 -.55.55h-1.49a.55.55 0 0 1 -.55-.55z"/><path d="m47.13 18.16h-2v3.51c0 1.3-1.68 2.35-3.12 2.35s-3.08-1.02-3.08-2.35v-3.51h-13.86v3.51c0 1.33-1.69 2.33-3.07 2.33s-3.12-1-3.12-2.3v-3.54h-2a2.48 2.48 0 0 0 -2.6 2.35v27.31a2.48 2.48 0 0 0 2.6 2.34h30.25a2.48 2.48 0 0 0 2.6-2.34v-27.31a2.48 2.48 0 0 0 -2.6-2.35z"/></g><path d="m47.21 46.49a1.15 1.15 0 0 1 -1.13 1.17l-27.94.34a1.15 1.15 0 0 1 -1.14-1.2l-.19-18.54a1.15 1.15 0 0 1 1.14-1.17l27.92-.29a1.15 1.15 0 0 1 1.13 1.2z" fill="none" stroke="#ffc425" stroke-miterlimit="10"/><path d="m29 35v-4.6a.7.7 0 0 1 .71-.7h4.59a.7.7 0 0 1 .71.7v4.6a.64.64 0 0 1 -.07.31v.06l-.06.08-.08.06a.68.68 0 0 1 -.4.12h-4.67a.71.71 0 0 1 -.73-.63z" fill="#ffc425"/><path d="m38.78 35.81v-3.07a.47.47 0 0 1 .47-.47h3.06a.48.48 0 0 1 .48.47v3.07a.46.46 0 0 1 0 .2v.06h-.05a.5.5 0 0 1 -.27.08h-3.22a.47.47 0 0 1 -.47-.34z" fill="#ffffff"/><g fill="#ffc425"><path d="m29 43.74v-4.6a.7.7 0 0 1 .71-.7h4.6a.71.71 0 0 1 .71.71v4.6a.64.64 0 0 1 -.07.31v.06l-.06.08v.05l-.08.07a.78.78 0 0 1 -.4.12h-4.6a.71.71 0 0 1 -.81-.7z"/><path d="m20.26 44.17v-4.6a.71.71 0 0 1 .71-.71h4.6a.71.71 0 0 1 .71.71v4.6a.73.73 0 0 1 -.07.3v.06a.24.24 0 0 1 -.06.09v.05l-.08.06a.67.67 0 0 1 -.39.12h-4.68a.7.7 0 0 1 -.74-.68z"/><path d="m37.77 35v-4.6a.71.71 0 0 1 .71-.71h4.6a.7.7 0 0 1 .7.71v4.6a.82.82 0 0 1 -.07.31.21.21 0 0 1 0 .06l-.06.08v.05a.27.27 0 0 1 -.08.07.75.75 0 0 1 -.39.12h-4.6a.71.71 0 0 1 -.81-.69z"/><path d="m20 35v-4.6a.7.7 0 0 1 .71-.7h4.59a.7.7 0 0 1 .71.7v4.6a.64.64 0 0 1 -.07.31v.06l-.06.08-.08.06a.68.68 0 0 1 -.4.12h-4.67a.71.71 0 0 1 -.73-.63z"/></g></svg>