
<svg  xmlns="http://www.w3.org/2000/svg" x="0px" y="0px"
	 width="64.628px" height="64.628px" viewBox="0 0 64.628 64.628" >

	<path fill="#5F6062" d="M32.314,0C14.467,0,0,14.467,0,32.314s14.467,32.314,32.314,32.314S64.628,50.16,64.628,32.314
		S50.16,0,32.314,0z M32.314,62.689c-16.749,0-30.375-13.626-30.375-30.375S15.565,1.939,32.314,1.939s30.375,13.626,30.375,30.375
		S49.063,62.689,32.314,62.689z"/>
	<path fill="#5F6062" d="M44.323,38.045c1.408-2.208,2.228-4.828,2.228-7.641c0-7.86-6.372-14.232-14.232-14.232
		s-14.232,6.372-14.232,14.232s6.372,14.232,14.232,14.232c2.788,0,5.386-0.805,7.581-2.19l4.898,4.898
		c1.218,1.218,3.194,1.218,4.412,0c1.218-1.218,1.218-3.193,0-4.412L44.323,38.045z M32.319,40.735
		c-5.696,0-10.331-4.634-10.331-10.331c0-5.696,4.634-10.331,10.331-10.331c5.696,0,10.331,4.634,10.331,10.331
		C42.65,36.101,38.016,40.735,32.319,40.735z"/>

</svg>
