<?xml version="1.0" encoding="utf-8"?>
<!-- Generator: Adobe Illustrator 19.2.1, SVG Export Plug-In . SVG Version: 6.00 Build 0)  -->
<svg version="1.1" id="icons" xmlns="http://www.w3.org/2000/svg" xmlns:xlink="http://www.w3.org/1999/xlink" x="0px" y="0px"
	 viewBox="0 0 64.6 64.6" style="enable-background:new 0 0 64.6 64.6;" xml:space="preserve">
<g>
	<path class="st0" d="M32.3,0C14.5,0,0,14.5,0,32.3s14.5,32.3,32.3,32.3s32.3-14.4,32.3-32.3S50.2,0,32.3,0z M32.3,62.7
		c-16.7,0-30.4-13.6-30.4-30.4S15.6,2,32.3,2s30.4,13.6,30.4,30.3S49.1,62.7,32.3,62.7z"/>
	<path class="st0" d="M32.8,31.1c-0.9,0-1.5,0.7-1.5,1.5v9.9c0,1.4-1.1,2.5-2.5,2.5s-2.5-1.1-2.5-2.5c0-0.9-0.7-1.5-1.5-1.5
		c-0.9,0-1.5,0.7-1.5,1.5c0,3.1,2.5,5.6,5.6,5.6s5.6-2.5,5.6-5.6v-9.9C34.3,31.8,33.6,31.1,32.8,31.1z"/>
	<path class="st0" d="M34.3,16.4v-0.9c0-0.9-0.7-1.5-1.5-1.5c-0.9,0-1.5,0.7-1.5,1.5v0.9c-7.5,0.7-13.4,6.5-14.4,13.9
		c1.3-0.9,2.9-1.5,4.6-1.5c2.2,0,4.3,0.9,5.7,2.4c1.4-1.5,3.5-2.4,5.7-2.4s4.3,0.9,5.7,2.4c1.4-1.5,3.5-2.4,5.7-2.4
		c1.7,0,3.3,0.5,4.6,1.5C47.8,22.9,41.8,17.1,34.3,16.4z"/>
</g>
</svg>
