
<svg xmlns="http://www.w3.org/2000/svg"  x="0px" y="0px"
	 width="64.628px" height="64.628px" viewBox="0 0 64.628 64.628" >

	<path fill="#5F6062" d="M0,32.314C0,50.16,14.467,64.628,32.314,64.628S64.628,50.16,64.628,32.314S50.16,0,32.314,0
		S0,14.467,0,32.314z M1.939,32.314c0-16.749,13.626-30.375,30.375-30.375s30.375,13.626,30.375,30.375S49.063,62.689,32.314,62.689
		S1.939,49.063,1.939,32.314z"/>
	<path fill="#5F6062" d="M17.033,19.12c0.039-0.054,0.084-0.105,0.132-0.154l1.477-1.477l1.987-1.987
		c0.518-0.518,1.358-0.518,1.877,0l1.262,1.262l0.708,0.78l3.422,4.793c0.518,0.518,0.518,1.358,0,1.877l-2.743,2.742
		c-0.409,0.409-1.019,0.495-1.513,0.258c0.627,2.995,2.094,5.834,4.404,8.144c2.309,2.31,5.148,3.776,8.143,4.403
		c-0.237-0.494-0.152-1.104,0.258-1.513l2.742-2.742c0.518-0.518,1.358-0.518,1.877,0l4.794,3.422l0.78,0.708l1.262,1.262
		c0.518,0.518,0.518,1.358,0,1.877l-1.985,1.985l-1.479,1.479c-0.051,0.051-0.106,0.098-0.163,0.139
		c-0.089,0.064-0.183,0.116-0.282,0.155c-4.241,2.164-12.365-1.063-19.211-7.909c-6.843-6.843-10.07-14.963-7.912-19.206
		C16.91,19.313,16.964,19.213,17.033,19.12z"/>

</svg>
