<?xml version="1.0" encoding="utf-8"?>
<!-- Generator: Adobe Illustrator 18.1.1, SVG Export Plug-In . SVG Version: 6.00 Build 0)  -->
<svg version="1.1" id="icons" xmlns="http://www.w3.org/2000/svg" xmlns:xlink="http://www.w3.org/1999/xlink" x="0px" y="0px"
	 width="64.628px" height="64.628px" viewBox="0 0 64.628 64.628" enable-background="new 0 0 64.628 64.628" xml:space="preserve">
<g>
	<path fill="#5F6062" d="M32.314,0C14.467,0,0,14.467,0,32.314C0,50.16,14.467,64.628,32.314,64.628S64.628,50.16,64.628,32.314
		C64.628,14.467,50.16,0,32.314,0z M32.314,62.689c-16.749,0-30.375-13.626-30.375-30.375S15.565,1.939,32.314,1.939
		s30.375,13.626,30.375,30.375S49.063,62.689,32.314,62.689z"/>
	<path fill="#5F6062" d="M34.218,37.765h-9.206c-0.581,0-1.052-0.471-1.052-1.052c0-0.581,0.471-1.052,1.052-1.052h10.435
		c1.949-2.601,5.056-4.287,8.55-4.287c1.266,0,2.481,0.222,3.609,0.628V15.189c0-1.452-1.177-2.63-2.63-2.63H19.772
		c-1.453,0-2.63,1.178-2.63,2.63v30.484c0,1.453,1.177,2.63,2.63,2.63h15.571c-1.273-1.758-2.025-3.917-2.025-6.249
		C33.318,40.529,33.64,39.078,34.218,37.765z M25.012,23.405H38.3c0.581,0,1.052,0.471,1.052,1.052c0,0.581-0.471,1.052-1.052,1.052
		H25.012c-0.581,0-1.052-0.471-1.052-1.052C23.96,23.876,24.431,23.405,25.012,23.405z M25.012,29.507h16.443
		c0.581,0,1.052,0.471,1.052,1.052c0,0.581-0.471,1.052-1.052,1.052H25.012c-0.581,0-1.052-0.471-1.052-1.052
		C23.96,29.978,24.431,29.507,25.012,29.507z"/>
	<path fill="#5F6062" d="M43.997,33.215c-4.881,0-8.838,3.957-8.838,8.838c0,4.881,3.957,8.838,8.838,8.838s8.838-3.957,8.838-8.838
		C52.836,37.172,48.879,33.215,43.997,33.215z M47.739,45.964c-0.3,0.3-0.787,0.3-1.087,0l-3.392-3.392h0v-6.608
		c0-0.424,0.344-0.768,0.768-0.768c0.424,0,0.768,0.344,0.768,0.768v5.971l2.942,2.942C48.039,45.178,48.039,45.664,47.739,45.964z"
		/>
</g>
</svg>
