
<svg xmlns="http://www.w3.org/2000/svg"  x="0px" y="0px"
	 width="64.628px" height="64.628px" viewBox="0 0 64.628 64.628">
<path fill-rule="evenodd" clip-rule="evenodd" fill="#5F6062" d="M32.314,0C14.467,0,0,14.467,0,32.314s14.467,32.314,32.314,32.314
	S64.628,50.16,64.628,32.314S50.16,0,32.314,0z M32.314,1.939c16.749,0,30.375,13.626,30.375,30.375
	c0,7.591-2.8,14.539-7.422,19.868l-0.006-0.001c0.003-0.004,0.007-0.008,0.011-0.012c-1.881-1.791-5.03-3.152-9.356-4.951
	c-5.292-2.208-6.554-2.972-6.554-2.972l-0.042-5.092c0,0,1.98-1.528,2.595-6.303c1.243,0.364,2.548-1.854,2.613-3.018
	c0.07-1.122-0.167-4.23-1.677-3.918c0.303-2.348,0.531-4.453,0.419-5.567c-0.391-4.095-4.416-8.394-10.597-8.394
	c-6.177,0-10.197,4.299-10.598,8.394c-0.102,1.113,0.121,3.219,0.428,5.567c-1.514-0.312-1.756,2.795-1.691,3.918
	c0.079,1.165,1.374,3.382,2.618,3.018c0.619,4.775,2.604,6.303,2.604,6.303l-0.052,5.092c0,0-1.258,0.764-6.554,2.972
	c-4.49,1.867-7.964,3.264-9.893,5.158c-4.723-5.356-7.598-12.378-7.598-20.064C1.939,15.565,15.565,1.939,32.314,1.939z
	 M9.537,52.378c0.005,0.006,0.01,0.011,0.015,0.017l0,0C9.547,52.389,9.542,52.383,9.537,52.378z"/>
</svg>
