
<svg xmlns="http://www.w3.org/2000/svg"  x="0px" y="0px"
	 width="64.628px" height="64.628px" viewBox="0 0 64.628 64.628">

	<path fill="#5F6062" d="M32.314,0C14.467,0,0,14.467,0,32.314s14.467,32.314,32.314,32.314S64.628,50.16,64.628,32.314
		S50.16,0,32.314,0z M32.314,62.689c-16.749,0-30.375-13.626-30.375-30.375S15.565,1.939,32.314,1.939s30.375,13.626,30.375,30.375
		S49.063,62.689,32.314,62.689z"/>
	<path fill="#5F6062" d="M28.436,16.157H18.302c-1.185,0-2.146,0.961-2.146,2.146v10.133c0,1.185,0.961,2.146,2.146,2.146h10.133
		c1.185,0,2.146-0.961,2.146-2.146V18.303C30.581,17.118,29.621,16.157,28.436,16.157z"/>
	<path fill="#5F6062" d="M46.325,16.157H36.192c-1.185,0-2.146,0.961-2.146,2.146v10.133c0,1.185,0.961,2.146,2.146,2.146h10.133
		c1.185,0,2.146-0.961,2.146-2.146V18.303C48.471,17.118,47.51,16.157,46.325,16.157z"/>
	<path fill="#5F6062" d="M28.436,34.046H18.302c-1.185,0-2.146,0.961-2.146,2.146v10.133c0,1.185,0.961,2.146,2.146,2.146h10.133
		c1.185,0,2.146-0.961,2.146-2.146V36.192C30.581,35.007,29.621,34.046,28.436,34.046z"/>
	<path fill="#5F6062" d="M46.325,34.046H36.192c-1.185,0-2.146,0.961-2.146,2.146v10.133c0,1.185,0.961,2.146,2.146,2.146h10.133
		c1.185,0,2.146-0.961,2.146-2.146V36.192C48.471,35.007,47.51,34.046,46.325,34.046z"/>
</svg>
