
<svg xmlns="http://www.w3.org/2000/svg" x="0px" y="0px"
	 width="64.628px" height="64.628px" viewBox="0 0 64.628 64.628" >

	<path fill-rule="evenodd" clip-rule="evenodd" fill="#5F6062" d="M32.314,0C14.467,0,0,14.467,0,32.314
		C0,50.16,14.467,64.628,32.314,64.628S64.628,50.16,64.628,32.314C64.628,14.467,50.16,0,32.314,0z M32.314,62.689
		c-16.749,0-30.375-13.626-30.375-30.375S15.565,1.939,32.314,1.939s30.375,13.626,30.375,30.375S49.063,62.689,32.314,62.689z"/>
	<path fill-rule="evenodd" clip-rule="evenodd" fill="#5F6062" d="M44.062,32.411c-4.904,0-8.88,3.975-8.88,8.88
		c0,4.904,3.975,8.88,8.88,8.88s8.88-3.975,8.88-8.88C52.942,36.386,48.967,32.411,44.062,32.411z M47.821,45.22L47.821,45.22
		c-0.302,0.302-0.79,0.302-1.092,0l-3.408-3.408h0v-6.639c0-0.426,0.346-0.772,0.772-0.772h0c0.426,0,0.772,0.346,0.772,0.772v5.68
		c0,0.205,0.081,0.401,0.226,0.546l2.73,2.73C48.123,44.429,48.123,44.918,47.821,45.22z"/>
	<path fill-rule="evenodd" clip-rule="evenodd" fill="#5F6062" d="M37.235,33.03c-0.684-0.937-1.046-2.029-1.214-3.117
		c0.323-0.372,0.639-0.764,0.941-1.174c1.928,0.623,4.237,0.805,6.216-0.645c-2.725-2.755-0.538-6.132-2.504-12.217
		c-1.674-5.173-8.531-4.919-9.416-3.101c-3.637-1.299-6.381,0.44-7.391,5.92c-1.161,6.294,1.089,6.959-1.635,9.712
		c2.092,1.208,4.009,0.913,5.672,0.245c0.328,0.447,0.669,0.876,1.02,1.279c-0.338,2.179-1.466,4.371-4.394,5.297
		c-2.233,0.705-4.844,1.4-6.388,2.96c-1.217,1.233-0.407,9.369-0.407,9.369h9.218h8.416c-1.276-1.764-2.03-3.93-2.03-6.269
		C33.341,37.971,34.858,34.999,37.235,33.03z"/>

</svg>
