<?xml version="1.0" encoding="utf-8"?>
<!-- Generator: Adobe Illustrator 19.2.1, SVG Export Plug-In . SVG Version: 6.00 Build 0)  -->
<svg version="1.1" id="icons" xmlns="http://www.w3.org/2000/svg" xmlns:xlink="http://www.w3.org/1999/xlink" x="0px" y="0px"
	 viewBox="0 0 64.6 64.6" style="enable-background:new 0 0 64.6 64.6;" xml:space="preserve">
<g>
	<path class="st0" d="M32.3,0C14.5,0,0,14.5,0,32.3s14.5,32.3,32.3,32.3s32.3-14.4,32.3-32.3S50.2,0,32.3,0z M32.3,62.7
		c-16.7,0-30.4-13.6-30.4-30.4S15.6,2,32.3,2s30.4,13.6,30.4,30.4S49.1,62.7,32.3,62.7z"/>
	<path class="st0" d="M48.5,27.5L45,18.1c-0.7-2-2.6-3.3-4.7-3.3H24.5c-2.1,0-4,1.3-4.7,3.3l-3.4,9.2c-1,1.1-2.1,2.4-2.1,3.4l0,0
		v10.1c0,0.1,0,0.1,0,0.1v2.8c0,1.5,1.2,2.7,2.7,2.7h0.8c1.5,0,2.7-1.2,2.7-2.7v-1.8h24.1v1.8c0,1.5,1.2,2.7,2.7,2.7h0.8
		c1.5,0,2.7-1.2,2.7-2.7v-3l0,0v-10l0,0C50.5,29.9,49.5,28.6,48.5,27.5z M20.1,24.4l2-5.4c0.4-1,1.3-1.7,2.4-1.7h15.8
		c1.1,0,2,0.7,2.4,1.7l2,5.4c0.2,0.4-0.2,0.9-0.6,0.9H20.8C20.3,25.3,20,24.8,20.1,24.4z M21.5,34.6c-1.4,0-2.5-1.2-2.5-2.5
		c0-1.4,1.2-2.5,2.5-2.5c1.4,0,2.5,1.2,2.5,2.5S22.8,34.6,21.5,34.6z M43.2,34.6c-1.4,0-2.5-1.2-2.5-2.5c0-1.4,1.2-2.5,2.5-2.5
		c1.4,0,2.5,1.2,2.5,2.5S44.5,34.6,43.2,34.6z"/>
</g>
</svg>
