
<svg  xmlns="http://www.w3.org/2000/svg"  x="0px" y="0px"
	 width="64.628px" height="64.628px" viewBox="0 0 64.628 64.628" >

	<path fill="#5F6062" d="M32.314,0C14.467,0,0,14.467,0,32.314C0,50.16,14.467,64.628,32.314,64.628S64.628,50.16,64.628,32.314
		C64.628,14.467,50.16,0,32.314,0z M32.314,62.689c-16.749,0-30.375-13.626-30.375-30.375S15.565,1.939,32.314,1.939
		s30.375,13.626,30.375,30.375S49.063,62.689,32.314,62.689z"/>
	<path fill="#5F6062" d="M24.743,26.529h-6.548c-0.326,0-0.61,0.118-0.847,0.351c-0.237,0.234-0.357,0.513-0.357,0.834v11.757
		c0,0.32,0.12,0.598,0.357,0.833c0.239,0.234,0.521,0.352,0.847,0.352h6.548c0.327,0,0.609-0.118,0.847-0.352
		c0.239-0.235,0.357-0.513,0.357-0.833V27.714c0-0.321-0.118-0.6-0.357-0.834C25.352,26.647,25.071,26.529,24.743,26.529z"/>
	<path fill="#5F6062" d="M46.848,24.352c-0.173-0.042-0.347-0.065-0.519-0.072c-0.163-0.016-0.325-0.018-0.485-0.006
		c-0.025-0.004-0.051-0.008-0.078-0.008h-7.435l2.462-6.554c0.376-1.002-0.003-2.131-0.909-2.702v0
		c-1.054-0.665-2.448-0.349-3.113,0.705l-5.392,8.551h-0.004l-3.566,2.082c-0.433,0.253-0.699,0.716-0.699,1.217v11.682
		c0,0.675,0.478,1.255,1.14,1.383l7.028,1.366c0.148,0.029,0.298,0.043,0.448,0.043h7.231l0-0.001c0.018,0,0.037-0.002,0.055-0.003
		c1.315,0.113,2.551-0.745,2.869-2.068c0.2-0.832-0.007-1.666-0.492-2.294c0.718-0.339,1.282-0.988,1.482-1.819
		c0.2-0.832-0.007-1.666-0.492-2.294c0.718-0.339,1.282-0.988,1.482-1.819c0.2-0.832-0.007-1.666-0.492-2.294
		c0.718-0.339,1.282-0.988,1.482-1.819C49.204,26.17,48.306,24.703,46.848,24.352z"/>

</svg>
