<?xml version="1.0" encoding="utf-8"?>
<!-- Generator: Adobe Illustrator 18.1.1, SVG Export Plug-In . SVG Version: 6.00 Build 0)  -->
<svg version="1.1" id="icons" xmlns="http://www.w3.org/2000/svg" xmlns:xlink="http://www.w3.org/1999/xlink" x="0px" y="0px"
	 width="64.628px" height="64.628px" viewBox="0 0 64.628 64.628" enable-background="new 0 0 64.628 64.628" xml:space="preserve">
<g>
	<path fill="#5F6062" d="M32.314,0C14.467,0,0,14.467,0,32.314s14.467,32.314,32.314,32.314S64.628,50.16,64.628,32.314
		S50.16,0,32.314,0z M32.314,62.689c-16.749,0-30.375-13.626-30.375-30.375S15.565,1.939,32.314,1.939s30.375,13.626,30.375,30.375
		S49.063,62.689,32.314,62.689z"/>
	<path fill="#5F6062" d="M46.875,29.905c-1.104,0-1.999,0.895-1.999,1.999V42.57c0,0.52-0.421,0.941-0.941,0.941H21.898
		c-0.52,0-0.941-0.421-0.941-0.941V20.534c0-0.52,0.421-0.941,0.941-0.941h10.665c1.104,0,1.999-0.895,1.999-1.999
		s-0.895-1.999-1.999-1.999H17.899c-0.52,0-0.941,0.421-0.941,0.941v30.034c0,0.52,0.421,0.941,0.941,0.941h30.034
		c0.52,0,0.941-0.421,0.941-0.941V31.905C48.874,30.8,47.979,29.905,46.875,29.905z"/>
	<path fill="#5F6062" d="M50.313,13.241H39.325c-1.169,0-2.117,0.948-2.117,2.117v0c0,1.169,0.948,2.117,2.117,2.117h4.701
		L34.11,27.39c-0.827,0.827-0.827,2.167,0,2.994c0.827,0.827,2.167,0.827,2.994,0l9.916-9.916v4.701
		c0,1.169,0.948,2.117,2.117,2.117s2.117-0.948,2.117-2.117V14.181C51.254,13.662,50.832,13.241,50.313,13.241z"/>
</g>
</svg>
