
<svg  xmlns="http://www.w3.org/2000/svg"  x="0px" y="0px"
	 width="64.628px" height="64.628px" viewBox="0 0 64.628 64.628" >

	<path fill="#5F6062" d="M32.314,0C14.467,0,0,14.467,0,32.314C0,50.16,14.467,64.628,32.314,64.628S64.628,50.16,64.628,32.314
		C64.628,14.467,50.16,0,32.314,0z M32.314,62.689c-16.749,0-30.375-13.626-30.375-30.375S15.565,1.939,32.314,1.939
		s30.375,13.626,30.375,30.375S49.063,62.689,32.314,62.689z"/>
	<path fill="#5F6062" d="M34.511,38.976h-9.136c-0.576,0-1.044-0.467-1.044-1.044c0-0.577,0.467-1.044,1.044-1.044h10.356
		c1.935-2.581,5.018-4.254,8.485-4.254c1.257,0,2.462,0.22,3.582,0.624V16.571c0-1.441-1.169-2.61-2.61-2.61H20.175
		c-1.441,0-2.61,1.169-2.61,2.61v30.252c0,1.441,1.169,2.61,2.61,2.61h15.452c-1.263-1.745-2.009-3.888-2.009-6.201
		C33.618,41.718,33.937,40.279,34.511,38.976z M25.375,24.725h13.186c0.577,0,1.044,0.467,1.044,1.044
		c0,0.577-0.467,1.044-1.044,1.044H25.375c-0.576,0-1.044-0.467-1.044-1.044C24.331,25.193,24.799,24.725,25.375,24.725z
		 M25.375,30.78h16.318c0.576,0,1.044,0.467,1.044,1.044c0,0.577-0.467,1.044-1.044,1.044H25.375c-0.576,0-1.044-0.467-1.044-1.044
		C24.331,31.248,24.799,30.78,25.375,30.78z"/>
	<path fill="#5F6062" d="M44.216,34.475c-4.836,0-8.756,3.92-8.756,8.756s3.92,8.756,8.756,8.756s8.756-3.92,8.756-8.756
		S49.051,34.475,44.216,34.475z M48.905,43.511c0,0.266-0.216,0.482-0.482,0.482h-8.414c-0.266,0-0.482-0.216-0.482-0.482v-0.559
		c0-0.266,0.216-0.482,0.482-0.482h8.414c0.266,0,0.482,0.216,0.482,0.482V43.511z"/>

</svg>
