
<svg  xmlns="http://www.w3.org/2000/svg"  x="0px" y="0px"
	 width="64.628px" height="64.628px" viewBox="0 0 64.628 64.628" >
	<path fill="#5F6062" d="M32.314,0C14.467,0,0,14.467,0,32.314C0,50.16,14.467,64.628,32.314,64.628S64.628,50.16,64.628,32.314
		C64.628,14.467,50.16,0,32.314,0z M32.314,62.689c-16.749,0-30.375-13.626-30.375-30.375S15.565,1.939,32.314,1.939
		s30.375,13.626,30.375,30.375S49.063,62.689,32.314,62.689z"/>
	<path fill="#5F6062" d="M46.897,25.511c-0.765-1.81-1.86-3.436-3.255-4.832c-1.395-1.396-3.02-2.492-4.83-3.258
		c-1.875-0.794-3.866-1.196-5.917-1.197c-2.051,0-4.042,0.401-5.917,1.194c-1.81,0.765-3.436,1.86-4.832,3.255
		c-1.396,1.395-2.492,3.02-3.258,4.83c-0.786,1.856-1.187,3.825-1.195,5.855l-4.15-0.001c-0.629,0-0.944,0.76-0.499,1.205
		l6.029,6.032c0.275,0.276,0.722,0.276,0.998,0l6.032-6.029c0.445-0.444,0.13-1.205-0.499-1.205l-4.147-0.001
		c0.013-2.279,0.687-4.454,1.933-6.304c0.041-0.03,0.081-0.065,0.116-0.105l0.773-0.886c2.008-2.302,4.792-3.685,7.839-3.894
		c3.048-0.208,5.994,0.782,8.296,2.79c2.356,2.055,3.748,4.923,3.905,8.055c0.111,3.208-1.086,6.242-3.343,8.498
		c-2.161,2.159-5.033,3.348-8.087,3.348l-1.176,0c-0.104,0-0.201,0.023-0.29,0.064c-2.223-0.284-4.313-1.218-6.04-2.725
		l-0.832-0.726c-0.367-0.345-0.869-0.544-1.411-0.507c-1.033,0.071-1.812,0.965-1.742,1.997c0.031,0.448,0.217,0.848,0.501,1.152
		c0.035,0.053,0.074,0.103,0.124,0.147l0.886,0.773c1.546,1.348,3.311,2.353,5.245,2.988c1.868,0.613,3.813,0.855,5.781,0.72
		c1.969-0.135,3.863-0.64,5.629-1.501c1.83-0.892,3.442-2.128,4.789-3.674c1.348-1.546,2.353-3.311,2.988-5.245
		c0.577-1.759,0.821-3.587,0.736-5.438C48.013,29.027,47.62,27.221,46.897,25.511z"/>

</svg>
