
<svg  xmlns="http://www.w3.org/2000/svg" x="0px" y="0px"
	 width="64.628px" height="64.628px" viewBox="0 0 64.628 64.628" >

	<path fill="#5F6062" d="M32.314,0C14.467,0,0,14.467,0,32.314s14.467,32.314,32.314,32.314S64.628,50.16,64.628,32.314
		S50.16,0,32.314,0z M32.314,62.689c-16.749,0-30.375-13.626-30.375-30.375S15.565,1.939,32.314,1.939s30.375,13.626,30.375,30.375
		S49.063,62.689,32.314,62.689z"/>
	<path fill="#5F6062" d="M47.705,16.489H16.828c-1.259,0-2.28,1.021-2.28,2.28v23.023c0,1.259,1.021,2.28,2.28,2.28h30.877
		c1.259,0,2.28-1.021,2.28-2.28V18.769C49.985,17.51,48.964,16.489,47.705,16.489z M43.178,39.658h-5.204
		c-1.331,0-2.42-1.089-2.42-2.421c0-1.331,1.089-2.421,2.42-2.421h5.204c1.331,0,2.421,1.089,2.421,2.421
		C45.598,38.569,44.509,39.658,43.178,39.658z M48.87,27.295c0,0.176-0.144,0.319-0.319,0.319h-32.55
		c-0.176,0-0.319-0.144-0.319-0.319v-5.43c0-0.176,0.144-0.319,0.319-0.319h32.55c0.176,0,0.319,0.144,0.319,0.319V27.295z"/>

</svg>
