<?xml version="1.0" encoding="utf-8"?>
<!-- Generator: Adobe Illustrator 18.1.1, SVG Export Plug-In . SVG Version: 6.00 Build 0)  -->
<svg version="1.1" id="icons" xmlns="http://www.w3.org/2000/svg" xmlns:xlink="http://www.w3.org/1999/xlink" x="0px" y="0px"
	 width="64.628px" height="64.628px" viewBox="0 0 64.628 64.628" enable-background="new 0 0 64.628 64.628" xml:space="preserve">
<path fill-rule="evenodd" clip-rule="evenodd" fill="#5F6062" d="M32.314,0C14.467,0,0,14.467,0,32.314s14.467,32.314,32.314,32.314
	S64.628,50.16,64.628,32.314S50.16,0,32.314,0z M54.264,53.277c-0.121-1.595-0.382-2.886-0.875-3.385
	c-2.167-2.189-5.801-3.192-8.958-4.182c0.006-0.004,0.012-0.008,0.018-0.012c-0.057-0.018-0.114-0.036-0.17-0.053
	c-4.218-1.333-5.83-4.494-6.312-7.63c0.463-0.533,0.916-1.096,1.35-1.684c2.767,0.894,6.08,1.155,8.92-0.925
	c-3.91-3.953-0.772-8.799-3.594-17.531c-2.402-7.423-12.241-7.058-13.51-4.45c-5.219-1.863-9.156,0.631-10.605,8.495
	c-1.665,9.032,1.563,9.986-2.346,13.937c3.002,1.734,5.752,1.31,8.139,0.351c0.471,0.641,0.96,1.257,1.464,1.835
	c-0.485,3.126-2.104,6.272-6.305,7.601c-3.204,1.011-6.951,2.009-9.166,4.247c-0.594,0.602-0.851,2.352-0.932,4.397
	c0.003,0.003,0.006,0.005,0.008,0.008l-0.003,0.003c-0.002-0.002-0.004-0.003-0.006-0.005c0-0.002,0-0.003,0-0.005
	c-5.81-5.536-9.444-13.335-9.444-21.975c0-16.749,13.626-30.375,30.375-30.375s30.375,13.626,30.375,30.375
	C62.689,40.438,59.477,47.821,54.264,53.277z"/>
</svg>
