<?xml version="1.0" encoding="utf-8"?>
<!-- Generator: Adobe Illustrator 19.2.1, SVG Export Plug-In . SVG Version: 6.00 Build 0)  -->
<svg version="1.1" id="Layer_1" xmlns="http://www.w3.org/2000/svg" xmlns:xlink="http://www.w3.org/1999/xlink" x="0px" y="0px"
	 viewBox="0 0 64.6 64.6" style="enable-background:new 0 0 64.6 64.6;" xml:space="preserve">

<path class="st0" d="M32.3,0C14.5,0,0,14.5,0,32.3c0,17.8,14.5,32.3,32.3,32.3s32.3-14.5,32.3-32.3C64.6,14.5,50.2,0,32.3,0z
	 M32.3,62.7c-16.7,0-30.4-13.6-30.4-30.4S15.6,1.9,32.3,1.9s30.4,13.6,30.4,30.4S49.1,62.7,32.3,62.7z M50.2,22.7
	c0-4.6-3.7-8.3-8.3-8.3c-0.1,0-0.3,0-0.4,0c0,0,0,0,0,0c-0.1,0-0.1,0-0.2,0c-0.2,0-0.4,0-0.6,0.1c-0.1,0-0.2,0-0.3,0
	c-0.3,0-0.5,0.1-0.8,0.2c0,0-0.1,0-0.1,0c0,0,0,0,0,0c-1.3,0.4-2.5,1.1-3.5,2.1h0c-0.1,0.1-0.2,0.2-0.2,0.3
	c-0.1,0.1-0.2,0.2-0.3,0.3c-0.1,0.1-0.1,0.2-0.2,0.3C35.1,17.8,35,17.9,35,18c-0.1,0.1-0.1,0.2-0.2,0.3c-0.1,0.1-0.2,0.2-0.2,0.4
	c-0.1,0.1-0.1,0.2-0.2,0.3c-0.1,0.1-0.1,0.3-0.2,0.4c-0.1,0.1-0.1,0.2-0.1,0.4c0,0.1-0.1,0.3-0.1,0.4c0,0.2-0.1,0.3-0.1,0.5
	c0,0.1-0.1,0.2-0.1,0.3c0,0.2-0.1,0.4-0.1,0.6c0,0.1,0,0.2,0,0.3c0,0.3,0,0.6,0,0.9c0,0.3,0,0.6,0,0.8c0,0.1,0,0.2,0,0.3
	c0,0.2,0,0.4,0.1,0.5c0,0.1,0.1,0.2,0.1,0.3c0,0.2,0.1,0.3,0.1,0.5c0,0.1,0.1,0.2,0.1,0.3c0,0.1,0.1,0.3,0.2,0.4
	c0,0.1,0.1,0.2,0.1,0.3c0.1,0.1,0.1,0.3,0.2,0.4c0.1,0.1,0.1,0.2,0.2,0.3c0.1,0.1,0.1,0.2,0.2,0.4c0.1,0.1,0.1,0.2,0.2,0.3
	c0.1,0.1,0.2,0.2,0.2,0.3c0.1,0.1,0.2,0.2,0.2,0.3c0,0.1,0.1,0.1,0.1,0.2h0c1.1,1.1,2.4,2,4,2.4h0c0.1,0,0.1,0,0.2,0
	c0.2,0.1,0.5,0.1,0.7,0.2c0.1,0,0.2,0,0.3,0c0.3,0,0.7,0.1,1,0.1c0.1,0,0.2,0,0.3,0c0,0,0,0,0,0c1.2,0,2.3-0.3,3.3-0.8v0
	c0.1,0,0.1-0.1,0.2-0.1c0.1-0.1,0.2-0.1,0.3-0.2c0.1-0.1,0.2-0.1,0.3-0.2c0.1-0.1,0.2-0.1,0.3-0.2c0.1-0.1,0.2-0.2,0.3-0.2
	c0.1-0.1,0.2-0.2,0.3-0.2c0.1-0.1,0.2-0.2,0.3-0.3c0.1-0.1,0.2-0.2,0.3-0.3c0,0,0.1-0.1,0.1-0.1v0C49.4,26.9,50.2,24.9,50.2,22.7z
	 M37.3,22C37.3,22,37.4,22,37.3,22c0.2,0,0.2-0.1,0.3-0.1c0.1,0,0.1,0,0.2,0c0,0,0.1,0,0.1,0c0.1,0,0.2,0.1,0.3,0.2l2.4,2.4l5.4-5.5
	c0.1-0.1,0.2-0.1,0.3-0.2c0,0,0.1,0,0.1,0c0.1,0,0.1,0,0.2,0c0.1,0,0.1,0,0.2,0c0,0,0.1,0,0.1,0c0.1,0,0.2,0.1,0.3,0.2
	c0.3,0.3,0.3,0.8,0,1.1l-6,6c-0.1,0.1-0.3,0.2-0.5,0.2h0c-0.2,0-0.4-0.1-0.5-0.2l-2.9-3c-0.3-0.3-0.3-0.8,0-1.1
	C37.1,22.1,37.2,22.1,37.3,22z M37.3,36.4c-0.4,0-0.7-0.3-0.7-0.7v-4.4c0-0.1,0-0.2,0.1-0.3c0.4,0.3,0.9,0.5,1.3,0.7
	c1.2,0.5,2.5,0.8,3.8,0.8c0.1,0,0.3,0,0.4,0v3.3c0,0.1,0,0.2-0.1,0.3c0,0,0,0,0,0.1c0,0,0,0.1-0.1,0.1c0,0,0,0,0,0c0,0,0,0,0,0
	c0,0,0,0-0.1,0.1c-0.1,0.1-0.2,0.1-0.4,0.1H37.3z M34,39.6V44c0,0.1,0,0.2-0.1,0.3c0,0,0,0,0,0.1c0,0,0,0.1-0.1,0.1c0,0,0,0,0,0
	c0,0,0,0,0,0c0,0,0,0-0.1,0.1c-0.1,0.1-0.2,0.1-0.4,0.1H29c-0.4,0-0.7-0.3-0.7-0.7v-4.4c0-0.4,0.3-0.7,0.7-0.7h4.4
	C33.7,39,34,39.3,34,39.6z M34,35.7c0,0.1,0,0.2-0.1,0.3c0,0,0,0,0,0.1c0,0,0,0.1-0.1,0.1c0,0,0,0,0,0c0,0,0,0,0,0c0,0,0,0-0.1,0.1
	c-0.1,0.1-0.2,0.1-0.4,0.1H29c-0.4,0-0.7-0.3-0.7-0.7v-4.4c0-0.4,0.3-0.7,0.7-0.7h4.4c0.4,0,0.7,0.3,0.7,0.7V35.7z M25.8,35.7
	c0,0.1,0,0.2-0.1,0.3c0,0,0,0,0,0.1c0,0,0,0.1-0.1,0.1c0,0,0,0,0,0c0,0,0,0,0,0c0,0,0,0-0.1,0.1c-0.1,0.1-0.2,0.1-0.4,0.1h-4.4
	c-0.4,0-0.7-0.3-0.7-0.7v-4.4c0-0.4,0.3-0.7,0.7-0.7h4.4c0.4,0,0.7,0.3,0.7,0.7V35.7z M25.8,39.6V44c0,0.1,0,0.2-0.1,0.3
	c0,0,0,0,0,0.1c0,0,0,0.1-0.1,0.1c0,0,0,0,0,0c0,0,0,0,0,0c0,0,0,0-0.1,0.1c-0.1,0.1-0.2,0.1-0.4,0.1h-4.4c-0.4,0-0.7-0.3-0.7-0.7
	v-4.4c0-0.4,0.3-0.7,0.7-0.7h4.4C25.5,39,25.8,39.3,25.8,39.6z M45.7,31.7c0.8-0.3,1.6-0.8,2.2-1.3v17.5c0,1.4-1.1,2.5-2.5,2.5H16.9
	c-1.4,0-2.5-1.1-2.5-2.5V19.2c0-1.4,1.1-2.5,2.5-2.5h1.9v3.7c0,1.4,1.6,2.4,2.9,2.4c1.4,0,2.9-1.1,2.9-2.5v-3.7H34
	c-0.5,0.6-0.9,1.3-1.2,2.1c-0.5,1.2-0.8,2.5-0.8,3.8s0.3,2.6,0.8,3.8c0.3,0.6,0.6,1.2,1,1.8h-17v18.8c0,0.4,0.3,0.7,0.7,0.7h27.2
	c0.4,0,0.7-0.3,0.7-0.7V31.8C45.6,31.8,45.6,31.7,45.7,31.7z M20.4,20.7v-5.9c0-0.3,0.3-0.5,0.5-0.5h1.4c0.3,0,0.5,0.3,0.5,0.5v5.9
	c0.1,0.3-0.2,0.5-0.5,0.5h-1.4C20.6,21.2,20.4,20.9,20.4,20.7z"/>
</svg>
