

<svg xmlns="http://www.w3.org/2000/svg" x="0px" y="0px"
	 width="64.628px" height="64.628px" viewBox="0 0 64.628 64.628">

	<path fill="#5F6062" d="M32.314,0C14.467,0,0,14.467,0,32.314s14.467,32.314,32.314,32.314S64.628,50.16,64.628,32.314
		S50.16,0,32.314,0z M32.314,62.689c-16.749,0-30.375-13.626-30.375-30.375S15.565,1.939,32.314,1.939s30.375,13.626,30.375,30.375
		S49.063,62.689,32.314,62.689z"/>
	<path fill="#5F6062" d="M40.999,32.476c0.076,0.087,0.146,0.142,0.217,0.183h0.005l0.141,0.045l0.141-0.045h0.005
		c0.071-0.041,0.146-0.096,0.221-0.183c0,0,4.207-4.73,4.631-8.829c0.022-0.21,0.04-0.425,0.04-0.644
		c0-2.897-2.271-5.245-5.074-5.245c-2.8,0-5.072,2.349-5.072,5.245c0,0.224,0.019,0.439,0.044,0.654
		C36.73,27.751,40.999,32.476,40.999,32.476z M41.325,19.63c1.799,0,3.262,1.513,3.262,3.373c0,1.86-1.463,3.377-3.262,3.377
		c-1.797,0-3.259-1.517-3.259-3.377C38.066,21.143,39.528,19.63,41.325,19.63z"/>
	<path fill="#5F6062" d="M49.543,28.925c-0.255-0.24-1.999-0.091-1.999-0.091s-0.01,0.037-0.038,0.091
		c-0.059,0.113-0.197,0.302-0.478,0.373c-0.116,0.029-0.677,0.058-1.415,0.075c-1.587,3.21-3.933,5.243-3.933,5.243
		c-0.086,0.1-0.172,0.164-0.254,0.211h-0.005l-0.162,0.053l-0.161-0.053h-0.005c-0.082-0.047-0.162-0.111-0.25-0.211
		c0,0-3.64-3.434-4.963-7.579c-0.872-0.22-2.057-0.672-2.057-0.672H18.812c0,0-0.032,0.329-0.086,0.615
		c-0.005,0.027-0.011,0.052-0.016,0.078c-0.025,0.12-0.055,0.226-0.088,0.286c-0.021,0.039-0.045,0.059-0.069,0.05
		c-0.022-0.007-0.055-0.026-0.093-0.05c-0.229-0.146-0.696-0.53-0.784-0.31c-0.028,0.07-0.065,0.217-0.013,0.346
		c0.139,0.344,0.528,0.796,0.528,1.094v5.094c0,0.201,0.13,0.343,0.293,0.477c0.296,0.244,0.702,0.459,0.636,0.945
		c-0.002,0.011-0.002,0.022-0.003,0.034c-0.049,0.573,0.657,1.174,1.146,1.582c0.145,0.121,0.272,0.226,0.353,0.307
		c0.151,0.15,0.363,0.416,0.583,0.672c0.308,0.358,0.629,0.696,0.81,0.666c0.309-0.051,0.876-0.257,1.238,0.154
		c0.301,0.344,1.68,0.687,2.368,0.761h0.396c0.392-0.052,1.413-0.193,2.011,0c0.22,0.072,0.383,0.188,0.435,0.371
		c0.061,0.213,0.172,0.42,0.297,0.608c0.299,0.448,0.683,0.782,0.683,0.782s0.258-0.412,0.412-0.721
		c0.012-0.023,0.028-0.044,0.046-0.061c0.087-0.084,0.241-0.092,0.415,0c0.265,0.139,0.577,0.507,0.777,1.193
		c0.041,0.138,0.095,0.267,0.161,0.388c0.227,0.424,0.582,0.748,0.908,0.978c0.417,0.294,0.788,0.434,0.788,0.434
		s0-0.181,0.003-0.434c0.004-0.286,0.012-0.663,0.029-0.978c0.005-0.104,0.012-0.201,0.02-0.286
		c0.052-0.566,1.754-1.081,2.063-1.132c0.31-0.051,2.373,0.875,2.373,0.566c0-0.259,0.328-0.482,0.708-0.73
		c0.073-0.047,0.147-0.095,0.221-0.144c0.164-0.109,0.367-0.012,0.562,0.144c0.358,0.287,0.694,0.775,0.727,0.576
		c0.052-0.309,1.032-0.154,1.134,0.206c0.061,0.213,0.14,0.514,0.183,0.8c0.031,0.199,0.045,0.39,0.024,0.538
		c-0.015,0.101,0.053,0.264,0.16,0.441c0.274,0.454,0.812,1.008,0.924,0.897c0.068-0.068,0.146-0.455,0.177-0.897
		c0.024-0.332,0.02-0.694-0.034-0.978c-0.038-0.198-0.1-0.357-0.195-0.44c-0.183-0.16-0.326-0.636-0.391-1.142
		c-0.044-0.342-0.054-0.696-0.016-0.978c0.031-0.239,0.096-0.425,0.202-0.504c0.162-0.121,0.738-0.568,1.343-1.078
		c0.383-0.323,0.778-0.671,1.086-0.978c0.447-0.444,0.715-0.803,0.511-0.877c-0.333-0.121-0.381-0.35-0.343-0.705
		c0.027-0.249,0.095-0.559,0.137-0.941c0.001-0.013,0.003-0.024,0.005-0.037c0.116-0.857,0.721,0.175,0.975-0.992
		c0.053-0.245,0.192-0.437,0.374-0.59c0.696-0.582,2.037-0.584,1.792-0.747c-0.076-0.051-0.13-0.132-0.162-0.231
		c-0.101-0.304,0.005-0.771,0.317-1.004c0.16-0.119,0.481-0.339,0.803-0.577c0.511-0.379,1.026-0.808,0.899-0.966
		C49.553,28.933,49.548,28.929,49.543,28.925z"/>

</svg>
