
<svg xmlns="http://www.w3.org/2000/svg" x="0px" y="0px"
	 width="64.53px" height="64.53px" viewBox="0 0 64.53 64.53">

	<path fill="#5F6062" d="M57.255,0H7.275C3.264,0,0,3.264,0,7.275v49.979c0,4.012,3.264,7.275,7.275,7.275h49.979
		c4.012,0,7.275-3.264,7.275-7.275V7.275C64.53,3.264,61.266,0,57.255,0z M62.632,57.255c0,2.965-2.413,5.378-5.378,5.378H7.275
		c-2.965,0-5.378-2.413-5.378-5.378V7.275c0-2.965,2.413-5.378,5.378-5.378h49.979c2.965,0,5.378,2.413,5.378,5.378V57.255z"/>
	<path fill="#5F6062" d="M45.531,20.295L28.57,40.391c-0.348,0.413-0.975,0.438-1.356,0.056l-7.071-7.105
		c-0.854-0.858-2.243-0.862-3.101-0.007c-0.859,0.854-0.862,2.243-0.008,3.101L27.48,46.931c0.381,0.383,1.008,0.357,1.357-0.056
		l20.046-23.752c0.781-0.926,0.664-2.309-0.261-3.09C47.696,19.252,46.312,19.37,45.531,20.295z"/>

</svg>
