
<svg  xmlns="http://www.w3.org/2000/svg" x="0px" y="0px"
	 width="64.628px" height="64.628px" viewBox="0 0 64.628 64.628" >

	<path fill="#5F6062" d="M32.314,0C14.467,0,0,14.467,0,32.314C0,50.16,14.467,64.628,32.314,64.628S64.628,50.16,64.628,32.314
		C64.628,14.467,50.16,0,32.314,0z M32.314,62.689c-16.749,0-30.375-13.626-30.375-30.375S15.565,1.939,32.314,1.939
		s30.375,13.626,30.375,30.375S49.063,62.689,32.314,62.689z"/>
	<path fill="#5F6062" d="M46.144,18.815h-3.386c-0.033,1.273-1.077,2.298-2.358,2.298c-1.28,0-2.325-1.025-2.358-2.298H26.999
		c-0.033,1.273-1.077,2.298-2.358,2.298c-1.28,0-2.325-1.025-2.358-2.298h-3.435c-1.303,0-2.359,1.056-2.359,2.359v24.937
		c0,1.303,1.056,2.359,2.359,2.359h27.296c1.303,0,2.359-1.056,2.359-2.359V21.175C48.504,19.871,47.447,18.815,46.144,18.815z
		 M41.303,30.317L31.157,40.542c-0.331,0.334-0.79,0.525-1.26,0.525l-0.016,0c-0.472-0.003-0.932-0.201-1.262-0.542l-4.936-5.112
		c-0.68-0.704-0.66-1.831,0.044-2.511c0.333-0.321,0.771-0.498,1.233-0.498c0.486,0,0.94,0.193,1.277,0.542l3.676,3.807l8.869-8.937
		c0.336-0.338,0.784-0.525,1.261-0.525c0.472,0,0.916,0.183,1.251,0.515c0.337,0.334,0.523,0.779,0.525,1.254
		C41.82,29.533,41.637,29.98,41.303,30.317z"/>
	<path fill="#5F6062" d="M24.641,19.933c0.652,0,1.18-0.528,1.18-1.18c0-3.694,3.005-6.7,6.7-6.7s6.7,3.006,6.7,6.7
		c0,0.652,0.528,1.18,1.18,1.18c0.652,0,1.18-0.528,1.18-1.18c0-4.995-4.064-9.059-9.059-9.059s-9.059,4.064-9.059,9.059
		C23.461,19.405,23.99,19.933,24.641,19.933z"/>

</svg>
