<svg xmlns="http://www.w3.org/2000/svg"  x="0px" y="0px" width="64.628px" height="64.628px" viewBox="0 0 64.628 64.628">

	<path fill="#5F6062" d="M32.314,0C14.467,0,0,14.467,0,32.314C0,50.16,14.467,64.628,32.314,64.628S64.628,50.16,64.628,32.314
		C64.628,14.467,50.16,0,32.314,0z M32.314,62.689c-16.749,0-30.375-13.626-30.375-30.375S15.565,1.939,32.314,1.939
		c16.749,0,30.375,13.626,30.375,30.375S49.063,62.689,32.314,62.689z"/>
	<path fill="#5F6062" d="M42.729,12.045c-4.956,0-8.973,4.017-8.973,8.973c0,4.956,4.017,8.973,8.973,8.973
		c4.956,0,8.973-4.017,8.973-8.973C51.702,16.062,47.685,12.045,42.729,12.045z M42.728,13.457c0.555,0,1.005,0.45,1.005,1.005
		c0,0.555-0.45,1.005-1.005,1.005c-0.555,0-1.005-0.45-1.005-1.005C41.723,13.907,42.173,13.457,42.728,13.457z M36.539,23.068
		c-0.555,0-1.005-0.45-1.005-1.005c0-0.555,0.45-1.005,1.005-1.005c0.555,0,1.005,0.45,1.005,1.005
		C37.544,22.618,37.094,23.068,36.539,23.068z M37.954,18.159c-0.555,0-1.005-0.45-1.005-1.005c0-0.555,0.45-1.005,1.005-1.005
		c0.555,0,1.005,0.45,1.005,1.005C38.96,17.709,38.51,18.159,37.954,18.159z M47.513,17.625l-3.042,2.77
		c0.035,0.133,0.054,0.272,0.054,0.416c0,0.902-0.731,1.633-1.633,1.633c-0.902,0-1.634-0.731-1.634-1.633
		c0-0.902,0.731-1.633,1.634-1.633c0.173,0,0.34,0.027,0.497,0.077l3.066-2.792c0.321-0.292,0.818-0.269,1.111,0.052
		C47.857,16.835,47.834,17.333,47.513,17.625z M49.977,22.063c0,0.555-0.45,1.005-1.005,1.005s-1.005-0.45-1.005-1.005
		c0-0.555,0.45-1.005,1.005-1.005S49.977,21.508,49.977,22.063z"/>
	<path fill="#5F6062" d="M48.001,30.444c-1.432,0.793-3.06,1.271-4.793,1.34c0.604,0.468,1.004,1.197,1.004,1.995
		c0,1.359-1.166,2.525-2.525,2.525c-1.362,0-2.527-1.166-2.527-2.525c0-0.941,0.558-1.789,1.352-2.222
		c-2.748-0.584-5.114-2.213-6.662-4.45H19.42c-0.465,0-0.788-0.463-0.628-0.9l1.985-5.396c0.363-0.987,1.303-1.642,2.354-1.642
		h8.946c0.146-0.876,0.397-1.716,0.74-2.508h-9.687c-2.103,0-3.982,1.311-4.708,3.284l-3.369,9.156
		c-1.037,1.089-2.087,2.416-2.126,3.358h-0.004V42.54c0,0.05,0.003,0.099,0.01,0.148v2.831c0,1.469,1.19,2.659,2.659,2.659h0.78
		c1.469,0,2.659-1.191,2.659-2.659v-1.809h23.938v1.809c0,1.469,1.19,2.659,2.659,2.659h0.78c1.469,0,2.659-1.191,2.659-2.659V42.54
		v0V32.459h-0.004C49.036,31.937,48.59,31.201,48.001,30.444z M20.115,36.304c-1.36,0-2.525-1.166-2.525-2.525
		c0-1.362,1.165-2.526,2.525-2.526c1.362,0,2.525,1.165,2.525,2.526C22.64,35.138,21.477,36.304,20.115,36.304z"/>

</svg>
