
<svg xmlns="http://www.w3.org/2000/svg" x="0px" y="0px"
	 width="64.628px" height="64.628px" viewBox="0 0 64.628 64.628" >

	<path fill-rule="evenodd" clip-rule="evenodd" fill="#5F6062" d="M32.314,0C14.467,0,0,14.467,0,32.314
		s14.467,32.314,32.314,32.314S64.628,50.16,64.628,32.314S50.16,0,32.314,0z M32.314,62.689c-16.749,0-30.375-13.626-30.375-30.375
		S15.565,1.939,32.314,1.939s30.375,13.626,30.375,30.375S49.063,62.689,32.314,62.689z"/>
	<path fill-rule="evenodd" clip-rule="evenodd" fill="#5F6062" d="M40.715,36.009c0.004-0.003,0.008-0.006,0.012-0.008
		c-0.039-0.012-0.078-0.025-0.117-0.037c-2.905-0.918-4.016-3.095-4.347-5.255c0.319-0.367,0.631-0.755,0.929-1.16
		c1.905,0.616,4.188,0.796,6.144-0.637c-2.693-2.722-0.532-6.06-2.475-12.074c-1.654-5.112-8.431-4.861-9.305-3.065
		c-3.594-1.283-6.306,0.434-7.304,5.851c-1.147,6.221,1.077,6.878-1.616,9.599c2.067,1.194,3.962,0.903,5.606,0.242
		c0.325,0.441,0.661,0.866,1.008,1.264c-0.334,2.153-1.449,4.32-4.342,5.235c-2.207,0.696-4.788,1.384-6.313,2.925
		c-1.203,1.218-0.402,9.259-0.402,9.259h9.11h10.874h9.11c0,0,0.8-8.041-0.402-9.259C45.392,37.381,42.889,36.69,40.715,36.009z"/>

</svg>
