
<svg xmlns="http://www.w3.org/2000/svg" x="0px" y="0px"
	 width="64.628px" height="64.628px" viewBox="0 0 64.628 64.628">

	<path fill="#5F6062" d="M32.314,0C14.467,0,0,14.467,0,32.314s14.467,32.314,32.314,32.314S64.628,50.16,64.628,32.314
		S50.16,0,32.314,0z M32.314,62.689c-16.749,0-30.375-13.626-30.375-30.375S15.565,1.939,32.314,1.939s30.375,13.626,30.375,30.375
		S49.063,62.689,32.314,62.689z"/>
	<path fill="#5F6062" d="M28.112,34.671c-0.493,0-0.956,0.192-1.305,0.54l-6.96,6.96v-3.574c0-1.017-0.828-1.845-1.845-1.845
		s-1.845,0.828-1.845,1.845v8.974c0,0.496,0.403,0.899,0.899,0.899l8.974,0c1.017,0,1.845-0.828,1.845-1.845
		c0-1.017-0.828-1.845-1.845-1.845l-3.574,0l6.96-6.96c0.349-0.349,0.54-0.812,0.54-1.305c0-0.493-0.192-0.956-0.54-1.305
		C29.068,34.863,28.605,34.671,28.112,34.671z"/>
	<path fill="#5F6062" d="M47.572,16.157h-8.974c-1.017,0-1.845,0.828-1.845,1.845c0,1.017,0.828,1.845,1.845,1.845h3.574l-6.96,6.96
		c-0.719,0.719-0.719,1.89,0,2.609c0.348,0.349,0.812,0.54,1.305,0.54c0.493,0,0.956-0.192,1.305-0.54l6.96-6.96v2.484
		c0,1.017,0.828,1.845,1.845,1.845s1.845-0.828,1.845-1.845v-7.885C48.471,16.56,48.067,16.157,47.572,16.157z"/>
	<path fill="#5F6062" d="M22.457,19.847h3.574c1.018,0,1.845-0.828,1.845-1.845c0-1.017-0.828-1.845-1.845-1.845h-8.974
		c-0.496,0-0.899,0.403-0.899,0.899v7.884c0,1.017,0.828,1.845,1.845,1.845s1.845-0.828,1.845-1.845v-2.484l6.96,6.96
		c0.349,0.349,0.812,0.54,1.305,0.54c0.493,0,0.956-0.192,1.305-0.54c0.349-0.349,0.54-0.812,0.54-1.305
		c0-0.493-0.192-0.956-0.54-1.305L22.457,19.847z"/>
	<path fill="#5F6062" d="M46.626,36.752c-1.017,0-1.845,0.828-1.845,1.845l0,3.574l-6.96-6.96c-0.349-0.348-0.812-0.54-1.305-0.54
		c-0.493,0-0.956,0.192-1.305,0.54c-0.349,0.349-0.54,0.812-0.54,1.305c0,0.493,0.192,0.956,0.54,1.305l6.96,6.96h-3.574
		c-1.017,0-1.845,0.828-1.845,1.845c0,1.017,0.828,1.845,1.845,1.845h8.974c0.496,0,0.899-0.403,0.899-0.899v-8.974
		C48.471,37.58,47.643,36.752,46.626,36.752z"/>
</svg>
