
<svg xmlns="http://www.w3.org/2000/svg" xmlns:xlink="http://www.w3.org/1999/xlink" x="0px" y="0px"
	 width="64.628px" height="64.628px" viewBox="0 0 64.628 64.628">

	<path fill="#5F6062" d="M32.314,0C14.467,0,0,14.467,0,32.314s14.467,32.314,32.314,32.314S64.628,50.16,64.628,32.314
		S50.16,0,32.314,0z M32.314,62.689c-16.749,0-30.375-13.626-30.375-30.375S15.565,1.939,32.314,1.939s30.375,13.626,30.375,30.375
		S49.063,62.689,32.314,62.689z"/>
	<path fill="#5F6062" d="M48.272,26.284l-10.406-1.512l-4.654-9.429c-0.368-0.745-1.429-0.745-1.797,0l-4.654,9.429l-10.406,1.512
		c-0.822,0.119-1.15,1.129-0.555,1.709l7.53,7.34l-1.778,10.364c-0.14,0.818,0.719,1.442,1.453,1.056l9.307-4.893l9.307,4.893
		c0.735,0.386,1.594-0.238,1.453-1.056l-1.778-10.364l7.53-7.34C49.422,27.413,49.094,26.403,48.272,26.284z"/>

</svg>
