
<svg xmlns="http://www.w3.org/2000/svg" x="0px" y="0px"
	 width="64.628px" height="64.628px" viewBox="0 0 64.628 64.628" >

	<path fill-rule="evenodd" clip-rule="evenodd" fill="#5F6062" d="M32.314,0C14.467,0,0,14.467,0,32.314
		s14.467,32.314,32.314,32.314S64.628,50.16,64.628,32.314S50.16,0,32.314,0z M32.314,62.689c-16.749,0-30.375-13.626-30.375-30.375
		S15.565,1.939,32.314,1.939s30.375,13.626,30.375,30.375S49.063,62.689,32.314,62.689z"/>
	<path fill-rule="evenodd" clip-rule="evenodd" fill="#5F6062" d="M24.993,37.704c-0.217,0.107-0.452-0.109-0.363-0.334l1.299-3.272
		c-0.457,0.283-0.979,0.526-1.577,0.715c-2.243,0.708-4.867,1.407-6.417,2.974c-1.223,1.239-0.409,9.412-0.409,9.412h9.261h4.184
		l-2.632-10.543L24.993,37.704z"/>
	<path fill-rule="evenodd" clip-rule="evenodd" fill="#5F6062" d="M35.895,29.47c0.325-0.373,0.642-0.768,0.945-1.179
		c1.937,0.626,4.257,0.809,6.245-0.648c-2.738-2.768-0.54-6.16-2.516-12.274c-1.682-5.197-8.571-4.942-9.459-3.115
		c-3.654-1.305-6.411,0.442-7.425,5.948c-1.166,6.324,1.095,6.991-1.643,9.758c2.102,1.214,4.028,0.917,5.699,0.246
		c0.33,0.449,0.672,0.88,1.025,1.285c-0.144,0.925-0.43,1.853-0.934,2.686l4.482,7.39l4.5-7.421
		C36.318,31.315,36.036,30.391,35.895,29.47z"/>
	<path fill-rule="evenodd" clip-rule="evenodd" fill="#5F6062" d="M40.421,34.858c0.004-0.003,0.008-0.006,0.012-0.008
		c-0.04-0.012-0.08-0.025-0.119-0.037c-0.639-0.202-1.193-0.464-1.672-0.773l1.322,3.33c0.089,0.225-0.146,0.441-0.363,0.334
		l-3.315-1.039l-2.63,10.533h4.184h9.261c0,0,0.814-8.174-0.409-9.412C45.175,36.253,42.631,35.551,40.421,34.858z"/>

</svg>
