
<svg  xmlns="http://www.w3.org/2000/svg"  x="0px" y="0px" width="64.628px" height="64.628px" viewBox="0 0 64.628 64.628">
	<path fill="#5F6062" d="M32.314,0C14.467,0,0,14.467,0,32.314s14.467,32.314,32.314,32.314S64.628,50.16,64.628,32.314
		S50.16,0,32.314,0z M32.314,62.689c-16.749,0-30.375-13.626-30.375-30.375S15.565,1.939,32.314,1.939
		c16.749,0,30.375,13.626,30.375,30.375S49.063,62.689,32.314,62.689z"/>
	<path fill="#5F6062" d="M47.304,28.81l-0.821-2.232c-1.118,0.488-2.384,0.735-3.78,0.735c-1.361,0-2.826-0.231-4.369-0.688H38.28
		c-0.486,0.672-1.12,1.64-1.64,2.739c-0.405,0.858-1.268,1.392-2.25,1.392c-1.035,0-2.111-0.576-2.676-1.433
		c-0.461-0.699-0.546-1.52-0.232-2.253c0.064-0.149,0.132-0.298,0.201-0.446H19.478c-0.469,0-0.795-0.467-0.633-0.908l2.003-5.444
		c0.366-0.995,1.314-1.657,2.375-1.657h9.627c0.07-0.448,0.172-0.916,0.318-1.396c0.119-0.391,0.26-0.769,0.423-1.135H23.222
		c-2.121,0-4.017,1.323-4.75,3.313l-3.399,9.237c-1.046,1.098-2.105,2.437-2.145,3.387h-0.004v10.171c0,0.05,0.004,0.1,0.01,0.149
		v2.856c0,1.482,1.201,2.683,2.683,2.683h0.787c1.482,0,2.683-1.201,2.683-2.683v-1.825h24.15v1.825
		c0,1.482,1.201,2.683,2.683,2.683h0.787c1.482,0,2.683-1.201,2.683-2.683v-3.005v0V32.024h-0.004
		C49.339,31.224,48.326,29.926,47.304,28.81z M20.179,35.904c-1.372,0-2.547-1.176-2.547-2.547c0-1.374,1.175-2.549,2.547-2.549
		c1.374,0,2.547,1.175,2.547,2.549C22.726,34.727,21.552,35.904,20.179,35.904z M41.942,35.904c-1.373,0-2.55-1.176-2.55-2.547
		c0-1.374,1.176-2.549,2.55-2.549c1.371,0,2.547,1.175,2.547,2.549C44.489,34.727,43.313,35.904,41.942,35.904z"/>
	<path fill="#5F6062" d="M38.801,13.132c-4.556,2.627-4.295,6.905-4.138,8.488c5.885-6.927,14.686-6.591,14.686-6.591
		S36.872,19.282,33.208,27.81c-0.288,0.674,1.359,1.549,1.735,0.752c1.122-2.371,2.685-4.15,2.685-4.15
		c2.307,0.853,6.297,1.853,9.125-0.125c3.758-2.627,3.373-8.451,8.735-11.287C56.742,12.338,44.976,9.57,38.801,13.132z"/>

</svg>
