
<svg xmlns="http://www.w3.org/2000/svg" x="0px" y="0px"
	 width="64.628px" height="64.628px" viewBox="0 0 64.628 64.628" >

	<path fill="#5F6062" d="M32.314,0C14.467,0,0,14.467,0,32.314s14.467,32.314,32.314,32.314S64.628,50.16,64.628,32.314
		S50.16,0,32.314,0z M32.314,62.689c-16.749,0-30.375-13.626-30.375-30.375S15.565,1.939,32.314,1.939s30.375,13.626,30.375,30.375
		S49.063,62.689,32.314,62.689z"/>
	<path fill="#5F6062" d="M41.752,35.609c-1.455-0.607-2.467-1.055-3.159-1.375l-2.985,12.64h14.022c0,0,0.292-5.431-0.687-6.966
		C47.841,38.194,45.405,37.128,41.752,35.609z"/>
	<path fill="#5F6062" d="M26.257,25.71c0.427,3.291,1.794,4.343,1.794,4.343l-0.019,1.905c1.537,0.598,3.412,1.17,4.546,1.17
		c1.167,0,3.087-0.589,4.644-1.205l-0.015-1.871c0,0,1.364-1.053,1.788-4.343c0.857,0.251,1.756-1.277,1.801-2.08
		c0.048-0.773-0.115-2.915-1.156-2.7c0.209-1.618,0.366-3.069,0.289-3.836c-0.269-2.822-3.043-5.784-7.303-5.784
		c-4.257,0-7.027,2.963-7.303,5.784c-0.071,0.767,0.083,2.218,0.295,3.836c-1.043-0.215-1.21,1.926-1.165,2.7
		C24.507,24.432,25.4,25.96,26.257,25.71z"/>
	<path fill="#5F6062" d="M23.499,35.609c-3.653,1.519-6.337,2.584-7.434,4.299c-0.989,1.534-0.69,6.966-0.69,6.966H29.61
		l-2.986-12.623C25.933,34.57,24.93,35.013,23.499,35.609z"/>
	<path fill="#5F6062" d="M33.922,33.597H31.29c-0.537,0-0.877,0.576-0.618,1.046l0.634,1.153c0.124,0.225,0.361,0.365,0.618,0.365
		h1.363c0.257,0,0.494-0.14,0.618-0.365l0.635-1.153C34.799,34.173,34.459,33.597,33.922,33.597z"/>
	<path fill="#5F6062" d="M33.062,36.693h-0.938c-0.275,0-0.503,0.212-0.523,0.487l-0.699,9.695h3.381l-0.699-9.695
		C33.565,36.905,33.337,36.693,33.062,36.693z"/>

</svg>
