
<svg xmlns="http://www.w3.org/2000/svg"  x="0px" y="0px"
	 width="64.628px" height="64.628px" viewBox="0 0 64.628 64.628" >

	<path fill="#5F6062" d="M32.314,0C14.467,0,0,14.467,0,32.314s14.467,32.314,32.314,32.314S64.628,50.16,64.628,32.314
		S50.16,0,32.314,0z M32.314,62.689c-16.749,0-30.375-13.626-30.375-30.375S15.565,1.939,32.314,1.939s30.375,13.626,30.375,30.375
		S49.063,62.689,32.314,62.689z"/>
	<path fill="#5F6062" d="M38.149,16.271c-5.638,0-10.208,4.572-10.208,10.208c0,1.692,0.419,3.283,1.145,4.689L16.479,43.774
		c-0.133,0.133-0.208,0.313-0.208,0.501v3.136c0,0.522,0.423,0.945,0.945,0.945h3.138c0.188,0,0.368-0.075,0.501-0.208l1.044-1.044
		c0.133-0.133,0.208-0.313,0.208-0.501V44.69c0-0.391,0.317-0.709,0.708-0.709h1.498c0.391,0,0.709-0.317,0.709-0.709v-1.503
		c0-0.391,0.317-0.709,0.708-0.709h1.918c0.188,0,0.368-0.075,0.501-0.207l5.313-5.312c1.405,0.729,2.995,1.147,4.688,1.147
		c5.635,0,10.208-4.572,10.208-10.21C48.357,20.842,43.784,16.27,38.149,16.271z M41.005,26.966c-1.846,0-3.343-1.497-3.343-3.342
		c0-1.846,1.497-3.342,3.343-3.342c1.844,0,3.342,1.496,3.342,3.341C44.346,25.469,42.848,26.966,41.005,26.966z"/>

</svg>
