
<svg xmlns="http://www.w3.org/2000/svg" x="0px" y="0px"
	 width="64.628px" height="64.628px" viewBox="0 0 64.628 64.628" >

	<path fill="#5F6062" d="M32.314,0C14.467,0,0,14.467,0,32.314s14.467,32.314,32.314,32.314S64.628,50.16,64.628,32.314
		S50.16,0,32.314,0z M32.314,62.689c-16.749,0-30.375-13.626-30.375-30.375S15.565,1.939,32.314,1.939s30.375,13.626,30.375,30.375
		S49.063,62.689,32.314,62.689z"/>
	<path fill="#5F6062" d="M37.427,21.574c1.057,0.863,1.639,1.974,1.639,3.13c0,1.104,0.895,1.999,1.999,1.999
		c1.104,0,1.999-0.895,1.999-1.999c0-1.217-0.29-2.392-0.861-3.495c-0.534-1.032-1.291-1.951-2.248-2.732
		c-1.399-1.142-3.126-1.903-4.996-2.221v-1.046c0-1.104-0.895-1.999-1.999-1.999s-1.999,0.895-1.999,1.999v1.046
		c-1.869,0.318-3.597,1.079-4.996,2.221c-0.957,0.781-1.713,1.701-2.248,2.732c-0.571,1.103-0.861,2.279-0.861,3.495
		c0,3.488,2.431,6.609,6.192,7.95l0.064,0.023l1.849,0.522v9.83c-0.927-0.245-1.769-0.663-2.467-1.233
		c-1.057-0.863-1.639-1.974-1.639-3.13c0-1.104-0.895-1.999-1.999-1.999c-1.104,0-1.999,0.895-1.999,1.999
		c0,1.217,0.29,2.393,0.861,3.495c0.535,1.032,1.291,1.951,2.248,2.732c1.399,1.142,3.126,1.903,4.996,2.221v1.013
		c0,1.104,0.895,1.999,1.999,1.999s1.999-0.895,1.999-1.999v-1.013c1.87-0.317,3.597-1.079,4.996-2.221
		c0.957-0.781,1.713-1.701,2.248-2.732c0.571-1.103,0.861-2.279,0.861-3.495c0-3.488-2.431-6.609-6.192-7.95l-0.064-0.023
		l-1.849-0.522v-9.83C35.886,20.587,36.729,21.004,37.427,21.574z M30.961,29.043l-0.629-0.178
		c-2.114-0.775-3.477-2.403-3.477-4.162c0-1.156,0.582-2.267,1.639-3.13c0.698-0.57,1.541-0.987,2.467-1.233V29.043z M35.589,34.503
		c2.114,0.775,3.477,2.403,3.477,4.162c0,1.156-0.582,2.267-1.639,3.13c-0.698,0.57-1.541,0.987-2.467,1.233v-8.702L35.589,34.503z"
		/>

</svg>
