<?xml version="1.0" encoding="utf-8"?>
<!-- Generator: Adobe Illustrator 19.2.1, SVG Export Plug-In . SVG Version: 6.00 Build 0)  -->
<svg version="1.1" id="icons" xmlns="http://www.w3.org/2000/svg" xmlns:xlink="http://www.w3.org/1999/xlink" x="0px" y="0px"
	 viewBox="0 0 64.6 64.6" style="enable-background:new 0 0 64.6 64.6;" xml:space="preserve">
<g>
	<path class="st0" d="M32.3,0C14.5,0,0,14.5,0,32.3s14.5,32.3,32.3,32.3s32.3-14.4,32.3-32.3S50.2,0,32.3,0z M32.3,62.7
		c-16.7,0-30.4-13.6-30.4-30.4S15.6,2,32.3,2s30.4,13.6,30.4,30.3S49.1,62.7,32.3,62.7z"/>
	<path class="st0" d="M52,27.1v-2.2c0-1-0.8-1.7-1.7-1.7H35.4l-9.7-4.3l0.6-1.8c0.2-0.6,0.8-1.1,1.5-1.1h3.7v-1.1h-4.2
		c-1.7,0-3.1,1.1-3.7,2.6L21,25.3c-0.8-0.3-1.7-0.4-2.6-0.4c-4.8,0-8.7,3.9-8.7,8.7s3.9,8.7,8.7,8.7s8.7-3.9,8.7-8.7
		c0-3.1-1.6-5.8-4-7.3l1.6-4.8l1.1,4.6l7.6,8.3h4.1c0.4,4.4,4.1,7.9,8.7,7.9c4.8,0,8.7-3.9,8.7-8.7C55,31,53.8,28.7,52,27.1z
		 M24.2,33.6c0,3.2-2.6,5.8-5.8,5.8s-5.8-2.6-5.8-5.8s2.6-5.8,5.8-5.8c0.6,0,1.1,0.1,1.6,0.2l-0.9,2.8c-0.2-0.1-0.5-0.1-0.7-0.1
		c-1.6,0-2.9,1.3-2.9,2.9c0,1.6,1.3,2.9,2.9,2.9c1.6,0,2.9-1.3,2.9-2.9c0-0.5-0.1-0.9-0.3-1.3l1.1-3.2
		C23.4,30.2,24.2,31.8,24.2,33.6z M37.8,31.7c-0.3,0-0.7-0.1-1-0.1c-0.2-1.5-1.5-2.7-3.1-2.7c-0.8,0-1.4,0.3-2,0.7
		c-0.4-0.2-0.7-0.5-0.9-0.7l-1.1-1.1h10.2C38.8,28.9,38.1,30.2,37.8,31.7z M46.2,39.4c-2.9,0-5.4-2.2-5.8-5h3
		c0.3,1.2,1.5,2.1,2.8,2.1c1.3,0,2.5-0.9,2.8-2.1h1.9v-2h-2c-0.5-1-1.5-1.7-2.6-1.7c-1.2,0-2.2,0.7-2.6,1.7h-3
		c0.6-2.6,2.9-4.6,5.7-4.6c3.2,0,5.8,2.6,5.8,5.8C52.1,36.8,49.4,39.4,46.2,39.4z"/>
	<path class="st0" d="M21.3,19.7v-1.3c0-0.9-0.8-1.7-1.7-1.7h-2.2v4.7h2.2C20.5,21.4,21.3,20.6,21.3,19.7z"/>
</g>
</svg>
