
<svg xmlns="http://www.w3.org/2000/svg"  x="0px" y="0px"
	 width="64.628px" height="64.628px" viewBox="0 0 64.628 64.628" >

	<path fill="#5F6062" d="M32.314,0C14.467,0,0,14.467,0,32.314C0,50.16,14.467,64.628,32.314,64.628S64.628,50.16,64.628,32.314
		C64.628,14.467,50.16,0,32.314,0z M32.314,62.689c-16.749,0-30.375-13.626-30.375-30.375S15.565,1.939,32.314,1.939
		s30.375,13.626,30.375,30.375S49.063,62.689,32.314,62.689z"/>
	<path fill="#5F6062" d="M19.08,32.872c-2.464,0-4.462,1.998-4.462,4.462c0,2.464,1.998,4.462,4.462,4.462s4.462-1.998,4.462-4.462
		C23.542,34.87,21.545,32.872,19.08,32.872z M19.08,39.099c-0.973,0-1.764-0.792-1.764-1.764c0-0.973,0.791-1.764,1.764-1.764
		s1.764,0.792,1.764,1.764C20.845,38.307,20.053,39.099,19.08,39.099z"/>
	<path fill="#5F6062" d="M54.351,32.872v-7.568l-1.145-2.793c-0.718-1.751-2.423-2.894-4.315-2.894H32.314
		c-1.262,0-2.49,0.409-3.499,1.167l-5.218,4.52h-7.773c-2.254,0-4.081,1.827-4.081,4.081v3.487h-0.3
		c-0.966,0-1.749,0.783-1.749,1.749v1.617c0,0.966,0.783,1.749,1.749,1.749h1.754c-0.024-0.214-0.036-0.432-0.036-0.652
		c0-3.264,2.655-5.92,5.92-5.92c3.264,0,5.92,2.656,5.92,5.92c0,0.221-0.013,0.438-0.036,0.652H41.18
		c-0.024-0.214-0.036-0.432-0.036-0.652c0-3.264,2.656-5.92,5.92-5.92c3.264,0,5.92,2.656,5.92,5.92
		c0,0.221-0.012,0.438-0.036,0.652h0.238c0.966,0,1.749-0.783,1.749-1.749v-2.783C54.934,33.133,54.673,32.872,54.351,32.872z
		 M39.485,25.304H26.997l3.043-2.888c0.652-0.489,1.46-0.758,2.274-0.758h7.171V25.304z M41.272,25.304v-3.647h7.618
		c1.069,0,2.022,0.639,2.427,1.628l0.828,2.018H41.272z"/>
	<path fill="#5F6062" d="M47.063,32.872c-2.464,0-4.462,1.998-4.462,4.462c0,2.464,1.998,4.462,4.462,4.462
		c2.464,0,4.462-1.998,4.462-4.462C51.526,34.87,49.528,32.872,47.063,32.872z M47.063,39.099c-0.973,0-1.764-0.792-1.764-1.764
		c0-0.973,0.791-1.764,1.764-1.764s1.764,0.792,1.764,1.764C48.828,38.307,48.036,39.099,47.063,39.099z"/>

</svg>
