
<svg xmlns="http://www.w3.org/2000/svg"  x="0px" y="0px"
	 width="64.628px" height="64.628px" viewBox="0 0 64.628 64.628">

	<path fill="#5F6062" d="M32.314,0C14.467,0,0,14.467,0,32.314s14.467,32.314,32.314,32.314S64.628,50.16,64.628,32.314
		S50.16,0,32.314,0z M32.314,62.689c-16.749,0-30.375-13.626-30.375-30.375S15.565,1.939,32.314,1.939s30.375,13.626,30.375,30.375
		S49.063,62.689,32.314,62.689z"/>
	<path fill="#5F6062" d="M43.985,24.869c1.551-2.31,0.962-3.732-1.767-4.267c0.55-2.728-0.538-3.816-3.265-3.266
		c-0.535-2.731-1.957-3.319-4.265-1.768c-1.538-2.317-3.078-2.317-4.616,0c-2.308-1.552-3.73-0.963-4.266,1.768
		c-2.726-0.55-3.814,0.538-3.264,3.266c-2.729,0.535-3.318,1.957-1.767,4.267c-2.317,1.539-2.317,3.079,0,4.618
		c-1.551,2.309-0.962,3.732,1.767,4.267c-0.512,2.54,0.416,3.64,2.747,3.336v12.974c0,0.617,0.717,0.957,1.194,0.566
		c1.524-1.249,4.088-3.357,5.145-4.266c0.274-0.235,0.678-0.235,0.952,0c1.057,0.908,3.621,3.017,5.145,4.266
		c0.477,0.391,1.194,0.051,1.194-0.566V37.148c0.01-0.046,0.025-0.081,0.034-0.129c2.726,0.551,3.815-0.538,3.265-3.265
		c2.729-0.535,3.318-1.958,1.767-4.267C46.301,27.948,46.301,26.409,43.985,24.869z M32.389,37.126
		c-5.492,0-9.944-4.452-9.944-9.944c0-5.492,4.452-9.944,9.944-9.944s9.944,4.452,9.944,9.944
		C42.333,32.673,37.881,37.126,32.389,37.126z"/>
	<path fill="#5F6062" d="M32.377,19.04c-4.508,0-8.176,3.668-8.176,8.176c0,4.508,3.668,8.176,8.176,8.176s8.176-3.668,8.176-8.176
		C40.553,22.707,36.885,19.04,32.377,19.04z M36.517,25.457l-4.492,4.77c-0.148,0.14-0.371,0.234-0.569,0.234
		c-0.198,0-0.421-0.094-0.569-0.234L28.3,27.855c-0.322-0.304-0.322-0.772,0-1.075c0.322-0.304,0.817-0.304,1.14,0l2.016,1.834
		l3.922-4.255c0.322-0.303,0.818-0.303,1.139,0C36.839,24.663,36.839,25.154,36.517,25.457z"/>

</svg>
