<?xml version="1.0" encoding="utf-8"?>
<!-- Generator: Adobe Illustrator 19.2.1, SVG Export Plug-In . SVG Version: 6.00 Build 0)  -->
<svg version="1.1" id="Layer_1" xmlns="http://www.w3.org/2000/svg" xmlns:xlink="http://www.w3.org/1999/xlink" x="0px" y="0px"
	 viewBox="0 0 64.6 64.6" enable-background="new 0 0 64.6 64.6" xml:space="preserve">
<path fill="#5F6062" d="M32.3,0C14.5,0,0,14.5,0,32.3s14.5,32.3,32.3,32.3s32.3-14.5,32.3-32.3S50.2,0,32.3,0z M32.3,62.7
	c-16.7,0-30.4-13.6-30.4-30.4S15.6,1.9,32.3,1.9s30.4,13.6,30.4,30.4S49.1,62.7,32.3,62.7z"/>
<path fill="#5D5D5D" d="M29.6,35.6c0,0-1.9,0.5-5.5,2c-3.6,1.5-6.3,2.6-7.4,4.3c-1,1.5-0.7,6.9-0.7,6.9H50c0,0,0.3-5.4-0.7-6.9
	c-1.1-1.7-3.5-2.8-7.1-4.3c-3.6-1.5-5.5-2-5.5-2s-1.6,1.2-3.7,1.2S29.6,35.6,29.6,35.6z M40.1,24.7c0.2-1.6,0.4-3,0.3-3.8
	c-0.3-2.8-3-5.7-7.2-5.7c-4.2,0-7,2.9-7.2,5.7c-0.1,0.8,0.1,2.2,0.3,3.8l0.6,4.7c0.4,3.3,4.5,5.9,6.1,5.9c1.7,0,6-2.6,6.5-5.9
	L40.1,24.7z"/>
</svg>
