
<svg xmlns="http://www.w3.org/2000/svg" x="0px" y="0px"
	 width="64.628px" height="64.628px" viewBox="0 0 64.628 64.628">

	<path fill="#5F6062" d="M32.314,0C14.467,0,0,14.467,0,32.314s14.467,32.314,32.314,32.314S64.628,50.16,64.628,32.314
		S50.16,0,32.314,0z M32.314,62.689c-16.749,0-30.375-13.626-30.375-30.375S15.565,1.939,32.314,1.939s30.375,13.626,30.375,30.375
		S49.063,62.689,32.314,62.689z"/>
	<path fill="#5F6062" d="M27.44,19.131c-1.018,0-1.845,0.828-1.845,1.845v2.008l-6.287-6.287c-0.349-0.349-0.812-0.54-1.305-0.54
		c-0.493,0-0.956,0.192-1.305,0.54c-0.349,0.349-0.54,0.812-0.54,1.305c0,0.493,0.192,0.956,0.54,1.305l6.287,6.287h-2.146
		c-1.017,0-1.845,0.828-1.845,1.845c0,1.017,0.828,1.845,1.845,1.845h7.547c0.496,0,0.899-0.403,0.899-0.899v-7.409
		C29.285,19.959,28.457,19.131,27.44,19.131z"/>
	<path fill="#5F6062" d="M46.626,16.157c-0.493,0-0.956,0.192-1.305,0.54l-6.287,6.287v-2.146c0-1.017-0.828-1.845-1.845-1.845
		c-1.017,0-1.845,0.828-1.845,1.845v7.547c0,0.496,0.403,0.899,0.899,0.899l7.409,0c1.018,0,1.845-0.828,1.845-1.845
		c0-1.017-0.828-1.845-1.845-1.845h-2.008l6.287-6.287c0.349-0.349,0.541-0.812,0.541-1.305c0-0.493-0.192-0.956-0.541-1.305
		C47.582,16.349,47.119,16.157,46.626,16.157z"/>
	<path fill="#5F6062" d="M28.385,35.343h-7.547c-1.017,0-1.845,0.828-1.845,1.845c0,1.017,0.828,1.845,1.845,1.845h2.146
		l-6.287,6.287c-0.349,0.349-0.54,0.812-0.54,1.305c0,0.493,0.192,0.956,0.54,1.305c0.349,0.349,0.812,0.541,1.305,0.541
		c0.493,0,0.956-0.192,1.305-0.54l6.287-6.287v2.008c0,1.017,0.828,1.845,1.845,1.845c1.018,0,1.845-0.828,1.845-1.845v-7.409
		C29.285,35.747,28.881,35.343,28.385,35.343z"/>
	<path fill="#5F6062" d="M41.643,39.033h2.008c1.018,0,1.845-0.828,1.845-1.845s-0.828-1.845-1.845-1.845l-7.409,0
		c-0.496,0-0.899,0.403-0.899,0.899v7.547c0,1.017,0.828,1.845,1.845,1.845c1.018,0,1.845-0.828,1.845-1.845v-2.146l6.287,6.287
		c0.349,0.349,0.812,0.54,1.305,0.54c0.493,0,0.956-0.192,1.305-0.54c0.349-0.349,0.541-0.812,0.541-1.305
		c0-0.493-0.192-0.956-0.541-1.305L41.643,39.033z"/>

</svg>
