
<svg  xmlns="http://www.w3.org/2000/svg" x="0px" y="0px"
	 width="64.628px" height="64.628px" viewBox="0 0 64.628 64.628" >

	<path fill="#5F6062" d="M32.314,0C14.467,0,0,14.467,0,32.314s14.467,32.314,32.314,32.314S64.628,50.16,64.628,32.314
		S50.16,0,32.314,0z M32.314,62.689c-16.749,0-30.375-13.626-30.375-30.375S15.565,1.939,32.314,1.939s30.375,13.626,30.375,30.375
		S49.063,62.689,32.314,62.689z"/>
	<path fill="#5F6062" d="M37.22,32.438l-0.02-2.423c0,0,1.364-1.052,1.788-4.342c0.857,0.25,1.755-1.277,1.8-2.079
		c0.048-0.773-0.115-2.914-1.155-2.699c0.208-1.617,0.366-3.068,0.289-3.835c-0.269-2.821-3.042-5.783-7.3-5.783
		c-4.256,0-7.025,2.962-7.301,5.783c-0.071,0.767,0.083,2.218,0.295,3.835c-1.043-0.215-1.21,1.926-1.165,2.699
		c0.054,0.802,0.947,2.33,1.804,2.079c0.427,3.29,1.794,4.342,1.794,4.342l-0.036,3.508c0,0-0.867,0.526-4.515,2.047
		c-3.652,1.518-6.335,2.584-7.432,4.297c-0.989,1.534-0.69,6.964-0.69,6.964h19.944c-1.24-1.744-1.969-3.875-1.969-6.173
		C33.35,37.355,34.857,34.398,37.22,32.438z"/>
	<path fill="#5F6062" d="M44.028,31.777c-4.905,0-8.881,3.976-8.881,8.881c0,4.905,3.976,8.88,8.881,8.88
		c4.905,0,8.88-3.976,8.88-8.88C52.909,35.753,48.933,31.777,44.028,31.777z M42.432,47.153c-2.463-0.606-4.394-2.58-4.937-5.067
		c0.313-0.076,0.639-0.118,0.975-0.118c2.264,0,4.107,1.842,4.107,4.107C42.576,46.448,42.525,46.809,42.432,47.153z M44.028,42.497
		c-1.014,0-1.84-0.825-1.84-1.84c0-1.014,0.825-1.84,1.84-1.84c1.014,0,1.84,0.825,1.84,1.84
		C45.868,41.672,45.043,42.497,44.028,42.497z M45.625,47.153c-0.094-0.344-0.145-0.705-0.145-1.078
		c0-2.264,1.842-4.107,4.107-4.107c0.336,0,0.663,0.041,0.975,0.118C50.019,44.573,48.088,46.547,45.625,47.153z M44.028,36.996
		c-2.423,0-4.668,0.775-6.501,2.09c0.709-2.932,3.354-5.117,6.501-5.117c3.147,0,5.792,2.185,6.501,5.117
		C48.696,37.771,46.451,36.996,44.028,36.996z"/>

</svg>
