
<svg  xmlns="http://www.w3.org/2000/svg"  x="0px" y="0px"
	 width="64.628px" height="64.628px" viewBox="0 0 64.628 64.628" >

	<path fill="#5F6062" d="M32.314,0C14.467,0,0,14.467,0,32.314s14.467,32.314,32.314,32.314S64.628,50.16,64.628,32.314
		S50.16,0,32.314,0z M32.314,62.689c-16.749,0-30.375-13.626-30.375-30.375S15.565,1.939,32.314,1.939s30.375,13.626,30.375,30.375
		S49.063,62.689,32.314,62.689z"/>
	
		<path fill="#5F6062" d="M46.228,13.644H24.031c-1.279,0-2.316,1.037-2.316,2.316v1.037h19.2c2.321,0,4.209,1.888,4.209,4.209
			v23.916h1.103c1.279,0,2.316-1.037,2.316-2.316V15.96C48.544,14.681,47.507,13.644,46.228,13.644z"/>
		<path fill="#5F6062" d="M40.915,18.89H18.719c-1.279,0-2.316,1.037-2.316,2.316v26.846c0,1.279,1.037,2.316,2.316,2.316h22.196
			c1.279,0,2.316-1.037,2.316-2.316V21.206C43.232,19.927,42.195,18.89,40.915,18.89z M33.646,40.162
			c0,0.512-0.415,0.926-0.926,0.926h-9.385c-0.512,0-0.926-0.415-0.926-0.926l0,0c0-0.512,0.415-0.926,0.926-0.926h9.385
			C33.231,39.235,33.646,39.65,33.646,40.162L33.646,40.162z M38.741,34.742c0,0.512-0.415,0.926-0.926,0.926H23.334
			c-0.512,0-0.926-0.415-0.926-0.926l0,0c0-0.512,0.415-0.926,0.926-0.926h14.481C38.326,33.815,38.741,34.23,38.741,34.742
			L38.741,34.742z M35.962,29.369c0,0.512-0.415,0.926-0.926,0.926H23.334c-0.512,0-0.926-0.415-0.926-0.926l0,0
			c0-0.512,0.415-0.926,0.926-0.926h11.701C35.547,28.442,35.962,28.857,35.962,29.369L35.962,29.369z"/>

</svg>
