<?xml version="1.0" encoding="utf-8"?>
<!-- Generator: Adobe Illustrator 19.2.1, SVG Export Plug-In . SVG Version: 6.00 Build 0)  -->
<svg version="1.1" id="Layer_1" xmlns="http://www.w3.org/2000/svg" xmlns:xlink="http://www.w3.org/1999/xlink" x="0px" y="0px"
	 viewBox="0 0 64.6 64.6" style="enable-background:new 0 0 64.6 64.6;" xml:space="preserve">
<g id="Layer_2" class="st0">
</g>
<g id="icons">
	<path class="st1" d="M42.4,49.1H20.2c-1,0-1.9-0.4-1.9-1.3V17.1c0-1,0.9-2,1.9-2h22.2c1.1,0,2,0.9,2,2s-0.9,2-2,2H23.5
		c-0.6,0-1.2,0.8-1.2,1.3v24.1c0,0.6,0.6,0.6,1.2,0.6h18.9c1.1,0,2,0.9,2,2C44.4,48.2,43.5,49.1,42.4,49.1z M50.3,33.3l-7.6,7.6
		c-0.8,0.8-2.1,0.8-2.8,0s-0.8-2.2,0-3l3.6-3.8H28.1c-1.1,0-2-0.9-2-2s0.9-2,2-2h15.4l-3.7-3.5c-0.8-0.8-0.8-2,0-2.8s2.1-0.7,2.8,0
		l7.6,7.6C50.8,32,50.8,32.8,50.3,33.3z M32.3,0C14.5,0,0,14.5,0,32.3s14.5,32.3,32.3,32.3s32.3-14.4,32.3-32.3S50.2,0,32.3,0z
		 M32.3,62.7c-16.7,0-30.4-13.6-30.4-30.4S15.6,2,32.3,2s30.4,13.6,30.4,30.4S49.1,62.7,32.3,62.7z"/>
</g>
</svg>
