
<svg xmlns="http://www.w3.org/2000/svg" xmlns:xlink="http://www.w3.org/1999/xlink" x="0px" y="0px"
	 width="64.628px" height="64.628px" viewBox="0 0 64.628 64.628" >
	<path fill="#5F6062" d="M32.314,0C14.467,0,0,14.467,0,32.314s14.467,32.314,32.314,32.314S64.628,50.16,64.628,32.314
		S50.16,0,32.314,0z M32.314,62.689c-16.749,0-30.375-13.626-30.375-30.375S15.565,1.939,32.314,1.939s30.375,13.626,30.375,30.375
		S49.063,62.689,32.314,62.689z"/>
	<path fill="#5F6062" d="M45.242,13.902H20.098c-1.449,0-2.624,1.175-2.624,2.624v30.412c0,1.449,1.175,2.624,2.624,2.624h25.145
		c1.449,0,2.624-1.175,2.624-2.624V16.525C47.866,15.076,46.691,13.902,45.242,13.902z M40.68,37.999c0,0.58-0.47,1.05-1.05,1.05
		h-9.583c-0.58,0-1.049-0.47-1.049-1.05l0,0c0-0.58,0.47-1.05,1.049-1.05h9.583C40.21,36.949,40.68,37.419,40.68,37.999
		L40.68,37.999z M40.68,31.859c0,0.58-0.47,1.05-1.05,1.05h-9.583c-0.58,0-1.049-0.47-1.049-1.05l0,0c0-0.58,0.47-1.05,1.049-1.05
		h9.583C40.21,30.81,40.68,31.28,40.68,31.859L40.68,31.859z M40.68,25.772c0,0.58-0.47,1.05-1.05,1.05h-9.583
		c-0.58,0-1.049-0.47-1.049-1.05l0,0c0-0.58,0.47-1.05,1.049-1.05h9.583C40.21,24.723,40.68,25.193,40.68,25.772L40.68,25.772z
		 M26.886,25.74c0,0.713-0.578,1.291-1.291,1.291s-1.291-0.578-1.291-1.291s0.578-1.291,1.291-1.291S26.886,25.027,26.886,25.74z
		 M26.886,31.88c0,0.713-0.578,1.291-1.291,1.291s-1.291-0.578-1.291-1.291c0-0.713,0.578-1.291,1.291-1.291
		S26.886,31.167,26.886,31.88z M26.886,38.072c0,0.713-0.578,1.291-1.291,1.291s-1.291-0.578-1.291-1.291s0.578-1.291,1.291-1.291
		S26.886,37.359,26.886,38.072z"/>

</svg>
