<?xml version="1.0" encoding="utf-8"?>
<!-- Generator: Adobe Illustrator 19.2.1, SVG Export Plug-In . SVG Version: 6.00 Build 0)  -->
<svg version="1.1" id="Layer_1" xmlns="http://www.w3.org/2000/svg" xmlns:xlink="http://www.w3.org/1999/xlink" x="0px" y="0px"
	 viewBox="0 0 64.6 64.6" enable-background="new 0 0 64.6 64.6" xml:space="preserve">
<path fill="#5F6062" d="M55.2,9.5C42.5-3.2,22.1-3.2,9.5,9.5s-12.6,33.1,0,45.7s33.1,12.6,45.7,0S67.8,22.1,55.2,9.5z M10.8,53.8
	C-1,41.9-1,22.7,10.8,10.8s31.1-11.8,43,0s11.8,31.1,0,43S22.7,65.6,10.8,53.8z"/>
<path fill="#5F6062" d="M54,32.3C54,31,53,30,51.7,30l-17,0l0-17c0-1.3-1.1-2.4-2.4-2.4C31,10.6,30,11.7,30,13v17H13
	c-1.3,0-2.4,1.1-2.4,2.4c0,1.3,1.1,2.4,2.4,2.4h17v17C30,53,31,54,32.3,54c1.3,0,2.4-1.1,2.4-2.4v-17h17C53,34.7,54,33.6,54,32.3z"
	/>
</svg>
