
<svg  xmlns="http://www.w3.org/2000/svg" x="0px" y="0px"
	 width="64.628px" height="64.628px" viewBox="0 0 64.628 64.628" >

	<path fill="#5F6062" d="M32.314,0C14.467,0,0,14.467,0,32.314s14.467,32.314,32.314,32.314S64.628,50.16,64.628,32.314
		S50.16,0,32.314,0z M32.314,62.689c-16.749,0-30.375-13.626-30.375-30.375S15.565,1.939,32.314,1.939s30.375,13.626,30.375,30.375
		S49.063,62.689,32.314,62.689z"/>
	<path fill="#5F6062" d="M33.739,12.039c-0.647-1.073-2.203-1.073-2.85,0L13.55,40.797c-0.669,1.109,0.13,2.523,1.425,2.523h34.678
		c1.295,0,2.093-1.414,1.425-2.523L33.739,12.039z M34.003,37.348c0,0.933-0.756,1.69-1.69,1.69s-1.69-0.756-1.69-1.69v-0.04
		c0-0.933,0.756-1.689,1.69-1.689s1.69,0.756,1.69,1.689V37.348z M33.725,32.154c-0.045,0.753-0.669,1.34-1.423,1.34
		c-0.754,0-1.378-0.587-1.423-1.34l-0.589-9.812c-0.049-0.819,0.602-1.511,1.423-1.511h1.178c0.821,0,1.472,0.691,1.423,1.511
		L33.725,32.154z"/>

</svg>
