
<svg xmlns="http://www.w3.org/2000/svg" x="0px" y="0px"
	 width="64.628px" height="64.628px" viewBox="0 0 64.628 64.628">

	<path fill="#5F6062" d="M32.314,0C14.467,0,0,14.467,0,32.314s14.467,32.314,32.314,32.314S64.628,50.16,64.628,32.314
		S50.16,0,32.314,0z M32.314,62.689c-16.749,0-30.375-13.626-30.375-30.375S15.565,1.939,32.314,1.939s30.375,13.626,30.375,30.375
		S49.063,62.689,32.314,62.689z"/>
	<path fill="#5F6062" d="M47.799,16.489H16.828c-1.263,0-2.287,1.024-2.287,2.287v23.093c0,1.263,1.024,2.287,2.287,2.287h30.971
		c1.263,0,2.287-1.024,2.287-2.287V18.776C50.087,17.513,49.063,16.489,47.799,16.489z M29.161,34.346
		c0,0.544-0.458,1.002-1.002,1.002h-8.047c-0.544,0-1.002-0.458-1.002-1.002v-8.047c0-0.544,0.458-1.002,1.002-1.002h8.047
		c0.544,0,1.002,0.458,1.002,1.002V34.346z M44.302,32.363h-9.535c-0.589,0-1.067-0.478-1.067-1.067
		c0-0.589,0.478-1.067,1.067-1.067h9.535c0.589,0,1.067,0.478,1.067,1.067C45.369,31.885,44.891,32.363,44.302,32.363z
		 M44.302,27.383h-9.535c-0.589,0-1.067-0.478-1.067-1.067c0-0.589,0.478-1.067,1.067-1.067h9.535c0.589,0,1.067,0.478,1.067,1.067
		C45.369,26.906,44.891,27.383,44.302,27.383z"/>

</svg>
