<?xml version="1.0" encoding="utf-8"?>
<!-- Generator: Adobe Illustrator 19.2.1, SVG Export Plug-In . SVG Version: 6.00 Build 0)  -->
<svg version="1.1" id="icons" xmlns="http://www.w3.org/2000/svg" xmlns:xlink="http://www.w3.org/1999/xlink" x="0px" y="0px"
	 viewBox="0 0 64.6 64.6" style="enable-background:new 0 0 64.6 64.6;" xml:space="preserve">
<g>
	<path class="st0" d="M32.3,0C14.5,0,0,14.5,0,32.3s14.5,32.3,32.3,32.3s32.3-14.4,32.3-32.3C64.6,14.5,50.2,0,32.3,0z M32.3,62.7
		c-16.7,0-30.4-13.6-30.4-30.4S15.6,2,32.3,2s30.4,13.6,30.4,30.3S49.1,62.7,32.3,62.7z"/>
	<path class="st0" d="M45.8,23.6v-8.5c0-0.4-0.3-0.7-0.7-0.7h-3.3c-0.4,0-0.7,0.3-0.7,0.7v4.4l-8-7c-0.5-0.4-1.2-0.4-1.7,0l-18.1,16
		c-0.5,0.5-0.6,1.3-0.1,1.8s1.3,0.6,1.8,0.1l1.5-1.3v14.2c0,0.8,0.6,1.4,1.4,1.4h17.7l1.1-2.4l-2.2-7.4l5.8-4.1L37.6,25l4.6,5.8
		l-5.6,4.4l2.4,6.9l-1,2.6h8.6c0.8,0,1.4-0.6,1.4-1.4V29l1.5,1.3c0.2,0.2,0.5,0.3,0.8,0.3c0.4,0,0.7-0.1,1-0.4
		c0.5-0.5,0.4-1.3-0.1-1.8L45.8,23.6z M28.8,41.5c0,0.4-0.3,0.7-0.7,0.7h-5.6c-0.4,0-0.7-0.3-0.7-0.7v-12c0-0.4,0.3-0.7,0.7-0.7h5.6
		c0.4,0,0.7,0.3,0.7,0.7V41.5z"/>
	<path class="st0" d="M15.1,47c0,0.7,0.6,1.2,1.2,1.2H37l1.1-2.5H16.3C15.6,45.8,15.1,46.3,15.1,47z"/>
	<path class="st0" d="M48.2,45.8h-7.7l-1,2.5h8.7c0.7,0,1.2-0.6,1.2-1.2S48.8,45.8,48.2,45.8z"/>
</g>
</svg>
