
<svg xmlns="http://www.w3.org/2000/svg" x="0px" y="0px"
	 width="64.628px" height="64.628px" viewBox="0 0 64.628 64.628">
	<path fill="#5F6062" d="M32.314,0C14.467,0,0,14.467,0,32.314s14.467,32.314,32.314,32.314S64.628,50.16,64.628,32.314
		S50.16,0,32.314,0z M32.314,62.689c-16.749,0-30.375-13.626-30.375-30.375S15.565,1.939,32.314,1.939s30.375,13.626,30.375,30.375
		S49.063,62.689,32.314,62.689z"/>
	<path fill="#5F6062" d="M15.822,38.195v1.284c0,0.368,0.299,0.667,0.667,0.667h31.65c0.368,0,0.667-0.298,0.667-0.667v-1.284
		c0-0.368-0.298-0.667-0.667-0.667h-31.65C16.121,37.528,15.822,37.826,15.822,38.195z"/>
	<path fill="#5F6062" d="M49.448,41.455H15.18c-0.368,0-0.667,0.298-0.667,0.667v1.284c0,0.368,0.299,0.667,0.667,0.667h34.268
		c0.368,0,0.667-0.298,0.667-0.667v-1.284C50.115,41.753,49.816,41.455,49.448,41.455z"/>
	<path fill="#5F6062" d="M17.814,34.197l-0.031,0.012c-0.393,0.154-0.652,0.534-0.652,0.956c0,0.567,0.46,1.027,1.027,1.027h4.221
		c0.567,0,1.027-0.46,1.027-1.027c0-0.423-0.259-0.802-0.652-0.956l-0.031-0.012c-0.393-0.154-0.652-0.534-0.652-0.956v-4.934
		c0-0.423,0.259-0.802,0.652-0.956l0.031-0.012c0.393-0.154,0.652-0.534,0.652-0.956c0-0.567-0.46-1.027-1.027-1.027h-4.221
		c-0.567,0-1.027,0.46-1.027,1.027c0,0.423,0.259,0.802,0.652,0.956l0.031,0.012c0.393,0.154,0.652,0.534,0.652,0.956v4.934
		C18.466,33.664,18.207,34.043,17.814,34.197z"/>
	<path fill="#5F6062" d="M29.833,34.197l-0.031,0.012c-0.394,0.154-0.652,0.534-0.652,0.956c0,0.567,0.46,1.027,1.027,1.027h4.221
		c0.567,0,1.027-0.46,1.027-1.027c0-0.423-0.259-0.802-0.652-0.956l-0.031-0.012c-0.394-0.154-0.652-0.534-0.652-0.956v-4.934
		c0-0.423,0.259-0.802,0.652-0.956l0.031-0.012c0.394-0.154,0.652-0.534,0.652-0.956c0-0.567-0.46-1.027-1.027-1.027h-4.221
		c-0.567,0-1.027,0.46-1.027,1.027c0,0.423,0.259,0.802,0.652,0.956l0.031,0.012c0.394,0.154,0.652,0.534,0.652,0.956v4.934
		C30.485,33.664,30.226,34.043,29.833,34.197z"/>
	<path fill="#5F6062" d="M41.904,34.197l-0.031,0.012c-0.393,0.154-0.652,0.534-0.652,0.956c0,0.567,0.46,1.027,1.027,1.027h4.221
		c0.567,0,1.027-0.46,1.027-1.027c0-0.423-0.259-0.802-0.652-0.956l-0.031-0.012c-0.393-0.154-0.652-0.534-0.652-0.956v-4.934
		c0-0.423,0.259-0.802,0.652-0.956l0.031-0.012c0.393-0.154,0.652-0.534,0.652-0.956c0-0.567-0.46-1.027-1.027-1.027h-4.221
		c-0.567,0-1.027,0.46-1.027,1.027c0,0.423,0.259,0.802,0.652,0.956l0.031,0.012c0.393,0.154,0.652,0.534,0.652,0.956v4.934
		C42.557,33.664,42.298,34.043,41.904,34.197z"/>
	<path fill="#5F6062" d="M15.613,24.021h33.402c0.578,0,1.047-0.469,1.047-1.047v-0.525c0-0.028,0.003-0.056,0.006-0.084
		c0.023-0.209-0.073-0.431-0.314-0.535l-17.26-5.673c-0.132-0.057-0.282-0.057-0.414,0l-17.113,5.657
		c-0.043,0.014-0.085,0.031-0.123,0.054c-0.115,0.07-0.186,0.171-0.22,0.282c-0.037,0.072-0.058,0.153-0.058,0.24v0.583
		C14.566,23.552,15.034,24.021,15.613,24.021z"/>
</svg>
