
<svg  xmlns="http://www.w3.org/2000/svg"  x="0px" y="0px"
	 width="64.628px" height="64.628px" viewBox="0 0 64.628 64.628" >

	<path fill="#5F6062" d="M32.314,0C14.467,0,0,14.467,0,32.314C0,50.16,14.467,64.628,32.314,64.628S64.628,50.16,64.628,32.314
		C64.628,14.467,50.16,0,32.314,0z M32.314,62.689c-16.749,0-30.375-13.626-30.375-30.375S15.565,1.939,32.314,1.939
		s30.375,13.626,30.375,30.375S49.063,62.689,32.314,62.689z"/>
	<path fill="#5F6062" d="M19.012,31.762c-2.452,0-4.44,1.988-4.44,4.44c0,2.452,1.988,4.44,4.44,4.44s4.44-1.988,4.44-4.44
		C23.452,33.75,21.464,31.762,19.012,31.762z M19.012,37.958c-0.968,0-1.755-0.788-1.755-1.756c0-0.968,0.787-1.756,1.755-1.756
		c0.968,0,1.756,0.788,1.756,1.756C20.768,37.17,19.98,37.958,19.012,37.958z"/>
	<path fill="#5F6062" d="M54.122,31.35v-5.46c0-0.961-0.779-1.74-1.74-1.74H36.759l-0.011-4.809
		c-0.084-0.57-0.572-0.992-1.148-0.992h-5.896c-1.441,0-2.831,0.537-3.898,1.505l-4.733,4.296h-5.93
		c-2.243,0-4.061,1.818-4.061,4.061v3.14c-0.767,0-1.389,0.622-1.389,1.389v1.978c0,0.767,0.622,1.389,1.389,1.389h2.04
		c0.051-3.204,2.673-5.795,5.889-5.795c3.216,0,5.838,2.591,5.889,5.795h14.732c0.051-3.204,2.673-5.795,5.889-5.795
		c3.216,0,5.838,2.591,5.889,5.795h1.782c0.961,0,1.74-0.779,1.74-1.74v-2.204C54.934,31.714,54.57,31.35,54.122,31.35z
		 M24.095,24.15l3.076-2.792c0.695-0.631,1.595-0.978,2.534-0.978h5.144l0.032,3.77H24.095z"/>
	<path fill="#5F6062" d="M45.522,31.762c-2.452,0-4.44,1.988-4.44,4.44c0,2.452,1.988,4.44,4.44,4.44c2.452,0,4.44-1.988,4.44-4.44
		C49.962,33.75,47.974,31.762,45.522,31.762z M45.522,37.958c-0.968,0-1.756-0.788-1.756-1.756c0-0.968,0.788-1.756,1.756-1.756
		c0.968,0,1.755,0.788,1.755,1.756C47.277,37.17,46.49,37.958,45.522,37.958z"/>

</svg>
