
<svg xmlns="http://www.w3.org/2000/svg"  x="0px" y="0px"
	 width="64.628px" height="64.628px" viewBox="0 0 64.628 64.628">

	<path fill="#5F6062" d="M32.314,0C14.467,0,0,14.467,0,32.314C0,50.16,14.467,64.628,32.314,64.628S64.628,50.16,64.628,32.314
		C64.628,14.467,50.16,0,32.314,0z M32.314,62.689c-16.749,0-30.375-13.626-30.375-30.375S15.565,1.939,32.314,1.939
		c16.749,0,30.375,13.626,30.375,30.375S49.063,62.689,32.314,62.689z"/>
	<path fill="#5F6062" d="M48.85,31.048h-6.13c0.946,0.373,1.643,1.311,1.643,2.366c0,1.366-1.171,2.537-2.537,2.537
		c-1.368,0-2.54-1.171-2.54-2.537c0-1.056,0.698-1.993,1.645-2.366h-2.779c-1.646,0-2.984-1.337-2.984-2.982V26.71H19.452
		c-0.468,0-0.792-0.465-0.631-0.904l1.995-5.422c0.365-0.991,1.309-1.65,2.366-1.65h11.987v-2.325c0-0.066,0.003-0.131,0.007-0.195
		H23.181c-2.113,0-4.001,1.317-4.731,3.3l-3.385,9.2c-1.042,1.094-2.097,2.427-2.137,3.374h-0.004v10.13
		c0,0.05,0.003,0.1,0.01,0.148v2.845c0,1.476,1.196,2.672,2.672,2.672h0.784c1.476,0,2.672-1.196,2.672-2.672v-1.817h24.054v1.817
		c0,1.476,1.196,2.672,2.672,2.672h0.784c1.476,0,2.672-1.196,2.672-2.672v-2.993v0v-10.13h-0.004
		C49.223,31.796,49.077,31.438,48.85,31.048z M20.15,35.951c-1.367,0-2.537-1.171-2.537-2.537c0-1.368,1.17-2.538,2.537-2.538
		c1.368,0,2.537,1.17,2.537,2.538C22.687,34.78,21.518,35.951,20.15,35.951z"/>
	<path fill="#5F6062" d="M41.063,13.915c0-1.869,1.524-3.386,3.396-3.386h0.087c1.875,0,3.397,1.52,3.397,3.386v0.015h1.787v-0.002
		v-0.015c0-1.38-0.539-2.677-1.518-3.653c-0.979-0.976-2.28-1.511-3.664-1.511h-0.087c-1.384,0-2.685,0.538-3.664,1.513
		c-0.979,0.976-1.517,2.273-1.517,3.653v0.015h1.783V13.915z"/>
	<path fill="#5F6062" d="M50.862,15.297H38.153c-0.615,0-1.114,0.498-1.114,1.111v11.658c0,0.614,0.499,1.111,1.114,1.111h12.709
		c0.615,0,1.115-0.498,1.115-1.111V16.408C51.977,15.795,51.477,15.297,50.862,15.297z M45.398,22.868v2.48
		c0,0.307-0.249,0.556-0.557,0.556h-0.668c-0.308,0-0.557-0.249-0.557-0.556v-2.48c-0.749-0.34-1.268-1.098-1.257-1.975
		c0.005-0.365,0.101-0.709,0.268-1.009c0.363-0.651,1.056-1.098,1.849-1.109c0.825-0.011,1.542,0.44,1.912,1.109
		c0.169,0.307,0.268,0.66,0.268,1.033C46.655,21.783,46.14,22.53,45.398,22.868z"/>

</svg>
