
<svg  xmlns="http://www.w3.org/2000/svg" x="0px" y="0px"
	 width="64.628px" height="64.628px" viewBox="0 0 64.628 64.628" >

	<path fill="#5F6062" d="M32.314,0C14.467,0,0,14.467,0,32.314s14.467,32.314,32.314,32.314S64.628,50.16,64.628,32.314
		S50.16,0,32.314,0z M32.314,62.689c-16.749,0-30.375-13.626-30.375-30.375S15.565,1.939,32.314,1.939
		c16.749,0,30.375,13.626,30.375,30.375S49.063,62.689,32.314,62.689z"/>
	<path fill="#5F6062" d="M48.756,24.768l-2.867-7.792c-0.606-1.648-2.176-2.743-3.933-2.743h-13.14
		c-1.756,0-3.326,1.095-3.933,2.743L24.56,17.86h2.232l0.059-0.159c0.303-0.824,1.088-1.372,1.966-1.372h13.14
		c0.878,0,1.663,0.548,1.966,1.372l1.658,4.507c0.134,0.365-0.136,0.752-0.524,0.752h-3.311l1.408,3.827
		c0.337-0.229,0.738-0.364,1.162-0.364c1.135,0,2.109,0.973,2.109,2.11c0,0.866-0.567,1.637-1.339,1.955
		c0.136,0.197,0.256,0.386,0.359,0.569c0,0,0.52,0.857,0.52,1.63c0,0.456,0,4.175,0,7.146c0.406,0.447,0.993,0.728,1.645,0.728
		h0.651c1.227,0,2.221-0.994,2.221-2.221v-2.488v0v-8.421h-0.004C50.442,26.767,49.602,25.692,48.756,24.768z"/>
	<path fill="#5F6062" d="M42.61,30.024l-2.867-7.792c-0.607-1.648-2.176-2.743-3.933-2.743h-13.14c-1.756,0-3.326,1.095-3.933,2.743
		l-2.814,7.648c-0.866,0.91-1.743,2.018-1.776,2.805h-0.003v8.421c0,0.042,0.003,0.083,0.008,0.123v2.365
		c0,1.227,0.995,2.221,2.221,2.221h0.651c1.227,0,2.221-0.994,2.221-2.221v-1.511h19.996v1.511c0,1.227,0.995,2.221,2.221,2.221
		h0.651c1.227,0,2.221-0.994,2.221-2.221v-2.488v0v-8.421h-0.004C44.295,32.023,43.456,30.948,42.61,30.024z M19.046,27.463
		l1.658-4.507c0.303-0.824,1.088-1.372,1.966-1.372h13.14c0.878,0,1.663,0.548,1.966,1.372l1.658,4.507
		c0.134,0.365-0.136,0.752-0.524,0.752H19.57C19.182,28.215,18.912,27.828,19.046,27.463z M20.151,35.897
		c-1.136,0-2.109-0.974-2.109-2.109c0-1.137,0.973-2.11,2.109-2.11c1.137,0,2.109,0.973,2.109,2.11
		C22.26,34.923,21.288,35.897,20.151,35.897z M38.17,35.897c-1.137,0-2.111-0.974-2.111-2.109c0-1.137,0.974-2.11,2.111-2.11
		c1.135,0,2.109,0.973,2.109,2.11C40.279,34.923,39.305,35.897,38.17,35.897z"/>

</svg>
