
<svg  xmlns="http://www.w3.org/2000/svg"  x="0px" y="0px"
	 width="64.628px" height="64.628px" viewBox="0 0 64.628 64.628" >
	<path fill="#5F6062" d="M32.314,0C14.467,0,0,14.467,0,32.314C0,50.16,14.467,64.628,32.314,64.628S64.628,50.16,64.628,32.314
		C64.628,14.467,50.16,0,32.314,0z M32.314,62.689c-16.749,0-30.375-13.626-30.375-30.375S15.565,1.939,32.314,1.939
		s30.375,13.626,30.375,30.375S49.063,62.689,32.314,62.689z"/>
	<path fill="#5F6062" d="M32.314,16.345c-8.819,0-15.969,7.149-15.969,15.969c0,8.819,7.149,15.969,15.969,15.969
		s15.969-7.15,15.969-15.969C48.283,23.495,41.133,16.345,32.314,16.345z M43.559,37.063c-0.614,1.453-1.495,2.758-2.617,3.88
		c-1.122,1.122-2.427,2.002-3.88,2.617c-1.502,0.635-3.1,0.957-4.749,0.957c-1.649,0-3.247-0.322-4.749-0.957
		c-1.453-0.614-2.758-1.495-3.88-2.617c-1.122-1.122-2.002-2.427-2.617-3.88c-0.635-1.502-0.957-3.1-0.957-4.749
		c0-1.649,0.322-3.247,0.957-4.749c0.614-1.453,1.495-2.758,2.617-3.88c1.122-1.122,2.427-2.002,3.88-2.617
		c1.502-0.635,3.1-0.957,4.749-0.957c1.649,0,3.247,0.322,4.749,0.957c1.453,0.614,2.758,1.495,3.88,2.617
		c1.122,1.122,2.002,2.427,2.617,3.88c0.635,1.502,0.957,3.1,0.957,4.749C44.517,33.963,44.195,35.561,43.559,37.063z"/>
	<path fill="#5F6062" d="M28.092,22.897c-0.007,0.003-0.015,0.006-0.022,0.01c-0.018,0.008-0.036,0.016-0.055,0.024l0,0
		c-0.002,0.001-0.003,0.001-0.003,0.001c-0.003,0.001-0.005,0.002-0.005,0.002l-0.002,0.001c-0.002,0.001-0.004,0.002-0.006,0.002
		c-0.418,0.186-0.684,0.573-0.733,0.997c-0.025,0.215,0.005,0.44,0.1,0.653c0.281,0.631,1.019,0.914,1.65,0.634
		c0.023-0.01,0.046-0.02,0.07-0.031c0.424-0.184,0.694-0.574,0.744-1.002c0.025-0.212-0.004-0.433-0.095-0.642
		C29.461,22.913,28.725,22.622,28.092,22.897z"/>
	<path fill="#5F6062" d="M23.957,28.326c-0.654-0.219-1.361,0.133-1.581,0.786c-0.006,0.019-0.013,0.038-0.019,0.057
		c0,0.001,0,0.001-0.001,0.002c0,0.001-0.001,0.002-0.001,0.003c0,0.001-0.001,0.002-0.001,0.004c0,0.001-0.001,0.002-0.001,0.002
		c0,0.001-0.001,0.002-0.001,0.003c0,0.001-0.001,0.003-0.001,0.004c0,0.001,0,0.001,0,0.001c-0.001,0.002-0.001,0.003-0.001,0.004
		v0c-0.002,0.006-0.004,0.012-0.006,0.018c-0.026,0.079-0.043,0.159-0.052,0.239c-0.068,0.58,0.279,1.147,0.856,1.334
		c0.657,0.213,1.362-0.147,1.574-0.803c0.008-0.024,0.016-0.048,0.024-0.072c0.028-0.084,0.047-0.168,0.057-0.252
		C24.869,29.081,24.528,28.517,23.957,28.326z"/>
	<path fill="#5F6062" d="M32.218,24.545c0.025,0,0.051,0,0.076,0.001c0.645,0.008,1.183-0.475,1.257-1.102
		c0.005-0.043,0.008-0.088,0.009-0.132c0.008-0.689-0.543-1.255-1.232-1.265c-0.029,0-0.057-0.001-0.086-0.001l-0.003,0h-0.001
		l-0.012,0c-0.641-0.002-1.171,0.48-1.244,1.102c-0.006,0.047-0.009,0.095-0.009,0.144C30.969,23.982,31.528,24.543,32.218,24.545z"
		/>
	<path fill="#5F6062" d="M24.573,25.398c-0.002,0.002-0.004,0.004-0.006,0.006c-0.001,0.001-0.002,0.002-0.003,0.003l-0.001,0.001
		c-0.011,0.012-0.022,0.024-0.033,0.037v0c-0.001,0.001-0.003,0.003-0.004,0.004v0c-0.001,0.001-0.002,0.003-0.003,0.004
		c-0.001,0.001-0.001,0.001-0.001,0.001c-0.001,0.001-0.001,0.001-0.001,0.001c-0.006,0.006-0.011,0.012-0.016,0.018
		c-0.18,0.2-0.283,0.441-0.313,0.689c-0.046,0.388,0.091,0.793,0.404,1.075c0.512,0.463,1.302,0.423,1.765-0.09
		c0.017-0.019,0.034-0.038,0.051-0.056c0.185-0.201,0.292-0.447,0.322-0.699c0.045-0.384-0.088-0.784-0.395-1.066
		C25.831,24.858,25.041,24.891,24.573,25.398z"/>
	<path fill="#5F6062" d="M42.1,29.282L42.1,29.282c0-0.001-0.001-0.002-0.001-0.004c-0.001-0.001-0.001-0.003-0.002-0.004v0
		c-0.004-0.012-0.008-0.024-0.012-0.036c-0.212-0.657-0.916-1.017-1.573-0.805c-0.48,0.155-0.802,0.573-0.858,1.044
		c-0.02,0.173-0.005,0.353,0.052,0.529c0.008,0.024,0.015,0.048,0.023,0.072c0.206,0.659,0.906,1.026,1.565,0.821
		c0.486-0.152,0.813-0.573,0.869-1.048c0.02-0.168,0.006-0.343-0.048-0.516C42.111,29.318,42.105,29.3,42.1,29.282z"/>
	<path fill="#5F6062" d="M40.302,26.541c0.04-0.339-0.059-0.694-0.302-0.971c-0.002-0.002-0.004-0.005-0.006-0.007l-0.001-0.001
		c-0.001-0.001-0.002-0.003-0.003-0.004l-0.001-0.002c0,0-0.001-0.001-0.002-0.002c-0.001-0.001-0.002-0.002-0.003-0.003
		l-0.001-0.001c-0.001-0.001-0.003-0.003-0.004-0.004l0,0c-0.011-0.012-0.022-0.025-0.033-0.037l0,0
		c-0.001-0.001-0.002-0.002-0.003-0.003c-0.004-0.004-0.007-0.008-0.011-0.012c-0.461-0.513-1.25-0.555-1.763-0.095
		c-0.236,0.212-0.373,0.492-0.407,0.784c-0.041,0.344,0.061,0.702,0.31,0.981c0.017,0.019,0.034,0.038,0.05,0.057
		c0.456,0.518,1.245,0.569,1.764,0.114C40.127,27.121,40.267,26.837,40.302,26.541z"/>
	<path fill="#5F6062" d="M36.54,22.99c-0.023-0.01-0.046-0.021-0.068-0.031l-0.003-0.001c-0.007-0.003-0.014-0.006-0.022-0.01
		c-0.63-0.282-1.369,0.001-1.651,0.631c-0.053,0.119-0.086,0.241-0.101,0.364c-0.062,0.528,0.22,1.058,0.731,1.287
		c0.023,0.01,0.046,0.021,0.069,0.031c0.627,0.288,1.369,0.013,1.657-0.615c0.056-0.122,0.091-0.249,0.106-0.375
		C37.32,23.748,37.044,23.222,36.54,22.99z"/>
	<path fill="#5F6062" d="M33.773,34.291l-1.091-7.252c-0.022-0.187-0.18-0.327-0.368-0.327s-0.346,0.141-0.368,0.327l-1.091,7.252h0
		c-0.031,0.12-0.047,0.247-0.047,0.377c0,0.832,0.675,1.506,1.507,1.506s1.506-0.674,1.506-1.506
		C33.82,34.538,33.804,34.411,33.773,34.291L33.773,34.291z"/>

</svg>
