
<svg xmlns="http://www.w3.org/2000/svg"  x="0px" y="0px" width="64.628px" height="64.628px" viewBox="0 0 64.628 64.628">

	<path fill="#5F6062" d="M32.314,0C14.467,0,0,14.467,0,32.314C0,50.16,14.467,64.628,32.314,64.628S64.628,50.16,64.628,32.314
		C64.628,14.467,50.16,0,32.314,0z M32.314,62.689c-16.749,0-30.375-13.626-30.375-30.375S15.565,1.939,32.314,1.939
		c16.749,0,30.375,13.626,30.375,30.375S49.063,62.689,32.314,62.689z"/>
	<path fill="#5F6062" d="M47.967,30.495c-1.43,0.792-3.058,1.27-4.788,1.339c0.604,0.468,1.004,1.196,1.004,1.993
		c0,1.358-1.165,2.523-2.523,2.523c-1.36,0-2.525-1.165-2.525-2.523c0-0.941,0.557-1.787,1.35-2.22
		c-2.746-0.584-5.109-2.211-6.655-4.446H19.414c-0.465,0-0.788-0.463-0.627-0.899l1.983-5.391c0.363-0.986,1.302-1.641,2.352-1.641
		h8.938c0.146-0.875,0.397-1.715,0.74-2.506h-9.678c-2.1,0-3.978,1.31-4.703,3.281l-3.366,9.147
		c-1.036,1.088-2.085,2.413-2.124,3.355h-0.004v10.072c0,0.05,0.003,0.099,0.01,0.148v2.829c0,1.467,1.189,2.657,2.657,2.657h0.779
		c1.467,0,2.657-1.189,2.657-2.657v-1.807h23.915v1.807c0,1.467,1.189,2.657,2.657,2.657h0.779c1.467,0,2.657-1.189,2.657-2.657
		V42.58v0V32.508H49.03C49.001,31.986,48.556,31.251,47.967,30.495z M20.108,36.349c-1.359,0-2.523-1.165-2.523-2.523
		c0-1.36,1.164-2.524,2.523-2.524c1.36,0,2.523,1.164,2.523,2.524C22.631,35.184,21.469,36.349,20.108,36.349z"/>
	<path fill="#5F6062" d="M42.739,12.053c-4.951,0-8.964,4.013-8.964,8.964c0,4.951,4.013,8.964,8.964,8.964s8.964-4.013,8.964-8.964
		C51.702,16.066,47.689,12.053,42.739,12.053z M48.247,18.447l-6.426,6.475c-0.155,0.156-0.366,0.244-0.586,0.244l-0.006,0
		c-0.222-0.001-0.434-0.092-0.588-0.252l-3.126-3.237c-0.317-0.328-0.308-0.851,0.021-1.167c0.328-0.317,0.851-0.308,1.167,0.02
		l2.54,2.631l5.832-5.877c0.321-0.324,0.844-0.326,1.168-0.004C48.566,17.601,48.568,18.123,48.247,18.447z"/>

</svg>
