
<svg xmlns="http://www.w3.org/2000/svg"  x="0px" y="0px"
	 width="64.628px" height="64.628px" viewBox="0 0 64.628 64.628" >
	<path fill="#5F6062" d="M32.314,0C14.467,0,0,14.467,0,32.314C0,50.16,14.467,64.628,32.314,64.628S64.628,50.16,64.628,32.314
		C64.628,14.467,50.16,0,32.314,0z M32.314,62.689c-16.749,0-30.375-13.626-30.375-30.375S15.565,1.939,32.314,1.939
		s30.375,13.626,30.375,30.375S49.063,62.689,32.314,62.689z"/>
	<path fill="#5F6062" d="M18.379,34.74C15.961,34.74,14,36.7,14,39.118s1.96,4.377,4.378,4.377c2.418,0,4.378-1.96,4.378-4.377
		S20.797,34.74,18.379,34.74z M18.379,40.849c-0.955,0-1.731-0.776-1.731-1.731c0-0.954,0.777-1.731,1.731-1.731
		c0.955,0,1.731,0.776,1.731,1.731C20.11,40.072,19.333,40.849,18.379,40.849z"/>
	<path fill="#5F6062" d="M43.64,30.15l7.447-11.724v5.048c-0.373,0.194-0.635,0.572-0.635,1.022c0,0.449,0.262,0.828,0.635,1.022
		v0.996c0,0.244,0.168,0.44,0.392,0.502c0.026,0.017,0.046,0.04,0.076,0.053c0.273,0.118,0.462,0.376,0.493,0.671
		c0.023,0.219-0.041,0.434-0.18,0.605c-0.139,0.171-0.336,0.278-0.555,0.301c-0.219,0.023-0.434-0.041-0.605-0.179
		c-0.171-0.139-0.278-0.336-0.301-0.555c-0.03-0.291-0.291-0.502-0.582-0.471c-0.291,0.03-0.502,0.291-0.471,0.582
		c0.052,0.5,0.297,0.95,0.688,1.267c0.339,0.274,0.753,0.42,1.183,0.42c0.066,0,0.133-0.004,0.2-0.011
		c0.5-0.052,0.951-0.297,1.268-0.687c0.317-0.391,0.462-0.882,0.41-1.382c-0.064-0.608-0.43-1.132-0.956-1.43v-0.681
		c0.373-0.194,0.635-0.572,0.635-1.022c0-0.449-0.263-0.827-0.635-1.022v-6.715l0.293-0.462l-0.006-0.005
		c0.188-0.235,0.3-0.533,0.3-0.857c0-0.76-0.616-1.375-1.376-1.375c-0.407,0-0.772,0.177-1.024,0.457L34.589,27.792v-7.974
		c0-0.292-0.237-0.529-0.53-0.529h-1.8c-0.292,0-0.529,0.237-0.529,0.529V30.15h-0.919v-3.429v-2.964
		c0-0.585-0.474-1.059-1.059-1.059h-1.059v-1.164c0-0.292-0.237-0.529-0.529-0.529h-1.853c-0.292,0-0.529,0.237-0.529,0.529v1.164
		h-3.839c-0.353,0-0.682,0.176-0.879,0.468l-2.231,3.32c-0.098,0.146-0.263,0.234-0.439,0.234h-3.801
		c-1.462,0-2.647,0.899-2.647,2.361v2.784v0.232v2.17h-1.21c-0.585,0-1.059,0.474-1.059,1.059V37.9c0,0.585,0.474,1.059,1.059,1.059
		h1.21h0.162c0.12,0,0.277,0,0.465,0c0.084-3.129,2.656-5.648,5.806-5.648s5.722,2.519,5.806,5.648c5,0,10.774,0,15.845,0
		c0.084-3.129,2.657-5.648,5.806-5.648c3.15,0,5.722,2.519,5.806,5.648c0.406,0,0.737,0,0.983,0h0.739
		c0.877,0,1.588-0.711,1.588-1.588v-1.958V30.15H43.64z M28.96,27.251h-8.52c0.005-0.008,0.011-0.015,0.016-0.023l1.705-2.538
		c0.131-0.195,0.351-0.313,0.587-0.313h5.505c0.39,0,0.707,0.316,0.707,0.707V27.251z"/>
	<path fill="#5F6062" d="M45.836,34.74c-2.418,0-4.378,1.96-4.378,4.377s1.96,4.377,4.378,4.377s4.378-1.96,4.378-4.377
		S48.254,34.74,45.836,34.74z M45.836,40.849c-0.955,0-1.731-0.776-1.731-1.731c0-0.954,0.777-1.731,1.731-1.731
		c0.955,0,1.731,0.776,1.731,1.731C47.567,40.072,46.79,40.849,45.836,40.849z"/>

</svg>
