

<svg  xmlns="http://www.w3.org/2000/svg" x="0px" y="0px"
	 width="64.628px" height="64.628px" viewBox="0 0 64.628 64.628">

	<path fill="#5F6062" d="M32.314,0C14.467,0,0,14.467,0,32.314s14.467,32.314,32.314,32.314S64.628,50.16,64.628,32.314
		S50.16,0,32.314,0z M32.314,62.689c-16.749,0-30.375-13.626-30.375-30.375S15.565,1.939,32.314,1.939s30.375,13.626,30.375,30.375
		S49.063,62.689,32.314,62.689z"/>
	<path fill="#5F6062" d="M32.762,16.271c-6.011,0-10.888,5.041-10.888,11.26c0,0.481,0.04,0.941,0.095,1.404
		c0.929,8.788,10.092,18.932,10.092,18.932c0.163,0.186,0.314,0.304,0.467,0.393h0.01l0.302,0.097l0.303-0.097h0.01
		c0.152-0.089,0.313-0.207,0.475-0.393c0,0,9.031-10.153,9.941-18.953c0.046-0.451,0.085-0.912,0.085-1.383
		C43.654,21.312,38.778,16.271,32.762,16.271z M32.762,34.78c-3.857,0-6.997-3.256-6.997-7.249c0-3.993,3.14-7.241,6.997-7.241
		c3.862,0,7.002,3.248,7.002,7.241C39.764,31.525,36.624,34.78,32.762,34.78z"/>
</svg>
