
<svg xmlns="http://www.w3.org/2000/svg" x="0px" y="0px" width="64.628px" height="64.628px" viewBox="0 0 64.628 64.628">

	<path fill="#5F6062" d="M32.314,0C14.467,0,0,14.467,0,32.314C0,50.16,14.467,64.628,32.314,64.628S64.628,50.16,64.628,32.314
		C64.628,14.467,50.16,0,32.314,0z M32.314,62.689c-16.749,0-30.375-13.626-30.375-30.375S15.565,1.939,32.314,1.939
		s30.375,13.626,30.375,30.375S49.063,62.689,32.314,62.689z"/>
	<circle fill="#5F6062" cx="32.354" cy="44.024" r="2.486"/>
	<path fill="#5F6062" d="M32.314,15.598c-2.706,0-5.25,1.054-7.164,2.967s-2.967,4.458-2.967,7.164c0,1.143,0.927,2.07,2.07,2.07
		c1.143,0,2.07-0.927,2.07-2.07c0-3.303,2.687-5.99,5.99-5.99s5.99,2.687,5.99,5.99c0,2.593-1.653,4.88-4.113,5.691l-0.081,0.029
		c-0.091,0.034-0.909,0.35-1.735,0.927C30.59,33.624,30.228,35.03,30.243,36v1.943c0,1.143,0.927,2.07,2.07,2.07
		c1.143,0,2.07-0.927,2.07-2.07v-1.864c0.176-0.219,0.707-0.563,1.162-0.746c1.984-0.667,3.689-1.914,4.934-3.608
		c1.285-1.748,1.964-3.821,1.964-5.996c0-2.706-1.054-5.25-2.967-7.164C37.564,16.652,35.02,15.598,32.314,15.598z"/>

</svg>
