<?xml version="1.0" encoding="utf-8"?>
<!-- Generator: Adobe Illustrator 19.2.1, SVG Export Plug-In . SVG Version: 6.00 Build 0)  -->
<svg version="1.1" id="icons" xmlns="http://www.w3.org/2000/svg" xmlns:xlink="http://www.w3.org/1999/xlink" x="0px" y="0px"
	 viewBox="0 0 64.4 64.4" style="enable-background:new 0 0 64.4 64.4;" xml:space="preserve">
<path class="st0" d="M32.2,0.2c-17.7,0-32,14.4-32,32c0,17.7,14.4,32,32,32c17.7,0,32-14.4,32-32C64.2,14.5,49.8,0.2,32.2,0.2
	C32.2,0.2,32.2,0.2,32.2,0.2z M32.2,62.3c-16.6,0-30.1-13.5-30.1-30.1c0-16.6,13.5-30.1,30.1-30.1c16.6,0,30,13.5,30.1,30.1
	C62.3,48.8,48.8,62.3,32.2,62.3C32.2,62.3,32.2,62.3,32.2,62.3z"/>
<circle class="st0" cx="32.2" cy="18.6" r="3"/>
<path class="st0" d="M32.2,26.5c-1.7,0-3,1.3-3,3v15c0,1.7,1.3,3,3,3s3-1.3,3-3v-15C35.2,27.9,33.9,26.5,32.2,26.5z"/>
</svg>
