
<svg xmlns="http://www.w3.org/2000/svg" x="0px" y="0px"
	 width="64.628px" height="64.628px" viewBox="0 0 64.628 64.628" >

	<path fill="#5F6062" d="M32.314,0C14.467,0,0,14.467,0,32.314s14.467,32.314,32.314,32.314S64.628,50.16,64.628,32.314
		S50.16,0,32.314,0z M32.314,62.689c-16.749,0-30.375-13.626-30.375-30.375S15.565,1.939,32.314,1.939s30.375,13.626,30.375,30.375
		S49.063,62.689,32.314,62.689z"/>
	<path fill="#5F6062" d="M37.081,32.619c-0.688-0.942-1.052-2.04-1.22-3.134c0.325-0.374,0.642-0.768,0.946-1.18
		c1.939,0.626,4.261,0.81,6.252-0.648c-2.741-2.77-0.541-6.167-2.518-12.286c-1.683-5.202-8.579-4.947-9.469-3.119
		c-3.658-1.306-6.417,0.442-7.433,5.954c-1.167,6.33,1.096,6.998-1.644,9.767c2.104,1.215,4.032,0.918,5.704,0.246
		c0.33,0.449,0.672,0.881,1.026,1.286c-0.34,2.191-1.475,4.396-4.418,5.327c-2.246,0.709-4.872,1.408-6.424,2.977
		c-1.224,1.24-0.409,9.422-0.409,9.422h9.27h8.463c-1.283-1.774-2.041-3.953-2.041-6.305C33.165,37.587,34.69,34.598,37.081,32.619z
		"/>
	<path fill="#5F6062" d="M43.947,31.997c-4.931,0-8.928,3.997-8.928,8.928s3.997,8.928,8.928,8.928c4.931,0,8.928-3.997,8.928-8.928
		S48.878,31.997,43.947,31.997z M42.342,47.455c-2.477-0.609-4.418-2.593-4.964-5.094c0.315-0.077,0.643-0.119,0.981-0.119
		c2.276,0,4.129,1.852,4.129,4.129C42.487,46.747,42.436,47.11,42.342,47.455z M43.947,42.775c-1.02,0-1.85-0.83-1.85-1.85
		s0.83-1.849,1.85-1.849c1.02,0,1.85,0.83,1.85,1.849S44.967,42.775,43.947,42.775z M45.552,47.455
		c-0.094-0.346-0.145-0.709-0.145-1.084c0-2.276,1.852-4.129,4.129-4.129c0.338,0,0.666,0.042,0.981,0.119
		C49.97,44.862,48.029,46.847,45.552,47.455z M43.947,37.244c-2.436,0-4.693,0.779-6.536,2.101c0.713-2.948,3.372-5.144,6.536-5.144
		c3.164,0,5.823,2.196,6.536,5.144C48.64,38.024,46.383,37.244,43.947,37.244z"/>

</svg>
