<?xml version="1.0" encoding="utf-8"?>
<!-- Generator: Adobe Illustrator 19.2.1, SVG Export Plug-In . SVG Version: 6.00 Build 0)  -->
<svg version="1.1" id="icons" xmlns="http://www.w3.org/2000/svg" xmlns:xlink="http://www.w3.org/1999/xlink" x="0px" y="0px"
	 viewBox="0 0 64.6 64.6" style="enable-background:new 0 0 64.6 64.6;" xml:space="preserve">
<g>
	<path class="st0" d="M32.3,0C14.5,0,0,14.5,0,32.3s14.5,32.3,32.3,32.3s32.3-14.4,32.3-32.3C64.6,14.5,50.2,0,32.3,0z M32.3,62.7
		c-16.7,0-30.4-13.6-30.4-30.4S15.6,2,32.3,2s30.4,13.6,30.4,30.3S49.1,62.7,32.3,62.7z"/>
	<path class="st0" d="M48,24.6c-0.6,1-1.4,1.9-2.4,2.6l-0.9,0.6c-1.2,0.7-2.7,1.1-4.2,1.1c-1.7,0-3.3-0.5-4.6-1.3l-0.3-0.3
		c-2.2-1.6-3.7-4.1-3.7-7c0,0,0,0,0-0.1c0,0,0,0,0-0.1s0-0.3,0-0.4c0-2.4,1-4.8,2.7-6.8l-1.5-1.3c-0.5-0.4-1.2-0.4-1.7,0l-18.1,16
		c-0.5,0.5-0.6,1.3-0.1,1.8s1.3,0.6,1.8,0.1l1.5-1.3v15.5c0,0.8,0.6,1.4,1.4,1.4h28.7c0.8,0,1.4-0.6,1.4-1.4V28.1l1.5,1.3
		c0.2,0.2,0.5,0.3,0.8,0.3c0.4,0,0.7-0.1,1-0.4c0.5-0.5,0.4-1.3-0.1-1.8L48,24.6z M28.8,42c0,0.4-0.3,0.7-0.7,0.7h-5.6
		c-0.4,0-0.7-0.3-0.7-0.7V28.6c0-0.4,0.3-0.7,0.7-0.7h5.6c0.4,0,0.7,0.3,0.7,0.7V42z"/>
	<path class="st0" d="M33.6,20.1c0,2,0.8,3.8,2.2,5.1c0.2-0.2,0.3-0.4,0.5-0.5c2.8-3,3.4-7.9,3.4-7.9c2.8,2.1,2.8,6.1,2.8,5.9
		c0-0.3,2.4-4.5,2.3-3.5c-0.1,0.8-0.8,2.7,0.7,6.1c1.4-1.3,2.2-3.1,2.2-5.1c0-0.4,0-0.9-0.1-1.3c-0.2-0.9-0.5-1.9-1.2-3
		c-2.7-4.6-1.7-5.9-1.6-6.9c0.1-1-2.3,2.2-2.3,2.5s0-2.7-2.8-4.8c0,0-0.5,3.9-3.4,6.9c-1.7,1.8-2.7,4-2.7,6.2
		C33.6,19.9,33.6,20,33.6,20.1z"/>
</g>
</svg>
