
<svg xmlns="http://www.w3.org/2000/svg"  x="0px" y="0px"
	 width="64.628px" height="64.628px" viewBox="0 0 64.628 64.628" >

	<path fill="#5F6062" d="M32.314,0C14.467,0,0,14.467,0,32.314C0,50.16,14.467,64.628,32.314,64.628S64.628,50.16,64.628,32.314
		C64.628,14.467,50.16,0,32.314,0z M32.314,62.689c-16.749,0-30.375-13.626-30.375-30.375S15.565,1.939,32.314,1.939
		s30.375,13.626,30.375,30.375S49.063,62.689,32.314,62.689z"/>
	<path fill="#5F6062" d="M47.923,24.546v0.988c0,1.441-1.173,2.612-2.615,2.612H33.899c-1.442,0-2.615-1.172-2.615-2.612V15.07
		c0-1.236,0.864-2.274,2.021-2.544c0.013-0.262,0.065-0.515,0.109-0.77l-0.226-0.2c-0.484-0.427-1.21-0.427-1.694,0L13.359,27.541
		c-0.531,0.468-0.582,1.277-0.114,1.808c0.468,0.531,1.278,0.582,1.808,0.114l1.482-1.307v15.558c0,0.772,0.626,1.398,1.398,1.398
		h28.782c0.772,0,1.398-0.626,1.398-1.398V28.13l1.512,1.333c0.244,0.215,0.546,0.32,0.847,0.32c0.355,0,0.708-0.147,0.962-0.434
		c0.468-0.531,0.417-1.34-0.114-1.808L47.923,24.546z M28.779,42.063c0,0.385-0.312,0.696-0.696,0.696h-5.641
		c-0.385,0-0.696-0.312-0.696-0.696V28.668c0-0.385,0.312-0.696,0.696-0.696h5.641c0.385,0,0.696,0.312,0.696,0.696V42.063z"/>
	<path fill="#5F6062" d="M36.512,12.832c0-1.678,1.368-3.04,3.048-3.04h0.078c1.683,0,3.049,1.365,3.049,3.04v0.013h1.604v-0.002
		V12.83c0-1.239-0.484-2.403-1.362-3.279c-0.878-0.876-2.046-1.356-3.289-1.356h-0.078c-1.242,0-2.41,0.483-3.289,1.358
		c-0.878,0.876-1.362,2.04-1.362,3.279v0.013h1.6V12.832z"/>
	<path fill="#5F6062" d="M32.899,15.07v10.464c0,0.551,0.448,0.997,1,0.997h11.408c0.552,0,1-0.447,1-0.997V15.07
		c0-0.55-0.448-0.997-1-0.997H33.899C33.347,14.073,32.899,14.52,32.899,15.07z M37.914,18.19c0.326-0.584,0.948-0.986,1.66-0.995
		c0.74-0.01,1.384,0.395,1.716,0.995c0.152,0.275,0.24,0.592,0.24,0.927c0,0.778-0.462,1.448-1.128,1.751v2.226
		c0,0.275-0.224,0.499-0.5,0.499h-0.6c-0.276,0-0.5-0.223-0.5-0.499v-2.226c-0.672-0.305-1.138-0.986-1.128-1.773
		C37.678,18.768,37.764,18.459,37.914,18.19z"/>

</svg>
