
<svg xmlns="http://www.w3.org/2000/svg"  x="0px" y="0px"
	 width="64.628px" height="64.628px" viewBox="0 0 64.628 64.628">

	<path fill="#5F6062" d="M32.314,0C14.467,0,0,14.467,0,32.314C0,50.16,14.467,64.628,32.314,64.628S64.628,50.16,64.628,32.314
		C64.628,14.467,50.16,0,32.314,0z M32.314,62.689c-16.749,0-30.375-13.626-30.375-30.375S15.565,1.939,32.314,1.939
		s30.375,13.626,30.375,30.375S49.063,62.689,32.314,62.689z"/>
	<path fill="#5F6062" d="M37.227,32.478l-0.02-2.424c0,0,1.364-1.053,1.788-4.344c0.857,0.251,1.756-1.277,1.801-2.08
		c0.048-0.774-0.115-2.915-1.156-2.7c0.209-1.618,0.366-3.069,0.289-3.836c-0.269-2.822-3.043-5.784-7.303-5.784
		c-4.257,0-7.027,2.963-7.303,5.784c-0.071,0.767,0.083,2.218,0.295,3.836c-1.043-0.215-1.21,1.926-1.165,2.7
		c0.055,0.803,0.947,2.331,1.804,2.08c0.427,3.291,1.795,4.344,1.795,4.344l-0.036,3.509c0,0-0.867,0.527-4.517,2.048
		c-3.653,1.519-6.337,2.584-7.435,4.299c-0.989,1.534-0.69,6.966-0.69,6.966h19.951c-1.24-1.745-1.97-3.876-1.97-6.175
		C33.356,37.397,34.863,34.439,37.227,32.478z"/>
	<path fill="#5F6062" d="M44.038,31.853c-4.887,0-8.848,3.961-8.848,8.847c0,4.887,3.961,8.848,8.848,8.848
		c4.886,0,8.848-3.961,8.848-8.848C52.885,35.814,48.924,31.853,44.038,31.853z M47.783,44.615L47.783,44.615
		c-0.3,0.301-0.787,0.301-1.088,0L43.3,41.22h0v-6.615c0-0.425,0.344-0.769,0.769-0.769h0c0.425,0,0.769,0.344,0.769,0.769v5.659
		c0,0.204,0.081,0.4,0.225,0.544l2.72,2.72C48.084,43.828,48.084,44.315,47.783,44.615z"/>

</svg>
