
<svg  xmlns="http://www.w3.org/2000/svg" x="0px" y="0px"
	 width="64.628px" height="64.628px" viewBox="0 0 64.628 64.628" >

	<path fill="#5F6062" d="M32.314,0C14.467,0,0,14.467,0,32.314C0,50.16,14.467,64.628,32.314,64.628S64.628,50.16,64.628,32.314
		C64.628,14.467,50.16,0,32.314,0z M32.314,62.689c-16.749,0-30.375-13.626-30.375-30.375S15.565,1.939,32.314,1.939
		s30.375,13.626,30.375,30.375S49.063,62.689,32.314,62.689z"/>
	<path fill="#5F6062" d="M46.139,34.259c-1.169,0-2.117,0.948-2.117,2.117v3.451H20.606v-3.451c0-1.169-0.948-2.117-2.117-2.117
		c-1.169,0-2.117,0.948-2.117,2.117v6.744c0,0.52,0.421,0.941,0.941,0.941h30.001c0.52,0,0.941-0.421,0.941-0.941v-6.744
		C48.256,35.207,47.308,34.259,46.139,34.259z"/>
	<path fill="#5F6062" d="M31.681,35.75c0.367,0.367,0.963,0.367,1.331,0l7.77-7.769c0.827-0.827,0.827-2.167,0-2.994
		c-0.827-0.827-2.167-0.827-2.994,0l-3.324,3.324V14.288c0-1.169-0.948-2.117-2.117-2.117c-1.169,0-2.117,0.948-2.117,2.117v14.023
		l-3.324-3.324c-0.827-0.827-2.167-0.827-2.994,0c-0.827,0.827-0.827,2.167,0,2.994L31.681,35.75z"/>

</svg>
